<svg width="237" height="48" viewBox="0 0 237 48" fill="none" xmlns="http://www.w3.org/2000/svg">
<path d="M177.315 13.9294H175.709V15.5355C175.709 15.9485 175.893 16.4533 176.719 16.4533H178.325V14.8472C178.325 14.4801 178.187 13.9294 177.315 13.9294Z" fill="#356AE6"/>
<path d="M177.178 19.1149H175.893V32.3768C175.893 32.9275 176.26 33.2946 176.765 33.3405V33.3864H178.233V20.0786C178.187 19.482 177.866 19.1149 177.178 19.1149Z" fill="#356AE6"/>
<path d="M99.4417 29.4858C98.891 28.9351 98.2027 29.0728 97.7897 29.4399C96.0918 30.8625 94.5315 31.4131 92.5124 31.4131C88.4742 31.4131 85.2619 28.0174 85.2619 23.6579C85.2619 19.2984 88.3824 15.9485 92.5124 15.9485C94.4857 15.9485 96.1377 16.5451 97.6979 17.8759C98.065 18.1971 98.7075 18.3348 99.1664 17.83C99.5794 17.417 99.9923 16.9581 99.9923 16.9581L100.084 16.8663L99.9923 16.7745C98.3403 15.1684 96.2753 13.7 92.5124 13.7C87.0516 13.7 82.8298 18.1053 82.8298 23.7038C82.8298 29.3481 86.9598 33.6158 92.4665 33.6158C95.5411 33.6158 97.7897 32.6063 100.084 30.22L100.13 30.1282L100.084 30.0365C100.084 30.1283 99.9465 29.9447 99.4417 29.4858Z" fill="#356AE6"/>
<path d="M134.317 18.7937C132.298 18.7937 130.692 19.6655 129.453 21.4093C128.902 20.308 127.618 18.7019 124.956 18.7019C122.662 18.7019 121.423 19.895 120.505 21.0881V20.0785C120.505 19.3902 120.092 18.9772 119.449 18.9772H118.164V33.2487H119.449C120.092 33.2487 120.459 33.0652 120.459 32.285V25.1722C120.459 22.6942 122.065 20.8587 124.222 20.8587C126.424 20.8587 127.709 22.373 127.709 24.9428V32.285C127.709 32.9734 128.076 33.2946 128.719 33.2946H130.004V25.1263C130.004 22.1894 131.885 20.9046 133.767 20.9046C136.015 20.9046 137.3 22.4189 137.3 24.9887V32.1474C137.3 32.7439 137.438 33.2946 138.356 33.2946H139.595V24.5298C139.641 20.9963 137.621 18.7937 134.317 18.7937Z" fill="#356AE6"/>
<path d="M150.883 18.8395C148.772 18.8395 147.029 19.7573 145.606 21.7305V20.2621C145.606 19.5278 145.193 19.1607 144.459 19.1607H143.312V36.6904C143.312 37.3787 143.633 37.6999 144.321 37.6999H145.606V30.9083C147.029 32.7439 148.726 33.6617 150.883 33.6617C154.187 33.6617 157.675 31.046 157.675 26.2277C157.675 21.4093 154.187 18.8395 150.883 18.8395ZM155.289 26.2277C155.289 29.3481 153.315 31.5049 150.47 31.5049C148.038 31.5049 145.514 29.4858 145.514 26.1818C145.514 22.8777 148.038 20.8586 150.47 20.8586C152.856 20.9045 155.289 22.7401 155.289 26.2277Z" fill="#356AE6"/>
<path d="M193.331 20.1244V21.3176C192.367 20.0785 190.669 18.7019 187.962 18.7019C186.264 18.7019 184.566 19.3443 183.327 20.4915C181.996 21.7306 181.262 23.5202 181.262 25.4476C181.262 29.807 184.704 32.1474 187.962 32.1474C190.073 32.1474 191.862 31.2755 193.377 29.4399V30.8166C193.377 33.9371 191.541 35.7267 188.421 35.7267C186.906 35.7267 185.438 35.3596 184.061 34.5795C183.694 34.3501 183.419 34.2583 183.189 34.2583C182.914 34.2583 182.639 34.3959 182.455 34.7172C182.088 35.3137 181.95 35.5891 181.95 35.5891L181.904 35.6808L181.996 35.7267C183.878 37.0575 186.034 37.7 188.421 37.7C193.01 37.7 195.671 35.1761 195.671 30.7707V19.069H194.386C193.973 19.069 193.331 19.4361 193.331 20.1244ZM193.468 25.5852C193.468 28.5221 190.899 30.2659 188.421 30.2659C185.713 30.2659 183.694 28.2468 183.694 25.5852C183.694 22.8778 185.713 20.9504 188.421 20.9504C190.853 20.9046 193.468 22.5107 193.468 25.5852Z" fill="#356AE6"/>
<path d="M206.501 18.8395C204.482 18.8395 202.922 19.6655 201.82 21.3175V20.1244C201.82 19.4361 201.27 19.1607 200.719 19.1607H199.434V33.4322H201.774L201.729 25.264C201.729 22.7401 203.426 20.9963 205.859 20.9963C208.245 20.9963 209.621 22.5106 209.621 25.1263V32.4686C209.621 33.1569 209.943 33.4322 210.539 33.4322H211.916V24.5298C211.962 21.0422 209.851 18.8395 206.501 18.8395Z" fill="#356AE6"/>
<path d="M166.302 18.8854C164.513 18.8854 162.906 19.2526 161.163 20.0327L161.071 20.0786L161.117 20.1703C161.117 20.1703 161.346 20.8128 161.53 21.2717C161.713 21.7306 162.264 21.7765 162.677 21.5929C163.87 21.134 164.926 20.9046 166.119 20.9046C168.734 20.9046 170.157 22.2353 170.157 24.6216V28.0633C170.157 30.2201 168.23 31.7344 165.568 31.7344C163.916 31.7344 162.126 30.9084 162.126 29.0728C162.126 27.329 163.549 26.3654 166.119 26.3654H167.266C167.954 26.3654 168.275 26.0441 168.275 25.4017V24.6216H165.889C161.989 24.6216 159.786 26.2736 159.786 29.1187C159.786 31.2755 161.438 33.6617 165.155 33.6617C167.174 33.6617 168.872 32.8816 170.111 31.4132V32.3768C170.111 33.0193 170.432 33.2946 171.121 33.2946H172.405V24.5757C172.36 20.9505 170.203 18.8854 166.302 18.8854Z" fill="#356AE6"/>
<path d="M108.528 18.8854C106.325 18.8854 104.765 19.4361 103.388 20.0327L103.296 20.1244L103.342 20.2162C103.342 20.2162 103.572 20.8587 103.755 21.3176C103.939 21.7765 104.489 21.8223 104.902 21.6388C106.096 21.1799 107.151 20.9505 108.344 20.9505C110.96 20.9505 112.428 22.2812 112.428 24.6675V28.0633C112.428 30.2201 110.501 31.7344 107.839 31.7344C106.187 31.7344 104.444 30.9084 104.444 29.0728C104.444 27.329 105.866 26.3654 108.39 26.3654H109.537C110.226 26.3654 110.547 26.0441 110.547 25.4017V24.6216H108.206C104.306 24.6216 102.057 26.2736 102.057 29.1187C102.057 31.2755 103.709 33.6617 107.38 33.6617C109.4 33.6617 111.097 32.8816 112.382 31.4132V32.3768C112.382 33.0193 112.704 33.2946 113.346 33.2946H114.631V24.5757C114.585 20.9505 112.428 18.8854 108.528 18.8854Z" fill="#356AE6"/>
<path d="M235.549 24.2086C235.228 23.9332 222.149 14.8013 221.553 14.4342L221.369 14.2965V16.5451C221.369 17.2793 221.736 17.5088 222.195 17.8759L222.287 17.9218C222.929 18.3807 232.245 24.851 233.484 25.7229C232.245 26.5948 222.792 33.157 222.195 33.5241C221.461 33.983 221.415 34.3042 221.415 34.9466V37.1034C221.415 37.1034 235.319 27.4208 235.595 27.1914C236.237 26.7325 236.375 26.1359 236.375 25.7688V25.4935C236.375 25.0346 236.099 24.5757 235.549 24.2086Z" fill="#356AE6"/>
<path d="M227.381 26.7324C227.748 26.7324 228.115 26.5948 228.482 26.3194C228.941 25.9982 229.354 25.7229 229.354 25.7229L229.492 25.6311L229.354 25.5393C229.308 25.4934 223.205 21.2716 222.562 20.8586C222.287 20.6292 221.92 20.5833 221.69 20.721C221.461 20.8586 221.277 21.0881 221.277 21.4552V22.8778L221.323 22.9237C221.369 22.9695 225.545 25.8606 226.371 26.4112C226.738 26.6407 227.059 26.7324 227.381 26.7324Z" fill="#356AE6"/>
<path d="M32.7647 30.0824C32.26 29.5776 31.6175 29.8988 31.3422 30.1283C30.2867 31.0919 29.0936 31.5508 27.8087 31.5508C25.0095 31.5508 22.8068 29.2105 22.8068 26.1818C22.8068 23.199 24.9636 20.8587 27.671 20.8587C29.2313 20.8587 30.2408 21.547 31.0668 22.1894C31.6634 22.6942 32.1682 22.7401 32.5812 22.2812C32.9483 21.9141 33.3613 21.4552 33.3613 21.4552L33.4531 21.3634L33.3613 21.2717C31.7552 19.5279 29.9655 18.7478 27.671 18.7478C23.5869 18.7478 20.3288 22.0059 20.3288 26.1818C20.3288 30.2659 23.6328 33.6158 27.671 33.6158C30.6538 33.6158 32.3517 32.1015 33.4531 30.8166H33.5448L33.4531 30.7248C33.4531 30.7248 33.2236 30.5413 32.7647 30.0824Z" fill="#356AE6"/>
<path d="M48 13.9294H46.3939V15.5355C46.3939 15.9485 46.5775 16.4533 47.4035 16.4533H49.0096V15.0307C49.0555 14.3883 48.6425 13.9294 48 13.9294Z" fill="#356AE6"/>
<path d="M47.8164 19.1149H46.4856V32.3768C46.4856 32.9275 46.8527 33.2946 47.3575 33.3405V33.3864H48.8259V20.0786C48.8718 19.482 48.5047 19.1149 47.8164 19.1149Z" fill="#356AE6"/>
<path d="M62.9139 19.895C62.7303 20.3997 59.2427 28.8433 58.5544 30.4036C57.912 28.7975 54.4244 20.3539 54.2408 19.895C54.0114 19.3443 53.5525 19.0231 52.9559 19.0231H51.3039L51.3957 19.1607C51.4416 19.3443 56.9942 32.1474 57.2236 32.6521C57.4531 33.2487 57.8202 33.3864 58.4167 33.3864H58.6921C59.2427 33.3864 59.6099 33.1569 59.8393 32.6521C60.0687 32.1474 65.6213 19.4361 65.6672 19.2984L65.759 19.1149H64.1529C63.5563 19.1149 63.1433 19.3443 62.9139 19.895Z" fill="#356AE6"/>
<path d="M77.2773 25.4017H71.8165C71.2199 25.4017 70.8528 25.7688 70.8528 26.3653V27.2831H70.9905C73.6062 27.2372 76.6348 27.2372 77.8738 27.2372C78.6081 27.2372 79.1587 27.0537 79.5717 26.6407C79.9389 26.2277 80.1224 25.5852 80.0765 24.851C79.6635 21.1799 77.0478 18.7936 73.4685 18.7936C69.5679 18.7936 66.5851 22.0059 66.5851 26.2277C66.5851 30.4954 69.6597 33.6617 73.7438 33.6617C76.1301 33.6617 77.9197 32.8357 79.6176 31.0001L79.7094 30.9084L79.6176 30.8166C79.6176 30.8166 79.2964 30.5412 78.9293 30.22C78.3786 29.7611 77.8738 29.9447 77.5985 30.22C76.589 31.1378 75.35 31.5967 73.8356 31.5967C71.2199 31.5967 69.2926 29.7152 68.9714 26.916C68.9714 26.916 68.9255 26.5948 68.9255 26.1818C68.9255 25.7229 68.9714 25.4017 68.9714 25.4017C69.2467 22.6483 71.0823 20.721 73.4226 20.721C75.7629 20.721 77.4608 22.2812 77.6903 24.6674C77.7362 24.8969 77.6903 25.0804 77.6444 25.1722C77.5067 25.3558 77.415 25.4017 77.2773 25.4017Z" fill="#356AE6"/>
<path d="M11.2887 14.6636C11.0134 14.113 10.6922 13.9294 10.0956 13.9294H9.54493C9.08604 13.9294 8.67304 14.2047 8.4436 14.6177C8.26004 15.0307 0.183555 33.0193 0.0917768 33.2028L0 33.3864H1.51434C2.15679 33.3864 2.56979 33.111 2.89101 32.4686C3.16635 31.9179 4.49713 28.8892 4.72658 28.3845H10.6463C11.3805 28.3845 11.8394 27.9256 11.8394 27.2372V26.2277H5.64436L9.82027 16.8663C10.6922 18.7936 16.5201 32.1015 16.7954 32.6521C17.1625 33.3864 18.0344 33.3864 18.3098 33.3864H19.6864L19.5946 33.2028C19.5946 33.0193 11.5641 15.2602 11.2887 14.6636Z" fill="#356AE6"/>
<path d="M43.0899 31.3214C42.8605 31.1837 42.5392 31.1378 42.218 31.2296C41.7132 31.3672 41.3461 31.459 40.8872 31.459C39.4188 31.459 38.6387 30.7248 38.6387 29.2105V21.1799H43.0899V20.2162C43.0899 19.482 42.4475 19.1149 41.8968 19.1149H38.5928V15.0766C38.5928 14.4342 38.1339 13.9753 37.4456 13.9753H36.2983V29.5317C36.2983 32.1474 37.7209 33.6158 40.3825 33.6158C41.392 33.6158 42.5392 33.3864 43.2735 33.0193L43.3194 32.9734V32.9275C43.3194 32.9275 43.3652 32.5145 43.3652 32.0097C43.4111 31.6426 43.2276 31.459 43.0899 31.3214Z" fill="#356AE6"/>
</svg>
