<svg width="133" height="48" viewBox="0 0 133 48" fill="none" xmlns="http://www.w3.org/2000/svg">
<path d="M14.635 6H0V41L14.635 6Z" fill="#FA0C00"/>
<path d="M24.9321 6H39.548V41L24.9321 6Z" fill="#FA0C00"/>
<path d="M19.7837 18.8998L29.0986 41H22.9872L20.2032 33.9638H13.3862L19.7837 18.8998Z" fill="#FA0C00"/>
<path d="M63.4236 28.2578L65.1493 33.206C65.2065 33.33 65.2923 33.3872 65.4448 33.3872H68.7627C68.9439 33.3872 68.9725 33.3014 68.9439 33.1202L62.0888 14.0804C62.0602 13.9279 62.0316 13.8993 61.879 13.8993H57.7603C57.6459 13.8993 57.5791 13.9851 57.5791 14.109C57.5219 15.1101 57.4361 15.4152 57.3122 15.7108L51.2007 33.0916C51.1721 33.3014 51.2389 33.3872 51.4105 33.3872H54.3756C54.5568 33.3872 54.6426 33.33 54.7093 33.1488L56.3397 28.2578H63.4236ZM57.2836 25.0257C58.1798 22.318 59.362 18.8475 59.8387 16.8644H59.8673C60.4584 18.9429 61.8504 23.0616 62.4797 25.0257H57.2836Z" fill="#FA0C00"/>
<path d="M77.7567 33.6827C79.5396 33.6827 81.4369 33.3585 83.3628 32.5291C83.5154 32.4719 83.544 32.4051 83.544 32.2621C83.4867 31.7282 83.42 30.9559 83.42 30.3648V12.4405C83.42 12.3261 83.42 12.2689 83.277 12.2689H80.0449C79.921 12.2689 79.8638 12.3261 79.8638 12.4787V18.552C79.3584 18.4947 79.0057 18.4661 78.5862 18.4661C73.371 18.4661 70.1675 21.908 70.1675 26.2079C70.1675 31.1943 73.4568 33.6827 77.7567 33.6827ZM79.8638 30.3648C79.3298 30.5364 78.7387 30.6032 78.1381 30.6032C75.7736 30.6032 73.8381 29.2684 73.8381 26.0268C73.8381 23.157 75.8308 21.4599 78.4718 21.4599C79.0057 21.4599 79.4729 21.5171 79.8638 21.6696V30.3648Z" fill="#FA0C00"/>
<path d="M93.8548 18.4662C89.4024 18.4662 86.647 21.8794 86.647 26.0935C86.647 29.8595 88.8398 33.6828 93.7881 33.6828C97.9736 33.6828 100.91 30.6032 100.91 25.9982C100.91 21.9366 98.4217 18.4662 93.8548 18.4662ZM93.6737 21.4599C96.1907 21.4599 97.2585 23.6242 97.2585 26.0935C97.2585 29.1445 95.6854 30.6604 93.8548 30.6604C91.5952 30.6604 90.2604 28.7631 90.2604 26.0268C90.2604 23.2142 91.681 21.4599 93.6737 21.4599Z" fill="#FA0C00"/>
<path d="M104.252 12.2689C104.128 12.2689 104.042 12.3261 104.042 12.4787V32.7674C104.042 32.8532 104.128 33.0058 104.252 33.0344C105.672 33.4729 107.16 33.6827 108.695 33.6827C113.09 33.6827 117.361 30.9559 117.361 25.4642C117.361 21.4885 114.634 18.4661 110.363 18.4661C109.381 18.4661 108.466 18.6187 107.665 18.8856L107.627 12.5073C107.627 12.2975 107.57 12.2689 107.36 12.2689H104.252ZM113.71 25.8265C113.71 29.1158 111.46 30.6604 109.028 30.6604C108.523 30.6604 108.075 30.6318 107.665 30.5078V21.8508C108.132 21.6696 108.695 21.5171 109.734 21.5171C112.079 21.5171 113.71 23.0044 113.71 25.8265Z" fill="#FA0C00"/>
<path d="M129.423 26.8944C130.872 26.8944 132.064 26.8658 132.474 26.7705C132.627 26.7419 132.684 26.6847 132.713 26.5607C132.798 26.2365 132.836 25.5596 132.836 24.7301C132.836 21.908 131.139 18.4662 126.754 18.4662C122.273 18.4662 119.784 22.1178 119.784 26.2365C119.784 29.8881 121.71 33.6828 127.106 33.6828C129.128 33.6828 130.434 33.3586 131.559 32.8247C131.673 32.7675 131.73 32.6721 131.73 32.5005V30.0312C131.73 29.8881 131.645 29.8595 131.559 29.9167C130.434 30.3935 129.213 30.6318 127.879 30.6318C124.856 30.6318 123.483 28.9633 123.398 26.8944H129.423ZM123.398 24.3392C123.636 22.8901 124.551 21.3169 126.601 21.3169C128.861 21.3169 129.452 23.2142 129.452 24.0723C129.452 24.1009 129.452 24.2248 129.452 24.3106C129.328 24.3392 128.947 24.3392 127.821 24.3392H123.398Z" fill="#FA0C00"/>
</svg>
