<svg width="156" height="48" viewBox="0 0 156 48" fill="none" xmlns="http://www.w3.org/2000/svg">
<path d="M12.7808 26.1911C12.7808 23.5847 10.8204 21.7528 8.41229 21.7528C6.00421 21.7528 4.0438 23.6155 4.0438 26.1911C4.0438 28.7358 6.00421 30.6295 8.41229 30.6295C10.8228 30.6271 12.7808 28.7976 12.7808 26.1911ZM12.8152 33.9488V31.9315C11.6271 33.3287 9.8586 34.1959 7.74078 34.1959C3.34031 34.1959 0 30.7815 0 26.1911C0 21.6292 3.46822 18.1555 7.83917 18.1555C9.89555 18.1555 11.6297 19.0251 12.8176 20.389V18.4335H16.768V33.9488H12.8152Z" fill="black"/>
<path d="M35.9562 30.5036C34.5738 30.5036 34.1901 30.0069 34.1901 28.7049V21.8169H36.7285V18.4335H34.1901V14.6485H30.1414V18.4335H24.9267V17.4902C24.9267 16.1858 25.4409 15.6892 26.8552 15.6892H27.7432V12.6788H25.795C22.4547 12.6788 20.8805 13.7338 20.8805 16.9604V18.4311H18.6323V21.8145H20.8805V33.9464H24.9293V21.8145H30.1438V29.4177C30.1438 32.5825 31.3959 33.9488 34.6722 33.9488H36.7605V30.5036H35.9562Z" fill="black"/>
<path d="M50.4762 24.794C50.1883 22.7767 48.4838 21.5673 46.4938 21.5673C44.5014 21.5673 42.8633 22.7459 42.4476 24.794H50.4762ZM42.4132 27.2151C42.7034 29.5103 44.4055 30.8148 46.5578 30.8148C48.2599 30.8148 49.5784 30.0378 50.3482 28.7975H54.4929C53.5287 32.0859 50.4762 34.1958 46.4619 34.1958C41.6113 34.1958 38.207 30.9074 38.207 26.2219C38.207 21.5365 41.8057 18.1531 46.5602 18.1531C51.3469 18.1531 54.8151 21.5674 54.8151 26.2219C54.8151 26.5641 54.7831 26.9039 54.7192 27.2151H42.4132Z" fill="black"/>
<path d="M80.5562 26.1911C80.5562 23.6773 78.5958 21.7528 76.1877 21.7528C73.7797 21.7528 71.8192 23.6155 71.8192 26.1911C71.8192 28.7358 73.7797 30.6295 76.1877 30.6295C78.5958 30.6271 80.5562 28.705 80.5562 26.1911ZM67.8345 18.4335H71.7847V20.4507C72.9728 19.0227 74.7389 18.1555 76.8592 18.1555C81.1957 18.1555 84.6 21.6007 84.6 26.1602C84.6 30.7221 81.1317 34.1982 76.7633 34.1982C74.7389 34.1982 73.0688 33.4213 71.9127 32.1193V40.3331H67.8345V18.4335Z" fill="black"/>
<path d="M98.8394 26.1911C98.8394 23.5847 96.8814 21.7528 94.4707 21.7528C92.0627 21.7528 90.1023 23.6155 90.1023 26.1911C90.1023 28.7358 92.0627 30.6295 94.4707 30.6295C96.8814 30.6271 98.8394 28.7976 98.8394 26.1911ZM98.874 33.9488V31.9315C97.6859 33.3287 95.9169 34.1959 93.799 34.1959C89.3988 34.1959 86.0586 30.7815 86.0586 26.1911C86.0586 21.6292 89.5268 18.1555 93.8953 18.1555C95.9515 18.1555 97.6859 19.0251 98.874 20.389V18.4335H102.825V33.9488H98.874Z" fill="black"/>
<path d="M60.7135 19.9541C60.7135 19.9541 61.7196 18.1555 64.1817 18.1555C65.2345 18.1555 65.9159 18.5048 65.9159 18.5048V22.4632C65.9159 22.4632 64.4301 21.5769 63.065 21.7551C61.6998 21.9334 60.8365 23.1451 60.8414 24.7655V33.9511H56.7632V18.4359H60.7135V19.9541Z" fill="black"/>
<path d="M121.274 18.4335L111.3 40.2831H107.094L111.01 31.8365L104.389 18.4335H109.156L113.03 27.3886L117.005 18.4335H121.274Z" fill="black"/>
<path d="M153.114 18.0818L143.226 12.5695C140.323 10.9515 136.695 12.9735 136.695 16.2119V16.7774C136.695 17.2883 136.977 17.7611 137.435 18.0153L139.302 19.056C139.85 19.3625 140.534 18.98 140.534 18.3693V16.9627C140.534 16.2595 141.322 15.8199 141.951 16.1715L150.516 20.9473C151.146 21.2989 151.146 22.1781 150.516 22.5274L141.951 27.3031C141.322 27.6548 140.534 27.2152 140.534 26.5119V25.7634C140.534 22.5249 136.906 20.5006 134.002 22.121L124.114 27.6333C121.211 29.2514 121.211 33.3001 124.114 34.9181L134.002 40.4305C136.904 42.0485 140.534 40.0265 140.534 36.7881V36.2226C140.534 35.7117 140.252 35.2413 139.794 34.9846L137.927 33.9416C137.379 33.6351 136.695 34.0176 136.695 34.6283V36.0349C136.695 36.7382 135.908 37.1777 135.278 36.8261L126.713 32.0503C126.084 31.6987 126.084 30.8196 126.713 30.4679L135.278 25.6921C135.908 25.3405 136.695 25.78 136.695 26.4833V27.2318C136.695 30.4703 140.323 32.4947 143.226 30.8742L153.114 25.3619C156.016 23.7486 156.016 19.6999 153.114 18.0818Z" fill="black"/>
</svg>
