<svg width="128" height="48" viewBox="0 0 128 48" fill="none" xmlns="http://www.w3.org/2000/svg">
<g clip-path="url(#clip0_201_7782)">
<path d="M67.547 14.05C67.547 15.4915 66.3858 16.6527 64.9444 16.6527C63.5029 16.6527 62.3418 15.4915 62.3418 14.05C62.3418 12.6086 63.4629 11.4474 64.9444 11.4474C66.4258 11.4875 67.547 12.6486 67.547 14.05ZM56.8162 19.2953C56.8162 19.5355 56.8162 19.9359 56.8162 19.9359C56.8162 19.9359 55.575 18.3343 52.9324 18.3343C48.568 18.3343 45.1646 21.6577 45.1646 26.2623C45.1646 30.8268 48.5279 34.1902 52.9324 34.1902C55.615 34.1902 56.8162 32.5485 56.8162 32.5485V33.2292C56.8162 33.5495 57.0565 33.7898 57.3768 33.7898H60.62V18.7347C60.62 18.7347 57.6571 18.7347 57.3768 18.7347C57.0565 18.7347 56.8162 19.015 56.8162 19.2953ZM56.8162 28.9449C56.2156 29.8258 55.0144 30.5866 53.573 30.5866C51.0104 30.5866 49.0485 28.985 49.0485 26.2623C49.0485 23.5395 51.0104 21.9379 53.573 21.9379C54.9744 21.9379 56.2557 22.7387 56.8162 23.5796V28.9449ZM63.0224 18.7347H66.8663V33.7898H63.0224V18.7347ZM120.44 18.3343C117.797 18.3343 116.556 19.9359 116.556 19.9359V11.4875H112.712V33.7898C112.712 33.7898 115.675 33.7898 115.955 33.7898C116.276 33.7898 116.516 33.5095 116.516 33.2292V32.5485C116.516 32.5485 117.757 34.1902 120.4 34.1902C124.764 34.1902 128.168 30.8268 128.168 26.2623C128.168 21.6977 124.764 18.3343 120.44 18.3343ZM119.799 30.5465C118.318 30.5465 117.157 29.7858 116.556 28.9049V23.5395C117.157 22.7387 118.438 21.8979 119.799 21.8979C122.362 21.8979 124.324 23.4995 124.324 26.2222C124.324 28.9449 122.362 30.5465 119.799 30.5465ZM110.71 24.8609V33.8298H106.866V25.3013C106.866 22.8188 106.065 21.8178 103.903 21.8178C102.742 21.8178 101.541 22.4184 100.78 23.2993V33.7898H96.9363V18.7347H99.9794C100.3 18.7347 100.54 19.015 100.54 19.2953V19.9359C101.661 18.7748 103.143 18.3343 104.624 18.3343C106.306 18.3343 107.707 18.8148 108.828 19.7758C110.19 20.8969 110.71 22.3383 110.71 24.8609ZM87.607 18.3343C84.9644 18.3343 83.7231 19.9359 83.7231 19.9359V11.4875H79.8793V33.7898C79.8793 33.7898 82.8423 33.7898 83.1225 33.7898C83.4429 33.7898 83.6831 33.5095 83.6831 33.2292V32.5485C83.6831 32.5485 84.9243 34.1902 87.567 34.1902C91.9313 34.1902 95.3347 30.8268 95.3347 26.2623C95.3748 21.6977 91.9714 18.3343 87.607 18.3343ZM86.9664 30.5465C85.4849 30.5465 84.3237 29.7858 83.7231 28.9049V23.5395C84.3237 22.7387 85.605 21.8979 86.9664 21.8979C89.5289 21.8979 91.4909 23.4995 91.4909 26.2222C91.4909 28.9449 89.5289 30.5465 86.9664 30.5465ZM76.556 18.3343C77.7171 18.3343 78.3177 18.5345 78.3177 18.5345V22.0981C78.3177 22.0981 75.1145 21.017 73.1125 23.2993V33.8298H69.2687V18.7347C69.2687 18.7347 72.2317 18.7347 72.5119 18.7347C72.8322 18.7347 73.0725 19.015 73.0725 19.2953V19.9359C73.7932 19.0951 75.3548 18.3343 76.556 18.3343ZM36.6361 32.4284C36.4359 31.9479 36.2357 31.4274 36.0355 30.987C35.7151 30.2663 35.3948 29.5856 35.1145 28.9449L35.0745 28.9049C32.3117 22.8989 29.3488 16.8128 26.2257 10.8068L26.1055 10.5666C25.7852 9.96597 25.4649 9.32533 25.1446 8.68468C24.7442 7.96396 24.3438 7.2032 23.7031 6.48248C22.4218 4.88088 20.58 4 18.618 4C16.616 4 14.8142 4.88088 13.4929 6.4024C12.8923 7.12312 12.4519 7.88388 12.0515 8.6046C11.7312 9.24525 11.4108 9.88589 11.0905 10.4865L10.9704 10.7267C7.88732 16.7327 4.88431 22.8188 2.12155 28.8248L2.08151 28.9049C1.80123 29.5455 1.48091 30.2262 1.16059 30.9469C0.960391 31.3874 0.760191 31.8679 0.559991 32.3884C0.0394705 33.8699 -0.12069 35.2713 0.0795105 36.7127C0.519951 39.7157 2.52195 42.2382 5.28471 43.3594C6.32576 43.7998 7.40684 44 8.52796 44C8.84828 44 9.24868 43.96 9.569 43.9199C10.8903 43.7598 12.2517 43.3193 13.573 42.5586C15.2146 41.6376 16.7762 40.3163 18.538 38.3944C20.2997 40.3163 21.9013 41.6376 23.5029 42.5586C24.8243 43.3193 26.1856 43.7598 27.5069 43.9199C27.8272 43.96 28.2277 44 28.548 44C29.6691 44 30.7902 43.7998 31.7912 43.3594C34.594 42.2382 36.556 39.6757 36.9964 36.7127C37.3167 35.3113 37.1566 33.9099 36.6361 32.4284ZM18.578 34.5105C16.4158 31.7878 15.0144 29.2252 14.534 27.0631C14.3338 26.1421 14.2937 25.3413 14.4138 24.6206C14.4939 23.98 14.7342 23.4194 15.0545 22.9389C15.8152 21.8579 17.0965 21.1772 18.578 21.1772C20.0595 21.1772 21.3808 21.8178 22.1015 22.9389C22.4218 23.4194 22.6621 23.98 22.7422 24.6206C22.8623 25.3413 22.8222 26.1822 22.622 27.0631C22.1416 29.1852 20.7402 31.7477 18.578 34.5105ZM34.554 36.3924C34.2737 38.4745 32.8723 40.2763 30.9103 41.0771C29.9494 41.4775 28.9083 41.5976 27.8673 41.4775C26.8663 41.3574 25.8653 41.037 24.8243 40.4364C23.3828 39.6356 21.9414 38.3944 20.2597 36.5526C22.9023 33.3093 24.5039 30.3463 25.1045 27.7037C25.3848 26.4625 25.4249 25.3413 25.3047 24.3003C25.1446 23.2993 24.7842 22.3784 24.2236 21.5776C22.9824 19.7758 20.9003 18.7347 18.578 18.7347C16.2557 18.7347 14.1736 19.8158 12.9324 21.5776C12.3718 22.3784 12.0114 23.2993 11.8513 24.3003C11.6911 25.3413 11.7312 26.5025 12.0515 27.7037C12.6521 30.3463 14.2937 33.3493 16.8963 36.5926C15.2547 38.4344 13.7732 39.6757 12.3318 40.4765C11.2907 41.0771 10.2897 41.3974 9.28872 41.5175C8.20764 41.6376 7.1666 41.4775 6.24568 41.1171C4.28371 40.3163 2.88231 38.5145 2.60203 36.4324C2.48191 35.4314 2.56199 34.4304 2.96239 33.3093C3.08251 32.9089 3.28271 32.5085 3.48291 32.028C3.76319 31.3874 4.08351 30.7067 4.40383 30.026L4.44387 29.9459C7.20664 23.98 10.1696 17.8939 13.2527 11.968L13.3728 11.7277C13.6931 11.1271 14.0134 10.4865 14.3338 9.88589C14.6541 9.24524 15.0144 8.64464 15.4549 8.12412C16.2957 7.16316 17.4168 6.64264 18.6581 6.64264C19.8993 6.64264 21.0204 7.16316 21.8613 8.12412C22.3017 8.64464 22.6621 9.24524 22.9824 9.88589C23.3027 10.4865 23.623 11.1271 23.9434 11.7277L24.0635 11.968C27.1065 17.9339 30.0695 24.02 32.8323 29.986V30.026C33.1526 30.6667 33.4329 31.3874 33.7532 32.028C33.9534 32.5085 34.1536 32.9089 34.2737 33.3093C34.594 34.3503 34.7141 35.3514 34.554 36.3924Z" fill="#FF5A5F"/>
</g>
<defs>
<clipPath id="clip0_201_7782">
<rect width="128" height="48" fill="white"/>
</clipPath>
</defs>
</svg>
