<svg width="144" height="48" viewBox="0 0 144 48" fill="none" xmlns="http://www.w3.org/2000/svg">
<path d="M143.733 23.6241V19.03C142.834 19.0659 140.138 19.4326 138.945 20.8633V19.3463H133.912V34.6528H138.945V27.4201C139.664 24.0123 142.921 23.6528 143.747 23.6241H143.733ZM98.6546 23.8038C98.1146 23.3208 97.4973 22.932 96.8285 22.6535C96.2777 22.385 95.6725 22.2473 95.0598 22.2509C94.606 22.2464 94.1567 22.3421 93.7442 22.5313C93.5562 22.6075 93.3969 22.7408 93.2885 22.9123C93.1802 23.0838 93.1283 23.285 93.1402 23.4875C93.1353 23.6928 93.1971 23.8942 93.3163 24.0615C93.4356 24.2287 93.6059 24.3527 93.8017 24.4149C94.5041 24.6749 95.2251 24.8816 95.9585 25.0332C96.5559 25.1627 97.1424 25.3381 97.7128 25.5581C98.2864 25.7768 98.8243 26.0797 99.3089 26.4567C99.7816 26.8287 100.173 27.2936 100.459 27.8228C100.76 28.4142 100.909 29.0717 100.891 29.7352C100.922 30.5454 100.739 31.3497 100.361 32.0667C99.9819 32.7837 99.4207 33.3881 98.7337 33.8188C98.0748 34.2459 97.3441 34.5504 96.5768 34.7175C95.8044 34.9029 95.013 34.997 94.2187 34.9979C92.9599 34.998 91.7095 34.794 90.5161 34.394C89.3829 34.0415 88.3469 33.4312 87.4893 32.611L89.9768 29.4979C90.5831 30.0517 91.272 30.5077 92.0187 30.8495C92.6721 31.1782 93.3938 31.3482 94.1252 31.3456C94.552 31.3412 94.9723 31.2405 95.3546 31.0509C95.5489 30.9605 95.7109 30.8129 95.8189 30.6279C95.9268 30.4428 95.9756 30.2291 95.9585 30.0156C95.9612 29.7879 95.8935 29.565 95.7649 29.3771C95.6362 29.1893 95.4528 29.0457 95.2396 28.9659C94.4898 28.6539 93.7123 28.4132 92.9174 28.2469C92.3677 28.1179 91.8272 27.9522 91.2997 27.7509C90.7801 27.5491 90.295 27.2677 89.8618 26.9169C89.448 26.5638 89.1062 26.1341 88.8553 25.6515C88.5746 25.0743 88.4366 24.4382 88.4527 23.7966C88.4291 22.9668 88.633 22.1464 89.0422 21.4241C89.4273 20.774 89.9561 20.2207 90.588 19.8064C91.2156 19.3859 91.9113 19.077 92.6442 18.8934C93.3812 18.7004 94.1397 18.6014 94.9017 18.5986C96.0542 18.5974 97.1997 18.7794 98.2951 19.1378C99.3409 19.4646 100.301 20.0195 101.106 20.7626L98.6546 23.8038ZM128.11 25.0117C128.104 24.3071 127.849 23.6272 127.391 23.092C127.095 22.7895 126.736 22.556 126.34 22.4081C125.944 22.2602 125.519 22.2016 125.098 22.2365C124.639 22.2326 124.184 22.3105 123.753 22.4666C123.362 22.6096 122.999 22.8215 122.682 23.092C122.387 23.3564 122.143 23.6733 121.963 24.0267C121.803 24.3334 121.703 24.6676 121.668 25.0117H128.11ZM132.747 27.0894V27.7005C132.759 27.8945 132.759 28.0889 132.747 28.2829H121.647C121.679 28.6937 121.81 29.0907 122.028 29.4404C122.244 29.7914 122.525 30.0986 122.855 30.3463C123.199 30.604 123.583 30.8054 123.991 30.943C124.409 31.0867 124.849 31.1596 125.292 31.1587C125.994 31.1791 126.69 31.026 127.319 30.7129C127.849 30.436 128.308 30.0427 128.664 29.5626L132.165 31.7698C131.435 32.8103 130.443 33.6389 129.289 34.1711C128.016 34.7444 126.631 35.0268 125.234 34.9979C124.126 35.0043 123.025 34.822 121.977 34.4587C120.989 34.122 120.077 33.5917 119.296 32.8986C118.519 32.1974 117.904 31.3365 117.491 30.375C117.032 29.2937 116.806 28.1275 116.83 26.9528C116.815 25.7927 117.032 24.6413 117.47 23.5666C117.873 22.6017 118.467 21.7286 119.217 20.9999C119.971 20.2876 120.857 19.7307 121.826 19.3607C122.871 18.9631 123.98 18.7656 125.098 18.7783C126.157 18.7684 127.209 18.9612 128.196 19.3463C129.114 19.7084 129.942 20.2681 130.619 20.9855C131.316 21.7354 131.854 22.6182 132.201 23.5809C132.594 24.7032 132.786 25.886 132.769 27.075L132.747 27.0894ZM72.118 23.4947V18.8718H67.8043V15.4424C67.6965 13.4653 66.7618 11.9914 62.9442 11.9914V29.7999C62.9407 30.5135 63.0326 31.2243 63.2174 31.9136C63.3804 32.5192 63.675 33.0813 64.0801 33.56C64.514 34.0368 65.0602 34.3977 65.669 34.6097C66.5195 34.8802 67.4081 35.0114 68.3004 34.9979C69.6003 35.0138 70.8928 34.7996 72.118 34.3652V30.2672C71.3002 30.4768 70.4603 30.5879 69.6161 30.5979C69.3532 30.6304 69.0864 30.6012 68.8368 30.5126C68.5872 30.424 68.3617 30.2784 68.1782 30.0875C67.8907 29.6207 67.762 29.0733 67.8115 28.5273V23.4947H72.118Z" fill="#008FB4"/>
<path d="M112.487 26.4856L118.167 19.2961H112.157L107.124 25.6516V15.5863C107.031 13.5157 106.132 11.9915 102.257 11.9915V34.6529H107.124V27.334L112.876 34.6529H118.951L112.487 26.4856ZM86.6338 34.6386V24.5013C86.6338 20.1373 83.1685 18.57 80.0986 18.57C77.6813 18.4493 75.3034 19.2164 73.4123 20.7268L75.9502 23.8758C76.9721 22.9783 78.2491 22.4227 79.6025 22.2869C81.4502 22.2869 81.8312 23.3438 81.8312 24.6954V24.9543H80.1704C75.8999 24.9543 73.3332 26.802 73.3332 30.0948C73.3332 33.6895 76.4966 34.6242 80.3502 34.6242L86.6338 34.6386ZM81.8312 31.4536H80.2352C78.9914 31.4536 78.2293 30.936 78.2293 29.8647C78.2293 28.7935 78.9914 28.1752 80.5155 28.1752H81.8312V31.4536ZM45.215 14.7739C45.215 15.5175 45.5104 16.2307 46.0362 16.7566C46.562 17.2824 47.2752 17.5778 48.0189 17.5778C48.7625 17.5778 49.4757 17.2824 50.0015 16.7566C50.5274 16.2307 50.8228 15.5175 50.8228 14.7739C50.8228 14.0302 50.5274 13.3171 50.0015 12.7912C49.4757 12.2654 48.7625 11.97 48.0189 11.97C47.2752 11.97 46.562 12.2654 46.0362 12.7912C45.5104 13.3171 45.215 14.0302 45.215 14.7739ZM45.6895 18.9079H45.481V34.6529H50.5496V22.2222C50.4058 20.3098 49.428 18.9079 45.6895 18.9079ZM61.83 23.6242V19.0301C60.9385 19.066 58.2352 19.4327 57.0417 20.8634V19.3464H52.0091V34.6529H57.0417V27.5425C57.0383 27.5018 57.0383 27.4609 57.0417 27.4203C57.7607 24.0124 61.0104 23.653 61.8443 23.6242H61.83ZM142.274 32.3451H141.993V32.8771H142.274C142.31 32.8791 142.346 32.8736 142.38 32.8612C142.414 32.8487 142.445 32.8294 142.471 32.8045C142.497 32.7796 142.518 32.7496 142.532 32.7163C142.547 32.6831 142.554 32.6473 142.554 32.6111C142.554 32.5749 142.547 32.5391 142.532 32.5059C142.518 32.4726 142.497 32.4426 142.471 32.4177C142.445 32.3928 142.414 32.3736 142.38 32.3611C142.346 32.3486 142.31 32.3431 142.274 32.3451ZM142.554 33.819L142.209 33.1H141.993V33.819H141.677V32.0719H142.353C142.424 32.07 142.496 32.0825 142.562 32.1088C142.629 32.1352 142.69 32.1747 142.741 32.225C142.792 32.2754 142.832 32.3356 142.859 32.4019C142.887 32.4683 142.9 32.5394 142.899 32.6111C142.9 32.7157 142.868 32.818 142.807 32.9032C142.746 32.9884 142.66 33.0523 142.561 33.0856L142.942 33.8046L142.554 33.819ZM142.223 31.6621C141.961 31.6492 141.7 31.7152 141.476 31.8517C141.251 31.9882 141.072 32.1889 140.963 32.4278C140.853 32.6668 140.818 32.9332 140.861 33.1925C140.904 33.4518 141.024 33.6922 141.205 33.8828C141.386 34.0733 141.62 34.2052 141.877 34.2614C142.134 34.3177 142.402 34.2957 142.646 34.1983C142.89 34.1009 143.1 33.9326 143.247 33.715C143.395 33.4975 143.474 33.2407 143.474 32.9778C143.479 32.8091 143.45 32.6412 143.39 32.4836C143.33 32.326 143.239 32.182 143.122 32.0597C143.006 31.9374 142.867 31.8393 142.713 31.7711C142.558 31.7029 142.392 31.6658 142.223 31.6621ZM142.223 34.5954C141.903 34.6054 141.586 34.5197 141.314 34.3494C141.043 34.1791 140.827 33.9317 140.696 33.6389C140.566 33.346 140.525 33.0208 140.579 32.7046C140.633 32.3884 140.78 32.0956 141.002 31.8632C141.223 31.6308 141.508 31.4695 141.821 31.3997C142.134 31.3299 142.461 31.3547 142.76 31.4711C143.059 31.5875 143.317 31.7902 143.5 32.0533C143.684 32.3165 143.785 32.6283 143.791 32.949C143.796 33.3711 143.635 33.7783 143.341 34.0815C143.047 34.3846 142.645 34.5591 142.223 34.5667V34.5954ZM31.332 25.7739L33.5823 19.3033L35.8326 25.7739H31.332ZM35.9477 11.9915H31.4254L24.4444 30.4399H21.698C19.8256 30.5192 17.9703 30.0547 16.3562 29.1026C15.7128 28.6898 15.1907 28.1134 14.8433 27.4325C14.4959 26.7516 14.3357 25.9906 14.3791 25.2275V23.0706H12.1503C10.0772 23.0138 8.09193 22.2212 6.54966 20.8347C5.34474 19.5709 4.58714 17.9471 4.3928 16.2118H20.0157C22.8555 16.2118 23.9052 17.5994 24.5594 18.8432C24.8809 19.467 25.1224 20.1289 25.2784 20.8131L27.2555 15.5863C27.2555 15.5863 25.6019 11.9915 20.0157 11.9915H0V14.1484C0 18.2177 1.20784 21.4817 3.59477 23.8255C5.46844 25.5986 7.8388 26.7575 10.3889 27.1471C11.2876 31.7627 15.5294 34.6386 21.698 34.6386H28.1111L29.549 30.483H37.5797L39.0176 34.6314H44.5032L35.9477 11.9915Z" fill="#008FB4"/>
</svg>
