<svg width="154" height="48" viewBox="0 0 154 48" fill="none" xmlns="http://www.w3.org/2000/svg">
<g clip-path="url(#clip0_201_7784)">
<path d="M61.7092 25.6624L59.0321 18.6559C58.9229 18.3694 58.5054 18.3694 58.3959 18.6559L55.7192 25.6628C55.7002 25.7126 55.6939 25.7662 55.7008 25.8188C55.7078 25.8715 55.7277 25.9218 55.7589 25.9654C55.7902 26.009 55.8319 26.0446 55.8803 26.0692C55.9288 26.0938 55.9827 26.1066 56.0375 26.1066H61.391C61.4457 26.1066 61.4996 26.0937 61.5481 26.0691C61.5966 26.0445 61.6382 26.0089 61.6695 25.9653C61.7007 25.9216 61.7206 25.8713 61.7275 25.8186C61.7344 25.7659 61.728 25.7124 61.709 25.6626L61.7092 25.6624ZM62.9459 29.6006H54.4828C54.4136 29.6006 54.346 29.6212 54.2891 29.6596C54.2323 29.698 54.1889 29.7523 54.1648 29.8154L52.4987 34.175C52.4746 34.238 52.4312 34.2923 52.3743 34.3307C52.3175 34.3691 52.2499 34.3897 52.1807 34.3897H48.5125C48.4571 34.3897 48.4025 34.3765 48.3535 34.3512C48.3045 34.326 48.2626 34.2895 48.2316 34.2449C48.2005 34.2003 48.1812 34.149 48.1753 34.0954C48.1694 34.0419 48.1771 33.9878 48.1977 33.9378L56.6429 13.5118C56.6682 13.4507 56.7117 13.3985 56.7678 13.3617C56.824 13.3249 56.8902 13.3053 56.9579 13.3053H60.4703C60.6087 13.3053 60.7333 13.387 60.7851 13.5118L69.2301 33.9376C69.2508 33.9876 69.2586 34.0418 69.2527 34.0953C69.2468 34.1489 69.2275 34.2003 69.1964 34.245C69.1654 34.2896 69.1235 34.3262 69.0744 34.3515C69.0254 34.3767 68.9708 34.3899 68.9153 34.3899H65.2478C65.1785 34.3899 65.1109 34.3693 65.0541 34.3309C64.9972 34.2924 64.9538 34.238 64.9298 34.175L63.2634 29.8154C63.2393 29.7523 63.1959 29.698 63.1391 29.6596C63.0822 29.6212 63.0147 29.6006 62.9454 29.6006H62.9459ZM70.9487 20.4739H74.0861C74.176 20.4739 74.2623 20.5086 74.3259 20.5703C74.3896 20.6321 74.4253 20.7159 74.4253 20.8032V34.0603C74.4253 34.1477 74.3896 34.2315 74.3259 34.2932C74.2623 34.355 74.176 34.3897 74.0861 34.3897H70.9487C70.8587 34.3897 70.7724 34.355 70.7088 34.2932C70.6452 34.2315 70.6095 34.1477 70.6095 34.0603V20.803C70.6095 20.7157 70.6452 20.6319 70.7088 20.5701C70.7724 20.5083 70.8587 20.4736 70.9487 20.4736V20.4739ZM85.8674 23.6986C85.8674 23.786 85.8317 23.8698 85.768 23.9316C85.7044 23.9933 85.6181 24.028 85.5282 24.028H85.4332C83.8819 24.028 82.7441 24.3895 82.0204 25.1123C81.2962 25.8352 80.9348 27.0302 80.9348 28.6968V34.0603C80.9348 34.1477 80.899 34.2315 80.8354 34.2932C80.7718 34.355 80.6855 34.3897 80.5955 34.3897H77.4889C77.3989 34.3897 77.3127 34.355 77.249 34.2932C77.1854 34.2315 77.1497 34.1477 77.1497 34.0603V20.803C77.1497 20.7157 77.1854 20.6319 77.249 20.5701C77.3127 20.5083 77.3989 20.4736 77.4889 20.4736H80.5643C80.6543 20.4736 80.7406 20.5083 80.8042 20.5701C80.8678 20.6319 80.9036 20.7157 80.9036 20.803V23.4253H80.9657C81.338 22.341 81.9274 21.5081 82.7344 20.9253C83.5406 20.3432 84.5335 20.0518 85.7123 20.0518H85.8674V23.6984V23.6986ZM94.4458 23.5761C94.3559 23.5761 94.2696 23.6108 94.2059 23.6726C94.1423 23.7344 94.1066 23.8181 94.1066 23.9055V29.4197C94.1066 29.982 94.2197 30.3836 94.4476 30.6245C94.6749 30.8654 95.068 30.986 95.6264 30.986H95.9387C96.0287 30.986 96.115 31.0207 96.1786 31.0824C96.2422 31.1442 96.278 31.228 96.278 31.3153V34.0902C96.278 34.1776 96.2422 34.2613 96.1786 34.3231C96.115 34.3849 96.0287 34.4196 95.9387 34.4196H94.6026C93.2169 34.4196 92.1518 34.0733 91.4073 33.3805C90.6625 32.6877 90.2903 31.659 90.2903 30.2932V23.9055C90.2903 23.8181 90.2545 23.7344 90.1909 23.6726C90.1273 23.6108 90.041 23.5761 89.951 23.5761H87.9927C87.9027 23.5761 87.8164 23.5414 87.7528 23.4797C87.6892 23.4179 87.6534 23.3341 87.6534 23.2467V20.803C87.6534 20.7157 87.6892 20.6319 87.7528 20.5701C87.8164 20.5083 87.9027 20.4736 87.9927 20.4736H89.9513C90.0412 20.4736 90.1275 20.4389 90.1911 20.3772C90.2548 20.3154 90.2905 20.2316 90.2905 20.1443V15.2307C90.2905 15.1433 90.3262 15.0595 90.3899 14.9977C90.4535 14.936 90.5398 14.9013 90.6298 14.9013H93.7671C93.8571 14.9013 93.9434 14.936 94.007 14.9977C94.0706 15.0595 94.1064 15.1433 94.1064 15.2307V20.1443C94.1064 20.2316 94.1421 20.3154 94.2057 20.3772C94.2693 20.4389 94.3556 20.4736 94.4456 20.4736H96.7143C96.8042 20.4736 96.8905 20.5083 96.9541 20.5701C97.0178 20.6319 97.0535 20.7157 97.0535 20.803V23.247C97.0535 23.3343 97.0178 23.4181 96.9541 23.4799C96.8905 23.5416 96.8042 23.5763 96.7143 23.5763H94.4458V23.5761ZM108.812 30.2631C109.526 29.5402 109.882 28.5964 109.882 27.4316C109.882 26.2673 109.526 25.3231 108.812 24.6003C108.098 23.8774 107.162 23.516 106.004 23.516C104.846 23.516 103.91 23.8774 103.197 24.6003C102.483 25.3231 102.126 26.2673 102.126 27.4316C102.126 28.5964 102.483 29.5402 103.197 30.2631C103.91 30.986 104.846 31.3474 106.004 31.3474C107.162 31.3474 108.098 30.986 108.812 30.2631ZM101.568 33.9679C100.513 33.3858 99.6804 32.5371 99.0707 31.4227C98.4602 30.3083 98.1554 28.9781 98.1554 27.4316C98.1554 25.8857 98.4602 24.555 99.0707 23.4406C99.6804 22.3263 100.513 21.4782 101.568 20.8955C102.623 20.3131 103.781 20.022 105.043 20.022C106.159 20.022 107.116 20.2328 107.913 20.6544C108.708 21.0759 109.344 21.6686 109.82 22.4317H109.882V20.803C109.882 20.7157 109.918 20.6319 109.982 20.5701C110.045 20.5083 110.132 20.4736 110.221 20.4736H113.328C113.418 20.4736 113.504 20.5083 113.568 20.5701C113.631 20.6319 113.667 20.7157 113.667 20.803V34.0601C113.667 34.1475 113.631 34.2312 113.568 34.293C113.504 34.3548 113.418 34.3895 113.328 34.3895H110.221C110.132 34.3895 110.045 34.3548 109.982 34.293C109.918 34.2312 109.882 34.1475 109.882 34.0601V32.4317H109.82C109.344 33.1952 108.708 33.7872 107.912 34.2088C107.116 34.6304 106.16 34.8412 105.043 34.8412C103.781 34.8412 102.623 34.55 101.568 33.9679ZM126.586 30.2631C127.3 29.5402 127.656 28.5964 127.656 27.4316C127.656 26.2673 127.3 25.3231 126.586 24.6003C125.873 23.8774 124.937 23.516 123.779 23.516C122.62 23.516 121.685 23.8774 120.971 24.6003C120.258 25.3231 119.901 26.2673 119.901 27.4316C119.901 28.5964 120.258 29.5402 120.971 30.2631C121.685 30.986 122.62 31.3474 123.779 31.3474C124.937 31.3474 125.873 30.986 126.586 30.2631ZM121.871 34.2088C121.074 33.7872 120.438 33.1952 119.963 32.4317H119.901V34.0601C119.901 34.1475 119.865 34.2312 119.801 34.293C119.738 34.3548 119.651 34.3895 119.561 34.3895H116.424C116.334 34.3895 116.248 34.3548 116.184 34.293C116.121 34.2312 116.085 34.1475 116.085 34.0601V13.6341C116.085 13.5467 116.121 13.4629 116.184 13.4012C116.248 13.3394 116.334 13.3047 116.424 13.3047H119.561C119.651 13.3047 119.738 13.3394 119.801 13.4012C119.865 13.4629 119.901 13.5467 119.901 13.6341V22.4314H119.963C120.438 21.6684 121.074 21.0759 121.871 20.6544C122.667 20.2325 123.624 20.0217 124.741 20.0217C126.002 20.0217 127.16 20.3129 128.215 20.8952C129.27 21.478 130.102 22.326 130.712 23.4402C131.322 24.5552 131.628 25.8859 131.628 27.4318C131.628 28.9783 131.322 30.3083 130.713 31.4229C130.102 32.5373 129.27 33.386 128.215 33.9679C127.161 34.5502 126.002 34.8416 124.741 34.8416C123.624 34.8416 122.667 34.6308 121.871 34.209L121.871 34.2088ZM136.914 34.3897H133.776C133.687 34.3897 133.6 34.355 133.537 34.2932C133.473 34.2315 133.437 34.1477 133.437 34.0603V13.6347C133.437 13.5474 133.473 13.4636 133.537 13.4018C133.6 13.34 133.687 13.3053 133.776 13.3053H136.914C137.004 13.3053 137.09 13.34 137.154 13.4018C137.217 13.4636 137.253 13.5474 137.253 13.6347V34.0603C137.253 34.1477 137.217 34.2315 137.154 34.2932C137.09 34.355 137.004 34.3897 136.914 34.3897ZM144.314 23.6969C143.794 24.0908 143.443 24.6595 143.261 25.4035C143.211 25.6086 143.376 25.8053 143.593 25.8053H149.564C149.771 25.8053 149.934 25.6253 149.9 25.4268C149.781 24.723 149.47 24.162 148.968 23.7421C148.379 23.2503 147.608 23.0043 146.657 23.0043C145.705 23.0043 144.924 23.2351 144.314 23.6969ZM151.962 21.9648C153.182 23.2604 153.792 25.0928 153.792 27.4619V27.8554C153.792 27.9427 153.756 28.0265 153.693 28.0883C153.629 28.15 153.543 28.1847 153.453 28.1847H143.478C143.428 28.1848 143.379 28.1955 143.334 28.2159C143.289 28.2363 143.249 28.266 143.217 28.3029C143.185 28.3398 143.162 28.3831 143.149 28.4296C143.136 28.4762 143.134 28.525 143.142 28.5725C143.302 29.4526 143.703 30.1518 144.345 30.6698C145.079 31.2626 146.005 31.5584 147.122 31.5584C148.564 31.5584 149.898 31.0121 151.126 29.9192C151.276 29.7857 151.513 29.814 151.629 29.9763L153.155 32.1019C153.203 32.168 153.224 32.2488 153.214 32.3291C153.204 32.4093 153.165 32.4834 153.103 32.5371C152.354 33.1733 151.522 33.7102 150.628 34.1337C149.635 34.6053 148.466 34.8416 147.122 34.8416C145.571 34.8416 144.216 34.5351 143.058 33.9229C141.899 33.3107 141 32.4473 140.359 31.3325C139.718 30.2181 139.397 28.928 139.397 27.4619C139.397 25.9964 139.707 24.7013 140.328 23.5763C140.948 22.4521 141.817 21.5786 142.934 20.9558C144.051 20.3338 145.354 20.0222 146.843 20.0222C149.034 20.0222 150.741 20.6699 151.962 21.9648ZM74.8351 15.5728C74.8351 16.8152 73.7977 17.8224 72.5178 17.8224C71.2377 17.8224 70.2003 16.8152 70.2003 15.5725C70.2003 14.3299 71.238 13.3227 72.5178 13.3227C73.7977 13.3227 74.8351 14.3299 74.8351 15.5725" fill="#333333"/>
<path d="M17.8671 7.36428L2.94929 13.3574C2.11972 13.6907 2.12831 14.8349 2.96309 15.1562L17.9431 20.9238C19.2593 21.4306 20.725 21.4306 22.0412 20.9238L37.0214 15.156C37.856 14.8349 37.865 13.6909 37.035 13.3576L22.1176 7.36406C20.7567 6.81729 19.2278 6.81729 17.8669 7.36406" fill="#FCB400"/>
<path d="M21.3213 24.0731V38.4814C21.3213 39.1665 22.033 39.636 22.6891 39.3835L39.3815 33.0929C39.5676 33.0212 39.7273 32.8969 39.8399 32.7361C39.9524 32.5752 40.0125 32.3853 40.0125 32.1908V17.7827C40.0125 17.0974 39.3007 16.6281 38.6446 16.8807L21.9523 23.1713C21.7662 23.243 21.6065 23.3673 21.494 23.5281C21.3815 23.689 21.3213 23.8789 21.3213 24.0733" fill="#18BFFF"/>
<path d="M17.4233 24.8166L12.4694 27.1389L11.9664 27.3749L1.50897 32.2398C0.846308 32.5503 0 32.0813 0 31.3663V17.843C0 17.5844 0.136603 17.3611 0.319797 17.1931C0.394951 17.1204 0.480214 17.0583 0.573101 17.0086C0.822787 16.863 1.17922 16.8242 1.48228 16.9406L17.34 23.041C18.1461 23.3515 18.2094 24.4481 17.4233 24.8168" fill="#F82B60"/>
<path d="M17.4233 24.8166L12.4694 27.1389L0.319824 17.1929C0.394993 17.1203 0.480255 17.0583 0.573129 17.0086C0.822815 16.863 1.17925 16.8242 1.48231 16.9406L17.3401 23.041C18.1461 23.3515 18.2095 24.4481 17.4233 24.8168" fill="black" fill-opacity="0.25"/>
</g>
<defs>
<clipPath id="clip0_201_7784">
<rect width="154" height="48" fill="white"/>
</clipPath>
</defs>
</svg>
