<svg width="168" height="48" viewBox="0 0 168 48" fill="none" xmlns="http://www.w3.org/2000/svg">
<path d="M144.458 22.5851C146.578 22.5851 147.396 23.8827 147.51 25.0125C147.511 25.0296 147.51 25.0468 147.504 25.063C147.499 25.0792 147.49 25.0942 147.478 25.1068C147.467 25.1194 147.453 25.1295 147.437 25.1364C147.421 25.1433 147.404 25.1468 147.387 25.1467H141.564C141.546 25.1467 141.529 25.143 141.513 25.1358C141.497 25.1287 141.483 25.1182 141.472 25.1052C141.46 25.0921 141.451 25.0768 141.446 25.0601C141.441 25.0435 141.44 25.026 141.442 25.0087C141.599 23.9047 142.577 22.5851 144.458 22.5851ZM147.65 29.7686C147.611 29.7684 147.573 29.7774 147.538 29.7949C147.504 29.8124 147.474 29.8379 147.451 29.8692C146.926 30.609 146.071 31.0652 144.795 31.0652C143.037 31.0652 141.51 29.9094 141.345 28.2717C141.344 28.2547 141.345 28.2376 141.351 28.2215C141.356 28.2053 141.365 28.1904 141.376 28.1778C141.388 28.1652 141.402 28.1551 141.417 28.1481C141.433 28.1412 141.45 28.1376 141.467 28.1375H151.931C151.96 28.0455 152.022 27.3441 152.022 26.703C152.022 21.8233 149.112 18.9254 144.396 18.9254C140.446 18.9254 136.802 22.036 136.802 26.9167C136.802 32.011 140.538 34.9999 144.734 34.9999C148.526 34.9999 150.928 32.8783 151.707 30.3138C151.712 30.2985 151.738 30.2027 151.767 30.0628C151.774 30.0272 151.773 29.9904 151.765 29.9551C151.756 29.9198 151.74 29.8868 151.717 29.8586C151.694 29.8305 151.665 29.8077 151.632 29.7922C151.599 29.7766 151.563 29.7685 151.527 29.7686H147.65ZM156.902 26.839L151.941 19.7668C151.915 19.7301 151.9 19.6871 151.898 19.6424C151.895 19.5977 151.904 19.5531 151.925 19.5135C151.946 19.4739 151.977 19.4407 152.015 19.4176C152.054 19.3945 152.098 19.3823 152.142 19.3825H157.02C157.103 19.3825 157.18 19.4237 157.226 19.4927L159.775 23.3738C159.823 23.4476 159.932 23.4467 159.98 23.3719L162.471 19.4956C162.493 19.4609 162.523 19.4324 162.559 19.4126C162.595 19.3929 162.636 19.3825 162.677 19.3825H167.275C167.474 19.3825 167.59 19.6058 167.476 19.7677L162.581 26.6541C162.552 26.6951 162.536 26.7441 162.536 26.7943C162.536 26.8446 162.551 26.8937 162.58 26.9349C164.182 29.2156 166.014 31.851 167.657 34.1576C167.772 34.3195 167.657 34.5419 167.458 34.5419H162.614C162.573 34.542 162.533 34.5321 162.497 34.5131C162.462 34.494 162.431 34.4664 162.409 34.4326L159.766 30.425C159.754 30.4082 159.739 30.3944 159.721 30.3849C159.704 30.3754 159.684 30.3704 159.664 30.3704C159.643 30.3704 159.623 30.3754 159.606 30.3849C159.588 30.3944 159.573 30.4082 159.561 30.425C158.77 31.6018 157.735 33.2405 156.95 34.4326C156.928 34.4664 156.897 34.4941 156.861 34.5132C156.826 34.5323 156.786 34.5421 156.745 34.5419H152.23C152.185 34.5421 152.141 34.5301 152.103 34.5072C152.065 34.4843 152.033 34.4513 152.013 34.4118C151.992 34.3724 151.982 34.328 151.985 34.2835C151.988 34.239 152.003 34.1961 152.028 34.1595L156.903 27.117C156.932 27.0762 156.947 27.0277 156.947 26.978C156.947 26.9283 156.932 26.8798 156.903 26.839H156.902ZM130.616 34.2985V12.7031C130.616 12.568 130.726 12.4588 130.861 12.4588H135.026C135.161 12.4588 135.271 12.568 135.271 12.7031V34.2985C135.271 34.4326 135.161 34.5419 135.026 34.5419H130.861C130.829 34.542 130.797 34.5358 130.768 34.5236C130.738 34.5115 130.711 34.4936 130.688 34.471C130.665 34.4484 130.647 34.4215 130.635 34.3919C130.623 34.3623 130.616 34.3306 130.616 34.2985ZM123.756 34.2985V12.7031C123.756 12.568 123.867 12.4588 124.002 12.4588H128.167C128.302 12.4588 128.411 12.568 128.411 12.7031V34.2985C128.411 34.4326 128.302 34.5419 128.167 34.5419H124.002C123.97 34.542 123.938 34.5358 123.908 34.5236C123.879 34.5115 123.852 34.4936 123.829 34.471C123.806 34.4484 123.788 34.4215 123.775 34.3919C123.763 34.3623 123.757 34.3306 123.756 34.2985ZM113.457 30.9732C115.325 30.9732 116.917 29.5098 116.917 26.9473C116.917 24.3245 115.355 22.9512 113.457 22.9512C111.466 22.9512 109.966 24.3245 109.966 26.9473C109.966 29.4485 111.528 30.9741 113.457 30.9741V30.9732ZM116.948 32.5898C116.274 34.0541 114.744 34.9693 112.844 34.9693C108.373 34.9693 105.28 31.5836 105.28 26.9167C105.28 22.4031 108.19 18.9244 112.691 18.9244C115.416 18.9244 116.61 20.4194 116.917 21.1209V19.6259C116.917 19.4917 117.026 19.3825 117.162 19.3825H121.174C121.308 19.3825 121.418 19.4917 121.418 19.6269V34.2985C121.418 34.4326 121.309 34.5419 121.174 34.5419H117.165C117.133 34.5419 117.101 34.5355 117.071 34.523C117.041 34.5105 117.014 34.4923 116.991 34.4693C116.969 34.4463 116.951 34.419 116.939 34.389C116.927 34.359 116.921 34.327 116.921 34.2946C116.929 33.7436 116.948 32.47 116.948 32.5898ZM95.3476 19.5502L98.1372 28.0005C98.1756 28.1155 98.3385 28.1117 98.3711 27.9957L100.754 19.5607C100.769 19.5094 100.8 19.4641 100.842 19.4319C100.885 19.3998 100.937 19.3824 100.99 19.3825H105.034C105.2 19.3825 105.318 19.5416 105.269 19.6987L100.705 34.3703C100.689 34.4203 100.658 34.4641 100.616 34.4951C100.574 34.5262 100.523 34.5429 100.471 34.5428H96.2034C96.1522 34.5427 96.1022 34.5266 96.0607 34.4967C96.0191 34.4668 95.9879 34.4246 95.9715 34.3761L92.8378 25.0978C92.7995 24.9867 92.6414 24.9876 92.605 25.0978L89.5288 34.3742C89.5127 34.423 89.4816 34.4654 89.44 34.4955C89.3983 34.5256 89.3483 34.5418 89.2969 34.5419H84.9376C84.8856 34.5419 84.8349 34.5254 84.7928 34.4947C84.7508 34.4641 84.7196 34.4208 84.7038 34.3713L80.08 19.6997C80.0685 19.6631 80.0659 19.6243 80.0722 19.5864C80.0786 19.5486 80.0938 19.5128 80.1165 19.4819C80.1393 19.451 80.169 19.4259 80.2033 19.4086C80.2376 19.3914 80.2754 19.3824 80.3138 19.3825H84.6338C84.7431 19.3825 84.8398 19.4553 84.8695 19.5607L87.2528 27.9689C87.2854 28.0839 87.4483 28.0877 87.4867 27.9737L90.306 19.5502C90.3223 19.5013 90.3535 19.4589 90.3953 19.4288C90.4371 19.3987 90.4874 19.3825 90.5389 19.3825H95.1147C95.2202 19.3825 95.315 19.4496 95.3476 19.5502ZM78.8169 23.6584C78.8169 23.6941 78.8091 23.7293 78.794 23.7616C78.7789 23.7939 78.757 23.8225 78.7297 23.8454C78.7024 23.8684 78.6704 23.885 78.636 23.8943C78.6015 23.9035 78.5655 23.9051 78.5304 23.899C78.1394 23.8329 77.7434 23.8015 77.3469 23.8051C75.4782 23.8051 73.7945 24.9033 73.7945 27.9229V34.2985C73.7945 34.4326 73.6852 34.5419 73.5501 34.5419H69.3853C69.3532 34.542 69.3214 34.5358 69.2917 34.5236C69.262 34.5115 69.235 34.4936 69.2122 34.471C69.1895 34.4484 69.1714 34.4215 69.159 34.3919C69.1466 34.3623 69.1401 34.3306 69.14 34.2985V19.6269C69.14 19.4927 69.2492 19.3825 69.3853 19.3825H73.3968C73.5319 19.3825 73.6411 19.4917 73.6411 19.6269V21.4266C74.4375 19.7179 76.3675 19.2301 77.5922 19.2301C77.964 19.2301 78.3358 19.2704 78.6262 19.3336C78.7383 19.3585 78.8169 19.4582 78.8169 19.5722V23.6584ZM62.1885 34.2985V19.6269C62.1885 19.4927 62.2987 19.3825 62.4338 19.3825H66.5986C66.7337 19.3825 66.8439 19.4917 66.8439 19.6269V34.2985C66.8439 34.4326 66.7337 34.5419 66.5986 34.5419H62.4338C62.4017 34.542 62.3699 34.5358 62.3402 34.5236C62.3105 34.5115 62.2835 34.4936 62.2607 34.471C62.2379 34.4484 62.2198 34.4215 62.2074 34.3919C62.195 34.3623 62.1886 34.3306 62.1885 34.2985ZM64.4855 12.0314C66.0169 12.0314 67.2416 13.2513 67.2416 14.7462C67.2416 16.2412 66.0169 17.4611 64.4855 17.4611C63.0155 17.4611 61.7908 16.2412 61.7908 14.7462C61.7908 13.2513 63.0155 12.0314 64.4855 12.0314ZM47.3568 25.7571H52.2787C52.363 25.7571 52.4224 25.6747 52.3937 25.5952L49.9634 18.613C49.9552 18.5888 49.9396 18.5678 49.9189 18.5529C49.8982 18.538 49.8733 18.53 49.8478 18.5299C49.8223 18.5297 49.7974 18.5376 49.7765 18.5523C49.7557 18.5671 49.7399 18.5879 49.7315 18.612L47.2428 25.5952C47.2141 25.6738 47.2735 25.7581 47.3578 25.7581L47.3568 25.7571ZM53.8091 30.15H45.7642C45.7137 30.1501 45.6645 30.1658 45.6233 30.1949C45.5821 30.2241 45.551 30.2653 45.5342 30.3129L44.0871 34.3799C44.0702 34.4277 44.039 34.469 43.9976 34.4982C43.9562 34.5273 43.9068 34.5429 43.8562 34.5428H39.3004C39.2608 34.5431 39.2217 34.5336 39.1865 34.5154C39.1513 34.4971 39.1211 34.4706 39.0985 34.438C39.0758 34.4055 39.0614 34.3679 39.0565 34.3286C39.0517 34.2892 39.0564 34.2493 39.0704 34.2122L47.0626 13.074C47.0802 13.0275 47.1115 12.9874 47.1525 12.9592C47.1934 12.9309 47.242 12.9158 47.2917 12.9159H52.5566C52.6582 12.9159 52.7502 12.9791 52.7856 13.075L60.6878 34.2132C60.7014 34.2502 60.7058 34.2899 60.7008 34.329C60.6957 34.368 60.6812 34.4053 60.6586 34.4376C60.6361 34.4699 60.606 34.4962 60.571 34.5144C60.536 34.5325 60.4972 34.542 60.4578 34.5419H55.7171C55.6665 34.5418 55.6171 34.5262 55.5758 34.497C55.5344 34.4679 55.5031 34.4266 55.4861 34.379L54.0391 30.3129C54.0221 30.2654 53.991 30.2243 53.9498 30.1951C53.9087 30.166 53.8595 30.1502 53.8091 30.15Z" fill="black"/>
<path fill-rule="evenodd" clip-rule="evenodd" d="M33.1709 21.0289C33.767 21.6091 34.1805 22.351 34.3605 23.1631C34.5404 23.9753 34.479 24.8223 34.1839 25.6L31.9347 31.7101C31.3444 33.3143 29.999 34.5553 28.3363 34.8793C27.5046 35.0457 26.6434 34.9829 25.8446 34.6977C25.0459 34.4124 24.3397 33.9154 23.8016 33.2597L10.3145 17.1008C10.281 17.0611 10.2376 17.0308 10.1887 17.0131C10.1398 16.9953 10.0871 16.9908 10.0359 16.9998C9.98463 17.0088 9.93667 17.0311 9.89677 17.0645C9.85687 17.0979 9.82644 17.1411 9.80851 17.19L5.42045 29.0585C5.32941 29.3039 5.5709 29.5415 5.81048 29.4438L11.1952 27.2445C11.4987 27.1214 11.8245 27.0624 12.1519 27.0711C12.4794 27.0799 12.8015 27.1562 13.0981 27.2953C13.3946 27.4344 13.6593 27.6333 13.8753 27.8795C14.0914 28.1257 14.2543 28.4139 14.3537 28.726C14.7514 29.9459 14.0825 31.2636 12.9048 31.7446L5.87085 34.6167C4.56852 35.1485 3.07261 35.0546 1.89965 34.2717C1.10031 33.7375 0.504373 32.9495 0.20808 32.0348C-0.0882119 31.1202 -0.0675584 30.1325 0.266705 29.231L5.45112 15.213C6.06539 13.5513 7.46451 12.3783 9.19424 12.0755C10.0366 11.9246 10.904 12.0008 11.707 12.2964C12.5101 12.592 13.22 13.0963 13.7634 13.7573L21.5046 23.0337L28.6248 20.1252C30.2069 19.4793 31.9491 19.8253 33.1709 21.0289ZM29.0646 25.6882C29.1547 25.4429 28.9132 25.2052 28.6736 25.3039L24.7398 26.91L27.0991 29.738C27.1326 29.7782 27.1761 29.8089 27.2252 29.8269C27.2744 29.845 27.3274 29.8497 27.3789 29.8407C27.4305 29.8316 27.4787 29.8091 27.5188 29.7754C27.5588 29.7417 27.5893 29.6981 27.607 29.6488L29.0637 25.6882H29.0646Z" fill="url(#paint0_linear_201_7792)"/>
<defs>
<linearGradient id="paint0_linear_201_7792" x1="0" y1="12" x2="21.2018" y2="43.8084" gradientUnits="userSpaceOnUse">
<stop stop-color="#FF4244"/>
<stop offset="1" stop-color="#FF8E3C"/>
</linearGradient>
</defs>
</svg>
