<svg width="110" height="48" viewBox="0 0 110 48" fill="none" xmlns="http://www.w3.org/2000/svg">
<path fill-rule="evenodd" clip-rule="evenodd" d="M67.9349 37.8069C61.5714 42.4973 52.3478 44.9998 44.4064 44.9998C33.2714 44.9998 23.247 40.8814 15.6631 34.0316C15.0673 33.493 15.6011 32.7589 16.3161 33.1784C24.5006 37.9403 34.6203 40.8051 45.0738 40.8051C52.1237 40.8051 59.8792 39.3465 67.0102 36.3196C68.0875 35.862 68.9884 37.0251 67.9349 37.8069Z" fill="#FF9900"/>
<path fill-rule="evenodd" clip-rule="evenodd" d="M70.5805 34.78C69.7702 33.7409 65.2037 34.2891 63.154 34.5322C62.5296 34.6084 62.4342 34.065 62.9967 33.6741C66.6337 31.1144 72.6016 31.8533 73.2975 32.7113C73.9935 33.574 73.1164 39.5563 69.6987 42.4115C69.1743 42.8501 68.6738 42.6165 68.9074 42.035C69.6749 40.1187 71.3956 35.8239 70.5805 34.78Z" fill="#FF9900"/>
<path fill-rule="evenodd" clip-rule="evenodd" d="M63.2973 15.6036V13.1154C63.2973 12.7388 63.5833 12.4862 63.9265 12.4862H75.0663C75.4238 12.4862 75.7098 12.7436 75.7098 13.1154V15.2461C75.7051 15.6036 75.4048 16.0708 74.8709 16.8096L69.0984 25.0513C71.2434 24.9988 73.5076 25.3182 75.4524 26.4145C75.891 26.6624 76.0101 27.0247 76.0435 27.3822V30.0373C76.0435 30.3995 75.6431 30.8238 75.2236 30.6045C71.7964 28.8074 67.2441 28.612 63.4546 30.6236C63.0685 30.8333 62.6633 30.4138 62.6633 30.0516V27.53C62.6633 27.1248 62.6681 26.4336 63.0733 25.8187L69.761 16.2281H63.9408C63.5833 16.2281 63.2973 15.9754 63.2973 15.6036Z" fill="black"/>
<path fill-rule="evenodd" clip-rule="evenodd" d="M22.661 31.1289H19.2719C18.9477 31.105 18.6903 30.8619 18.6665 30.5521V13.1583C18.6665 12.8104 18.9573 12.5339 19.3195 12.5339H22.4799C22.8088 12.5482 23.0709 12.8008 23.0948 13.1154V15.3892H23.1568C23.9814 13.1917 25.5306 12.1669 27.6184 12.1669C29.7396 12.1669 31.0647 13.1917 32.0181 15.3892C32.8379 13.1917 34.7017 12.1669 36.699 12.1669C38.1195 12.1669 39.6734 12.7532 40.622 14.0688C41.6945 15.5322 41.4752 17.6581 41.4752 19.5219L41.4705 30.4997C41.4705 30.8476 41.1797 31.1289 40.8174 31.1289H37.4331C37.0946 31.105 36.8229 30.8333 36.8229 30.4997V21.2808C36.8229 20.5468 36.8897 18.7163 36.7276 18.0204C36.475 16.8526 35.7171 16.5236 34.7351 16.5236C33.9152 16.5236 33.0572 17.0718 32.7093 17.9489C32.3613 18.826 32.3946 20.2941 32.3946 21.2808V30.4997C32.3946 30.8476 32.1039 31.1289 31.7416 31.1289H28.3572C28.014 31.105 27.7471 30.8333 27.7471 30.4997L27.7423 21.2808C27.7423 19.3408 28.0617 16.4855 25.6545 16.4855C23.2187 16.4855 23.3141 19.2693 23.3141 21.2808V30.4997C23.3141 30.8476 23.0233 31.1289 22.661 31.1289Z" fill="black"/>
<path fill-rule="evenodd" clip-rule="evenodd" d="M85.3003 12.1669C90.3292 12.1669 93.051 16.4855 93.051 21.9768C93.051 27.2821 90.0432 31.4911 85.3003 31.4911C80.362 31.4911 77.6736 27.1725 77.6736 21.7909C77.6736 16.3759 80.3954 12.1669 85.3003 12.1669ZM85.3289 15.7181C82.8312 15.7181 82.6739 19.1215 82.6739 21.2427C82.6739 23.3686 82.6405 27.9066 85.3003 27.9066C87.9268 27.9066 88.0507 24.2457 88.0507 22.0149C88.0507 20.5468 87.9888 18.7926 87.5454 17.4007C87.1641 16.19 86.4062 15.7181 85.3289 15.7181Z" fill="black"/>
<path fill-rule="evenodd" clip-rule="evenodd" d="M99.572 31.1289H96.1972C95.8587 31.105 95.587 30.8333 95.587 30.4997L95.5823 13.1011C95.6109 12.7818 95.8921 12.5339 96.2353 12.5339H99.3766C99.6721 12.5482 99.9152 12.7484 99.9819 13.0201V15.6799H100.044C100.992 13.3013 102.322 12.1669 104.663 12.1669C106.183 12.1669 107.666 12.715 108.619 14.2166C109.506 15.6084 109.506 17.9489 109.506 19.6315V30.5807C109.468 30.8858 109.186 31.1289 108.853 31.1289H105.454C105.144 31.105 104.887 30.8762 104.854 30.5807V21.1331C104.854 19.2311 105.073 16.4474 102.732 16.4474C101.908 16.4474 101.15 17.0003 100.773 17.8393C100.297 18.9022 100.235 19.9605 100.235 21.1331V30.4997C100.23 30.8476 99.9343 31.1289 99.572 31.1289Z" fill="black"/>
<path fill-rule="evenodd" clip-rule="evenodd" d="M54.4169 22.8204C54.4169 24.1408 54.4503 25.2419 53.783 26.4146C53.2443 27.3679 52.3863 27.9542 51.4377 27.9542C50.1364 27.9542 49.3737 26.9627 49.3737 25.4993C49.3737 22.6107 51.9621 22.0864 54.4169 22.0864V22.8204ZM57.8347 31.0812C57.6106 31.2814 57.2865 31.2957 57.0339 31.1622C55.9089 30.2279 55.7039 29.7942 55.089 28.9028C53.23 30.7999 51.9096 31.3672 49.5024 31.3672C46.6472 31.3672 44.4307 29.6083 44.4307 26.0857C44.4307 23.3353 45.9179 21.4619 48.0438 20.5467C49.8838 19.7364 52.453 19.5934 54.4169 19.3693V18.9308C54.4169 18.1252 54.4789 17.1719 54.0022 16.476C53.5923 15.8515 52.801 15.5941 52.1003 15.5941C50.8085 15.5941 49.6598 16.2567 49.3785 17.6295C49.3213 17.9346 49.0973 18.2349 48.7874 18.2492L45.5032 17.8964C45.2267 17.8345 44.9169 17.6104 44.9979 17.1862C45.751 13.2012 49.3547 12 52.577 12C54.2263 12 56.3808 12.4385 57.6821 13.6874C59.3314 15.2271 59.1741 17.2815 59.1741 19.5171V24.7986C59.1741 26.386 59.8319 27.0819 60.4516 27.9399C60.6661 28.245 60.7138 28.612 60.4373 28.8408C59.7461 29.4176 58.5163 30.4901 57.8394 31.0907L57.8347 31.0812Z" fill="black"/>
<path fill-rule="evenodd" clip-rule="evenodd" d="M9.98627 22.8204C9.98627 24.1408 10.0196 25.2419 9.35229 26.4145C8.81365 27.3679 7.96041 27.9542 7.00707 27.9542C5.70575 27.9542 4.94785 26.9627 4.94785 25.4993C4.94785 22.6107 7.53617 22.0864 9.98627 22.0864V22.8204ZM13.404 31.0812C13.18 31.2814 12.8558 31.2957 12.6032 31.1622C11.4782 30.2279 11.278 29.7941 10.6584 28.9028C8.79935 30.7999 7.48374 31.3672 5.07178 31.3672C2.22129 31.3672 0 29.6082 0 26.0856C0 23.3352 1.49198 21.4619 3.61317 20.5467C5.45312 19.7364 8.02238 19.5934 9.98627 19.3693V18.9308C9.98627 18.1252 10.0482 17.1719 9.57633 16.4759C9.16162 15.8515 8.37035 15.5941 7.67441 15.5941C6.38263 15.5941 5.22908 16.2567 4.94785 17.6295C4.89065 17.9346 4.66661 18.2349 4.36154 18.2492L1.07251 17.8964C0.796041 17.8345 0.490971 17.6104 0.567238 17.1862C1.32515 13.2012 4.92401 12 8.14631 12C9.79559 12 11.9501 12.4385 13.2515 13.6874C14.9007 15.2271 14.7434 17.2815 14.7434 19.5171V24.7986C14.7434 26.3859 15.4013 27.0819 16.0209 27.9399C16.2402 28.245 16.2879 28.612 16.0114 28.8408C15.3202 29.4176 14.0904 30.4901 13.4135 31.0907L13.404 31.0812Z" fill="black"/>
</svg>
