<svg width="127" height="48" viewBox="0 0 127 48" fill="none" xmlns="http://www.w3.org/2000/svg">
<path fill-rule="evenodd" clip-rule="evenodd" d="M122.957 31.9803C123.033 32.8499 123.728 33.9567 124.934 33.9567H125.638C125.912 33.9567 126.136 33.7327 126.136 33.4592V17.9535H126.133C126.119 17.6922 125.903 17.483 125.638 17.483H123.454C123.19 17.483 122.974 17.6922 122.96 17.9535H122.957V19.2134C121.618 17.5635 119.508 16.8787 117.392 16.8787C112.581 16.8787 108.682 20.7811 108.682 25.5953C108.682 30.4099 112.581 34.3124 117.392 34.3124C119.508 34.3124 121.815 33.4911 122.957 31.9784V31.9803ZM117.4 31.2617C114.341 31.2617 111.861 28.725 111.861 25.5953C111.861 22.4663 114.341 19.9295 117.4 19.9295C120.46 19.9295 122.94 22.4663 122.94 25.5953C122.94 28.725 120.46 31.2617 117.4 31.2617Z" fill="#0D0E10"/>
<path fill-rule="evenodd" clip-rule="evenodd" d="M105.919 24.49C105.919 19.9672 103.068 16.916 98.522 16.916C96.3516 16.916 94.5725 18.172 93.9441 19.2509C93.8083 18.4073 93.3608 17.5205 91.973 17.5205H91.2656C90.992 17.5205 90.7686 17.7447 90.7686 18.0182V32.0191C90.7686 32.0196 90.7686 32.0206 90.7686 32.0213V33.5252H90.7713C90.7856 33.786 91.0016 33.9955 91.2658 33.9955H93.4505C93.4839 33.9955 93.5167 33.9915 93.5484 33.9854C93.5629 33.9825 93.5763 33.9768 93.5904 33.9729C93.6066 33.9679 93.6236 33.964 93.639 33.9576C93.6584 33.9496 93.6761 33.9388 93.6941 33.9287C93.703 33.9232 93.7123 33.9194 93.7208 33.9138C93.7426 33.8997 93.7626 33.8827 93.782 33.8655C93.7851 33.8623 93.7889 33.8601 93.7921 33.8572C93.8138 33.8362 93.8337 33.813 93.8512 33.7889C93.9058 33.7138 93.9392 33.6229 93.9447 33.5252H93.9475V24.3656C93.9475 21.9365 95.9154 19.9672 98.3428 19.9672C100.77 19.9672 102.738 21.9365 102.738 24.3656L102.74 32.0218L102.74 32.0191C102.74 32.0259 102.742 32.0329 102.742 32.0401V33.5252H102.744C102.759 33.786 102.975 33.9955 103.239 33.9955H105.424C105.457 33.9955 105.49 33.9915 105.521 33.9854C105.534 33.983 105.546 33.9777 105.559 33.9742C105.577 33.969 105.595 33.9646 105.612 33.9576C105.63 33.9502 105.647 33.9399 105.663 33.9304C105.674 33.9246 105.685 33.9204 105.694 33.9138C105.715 33.9005 105.733 33.8844 105.751 33.8687C105.756 33.8643 105.761 33.8612 105.765 33.8568C105.786 33.8368 105.805 33.8152 105.821 33.7926C105.823 33.7909 105.824 33.7896 105.825 33.7879C105.879 33.7134 105.912 33.6235 105.918 33.5265C105.918 33.5258 105.918 33.5252 105.918 33.5252H105.921L105.919 24.49Z" fill="#0D0E10"/>
<path fill-rule="evenodd" clip-rule="evenodd" d="M83.1678 31.9803C83.2442 32.8498 83.9398 33.9566 85.1448 33.9566H85.8498C86.1231 33.9566 86.3468 33.7327 86.3468 33.4591V17.9535H86.344C86.3298 17.6922 86.1136 17.483 85.8498 17.483H83.6651C83.4009 17.483 83.1851 17.6922 83.1703 17.9535H83.1678V19.2134C81.8292 17.5635 79.7189 16.8787 77.6026 16.8787C72.7924 16.8787 68.8931 20.7811 68.8931 25.5954C68.8931 30.4098 72.7924 34.3124 77.6026 34.3124C79.7189 34.3124 82.0252 33.4912 83.1676 31.9783L83.1678 31.9803ZM77.6111 31.2616C74.552 31.2616 72.0718 28.725 72.0718 25.5954C72.0718 22.4663 74.552 19.9295 77.6111 19.9295C80.6706 19.9295 83.1503 22.4663 83.1503 25.5954C83.1503 28.725 80.6706 31.2616 77.6111 31.2616Z" fill="#0D0E10"/>
<path fill-rule="evenodd" clip-rule="evenodd" d="M55.9739 29.7596C57.4323 30.7707 59.0242 31.2618 60.554 31.2618C62.0114 31.2618 63.5181 30.5057 63.5181 29.1896C63.5181 27.4325 60.235 27.1591 58.1723 26.4575C56.1091 25.7559 54.3322 24.3055 54.3322 21.9568C54.3322 18.3628 57.5321 16.8784 60.5187 16.8784C62.4109 16.8784 64.3633 17.5029 65.6291 18.3975C66.065 18.728 65.7996 19.1075 65.7996 19.1075L64.5913 20.8346C64.4555 21.0291 64.218 21.1972 63.8772 20.9866C63.5363 20.7762 62.3407 19.9293 60.5187 19.9293C58.6964 19.9293 57.5988 20.7715 57.5988 21.8153C57.5988 23.067 59.0254 23.4607 60.6963 23.8874C63.6082 24.6729 66.7847 25.6171 66.7847 29.1896C66.7847 32.3561 63.825 34.3131 60.554 34.3131C58.0752 34.3131 55.9648 33.6059 54.1948 32.306C53.826 31.9367 54.0835 31.5938 54.0835 31.5938L55.2859 29.8755C55.5306 29.5542 55.839 29.6663 55.9739 29.7596Z" fill="#0D0E10"/>
<path fill-rule="evenodd" clip-rule="evenodd" d="M47.5752 31.9803C47.6515 32.8498 48.3471 33.9566 49.552 33.9566H50.2571C50.5304 33.9566 50.7544 33.7327 50.7544 33.4591V17.9535H50.7513C50.737 17.6922 50.5212 17.483 50.2571 17.483H48.0725C47.8083 17.483 47.5925 17.6922 47.5778 17.9535H47.5752V19.2134C46.2367 17.5635 44.1263 16.8787 42.0101 16.8787C37.1998 16.8787 33.3003 20.7811 33.3003 25.5954C33.3003 30.4098 37.1998 34.3124 42.0101 34.3124C44.1263 34.3124 46.4326 33.4912 47.5748 31.9783L47.5752 31.9803ZM42.0186 31.2616C38.9593 31.2616 36.4792 28.725 36.4792 25.5954C36.4792 22.4663 38.9593 19.9295 42.0186 19.9295C45.0778 19.9295 47.5577 22.4663 47.5577 25.5954C47.5577 28.725 45.0778 31.2616 42.0186 31.2616Z" fill="#0D0E10"/>
<path fill-rule="evenodd" clip-rule="evenodd" d="M21.0895 26.1881C17.8525 26.1881 15.2282 28.8123 15.2282 32.0497C15.2282 35.2868 17.8525 37.911 21.0895 37.911C24.3267 37.911 26.9509 35.2868 26.9509 32.0497C26.9509 28.8123 24.3267 26.1881 21.0895 26.1881ZM5.86134 26.1886C2.62424 26.1886 0 28.8123 0 32.0497C0 35.2868 2.62424 37.911 5.86134 37.911C9.09858 37.911 11.723 35.2868 11.723 32.0497C11.723 28.8123 9.09858 26.1886 5.86134 26.1886ZM19.3367 18.8612C19.3367 22.0986 16.7126 24.7231 13.4755 24.7231C10.2382 24.7231 7.61414 22.0986 7.61414 18.8612C7.61414 15.6245 10.2382 13 13.4755 13C16.7126 13 19.3367 15.6245 19.3367 18.8612Z" fill="#F06A6A"/>
</svg>
