<svg width="178" height="48" viewBox="0 0 178 48" fill="none" xmlns="http://www.w3.org/2000/svg">
<g clip-path="url(#clip0_201_7813)">
<path d="M6.44783 22.0334C6.38324 21.9489 6.29793 21.8825 6.20015 21.8406C6.10237 21.7986 5.99543 21.7827 5.88967 21.7941C5.78391 21.8056 5.6829 21.8442 5.59641 21.9062C5.50992 21.9681 5.44087 22.0513 5.39593 22.1477L0.0657807 32.8047C0.0172238 32.9018 -0.00570226 33.0097 -0.00082064 33.1182C0.00406097 33.2267 0.0365882 33.3321 0.0936727 33.4245C0.150757 33.5169 0.230504 33.5931 0.325342 33.646C0.42018 33.6989 0.526961 33.7266 0.635547 33.7267H8.05751C8.17638 33.7294 8.29349 33.6976 8.39464 33.6351C8.49578 33.5726 8.57659 33.482 8.62727 33.3745C10.2283 30.0662 9.25801 25.0359 6.44783 22.0334Z" fill="url(#paint0_linear_201_7813)"/>
<path d="M10.3569 12.3404C9.02879 14.384 8.25482 16.7377 8.11094 19.1707C7.96707 21.6036 8.45824 24.0322 9.53625 26.2181L13.1145 33.3745C13.1674 33.4803 13.2487 33.5693 13.3493 33.6315C13.4499 33.6937 13.5659 33.7266 13.6842 33.7267H21.1048C21.2134 33.7266 21.3202 33.6989 21.4151 33.646C21.5099 33.5931 21.5896 33.5169 21.6467 33.4245C21.7038 33.3321 21.7363 33.2267 21.7412 33.1182C21.7461 33.0097 21.7232 32.9018 21.6746 32.8047C21.6746 32.8047 11.6914 12.8359 11.4405 12.3364C11.3909 12.2347 11.3136 12.1491 11.2176 12.0894C11.1215 12.0296 11.0106 11.9981 10.8974 11.9985C10.7843 11.999 10.6736 12.0313 10.578 12.0917C10.4824 12.1522 10.4058 12.2384 10.3569 12.3404Z" fill="#2684FF"/>
<path d="M97.3975 20.8853C97.3975 23.5242 98.6217 25.6194 103.41 26.5443C106.267 27.1441 106.865 27.6052 106.865 28.5575C106.865 29.4825 106.266 30.0812 104.253 30.0812C101.821 30.0375 99.4381 29.3926 97.3159 28.204V32.5022C98.758 33.2096 100.662 33.9986 104.199 33.9986C109.205 33.9986 111.191 31.7662 111.191 28.4485L97.3975 20.8853ZM111.191 28.4485C111.191 25.3198 109.532 23.8504 104.852 22.8442C102.268 22.2727 101.642 21.7016 101.642 20.8853C101.642 19.8524 102.567 19.4162 104.281 19.4162C106.349 19.4162 108.389 20.042 110.321 20.9126V16.8043C108.468 15.9613 106.451 15.5431 104.417 15.5801C99.7916 15.5801 97.3975 17.5933 97.3975 20.8853" fill="#0052CC"/>
<path d="M161.71 15.8521V33.7267H165.519V20.0963L167.124 23.7145L172.511 33.7267H177.299V15.8521H173.49V27.3877L172.048 24.041L167.723 15.8521H161.71Z" fill="#0052CC"/>
<path d="M137.485 15.8521H133.322V33.7267H137.485V15.8521Z" fill="#0052CC"/>
<path d="M128.519 28.4483C128.519 25.3196 126.86 23.8502 122.18 22.8439C119.596 22.2725 118.97 21.7014 118.97 20.8851C118.97 19.8522 119.895 19.416 121.609 19.416C123.677 19.416 125.717 20.0417 127.649 20.9124V16.8041C125.797 15.9611 123.779 15.5428 121.745 15.5799C117.12 15.5799 114.726 17.5931 114.726 20.8851C114.726 23.524 115.95 25.6191 120.738 26.5441C123.595 27.1438 124.193 27.605 124.193 28.5573C124.193 29.4822 123.594 30.081 121.582 30.081C119.15 30.0372 116.766 29.3923 114.644 28.2037V32.502C116.086 33.2093 117.99 33.9984 121.527 33.9984C126.533 33.9984 128.519 31.7659 128.519 28.4483Z" fill="#0052CC"/>
<path d="M65.0601 15.8521V33.7267H73.6159L74.963 29.8633H69.2497V15.8521H65.0601Z" fill="#0052CC"/>
<path d="M48.1572 15.8521V19.7151H52.7823V33.7267H56.972V19.7151H61.9236V15.8521H48.1572Z" fill="#0052CC"/>
<path d="M42.0818 15.8521H36.591L30.3579 33.7267H35.118L36.0016 30.7163C38.1779 31.3553 40.4919 31.3553 42.6682 30.7163L43.5518 33.7267H48.3129L42.0818 15.8521ZM39.3362 27.4929C38.5609 27.4929 37.7895 27.3819 37.0455 27.1634L39.3362 19.3629L41.627 27.1661C40.8829 27.3837 40.1115 27.4938 39.3362 27.4929Z" fill="#0052CC"/>
<path d="M88.3666 15.8521H82.8762L76.6431 33.7267H81.4041L82.2878 30.7163C84.464 31.3553 86.7781 31.3553 88.9544 30.7163L89.838 33.7267H94.599L88.3666 15.8521ZM85.6214 27.4929C84.846 27.4929 84.0746 27.3819 83.3307 27.1634L85.6214 19.3629L87.9121 27.1661C87.168 27.3837 86.3966 27.4938 85.6214 27.4929Z" fill="#0052CC"/>
<path d="M152.485 15.8521H146.994L140.761 33.7267H145.522L146.406 30.7163C148.582 31.3553 150.896 31.3553 153.073 30.7163L153.956 33.7267H158.718L152.485 15.8521ZM149.738 27.4929C148.963 27.4929 148.191 27.3819 147.447 27.1634L149.738 19.3629L152.029 27.1661C151.285 27.3837 150.513 27.4938 149.738 27.4929Z" fill="#0052CC"/>
</g>
<defs>
<linearGradient id="paint0_linear_201_7813" x1="9.36897" y1="23.6781" x2="3.74394" y2="33.4211" gradientUnits="userSpaceOnUse">
<stop stop-color="#0052CC"/>
<stop offset="0.923" stop-color="#2684FF"/>
</linearGradient>
<clipPath id="clip0_201_7813">
<rect width="178" height="48" fill="white"/>
</clipPath>
</defs>
</svg>
