<svg width="141" height="48" viewBox="0 0 141 48" fill="none" xmlns="http://www.w3.org/2000/svg">
<path d="M139.548 18.185C139.548 17.6444 139.169 17.284 138.544 17.284L137.316 17.3066L137.338 20.0544H138.008V19.1084H138.41L138.99 20.0544H139.772L139.079 18.9958C139.223 18.9157 139.342 18.798 139.424 18.6553C139.507 18.5127 139.55 18.3502 139.548 18.185ZM138.41 18.5454H137.985V17.8471H138.477C138.565 17.8373 138.654 17.8623 138.725 17.9168C138.795 17.9714 138.842 18.0513 138.856 18.1399V18.1625C138.854 18.2181 138.841 18.2728 138.817 18.323C138.793 18.3732 138.759 18.4178 138.717 18.4538C138.675 18.4899 138.626 18.5167 138.573 18.5325C138.52 18.5482 138.464 18.5526 138.41 18.5454ZM39.3638 30.8882C38.2251 30.8882 37.4436 29.9873 37.4436 28.6584V22.5996H42.1324V18.3201H37.4548L37.4101 13.41H32.2301L32.2747 29.762C32.2747 33.073 34.4629 35.3253 37.6781 35.3253C39.375 35.3253 40.9826 35.0776 42.2552 34.4919V30.3251C41.3515 30.7482 40.3587 30.9415 39.3638 30.8882ZM51.7334 18.0498C46.9106 18.0498 43.2042 21.8338 43.2042 26.8565C43.2042 31.8342 46.9106 35.3028 52.0236 35.3028C54.9039 35.3028 57.6056 34.2667 59.2578 32.127L55.2835 30.3026C54.4797 31.0459 53.2517 31.3387 52.1576 31.3387C50.3714 31.3387 48.5852 30.4152 48.3396 28.5232H60.1956C60.3738 27.8472 60.4638 27.1506 60.4635 26.4511C60.4635 21.2932 56.7348 18.0498 51.7445 18.0498H51.7334ZM48.3396 25.2123C48.4958 22.9599 50.1034 21.9239 51.8673 21.9239C53.8545 21.9239 55.3505 23.05 55.3505 24.9871V25.2123H48.3396ZM27.3068 30.8882C26.1681 30.8882 25.3866 29.9873 25.3866 28.6584V22.5996H30.0755V18.3201H25.3978L25.3531 13.41H20.1731L20.2178 29.762C20.2178 33.073 22.4059 35.3253 25.6211 35.3253C27.318 35.3253 28.9256 35.0776 30.1983 34.4919V30.3251C29.2952 30.7502 28.3019 30.9437 27.3068 30.8882ZM9.10972 18.0498C4.6665 18.0498 0 21.0004 0 26.9466C0 31.9018 3.3045 35.3704 7.47979 35.3704C9.86886 35.3704 11.6774 34.4019 12.8608 32.6901L13.0171 35.0775H18.0296V27.1493C18.0296 21.113 13.6199 18.0498 9.10972 18.0498ZM9.10972 30.7981C6.85462 30.7981 5.22469 29.1088 5.22469 26.7214C5.22469 24.3339 6.83229 22.6446 9.10972 22.6446C11.2085 22.6446 12.9501 24.4915 12.9501 26.7214C12.9501 28.9512 11.2085 30.7981 9.10972 30.7981ZM138.298 16.0452C136.668 16.0678 135.619 17.1264 135.641 18.703C135.663 20.2797 136.735 21.3157 138.365 21.2932C139.95 21.2707 141.022 20.2121 141 18.6129C140.977 17.0138 139.906 16.0227 138.298 16.0452ZM138.365 20.8427C137.092 20.8653 136.222 20.0094 136.222 18.703C136.222 17.3967 137.048 16.5182 138.32 16.4957C139.593 16.4732 140.441 17.3291 140.464 18.658C140.464 19.9418 139.615 20.8202 138.376 20.8427H138.365ZM112.978 18.3426L109.361 28.9287L105.7 18.3426H100.073L106.816 35.055H111.862L118.605 18.3426H112.978ZM126.397 18.0498C121.575 18.0498 117.868 21.8338 117.868 26.8565C117.868 31.8342 121.575 35.3028 126.688 35.3028C129.568 35.3028 132.27 34.2667 133.922 32.127L129.947 30.3026C129.144 31.0459 127.916 31.3387 126.822 31.3387C125.035 31.3387 123.249 30.4152 123.004 28.5232H134.86C135.038 27.8472 135.128 27.1506 135.127 26.4511C135.127 21.2932 131.399 18.0498 126.397 18.0498ZM130.014 25.2123H123.004C123.16 22.9599 124.767 21.9239 126.531 21.9239C128.518 21.9239 130.014 23.05 130.014 24.9871V25.2123ZM96.0762 11C94.2454 11 92.8611 12.2388 92.8611 13.9731C92.8611 15.7074 94.2454 16.9912 96.0762 16.9912C97.9071 16.9912 99.2915 15.7299 99.2915 13.9731C99.2915 12.2163 97.9295 11 96.0762 11ZM72.5651 18.0273C71.5183 18.0103 70.4849 18.2668 69.5654 18.772C68.6459 19.2772 67.8717 20.0139 67.3181 20.9103L67.1395 18.3426H62.1381V35.055H67.3181V26.2934C67.4298 24.1987 69.1043 22.5996 70.9352 22.5996C72.9894 22.5996 73.9271 24.1537 73.9271 26.1132V35.0325H79.0848V25.3024C79.0848 21.068 76.5283 18.0273 72.5651 18.0273ZM88.3732 30.8882C87.2345 30.8882 86.453 29.9873 86.453 28.6584V22.5996H91.1418V18.3201H86.453L86.4083 13.41H81.2283L81.273 29.762C81.273 33.073 83.4611 35.3253 86.6763 35.3253C88.3732 35.3253 89.9808 35.0776 91.2535 34.4919V30.3251C90.3537 30.7484 89.3645 30.9418 88.3732 30.8882ZM93.4639 18.3426V35.055H98.6886V18.3426C97.914 18.8604 97.0054 19.1366 96.0762 19.1366C95.1471 19.1366 94.2385 18.8604 93.4639 18.3426Z" fill="#1A1E22"/>
</svg>
