<svg width="233" height="48" viewBox="0 0 233 48" fill="none" xmlns="http://www.w3.org/2000/svg">
<g clip-path="url(#clip0_201_7825)">
<path d="M84.4814 34.0851C78.5524 34.0851 74.7065 29.8103 74.7065 25.3612V24.8098C74.7065 20.2853 78.5524 16.0859 84.4814 16.0859C90.4104 16.0859 94.2893 20.2853 94.2893 24.8098V25.3612C94.2893 29.8103 90.4434 34.0851 84.4814 34.0851ZM91.1174 24.8569C91.1174 21.6143 88.7609 18.73 84.4814 18.73C80.202 18.73 77.8831 21.6191 77.8831 24.8569V25.2622C77.8831 28.5048 80.2397 31.4458 84.4814 31.4458C88.7232 31.4458 91.1174 28.5048 91.1174 25.2622V24.8569Z" fill="#3499CD"/>
<path d="M17.4948 33.43L15.2844 29.2825H5.453L3.29913 33.43H0L9.04906 16.6892H11.6648L20.8647 33.43H17.4948ZM10.2792 19.9554L6.63597 26.9966H14.0496L10.2792 19.9554ZM35.1405 34.0851C29.1314 34.0851 26.3412 30.8142 26.3412 26.4688V16.6892H29.4613V26.5159C29.4613 29.6077 31.4973 31.4458 35.3667 31.4458C39.3398 31.4458 40.9705 29.6077 40.9705 26.5159V16.6892H44.1141V26.4546C44.1141 30.6163 41.4748 34.0851 35.1405 34.0851ZM61.609 19.3049V33.4441H58.4654V19.3049H51.1507V16.6892H68.9236V19.3049H61.609ZM122.289 33.43V20.1816L121.46 21.6426L114.447 33.4252H112.915L105.978 21.6426L105.148 20.1816V33.43H102.08V16.6892H106.43L113.028 28.1749L113.811 29.5888L114.588 28.1749L121.125 16.6892H125.424V33.43H122.289ZM149.187 33.43L146.972 29.2825H137.15L135.015 33.43H131.716L140.765 16.6892H143.376L152.552 33.43H149.187ZM141.971 19.9554L138.328 26.9966H145.742L141.971 19.9554ZM165.221 19.3049V33.4441H162.082V19.3049H154.767V16.6892H172.535V19.3049H165.221ZM188.272 19.3049V33.4441H185.129V19.3049H177.814V16.6892H195.592V19.3049H188.272ZM203.33 33.43V18.2728C204.584 18.2728 205.088 17.5941 205.088 16.6892H206.432V33.43H203.33ZM231.029 21.4164C229.225 19.698 226.832 18.7351 224.341 18.7252C219.868 18.7252 217.352 21.7934 217.352 24.9842V25.3094C217.352 28.4765 219.892 31.4363 224.567 31.4363C227.014 31.3903 229.354 30.4302 231.128 28.7452L233.013 30.7294C230.661 32.9212 227.556 34.1229 224.341 34.0851C218.007 34.0851 214.161 29.9612 214.161 25.4366V24.8852C214.161 20.3607 218.36 16.0859 224.492 16.0859C228.036 16.0859 231.255 17.5705 232.975 19.4275L231.029 21.4164ZM84.8688 22.2944L81.9906 26.753C81.8156 27.0239 81.7554 27.3531 81.8232 27.6684C81.8909 27.9837 82.0812 28.2591 82.3521 28.4341L82.3563 28.4365C82.4904 28.5231 82.6404 28.5825 82.7974 28.6111C82.9545 28.6398 83.1157 28.6373 83.2718 28.6037C83.4279 28.5701 83.5759 28.506 83.7073 28.4152C83.8386 28.3245 83.9508 28.2087 84.0374 28.0745L86.9162 23.616C87.091 23.3451 87.151 23.0159 87.0831 22.7007C87.0153 22.3855 86.825 22.1102 86.5542 21.9353L86.55 21.9325C86.4158 21.8459 86.2659 21.7865 86.1088 21.7578C85.9517 21.7291 85.7905 21.7317 85.6344 21.7653C85.4783 21.7989 85.3304 21.8629 85.199 21.9537C85.0676 22.0445 84.9554 22.1603 84.8688 22.2944Z" fill="#010101"/>
</g>
<defs>
<clipPath id="clip0_201_7825">
<rect width="233" height="48" fill="white"/>
</clipPath>
</defs>
</svg>
