<svg width="165" height="48" viewBox="0 0 165 48" fill="none" xmlns="http://www.w3.org/2000/svg">
<path d="M48.3649 16.0712H55.283C59.1151 16.0712 61.1046 17.6425 61.1046 20.5928V20.7398C61.1592 21.6044 60.9017 22.4598 60.3789 23.1506C59.8562 23.8414 59.1028 24.3217 58.2559 24.5041C59.2701 24.5933 60.2082 25.0791 60.8664 25.8558C61.5246 26.6325 61.8499 27.6376 61.7715 28.6526V28.7544C61.7715 31.976 59.6576 33.6717 55.5995 33.6717H48.3649V16.0712ZM54.6386 23.2945C56.5603 23.2945 57.3177 22.605 57.3177 21.0337V20.932C57.3177 19.4624 56.4812 18.7955 54.616 18.7955H52.2535V23.3171L54.6386 23.2945ZM54.9778 30.9022C56.9447 30.9022 57.8377 30.0091 57.8377 28.4153V28.3135C57.8377 26.6857 56.9447 25.8605 54.7856 25.8605H52.2535V30.9135L54.9778 30.9022Z" fill="#1D2D35"/>
<path d="M62.8117 30.0883C62.8117 27.0814 65.5586 25.951 69.5037 25.951H70.9506V25.4423C70.9506 23.9163 70.4871 23.0798 68.8593 23.0798C68.5958 23.0485 68.3287 23.0715 68.0745 23.1473C67.8202 23.2231 67.5841 23.3502 67.3808 23.5207C67.1775 23.6912 67.0112 23.9015 66.8922 24.1386C66.7733 24.3758 66.7041 24.6348 66.689 24.8997H63.2977C63.5238 21.8476 65.9316 20.4911 69.0854 20.4911C72.2393 20.4911 74.4662 21.7685 74.4662 25.2615V33.6491H70.9958V32.1004C70.5603 32.7141 69.9731 33.2043 69.2916 33.5233C68.61 33.8423 67.8574 33.9791 67.1072 33.9204C64.7786 33.9204 62.8117 32.79 62.8117 30.0883ZM70.9506 29.1501V28.0196H69.5715C67.5028 28.0196 66.3046 28.4718 66.3046 29.8396C66.3046 30.7778 66.8698 31.3996 68.1698 31.3996C69.7411 31.4448 70.9506 30.5744 70.9506 29.1501Z" fill="#1D2D35"/>
<path d="M75.9694 29.6135H79.2928C79.4397 30.7439 80.0049 31.4448 81.5536 31.4448C82.9327 31.4448 83.577 30.9248 83.577 30.0318C83.577 29.1388 82.8083 28.777 80.9658 28.517C77.5746 27.997 76.2181 27.0136 76.2181 24.5041C76.2181 21.9946 78.6824 20.4911 81.3049 20.4911C84.1648 20.4911 86.3013 21.5311 86.6178 24.4815H83.3509C83.1588 23.4189 82.5596 22.9328 81.3388 22.9328C80.118 22.9328 79.5189 23.4754 79.5189 24.2554C79.5189 25.0354 80.1293 25.3858 81.9944 25.6571C85.2161 26.1206 86.9908 26.9345 86.9908 29.6927C86.9908 32.4508 84.9787 33.9204 81.5762 33.9204C78.1737 33.9204 76.0937 32.3943 75.9694 29.6135Z" fill="#1D2D35"/>
<path d="M87.9065 27.3753V27.1831C87.8636 26.2997 88.0048 25.417 88.3209 24.591C88.637 23.7649 89.1212 23.0135 89.7429 22.3844C90.3646 21.7553 91.1101 21.2622 91.9324 20.9363C92.7546 20.6103 93.6355 20.4588 94.5194 20.4911C97.8428 20.4911 100.793 22.4354 100.793 27.0362V28.0196H91.5577C91.6482 30.1561 92.8125 31.4108 94.7455 31.4108C96.3959 31.4108 97.2098 30.6987 97.4358 29.6135H100.827C100.409 32.3943 98.1932 33.9429 94.6777 33.9429C90.7325 33.9203 87.9065 31.49 87.9065 27.3753ZM97.3228 25.8266C97.2098 23.8823 96.215 23.0006 94.5194 23.0006C93.756 22.997 93.021 23.2894 92.4687 23.8164C91.9164 24.3434 91.5899 25.0639 91.5577 25.8266H97.3228Z" fill="#1D2D35"/>
<path d="M101.731 27.3752V27.183C101.688 26.2976 101.83 25.413 102.148 24.5853C102.465 23.7577 102.951 23.0052 103.575 22.3757C104.2 21.7462 104.948 21.2536 105.773 20.9291C106.598 20.6046 107.481 20.4554 108.367 20.491C111.351 20.491 114.098 21.791 114.426 25.4874H111.035C111.012 25.1701 110.926 24.8606 110.782 24.5773C110.637 24.2939 110.437 24.0425 110.193 23.8379C109.95 23.6334 109.668 23.4799 109.364 23.3865C109.06 23.2931 108.74 23.2618 108.423 23.2944C106.581 23.2944 105.349 24.6735 105.349 27.1378V27.33C105.349 29.9186 106.479 31.2412 108.503 31.2412C108.847 31.261 109.192 31.2121 109.517 31.0974C109.842 30.9826 110.141 30.8043 110.397 30.5729C110.652 30.3415 110.859 30.0615 111.006 29.7493C111.152 29.437 111.235 29.0988 111.249 28.7543H114.471C114.279 31.8064 112.063 33.9202 108.322 33.9202C104.58 33.9202 101.731 31.5803 101.731 27.3752Z" fill="#1D2D35"/>
<path d="M115.296 30.0883C115.296 27.0814 118.043 25.951 121.977 25.951H123.435V25.4423C123.435 23.9162 122.961 23.0797 121.344 23.0797C121.079 23.0451 120.809 23.0656 120.552 23.1399C120.295 23.2142 120.057 23.3407 119.851 23.5115C119.645 23.6823 119.477 23.8938 119.356 24.1326C119.236 24.3715 119.166 24.6326 119.151 24.8997H115.76C115.986 21.8476 118.394 20.4911 121.536 20.4911C124.679 20.4911 126.928 21.7685 126.928 25.2614V33.649H123.458V32.1004C123.023 32.714 122.435 33.2043 121.754 33.5233C121.072 33.8422 120.32 33.9791 119.569 33.9203C117.309 33.9203 115.296 32.7899 115.296 30.0883ZM123.435 29.15V28.0196H122.079C120.01 28.0196 118.801 28.4718 118.801 29.8396C118.801 30.7778 119.377 31.3995 120.677 31.3995C122.271 31.4448 123.481 30.5743 123.481 29.15H123.435Z" fill="#1D2D35"/>
<path d="M129.438 20.7397H132.998V22.7066C133.387 22.0078 133.958 21.428 134.651 21.0297C135.344 20.6313 136.133 20.4295 136.932 20.4458C137.695 20.3848 138.457 20.572 139.105 20.9794C139.753 21.3868 140.252 21.9927 140.527 22.7066C141.002 21.9976 141.647 21.419 142.403 21.024C143.16 20.629 144.003 20.4302 144.856 20.4458C147.242 20.4458 149.084 21.9493 149.084 25.3631V33.6038H145.546V25.804C145.546 24.1536 144.811 23.4188 143.522 23.4188C143.18 23.4039 142.838 23.4631 142.52 23.5924C142.202 23.7218 141.916 23.9181 141.681 24.1682C141.446 24.4182 141.268 24.716 141.158 25.0412C141.049 25.3664 141.011 25.7114 141.047 26.0527V33.649H137.497V25.804C137.497 24.1536 136.74 23.4188 135.485 23.4188C135.142 23.4022 134.798 23.4602 134.479 23.5888C134.16 23.7174 133.872 23.9135 133.636 24.1637C133.4 24.4139 133.22 24.7123 133.11 25.0384C133 25.3644 132.962 25.7104 132.998 26.0527V33.649H129.438V20.7397Z" fill="#1D2D35"/>
<path d="M151.526 20.7398H155.098V22.7632C155.524 22.0555 156.125 21.47 156.844 21.0639C157.564 20.6578 158.376 20.4449 159.201 20.4459C162.355 20.4459 164.854 22.7858 164.854 27.0361V27.2396C164.854 31.4899 162.446 33.8751 159.201 33.8751C158.376 33.9089 157.558 33.7161 156.834 33.3176C156.111 32.919 155.51 32.3299 155.098 31.6143V38.035H151.526V20.7398ZM161.191 27.07C161.191 24.4588 159.914 23.1814 158.116 23.1814C156.319 23.1814 154.974 24.4814 154.974 27.07V27.2622C154.974 29.8395 156.206 31.0943 158.15 31.0943C160.095 31.0943 161.191 29.783 161.191 27.3074V27.07Z" fill="#1D2D35"/>
<path fill-rule="evenodd" clip-rule="evenodd" d="M21.9361 9.92744C11.9054 9.92744 6.67436 18.4236 3.74547 26.7277C3.39142 27.7315 2.29063 28.2583 1.2868 27.9042C0.568808 27.651 0.0948848 27.0157 0.0127491 26.3072C-0.0199508 26.0251 0.00944776 25.7314 0.110267 25.4455C3.0821 17.0196 9.15509 6.07275 21.9361 6.07275C28.6167 6.07275 33.3984 10.4924 36.491 15.802C39.5917 21.1256 41.2449 27.7174 41.6174 33.0397C41.6442 33.4222 41.5563 33.8041 41.3648 34.1364C39.5738 37.2453 36.5942 39.2714 33.1979 40.5123C29.8099 41.7501 25.8854 42.2558 21.9516 42.2571C18.6094 42.3092 15.2952 41.6404 12.2347 40.296C9.16941 38.9495 6.43095 36.957 4.20648 34.4548C3.73326 33.9225 3.59217 33.1726 3.8396 32.5047L3.84105 32.5008L3.84381 32.4934L3.85324 32.4683L3.88736 32.3783C3.91678 32.3012 3.95944 32.1908 4.0144 32.0517C4.12424 31.7737 4.28367 31.3801 4.48523 30.909C4.88659 29.9711 5.4632 28.7071 6.15586 27.4309C6.8394 26.1715 7.67994 24.8175 8.62517 23.7508C9.48688 22.7783 10.8263 21.5936 12.5406 21.582L12.5537 21.5819C13.7651 21.5819 14.7602 22.1366 15.4765 22.6698C16.1985 23.2073 16.8542 23.8903 17.3797 24.4463C17.4399 24.5101 17.4985 24.5723 17.5555 24.6327C18.0449 25.1516 18.4191 25.5484 18.7747 25.8455C18.8146 25.8789 18.8513 25.9083 18.8848 25.9343C19.0005 25.8161 19.1384 25.6613 19.2972 25.4644C19.8621 24.7641 20.4966 23.7776 21.1106 22.7215C21.7165 21.6793 22.268 20.6294 22.6701 19.8353C22.8704 19.4396 23.0321 19.1105 23.1431 18.8816C23.1985 18.7672 23.2413 18.678 23.2697 18.6182L23.3016 18.5511L23.3091 18.5351L23.3107 18.5317C23.7626 17.568 24.9103 17.1525 25.874 17.6043C26.8378 18.056 27.2529 19.2036 26.8011 20.1674L26.797 20.1763L26.787 20.1975L26.7499 20.2756C26.7178 20.343 26.6712 20.4403 26.6116 20.5633C26.4924 20.8091 26.3208 21.1583 26.1091 21.5765C25.687 22.4101 25.0989 23.5307 24.443 24.6589C23.7952 25.7731 23.0456 26.957 22.2975 27.8845C21.9265 28.3444 21.5059 28.8045 21.0511 29.1662C20.6491 29.486 19.94 29.9583 19.0309 29.9583C17.8289 29.9583 16.8818 29.2871 16.3029 28.8034C15.7574 28.3475 15.2123 27.768 14.7545 27.2813C14.6941 27.217 14.6352 27.1544 14.578 27.0939C14.0352 26.5195 13.5916 26.0721 13.1747 25.7618C12.8094 25.4898 12.6228 25.4451 12.5693 25.4379C12.5693 25.4379 12.5654 25.4394 12.562 25.4406C12.5031 25.4614 12.1491 25.5862 11.5102 26.3072C10.8478 27.0548 10.17 28.1156 9.54373 29.2696C8.92652 30.4068 8.40169 31.5548 8.02907 32.4256C7.98106 32.5378 7.93571 32.645 7.89316 32.7467C9.58942 34.4369 11.5864 35.801 13.785 36.7668C16.3423 37.8901 19.1119 38.4481 21.9047 38.4027L21.9361 38.4024C25.5821 38.4024 29.0333 37.93 31.8751 36.8917C34.4894 35.9365 36.4838 34.5443 37.7235 32.6961C37.3034 27.9596 35.7946 22.2653 33.1601 17.7421C30.4028 13.0081 26.6613 9.92744 21.9361 9.92744ZM18.568 26.2082C18.568 26.2082 18.5764 26.2018 18.5926 26.1935C18.576 26.2047 18.568 26.2082 18.568 26.2082Z" fill="#1D2D35"/>
</svg>
