<svg width="165" height="48" viewBox="0 0 165 48" fill="none" xmlns="http://www.w3.org/2000/svg">
<path d="M64.4555 14.8507C64.4555 14.1883 64.7186 13.553 65.187 13.0846C65.6554 12.6162 66.2908 12.353 66.9532 12.353C67.6156 12.353 68.2509 12.6162 68.7193 13.0846C69.1877 13.553 69.4508 14.1883 69.4508 14.8507C69.4267 15.497 69.153 16.1088 68.6872 16.5575C68.2215 17.0062 67.5999 17.2569 66.9532 17.2569C66.3065 17.2569 65.6848 17.0062 65.2191 16.5575C64.7533 16.1088 64.4796 15.497 64.4555 14.8507Z" fill="#273B7D"/>
<path d="M23.4651 30.4245C21.3153 30.4245 19.8195 28.7165 19.8195 26.2745C19.8195 23.8342 21.3153 22.128 23.4668 22.128C25.6288 22.128 27.1402 23.8342 27.1402 26.2745C27.1402 28.7548 25.6618 30.4245 23.4651 30.4245ZM23.4651 18.4806C18.915 18.4806 15.6121 21.7592 15.6121 26.2745C15.6121 30.7915 18.9168 34.0684 23.4651 34.0684C28.0343 34.0684 31.3493 30.7915 31.3493 26.2762C31.3493 21.7592 28.0342 18.4806 23.4668 18.4806H23.4651ZM59.6184 26.6659C59.4601 26.3596 59.2599 26.0768 59.0236 25.8258L58.8844 25.6814L59.0306 25.5423C59.2393 25.3214 59.4532 25.0605 59.6584 24.7578L63.6762 18.7885H58.7993L55.7815 23.4586C55.611 23.709 55.2667 23.8342 54.7502 23.8342H54.0631V15.0055C54.0631 13.2401 52.9621 13.0001 51.7742 13.0001H49.7391L49.7443 33.8388H54.0648V27.5877H54.4701C54.9623 27.5877 55.2962 27.6451 55.451 27.9129L57.8339 32.4108C58.5 33.6318 59.1627 33.8388 60.4115 33.8388H63.7215L61.2552 29.7618L59.6202 26.6659H59.6184ZM80.5911 18.4458C78.3927 18.4458 76.9907 19.4233 76.2045 20.2495L75.9437 20.5139L75.8498 20.1539C75.6202 19.2685 74.841 18.7833 73.6704 18.7833H71.7345L71.7467 33.8336H76.0376V26.8972C76.0376 26.2188 76.1245 25.631 76.3054 25.0935C76.782 23.4673 78.1143 22.4567 79.7788 22.4567C81.1181 22.4567 81.6417 23.1646 81.6417 24.9909V31.5464C81.6417 33.1048 82.3634 33.8336 83.9236 33.8336H85.9656L85.9587 24.2604C85.9587 20.4582 84.1028 18.4476 80.5911 18.4476V18.4458ZM67.0053 18.7885H64.972L64.9859 30.4263V33.8388H67.1549L67.2314 33.8423L68.2438 33.8388H69.2491V33.8336H69.256L69.2647 21.0757C69.2647 19.5364 68.529 18.7902 67.0071 18.7902L67.0053 18.7885ZM40.3173 30.4245C38.1675 30.4245 36.6699 28.7165 36.6699 26.2745C36.6699 23.8342 38.1675 22.128 40.3191 22.128C42.4758 22.128 43.9925 23.8342 43.9925 26.2745C43.9925 28.7548 42.5141 30.4245 40.3191 30.4245H40.3173ZM40.3173 18.4806C35.7637 18.4806 32.459 21.7592 32.459 26.2745C32.459 30.7915 35.7638 34.0684 40.3191 34.0684C44.8813 34.0684 48.2033 30.7915 48.2033 26.2762C48.2033 21.7592 44.8813 18.4806 40.3191 18.4806" fill="#273B7D"/>
<path d="M95.0048 29.7618C92.6585 29.7618 91.8236 27.7163 91.8236 25.7979C91.8236 24.9526 92.0375 22.1992 94.7804 22.1992C96.1423 22.1992 97.9563 22.5888 97.9563 25.9387C97.9563 29.0991 96.351 29.7618 95.0048 29.7618ZM100.184 18.7484C99.3704 18.7484 98.7443 19.0737 98.4295 19.6668L98.3112 19.8964L98.1129 19.7224C97.4207 19.1241 96.1788 18.4127 94.1629 18.4127C90.1503 18.4127 87.4492 21.427 87.4492 25.9092C87.4492 30.3897 90.2443 33.5204 94.243 33.5204C95.6084 33.5204 96.6884 33.2004 97.5441 32.5534L97.8746 32.3046V32.7221C97.8746 34.7327 96.5754 35.8424 94.2186 35.8424C93.0724 35.8424 92.0306 35.5641 91.3314 35.3102C90.4234 35.0354 89.8877 35.2632 89.5207 36.1764L89.1798 37.0182L88.698 38.2496L88.9954 38.4079C90.5052 39.208 92.4689 39.6863 94.243 39.6863C97.8956 39.6863 102.164 37.8165 102.164 32.5534L102.179 18.7484H100.184Z" fill="#273B7D"/>
<path d="M7.48774 30.2522L3.9952 30.2488V26.0744C3.9952 25.1804 4.34133 24.7177 5.10489 24.6099H7.48774C9.18705 24.6099 10.2863 25.6813 10.288 27.4154C10.2863 29.1965 9.21488 30.2505 7.48774 30.2505V30.2522ZM3.9952 17.8892C3.9952 16.9274 4.40222 16.4699 5.29449 16.4108H7.08253C8.61487 16.4108 9.53322 17.3274 9.53322 18.8632C9.53322 20.032 8.90357 21.3974 7.13816 21.3974H3.9952V17.8892ZM11.9474 23.1558L11.316 22.801L11.8673 22.3297C12.5092 21.7783 13.5824 20.5382 13.5824 18.3988C13.5824 15.1219 11.0429 13.0069 7.11035 13.0069H2.11151C1.54904 13.0274 1.01605 13.2636 0.622944 13.6664C0.229838 14.0692 0.00677353 14.6078 0 15.1706V33.7639H7.19899C11.5699 33.7639 14.3911 31.3845 14.3911 27.6989C14.3911 25.7144 13.4797 24.0185 11.9474 23.1558Z" fill="#273B7D"/>
<path d="M103.863 31.5081C103.863 30.1218 104.98 29.0017 106.356 29.0017C107.02 29.0017 107.657 29.2656 108.127 29.7353C108.596 30.205 108.86 30.8421 108.86 31.5063C108.86 32.1706 108.596 32.8076 108.127 33.2774C107.657 33.7471 107.02 34.0109 106.356 34.0109C104.982 34.0109 103.863 32.8891 103.863 31.5063" fill="#499FDD"/>
<path d="M132.284 30.4243C130.134 30.4243 128.635 28.7163 128.635 26.2743C128.635 23.8341 130.134 22.1278 132.284 22.1278C134.444 22.1278 135.959 23.8341 135.959 26.2743C135.959 28.7546 134.48 30.4243 132.284 30.4243ZM132.284 18.4805C127.73 18.4805 124.427 21.7591 124.427 26.2743C124.427 30.7913 127.73 34.0682 132.284 34.0682C136.848 34.0682 140.168 30.7913 140.168 26.2761C140.168 21.7591 136.846 18.4805 132.284 18.4805Z" fill="#499FDD"/>
<path d="M159.334 18.4962C158.448 18.4994 157.574 18.7016 156.777 19.0879C155.98 19.4741 155.279 20.0345 154.728 20.7277L154.418 21.1208L154.175 20.6807C153.378 19.2319 152.011 18.4962 150.11 18.4962C148.115 18.4962 146.777 19.6093 146.157 20.2703L145.75 20.7103L145.593 20.1311C145.367 19.2962 144.624 18.8388 143.501 18.8388H141.697L141.679 33.8317H145.776V27.2136C145.776 26.6327 145.849 26.0604 145.993 25.4604C146.384 23.8602 147.459 22.14 149.266 22.3122C150.38 22.4201 150.926 23.281 150.926 24.9438V33.8317H155.051V27.2136C155.051 26.4883 155.119 25.9457 155.283 25.403C155.613 23.8759 156.737 22.3105 158.48 22.3105C159.742 22.3105 160.208 23.0236 160.208 24.9438V31.6402C160.208 33.1534 160.883 33.8317 162.398 33.8317H164.325L164.329 24.2603C164.329 20.4355 162.645 18.4962 159.334 18.4962ZM122.053 28.6259C122.041 28.6416 120.279 30.4992 117.957 30.4992C115.842 30.4992 113.706 29.2016 113.706 26.3057C113.706 23.8046 115.362 22.0565 117.734 22.0565C118.503 22.0565 119.38 22.3314 119.517 22.7957L119.536 22.874C119.624 23.1937 119.815 23.4756 120.079 23.6759C120.343 23.8762 120.666 23.9838 120.997 23.982L123.241 23.9854V22.0235C123.241 19.4354 119.948 18.4962 117.734 18.4962C112.996 18.4962 109.56 21.7939 109.56 26.337C109.56 30.8766 112.958 34.1709 117.647 34.1709C121.714 34.1709 123.926 31.4975 123.947 31.4715L124.065 31.3254L122.288 28.3772L122.053 28.6259Z" fill="#499FDD"/>
</svg>
