<svg width="92" height="48" viewBox="0 0 92 48" fill="none" xmlns="http://www.w3.org/2000/svg">
<g clip-path="url(#clip0_201_7835)">
<path d="M81.5335 18.6229C83.944 16.1809 86.615 16.8992 86.615 19.2676C86.615 21.5793 83.878 24.0747 80.5773 26.0089C80.2574 26.1927 79.8782 26.4065 79.4957 26.5969C79.3671 26.0156 79.2945 25.3709 79.2945 24.6527C79.2945 22.6784 80.1222 20.0527 81.5335 18.6229ZM68.6766 43.5503C65.4747 46.794 61.3826 42.6584 66.1573 37.8212C67.2389 36.7255 69.013 35.5196 70.8596 34.4205C71.9115 37.0663 71.0772 41.1084 68.6766 43.5503ZM48.2816 30.5622C45.825 30.5622 44.2356 27.579 44.7269 23.8943C45.2084 20.2097 47.5925 17.2265 50.0458 17.2265C52.3178 17.2265 53.8478 19.7888 53.673 23.0959C53.6104 23.5736 53.5543 24.0346 53.5082 24.4789C52.8618 27.883 50.5998 30.5622 48.2816 30.5622ZM15.8541 29.3362C15.0528 30.1479 14.0735 30.5789 13.0809 30.5789C12.1543 30.5789 11.353 30.1546 10.6902 29.4831C8.41827 27.1815 8.61612 21.5326 11.5344 18.5661C12.3621 17.7276 13.3612 17.2399 14.39 17.2399C15.31 17.2399 16.1179 17.6541 16.7807 18.3256C18.9208 20.4936 19.0461 26.1025 15.8541 29.3362ZM91.8712 30.5421C91.8712 30.5421 90.9611 29.2526 90.6808 28.8852C90.4895 28.6447 90.2521 28.3507 89.6256 28.785C88.2439 29.7237 86.6875 30.5822 84.7684 30.5822C83.3043 30.5822 82.0216 30.2047 81.0686 29.3863C81.4676 29.2025 81.8864 28.9988 82.315 28.7683C84.5804 27.5256 86.4699 25.9488 87.38 25.0268C91.7887 20.5604 90.4071 13.8993 85.0355 13.8993C79.9606 13.8993 75.9509 18.9102 75.9509 24.4756C75.9509 25.3141 76.0498 26.51 76.4059 27.7828C76.1059 27.9298 74.0977 28.9152 71.6872 30.2615C69.4218 28.5378 65.8869 29.3128 65.8869 29.3128C69.1679 24.5959 74.1076 17.2265 74.5264 16.6186C74.8264 16.1843 74.7803 15.7533 74.4901 15.0719C74.1175 14.2534 73.7449 14.1031 73.2337 14.1031H62.9785C62.6422 14.1031 62.3784 14.2601 62.2795 14.6476C62.1871 15.0251 61.9695 16.3413 61.9332 16.7923C61.8871 17.2432 62.3059 17.5205 62.7411 17.5205H70.1704L63.4501 27.2583C63.4039 27.2951 63.3578 27.3418 63.3215 27.4053C62.3487 28.8317 60.8484 30.8327 59.0479 30.8327C57.9301 30.8327 56.5484 30.021 56.5484 27.3686C56.5484 24.7696 57.5839 19.281 58.339 15.0051C58.4214 14.5441 58.2664 14.0931 57.5377 14.0931H55.7208C55.302 14.0931 55.0646 14.3503 55.0019 14.7111C54.8931 15.3658 54.7843 16.0106 54.6755 16.6286C53.7752 14.8881 52.3375 13.9027 50.2568 13.9027C48.3278 13.9027 46.4482 14.6309 44.9116 16.1776C41.0733 20.066 41.8021 26.4031 38.4914 29.7571C37.0636 31.2035 35.4445 30.7626 35.4445 27.9164C35.4445 24.666 36.6712 21.0448 38.0825 17.6074C38.3265 16.9994 38.0627 16.4916 37.8022 16.0974C37.4296 15.5462 37.2845 15.2489 36.6118 15.2489C35.5665 15.2489 33.8947 15.9204 30.5477 15.9204C29.8388 15.9204 29.1562 15.8936 28.5462 15.8469C28.5824 15.3391 28.5923 14.9984 28.6022 14.8714C28.622 14.3937 28.4571 14.0897 27.9559 14.0897H26.2478C25.6279 14.0897 25.4762 14.3837 25.4036 14.8714C25.1135 16.9426 24.5595 24.5524 20.7937 28.3674C20.3585 28.8083 20.0947 28.9487 20.0947 28.9487C21.0312 27.0879 21.539 24.646 21.539 22.7118C21.539 17.2666 18.3569 13.896 14.3636 13.896C13.1436 13.896 11.8543 14.2935 10.6441 15.0552C11.2079 11.738 11.7257 8.63456 11.907 7.58561C12.062 6.70036 11.7421 6.23936 11.5146 5.87189C11.1288 5.26725 10.7892 5 10.2814 5H4.38873C4.05239 5 3.79848 5.24052 3.71605 5.61801C3.61712 6.05897 3.40608 7.22149 3.3797 7.75598C3.35992 8.227 3.67977 8.40072 4.05239 8.40072H8.36221C7.66974 12.6833 6.36063 20.9847 5.96164 23.0659C5.46372 25.7183 3.59734 28.9687 0.461423 30.1212C0.0690217 30.2682 -0.0925554 30.629 0.0525342 31.0532C0.197624 31.4775 0.735115 32.5832 0.896692 32.8672C1.06157 33.1611 1.42429 33.3549 1.77053 33.2346C3.39949 32.6534 4.88995 31.7147 6.07046 30.5254C6.36063 30.2314 6.64422 29.8974 6.91461 29.5399C8.32264 32.7469 11.1882 33.9161 14.1262 33.9161C17.4435 33.9161 21.0279 32.7469 23.5373 30.1947C26.4753 27.2283 27.702 22.3109 28.2197 18.8267C28.9484 18.9269 29.7761 19.0104 30.5642 19.0104C32.5823 19.0104 34.2739 18.5761 34.2739 18.5761C34.2739 18.5761 32.2393 24.048 32.2393 28.0834C32.2393 32.6333 34.386 33.9228 36.7668 33.9228C39.2135 33.9228 40.9315 32.0621 42.1582 29.7604C42.478 30.4786 42.9496 31.3372 43.5959 31.9886C44.7039 33.111 46.0789 33.9228 48.0607 33.9228C50.3261 33.9228 52.2716 32.5966 53.6532 30.5622C53.8973 31.4173 54.2798 32.1389 54.7975 32.6634C55.4965 33.3716 56.7793 33.9261 58.3884 33.9261C61.1517 33.9261 62.7543 31.8249 67.0542 31.8249C67.5983 31.8249 68.0897 31.9084 68.5348 32.0654C66.5629 33.2814 64.6899 34.5909 63.5424 35.7501C59.9976 39.3412 59.8327 44.0681 62.1608 46.4266C64.9801 49.2828 68.9998 47.853 71.5092 45.3108C74.4472 42.3344 75.3013 36.7088 73.5998 32.8571C75.6541 31.7614 77.3721 30.9497 77.781 30.7559C79.0637 32.5331 81.1906 33.9261 84.6991 33.9261C87.2085 33.9261 89.7377 33.0242 91.7096 31.5142C92.0261 31.3004 92.0888 30.8561 91.8712 30.5421Z" fill="#212123"/>
</g>
<defs>
<clipPath id="clip0_201_7835">
<rect width="92" height="48" fill="white"/>
</clipPath>
</defs>
</svg>
