<svg width="208" height="48" viewBox="0 0 208 48" fill="none" xmlns="http://www.w3.org/2000/svg">
<path fill-rule="evenodd" clip-rule="evenodd" d="M36 24C36 33.9414 27.9414 42 18 42C8.05892 42 0 33.9414 0 24C0 14.0589 8.05892 6 18 6C27.9414 6 36 14.0589 36 24Z" fill="#ECB360"/>
<path fill-rule="evenodd" clip-rule="evenodd" d="M31.2 22.2C31.2 31.1469 24.2152 38.4 15.6 38.4C6.98442 38.4 0 31.1469 0 22.2C0 13.2531 6.98442 6 15.6 6C24.2152 6 31.2 13.2531 31.2 22.2Z" fill="#D76835"/>
<path fill-rule="evenodd" clip-rule="evenodd" d="M32.3993 20.3998C32.3993 28.3529 26.2208 34.8 18.5988 34.8C10.9778 34.8 4.79932 28.3529 4.79932 20.3998C4.79932 12.4471 10.9778 6 18.5988 6C26.2208 6 32.3993 12.4471 32.3993 20.3998Z" fill="#D33A41"/>
<path fill-rule="evenodd" clip-rule="evenodd" d="M31.199 21.6001C31.199 28.8899 25.5576 34.7999 18.5989 34.7999C11.6401 34.7999 5.99902 28.8899 5.99902 21.6001C5.99902 14.3096 11.6401 8.3999 18.5989 8.3999C25.5576 8.3999 31.199 14.3096 31.199 21.6001Z" fill="#B6CB46"/>
<path fill-rule="evenodd" clip-rule="evenodd" d="M29.999 22.7996C29.999 29.4271 24.6263 34.7998 17.9989 34.7998C11.3718 34.7998 5.99902 29.4271 5.99902 22.7996C5.99902 16.1722 11.3718 10.7998 17.9989 10.7998C24.6263 10.7998 29.999 16.1722 29.999 22.7996Z" fill="#66AD4A"/>
<path fill-rule="evenodd" clip-rule="evenodd" d="M25.199 20.3998C25.199 25.7017 20.9009 29.9998 15.599 29.9998C10.2968 29.9998 5.99902 25.7017 5.99902 20.3998C5.99902 15.0979 10.2968 10.7998 15.599 10.7998C20.9009 10.7998 25.199 15.0979 25.199 20.3998Z" fill="#AED7DC"/>
<path fill-rule="evenodd" clip-rule="evenodd" d="M26.3996 19.1998C26.3996 23.8389 22.6389 27.5998 17.9994 27.5998C13.36 27.5998 9.59961 23.8389 9.59961 19.1998C9.59961 14.5604 13.36 10.7998 17.9994 10.7998C22.6389 10.7998 26.3996 14.5604 26.3996 19.1998Z" fill="#5BB1CF"/>
<path fill-rule="evenodd" clip-rule="evenodd" d="M26.401 19.7996C26.401 24.1074 23.1775 27.5998 19.201 27.5998C15.2244 27.5998 12.001 24.1074 12.001 19.7996C12.001 15.4921 15.2244 11.9998 19.201 11.9998C23.1775 11.9998 26.401 15.4921 26.401 19.7996Z" fill="#25A8C3"/>
<path fill-rule="evenodd" clip-rule="evenodd" d="M18.0008 27.5994C14.6874 27.5994 12.001 24.6444 12.001 20.9992C12.001 17.3541 14.6874 14.3994 18.0008 14.3994C21.3146 14.3994 24.001 17.3541 24.001 20.9992C24.001 24.6444 21.3146 27.5994 18.0008 27.5994Z" fill="#1B1A18"/>
<path fill-rule="evenodd" clip-rule="evenodd" d="M21.2739 19.0972C20.7031 20.0521 19.5808 20.6044 18.7668 20.3299C17.9528 20.0557 17.7558 19.0589 18.3261 18.1036C18.8969 17.1484 20.0192 16.5964 20.8332 16.8706C21.6472 17.1447 21.8442 18.1416 21.2739 19.0972Z" fill="#FFFFFE"/>
<path fill-rule="evenodd" clip-rule="evenodd" d="M182.899 30.7475C182.612 29.9426 182.469 28.9226 182.469 27.5541C182.469 26.1856 182.612 25.1661 182.899 24.3608C183.701 22.0532 185.825 20.792 188.607 20.792C190.672 20.792 192.307 21.5699 193.397 22.8046C193.483 22.9119 193.511 23.0732 193.368 23.1805L191.561 24.6559C191.418 24.7633 191.274 24.7367 191.16 24.6025C190.471 23.878 189.754 23.4756 188.607 23.4756C187.373 23.4756 186.427 24.0392 186.025 25.1661C185.795 25.8102 185.738 26.5616 185.738 27.5541C185.738 28.5472 185.795 29.3255 186.025 29.9696C186.427 31.0695 187.373 31.6331 188.607 31.6331C189.754 31.6331 190.471 31.2307 191.16 30.5063C191.274 30.372 191.418 30.372 191.561 30.4793L193.368 31.9552C193.511 32.0625 193.483 32.1968 193.397 32.3307C192.307 33.5384 190.672 34.3167 188.607 34.3167C185.825 34.3167 183.701 33.0555 182.899 30.7475Z" fill="black"/>
<path fill-rule="evenodd" clip-rule="evenodd" d="M204.596 34.0213C204.396 34.0213 204.252 33.9409 204.137 33.7527L200.638 28.3322L198.774 30.3447V33.7527C198.774 33.914 198.659 34.0213 198.487 34.0213H195.848C195.676 34.0213 195.561 33.914 195.561 33.7527V16.0417C195.561 15.8809 195.676 15.7736 195.848 15.7736H198.487C198.659 15.7736 198.774 15.8809 198.774 16.0417V26.5613L203.507 21.3554C203.678 21.1672 203.822 21.0868 204.051 21.0868H206.977C207.15 21.0868 207.207 21.2476 207.092 21.3554L202.703 26.078L207.752 33.7527C207.838 33.8601 207.781 34.0213 207.608 34.0213H204.596Z" fill="black"/>
<path fill-rule="evenodd" clip-rule="evenodd" d="M50.7988 31.2304H54.8721C56.7652 31.2304 57.8265 30.2105 57.8265 28.6812C57.8265 27.1784 56.7652 26.1589 54.8721 26.1589H50.7988C50.6844 26.1589 50.6267 26.2123 50.6267 26.3196V31.0692C50.6267 31.1765 50.6844 31.2304 50.7988 31.2304ZM54.7 23.368C56.4211 23.368 57.4823 22.4019 57.4823 20.9795C57.4823 19.5306 56.4211 18.5645 54.7 18.5645H50.7988C50.6844 18.5645 50.6267 18.618 50.6267 18.7253V23.2067C50.6267 23.3141 50.6844 23.368 50.7988 23.368H54.7ZM47.2422 16.0418C47.2422 15.881 47.357 15.7736 47.5287 15.7736H54.786C58.9165 15.7736 60.8669 17.7058 60.8669 20.6305C60.8669 22.697 59.8345 23.8777 58.6008 24.4948V24.5487C59.8057 24.9776 61.211 26.427 61.211 28.6542C61.211 32.2769 58.7728 34.0213 54.4991 34.0213H47.5287C47.357 34.0213 47.2422 33.914 47.2422 33.7528V16.0418Z" fill="black"/>
<path fill-rule="evenodd" clip-rule="evenodd" d="M63.5913 34.0216C63.4188 34.0216 63.3039 33.9143 63.3039 33.753V21.3557C63.3039 21.1944 63.4188 21.0871 63.5913 21.0871H66.2299C66.402 21.0871 66.5169 21.1944 66.5169 21.3557V22.4556H66.5457C67.2051 21.463 68.3812 20.792 70.1311 20.792C71.2208 20.792 72.3108 21.1944 73.0279 21.8654C73.1716 21.9993 73.2004 22.1071 73.0851 22.2409L71.5649 24.0392C71.4505 24.1731 71.3068 24.2 71.1635 24.0927C70.5325 23.7168 69.8726 23.4756 69.1271 23.4756C67.32 23.4756 66.5169 24.6828 66.5169 26.7493V33.753C66.5169 33.9143 66.402 34.0216 66.2299 34.0216H63.5913Z" fill="black"/>
<path fill-rule="evenodd" clip-rule="evenodd" d="M81.9033 29.9426C82.133 29.2716 82.1903 28.6545 82.1903 27.5541C82.1903 26.4542 82.133 25.8636 81.9033 25.1661C81.5015 24.0927 80.6128 23.4756 79.3219 23.4756C78.031 23.4756 77.113 24.0927 76.7116 25.1661C76.4824 25.8636 76.4247 26.4542 76.4247 27.5541C76.4247 28.6545 76.4824 29.2716 76.7116 29.9426C77.113 31.016 78.031 31.6331 79.3219 31.6331C80.6128 31.6331 81.5015 31.016 81.9033 29.9426ZM73.614 30.7475C73.2983 29.8353 73.155 28.9765 73.155 27.5541C73.155 26.1322 73.2983 25.2735 73.614 24.3608C74.3883 22.1071 76.5107 20.792 79.3219 20.792C82.1042 20.792 84.2267 22.1071 85.0014 24.3608C85.3167 25.2735 85.4604 26.1322 85.4604 27.5541C85.4604 28.9765 85.3167 29.8353 85.0014 30.7475C84.2267 33.0016 82.1042 34.3167 79.3219 34.3167C76.5107 34.3167 74.3883 33.0016 73.614 30.7475Z" fill="black"/>
<path fill-rule="evenodd" clip-rule="evenodd" d="M99.3751 34.0215C99.2026 34.0215 99.0882 33.9141 99.0306 33.7529L96.3631 25.488H96.3059L93.6096 33.7529C93.5519 33.9141 93.4375 34.0215 93.265 34.0215H90.9133C90.7408 34.0215 90.6264 33.9141 90.5692 33.7529L86.209 21.3555C86.1513 21.1943 86.2378 21.087 86.4099 21.087H89.1634C89.3643 21.087 89.4791 21.1674 89.5363 21.3555L92.2038 29.889H92.2614L94.9001 21.3555C94.9577 21.1943 95.101 21.087 95.273 21.087H97.3383C97.5103 21.087 97.654 21.1943 97.7112 21.3555L100.522 29.889H100.58L103.104 21.3555C103.161 21.1674 103.276 21.087 103.477 21.087H106.23C106.402 21.087 106.488 21.1943 106.431 21.3555L102.071 33.7529C102.014 33.9141 101.899 34.0215 101.727 34.0215H99.3751Z" fill="black"/>
<path fill-rule="evenodd" clip-rule="evenodd" d="M106.996 32.2772C106.881 32.1698 106.881 32.0091 106.996 31.9017L108.631 30.2916C108.746 30.1842 108.918 30.1842 109.033 30.2916C110.037 31.1503 111.643 31.7674 113.077 31.7674C114.769 31.7674 115.63 31.1234 115.63 30.2377C115.63 29.4593 115.142 28.9765 113.335 28.8153L111.843 28.6814C109.033 28.4129 107.598 27.0713 107.598 24.8706C107.598 22.3752 109.52 20.792 112.962 20.792C115.114 20.792 116.921 21.463 118.154 22.3752C118.298 22.4825 118.298 22.6433 118.212 22.7507L116.806 24.3343C116.691 24.4682 116.548 24.4682 116.405 24.3878C115.544 23.8241 114.167 23.3143 112.79 23.3143C111.413 23.3143 110.696 23.878 110.696 24.6559C110.696 25.4077 111.184 25.8636 112.962 26.0248L114.454 26.1591C117.351 26.4273 118.728 27.8227 118.728 29.9426C118.728 32.5188 116.72 34.3167 112.934 34.3167C110.094 34.3167 108.144 33.2702 106.996 32.2772Z" fill="black"/>
<path fill-rule="evenodd" clip-rule="evenodd" d="M129.275 25.0049C128.903 23.9584 127.87 23.3413 126.579 23.3413C125.26 23.3413 124.227 23.9584 123.855 25.0049C123.739 25.3269 123.682 25.6489 123.682 26.1053C123.682 26.2126 123.739 26.2665 123.855 26.2665H129.275C129.39 26.2665 129.448 26.2126 129.448 26.1053C129.448 25.6489 129.39 25.3269 129.275 25.0049ZM120.929 30.7205C120.642 29.8892 120.441 28.8961 120.441 27.5541C120.441 26.2126 120.613 25.1931 120.9 24.3608C121.674 22.1071 123.796 20.792 126.55 20.792C129.39 20.792 131.456 22.1605 132.23 24.3608C132.546 25.2735 132.689 26.1591 132.689 28.2521C132.689 28.4129 132.574 28.5202 132.374 28.5202H123.855C123.739 28.5202 123.682 28.5741 123.682 28.6815C123.682 29.0569 123.768 29.379 123.883 29.674C124.342 30.9356 125.432 31.6331 126.981 31.6331C128.53 31.6331 129.534 31.0964 130.222 30.3989C130.366 30.2646 130.509 30.2377 130.652 30.345L132.345 31.7405C132.488 31.8478 132.488 31.9821 132.374 32.1164C131.197 33.4041 129.247 34.3167 126.694 34.3167C123.768 34.3167 121.703 32.9751 120.929 30.7205Z" fill="black"/>
<path fill-rule="evenodd" clip-rule="evenodd" d="M135.068 34.0216C134.896 34.0216 134.781 33.9143 134.781 33.753V21.3557C134.781 21.1945 134.896 21.0871 135.068 21.0871H137.707C137.879 21.0871 137.994 21.1945 137.994 21.3557V22.4556H138.023C138.682 21.463 139.858 20.792 141.608 20.792C142.698 20.792 143.788 21.1945 144.505 21.8655C144.648 21.9993 144.677 22.1071 144.562 22.2409L143.042 24.0392C142.928 24.1731 142.784 24.2 142.64 24.0927C142.01 23.7168 141.35 23.4756 140.604 23.4756C138.797 23.4756 137.994 24.6829 137.994 26.7493V33.753C137.994 33.9143 137.879 34.0216 137.707 34.0216H135.068Z" fill="black"/>
<path fill-rule="evenodd" clip-rule="evenodd" d="M145.056 31.9014C144.941 31.7941 144.884 31.6328 144.999 31.4985L146.777 29.5664C146.892 29.4325 147.064 29.4325 147.179 29.5399C148.441 30.479 150.305 31.4716 152.485 31.4716C154.808 31.4716 156.157 30.3717 156.157 28.8424C156.157 27.5273 155.296 26.6686 152.6 26.3196L151.567 26.1853C147.81 25.7025 145.687 24.0115 145.687 20.9795C145.687 17.6788 148.269 15.4785 152.284 15.4785C154.722 15.4785 157.046 16.203 158.595 17.3029C158.738 17.4107 158.767 17.518 158.652 17.6788L157.275 19.6644C157.161 19.7987 157.017 19.8256 156.874 19.7453C155.296 18.7792 153.833 18.3229 152.199 18.3229C150.219 18.3229 149.129 19.3428 149.129 20.7648C149.129 22.0259 150.076 22.8847 152.715 23.2336L153.748 23.3679C157.505 23.8508 159.57 25.5143 159.57 28.6542C159.57 31.9014 157.075 34.3164 152.227 34.3164C149.359 34.3164 146.576 33.243 145.056 31.9014Z" fill="black"/>
<path fill-rule="evenodd" clip-rule="evenodd" d="M165.514 34.2493C162.731 34.2493 161.67 32.9881 161.67 30.4653V23.6498C161.67 23.5424 161.613 23.4885 161.498 23.4885H160.58C160.408 23.4885 160.293 23.3812 160.293 23.22V21.4221C160.293 21.2613 160.408 21.154 160.58 21.154H161.498C161.613 21.154 161.67 21.1001 161.67 20.9927V17.4504C161.67 17.2896 161.785 17.1823 161.957 17.1823H164.596C164.768 17.1823 164.883 17.2896 164.883 17.4504V20.9927C164.883 21.1001 164.94 21.154 165.055 21.154H166.891C167.062 21.154 167.177 21.2613 167.177 21.4221V23.22C167.177 23.3812 167.062 23.4885 166.891 23.4885H165.055C164.94 23.4885 164.883 23.5424 164.883 23.6498V30.3584C164.883 31.2706 165.285 31.5657 166.174 31.5657H166.891C167.062 31.5657 167.177 31.673 167.177 31.8343V33.9807C167.177 34.1419 167.062 34.2493 166.891 34.2493H165.514Z" fill="black"/>
<path fill-rule="evenodd" clip-rule="evenodd" d="M177.336 29.674V28.6815C177.336 28.5741 177.278 28.5202 177.163 28.5202H174.869C172.803 28.5202 171.885 29.0569 171.885 30.2646C171.885 31.3381 172.717 31.8748 174.266 31.8748C176.246 31.8748 177.336 31.1503 177.336 29.674ZM177.679 34.0216C177.507 34.0216 177.393 33.9143 177.393 33.753V32.8139H177.364C176.704 33.6996 175.413 34.3167 173.463 34.3167C170.939 34.3167 168.816 33.0825 168.816 30.372C168.816 27.5541 170.939 26.2665 174.352 26.2665H177.163C177.278 26.2665 177.336 26.2126 177.336 26.1053V25.4881C177.336 24.0119 176.589 23.3413 174.266 23.3413C172.717 23.3413 171.771 23.7437 171.111 24.227C170.967 24.3343 170.795 24.3074 170.709 24.1731L169.648 22.4022C169.562 22.2679 169.591 22.1336 169.705 22.0532C170.824 21.3018 172.344 20.792 174.611 20.792C178.827 20.792 180.376 22.1336 180.376 25.3004V33.753C180.376 33.9143 180.261 34.0216 180.089 34.0216H177.679Z" fill="black"/>
</svg>
