<svg width="150" height="48" viewBox="0 0 150 48" fill="none" xmlns="http://www.w3.org/2000/svg">
<path d="M88.5483 20.9242C90.862 20.9242 93.053 22.3396 93.5154 25.3978H83.2114C83.6426 22.7142 85.6487 20.9242 88.5483 20.9242ZM93.1861 29.9223C92.3991 31.1489 90.878 32.0925 88.7955 32.0925C85.9261 32.0925 83.7351 30.5196 83.2114 27.7426H96.1385C96.2009 27.3446 96.2324 26.9424 96.2329 26.5395C96.2329 22.2207 93.2134 18.3945 88.5502 18.3945C83.7379 18.3945 80.4675 21.9424 80.4675 26.5093C80.4675 31.1329 83.77 34.6242 88.7352 34.6242C91.8207 34.6242 94.1655 33.2352 95.5224 31.1329L93.1861 29.9223Z" fill="#006BFF"/>
<path d="M79.1972 11.6997H76.5136V34.2222H79.1972V11.6997Z" fill="#006BFF"/>
<path d="M111.165 24.7505V34.2213H108.481V24.9043C108.481 22.3745 107.032 20.9554 104.656 20.9554C102.187 20.9554 100.182 22.4057 100.182 26.046V34.2213H97.4975V18.7974H100.182V21.0186C101.324 19.1984 103.02 18.3964 105.183 18.3964C108.792 18.3964 111.168 20.8025 111.168 24.7524" fill="#006BFF"/>
<path d="M125.965 26.5084C125.965 23.3615 123.589 20.9855 120.474 20.9855C117.388 20.9855 115.013 23.3615 115.013 26.5084C115.013 29.6552 117.388 32.0312 120.474 32.0312C123.587 32.0312 125.965 29.6552 125.965 26.5084ZM128.649 11.6997V34.2222H125.965V31.5679C124.731 33.455 122.757 34.6232 120.134 34.6232C115.845 34.6232 112.329 31.0744 112.329 26.5084C112.329 21.9423 115.845 18.3935 120.134 18.3935C122.756 18.3935 124.731 19.5654 125.965 21.4479V11.6997H128.649Z" fill="#006BFF"/>
<path d="M133.497 11.6997H130.813V34.2222H133.497V11.6997Z" fill="#006BFF"/>
<path d="M71.7298 26.5084C71.7298 23.3615 69.3548 20.9856 66.2382 20.9856C63.1536 20.9856 60.7776 23.3615 60.7776 26.5084C60.7776 29.6553 63.1536 32.0312 66.2382 32.0312C69.352 32.0312 71.7298 29.6553 71.7298 26.5084ZM74.4143 18.7974V34.2213H71.7298V31.5679C70.4956 33.4551 68.5216 34.6232 65.8994 34.6232C61.6108 34.6232 58.0931 31.0744 58.0931 26.5084C58.0931 21.9424 61.6108 18.3935 65.8994 18.3935C68.5216 18.3935 70.4956 19.5655 71.7298 21.4479V18.7974H74.4143Z" fill="#006BFF"/>
<path d="M54.1121 31.2527C52.7382 31.7597 51.2551 31.8966 49.8115 31.6496C48.368 31.4027 47.0148 30.7806 45.8875 29.8457C44.7602 28.9107 43.8985 27.6959 43.3889 26.323C42.8792 24.95 42.7394 23.4672 42.9835 22.0231C43.2276 20.5791 43.8471 19.2247 44.7798 18.0956C45.7125 16.9665 46.9257 16.1024 48.2976 15.59C49.6696 15.0777 51.1521 14.935 52.5966 15.1763C54.0411 15.4176 55.3968 16.0344 56.5277 16.9649C56.9993 17.354 57.4259 17.7946 57.7997 18.2784L60.1218 16.5799C58.769 14.8114 56.9215 13.4843 54.8136 12.7668C52.7056 12.0494 50.4322 11.9739 48.2813 12.55C46.1304 13.1261 44.199 14.3278 42.7319 16.0028C41.2647 17.6778 40.3279 19.7506 40.0401 21.9586C39.7523 24.1666 40.1266 26.4104 41.1154 28.4054C42.1042 30.4005 43.6631 32.0571 45.5944 33.1652C47.5258 34.2734 49.7427 34.7831 51.9641 34.63C54.1855 34.4768 56.3114 33.6676 58.0724 32.3048L56.5268 29.8609C55.8047 30.4556 54.9887 30.926 54.1121 31.2527Z" fill="#006BFF"/>
<path d="M146.452 18.7973V27.5519C146.452 30.3827 144.806 32.1755 142.292 32.1755C139.778 32.1755 137.958 30.3827 137.958 27.5519V18.7973H135.243V27.2896C135.243 31.7396 138.016 34.6288 142.292 34.6288C145.991 34.6288 146.569 32.2887 146.569 32.2302V35.3799C146.569 38.5004 145.211 40.263 142.379 40.263C141.367 40.268 140.389 39.9051 139.625 39.242C138.861 38.5788 138.364 37.6607 138.227 36.6585L135.799 37.5077C136.147 38.9924 136.987 40.3157 138.182 41.262C139.378 42.2084 140.859 42.722 142.384 42.7191C146.775 42.7191 149.178 39.8289 149.178 35.3799V18.7973H146.452Z" fill="#006BFF"/>
<path d="M21.8482 27.7833C20.8168 28.6986 19.5288 29.8375 17.1934 29.8375H15.7969C14.107 29.8375 12.5699 29.2233 11.4696 28.1098C10.3949 27.0219 9.80328 25.5329 9.80328 23.9165V22.0058C9.80328 20.3894 10.3949 18.9004 11.4696 17.8125C12.5699 16.699 14.107 16.0857 15.7969 16.0857H17.1934C19.5317 16.0857 20.8168 17.2237 21.8482 18.1389C22.9191 19.0825 23.8429 19.9072 26.3066 19.9072C26.6824 19.9071 27.0575 19.8772 27.4285 19.8176L27.42 19.7959C27.2725 19.4294 27.0994 19.0738 26.902 18.7315L25.2554 15.8791C24.5129 14.5932 23.445 13.5254 22.159 12.783C20.8731 12.0406 19.4143 11.6498 17.9294 11.6499H14.6354C13.1505 11.6498 11.6918 12.0406 10.4058 12.783C9.11981 13.5254 8.0519 14.5932 7.30938 15.8791L5.66282 18.7315C4.92055 20.0175 4.52979 21.4763 4.52979 22.9611C4.52979 24.446 4.92055 25.9047 5.66282 27.1908L7.30938 30.0432C8.0519 31.3291 9.11981 32.3969 10.4058 33.1393C11.6918 33.8817 13.1505 34.2724 14.6354 34.2724H17.9294C19.4143 34.2724 20.8731 33.8817 22.159 33.1393C23.445 32.3969 24.5129 31.3291 25.2554 30.0432L26.902 27.1955C27.0994 26.8532 27.2725 26.4976 27.42 26.1311L27.4285 26.1104C27.0577 26.0488 26.6825 26.0172 26.3066 26.016C23.8429 26.016 22.9191 26.836 21.8482 27.7843" fill="#006BFF"/>
<path d="M17.1929 17.8171H15.7964C13.2241 17.8171 11.5342 19.6543 11.5342 22.0057V23.9165C11.5342 26.2679 13.2241 28.1051 15.7964 28.1051H17.1929C20.9408 28.1051 20.6464 24.2835 26.306 24.2835C26.8422 24.2829 27.3774 24.3322 27.9045 24.4307C28.0762 23.4585 28.0762 22.4637 27.9045 21.4915C27.3773 21.5895 26.8422 21.6388 26.306 21.6387C20.6445 21.6387 20.9408 17.8171 17.1929 17.8171Z" fill="#006BFF"/>
<path d="M31.1562 25.8274C30.1924 25.1215 29.0809 24.6436 27.9056 24.4299C27.9056 24.4403 27.9056 24.4488 27.9056 24.4582C27.8044 25.0216 27.6463 25.5733 27.4338 26.1048C28.4047 26.2552 29.3259 26.6346 30.1211 27.2116C30.1211 27.2192 30.1164 27.2286 30.1136 27.2371C29.0901 30.5511 26.9118 33.3882 23.9745 35.2328C21.0372 37.0774 17.5356 37.8072 14.106 37.2897C10.6763 36.7721 7.54604 35.0416 5.28381 32.4124C3.02157 29.7832 1.77746 26.4297 1.77746 22.9612C1.77746 19.4927 3.02157 16.1393 5.28381 13.5101C7.54604 10.8809 10.6763 9.15032 14.106 8.63279C17.5356 8.11526 21.0372 8.84508 23.9745 10.6897C26.9118 12.5343 29.0901 15.3713 30.1136 18.6854C30.1136 18.6939 30.1183 18.7033 30.1211 18.7108C29.326 19.288 28.4048 19.6671 27.4338 19.8167C27.6461 20.3489 27.8041 20.9012 27.9056 21.4652C27.905 21.474 27.905 21.4828 27.9056 21.4916C29.0809 21.2782 30.1924 20.8007 31.1562 20.0951C32.0828 19.4091 31.9035 18.6344 31.7629 18.1758C30.6173 14.4601 28.1767 11.2786 24.8845 9.20961C21.5924 7.14057 17.6672 6.32125 13.8223 6.90053C9.97731 7.47981 6.46776 9.41924 3.93135 12.3664C1.39494 15.3136 0 19.0729 0 22.9612C0 26.8496 1.39494 30.6089 3.93135 33.5561C6.46776 36.5032 9.97731 38.4427 13.8223 39.0219C17.6672 39.6012 21.5924 38.7819 24.8845 36.7129C28.1767 34.6438 30.6173 31.4624 31.7629 27.7466C31.9035 27.288 32.0828 26.5134 31.1562 25.8274Z" fill="#006BFF"/>
<path d="M27.429 19.8165C27.0581 19.8781 26.6829 19.9096 26.307 19.9108C23.8433 19.9108 22.9196 19.0909 21.8495 18.1426C20.8173 17.2273 19.5321 16.0884 17.1939 16.0884H15.7974C14.1065 16.0884 12.5703 16.7027 11.4701 17.8161C10.3953 18.904 9.80371 20.393 9.80371 22.0094V23.9201C9.80371 25.5365 10.3953 27.0255 11.4701 28.1134C12.5703 29.2269 14.1065 29.8402 15.7974 29.8402H17.1939C19.5321 29.8402 20.8173 28.7022 21.8495 27.787C22.9196 26.8434 23.8433 26.0187 26.307 26.0187C26.6828 26.0188 27.058 26.0487 27.429 26.1083C27.6419 25.577 27.8 25.0253 27.9008 24.4618C27.9013 24.4523 27.9013 24.4429 27.9008 24.4335C27.3736 24.3357 26.8385 24.2868 26.3023 24.2872C20.6408 24.2872 20.9371 28.1097 17.1892 28.1097H15.7927C13.2204 28.1097 11.5305 26.2716 11.5305 23.9201V22.0056C11.5305 19.6542 13.2204 17.817 15.7927 17.817H17.1892C20.9371 17.817 20.6427 21.6376 26.3023 21.6376C26.8385 21.6385 27.3736 21.5896 27.9008 21.4914C27.9008 21.4829 27.9008 21.4744 27.9008 21.4649C27.7993 20.901 27.6413 20.3487 27.429 19.8165Z" fill="#0AE8F0"/>
<path d="M27.429 19.8165C27.0581 19.8781 26.6829 19.9096 26.307 19.9108C23.8433 19.9108 22.9196 19.0909 21.8495 18.1426C20.8173 17.2273 19.5321 16.0884 17.1939 16.0884H15.7974C14.1065 16.0884 12.5703 16.7027 11.4701 17.8161C10.3953 18.904 9.80371 20.393 9.80371 22.0094V23.9201C9.80371 25.5365 10.3953 27.0255 11.4701 28.1134C12.5703 29.2269 14.1065 29.8402 15.7974 29.8402H17.1939C19.5321 29.8402 20.8173 28.7022 21.8495 27.787C22.9196 26.8434 23.8433 26.0187 26.307 26.0187C26.6828 26.0188 27.058 26.0487 27.429 26.1083C27.6419 25.577 27.8 25.0253 27.9008 24.4618C27.9013 24.4523 27.9013 24.4429 27.9008 24.4335C27.3736 24.3357 26.8385 24.2868 26.3023 24.2872C20.6408 24.2872 20.9371 28.1097 17.1892 28.1097H15.7927C13.2204 28.1097 11.5305 26.2716 11.5305 23.9201V22.0056C11.5305 19.6542 13.2204 17.817 15.7927 17.817H17.1892C20.9371 17.817 20.6427 21.6376 26.3023 21.6376C26.8385 21.6385 27.3736 21.5896 27.9008 21.4914C27.9008 21.4829 27.9008 21.4744 27.9008 21.4649C27.7993 20.901 27.6413 20.3487 27.429 19.8165Z" fill="#0AE8F0"/>
</svg>
