<svg width="97" height="48" viewBox="0 0 97 48" fill="none" xmlns="http://www.w3.org/2000/svg">
<g clip-path="url(#clip0_201_7859)">
<path d="M69.2665 14.3877H68.3982H67.7868H67.7134C65.6711 14.3877 63.2558 14.4978 60.4247 14.3877H59.9723C59.3608 14.3877 58.0645 14.2715 58.0461 14.2715L57.1412 14.192C55.9183 14.0881 54.6586 13.9291 53.3195 13.7029L52.329 13.5317L51.7909 13.4522C51.4484 13.3849 50.0054 13.067 49.6813 12.9875C49.3572 12.908 49.1188 12.8529 48.8314 12.7796C48.3177 12.6512 47.798 12.5044 47.266 12.3515L46.5323 12.1314C46.037 11.9908 45.5356 11.8257 45.022 11.6545L44.1048 11.3426C43.6584 11.1898 43.212 11.0247 42.7534 10.8534L52.8365 3.51587L69.2665 14.3877Z" fill="#C6EBF4"/>
<path d="M28.8063 45.5051C27.1758 45.5051 25.9895 45.0159 25.2476 44.0376C24.5057 43.0592 24.1266 41.5163 24.1103 39.4088V36.3515C24.1103 34.1991 24.4894 32.6399 25.2476 31.6738C26.0058 30.7077 27.2165 30.2246 28.8797 30.2246C29.9283 30.1662 30.9667 30.4565 31.8331 31.0501C32.169 31.275 32.45 31.5726 32.6553 31.9209C32.8606 32.2691 32.985 32.659 33.0193 33.0618C33.0263 33.0958 33.0446 33.1265 33.0712 33.1487C33.0979 33.1709 33.1314 33.1834 33.1661 33.1841H35.7098C35.7503 33.1841 35.7892 33.168 35.8179 33.1393C35.8465 33.1106 35.8626 33.0718 35.8626 33.0312C35.8524 31.8094 35.373 30.6382 34.5235 29.7599C33.3251 28.4147 31.3928 27.7421 28.7268 27.7421C26.2565 27.7421 24.3854 28.4636 23.1136 29.9066C21.8417 31.3497 21.2079 33.5021 21.2119 36.3637V39.9958C21.2119 42.6455 21.8479 44.6409 23.1197 45.982C24.3916 47.3232 26.2647 47.9958 28.7391 47.9999C31.723 47.9999 33.7796 47.1561 34.9088 45.4684C35.2459 44.9897 35.5116 44.4644 35.6975 43.9092C35.8417 43.3479 35.9137 42.7705 35.9116 42.191C35.9116 42.1515 35.8963 42.1135 35.869 42.085C35.8416 42.0565 35.8043 42.0397 35.7648 42.0381H33.1722C33.1375 42.0388 33.104 42.0513 33.0774 42.0735C33.0507 42.0957 33.0324 42.1264 33.0254 42.1604C32.628 44.2027 31.2583 45.5051 28.8063 45.5051Z" fill="#25314C"/>
<path d="M79.4234 30.353C79.4623 30.353 79.4996 30.3375 79.5272 30.31C79.5547 30.2825 79.5701 30.2452 79.5701 30.2063V27.8888C79.571 27.8693 79.5678 27.8498 79.5607 27.8316C79.5537 27.8134 79.5429 27.7969 79.5291 27.7831C79.5153 27.7693 79.4988 27.7585 79.4806 27.7515C79.4624 27.7444 79.4429 27.7412 79.4234 27.742H75.1431V23.0032C75.1431 22.9643 75.1277 22.9269 75.1002 22.8994C75.0726 22.8719 75.0353 22.8564 74.9964 22.8564L72.3915 23.6513C72.3526 23.6513 72.3153 23.6668 72.2878 23.6943C72.2603 23.7219 72.2448 23.7592 72.2448 23.7981V27.742H69.4015C69.3626 27.742 69.3252 27.7575 69.2977 27.785C69.2702 27.8126 69.2547 27.8499 69.2547 27.8888V30.2063C69.2547 30.2452 69.2702 30.2825 69.2977 30.31C69.3252 30.3375 69.3626 30.353 69.4015 30.353H72.2448V42.5823C72.2448 44.2699 72.6239 45.5051 73.3821 46.2878C74.1403 47.0705 75.3612 47.4699 77.0448 47.4863H79.4295C79.4684 47.4863 79.5057 47.4708 79.5333 47.4433C79.5608 47.4158 79.5763 47.3784 79.5763 47.3395V45.0648C79.5763 45.0259 79.5608 44.9886 79.5333 44.9611C79.5057 44.9336 79.4684 44.9181 79.4295 44.9181H77.3016C77.0006 44.9512 76.696 44.9132 76.4124 44.807C76.1288 44.7007 75.8742 44.5294 75.669 44.3066C75.2823 43.6611 75.109 42.9101 75.1737 42.1604V30.353H79.4234Z" fill="#25314C"/>
<path d="M53.3261 33.019C53.3129 32.7681 53.2698 32.5198 53.1977 32.2791C52.9437 31.4095 52.5128 30.6018 51.9319 29.9066C50.6601 28.4636 48.789 27.7421 46.3187 27.7421C43.6527 27.7421 41.7184 28.4147 40.5159 29.7599C39.7023 30.6449 39.2639 31.8111 39.293 33.0129C39.293 33.0534 39.3091 33.0923 39.3377 33.121C39.3664 33.1496 39.4053 33.1657 39.4458 33.1657H41.9895C42.0251 33.1648 42.0592 33.1514 42.086 33.128C42.1128 33.1045 42.1306 33.0725 42.1363 33.0373C42.1532 32.6401 42.2612 32.252 42.4521 31.9032C42.6429 31.5543 42.9115 31.2541 43.2369 31.0256C44.1061 30.4332 45.146 30.1432 46.1964 30.2001C47.8596 30.2001 49.0703 30.6832 49.8285 31.6493C50.1777 32.1089 50.3897 32.658 50.4399 33.233C50.4399 33.4348 50.4399 33.6427 50.4399 33.8445V36.0091C49.6817 35.9112 48.9235 35.8378 48.1653 35.7889C47.4071 35.74 46.7834 35.7156 46.2942 35.7156C43.6242 35.7156 41.6654 36.217 40.418 37.2198C39.1707 38.2226 38.547 39.8144 38.547 41.9953C38.547 44.0335 39.1401 45.5194 40.3263 46.4529C41.3719 47.26 43.5671 47.6758 45.7806 47.7981C46.3642 47.8235 46.949 47.8031 47.5294 47.737C49.3948 47.5752 51.233 47.1829 53.002 46.5691C53.0964 46.541 53.1797 46.484 53.24 46.4061C53.3003 46.3282 53.3347 46.2334 53.3383 46.1349V33.7956C53.3566 33.5143 53.3444 33.2514 53.3261 33.019ZM43.1819 44.8386C42.8649 44.7329 42.5751 44.5587 42.3331 44.3283C42.0911 44.0979 41.9028 43.817 41.7816 43.5056C41.6075 43.0174 41.5246 42.5013 41.537 41.9831C41.537 40.6093 41.8978 39.6289 42.6193 39.0419C43.3408 38.4549 44.6453 38.1614 46.5327 38.1614C46.9424 38.1614 49.3821 38.3693 50.2932 38.4733C50.3386 38.4778 50.3807 38.4991 50.4112 38.5331C50.4417 38.567 50.4585 38.6111 50.4583 38.6567V44.4045C50.4582 44.4445 50.4459 44.4836 50.4229 44.5164C50.4 44.5492 50.3675 44.5741 50.3299 44.5879C48.0393 45.4535 45.5275 45.5416 43.1819 44.8386Z" fill="#25314C"/>
<path d="M96.6912 33.019C96.6721 32.7759 96.6249 32.5358 96.5505 32.3036C96.2966 31.434 95.8657 30.6263 95.2848 29.9311C94.0129 28.488 92.1419 27.7665 89.6715 27.7665C86.9974 27.7665 85.0631 28.4391 83.8687 29.7843C83.0552 30.6694 82.6168 31.8355 82.6458 33.0373C82.6458 33.0779 82.6619 33.1168 82.6906 33.1454C82.7193 33.1741 82.7581 33.1902 82.7987 33.1902H85.3424C85.378 33.1892 85.4121 33.1759 85.4389 33.1524C85.4657 33.129 85.4834 33.0969 85.4891 33.0618C85.506 32.6645 85.6141 32.2765 85.8049 31.9276C85.9958 31.5788 86.2643 31.2785 86.5898 31.0501C87.4586 30.4568 88.4988 30.1667 89.5493 30.2246C91.2124 30.2246 92.4231 30.7077 93.1814 31.6738C93.5333 32.1318 93.7456 32.6817 93.7928 33.2575C93.7928 33.4592 93.8234 33.6671 93.8234 33.8689V36.0335C93.0652 35.9357 92.307 35.8623 91.5487 35.8134C90.7905 35.7645 90.1607 35.74 89.6715 35.74C87.0056 35.74 85.0489 36.2414 83.8015 37.2442C82.5541 38.247 81.9324 39.8389 81.9365 42.0198C81.9365 44.058 82.5296 45.5438 83.7159 46.4773C84.7615 47.2845 86.9566 47.7003 89.1701 47.8226C89.7538 47.848 90.3385 47.8276 90.9189 47.7614C92.7844 47.5996 94.6226 47.2074 96.3915 46.5935C96.486 46.5654 96.5692 46.5084 96.6295 46.4306C96.6899 46.3527 96.7243 46.2578 96.7279 46.1594V33.7956C96.7217 33.5143 96.7095 33.2513 96.6912 33.019ZM86.547 44.8386C86.23 44.7329 85.9402 44.5587 85.6982 44.3283C85.4562 44.0979 85.2679 43.817 85.1467 43.5056C84.9726 43.0174 84.8897 42.5013 84.9021 41.9831C84.9021 40.6093 85.2629 39.6289 85.9844 39.0419C86.7059 38.4549 88.0104 38.1614 89.8978 38.1614C90.3075 38.1614 92.7472 38.3693 93.6583 38.4733C93.7032 38.4791 93.7445 38.5008 93.7748 38.5344C93.8051 38.5681 93.8223 38.6114 93.8234 38.6567V44.4045C93.8217 44.4441 93.8088 44.4824 93.786 44.515C93.7633 44.5475 93.7317 44.5728 93.695 44.5879C91.4044 45.4535 88.8926 45.5416 86.547 44.8386Z" fill="#25314C"/>
<path d="M66.7843 30.5731C66.8205 30.5715 66.8547 30.556 66.8798 30.5298C66.9049 30.5036 66.9189 30.4687 66.9188 30.4324V27.8826C66.9188 27.3935 63.5619 28.1456 63.25 28.2434C62.545 28.4026 61.8827 28.7123 61.3086 29.1514C60.7345 29.5904 60.262 30.1484 59.9237 30.7871V28.4696C59.9237 28.4488 59.9196 28.4281 59.9116 28.4088C59.9036 28.3895 59.8919 28.372 59.8771 28.3572C59.8623 28.3425 59.8448 28.3308 59.8255 28.3228C59.8062 28.3148 59.7856 28.3107 59.7647 28.3107H57.2393C57.1972 28.3107 57.1567 28.3274 57.1269 28.3572C57.0971 28.387 57.0804 28.4275 57.0804 28.4696V47.3394C57.0803 47.3822 57.0969 47.4233 57.1265 47.4541C57.1562 47.4849 57.1966 47.503 57.2393 47.5045H59.8442C59.8869 47.503 59.9273 47.4849 59.957 47.4541C59.9866 47.4233 60.0032 47.3822 60.0032 47.3394V36.7672C59.9756 35.525 60.2263 34.2923 60.7369 33.1596C61.0578 32.4425 61.5698 31.8275 62.217 31.3821C62.8641 30.9367 63.6213 30.6779 64.4057 30.6342C64.9716 30.5631 65.5414 30.5283 66.1117 30.5303L66.7843 30.5731Z" fill="#25314C"/>
<path d="M67.8176 15.5434C28.8061 27.5159 0 15.5434 0 15.5434L21.4624 0C29.6071 5.97401 36.6879 9.67949 42.7536 11.9664C43.2122 12.1376 43.6586 12.3027 44.105 12.4555L45.0222 12.7674C45.5358 12.9386 46.0372 13.1037 46.5325 13.2443L47.2662 13.4645C47.7982 13.6173 48.318 13.7641 48.8316 13.8925C49.119 13.9659 49.4002 14.0392 49.6815 14.1004C49.9628 14.1615 52.1702 14.6385 52.3597 14.6752L53.3503 14.8464C54.6894 15.0726 55.9613 15.2316 57.172 15.3355L58.0769 15.415C58.0769 15.415 59.3916 15.5068 60.0031 15.5312H60.4555C63.2866 15.6352 65.7019 15.5312 67.7442 15.5312L67.8176 15.5434Z" fill="#1B98ED"/>
</g>
<defs>
<clipPath id="clip0_201_7859">
<rect width="97" height="48" fill="white"/>
</clipPath>
</defs>
</svg>
