<svg width="189" height="48" viewBox="0 0 189 48" fill="none" xmlns="http://www.w3.org/2000/svg">
<path d="M60.5716 31.0798C57.8348 31.0798 56.2304 28.9408 56.2304 26.5185C56.2304 23.7188 58.055 21.8627 60.5716 21.8627C61.8928 21.8627 62.7736 22.3975 63.5916 22.9009L64.9127 20.5416C63.9691 19.9439 62.3961 19.2203 60.7289 19.2203C56.3877 19.2203 53.2734 22.3032 53.2734 26.5185C53.2734 30.7023 56.4506 33.8167 60.7289 33.8167C62.5534 33.8167 63.8747 33.0617 64.9127 32.4325L63.5916 30.0733C62.7736 30.6394 61.5468 31.0798 60.5716 31.0798ZM69.8516 12.7715H72.6514V33.4392H69.8516V12.7715ZM88.7891 19.6608L88.4745 20.8562C87.7196 20.0383 86.1152 19.2203 84.4165 19.2203C80.9561 19.2203 77.779 21.9571 77.779 26.4241C77.779 31.0484 80.9561 33.8482 84.4165 33.8482C86.1152 33.8482 87.6567 33.0302 88.4745 32.2123L88.7891 33.4707H91.1484V19.7551H88.7891V19.6608ZM88.5374 26.6128C88.5374 29.7587 86.6185 31.1742 84.794 31.1742C82.938 31.1742 80.7989 29.916 80.7989 26.4555C80.7989 24.2536 81.9628 21.8942 84.5738 21.8942C86.5556 21.8942 88.5374 23.4986 88.5374 26.4555V26.6128ZM101.152 27.7139C103.071 28.2172 103.889 28.5947 103.889 29.5699C103.889 30.3249 103.228 31.1113 101.687 31.1113C100.271 31.1113 99.1072 30.608 98.0062 30.0103L96.7479 32.3696C97.7231 32.9673 99.8936 33.7852 101.687 33.7852C104.77 33.7852 106.562 31.709 106.562 29.6014C106.562 25.9837 103.008 25.4175 102.064 25.1029C100.082 24.5682 99.5791 24.1592 99.5791 23.3413C99.5791 22.4604 100.334 21.8627 101.781 21.8627C103.039 21.8627 103.983 22.2402 104.864 22.6807L106.185 20.3214C104.927 19.7866 103.448 19.2203 101.781 19.2203C98.7612 19.2203 96.9367 21.3594 96.9367 23.3413C96.9367 26.5185 99.6105 27.3364 101.152 27.7139ZM116.157 27.7139C118.076 28.2172 118.894 28.5947 118.894 29.5699C118.894 30.3249 118.233 31.1113 116.692 31.1113C115.276 31.1113 114.112 30.608 113.011 30.0103L111.753 32.3696C112.728 32.9673 114.899 33.7852 116.692 33.7852C119.775 33.7852 121.568 31.709 121.568 29.6014C121.568 25.9837 118.013 25.4175 117.07 25.1029C115.087 24.5682 114.584 24.1592 114.584 23.3413C114.584 22.4604 115.339 21.8627 116.786 21.8627C118.045 21.8627 118.988 22.2402 119.87 22.6807L121.191 20.3214C119.932 19.7866 118.454 19.2203 116.786 19.2203C113.767 19.2203 111.942 21.3594 111.942 23.3413C111.91 26.5185 114.616 27.3364 116.157 27.7139ZM133.71 19.2203C132.012 19.2203 130.471 20.0383 129.653 20.8562L129.338 19.5978H126.979V39.133H129.621V32.3382L129.716 32.2752C130.471 33.0932 132.012 33.7538 133.491 33.7538C137.045 33.7538 140.348 31.4573 140.348 26.3297C140.411 21.7369 137.234 19.2203 133.71 19.2203ZM133.396 31.1742C131.572 31.1742 129.653 29.7587 129.653 26.6128V26.4555C129.653 23.4357 131.634 21.8942 133.617 21.8942C136.258 21.8942 137.392 24.2536 137.392 26.4555C137.392 29.916 135.252 31.1742 133.396 31.1742ZM156.014 19.6608L155.7 20.9191C154.945 20.1012 153.341 19.2833 151.642 19.2833C148.181 19.2833 145.004 22.02 145.004 26.487C145.004 31.1113 148.181 33.9111 151.642 33.9111C153.341 33.9111 154.881 33.0932 155.7 32.2752L156.014 33.5336H158.374V19.818H156.014V19.6608ZM155.731 26.6128C155.731 29.7587 153.812 31.1742 151.987 31.1742C150.131 31.1742 147.993 29.916 147.993 26.4555C147.993 24.2536 149.156 21.8942 151.768 21.8942C153.749 21.8942 155.731 23.4986 155.731 26.4555V26.6128ZM168.377 27.7139C170.296 28.2172 171.113 28.5947 171.113 29.5699C171.113 30.3249 170.453 31.1113 168.911 31.1113C167.496 31.1113 166.332 30.608 165.231 30.0103L163.973 32.3696C164.948 32.9673 167.119 33.7852 168.911 33.7852C171.995 33.7852 173.787 31.709 173.787 29.6014C173.787 25.9837 170.233 25.4175 169.289 25.1029C167.307 24.5682 166.804 24.1592 166.804 23.3413C166.804 22.4604 167.559 21.8627 169.006 21.8627C170.264 21.8627 171.208 22.2402 172.089 22.6807L173.41 20.3214C172.152 19.7866 170.674 19.2203 169.006 19.2203C165.986 19.2203 164.161 21.3594 164.161 23.3413C164.13 26.5185 166.835 27.3364 168.377 27.7139ZM183.351 27.7139C185.27 28.2172 186.087 28.5947 186.087 29.5699C186.087 30.3249 185.427 31.1113 183.885 31.1113C182.47 31.1113 181.306 30.608 180.205 30.0103L178.947 32.3696C179.922 32.9673 182.093 33.7852 183.885 33.7852C186.969 33.7852 188.761 31.709 188.761 29.6014C188.761 25.9837 185.207 25.4175 184.263 25.1029C182.281 24.5682 181.778 24.1592 181.778 23.3413C181.778 22.4604 182.533 21.8627 183.98 21.8627C185.238 21.8627 186.182 22.2402 187.062 22.6807L188.384 20.3214C187.126 19.7866 185.647 19.2203 183.98 19.2203C180.96 19.2203 179.135 21.3594 179.135 23.3413C179.135 26.5185 181.841 27.3364 183.351 27.7139Z" fill="#333333"/>
<path d="M29.2678 8.39941H24.2031C23.3224 8.39941 22.4416 9.05994 22.3472 9.94077L21.5922 13.5585C21.4978 14.219 20.9316 14.6594 20.271 14.6594H14.6716C7.09025 14.7538 0.0751953 20.4791 0.0751953 28.5951C0.0751953 35.8305 6.11506 42.4366 14.7974 42.4366H20.5226C21.4035 42.4366 22.2843 41.776 22.3787 40.8951L23.1337 37.2775C23.228 36.6169 23.7943 36.1765 24.4548 36.1765H29.3937C37.8559 36.1765 44.1159 29.6962 44.1159 22.3351C43.99 14.219 37.0694 8.39941 29.2678 8.39941ZM29.142 30.7972H23.1966C22.3158 30.7972 21.5608 31.4579 21.3405 32.3387L20.5855 35.8619C20.4912 36.5225 19.9249 36.963 19.2644 36.963H14.8602C10.3618 36.963 5.51737 33.7857 5.51737 28.5008C5.51737 23.6563 9.79561 20.0387 14.8602 20.0387H21.6551C22.536 20.0387 23.291 19.3781 23.5112 18.4973L24.2661 14.974C24.3604 14.3134 24.9267 13.873 25.5873 13.873H29.1105C33.8292 13.873 38.4535 17.1761 38.4535 22.3351C38.3905 27.0538 34.3325 30.7972 29.142 30.7972Z" fill="#333333"/>
</svg>
