<svg width="150" height="48" viewBox="0 0 150 48" fill="none" xmlns="http://www.w3.org/2000/svg">
<path fill-rule="evenodd" clip-rule="evenodd" d="M44 24V34.2489L43.9975 34.7785C43.9614 38.4667 43.539 39.8831 42.7756 41.3105C41.9767 42.8044 40.8044 43.9767 39.3105 44.7756L39.1112 44.8799C37.6799 45.6115 36.1534 46 32.2489 46H22V24H44Z" fill="url(#paint0_linear_201_7865)"/>
<path fill-rule="evenodd" clip-rule="evenodd" d="M39.3105 3.22436C40.8044 4.02327 41.9767 5.19563 42.7756 6.68946L42.8799 6.88879C43.6115 8.32014 44 9.84662 44 13.7511V24H22V2H32.2489C36.335 2 37.8167 2.42545 39.3105 3.22436Z" fill="url(#paint1_linear_201_7865)"/>
<path fill-rule="evenodd" clip-rule="evenodd" d="M22 2V46H11.7511L11.2215 45.9975C7.53328 45.9614 6.11689 45.539 4.68946 44.7756C3.19563 43.9767 2.02327 42.8044 1.22436 41.3105L1.12006 41.1112C0.388473 39.6799 0 38.1534 0 34.2489V13.7511C0 9.66501 0.425451 8.18328 1.22436 6.68946C2.02327 5.19563 3.19563 4.02327 4.68946 3.22436L4.88879 3.12005C6.32014 2.38847 7.84662 2 11.7511 2H22Z" fill="url(#paint2_linear_201_7865)"/>
<path fill-rule="evenodd" clip-rule="evenodd" d="M75.0289 18.5652C74.5689 17.941 73.9694 17.4851 73.2302 17.1977C72.491 16.9102 71.7682 16.7665 71.0619 16.7665C70.1584 16.7665 69.3371 16.9307 68.5979 17.2593C67.8587 17.5878 67.2221 18.0395 66.6883 18.6145C66.1544 19.1894 65.7437 19.8629 65.4563 20.635C65.1688 21.407 65.0251 22.2448 65.0251 23.1482C65.0251 24.101 65.1647 24.9716 65.4439 25.7601C65.7232 26.5486 66.1215 27.2262 66.639 27.7929C67.1564 28.3596 67.7765 28.799 68.4993 29.1111C69.2221 29.4232 70.0352 29.5793 70.9387 29.5793C71.875 29.5793 72.7045 29.3945 73.4273 29.0249C74.1501 28.6553 74.7332 28.1666 75.1767 27.5588L77.6654 29.3082C76.8933 30.2774 75.9488 31.0289 74.8318 31.5628C73.7148 32.0967 72.4088 32.3636 70.914 32.3636C69.5506 32.3636 68.2981 32.1377 67.1564 31.686C66.0148 31.2343 65.0333 30.6018 64.2119 29.7887C63.3906 28.9756 62.75 28.0064 62.29 26.8812C61.8301 25.756 61.6001 24.5117 61.6001 23.1482C61.6001 21.752 61.8424 20.4912 62.327 19.366C62.8116 18.2408 63.4768 17.2839 64.3228 16.4954C65.1688 15.707 66.1667 15.0992 67.3166 14.6721C68.4664 14.245 69.7149 14.0314 71.0619 14.0314C71.6204 14.0314 72.2035 14.0848 72.8113 14.1916C73.4191 14.2984 74.0022 14.4626 74.5607 14.6844C75.1192 14.9062 75.6449 15.1813 76.1377 15.5098C76.6305 15.8384 77.0494 16.2326 77.3943 16.6926L75.0289 18.5652ZM79.4887 13.2922H82.4455V31.9201H79.4887V13.2922ZM93.4913 24.8238C93.4913 24.4459 93.4379 24.0846 93.3311 23.7396C93.2243 23.3946 93.056 23.0907 92.826 22.8279C92.596 22.5651 92.3045 22.3556 91.9513 22.1996C91.5981 22.0435 91.1833 21.9655 90.707 21.9655C89.8199 21.9655 89.0684 22.2324 88.4524 22.7663C87.8364 23.3002 87.4956 23.986 87.4298 24.8238H93.4913ZM96.4481 26.1543V26.5486C96.4481 26.68 96.4399 26.8114 96.4234 26.9428H87.4298C87.4627 27.3699 87.5736 27.76 87.7625 28.1132C87.9514 28.4664 88.2019 28.7703 88.514 29.0249C88.8261 29.2795 89.1793 29.4807 89.5735 29.6286C89.9678 29.7764 90.3784 29.8503 90.8055 29.8503C91.5447 29.8503 92.1689 29.7148 92.6782 29.4438C93.1874 29.1727 93.6063 28.799 93.9348 28.3226L95.906 29.8996C94.7397 31.4766 93.0478 32.265 90.8302 32.265C89.9103 32.265 89.0643 32.1213 88.2922 31.8338C87.5202 31.5464 86.8508 31.1398 86.2841 30.6142C85.7174 30.0885 85.2739 29.4438 84.9535 28.6799C84.6332 27.9161 84.473 27.0496 84.473 26.0804C84.473 25.1276 84.6332 24.2611 84.9535 23.4809C85.2739 22.7006 85.7133 22.0353 86.2718 21.485C86.8303 20.9347 87.4914 20.5077 88.2553 20.2038C89.0191 19.8999 89.8446 19.7479 90.7316 19.7479C91.5529 19.7479 92.3127 19.8834 93.0108 20.1545C93.7089 20.4255 94.3126 20.828 94.8218 21.3618C95.3311 21.8957 95.7294 22.561 96.0169 23.3577C96.3044 24.1544 96.4481 25.0866 96.4481 26.1543ZM106.501 30.417H106.427C106.132 30.9427 105.655 31.3739 104.998 31.7106C104.341 32.0474 103.594 32.2158 102.756 32.2158C102.28 32.2158 101.783 32.1542 101.265 32.031C100.748 31.9078 100.271 31.7024 99.8361 31.415C99.4008 31.1275 99.0394 30.7497 98.7519 30.2815C98.4645 29.8134 98.3207 29.2343 98.3207 28.5444C98.3207 27.6574 98.5712 26.951 99.0722 26.4254C99.5733 25.8997 100.218 25.4973 101.006 25.218C101.795 24.9387 102.67 24.7539 103.631 24.6636C104.592 24.5732 105.532 24.5281 106.452 24.5281V24.2324C106.452 23.4932 106.185 22.947 105.651 22.5938C105.117 22.2407 104.481 22.0641 103.742 22.0641C103.117 22.0641 102.518 22.1955 101.943 22.4583C101.368 22.7211 100.891 23.0415 100.514 23.4193L98.986 21.6206C99.6595 20.9963 100.436 20.5282 101.314 20.2161C102.193 19.904 103.084 19.7479 103.988 19.7479C105.039 19.7479 105.906 19.8958 106.587 20.1914C107.269 20.4871 107.807 20.8731 108.201 21.3495C108.596 21.8259 108.871 22.3598 109.027 22.9511C109.183 23.5425 109.261 24.1338 109.261 24.7252V31.9201H106.501V30.417ZM106.452 26.5239H105.787C105.31 26.5239 104.809 26.5444 104.284 26.5855C103.758 26.6266 103.273 26.7169 102.83 26.8566C102.386 26.9962 102.017 27.1933 101.721 27.4479C101.425 27.7025 101.278 28.0516 101.278 28.4951C101.278 28.7744 101.339 29.0084 101.462 29.1974C101.586 29.3863 101.746 29.5382 101.943 29.6532C102.14 29.7682 102.362 29.8503 102.608 29.8996C102.854 29.9489 103.101 29.9735 103.347 29.9735C104.366 29.9735 105.138 29.7025 105.663 29.1604C106.189 28.6183 106.452 27.8791 106.452 26.9428V26.5239ZM111.83 20.0929H114.664V22.0641H114.713C115.042 21.3742 115.502 20.8157 116.093 20.3886C116.685 19.9615 117.374 19.7479 118.163 19.7479C118.278 19.7479 118.401 19.752 118.533 19.7602C118.664 19.7684 118.779 19.789 118.878 19.8218V22.5322C118.68 22.483 118.512 22.4501 118.372 22.4337C118.233 22.4172 118.097 22.409 117.966 22.409C117.292 22.409 116.75 22.5322 116.34 22.7786C115.929 23.025 115.609 23.3207 115.379 23.6657C115.149 24.0106 114.993 24.3638 114.91 24.7252C114.828 25.0866 114.787 25.374 114.787 25.5876V31.9201H111.83V20.0929ZM123.806 13.2922V21.5959H123.879C124.027 21.3988 124.216 21.1935 124.446 20.9799C124.676 20.7664 124.951 20.5692 125.272 20.3886C125.592 20.2079 125.966 20.0559 126.393 19.9327C126.82 19.8095 127.304 19.7479 127.846 19.7479C128.684 19.7479 129.456 19.9081 130.163 20.2284C130.869 20.5487 131.477 20.9881 131.986 21.5466C132.495 22.1051 132.889 22.7622 133.169 23.5178C133.448 24.2735 133.588 25.0866 133.588 25.9572C133.588 26.8278 133.452 27.645 133.181 28.4089C132.91 29.1727 132.524 29.838 132.023 30.4047C131.522 30.9714 130.914 31.4232 130.2 31.7599C129.485 32.0967 128.676 32.265 127.773 32.265C126.935 32.265 126.15 32.0843 125.419 31.723C124.688 31.3616 124.118 30.8359 123.707 30.146H123.658V31.9201H120.849V13.2922H123.806ZM130.582 25.9572C130.582 25.4972 130.512 25.0414 130.372 24.5897C130.232 24.1379 130.023 23.7314 129.744 23.37C129.465 23.0086 129.111 22.717 128.684 22.4953C128.257 22.2735 127.756 22.1626 127.181 22.1626C126.639 22.1626 126.155 22.2776 125.727 22.5076C125.3 22.7376 124.935 23.0332 124.631 23.3946C124.327 23.756 124.097 24.1667 123.941 24.6266C123.785 25.0866 123.707 25.5465 123.707 26.0065C123.707 26.4664 123.785 26.9223 123.941 27.374C124.097 27.8257 124.327 28.2323 124.631 28.5937C124.935 28.9551 125.3 29.2466 125.727 29.4684C126.155 29.6902 126.639 29.801 127.181 29.801C127.756 29.801 128.257 29.686 128.684 29.4561C129.111 29.2261 129.465 28.9304 129.744 28.569C130.023 28.2076 130.232 27.797 130.372 27.337C130.512 26.8771 130.582 26.4171 130.582 25.9572ZM135.615 20.0929H138.572V31.9201H135.615V20.0929ZM135.196 16.0766C135.196 15.6002 135.373 15.1854 135.726 14.8322C136.079 14.4791 136.527 14.3025 137.069 14.3025C137.611 14.3025 138.067 14.4708 138.436 14.8076C138.806 15.1443 138.991 15.5673 138.991 16.0766C138.991 16.5858 138.806 17.0088 138.436 17.3455C138.067 17.6823 137.611 17.8506 137.069 17.8506C136.527 17.8506 136.079 17.6741 135.726 17.3209C135.373 16.9677 135.196 16.5529 135.196 16.0766ZM140.469 22.4583V20.0929H142.539V16.6679H145.446V20.0929H148.403V22.4583H145.446V27.953C145.446 28.4787 145.541 28.914 145.73 29.259C145.919 29.6039 146.342 29.7764 146.999 29.7764C147.196 29.7764 147.409 29.7559 147.639 29.7148C147.869 29.6737 148.075 29.6121 148.255 29.53L148.354 31.8462C148.091 31.9447 147.779 32.0227 147.418 32.0802C147.056 32.1377 146.711 32.1665 146.383 32.1665C145.594 32.1665 144.954 32.0556 144.461 31.8338C143.968 31.6121 143.578 31.3082 143.29 30.9222C143.003 30.5361 142.806 30.0926 142.699 29.5916C142.592 29.0906 142.539 28.5526 142.539 27.9777V22.4583H140.469Z" fill="#27282A"/>
<defs>
<linearGradient id="paint0_linear_201_7865" x1="33" y1="24" x2="44" y2="46" gradientUnits="userSpaceOnUse">
<stop stop-color="#DEF2FE"/>
<stop offset="1" stop-color="#DBF1FE"/>
</linearGradient>
<linearGradient id="paint1_linear_201_7865" x1="22" y1="2" x2="33" y2="24" gradientUnits="userSpaceOnUse">
<stop stop-color="#57BCFD"/>
<stop offset="1" stop-color="#51B5FD"/>
</linearGradient>
<linearGradient id="paint2_linear_201_7865" x1="8.25" y1="2" x2="26.95" y2="39.4" gradientUnits="userSpaceOnUse">
<stop stop-color="#1CA7FD"/>
<stop offset="1" stop-color="#148CFC"/>
</linearGradient>
</defs>
</svg>
