<svg width="135" height="48" viewBox="0 0 135 48" fill="none" xmlns="http://www.w3.org/2000/svg">
<path d="M27.116 16.7003C22.2353 16.7003 18.4217 20.4054 18.4217 25.3654C18.4217 30.3254 22.1389 33.9988 27.116 33.9988C32.0931 33.9988 35.875 30.262 35.875 25.3337C35.875 20.4371 32.1577 16.7003 27.116 16.7003ZM27.1489 30.4242C24.3695 30.4242 22.3328 28.2656 22.3328 25.3666C22.3328 22.4348 24.3366 20.2774 27.116 20.2774C29.9283 20.2774 31.9638 22.4677 31.9638 25.3666C31.9638 28.2656 29.9283 30.4242 27.1489 30.4242ZM36.9409 20.47H39.3652V33.678H43.2435V17.0223H36.9409V20.47ZM8.66141 20.2761C10.6981 20.2761 12.314 21.5323 12.9275 23.4007H17.0326C16.2886 19.4066 12.9921 16.7003 8.69434 16.7003C3.8136 16.7003 0 20.4054 0 25.3666C0 30.3279 3.71726 34 8.69434 34C12.8958 34 16.2569 31.2938 17.0008 27.2667H12.9275C12.3457 29.1351 10.7298 30.4242 8.69314 30.4242C5.88079 30.4242 3.90994 28.2656 3.90994 25.3666C3.91117 22.4348 5.8503 20.2761 8.66141 20.2761ZM110.63 23.7556L107.786 23.3373C106.429 23.1446 105.459 22.6933 105.459 21.6299C105.459 20.47 106.72 19.8907 108.432 19.8907C110.307 19.8907 111.503 20.6957 111.762 22.0165H115.511C115.09 18.6663 112.504 16.7016 108.53 16.7016C104.425 16.7016 101.71 18.7956 101.71 21.7591C101.71 24.5934 103.488 26.2374 107.075 26.7521L109.919 27.1704C111.309 27.3631 112.085 27.9119 112.085 28.9424C112.085 30.2632 110.728 30.8108 108.853 30.8108C106.558 30.8108 105.265 29.8766 105.071 28.4595H101.257C101.614 31.7133 104.166 34 108.82 34C113.055 34 115.866 32.067 115.866 28.7485C115.866 25.7849 113.83 24.2385 110.63 23.7556ZM41.3044 10.161C39.8824 10.161 38.8155 11.1915 38.8155 12.6087C38.8155 14.0258 39.8812 15.0563 41.3044 15.0563C42.7264 15.0563 43.7936 14.0258 43.7936 12.6087C43.7936 11.1915 42.7264 10.161 41.3044 10.161ZM98.2196 22.725C98.2196 19.1175 96.0221 16.7016 91.368 16.7016C86.9726 16.7016 84.5163 18.9249 84.0311 22.3396H87.8775C88.0714 21.0189 89.1056 19.9237 91.3035 19.9237C93.2756 19.9237 94.245 20.7932 94.245 21.8567C94.245 23.2422 92.4667 23.5958 90.2692 23.8215C87.2959 24.1434 83.6115 25.1739 83.6115 29.04C83.6115 32.0365 85.842 33.9683 89.3974 33.9683C92.1765 33.9683 93.9217 32.8085 94.7951 30.9718C94.9245 32.6146 96.1526 33.678 97.866 33.678H100.128V30.2315H98.2207V22.725H98.2196ZM94.4059 26.9131C94.4059 29.1363 92.4667 30.7791 90.1069 30.7791C88.6522 30.7791 87.4241 30.1669 87.4241 28.879C87.4241 27.2362 89.3959 26.785 91.206 26.5923C92.9512 26.4313 93.9206 26.0447 94.4059 25.3032V26.9131ZM73.8184 16.7003C71.6524 16.7003 69.8426 17.6028 68.55 19.1163V10H64.6717V33.678H68.4851V31.4877C69.7777 33.0658 71.6209 34 73.8184 34C78.4721 34 81.9956 30.3279 81.9956 25.3666C81.9956 20.4054 78.4076 16.7003 73.8184 16.7003ZM73.2367 30.4242C70.4572 30.4242 68.4206 28.2656 68.4206 25.3666C68.4206 22.4677 70.4891 20.2774 73.2682 20.2774C76.0807 20.2774 78.0514 22.436 78.0514 25.3666C78.0514 28.2656 76.0159 30.4242 73.2367 30.4242ZM55.3954 16.7003C52.8746 16.7003 51.2257 17.7309 50.2564 19.1809V17.0223H46.4096V33.6768H50.2879V24.6252C50.2879 22.0799 51.9037 20.2761 54.2955 20.2761C56.526 20.2761 57.915 21.8543 57.915 24.1422V33.678H61.7932V23.8531C61.7947 19.6639 59.6299 16.7003 55.3954 16.7003ZM134.353 24.8191C134.353 20.0517 130.863 16.7016 126.176 16.7016C121.199 16.7016 117.546 20.4383 117.546 25.3666C117.546 30.5535 121.457 34 126.241 34C130.281 34 133.448 31.6157 134.256 28.2339H130.215C129.633 29.7156 128.211 30.5535 126.304 30.5535C123.815 30.5535 121.94 29.0071 121.521 26.3008H134.352V24.8191H134.353ZM121.747 23.53C122.362 21.2103 124.107 20.0835 126.111 20.0835C128.309 20.0835 129.99 21.3396 130.377 23.53H121.747Z" fill="#0052FF"/>
</svg>
