<svg width="163" height="48" viewBox="0 0 163 48" fill="none" xmlns="http://www.w3.org/2000/svg">
<path d="M9.97846 32.0001C9.12186 31.1397 8.44421 30.1196 7.98433 28.9981C7.52445 27.8767 7.29137 26.6759 7.29844 25.4647C7.29532 24.2535 7.53486 23.0538 8.00303 21.9358C8.4712 20.8178 9.15862 19.8039 10.0251 18.9535C10.3962 18.6251 10.6962 18.2248 10.9065 17.777C11.1168 17.3293 11.2331 16.8435 11.2482 16.3495C11.2633 15.8555 11.177 15.3636 10.9945 14.9039C10.8119 14.4443 10.5371 14.0265 10.1867 13.6763C9.83631 13.326 9.4178 13.0506 8.95676 12.867C8.49573 12.6833 8.00188 12.5953 7.50547 12.6082C7.00905 12.6211 6.5205 12.7347 6.06974 12.9421C5.61898 13.1495 5.2155 13.4463 4.88399 13.8143C1.77015 16.8952 0.0133822 21.081 7.61375e-05 25.4511C-0.01323 29.8211 1.71802 34.0175 4.81303 37.1171C5.14346 37.4846 5.54562 37.7813 5.995 37.989C6.44438 38.1968 6.93155 38.3112 7.42683 38.3255C7.92211 38.3397 8.41511 38.2534 8.87578 38.0718C9.33646 37.8902 9.75515 37.6172 10.1063 37.2693C10.4575 36.9214 10.7338 36.5059 10.9185 36.0483C11.1031 35.5906 11.1921 35.1004 11.1801 34.6074C11.1682 34.1143 11.0555 33.6289 10.8489 33.1807C10.6423 32.7324 10.3461 32.3308 9.97846 32.0001Z" fill="#FFDA00"/>
<path d="M10.0253 18.9532C11.7715 17.2326 14.1319 16.2713 16.5891 16.28C19.0462 16.2887 21.3996 17.2667 23.1335 18.9996C23.4628 19.3709 23.8649 19.6714 24.3151 19.8823C24.7653 20.0933 25.2541 20.2104 25.7515 20.2264C26.2488 20.2425 26.7442 20.1571 27.2072 19.9755C27.6702 19.7939 28.091 19.52 28.4437 19.1706C28.7964 18.8212 29.0735 18.4037 29.2582 17.9438C29.4428 17.4838 29.5309 16.9912 29.5172 16.4961C29.5034 16.001 29.3881 15.5139 29.1782 15.0648C28.9684 14.6157 28.6685 14.2141 28.2969 13.8846C26.7701 12.3453 24.9527 11.1214 22.9493 10.2832C20.9458 9.44499 18.7958 9.00895 16.6225 9.00014C14.4493 8.99132 12.2957 9.40991 10.2855 10.2319C8.27524 11.0538 6.44795 12.2629 4.90856 13.7898C4.53605 14.1165 4.23444 14.5154 4.02218 14.9621C3.80993 15.4088 3.69149 15.8939 3.67411 16.3877C3.65674 16.8816 3.74079 17.3737 3.92114 17.8341C4.10148 18.2945 4.37432 18.7134 4.72295 19.0653C5.07158 19.4171 5.48868 19.6944 5.94871 19.8802C6.40874 20.066 6.90203 20.1564 7.39839 20.1459C7.89475 20.1355 8.38374 20.0243 8.83543 19.8192C9.28712 19.6141 9.69202 19.3194 10.0253 18.9532Z" fill="#67B3FF"/>
<path d="M23.1107 32.0462C22.2465 32.9005 21.2216 33.5768 20.0945 34.0362C18.9674 34.4957 17.7603 34.7293 16.5424 34.7238C15.3247 34.7256 14.119 34.4856 12.9957 34.0178C11.8724 33.5501 10.8541 32.8641 10.0005 31.9998C9.67055 31.6304 9.26835 31.3319 8.8185 31.1226C8.36865 30.9132 7.8806 30.7975 7.38424 30.7824C6.88788 30.7674 6.39366 30.8533 5.93183 31.035C5.47001 31.2167 5.05029 31.4902 4.69839 31.839C4.34649 32.1877 4.06981 32.6043 3.88529 33.0631C3.70077 33.522 3.61229 34.0135 3.62527 34.5076C3.63825 35.0017 3.75242 35.488 3.96078 35.9366C4.16915 36.3853 4.46732 36.7869 4.83706 37.1168C6.36653 38.656 8.18616 39.8796 10.1916 40.7175C12.1971 41.5554 14.349 41.9912 16.524 41.9998C18.699 42.0084 20.8544 41.5898 22.8665 40.7678C24.8786 39.9458 26.708 38.7366 28.2497 37.2096C28.5904 36.8738 28.8612 36.4744 29.0468 36.0344C29.2323 35.5944 29.329 35.1223 29.3313 34.6451C29.3335 34.1678 29.2413 33.6948 29.0599 33.2531C28.8785 32.8113 28.6115 32.4095 28.2741 32.0705C27.9366 31.7314 27.5354 31.4619 27.0933 31.2772C26.6512 31.0925 26.1769 30.9962 25.6974 30.994C25.2179 30.9917 24.7427 31.0835 24.2989 31.2641C23.855 31.4446 23.4513 31.7104 23.1107 32.0462Z" fill="#EB5A68"/>
<path d="M10.0252 18.9531C9.5137 19.4615 8.86204 19.8073 8.15284 19.9466C7.44364 20.0859 6.70885 20.0124 6.04168 19.7354C5.37451 19.4585 4.80503 18.9905 4.40546 18.3909C4.0059 17.7913 3.79426 17.0871 3.7974 16.3676C3.80053 15.6482 4.0183 14.9458 4.42307 14.3497C4.82785 13.7536 5.40139 13.2906 6.07095 13.0194C6.74051 12.7482 7.47591 12.681 8.18387 12.8264C8.89183 12.9718 9.54045 13.3232 10.0475 13.8361C10.7229 14.5193 11.0996 15.4406 11.0954 16.3991C11.0912 17.3577 10.7065 18.2757 10.0252 18.9531Z" fill="#47A1FF"/>
<path d="M9.9543 37.1169C9.44265 37.6252 8.79085 37.9707 8.0816 38.1097C7.37234 38.2487 6.63758 38.1749 5.97052 37.8977C5.30347 37.6205 4.73417 37.1523 4.33484 36.5525C3.93552 35.9528 3.72416 35.2485 3.72758 34.529C3.731 33.8096 3.94904 33.1073 4.35405 32.5114C4.75906 31.9154 5.33279 31.4526 6.00245 31.1817C6.67212 30.9107 7.40754 30.8439 8.11545 30.9895C8.82335 31.1352 9.47183 31.4869 9.97863 31.9999C10.6538 32.6834 11.0301 33.6049 11.0256 34.5634C11.021 35.5219 10.636 36.4398 9.9543 37.1169Z" fill="#D5465F"/>
<path d="M44.5344 29.0239C45.5866 28.2329 45.7265 28.6748 46.6144 29.5586C47.0584 30.0004 48.2727 30.7692 47.478 31.4189C45.8197 32.7668 44.3236 33.3721 42.2071 33.3721C37.4168 33.3499 34.0292 29.7906 34.3009 25.0691C34.4164 22.9545 35.2577 20.9529 36.9181 19.5808C38.4365 18.3016 40.3279 17.7447 42.3146 17.7911C43.2883 17.7882 44.253 17.9775 45.1527 18.348C45.7622 18.567 46.3364 18.8729 46.8577 19.256C47.9098 20.0631 47.4192 20.5352 46.6002 21.3484C46.4137 21.534 46.2272 21.7217 46.063 21.9073C45.6433 22.325 45.3615 22.6276 44.802 22.2322C43.7276 21.4876 42.3693 21.0921 41.0861 21.4251C36.9505 22.4702 37.137 29.7966 42.2092 29.8209C43.05 29.8098 43.8651 29.5305 44.5344 29.0239ZM159.494 33.4629C159.328 33.4637 159.163 33.4318 159.01 33.369C158.856 33.3063 158.717 33.2139 158.599 33.0972C158.482 32.9805 158.389 32.8419 158.326 32.6892C158.262 32.5366 158.23 32.373 158.231 32.2078L158.301 15.9751C158.301 15.81 158.333 15.6464 158.396 15.4936C158.459 15.3409 158.552 15.2021 158.669 15.0852C158.786 14.9683 158.925 14.8757 159.079 14.8127C159.232 14.7497 159.397 14.7176 159.562 14.7181H160.919C161.085 14.7176 161.249 14.7498 161.403 14.8129C161.556 14.8761 161.696 14.9688 161.813 15.0859C161.93 15.203 162.023 15.342 162.086 15.495C162.149 15.648 162.181 15.8119 162.18 15.9772L162.109 32.2099C162.109 32.3749 162.077 32.5385 162.014 32.6911C161.951 32.8437 161.858 32.9824 161.741 33.0991C161.624 33.2158 161.485 33.3082 161.331 33.371C161.178 33.4338 161.014 33.4657 160.848 33.4649L159.494 33.4629ZM152.398 31.5803C150.926 32.9524 149.524 33.6727 147.444 33.6727C143.239 33.6485 141.228 30.1841 141.228 26.2999L141.252 19.6959C141.252 19.5308 141.284 19.3673 141.347 19.2148C141.411 19.0622 141.504 18.9237 141.621 18.8072C141.739 18.6907 141.878 18.5985 142.032 18.536C142.185 18.4734 142.35 18.4418 142.515 18.4428H143.872C144.037 18.442 144.202 18.474 144.355 18.5367C144.508 18.5995 144.648 18.6919 144.765 18.8086C144.882 18.9253 144.975 19.064 145.038 19.2166C145.101 19.3693 145.133 19.5328 145.132 19.6979L145.11 26.3019C145.11 28.4649 146.278 30.1619 148.569 30.1619C150.859 30.1619 152.26 28.2551 152.283 26.1264V23.7676C152.264 23.676 152.257 23.5826 152.26 23.4892L152.283 19.7443C152.282 19.5792 152.314 19.4157 152.377 19.2631C152.44 19.1104 152.533 18.9718 152.65 18.8551C152.767 18.7383 152.907 18.6459 153.06 18.5831C153.213 18.5204 153.378 18.4884 153.544 18.4892H154.882C155.047 18.4884 155.212 18.5204 155.365 18.5831C155.518 18.6459 155.658 18.7383 155.775 18.8551C155.892 18.9718 155.985 19.1104 156.048 19.2631C156.111 19.4157 156.143 19.5792 156.142 19.7443L156.098 32.2099C156.095 32.5397 155.96 32.8548 155.724 33.0859C155.487 33.3171 155.168 33.4454 154.837 33.4427H153.692C153.366 33.4326 153.057 33.2995 152.827 33.0704C152.597 32.8414 152.463 32.5336 152.453 32.2099L152.398 31.5803ZM136.267 18.4892H138.885C139.05 18.4916 139.214 18.5266 139.367 18.5923C139.519 18.658 139.656 18.7531 139.772 18.872C139.887 18.9909 139.977 19.1314 140.037 19.2853C140.098 19.4391 140.127 19.6034 140.123 19.7685V20.628C140.121 20.9594 139.987 21.2765 139.752 21.5112C139.517 21.7459 139.199 21.8794 138.866 21.8831H136.243L136.196 32.1392C136.197 32.3044 136.165 32.468 136.102 32.6208C136.039 32.7735 135.946 32.9123 135.829 33.0292C135.712 33.146 135.572 33.2386 135.419 33.3017C135.266 33.3647 135.101 33.3968 134.935 33.3963H133.581C133.415 33.3968 133.251 33.3647 133.097 33.3017C132.944 33.2387 132.804 33.1461 132.687 33.0293C132.57 32.9125 132.477 32.7737 132.413 32.6209C132.35 32.4682 132.318 32.3045 132.318 32.1392L132.365 17.9545C132.365 14.8614 134.141 12.4179 137.319 12.1394C137.413 12.1394 137.482 12.1172 137.575 12.1172C137.762 12.1051 137.949 12.1051 138.136 12.1172H139.353C139.519 12.1196 139.682 12.1546 139.834 12.2201C139.986 12.2857 140.124 12.3806 140.239 12.4993C140.354 12.618 140.445 12.7582 140.505 12.9119C140.566 13.0655 140.595 13.2295 140.591 13.3945V14.1854C140.589 14.5178 140.456 14.836 140.22 15.0712C139.984 15.3065 139.664 15.4398 139.331 15.4425H138.349C136.853 15.4425 136.223 16.5805 136.198 17.9767L136.267 18.4892ZM126.875 18.4428H129.744C130.075 18.446 130.392 18.58 130.624 18.8153C130.856 19.0506 130.985 19.368 130.982 19.6979V20.5574C130.979 20.8873 130.845 21.2023 130.608 21.4335C130.372 21.6646 130.053 21.793 129.721 21.7903H126.851L126.828 28.0654C126.828 29.2761 127.412 29.9722 128.627 29.9722H129.21C129.542 29.9759 129.859 30.1103 130.091 30.346C130.323 30.5816 130.452 30.8992 130.449 31.2292V32.1009C130.445 32.4306 130.311 32.7453 130.074 32.9764C129.838 33.2074 129.519 33.3359 129.188 33.3337H128.089C127.886 33.3378 127.683 33.3297 127.481 33.3095C124.373 33.1078 122.995 31.1021 122.995 28.0775C123.019 24.0078 123.019 19.9622 123.042 15.8924C123.043 15.7289 123.077 15.5674 123.141 15.4169C123.206 15.2665 123.299 15.1301 123.417 15.0156C123.534 14.9012 123.673 14.8108 123.825 14.7497C123.977 14.6886 124.14 14.658 124.305 14.6596H125.636C125.968 14.6628 126.284 14.7967 126.517 15.032C126.749 15.2674 126.878 15.5848 126.875 15.9146V18.4428ZM85.3166 18.2794H88.1851C88.5165 18.2826 88.8331 18.4166 89.0653 18.6519C89.2975 18.8872 89.4265 19.2046 89.4238 19.5344V20.398C89.42 20.7277 89.2853 21.0425 89.049 21.2735C88.8126 21.5045 88.494 21.633 88.1628 21.6309H85.2841V27.908C85.2841 29.1187 85.868 29.8148 87.0823 29.8148H87.6682C87.8322 29.8164 87.9942 29.8501 88.1451 29.914C88.296 29.978 88.4328 30.0709 88.5476 30.1874C88.6625 30.3039 88.7531 30.4419 88.8144 30.5933C88.8757 30.7447 88.9064 30.9066 88.9048 31.0698V31.9294C88.9016 32.2592 88.767 32.5743 88.5306 32.8055C88.2941 33.0366 87.9752 33.1649 87.6438 33.1622H86.7802C83.3907 33.14 81.4283 31.6974 81.4283 27.9161C81.4526 23.8463 81.4526 19.7988 81.4749 15.729C81.4787 15.399 81.6137 15.0839 81.8504 14.8528C82.0872 14.6217 82.4063 14.4935 82.7379 14.4961H84.0698C84.4012 14.4999 84.7175 14.6343 84.9494 14.87C85.1813 15.1057 85.3097 15.4234 85.3064 15.7532L85.3166 18.2794ZM68.4478 20.0469C69.8264 18.7677 71.3225 17.9545 73.2605 17.9545C77.4671 17.9767 79.6403 21.3847 79.6159 25.3253L79.5936 31.9294C79.5942 32.0946 79.5619 32.2583 79.4986 32.4111C79.4353 32.5638 79.3423 32.7026 79.2249 32.8195C79.1075 32.9363 78.9681 33.0289 78.8146 33.0918C78.6611 33.1548 78.4967 33.187 78.3307 33.1864H76.9765C76.8105 33.187 76.646 33.1548 76.4925 33.0918C76.339 33.0289 76.1996 32.9363 76.0822 32.8195C75.9648 32.7026 75.8718 32.5638 75.8085 32.4111C75.7453 32.2583 75.713 32.0946 75.7135 31.9294L75.7378 25.3718C75.7378 23.2087 74.5701 21.5118 72.2793 21.5118C69.9885 21.5118 68.5877 23.3964 68.5654 25.5352L68.5411 31.9294C68.5379 32.2592 68.4033 32.5743 68.1669 32.8055C67.9305 33.0366 67.6115 33.1649 67.2801 33.1622H65.9482C65.6169 33.159 65.3003 33.0251 65.068 32.7898C64.8358 32.5545 64.7069 32.237 64.7096 31.9072C64.7319 27.9302 64.7319 23.9311 64.7562 19.9541V19.4194C64.7573 19.0899 64.8895 18.7743 65.124 18.5417C65.3585 18.3091 65.676 18.1785 66.007 18.1785H67.1524C67.4779 18.1881 67.7873 18.3211 68.0176 18.5503C68.2478 18.7794 68.3814 19.0874 68.3911 19.4114L68.4478 20.0469ZM110.085 20.2084C111.464 18.9311 112.958 18.116 114.898 18.116C119.105 18.1402 121.276 21.5582 121.254 25.4888L121.229 32.1009C121.23 32.266 121.198 32.4297 121.135 32.5824C121.072 32.7352 120.979 32.874 120.862 32.9908C120.745 33.1077 120.605 33.2003 120.452 33.2633C120.299 33.3263 120.134 33.3585 119.968 33.358H118.614C118.448 33.3585 118.284 33.3263 118.13 33.2634C117.977 33.2004 117.837 33.1078 117.72 32.991C117.602 32.8741 117.509 32.7353 117.446 32.5826C117.383 32.4298 117.351 32.2661 117.351 32.1009L117.375 25.5433C117.375 23.3802 116.206 21.6833 113.917 21.6833C111.628 21.6833 110.225 23.5659 110.201 25.7067L110.169 32.1009C110.165 32.4309 110.03 32.746 109.793 32.9771C109.556 33.2082 109.237 33.3364 108.906 33.3337H107.574C107.243 33.33 106.927 33.1958 106.695 32.9606C106.463 32.7253 106.334 32.4082 106.337 32.0787L106.384 19.5889C106.384 19.4247 106.417 19.2623 106.481 19.1109C106.545 18.9596 106.638 18.8222 106.756 18.7069C106.873 18.5916 107.012 18.5005 107.165 18.4389C107.318 18.3773 107.482 18.3464 107.647 18.348H108.792C109.119 18.3587 109.429 18.4935 109.659 18.7246C109.889 18.9558 110.021 19.2657 110.029 19.5909L110.085 20.2084ZM55.7269 17.8375C51.1696 17.8133 47.9463 21.0921 47.922 25.6038C47.8997 30.1619 51.0764 33.3963 55.6802 33.4185C60.2841 33.4407 63.5074 30.2325 63.5297 25.6441C63.5541 21.1628 60.2598 17.8597 55.7269 17.8375ZM93.5553 27.1635C93.8817 29.2559 95.8927 30.1155 97.8551 30.1397C98.8388 30.1311 99.8098 29.9173 100.705 29.5121C100.849 29.4538 100.99 29.3864 101.125 29.3104C101.593 29.0541 102.013 28.8927 102.435 29.3104C102.668 29.5424 102.879 29.7765 103.112 29.9843C103.332 30.1934 103.535 30.4194 103.72 30.6602C104.35 31.4492 103.906 31.6368 103.183 32.1251C101.64 33.1481 99.6309 33.6586 97.7841 33.6586C92.8316 33.6364 89.5596 30.632 89.5596 25.6603C89.5839 20.961 92.8539 17.8456 97.5733 17.8678C102.388 17.892 105.121 20.7067 105.192 25.4969C105.214 26.7983 105.261 27.218 103.906 27.218L93.5553 27.1635ZM55.7269 21.3484C58.0866 21.3484 59.6516 23.3964 59.6516 25.6522C59.6516 28.0009 58.1798 29.8895 55.7025 29.8895C53.2252 29.8895 51.7778 27.9827 51.7778 25.6341C51.7778 23.2854 53.2739 21.3484 55.7269 21.3484ZM93.6587 23.9311L101.417 23.9533C101.135 22.0223 99.5235 21.2556 97.6787 21.2556C95.8339 21.2556 94.2324 22.1171 93.6587 23.9311Z" fill="#29303A"/>
</svg>
