<svg width="221" height="48" viewBox="0 0 221 48" fill="none" xmlns="http://www.w3.org/2000/svg">
<path d="M28.5329 27.852C30.7937 27.852 33.0036 27.1815 34.8833 25.9254C36.763 24.6693 38.2279 22.8839 39.0928 20.7951C39.9577 18.7064 40.1837 16.408 39.7423 14.1908C39.3008 11.9736 38.2118 9.93704 36.6128 8.33883C35.0138 6.74062 32.9768 5.6525 30.7593 5.21212C28.5419 4.77173 26.2436 4.99885 24.1553 5.86475C22.0669 6.73065 20.2823 8.19644 19.0271 10.0767C17.7718 11.957 17.1024 14.1673 17.1035 16.428C17.1035 17.9287 17.3992 19.4147 17.9736 20.801C18.5481 22.1874 19.3901 23.447 20.4514 24.5079C21.5128 25.5688 22.7728 26.4102 24.1595 26.9839C25.5461 27.5577 27.0322 27.8527 28.5329 27.852Z" fill="#FFCD00"/>
<path d="M28.6036 33.5641H28.5653C24.7543 33.5632 21.0521 32.293 18.0431 29.9541C15.0342 27.6153 12.8899 24.3409 11.9487 20.648C11.3747 18.3632 9.5163 16.4282 7.16046 16.4282H0C0 24.0042 3.00955 31.2699 8.36658 36.6269C13.7236 41.984 20.9893 44.9935 28.5653 44.9935H28.6036V33.5641Z" fill="#00ECBB"/>
<path d="M28.5322 33.5641H28.565C32.3763 33.5641 36.0789 32.2943 39.0881 29.9553C42.0972 27.6163 44.2413 24.3414 45.1817 20.648C45.7611 18.3632 47.6195 16.4282 49.9753 16.4282H57.1358C57.1343 24.0047 54.1236 31.2704 48.7657 36.6273C43.4078 41.9841 36.1415 44.9935 28.565 44.9935H28.5322V33.5641Z" fill="#AF64FF"/>
<path d="M48.7673 36.6251C46.1148 39.2779 42.9657 41.3823 39.4998 42.8179C36.0339 44.2536 32.3192 44.9926 28.5678 44.9926C24.8163 44.9926 21.1016 44.2536 17.6357 42.8179C14.1699 41.3823 11.0207 39.2779 8.36816 36.6251L16.4469 28.5464C19.6623 31.7597 24.022 33.5648 28.5678 33.5648C33.1135 33.5648 37.4733 31.7597 40.6886 28.5464L48.7673 36.6251Z" fill="#7131FF"/>
<path fill-rule="evenodd" clip-rule="evenodd" d="M199.432 15.8544H202.575V29.2352H199.432V15.8544ZM201.018 13.668C200.487 13.6802 199.973 13.484 199.586 13.1214C199.398 12.9507 199.25 12.7419 199.15 12.5091C199.05 12.2762 199.001 12.0247 199.006 11.7713C199.003 11.5247 199.053 11.2802 199.153 11.0548C199.253 10.8293 199.4 10.6281 199.586 10.465C199.776 10.2839 200.001 10.1424 200.247 10.0486C200.493 9.95483 200.755 9.91055 201.018 9.91836C201.548 9.90906 202.061 10.1049 202.45 10.465C202.635 10.622 202.783 10.8181 202.883 11.0393C202.983 11.2605 203.033 11.5012 203.029 11.744C203.033 12.0053 202.984 12.2646 202.884 12.5062C202.785 12.7477 202.637 12.9664 202.45 13.1488C202.257 13.3243 202.031 13.4592 201.785 13.5456C201.539 13.632 201.278 13.668 201.018 13.6516V13.668ZM194.803 29.4101C194.529 29.4162 194.256 29.3663 194.002 29.2635C193.748 29.1608 193.517 29.0072 193.324 28.8123C193.131 28.6174 192.98 28.3852 192.88 28.1299C192.78 27.8746 192.733 27.6016 192.742 27.3276C192.732 27.0509 192.778 26.775 192.878 26.5167C192.978 26.2583 193.128 26.0228 193.321 25.8244C193.518 25.636 193.751 25.4883 194.005 25.3898C194.259 25.2913 194.53 25.244 194.803 25.2505C195.077 25.2436 195.349 25.2928 195.603 25.395C195.857 25.4971 196.088 25.6502 196.281 25.8447C196.474 26.0391 196.625 26.271 196.725 26.526C196.825 26.781 196.872 27.0537 196.863 27.3276C196.873 27.6018 196.827 27.8752 196.727 28.1308C196.627 28.3865 196.476 28.619 196.283 28.8141C196.09 29.0091 195.859 29.1627 195.605 29.2652C195.35 29.3677 195.077 29.417 194.803 29.4101ZM208.561 28.5355C209.703 29.1095 210.964 29.4085 212.242 29.4085C213.52 29.4085 214.781 29.1095 215.923 28.5355C216.981 27.9778 217.861 27.1353 218.465 26.1032C219.09 25.0227 219.411 23.7931 219.394 22.5448C219.415 21.3048 219.093 20.0832 218.465 19.0138C217.858 17.9783 216.972 17.1352 215.907 16.5814C214.765 16.0074 213.504 15.7085 212.226 15.7085C210.947 15.7085 209.687 16.0074 208.544 16.5814C207.482 17.1399 206.594 17.9818 205.981 19.0138C205.365 20.0872 205.051 21.3074 205.073 22.5448C205.054 23.7905 205.367 25.0188 205.981 26.1032C206.601 27.1354 207.494 27.977 208.561 28.5355ZM215.093 25.5784C214.321 26.3149 213.295 26.7258 212.228 26.7258C211.162 26.7258 210.136 26.3149 209.364 25.5784C208.991 25.1696 208.703 24.6912 208.515 24.1706C208.328 23.65 208.245 23.0975 208.271 22.5448C208.245 21.9921 208.328 21.4396 208.515 20.919C208.703 20.3984 208.991 19.92 209.364 19.5112C210.134 18.771 211.16 18.3575 212.228 18.3575C213.296 18.3575 214.323 18.771 215.093 19.5112C215.475 19.9152 215.772 20.3919 215.966 20.9131C216.161 21.4342 216.248 21.9891 216.224 22.5448C216.248 23.1005 216.161 23.6554 215.966 24.1766C215.772 24.6977 215.475 25.1745 215.093 25.5784ZM126.265 28.5027C125.866 28.8185 125.406 29.0475 124.915 29.1751C124.381 29.3258 123.829 29.4012 123.275 29.3992C122.036 29.4791 120.816 29.0665 119.88 28.2513C119.459 27.8098 119.135 27.2851 118.929 26.7108C118.723 26.1366 118.639 25.5256 118.683 24.9171V13.0066H121.799V16.0403H125.368V18.5328H121.799V24.8569C121.764 25.3965 121.934 25.9293 122.274 26.3491C122.456 26.5231 122.672 26.6571 122.908 26.7428C123.144 26.8284 123.396 26.8638 123.646 26.8466C124.275 26.868 124.891 26.6752 125.396 26.3L126.265 28.5027ZM81.2303 29.3992C79.9387 29.4197 78.6619 29.1212 77.5134 28.5301C76.4491 27.9793 75.5594 27.1426 74.9444 26.1141C74.3202 25.0414 74.0008 23.8186 74.0206 22.5776C73.9985 21.345 74.3183 20.1304 74.9444 19.0684C75.5533 18.0447 76.4328 17.2088 77.486 16.6525C78.6435 16.0589 79.9297 15.7603 81.2303 15.7834C82.4268 15.757 83.6109 16.0314 84.6738 16.5814C85.6465 17.0889 86.4302 17.8957 86.9094 18.8826L84.5317 20.3038C84.1878 19.7122 83.6863 19.2278 83.0832 18.9045C82.5088 18.5899 81.8633 18.428 81.2084 18.4344C80.674 18.4175 80.1418 18.5101 79.6445 18.7066C79.1472 18.9031 78.6954 19.1992 78.3169 19.5768C77.928 19.9723 77.6252 20.4442 77.4277 20.9625C77.2301 21.4808 77.1421 22.0345 77.169 22.5885C77.1391 23.1424 77.2204 23.6967 77.4082 24.2187C77.5959 24.7406 77.8863 25.2197 78.2622 25.6276C78.9005 26.2189 79.7039 26.6015 80.5652 26.7245C81.4265 26.8476 82.3049 26.7052 83.0832 26.3163C83.679 25.9856 84.1783 25.5052 84.5317 24.9225L86.9094 26.3163C86.4043 27.2985 85.6134 28.1046 84.641 28.6285C83.5887 29.1684 82.4182 29.437 81.2357 29.4101L81.2303 29.3992ZM106.92 28.9783C107.954 29.2578 109.02 29.3993 110.091 29.3992C111.955 29.3992 113.43 29.0275 114.507 28.306C115.014 27.9917 115.432 27.5519 115.719 27.0291C116.006 26.5062 116.154 25.9181 116.147 25.3215C116.196 24.5224 115.927 23.7363 115.398 23.1351C114.92 22.6271 114.32 22.2506 113.655 22.0419C112.794 21.7964 111.918 21.6137 111.031 21.4953C110.228 21.3509 109.44 21.1351 108.675 20.8504C108.448 20.7753 108.251 20.6276 108.116 20.4301C107.981 20.2327 107.914 19.9962 107.926 19.7572C107.926 19.5277 107.991 19.3028 108.114 19.1091C108.237 18.9154 108.412 18.761 108.62 18.664C109.273 18.3474 109.995 18.2026 110.719 18.2431C112.061 18.2221 113.384 18.566 114.546 19.2379L115.748 16.8711C115.046 16.4832 114.288 16.2066 113.502 16.0512C112.606 15.8401 111.689 15.7319 110.769 15.7287C109.254 15.652 107.754 16.0515 106.478 16.8711C105.983 17.1997 105.58 17.6483 105.305 18.175C105.031 18.7016 104.895 19.2892 104.909 19.8829C104.859 20.706 105.125 21.5172 105.652 22.1513C106.154 22.6566 106.771 23.0319 107.451 23.2445C108.335 23.4978 109.235 23.6895 110.145 23.8184C110.918 23.918 111.68 24.0919 112.419 24.3377C112.63 24.397 112.816 24.5247 112.946 24.7008C113.077 24.8769 113.145 25.0914 113.141 25.3106C113.141 26.2908 112.21 26.7791 110.348 26.7755C109.503 26.7713 108.664 26.6555 107.85 26.4311C107.091 26.2143 106.369 25.8864 105.707 25.4582L104.51 27.825C105.251 28.3485 106.075 28.7422 106.948 28.9892L106.92 28.9783ZM130.714 28.5301C131.848 29.1015 133.101 29.3991 134.371 29.3991C135.641 29.3991 136.893 29.1015 138.027 28.5301C139.076 27.9745 139.948 27.1379 140.547 26.1141C141.169 25.0403 141.488 23.8182 141.471 22.5776C141.49 21.3454 141.171 20.1315 140.547 19.0684C139.948 18.0447 139.076 17.2081 138.027 16.6525C136.893 16.0811 135.641 15.7834 134.371 15.7834C133.101 15.7834 131.848 16.0811 130.714 16.6525C129.661 17.2114 128.781 18.0466 128.167 19.0684C127.559 20.1369 127.25 21.3488 127.27 22.5776C127.252 23.8149 127.561 25.035 128.167 26.1141C128.786 27.1436 129.677 27.9831 130.741 28.541L130.714 28.5301ZM137.202 25.5894C136.438 26.3258 135.418 26.7373 134.357 26.7373C133.296 26.7373 132.276 26.3258 131.512 25.5894C131.14 25.1846 130.851 24.7099 130.664 24.193C130.476 23.676 130.393 23.127 130.419 22.5776C130.393 22.0283 130.477 21.4794 130.665 20.9626C130.852 20.4457 131.14 19.971 131.512 19.5658C132.278 18.8332 133.297 18.4242 134.357 18.4242C135.417 18.4242 136.436 18.8332 137.202 19.5658C137.581 19.9671 137.876 20.4404 138.068 20.9579C138.261 21.4753 138.347 22.0261 138.323 22.5776C138.353 23.1291 138.272 23.681 138.084 24.2004C137.896 24.7198 137.606 25.1959 137.229 25.6003L137.202 25.5894ZM161.252 15.7834C161.983 15.7455 162.714 15.8563 163.401 16.1091C164.088 16.3618 164.716 16.7512 165.248 17.2537C166.227 18.2157 166.718 19.6642 166.718 21.6265V29.2352H163.597V22.0146C163.684 21.0864 163.432 20.1582 162.887 19.4019C162.607 19.0964 162.263 18.8574 161.879 18.7023C161.495 18.5472 161.081 18.4799 160.668 18.5054C160.196 18.4855 159.727 18.5691 159.291 18.7504C158.856 18.9318 158.465 19.2064 158.148 19.5549C157.459 20.3719 157.112 21.4236 157.18 22.4902V29.2352H154.059V22.0146C154.129 21.0789 153.855 20.1499 153.289 19.4019C153.009 19.0967 152.664 18.8579 152.28 18.7028C151.896 18.5477 151.483 18.4803 151.069 18.5054C150.596 18.4846 150.125 18.565 149.685 18.7413C149.246 18.9176 148.849 19.1856 148.522 19.5276C147.848 20.3619 147.512 21.4196 147.582 22.4902V29.2352H144.461V21.796C144.461 18.0682 147.287 15.7834 150.976 15.7834C152.156 15.7677 153.33 15.9621 154.442 16.3573C155.209 16.7048 155.853 17.2765 156.289 17.9971C156.85 17.2842 157.579 16.721 158.41 16.3573C159.319 15.9607 160.305 15.7685 161.296 15.7943L161.252 15.7834ZM183.346 23.5834C183.379 23.1862 183.395 22.8801 183.395 22.6651C183.423 21.4145 183.123 20.1785 182.526 19.0794C181.979 18.057 181.145 17.2171 180.127 16.6634C179.069 16.0724 177.873 15.7726 176.661 15.7943C175.424 15.7747 174.202 16.074 173.114 16.6634C172.081 17.2327 171.227 18.0788 170.649 19.1067C170.055 20.17 169.754 21.3711 169.774 22.5885C169.753 23.8261 170.062 25.0469 170.67 26.125C171.295 27.1579 172.196 27.995 173.272 28.541C174.354 29.053 175.526 29.3451 176.722 29.4004C177.917 29.4558 179.112 29.2733 180.236 28.8635C181.117 28.5155 181.897 27.9517 182.504 27.2237L180.832 25.3051C180.361 25.7823 179.796 26.1568 179.173 26.4051C178.551 26.6535 177.883 26.7703 177.213 26.7482C176.183 26.7851 175.169 26.4879 174.322 25.9009C173.567 25.339 173.054 24.5101 172.89 23.5834H183.346ZM174.114 19.1778C174.824 18.5766 175.731 18.2576 176.661 18.2813C177.591 18.2522 178.497 18.572 179.203 19.1778C179.888 19.7782 180.324 20.6123 180.427 21.5172H172.868C172.978 20.6096 173.422 19.7756 174.114 19.1778ZM194.103 15.7943V18.7569C193.865 18.7099 193.624 18.6843 193.382 18.6804C192.857 18.6528 192.332 18.7359 191.842 18.9243C191.351 19.1126 190.905 19.402 190.534 19.7736C189.804 20.6111 189.436 21.7042 189.512 22.8126V29.2352H186.391V22.5339C186.391 17.6746 189.512 15.1876 194.103 15.7943ZM95.7152 29.4101C93.9332 29.4101 92.0365 28.9182 91.0089 27.9398C89.9813 26.9613 89.4839 25.4746 89.4839 23.5342V15.931H92.605V23.1133C92.5317 24.0773 92.8157 25.0346 93.403 25.8025C94.0443 26.3623 94.8667 26.6707 95.7179 26.6707C96.5691 26.6707 97.3915 26.3623 98.0327 25.8025C98.6177 25.0334 98.9015 24.077 98.8308 23.1133V15.931H101.952V23.5342C101.952 25.4764 101.444 26.9449 100.427 27.9398C99.3883 28.9182 97.4807 29.4101 95.7042 29.4101H95.7152Z" fill="#2F326A"/>
</svg>
