<svg width="178" height="48" viewBox="0 0 178 48" fill="none" xmlns="http://www.w3.org/2000/svg">
<path d="M74.5918 28.951V21.8439C74.5918 21.6584 74.4674 21.5349 74.2809 21.5349H71.9174V18.7537H74.2809C74.4674 18.7537 74.5918 18.6301 74.5918 18.4447V13.9951H77.9503V18.4447C77.9503 18.6301 78.0748 18.7537 78.2614 18.7537H81.5577V21.5349H78.2614C78.0748 21.5349 77.9503 21.6584 77.9503 21.8439V28.1477C77.9503 31.1142 79.0077 31.3613 80.376 31.3613C80.8735 31.3613 81.6198 31.2995 82.0552 31.2377V34.1423C81.4955 34.2042 80.5626 34.3278 79.5052 34.3278C78.1991 34.266 74.5918 34.266 74.5918 28.951ZM165.894 30.6815L168.631 29.26C169.253 30.6815 170.434 31.6085 171.803 31.6085C172.86 31.6085 174.042 31.1758 174.042 29.878C174.042 29.0128 173.482 28.5184 172.176 28.0859L170.31 27.4679C167.698 26.6644 166.392 25.1812 166.392 23.0799C166.392 20.4224 168.631 18.4447 171.678 18.4447C174.104 18.4447 176.156 19.7426 177.151 21.782L174.415 23.2652C173.793 21.9674 172.798 21.2259 171.616 21.2259C170.434 21.2259 169.626 21.8439 169.626 22.7709C169.626 23.5742 170.248 24.1924 171.492 24.563L173.358 25.1812C176.094 26.0464 177.4 27.5295 177.4 29.569C177.4 32.7828 174.601 34.4515 171.803 34.4515C169.004 34.3897 166.765 32.9682 165.894 30.6815ZM155.57 27.9004C155.508 27.9622 155.445 28.024 155.445 28.0859V34.0188H152.025V12.0791H155.445V24.0687C155.445 24.1924 155.508 24.3159 155.632 24.3159C155.756 24.3777 155.881 24.3159 155.943 24.254L161.478 18.6919H165.645L159.177 25.1812C159.053 25.3047 159.053 25.4284 159.177 25.5519L166.205 34.0188H162.038L156.627 27.3442C156.565 27.2824 156.503 27.2205 156.441 27.2205C156.378 27.2205 156.316 27.2205 156.254 27.2824L155.57 27.9004ZM150.345 20.7932L148.169 22.8327C146.925 21.9057 145.681 21.473 144.312 21.473C141.452 21.473 139.337 23.5742 139.337 26.4172C139.337 29.26 141.452 31.3613 144.312 31.3613C145.556 31.3613 146.862 30.9287 148.231 30.0017L150.159 32.0412C147.36 34.0807 145.867 34.4515 143.939 34.4515C141.638 34.4515 139.586 33.648 138.093 32.1647C136.662 30.7433 135.854 28.642 135.854 26.4172C135.854 21.782 139.275 18.3829 144.002 18.3829C145.556 18.3829 147.858 18.6301 150.345 20.7932ZM134.299 14.1804C134.299 15.2929 133.366 16.2199 132.247 16.2199C131.127 16.2199 130.194 15.2929 130.194 14.1804C130.194 13.0679 131.127 12.1409 132.247 12.1409C133.366 12.1409 134.299 13.0679 134.299 14.1804ZM133.988 34.0188H130.567V18.7537H133.988V34.0188ZM123.104 27.3442V34.0807H119.683V18.8156H123.042V20.6696C123.042 20.7932 123.104 20.9169 123.228 20.9786C123.353 21.0404 123.477 20.9786 123.539 20.855C124.41 19.4336 126.027 18.5066 127.769 18.5066C128.017 18.5066 128.204 18.5066 128.328 18.5684V22.0292C128.142 21.9674 127.831 21.9674 127.52 21.9674C124.783 21.9057 123.104 24.0069 123.104 27.3442ZM104.756 26.4172C104.756 23.636 106.871 21.473 109.608 21.473C112.344 21.473 114.459 23.636 114.459 26.4172C114.459 29.1982 112.344 31.3613 109.608 31.3613C106.871 31.3613 104.756 29.1982 104.756 26.4172ZM105.067 32.2265C105.13 32.2265 105.13 32.2265 105.192 32.2265C105.254 32.2265 105.378 32.2883 105.441 32.3502C106.622 33.7098 108.364 34.4515 110.354 34.4515C114.583 34.4515 117.817 30.9287 117.817 26.4172C117.817 24.1924 117.071 22.2147 115.641 20.6696C114.272 19.1864 112.344 18.3829 110.292 18.3829C108.364 18.3829 106.56 19.1864 105.378 20.6077C105.316 20.6696 105.192 20.7314 105.067 20.6696C104.943 20.6077 104.881 20.5461 104.881 20.4224V12.1409H101.46V34.0807H104.881V32.5355C104.881 32.3502 104.943 32.2883 105.067 32.2265ZM90.8869 31.3613C88.2126 31.3613 86.0357 29.1982 86.0357 26.4172C86.0357 23.636 88.1504 21.473 90.8869 21.473C93.6235 21.473 95.7381 23.636 95.7381 26.4172C95.7381 29.1982 93.5613 31.3613 90.8869 31.3613ZM98.9101 34.0188V18.7537H95.5516V20.2987C95.5516 20.4224 95.4893 20.546 95.365 20.546C95.2406 20.6077 95.1163 20.546 95.054 20.4842C93.9346 19.1246 92.193 18.3829 90.1406 18.3829C85.9114 18.3829 82.6772 21.9057 82.6772 26.4172C82.6772 30.9287 85.9735 34.4515 90.1406 34.4515C92.0686 34.4515 93.8723 33.648 95.054 32.2265C95.1163 32.103 95.2406 32.103 95.365 32.1647C95.4893 32.2265 95.5516 32.2883 95.5516 32.412V34.0807H98.9101V34.0188ZM62.0906 31.3613C59.4162 31.3613 57.2394 29.1982 57.2394 26.4172C57.2394 23.636 59.354 21.473 62.0906 21.473C64.765 21.473 66.9419 23.636 66.9419 26.4172C66.9419 29.1982 64.765 31.3613 62.0906 31.3613ZM70.1139 34.0188V18.7537H66.7553V20.2987C66.7553 20.4224 66.6931 20.546 66.5686 20.546C66.4443 20.6077 66.3199 20.546 66.2577 20.4842C65.1382 19.1246 63.3966 18.3829 61.3443 18.3829C57.115 18.3829 53.8808 21.9057 53.8808 26.4172C53.8808 30.9287 57.1773 34.4515 61.3443 34.4515C63.2723 34.4515 65.076 33.648 66.2577 32.2265C66.3199 32.103 66.4443 32.103 66.5686 32.1647C66.6931 32.2265 66.7553 32.2883 66.7553 32.412V34.0807H70.1139V34.0188ZM43.9297 31.3613C41.1931 31.3613 39.0784 29.1982 39.0784 26.4172C39.0784 23.636 41.1931 21.473 43.9297 21.473C46.604 21.473 48.7809 23.636 48.7809 26.4172C48.7809 29.1982 46.604 31.3613 43.9297 31.3613ZM51.9528 34.0188V12.1409H48.5321V20.3606C48.5321 20.4842 48.4699 20.6077 48.3455 20.6077C48.2211 20.6696 48.0967 20.6077 48.0345 20.546C46.8528 19.1864 45.1114 18.4447 43.1211 18.4447C38.8919 18.4447 35.6577 21.9674 35.6577 26.479C35.6577 28.7039 36.4041 30.6815 37.8345 32.2265C39.2028 33.7098 41.1309 34.5132 43.1833 34.5132C45.1114 34.5132 46.915 33.7098 48.0967 32.2883C48.1589 32.2265 48.2833 32.1647 48.4077 32.2265C48.5321 32.2883 48.5943 32.3502 48.5943 32.4738V34.0807H51.9528V34.0188Z" fill="black"/>
<path d="M26.9993 20.7622L14.2282 28.0056L0.64284 20.288L0 20.6328V26.2379L14.2282 34.3436L26.9993 27.1002V30.0751L14.2282 37.3186L0.64284 29.6008L0 29.9458V30.8944L14.2282 39L28.4993 30.8944V25.2893L27.8565 24.9443L14.2282 32.6621L1.49992 25.4186V22.4868L14.2282 29.6871L28.4993 21.5814V16.0626L27.7707 15.6746L14.2282 23.3491L2.18559 16.4937L14.2282 9.6815L24.1708 15.2865L25.0708 14.8122V14.1224L14.2282 8L0 16.0626V16.9249L14.2282 25.0306L26.9993 17.7872V20.7622Z" fill="#FF3621"/>
</svg>
