<svg width="145" height="48" viewBox="0 0 145 48" fill="none" xmlns="http://www.w3.org/2000/svg">
<path fill-rule="evenodd" clip-rule="evenodd" d="M0 38.9361C0 40.7945 1.20602 41.9998 3.06513 41.9998L12.0207 42C17.3632 42 21.7335 40.1931 24.7047 37.0299H0V38.9361ZM12.0207 8.00017L3.06513 8C1.20602 8 0 9.20546 0 11.0639V12.9701H24.7047C21.7335 9.80692 17.3632 8.00017 12.0207 8.00017ZM19.8363 29.8446C19.8363 31.348 20.8161 32.3235 22.3267 32.3235H27.693C28.3013 30.8146 28.71 29.1557 28.9 27.3656H22.3267C20.8161 27.3656 19.8363 28.3409 19.8363 29.8446ZM12.3981 20.1677C12.3981 21.6713 13.3779 22.6466 14.8885 22.6466H28.9C28.71 20.8565 28.3013 19.1977 27.693 17.6888H14.8885C13.3779 17.6888 12.3981 18.664 12.3981 20.1677ZM14.8868 29.8446C14.8868 28.3409 13.907 27.3656 12.3964 27.3656H0V32.3235H12.3964C13.907 32.3235 14.8868 31.3482 14.8868 29.8446ZM7.4487 20.1677C7.4487 18.664 6.46888 17.6888 4.95826 17.6888H0V22.6466H4.95826C6.46888 22.6466 7.4487 21.6713 7.4487 20.1677Z" fill="#0062FF"/>
<path fill-rule="evenodd" clip-rule="evenodd" d="M63.0228 24.4883C63.4219 22.548 64.7109 21.5615 66.4052 21.5615C68.0849 21.5615 69.3132 22.5923 69.705 24.4883H63.0228ZM66.4973 18.2002C62.1833 18.2002 59.5 21.6543 59.5 25.8792C59.5 30.2548 62.3673 33.5002 66.6289 33.5002C69.568 33.5002 71.3508 32.1382 72.4542 30.423L69.7106 28.6666C69.0208 29.6109 67.9171 30.1098 66.7341 30.1098C64.7989 30.1098 63.503 29.2018 63.0613 27.386H70.3028C70.3022 27.3883 70.3017 27.3907 70.301 27.3932L72.9409 27.4087C73.041 26.9309 73.1 26.4372 73.1 25.8792C73.1 22.1991 70.8377 18.2002 66.4973 18.2002Z" fill="#0062FF"/>
<path fill-rule="evenodd" clip-rule="evenodd" d="M48.4498 30.1001C45.7955 30.1001 44.1998 28.1972 44.1998 25.85C44.1998 23.5028 45.8261 21.6001 48.4498 21.6001C51.0736 21.6001 52.6998 23.5028 52.6998 25.85C52.6998 28.1972 51.1041 30.1001 48.4498 30.1001ZM52.4106 20.4465C51.3507 19.1735 49.8458 18.3931 47.9779 18.3931C43.8026 18.3931 40.7998 21.7751 40.7998 25.9466C40.7998 30.1183 43.7741 33.5001 47.9779 33.5001C49.8458 33.5001 51.3507 32.7198 52.4106 31.4468V33.1281H56.0998V13.1001H52.4106V20.4465Z" fill="#0062FF"/>
<path fill-rule="evenodd" clip-rule="evenodd" d="M84.3817 25.5993C85.3833 26.2989 86.0181 27.3481 86.0181 28.7325C86.0181 31.5305 84.1321 33.4718 80.606 33.4718C77.2877 33.4718 75.5083 31.7715 74.7998 30.0543L77.8455 28.2758C77.8455 28.2758 78.2555 30.1315 80.5514 30.1315C81.9727 30.1315 82.4101 29.5034 82.4101 28.9486C82.4101 28.6916 82.328 28.2187 81.3168 27.8189C79.2855 27.0162 75.3581 26.6561 75.3581 22.994C75.3581 19.9965 77.7078 18.3977 80.606 18.3977C83.3161 18.3977 85.057 20.084 85.7179 21.396L82.7381 23.1368C82.7381 23.1368 82.1641 21.6807 80.6334 21.6807C79.1028 21.6807 78.9661 22.5659 78.9661 22.8228C78.9661 23.5722 79.7301 23.8799 81.3714 24.3646C82.3432 24.6515 83.3413 24.912 84.3848 25.5966C84.3838 25.5975 84.3827 25.5984 84.3817 25.5993ZM144.5 22.3374H141.411V28.2757C141.411 30.1316 143.215 29.7318 144.5 29.7318V33.0721C144.5 33.0721 143.823 33.1863 142.641 33.1863C140.017 33.1863 137.885 32.387 137.885 28.2757V22.3374H135.507V18.7972H137.885V14.8003H141.411V18.7972H144.5V22.3374ZM94.7837 29.8745C96.2469 29.8745 97.3719 29.1455 97.9405 27.9496L100.997 29.7801C99.7994 31.9739 97.5679 33.5003 94.7837 33.5003C90.5609 33.5003 87.6088 30.1258 87.6088 25.9633C87.6088 21.8006 90.5882 18.4262 94.7837 18.4262C97.5271 18.4262 99.7502 19.9276 100.961 22.0923L97.911 23.9646C97.3314 22.7843 96.2153 22.0519 94.7837 22.0519C92.65 22.0519 91.1349 23.8031 91.1349 25.9633C91.1349 28.1234 92.6361 29.8745 94.7837 29.8745Z" fill="#0062FF"/>
<path fill-rule="evenodd" clip-rule="evenodd" d="M127.197 29.8354C124.9 29.8354 123.519 28.0447 123.519 25.8359C123.519 23.6271 124.926 21.8366 127.197 21.8366C129.467 21.8366 130.874 23.6271 130.874 25.8359C130.874 28.0447 129.494 29.8354 127.197 29.8354ZM127.635 18.3475C131.512 18.3475 134.3 21.7003 134.3 25.8359C134.3 29.9716 131.538 33.3243 127.635 33.3243C125.901 33.3243 124.503 32.5506 123.519 31.2886V38.6001H120.094V18.7448H123.519V20.3832C124.503 19.1211 125.901 18.3475 127.635 18.3475ZM113.509 32.9554V18.773H116.934V32.9554H113.509ZM107.125 21.1956C107.786 19.477 109.133 18.494 111.161 18.4896V22.5741C108.783 22.3338 107.065 23.5968 107.128 26.5805C107.127 26.5784 107.126 26.5761 107.125 26.5738V32.9554H103.7V18.7732H107.125V21.1956ZM113.509 16.8803V13.1001H117.047V16.8803H113.509Z" fill="#0062FF"/>
</svg>
