<svg width="171" height="48" viewBox="0 0 171 48" fill="none" xmlns="http://www.w3.org/2000/svg">
<path d="M36.1119 10.8223C33.3524 9.53122 30.4018 8.59289 27.317 8.05859C26.9381 8.74354 26.4955 9.66481 26.1903 10.3977C22.9111 9.90452 19.6621 9.90452 16.4431 10.3977C16.138 9.66481 15.6854 8.74354 15.3031 8.05859C12.215 8.59289 9.261 9.53467 6.50146 10.8292C0.935455 19.2401 -0.573397 27.4422 0.181031 35.5278C3.8727 38.2846 7.45037 39.9593 10.9677 41.0552C11.8361 39.86 12.6106 38.5894 13.2779 37.2504C12.0071 36.7675 10.79 36.1716 9.63991 35.4799C9.94501 35.2538 10.2434 35.0175 10.5318 34.7743C17.5463 38.0552 25.1677 38.0552 32.0984 34.7743C32.3901 35.0175 32.6885 35.2538 32.9902 35.4799C31.8368 36.175 30.6163 36.7709 29.3456 37.2538C30.0128 38.5894 30.784 39.8634 31.6558 41.0586C35.1764 39.9627 38.7574 38.2881 42.4491 35.5278C43.3343 26.1545 40.9369 18.0278 36.1119 10.8223ZM14.2335 30.5552C12.1278 30.5552 10.401 28.5894 10.401 26.1956C10.401 23.8018 12.091 21.8326 14.2335 21.8326C16.3761 21.8326 18.1029 23.7983 18.066 26.1956C18.0693 28.5894 16.3761 30.5552 14.2335 30.5552ZM28.3966 30.5552C26.291 30.5552 24.5641 28.5894 24.5641 26.1956C24.5641 23.8018 26.254 21.8326 28.3966 21.8326C30.5392 21.8326 32.266 23.7983 32.2291 26.1956C32.2291 28.5894 30.5392 30.5552 28.3966 30.5552Z" fill="#23272A"/>
<path d="M57.2857 16.4772H66.4392C68.6458 16.4772 70.51 16.8299 72.0393 17.532C73.5645 18.234 74.7081 19.2134 75.466 20.4669C76.2234 21.7203 76.6056 23.1552 76.6056 24.7717C76.6056 26.3538 76.21 27.7888 75.4187 29.073C74.6275 30.3607 73.4237 31.3778 71.8044 32.1278C70.1851 32.8778 68.1795 33.2545 65.7824 33.2545H57.2857V16.4772ZM65.6883 28.9908C67.1738 28.9908 68.3174 28.6107 69.1151 27.8538C69.9133 27.0936 70.3124 26.0593 70.3124 24.7477C70.3124 23.5319 69.9566 22.5627 69.246 21.8367C68.5354 21.1107 67.4589 20.7443 66.0202 20.7443H63.1568V28.9908H65.6883Z" fill="#23272A"/>
<path d="M90.3096 33.2341C89.0421 32.8985 87.8985 32.4121 86.8828 31.7717V27.7923C87.6507 28.3984 88.6798 28.8985 89.9706 29.2923C91.2615 29.6827 92.5092 29.8779 93.7159 29.8779C94.2792 29.8779 94.7053 29.8026 94.9934 29.6518C95.282 29.5012 95.4264 29.3197 95.4264 29.1108C95.4264 28.8711 95.3492 28.6724 95.1915 28.5114C95.0337 28.3505 94.7286 28.2169 94.2763 28.1039L91.4596 27.4566C89.8468 27.0731 88.7031 26.5423 88.0229 25.8608C87.3421 25.1827 87.0032 24.2922 87.0032 23.1895C87.0032 22.2614 87.2983 21.4567 87.8955 20.7683C88.4887 20.08 89.3337 19.5491 90.43 19.1758C91.5268 18.7991 92.8072 18.6108 94.2793 18.6108C95.5935 18.6108 96.7973 18.7546 97.8942 19.0423C98.9905 19.33 99.8957 19.6964 100.617 20.145V23.9087C99.8787 23.4601 99.0337 23.1074 98.0683 22.8402C97.1059 22.5765 96.1171 22.4464 95.0974 22.4464C93.6253 22.4464 92.8914 22.7032 92.8914 23.2135C92.8914 23.4533 93.0053 23.6313 93.2332 23.7512C93.4611 23.871 93.8801 23.9943 94.4873 24.1245L96.8341 24.556C98.3669 24.8265 99.51 25.3026 100.261 25.9806C101.012 26.6587 101.388 27.6622 101.388 28.9909C101.388 30.4464 100.768 31.6005 99.5234 32.4567C98.2793 33.3128 96.5157 33.7409 94.229 33.7409C92.8843 33.7375 91.5771 33.5697 90.3096 33.2341Z" fill="#23272A"/>
<path d="M106.928 32.7305C105.584 32.0592 104.568 31.1483 103.89 29.9976C103.213 28.8469 102.871 27.5524 102.871 26.114C102.871 24.6757 103.223 23.388 103.927 22.2544C104.631 21.1209 105.664 20.2305 107.025 19.5832C108.386 18.9359 110.013 18.614 111.907 18.614C114.254 18.614 116.202 19.1175 117.752 20.1243V24.5113C117.205 24.1277 116.568 23.8161 115.84 23.5763C115.113 23.3366 114.335 23.2167 113.503 23.2167C112.048 23.2167 110.912 23.4873 110.09 24.0318C109.268 24.5763 108.856 25.2852 108.856 26.1654C108.856 27.0284 109.255 27.7339 110.053 28.2887C110.851 28.84 112.008 29.1175 113.527 29.1175C114.308 29.1175 115.079 29.001 115.84 28.7716C116.598 28.5387 117.252 28.2544 117.798 27.9188V32.1619C116.079 33.2167 114.083 33.7441 111.813 33.7441C109.902 33.7373 108.272 33.4017 106.928 32.7305Z" fill="#23272A"/>
<path d="M123.606 32.7307C122.251 32.0595 121.219 31.1417 120.507 29.9739C119.797 28.806 119.438 27.5047 119.438 26.0663C119.438 24.628 119.793 23.3437 120.507 22.217C121.221 21.0903 122.248 20.2067 123.596 19.5663C124.94 18.9259 126.546 18.6074 128.407 18.6074C130.268 18.6074 131.874 18.9259 133.219 19.5663C134.563 20.2067 135.59 21.0835 136.294 22.2033C136.998 23.3232 137.35 24.6074 137.35 26.0629C137.35 27.5013 136.998 28.8027 136.294 29.9704C135.59 31.1382 134.56 32.056 133.205 32.7273C131.851 33.3985 130.251 33.7341 128.404 33.7341C126.556 33.7341 124.957 33.4019 123.606 32.7307ZM130.737 28.4773C131.308 27.8951 131.596 27.1246 131.596 26.1657C131.596 25.2068 131.311 24.443 130.737 23.878C130.168 23.3095 129.389 23.0252 128.404 23.0252C127.401 23.0252 126.616 23.3095 126.043 23.878C125.473 24.4465 125.188 25.2068 125.188 26.1657C125.188 27.1246 125.473 27.8951 126.043 28.4773C126.614 29.0595 127.401 29.354 128.404 29.354C129.389 29.3506 130.168 29.0595 130.737 28.4773Z" fill="#23272A"/>
<path d="M151.452 19.4978V24.6759C150.856 24.2752 150.084 24.0766 149.129 24.0766C147.878 24.0766 146.912 24.4636 146.241 25.2375C145.568 26.0115 145.232 27.217 145.232 28.8471V33.2581H139.482V19.2341H145.115V23.693C145.427 22.0629 145.933 20.8609 146.631 20.0834C147.325 19.3095 148.223 18.9225 149.316 18.9225C150.144 18.9225 150.856 19.1143 151.452 19.4978Z" fill="#23272A"/>
<path d="M170.558 15.9977V33.2579H164.807V30.1176C164.321 31.2991 163.584 32.1997 162.591 32.8161C161.598 33.4292 160.371 33.7374 158.916 33.7374C157.615 33.7374 156.482 33.4155 155.513 32.7682C154.544 32.121 153.797 31.234 153.27 30.1073C152.747 28.9805 152.482 27.7066 152.482 26.282C152.465 24.8128 152.743 23.4943 153.317 22.3264C153.887 21.1586 154.695 20.2477 155.734 19.5936C156.774 18.9395 157.961 18.6107 159.292 18.6107C162.032 18.6107 163.869 19.8264 164.807 22.2545V15.9977H170.558ZM163.949 28.3813C164.536 27.7991 164.828 27.0422 164.828 26.1176C164.828 25.2237 164.543 24.4942 163.973 23.936C163.402 23.3778 162.621 23.097 161.639 23.097C160.67 23.097 159.896 23.3812 159.315 23.9497C158.735 24.5183 158.447 25.2545 158.447 26.1655C158.447 27.0765 158.735 27.8196 159.315 28.3949C159.896 28.9703 160.66 29.2579 161.615 29.2579C162.584 29.2546 163.362 28.9634 163.949 28.3813Z" fill="#23272A"/>
<path d="M81.4514 20.7269C83.0345 20.7269 84.3184 19.5494 84.3184 18.0968C84.3184 16.6442 83.0345 15.4667 81.4514 15.4667C79.8678 15.4667 78.5845 16.6442 78.5845 18.0968C78.5845 19.5494 79.8678 20.7269 81.4514 20.7269Z" fill="#23272A"/>
<path d="M78.582 22.5388C80.3386 23.3127 82.5183 23.347 84.3153 22.5388V33.3333H78.582V22.5388Z" fill="#23272A"/>
</svg>
