<svg width="140" height="48" viewBox="0 0 140 48" fill="none" xmlns="http://www.w3.org/2000/svg">
<path d="M65.7353 13.6118C64.9897 13.5885 64.3839 14.171 64.3606 14.8933C64.3606 14.9166 64.3606 14.9632 64.3606 14.9865V21.604C61.1683 19.0409 56.4848 19.5535 53.9217 22.7457C52.8732 24.0739 52.2907 25.705 52.2907 27.4059C52.2207 31.5069 55.4829 34.8855 59.5839 34.9555C63.6848 35.0254 67.0635 31.7632 67.1334 27.6622C67.1334 27.569 67.1334 27.4991 67.1334 27.4059V14.9865C67.1334 14.6137 66.9936 14.2642 66.7373 14.0079C66.4576 13.7516 66.1081 13.6118 65.7353 13.6118ZM63.9877 29.2001C63.5217 30.3186 62.6363 31.204 61.5178 31.6933C60.3528 32.1826 59.0479 32.1826 57.8829 31.6933C56.7644 31.2273 55.9023 30.3186 55.4363 29.2234C54.947 28.0817 54.947 26.7768 55.4363 25.6118C55.9023 24.4933 56.7877 23.6079 57.8829 23.1419C59.0479 22.6525 60.3528 22.6525 61.5178 23.1419C62.6363 23.6312 63.5217 24.5166 63.9877 25.6351C64.4771 26.7535 64.4771 28.0584 63.9877 29.2001Z" fill="#0091E2"/>
<path d="M81.2304 22.1632C78.3411 19.2739 73.6343 19.2739 70.745 22.1632C69.3469 23.5613 68.578 25.4486 68.578 27.4059C68.5081 31.5069 71.7702 34.8855 75.8712 34.9554C79.9722 35.0253 83.3508 31.7632 83.4207 27.6622C83.4207 27.569 83.4207 27.4991 83.4207 27.4059C83.4207 26.4273 83.2343 25.4719 82.8615 24.5632C82.4887 23.6545 81.9295 22.8389 81.2304 22.1632ZM80.2751 29.1768C80.0421 29.736 79.6926 30.2253 79.2731 30.6448C78.8537 31.0642 78.3411 31.4137 77.8052 31.6467C76.6401 32.136 75.3353 32.136 74.1702 31.6467C73.0518 31.1807 72.1664 30.2719 71.7003 29.1768C71.211 28.035 71.211 26.7302 71.7003 25.5651C72.1664 24.4467 73.0518 23.5846 74.1702 23.0952C75.3353 22.6059 76.6401 22.6059 77.8052 23.0952C78.3644 23.3283 78.8537 23.6778 79.2731 24.0972C79.6926 24.5166 80.0421 25.0292 80.2751 25.5651C80.7644 26.7535 80.7644 28.0583 80.2751 29.1768Z" fill="#0091E2"/>
<path d="M111.918 21.3477C111.918 21.1613 111.871 20.9749 111.801 20.8118C111.731 20.6487 111.615 20.5089 111.498 20.3691C111.382 20.2526 111.219 20.1361 111.056 20.0662C110.892 19.9963 110.706 19.9497 110.52 19.9497C110.263 19.9497 110.007 20.0196 109.774 20.1594L101.852 25.3089V15.0099C101.852 14.6371 101.712 14.2875 101.456 14.0312C101.199 13.7749 100.85 13.6118 100.477 13.6118C99.708 13.6118 99.1022 14.2176 99.0789 14.9866C99.0789 14.9866 99.0789 14.9866 99.0789 15.0099V33.4176C99.0789 33.7905 99.2187 34.14 99.475 34.3963C99.7313 34.6759 100.081 34.8157 100.454 34.8157C100.826 34.8157 101.176 34.6759 101.432 34.3963C101.689 34.14 101.852 33.7905 101.828 33.4176V28.6409L103.436 27.5924L109.564 34.4662C109.821 34.6992 110.147 34.839 110.496 34.8157C110.683 34.8157 110.869 34.7924 111.032 34.6992C111.195 34.6293 111.335 34.5361 111.475 34.3963C111.591 34.2565 111.708 34.1167 111.778 33.9536C111.848 33.7905 111.894 33.6041 111.894 33.4176C111.894 33.0681 111.755 32.7186 111.522 32.4623L105.836 26.0545L111.382 22.4429C111.755 22.2099 111.941 21.7905 111.918 21.3477Z" fill="#0091E2"/>
<path d="M88.9197 24.0972C89.3391 23.6777 89.8517 23.3282 90.4109 23.0952C90.9935 22.8622 91.5993 22.7224 92.2284 22.7224C92.7877 22.7224 93.3236 22.8156 93.8362 23.002C94.3488 23.2117 94.8381 23.4913 95.2576 23.8641C95.5139 24.0739 95.8401 24.1671 96.1663 24.1671C96.5391 24.1904 96.9119 24.0506 97.1682 23.7709C97.4245 23.5146 97.5643 23.1418 97.5643 22.769C97.5643 22.3729 97.4012 21.9768 97.075 21.7205C95.7469 20.5321 94.0226 19.8797 92.2284 19.9263C88.1275 19.9263 84.7954 23.2583 84.7954 27.3593C84.7954 31.4603 88.1042 34.769 92.1818 34.7923C93.976 34.7923 95.7003 34.1632 97.0517 32.9981C97.3313 32.7418 97.4944 32.369 97.4944 31.9729C97.5177 31.2273 96.9352 30.6214 96.2129 30.5981C96.1896 30.5981 96.143 30.5981 96.1197 30.5981C95.7935 30.5981 95.4906 30.6913 95.2343 30.8777C94.8148 31.2506 94.3488 31.5302 93.8362 31.7399C93.3236 31.9263 92.7643 32.0195 92.2284 32.0195C91.5993 32.0195 90.9935 31.903 90.4109 31.6467C89.8517 31.4137 89.3624 31.0641 88.9197 30.6447C87.1022 28.8273 87.1022 25.8913 88.8964 24.0739C88.9197 24.1205 88.9197 24.1205 88.9197 24.0972Z" fill="#0091E2"/>
<path d="M139.436 20.905C139.157 20.6486 138.854 20.4622 138.504 20.3457C138.108 20.2059 137.689 20.1127 137.269 20.0661C136.85 20.0195 136.431 19.9962 136.011 19.9962C135.172 19.9962 134.31 20.136 133.518 20.4389C132.726 20.7185 132.003 21.138 131.351 21.6506V21.371C131.328 20.602 130.675 20.0195 129.906 20.0428C129.184 20.0661 128.601 20.6486 128.578 21.371V33.4642C128.601 34.2331 129.254 34.8156 130.023 34.7923C130.745 34.769 131.328 34.1865 131.351 33.4642V27.4292C131.351 26.8001 131.467 26.1943 131.724 25.6118C131.957 25.0525 132.283 24.5632 132.726 24.1438C133.145 23.7244 133.658 23.3749 134.194 23.1418C134.776 22.9088 135.382 22.769 136.011 22.769C136.64 22.769 137.246 22.8855 137.829 23.0952C138.015 23.1885 138.201 23.235 138.411 23.235C138.598 23.235 138.784 23.2117 138.947 23.1185C139.11 23.0486 139.25 22.9554 139.39 22.8156C139.506 22.6991 139.623 22.536 139.693 22.3729C139.763 22.2098 139.809 22.0234 139.809 21.837C139.832 21.4875 139.693 21.1613 139.436 20.905Z" fill="#0091E2"/>
<path d="M126.574 24.5632C125.386 21.8137 122.683 20.0195 119.7 19.9962C115.599 19.9962 112.291 23.305 112.267 27.4059C112.267 31.5069 115.599 34.8389 119.7 34.8389C121.471 34.8389 123.195 34.2098 124.547 33.0448C124.57 33.0215 124.594 32.9982 124.594 32.9982C124.71 32.905 124.827 32.7885 124.896 32.6486C125.339 31.9962 125.176 31.1341 124.547 30.6914C124.011 30.3418 123.312 30.4118 122.846 30.8545C122.799 30.9011 122.66 31.0176 122.66 31.0409L122.636 31.0642C122.24 31.3904 121.797 31.67 121.308 31.8331C120.795 32.0195 120.26 32.1127 119.7 32.0894C119.188 32.0894 118.698 32.0195 118.209 31.8564C117.743 31.6933 117.3 31.4836 116.904 31.1807C116.508 30.9011 116.159 30.5516 115.879 30.1554C115.576 29.7593 115.366 29.2933 115.227 28.8273H125.712C126.085 28.8273 126.434 28.6875 126.691 28.4312C126.97 28.1749 127.11 27.8253 127.087 27.4525C127.11 26.4506 126.924 25.4719 126.574 24.5632ZM115.227 26.0545C115.366 25.5651 115.576 25.1224 115.879 24.7263C116.159 24.3302 116.508 23.9807 116.904 23.7011C117.3 23.4215 117.743 23.1884 118.209 23.0253C118.675 22.8622 119.188 22.7923 119.677 22.7923C120.166 22.7923 120.679 22.8622 121.145 23.0253C122.077 23.3283 122.893 23.9341 123.475 24.7263C123.778 25.1224 123.988 25.5884 124.151 26.0545H115.227Z" fill="#0091E2"/>
<path d="M134.706 32.8118C134.17 32.8118 133.751 33.2545 133.751 33.7904C133.751 34.3263 134.193 34.7458 134.729 34.7458C135.265 34.7458 135.685 34.303 135.685 33.7904C135.685 33.2312 135.242 32.8118 134.706 32.8118ZM134.706 34.536C134.287 34.5593 133.937 34.2331 133.914 33.8137C133.891 33.3943 134.217 33.0448 134.636 33.0215C135.056 32.9982 135.405 33.3244 135.428 33.7438C135.428 33.7671 135.428 33.7671 135.428 33.7904C135.452 34.1865 135.125 34.536 134.729 34.536C134.729 34.536 134.729 34.536 134.706 34.536Z" fill="#0091E2"/>
<path d="M134.939 33.7903C135.056 33.767 135.125 33.6738 135.125 33.5573C135.125 33.4641 135.102 33.3942 135.032 33.3476C134.939 33.301 134.823 33.2777 134.706 33.2777C134.59 33.2777 134.45 33.2777 134.333 33.301V34.2564H134.543V33.8835H134.636C134.753 33.8835 134.823 33.9301 134.846 34.0233C134.869 34.0932 134.892 34.1865 134.916 34.2564H135.149C135.102 34.1865 135.079 34.0932 135.079 34.0233C135.102 33.9301 135.032 33.8369 134.939 33.7903ZM134.659 33.7204H134.543V33.4408C134.59 33.4408 134.636 33.4408 134.659 33.4408C134.799 33.4408 134.869 33.5107 134.869 33.5806C134.892 33.6738 134.776 33.7437 134.659 33.7204Z" fill="#0091E2"/>
<path d="M49.7506 16.7341C49.6108 16.6176 48.3526 15.6623 45.6497 15.6623C44.9506 15.6623 44.2283 15.7322 43.5293 15.8487C43.0166 12.2836 40.0574 10.5594 39.9409 10.4662L39.2186 10.0468L38.7526 10.7225C38.17 11.6312 37.7273 12.6565 37.471 13.705C36.9817 15.7322 37.2846 17.6429 38.3098 19.2739C37.0749 19.973 35.071 20.1361 34.6516 20.1594H1.56421C0.702071 20.1594 0.00304118 20.8584 0.00304118 21.7205C-0.0435608 24.6099 0.44576 27.4992 1.4477 30.2254C2.58945 33.2079 4.29042 35.4215 6.48071 36.773C8.95062 38.2875 12.9817 39.1497 17.5254 39.1497C19.5759 39.1497 21.6263 38.9633 23.6535 38.5904C26.473 38.0778 29.1759 37.0992 31.6691 35.6778C33.7196 34.4895 35.5603 32.9749 37.1215 31.204C39.7545 28.2448 41.3157 24.9361 42.4574 22.0001C42.6205 22.0001 42.7603 22.0001 42.9234 22.0001C45.7895 22.0001 47.5603 20.8584 48.539 19.8798C49.1914 19.2739 49.6807 18.5283 50.0302 17.6895L50.2399 17.0836L49.7506 16.7341Z" fill="#0091E2"/>
<path d="M4.64001 19.2041H9.0672C9.27691 19.2041 9.46331 19.041 9.46331 18.808V14.8468C9.46331 14.6371 9.30021 14.4507 9.0672 14.4507H4.64001C4.4303 14.4507 4.2439 14.6138 4.2439 14.8468V18.808C4.2672 19.041 4.4303 19.2041 4.64001 19.2041Z" fill="#0091E2"/>
<path d="M10.745 19.2041H15.1722C15.3819 19.2041 15.5683 19.041 15.5683 18.808V14.8468C15.5683 14.6371 15.4052 14.4507 15.1722 14.4507H10.745C10.5353 14.4507 10.3489 14.6138 10.3489 14.8468V18.808C10.3722 19.041 10.5353 19.2041 10.745 19.2041Z" fill="#0091E2"/>
<path d="M16.9664 19.2041H21.3936C21.6033 19.2041 21.7897 19.041 21.7897 18.808V14.8468C21.7897 14.6371 21.6266 14.4507 21.3936 14.4507H16.9664C16.7567 14.4507 16.5703 14.6138 16.5703 14.8468V18.808C16.5703 19.041 16.7334 19.2041 16.9664 19.2041Z" fill="#0091E2"/>
<path d="M23.0944 19.2041H27.5215C27.7312 19.2041 27.9177 19.041 27.9177 18.808V14.8468C27.9177 14.6371 27.7545 14.4507 27.5215 14.4507H23.0944C22.8846 14.4507 22.6982 14.6138 22.6982 14.8468V18.808C22.6982 19.041 22.8846 19.2041 23.0944 19.2041Z" fill="#0091E2"/>
<path d="M10.745 13.5419H15.1722C15.3819 13.5419 15.5683 13.3554 15.5683 13.1457V9.18457C15.5683 8.97486 15.4052 8.78845 15.1722 8.78845H10.745C10.5353 8.78845 10.3489 8.95156 10.3489 9.18457V13.1457C10.3722 13.3554 10.5353 13.5419 10.745 13.5419Z" fill="#0091E2"/>
<path d="M16.9664 13.5419H21.3936C21.6033 13.5419 21.7897 13.3554 21.7897 13.1457V9.18457C21.7897 8.97486 21.6266 8.78845 21.3936 8.78845H16.9664C16.7567 8.78845 16.5703 8.95156 16.5703 9.18457V13.1457C16.5703 13.3554 16.7334 13.5419 16.9664 13.5419Z" fill="#0091E2"/>
<path d="M23.0944 13.5419H27.5215C27.7312 13.5419 27.9177 13.3554 27.9177 13.1457V9.18457C27.9177 8.97486 27.7312 8.78845 27.5215 8.78845H23.0944C22.8846 8.78845 22.6982 8.95156 22.6982 9.18457V13.1457C22.6982 13.3554 22.8846 13.5419 23.0944 13.5419Z" fill="#0091E2"/>
<path d="M23.0944 7.85642H27.5215C27.7312 7.85642 27.9177 7.69332 27.9177 7.46031V3.49915C27.9177 3.28944 27.7312 3.10303 27.5215 3.10303H23.0944C22.8846 3.10303 22.6982 3.26614 22.6982 3.49915V7.46031C22.6982 7.67002 22.8846 7.85642 23.0944 7.85642Z" fill="#0091E2"/>
<path d="M29.2692 19.2041H33.6964C33.9061 19.2041 34.0925 19.041 34.0925 18.808V14.8468C34.0925 14.6371 33.9294 14.4507 33.6964 14.4507H29.2692C29.0595 14.4507 28.873 14.6138 28.873 14.8468V18.808C28.8963 19.041 29.0595 19.2041 29.2692 19.2041Z" fill="#0091E2"/>
</svg>
