<svg width="125" height="48" viewBox="0 0 125 48" fill="none" xmlns="http://www.w3.org/2000/svg">
<path d="M0.466797 12.3829H9.46683C15.2115 12.3829 18.8498 16.9787 18.8498 23.2979C18.8498 26.7447 17.7008 29.8085 15.4029 31.7234C13.8711 33.0638 11.7646 33.8298 9.08381 33.8298H0.466797V12.3829ZM8.79658 30.0958C12.9136 30.0958 14.4455 27.6064 14.4455 23.3936C14.4455 19.1809 12.6264 16.2127 8.89233 16.2127H4.77531V30.1915H8.79658V30.0958ZM19.52 26.1703C19.52 21.5745 22.7753 18.0319 27.5625 18.0319C32.3498 18.0319 35.6051 21.5745 35.6051 26.1703C35.6051 30.7659 32.3498 34.3085 27.5625 34.3085C22.7753 34.3085 19.52 30.6702 19.52 26.1703ZM31.3923 26.1703C31.3923 23.2021 29.9562 21.0957 27.4668 21.0957C24.9774 21.0957 23.5413 23.1064 23.5413 26.1703C23.5413 29.234 24.8817 31.149 27.4668 31.149C30.0519 31.149 31.3923 29.1383 31.3923 26.1703ZM36.371 26.1703C36.371 21.5745 39.3392 18.0319 44.0306 18.0319C48.0519 18.0319 50.4455 20.3298 51.02 23.6809H46.9987C46.7115 22.3404 45.6583 21.2873 44.2221 21.2873C41.7328 21.2873 40.4881 23.2021 40.4881 26.1703C40.4881 29.0426 41.637 31.0532 44.1264 31.0532C45.754 31.0532 46.903 30.1915 47.1902 28.468H51.2114C50.9242 31.7234 48.4349 34.3085 44.3179 34.3085C39.4349 34.2128 36.371 30.6702 36.371 26.1703ZM61.9349 33.8298V32.0106H61.8391C60.7859 33.4468 59.637 34.2128 57.4348 34.2128C53.9881 34.2128 52.0732 32.0106 52.0732 28.6596V18.4149H56.0944V27.9894C56.0944 29.8085 56.8604 30.7659 58.6795 30.7659C60.5944 30.7659 61.7434 29.3298 61.7434 27.3191V18.4149H65.8604V33.7341H61.9349V33.8298ZM85.6795 12.4787H89.7966V16.3085H85.6795V12.4787ZM85.6795 18.4149H89.7966V33.7341H85.6795V18.4149ZM91.4242 34.2128H95.4455C95.7323 35.1702 96.6903 35.9362 98.5096 35.9362C100.807 35.9362 101.956 34.7873 101.956 32.7766V31.0532H101.86C100.999 32.1063 99.7544 32.8723 97.8392 32.8723C94.3925 32.8723 91.0413 30.1915 91.0413 25.5C91.0413 20.9042 93.8181 18.0319 97.6474 18.0319C99.5626 18.0319 100.999 18.7979 101.86 20.0426H101.956V18.4149H105.882V32.5851C105.882 34.7873 105.211 36.2234 104.062 37.2766C102.817 38.5213 100.807 39 98.5096 39C94.4884 39 91.9029 37.2766 91.4242 34.2128ZM102.243 25.4043C102.243 23.2021 100.998 21.2873 98.6055 21.2873C96.4985 21.2873 95.1578 22.9149 95.1578 25.5C95.1578 28.0851 96.4985 29.617 98.6055 29.617C101.19 29.617 102.243 27.7021 102.243 25.4043ZM111.722 20.5213C112.871 18.8937 114.307 18.0319 116.317 18.0319C119.477 18.0319 121.583 20.4255 121.583 23.7766V33.8298H117.466V24.4468C117.466 22.8192 116.509 21.6702 114.786 21.6702C112.967 21.6702 111.626 23.1064 111.626 25.2128V33.9255H107.701V18.6063H111.722V20.5213ZM76.3923 20.9042C73.2327 20.2341 71.7966 19.6595 71.7966 17.9362C71.7966 16.4043 73.3284 15.4468 75.6263 15.4468C77.7327 15.4468 79.3604 16.4043 79.7434 18.4149H83.9561C83.4775 14.2979 80.4136 12 75.6263 12C70.8391 12 67.3923 14.2021 67.3923 18.4149C67.3923 22.9149 70.9348 23.8724 74.7647 24.734C78.0199 25.5 80.0306 25.8829 80.0306 27.9894C80.0306 30 78.1157 30.7659 75.9135 30.7659C72.8498 30.7659 71.4136 29.7127 71.1264 27.1276H66.9136C67.1051 31.6277 70.3604 34.2128 76.2009 34.2128C80.9881 34.2128 84.5306 31.8191 84.5306 27.4149C84.4348 22.9149 80.7965 21.8617 76.3923 20.9042ZM123.307 21.2873C122.446 21.2873 121.679 20.5213 121.679 19.6595C121.679 18.7979 122.446 18.0319 123.307 18.0319C124.169 18.0319 124.935 18.7979 124.935 19.6595C124.935 20.5213 124.169 21.2873 123.307 21.2873ZM123.307 18.3191C122.541 18.3191 121.967 18.8937 121.967 19.6595C121.967 20.4255 122.541 21 123.307 21C124.073 21 124.647 20.4255 124.647 19.6595C124.647 18.8937 124.073 18.3191 123.307 18.3191Z" fill="black"/>
<path d="M122.734 18.7982H123.309C123.5 18.7982 123.691 18.7982 123.787 18.8939C123.883 18.9896 123.979 19.0855 123.979 19.2769C123.979 19.5642 123.787 19.6599 123.691 19.7556L124.075 20.4259H123.691L123.405 19.8514H123.022V20.4259H122.734V18.7982ZM123.022 19.0855V19.5642H123.309C123.405 19.5642 123.596 19.5642 123.596 19.2769C123.596 19.2769 123.596 19.0855 123.5 19.0855H123.022Z" fill="black"/>
</svg>
