<svg width="188" height="48" viewBox="0 0 188 48" fill="none" xmlns="http://www.w3.org/2000/svg">
<g clip-path="url(#clip0_201_7917)">
<path d="M54.6014 21.2016V30.8144H56.9981C57.6098 30.8053 58.2134 30.6736 58.7733 30.4272C59.3332 30.1807 59.838 29.8245 60.2578 29.3795C61.1194 28.4673 61.5909 27.2547 61.5717 26.0001C61.59 25.3769 61.4849 24.7562 61.2626 24.1737C61.0402 23.5913 60.705 23.0585 60.2761 22.6059C59.8546 22.1604 59.3463 21.8058 58.7825 21.5641C58.2188 21.3223 57.6115 21.1986 56.9981 21.2004H54.6026L54.6014 21.2016ZM56.9981 18.1876C61.4654 18.1876 64.8448 21.6489 64.8448 26.0001C64.8448 30.3512 61.4654 33.8321 56.9981 33.8321H51.712C51.6616 33.8314 51.6118 33.8209 51.5655 33.801C51.5192 33.7811 51.4773 33.7523 51.4421 33.7162C51.4069 33.6801 51.3792 33.6374 51.3605 33.5906C51.3418 33.5438 51.3325 33.4938 51.3331 33.4434V18.5922C51.3331 18.3771 51.503 18.2023 51.712 18.2023L56.9981 18.1876ZM76.3594 31.1493C78.3882 31.1554 80.2204 29.9075 81.0014 27.9874C81.3839 27.0492 81.4862 26.0203 81.2957 25.0252C81.1052 24.0301 80.6302 23.1116 79.9283 22.3811C79.2386 21.6625 78.3471 21.1701 77.3716 20.9689C76.3962 20.7677 75.3826 20.8672 74.4649 21.2542C72.59 22.0462 71.3654 23.9198 71.3617 26.0001C71.3617 28.8356 73.5959 31.1358 76.3606 31.1493H76.3594ZM76.3606 17.8332C81.0625 17.8332 84.657 21.5389 84.657 26.0001C84.657 30.4612 81.0625 34.1669 76.3594 34.1669C71.6575 34.1669 68.0935 30.4795 68.0935 26.0001C68.0935 21.5206 71.688 17.8332 76.3594 17.8332H76.3606ZM96.0787 31.1493C98.8446 31.1419 101.082 28.8393 101.08 26.0037C101.076 23.1657 98.8336 20.8679 96.0689 20.8667C93.3018 20.8667 91.0578 23.1633 91.0541 26.0001C91.0541 27.3665 91.5834 28.6767 92.5257 29.6423C92.9869 30.1181 93.5389 30.4967 94.1489 30.7555C94.759 31.0143 95.4148 31.1482 96.0775 31.1493H96.0787ZM96.0775 17.8332C100.765 17.8332 104.359 21.5206 104.359 26.0001C104.359 30.4795 100.75 34.1669 96.0775 34.1669C91.4061 34.1669 87.781 30.4795 87.781 26.0001C87.781 21.5206 91.3756 17.8332 96.0775 17.8332ZM115.323 21.2016H111.943V25.3388H115.323C115.59 25.3507 115.856 25.3076 116.106 25.2124C116.356 25.1172 116.583 24.9718 116.775 24.7852C117.166 24.4063 117.388 23.8807 117.393 23.3283C117.403 23.048 117.356 22.7686 117.255 22.5069C117.154 22.2452 117.002 22.0066 116.806 21.8054C116.615 21.6074 116.384 21.4517 116.128 21.3483C115.872 21.2449 115.598 21.1962 115.323 21.2053V21.2016ZM108.674 18.5922C108.674 18.3771 108.845 18.2023 109.054 18.2023H115.417C118.45 18.2023 120.645 20.4817 120.645 23.3442C120.669 25.2802 119.611 27.0585 117.923 27.9251L120.858 33.2454C120.899 33.3065 120.921 33.3777 120.924 33.4511C120.927 33.5245 120.909 33.5971 120.873 33.6609C120.837 33.7238 120.785 33.7752 120.721 33.809C120.657 33.8428 120.585 33.8576 120.513 33.8516H117.938C117.867 33.8526 117.796 33.8334 117.735 33.7962C117.674 33.759 117.625 33.7054 117.593 33.6414L114.765 28.3761H111.931V33.4312C111.932 33.4817 111.923 33.5318 111.904 33.5788C111.885 33.6257 111.858 33.6686 111.822 33.7048C111.787 33.741 111.745 33.7699 111.699 33.7899C111.652 33.8098 111.603 33.8204 111.552 33.8211H109.071C109.02 33.8204 108.971 33.8098 108.924 33.7899C108.878 33.7699 108.836 33.741 108.801 33.7048C108.765 33.6686 108.738 33.6257 108.719 33.5788C108.7 33.5318 108.691 33.4817 108.692 33.4312L108.675 18.5934L108.674 18.5922ZM129.167 21.2749V30.8889H131.562C132.174 30.8807 132.777 30.7498 133.338 30.5042C133.898 30.2586 134.403 29.9032 134.823 29.4589C135.685 28.5478 136.157 27.3361 136.139 26.0819C136.159 25.458 136.055 24.8363 135.833 24.2528C135.612 23.6692 135.277 23.1353 134.848 22.6817C134.425 22.2354 133.916 21.8804 133.351 21.6386C132.786 21.3969 132.178 21.2735 131.563 21.2762L129.167 21.2749ZM131.562 18.2573C136.029 18.2573 139.409 21.7223 139.409 26.0819C139.409 30.4416 136.029 33.9066 131.562 33.9066H126.292C126.242 33.906 126.192 33.8954 126.145 33.8754C126.099 33.8555 126.057 33.8265 126.022 33.7903C125.986 33.7541 125.959 33.7113 125.94 33.6643C125.922 33.6174 125.912 33.5672 125.913 33.5167V18.6667C125.913 18.4504 126.083 18.2756 126.292 18.2756L131.563 18.2573H131.562ZM149.377 22.0804L147.523 27.2211H151.228L149.377 22.0804ZM146.435 30.1263L145.222 33.5485C145.197 33.629 145.147 33.6992 145.078 33.7478C145.01 33.7965 144.927 33.821 144.843 33.8174H142.21C142.143 33.8236 142.076 33.8117 142.015 33.7829C141.954 33.7541 141.902 33.7094 141.864 33.6536C141.826 33.5971 141.803 33.5317 141.797 33.4636C141.791 33.3955 141.803 33.3271 141.831 33.2649L147.52 18.4284C147.546 18.3501 147.597 18.2827 147.666 18.2364C147.734 18.1901 147.816 18.1673 147.898 18.1717H150.844C150.927 18.1671 151.009 18.1897 151.077 18.236C151.146 18.2824 151.198 18.3499 151.224 18.4284L156.912 33.2649C156.941 33.3272 156.952 33.3957 156.946 33.4638C156.94 33.5319 156.917 33.5972 156.878 33.6536C156.84 33.7092 156.788 33.7536 156.727 33.7822C156.667 33.8108 156.599 33.8225 156.532 33.8162H153.901C153.817 33.8198 153.734 33.7953 153.665 33.7466C153.597 33.6979 153.546 33.6278 153.522 33.5473L152.308 30.1251H146.435V30.1263ZM159.964 22.4141C159.964 19.9574 162.035 17.8332 165.304 17.8332C167.065 17.7939 168.769 18.4525 170.046 19.6653C170.085 19.7021 170.116 19.7464 170.137 19.7956C170.159 19.8448 170.17 19.8977 170.17 19.9513C170.17 20.0048 170.159 20.0578 170.137 20.107C170.116 20.1562 170.085 20.2005 170.046 20.2373L168.588 21.7223C168.553 21.7584 168.512 21.787 168.465 21.8066C168.419 21.8262 168.37 21.8363 168.319 21.8363C168.269 21.8363 168.22 21.8262 168.173 21.8066C168.127 21.787 168.085 21.7584 168.05 21.7223C167.364 21.0786 166.462 20.7138 165.52 20.6993C164.213 20.6993 163.246 21.4778 163.246 22.3762C163.246 25.2802 170.974 23.6045 170.974 29.1925C170.97 32.0244 168.884 34.1669 165.195 34.1669C164.171 34.1774 163.155 33.9818 162.208 33.5917C161.261 33.2016 160.402 32.6249 159.682 31.8961C159.643 31.8593 159.612 31.8149 159.591 31.7658C159.57 31.7166 159.559 31.6636 159.559 31.6101C159.559 31.5565 159.57 31.5035 159.591 31.4544C159.612 31.4052 159.643 31.3608 159.682 31.3241L161.092 29.8769C161.127 29.8391 161.17 29.8089 161.217 29.7883C161.265 29.7677 161.316 29.757 161.367 29.757C161.419 29.757 161.47 29.7677 161.517 29.7883C161.565 29.8089 161.607 29.8391 161.642 29.8769C162.53 30.7569 163.726 31.2566 164.975 31.2703C166.609 31.2703 167.686 30.3756 167.686 29.2548C167.686 26.3496 159.962 28.0265 159.962 22.4373L159.964 22.4141ZM184.988 18.5726V24.4442H178.447V18.5726C178.447 18.5222 178.438 18.4722 178.419 18.4254C178.401 18.3786 178.373 18.3359 178.338 18.2998C178.303 18.2637 178.261 18.2349 178.214 18.215C178.168 18.1951 178.118 18.1846 178.068 18.1839H175.587C175.536 18.1846 175.487 18.1951 175.44 18.215C175.394 18.2349 175.352 18.2637 175.317 18.2998C175.282 18.3359 175.254 18.3786 175.235 18.4254C175.216 18.4722 175.207 18.5222 175.208 18.5726V33.4067C175.208 33.6218 175.379 33.7966 175.587 33.7966H178.068C178.276 33.7966 178.447 33.6218 178.447 33.4067V27.4423H184.983V33.4067C184.983 33.6218 185.154 33.7966 185.362 33.7966H187.843C188.052 33.7966 188.222 33.6218 188.222 33.4067V18.5726C188.223 18.5222 188.213 18.4722 188.195 18.4254C188.176 18.3786 188.148 18.3359 188.113 18.2998C188.078 18.2637 188.036 18.2349 187.99 18.215C187.943 18.1951 187.894 18.1846 187.843 18.1839H185.362C185.261 18.1865 185.165 18.2287 185.095 18.3015C185.025 18.3742 184.987 18.4717 184.988 18.5726ZM37.4059 20.1639C35.685 16.9739 32.3178 14.9878 28.656 15.0001H0.950688C0.763587 15.0008 0.580845 15.0566 0.425232 15.1605C0.26962 15.2644 0.148018 15.4118 0.0755769 15.5843C0.0041948 15.7557 -0.0143962 15.9445 0.0221849 16.1265C0.0587661 16.3086 0.148854 16.4755 0.28091 16.6061L6.31624 22.5949C6.84913 23.1254 7.57513 23.4224 8.33047 23.4224H27.8616C29.2537 23.4077 30.3916 24.5102 30.4062 25.8827C30.4209 27.2553 29.305 28.3797 27.9129 28.3932H14.4477C14.2604 28.3932 14.0774 28.4485 13.9213 28.5519C13.7652 28.6554 13.6431 28.8025 13.5701 28.9749C13.4981 29.1465 13.479 29.3358 13.5154 29.5183C13.5517 29.7008 13.6419 29.8683 13.7742 29.9992L19.8132 35.9929C20.3495 36.5231 21.0734 36.8201 21.8275 36.8192H27.9178C35.8415 36.8192 41.8328 28.4592 37.4059 20.1603" fill="#FF3008"/>
</g>
<defs>
<clipPath id="clip0_201_7917">
<rect width="188" height="48" fill="white"/>
</clipPath>
</defs>
</svg>
