<svg width="112" height="48" viewBox="0 0 112 48" fill="none" xmlns="http://www.w3.org/2000/svg">
<path fill-rule="evenodd" clip-rule="evenodd" d="M111.294 30.5633C106.636 38.4606 99.259 36.1691 97.0435 34.3749C96.1005 35.0147 94.4472 36.417 92.2425 36.255C87.5472 35.9104 85.8659 29.2007 85.8659 29.2007C85.8996 29.2275 84.4672 29.6949 83.6931 29.6866C83.6832 31.6542 81.9823 36.3546 77.3919 36.2945C72.2408 36.2273 71.1936 28.5531 71.1936 28.5531C71.1936 28.5531 70.681 29.2649 68.732 29.9739C68.8301 28.4622 68.7584 36.0644 62.5846 36.1761C57.7038 36.2646 56.3863 28.4348 56.3863 28.4348C56.3863 28.4348 55.5396 29.3143 53.8987 29.6194C54.003 28.0831 53.8334 36.2019 47.6589 36.1761C43.4862 36.1588 42.0603 31.353 42.1712 30.686C42.3127 29.8359 40.761 36.2957 36.7079 36.195C35.0353 36.1459 33.7883 34.9349 33.0059 33.3204C31.9584 34.5189 30.4376 36.195 28.7316 36.195C25.6692 36.195 24.3191 33.6337 24.5477 26.3179C24.5673 25.4502 24.5046 25.109 23.6421 24.9792C23.1243 24.8928 22.5941 24.7292 22.0331 24.643C21.8533 25.243 20.3283 35.9998 15.0842 36.204C13.3249 36.2725 12.363 34.7485 11.573 33.6174C10.362 35.2194 8.76335 36.255 6.486 36.255C2.62834 36.255 0 33.1365 0 29.2895C0 25.4425 2.62834 22.3242 6.486 22.3242C7.16807 22.3242 7.35954 22.422 7.98266 22.6038C6.7012 10.9365 9.72749 9.11303 12.3748 9.11303C14.9164 9.11303 19.2585 15.012 13.1488 29.9751C14.5053 34.4381 17.4296 34.1857 18.8348 24.9982C19.1208 23.1307 18.3561 20.6105 19.5455 20.2588C21.7199 19.616 21.9506 21.5446 22.9701 21.866C24.0481 22.2056 24.6773 22.1724 25.7121 22.3885C27.4805 22.7339 28.1706 23.6838 27.9551 25.7996C27.6964 28.4767 27.2438 32.3732 28.6238 32.8481C29.6189 33.1931 31.4358 31.1293 31.7547 30.0001C32.0734 28.871 32.1399 28.4845 32.1683 27.6563C32.2114 25.8861 32.2655 24.5886 32.5673 23.2499C32.6965 22.7319 32.8438 22.3888 33.4299 22.3654C33.9121 22.3531 34.794 22.2079 35.1823 22.51C35.6997 22.8988 35.635 23.2933 35.5756 24.3316C34.9738 39.1353 39.6056 31.7452 40.9866 25.8279C40.4948 19.1369 40.8324 9.23555 45.0253 9.06949C47.206 8.98313 48.17 10.7301 48.2761 12.034C48.576 15.7168 46.8959 21.8172 44.6864 25.9197C43.4236 34.2907 50.2077 35.9459 51.2926 29.2642C49.5176 28.4202 47.5993 25.0044 49.1603 23.3397C50.0362 22.4055 53.6822 23.7476 53.7419 26.6748C55.5303 26.1965 55.7691 25.1867 55.7939 25.354C55.3023 18.663 55.7583 9.23564 59.9515 9.06957C62.1318 8.98321 63.0957 10.7301 63.2017 12.0341C63.5017 15.7168 61.8216 21.8173 59.6124 25.9199C58.3494 34.2907 65.1336 35.946 66.2182 29.2643C64.9041 29.0107 62.1301 25.3775 63.7306 23.3398C64.586 22.2509 68.2186 24.5154 68.6253 26.7717C70.3434 26.2855 70.5767 25.3078 70.6014 25.4724C70.1096 18.7816 70.5656 9.35422 74.7588 9.18815C76.9391 9.10179 77.903 10.8487 78.0091 12.1527C78.309 15.8354 76.6289 21.936 74.4194 26.0385C73.1568 34.4095 79.9408 36.0644 81.0257 29.3827C79.2198 29.082 76.6533 25.2458 78.7189 23.2833C79.5442 22.4992 82.6977 24.5346 83.4359 26.8568C84.4615 26.8173 85.1 26.4636 85.2368 26.4279C83.5994 18.573 84.8184 9.14836 89.3291 9.06969C91.7671 9.02721 94.1506 10.3877 93.1044 17.8606C92.1058 24.9906 88.5161 27.9827 88.5245 28.0285C88.7333 28.8827 90.5753 36.0312 95.2138 32.2594C94.9737 31.7157 94.7333 31.1603 94.599 30.4874C93.8301 26.5677 95.3402 22.1404 99.4447 21.4249C101.796 21.0149 104.012 22.1598 104.362 24.741C104.938 28.9645 101.124 32.0233 99.6741 32.6868C99.0245 32.3178 105.562 36.5107 109.442 28.108C109.667 27.6282 109.938 27.6689 110.29 27.9162C110.538 28.0908 111.951 29.4299 111.294 30.5633ZM9.2921 28.2517C9.09468 27.6615 8.68955 26.361 8.54628 25.7976C7.75727 25.1114 7.1941 25 6.18134 25C3.93067 25 2.60596 27.0809 2.60596 29.3247C2.60596 31.5684 4.04913 33.6496 6.29982 33.6496C8.25029 33.6496 9.73478 32.3235 10.1877 30.4462C9.87068 29.7143 9.55621 29.0417 9.2921 28.2517ZM12.3197 12.2015C10.7382 12.2015 10.2018 15.974 10.3059 19.1924C10.398 22.0378 11.1931 24.5428 11.6055 25.6653C11.7102 25.8059 11.6908 25.7144 11.7843 25.8636C14.5302 19.8472 13.3913 12.2015 12.3197 12.2015ZM45.2512 12.32C43.2073 12.0855 43.2205 20.6001 43.4742 22.51C44.5358 20.8118 46.3798 12.7772 45.2512 12.32ZM60.1769 12.32C58.1329 12.0855 58.1461 20.6001 58.4 22.51C59.4615 20.8118 61.3056 12.7772 60.1769 12.32ZM74.9844 12.4384C72.9403 12.204 72.9535 20.7186 73.2074 22.6287C74.2688 20.9303 76.113 12.8956 74.9844 12.4384ZM89.5547 11.8215C86.3701 12.461 87.1116 23.0789 87.5953 24.9412C91.3465 19.789 91.4238 11.628 89.5547 11.8215ZM101.49 25.0903C101.328 24.4133 100.518 24.0515 99.9593 24.1407C98.3604 24.359 96.8095 26.3505 97.4098 29.3824C97.5435 30.0576 97.8779 30.6792 97.8724 30.6585C101.451 28.2577 101.755 26.3659 101.49 25.0903ZM34.0567 20.0218C33.5997 20.0219 33.153 19.8864 32.773 19.6326C32.3929 19.3787 32.0967 19.0179 31.9217 18.5957C31.7467 18.1735 31.701 17.7089 31.7901 17.2607C31.8792 16.8124 32.0993 16.4007 32.4224 16.0775C32.7455 15.7543 33.1572 15.5342 33.6054 15.4451C34.0537 15.3559 34.5183 15.4016 34.9405 15.5765C35.3628 15.7514 35.7236 16.0476 35.9775 16.4276C36.2314 16.8076 36.3669 17.2544 36.3669 17.7114C36.3669 18.0148 36.3072 18.3152 36.191 18.5955C36.075 18.8758 35.9049 19.1305 35.6903 19.345C35.4757 19.5596 35.2211 19.7298 34.9408 19.8459C34.6606 19.962 34.3602 20.0218 34.0567 20.0218Z" fill="#0D0C22"/>
</svg>
