<svg width="77" height="48" viewBox="0 0 77 48" fill="none" xmlns="http://www.w3.org/2000/svg">
<path d="M0 25.6432C0.0461594 25.3801 0.0963327 25.1177 0.139147 24.8526C0.476312 22.7429 1.49985 21.0256 3.0987 19.631C4.41458 18.4848 5.88098 17.5548 7.35607 16.6369C9.36166 15.3876 11.3084 14.0519 13.1661 12.5904C13.2491 12.5254 13.3126 12.3828 13.3133 12.2764C13.3233 10.9909 13.32 9.70477 13.32 8.4193V8.12203H18.0998V8.39453C18.0998 13.7252 18.1072 19.0566 18.0958 24.3872C18.0918 26.4299 17.7607 28.4157 16.792 30.2428C15.4902 32.6986 13.4919 34.2151 10.7157 34.6348C8.73416 34.9348 6.76871 34.8471 4.921 34.041C2.06513 32.7957 0.428814 30.5863 0.0568631 27.469C0.0495043 27.4081 0.0194003 27.3485 0 27.2889V25.6432ZM13.32 18.3188C12.2309 19.2554 11.0569 19.953 9.86139 20.6246C8.51742 21.3791 7.2303 22.2173 6.05759 23.229C4.6815 24.416 4.12023 27.3378 5.92379 28.9272C7.53335 30.3453 10.9378 30.7081 12.5246 27.8667C13.0758 26.8812 13.2906 25.7966 13.3046 24.6818C13.3314 22.6251 13.3167 20.5683 13.3193 18.5122L13.32 18.3188Z" fill="#1562E7"/>
<path d="M39.9347 42.0002C39.9267 41.9072 39.9126 41.8141 39.9126 41.7217C39.9113 36.3047 39.9039 30.8883 39.916 25.4719C39.92 23.4138 40.2485 21.4133 41.1803 19.5514C42.347 17.2228 44.2202 15.7994 46.7696 15.3087C48.6435 14.9485 50.5159 15.002 52.3489 15.5785C55.3841 16.5325 57.5863 19.2695 57.882 22.4182C58.2065 25.879 56.9421 28.638 54.2308 30.7704C52.9624 31.7674 51.5876 32.5996 50.2075 33.4271C48.311 34.5646 46.5315 35.8681 44.8316 37.2842C44.6731 37.4154 44.6055 37.548 44.6075 37.7582C44.6169 39.1729 44.6122 40.5862 44.6122 42.0002H39.9347ZM44.6115 31.6274C44.7038 31.5484 44.7534 31.5022 44.8062 31.4607C45.3481 31.0289 45.8592 30.5495 46.4392 30.1786C47.4172 29.5539 48.4541 29.0203 49.4395 28.4064C50.3607 27.8326 51.2745 27.2367 52.0419 26.4554C53.6079 24.862 53.5544 22.3948 51.9683 20.8844C50.3694 19.3612 46.6566 19.1162 45.231 22.3091C44.8196 23.2304 44.6483 24.2079 44.6269 25.2054C44.5975 26.6014 44.6142 27.9987 44.6122 29.3953C44.6109 30.1224 44.6115 30.8488 44.6115 31.6274Z" fill="#1562E7"/>
<path d="M76.3229 30.0667C76.254 30.3627 76.1985 30.6626 76.1129 30.9545C75.6613 32.4884 74.7836 33.6841 73.3206 34.3932C72.6275 34.7292 71.893 34.9047 71.1169 34.904C67.3834 34.9006 63.6485 34.902 59.9149 34.902H59.5885V30.1698H59.8755C63.5582 30.1698 67.2416 30.1705 70.9236 30.1698C71.3645 30.1698 71.5237 30.0058 71.6 29.5746C71.7538 28.7076 71.1972 28.0736 70.4312 27.7007C69.8352 27.4108 69.191 27.319 68.536 27.315C67.067 27.307 65.6133 27.1865 64.2098 26.7178C62.5835 26.1755 61.2 25.2837 60.2621 23.8095C59.634 22.8219 59.448 21.7072 59.5028 20.5603C59.6179 18.134 60.9418 16.5492 63.0906 15.5945C63.7689 15.2925 64.5141 15.2443 65.2554 15.2443C68.5186 15.2463 71.7812 15.245 75.0445 15.2457C75.086 15.2457 75.1281 15.2504 75.185 15.2537V19.9343H74.888C71.7103 19.9343 68.5327 19.9343 65.3557 19.9336C65.0079 19.9336 64.668 19.9417 64.4466 20.2818C64.1228 20.7786 64.28 21.434 64.8179 21.7748C65.4012 22.143 66.0535 22.3332 66.7291 22.3954C67.6389 22.4805 68.5568 22.4785 69.4673 22.5628C71.4782 22.7509 73.2824 23.4225 74.6752 24.9563C75.5429 25.9097 76.0761 27.0358 76.2694 28.316C76.2774 28.3702 76.3055 28.4211 76.3236 28.4726L76.3229 30.0667Z" fill="#1562E7"/>
<path d="M35.4631 8.00018C35.6036 8.04906 35.7475 8.09057 35.8833 8.14881C37.6841 8.92143 37.9731 10.6702 36.9195 11.9001C36.2131 12.725 35.0062 12.9512 34.0683 12.4538C33.1023 11.943 32.5518 10.8014 32.8501 9.78779C33.101 8.9375 33.7077 8.38984 34.5433 8.09994C34.6436 8.06512 34.7447 8.03299 34.8457 7.99951L35.4631 8.00018Z" fill="#1562E7"/>
<path d="M25.1239 34.892H20.4116V34.6088C20.4116 31.3516 20.3868 28.0951 20.4183 24.8379C20.4524 21.3637 21.9034 18.6281 24.8416 16.7394C26.0698 15.95 27.4606 15.5791 28.8909 15.3595C29.3531 15.2892 29.8234 15.2665 30.3125 15.2196V19.8125C29.5411 19.8433 28.8059 20.0167 28.1028 20.3233C26.1153 21.189 25.1319 22.7162 25.1259 24.8734C25.1185 28.1138 25.1239 31.3529 25.1239 34.5934V34.892Z" fill="#1562E7"/>
<path d="M37.5069 15.2651H32.7993V34.8946H37.5069V15.2651Z" fill="#1562E7"/>
</svg>
