<svg width="128" height="48" viewBox="0 0 128 48" fill="none" xmlns="http://www.w3.org/2000/svg">
<g clip-path="url(#clip0_201_7926)">
<path d="M44.172 24.0525C44.1762 22.2601 43.6261 20.5102 42.597 19.0426C41.5679 17.5751 40.1102 16.4616 38.4236 15.8548C38.5771 15.0725 38.6545 14.2772 38.6547 13.4799C38.6562 10.8412 37.8209 8.26985 36.2689 6.13573C34.7169 4.0016 32.5281 2.41458 30.0173 1.60284C27.5064 0.791098 24.8029 0.796447 22.2953 1.61812C19.7877 2.43979 17.6052 4.03546 16.0616 6.17571C14.9229 5.29325 13.5275 4.80596 12.087 4.78764C10.6464 4.76932 9.23914 5.22098 8.0783 6.0742C6.91746 6.92741 6.06631 8.13571 5.65377 9.51605C5.24123 10.8964 5.28978 12.3736 5.79207 13.7238C4.10152 14.34 2.64022 15.4592 1.60473 16.9307C0.56924 18.4022 0.00923079 20.1556 2.95997e-05 21.9549C-0.00466136 23.7535 0.548321 25.5093 1.58284 26.9807C2.61736 28.452 4.08255 29.5664 5.77666 30.1706C5.6267 30.9525 5.5502 31.7467 5.54817 32.5428C5.54565 35.1786 6.38025 37.747 7.93163 39.8778C9.48302 42.0086 11.671 43.5917 14.1802 44.3987C16.6893 45.2058 19.3899 45.1951 21.8926 44.3683C24.3953 43.5415 26.5707 41.9413 28.1053 39.7983C29.2407 40.6829 30.6337 41.1732 32.0729 41.1947C33.5121 41.2162 34.9191 40.7677 36.0805 39.9173C37.2418 39.0669 38.0941 37.861 38.5082 36.4825C38.9222 35.1039 38.8754 33.6279 38.3749 32.2784C40.0663 31.6633 41.5286 30.5445 42.5646 29.0728C43.6007 27.601 44.1608 25.8471 44.1695 24.0473" fill="white"/>
<path d="M17.366 19.9499L27.0323 24.3633L36.7884 15.819C36.9289 15.114 36.9986 14.3967 36.9963 13.6778C36.9958 11.3504 36.2505 9.08435 34.8693 7.21111C33.4882 5.33786 31.5438 3.95581 29.3207 3.26718C27.0976 2.57854 24.7124 2.61948 22.5142 3.38401C20.316 4.14853 18.4202 5.59651 17.1042 7.51605L15.479 15.9217L17.366 19.9499Z" fill="#FEC514"/>
<path d="M7.36056 30.1862C7.21803 30.9023 7.14665 31.6307 7.14747 32.3608C7.14752 34.6978 7.89669 36.9733 9.28502 38.8533C10.6734 40.7332 12.6278 42.1187 14.8614 42.8062C17.095 43.4938 19.4902 43.4473 21.6954 42.6736C23.9006 41.8998 25.7998 40.4396 27.1141 38.5071L28.7238 30.1195L26.5749 26.0116L16.8728 21.5906L7.36056 30.1862Z" fill="#00BFB3"/>
<path d="M7.30175 13.4596L13.9256 15.0232L15.3762 7.49045C14.4753 6.80729 13.3773 6.43435 12.2466 6.42747C11.116 6.42058 10.0135 6.78013 9.10434 7.45227C8.19514 8.1244 7.52813 9.07297 7.20317 10.1559C6.87822 11.2389 6.9128 12.398 7.30175 13.4596Z" fill="#F04E98"/>
<path d="M6.72678 15.036C5.27343 15.5264 4.00905 16.4576 3.10948 17.7C2.20991 18.9423 1.71987 20.4342 1.70752 21.968C1.70648 23.4503 2.15664 24.8979 2.99818 26.1183C3.83971 27.3386 5.03275 28.2739 6.41869 28.7998L15.7127 20.3993L14.0053 16.7536L6.72678 15.036Z" fill="#1BA9F5"/>
<path d="M28.814 38.507C29.7134 39.1867 30.8087 39.5573 31.9361 39.5633C33.0635 39.5693 34.1625 39.2104 35.0692 38.5403C35.9759 37.8702 36.6414 36.9248 36.9665 35.8453C37.2916 34.7658 37.2588 33.61 36.873 32.5507L30.2543 31.0103L28.814 38.507Z" fill="#93C90E"/>
<path d="M30.1593 29.267L37.4456 30.9692C38.8998 30.4801 40.165 29.5493 41.0648 28.3066C41.9646 27.064 42.454 25.5714 42.4648 24.0373C42.4635 22.558 42.0125 21.1141 41.1715 19.8972C40.3305 18.6802 39.1394 17.7477 37.7562 17.2234L28.2261 25.5674L30.1593 29.267Z" fill="#0077CC"/>
<path d="M61.7613 31.9115L62.6445 31.8216L62.7061 33.6188C60.7408 33.9156 58.7577 34.0785 56.7703 34.1066C54.5795 34.1066 53.027 33.4725 52.1131 32.2042C51.1991 30.9359 50.7429 28.9624 50.7446 26.2837C50.7446 20.9487 52.8653 18.2803 57.1066 18.2786C59.1605 18.2786 60.6924 18.852 61.7023 19.9988C62.7121 21.1455 63.2187 22.9427 63.2222 25.3903L63.1015 27.1259H53.0579C53.0579 28.8101 53.3625 30.0578 53.9718 30.8691C54.5812 31.6804 55.6407 32.0861 57.1503 32.0861C58.6633 32.0912 60.2003 32.033 61.7613 31.9115ZM60.9397 25.3081C60.9397 23.4408 60.6411 22.122 60.0437 21.3518C59.4464 20.5816 58.4725 20.1956 57.122 20.1939C55.7716 20.1939 54.7566 20.5995 54.0771 21.4108C53.3976 22.2221 53.0476 23.5212 53.027 25.3081H60.9397Z" fill="#1C1E23"/>
<path d="M66.4057 33.9859V13.9603H68.6882V33.9859H66.4057Z" fill="#1C1E23"/>
<path d="M83.0631 23.1772V30.8537C83.0631 31.6239 84.9578 31.5828 84.9578 31.5828L84.8423 33.6008C83.2377 33.6008 81.9103 33.7343 81.1144 32.9615C79.3909 33.727 77.524 34.1165 75.6382 34.104C74.2398 34.104 73.1744 33.7078 72.4418 32.9153C71.7092 32.1229 71.3438 30.9838 71.3455 29.4981C71.3455 28.0159 71.7212 26.9247 72.4726 26.2247C73.224 25.5246 74.4007 25.0968 76.0028 24.941L80.7807 24.4866V23.1772C80.7807 22.1502 80.5582 21.4091 80.1132 20.9538C79.8693 20.7249 79.5816 20.5478 79.2675 20.4331C78.9533 20.3184 78.6192 20.2684 78.2852 20.2863H72.2878V18.276H78.1337C79.859 18.276 81.1119 18.6723 81.8924 19.4647C82.6728 20.2572 83.0631 21.4947 83.0631 23.1772ZM73.6844 29.3852C73.6844 31.2525 74.4546 32.1862 75.9951 32.1862C77.3847 32.1846 78.7641 31.9476 80.0747 31.4853L80.773 31.2414V26.2196L76.2775 26.6457C75.3635 26.7279 74.7037 26.9915 74.298 27.4365C73.8924 27.8815 73.6878 28.5311 73.6844 29.3852Z" fill="#1C1E23"/>
<path d="M91.9743 20.3171C89.7612 20.3171 88.6546 21.0873 88.6546 22.6278C88.6546 23.3398 88.9114 23.8421 89.4249 24.1348C89.9383 24.4275 91.0945 24.7322 92.8934 25.0488C94.7009 25.3655 95.9794 25.8071 96.7291 26.3736C97.4788 26.9401 97.8545 28.0047 97.8562 29.5674C97.8562 31.1318 97.3538 32.2786 96.3491 33.0077C95.3444 33.7369 93.8784 34.1023 91.9512 34.104C90.6932 34.104 86.4929 33.6368 86.4929 33.6368L86.6161 31.6599C89.0295 31.8909 90.7728 32.0629 91.9512 32.0629C93.1296 32.0629 94.0256 31.8755 94.6444 31.5007C95.2631 31.1258 95.5712 30.4968 95.5712 29.6136C95.5712 28.7305 95.3145 28.1323 94.7805 27.8165C94.2464 27.5007 93.0962 27.2029 91.3119 26.9179C89.5276 26.6329 88.2567 26.217 87.507 25.6701C86.7573 25.1233 86.3799 24.1066 86.3799 22.6252C86.3799 21.1438 86.8934 20.0578 87.9486 19.3389C89.0038 18.6201 90.2978 18.2735 91.8588 18.2735C93.0962 18.2735 97.3915 18.5893 97.3915 18.5893V20.579C95.1245 20.4789 93.2708 20.3171 91.9743 20.3171Z" fill="#1C1E23"/>
<path d="M108.858 20.5585H104.018V27.8344C104.018 29.5786 104.145 30.7245 104.398 31.2722C104.655 31.8216 105.256 32.0938 106.208 32.0938L108.917 31.9115L109.071 33.7985C108.045 33.9881 107.007 34.1005 105.964 34.1348C104.383 34.1348 103.287 33.7489 102.678 32.9769C102.069 32.205 101.765 30.7339 101.766 28.5636V20.5585H99.615V18.5816H101.777V13.9243H104.028V18.5816H108.858V20.5585Z" fill="#1C1E23"/>
<path d="M112.031 16.6381V13.9885H114.313V16.6381H112.031ZM112.031 33.9859V18.5816H114.313V33.9859H112.031Z" fill="#1C1E23"/>
<path d="M124.2 18.276C125.34 18.3247 126.476 18.4473 127.6 18.6432L128.329 18.733L128.239 20.5893C127.046 20.4381 125.846 20.3473 124.645 20.3171C122.919 20.3171 121.748 20.7279 121.13 21.5495C120.512 22.371 120.202 23.8926 120.2 26.1143C120.2 28.3394 120.49 29.8867 121.068 30.7561C121.647 31.6256 122.853 32.0621 124.688 32.0655L128.283 31.7934L128.375 33.6804C126.976 33.9174 125.562 34.0598 124.144 34.1066C121.772 34.1066 120.134 33.4973 119.23 32.2786C118.326 31.06 117.874 29.006 117.874 26.1169C117.874 23.226 118.361 21.1969 119.335 20.0296C120.309 18.8623 121.931 18.2778 124.2 18.276Z" fill="#1C1E23"/>
</g>
<defs>
<clipPath id="clip0_201_7926">
<rect width="128" height="48" fill="white"/>
</clipPath>
</defs>
</svg>
