<svg width="164" height="48" viewBox="0 0 164 48" fill="none" xmlns="http://www.w3.org/2000/svg">
<path d="M39.6255 32.5722L40.64 32.3633C41.5352 32.1246 41.7739 32.0052 41.7739 30.2149V16.1609C41.7739 14.3706 41.5053 14.2214 40.64 14.0125L39.6255 13.8036V12.9681H55.7981L56.0965 18.906H55.1715C54.4255 17.2649 53.9481 16.3996 53.5005 15.7431C52.5456 14.3706 51.919 14.2512 49.8602 14.2512C48.3384 14.2512 47.5924 14.4302 47.1448 14.5496V22.1585H47.9505C50.0392 22.1585 50.5166 21.9198 50.8747 21.2633C51.2924 20.5173 51.5311 19.9504 51.7997 18.9956H52.6948V26.6939H51.7997C51.5311 25.7689 51.2924 25.1722 50.8747 24.3068C50.5166 23.5609 50.1287 23.4117 47.9505 23.4117H47.1448V29.1407C47.1448 31.7964 47.2344 32.0948 50.1287 32.0948C52.5158 32.0948 52.9932 31.7964 53.9779 30.3343C54.515 29.5286 55.0819 28.2754 55.8577 26.3956H56.8126L56.3948 33.4077H39.6553L39.6255 32.5722ZM59.319 21.3827C58.6327 19.7117 58.3045 19.2939 57.5585 19.0552L56.9916 18.8762V18.1004H65.8537V18.8762L65.0481 19.0851C64.4215 19.2641 64.1231 19.5625 64.1231 20.2786C64.1231 20.6964 64.2723 21.2036 64.511 21.8601L66.9876 28.6633H67.1368L69.5239 21.8601C69.7924 21.1439 69.9118 20.6367 69.9118 20.2189C69.9118 19.5625 69.6134 19.2343 68.9868 19.0851L68.1811 18.8762V18.1004H73.6416V18.8762L73.0747 19.0552C72.2989 19.3238 71.9706 19.7714 71.2545 21.7109L66.6892 33.4077H64.1827L59.319 21.3827ZM72.9553 25.6794C72.9553 20.5472 76.7448 17.7125 80.6537 17.7125C84.7118 17.7125 87.2481 19.7415 87.3376 25.0827H77.5803C77.6698 29.9165 79.49 31.2294 82.5335 31.2294C84.3537 31.2294 85.7561 30.6923 86.8602 30.1254V31.1101C85.8158 32.2439 83.5779 33.7956 80.6239 33.7956C75.4916 33.7359 72.9553 30.6923 72.9553 25.6794ZM77.5803 23.9488L82.6231 23.6802C82.6231 20.1294 82.1456 18.8165 80.3852 18.8165C78.8932 18.8165 77.6997 20.2488 77.5803 23.9488ZM95.0956 19.9802C95.9311 19.0851 97.6319 17.623 99.6013 17.623C100.855 17.623 101.899 18.6375 101.899 19.9206C101.899 21.2036 100.884 22.2181 99.6013 22.2181C98.6763 22.2181 97.8408 21.6512 97.5126 20.8456C97.3335 20.5173 96.9456 20.4278 96.6771 20.4278C96.14 20.4278 95.5134 20.8157 95.1255 21.1738V30.7222C95.1255 32.0948 95.2448 32.2439 96.14 32.3931L97.1247 32.602V33.4077H88.6206V32.602L89.3965 32.3931C90.3811 32.1246 90.5005 31.9754 90.5005 30.7222V21.5617C90.5005 20.3085 90.3513 20.2189 89.5158 19.652L88.5311 18.9956V18.3988L94.7376 17.6827L95.0658 17.9214L95.0061 19.9504L95.0956 19.9802ZM102.794 32.602L103.57 32.3931C104.555 32.1246 104.674 31.9754 104.674 30.7222V21.5617C104.674 20.3085 104.525 20.2189 103.689 19.652L102.705 18.9956V18.3988L108.911 17.6827L109.239 17.8915L109.18 19.7714H109.299C110.85 18.6673 112.79 17.6827 114.938 17.6827C117.445 17.6827 118.788 18.9657 118.788 21.6214V30.6923C118.788 31.9754 118.907 32.1246 119.862 32.3633L120.638 32.5722V33.3778H112.432V32.5722L113.148 32.3931C114.043 32.1544 114.133 32.0649 114.133 30.6923V22.7851C114.133 20.9948 113.476 20.4278 112.104 20.4278C111.059 20.4278 110.015 20.6665 109.359 20.8157V30.7222C109.359 32.1246 109.448 32.1843 110.343 32.423L111.059 32.602V33.4077H102.854V32.602H102.794ZM121.205 25.7689C121.205 20.1294 125.203 17.7125 129.171 17.7125C133.438 17.7125 137.168 20.2786 137.168 25.6198C137.168 31.2593 133.23 33.7359 129.171 33.7359C124.905 33.7359 121.205 31.1698 121.205 25.7689ZM132.215 25.9181C132.215 19.9802 131.081 18.8464 129.052 18.8464C127.202 18.8464 126.098 20.1891 126.098 25.2617C126.098 31.2891 127.083 32.602 129.231 32.602C130.992 32.602 132.215 31.5577 132.215 25.9181ZM139.705 29.6778V19.831H137.855V19.1149C140.152 18.2198 141.913 16.5189 142.748 14.1617H144.419V18.1004H148.328L147.94 19.831H144.419V29.3794C144.419 30.8415 144.867 31.4383 146.329 31.4383C147.045 31.4383 147.91 31.2891 148.447 31.1698V32.0052C147.731 32.6617 146.269 33.7359 143.792 33.7359C141.137 33.7359 139.705 32.5722 139.705 29.6778ZM149.044 25.6794C149.044 20.5472 152.834 17.7125 156.742 17.7125C160.8 17.7125 163.337 19.7415 163.426 25.0827H153.699C153.788 29.9165 155.609 31.2294 158.652 31.2294C160.472 31.2294 161.875 30.6923 162.979 30.1254V31.1101C161.934 32.2439 159.696 33.7956 156.742 33.7956C151.58 33.7359 149.044 30.6923 149.044 25.6794ZM153.669 23.9488L158.712 23.6802C158.712 20.1294 158.234 18.8165 156.474 18.8165C154.982 18.8165 153.788 20.2488 153.669 23.9488Z" fill="black"/>
<path d="M9.72774 15.2654C9.72774 15.6234 9.69791 16.2202 9.33984 16.6081C8.95194 16.9662 8.35516 16.996 7.9971 16.996H4.17775C3.07371 16.996 2.41726 16.996 1.96968 17.0557C1.73097 17.0855 1.43259 17.2049 1.28339 17.2646C1.22371 17.2944 1.22371 17.2646 1.25355 17.2347L9.96645 8.37263C9.99629 8.34279 10.0261 8.34279 9.99629 8.40246C9.93662 8.55166 9.81726 8.85004 9.78742 9.08875C9.72775 9.53634 9.72774 10.1928 9.72774 11.2968V15.2654ZM17.8439 42.0605C16.8294 41.4041 16.2923 40.5388 16.0834 40.0017C15.8745 39.4944 15.7552 38.9275 15.7552 38.3605C15.7552 35.8839 17.7842 33.8549 20.2906 33.8549C21.0366 33.8549 21.6334 34.4517 21.6334 35.1976C21.6334 35.7049 21.3648 36.1226 20.9471 36.3613C20.7979 36.4509 20.589 36.5105 20.4398 36.5404C20.2906 36.5702 19.7237 36.6299 19.4552 36.8686C19.1568 37.1073 18.9181 37.4952 18.9181 37.9129C18.9181 38.3605 19.0971 38.7783 19.3955 39.0767C19.9326 39.6138 20.6487 39.9121 21.4245 39.9121C23.4535 39.9121 25.0947 38.271 25.0947 36.242C25.0947 34.4218 23.8713 32.8105 22.26 32.0944C22.0213 31.975 21.6334 31.8855 21.2753 31.796C20.8277 31.7065 20.41 31.6468 20.3802 31.6468C19.1269 31.4976 15.9939 30.513 15.785 27.738C15.785 27.738 14.86 31.9154 13.01 33.0492C12.831 33.1388 12.5923 33.2283 12.3237 33.288C12.0552 33.3476 11.7568 33.3775 11.6673 33.3775C8.65355 33.5565 5.46081 32.6017 3.25275 30.3339C3.25275 30.3339 1.76081 29.1105 0.985005 25.6791C0.805973 24.8436 0.447908 23.3517 0.239037 21.9492C0.149521 21.442 0.119682 21.0541 0.0898438 20.696C0.0898438 19.2339 0.985005 18.2492 2.11888 18.1C2.14871 18.1 2.23823 18.1 2.29791 18.1C2.9842 18.1 8.20597 18.1 8.20597 18.1C9.25033 18.1 9.8471 17.8315 10.235 17.4734C10.7423 16.996 10.8616 16.3097 10.8616 15.5041C10.8616 15.5041 10.8616 10.0734 10.8616 9.38714C10.8616 9.3573 10.8616 9.23795 10.8616 9.20811C11.0108 8.10408 11.9955 7.17908 13.4576 7.17908C13.4576 7.17908 13.9052 7.17908 14.1737 7.17908C14.4721 7.17908 14.8302 7.20892 15.1584 7.23875C15.3971 7.26859 15.606 7.32827 15.964 7.41779C17.7842 7.86537 18.1721 9.71537 18.1721 9.71537C18.1721 9.71537 21.6035 10.3121 23.3342 10.6105C24.9753 10.9089 29.0334 11.1775 29.8092 15.2654C31.6294 24.9928 30.5253 34.4218 30.4358 34.4218C29.1527 43.6121 21.514 43.1646 21.514 43.1646C19.8729 43.1646 18.6495 42.6275 17.8439 42.0605ZM24.7068 22.5162C23.7221 22.4267 22.8866 22.8146 22.5882 23.5605C22.5285 23.7097 22.4689 23.8888 22.4987 23.9783C22.5285 24.0678 22.5882 24.0976 22.6479 24.1275C23.006 24.3065 23.6027 24.396 24.4681 24.4855C25.3334 24.575 25.9302 24.6347 26.3181 24.575C26.3777 24.575 26.4374 24.5452 26.4971 24.4557C26.5568 24.3662 26.5269 24.1871 26.5269 24.038C26.4076 23.2025 25.6914 22.6355 24.7068 22.5162Z" fill="#00A82D"/>
</svg>
