<svg width="162" height="48" viewBox="0 0 162 48" fill="none" xmlns="http://www.w3.org/2000/svg">
<path d="M63.3354 14.3628V18.1428H53.1899V22.2732H62.5302V26.0802H53.1899V34.0242H48.3118V14.3628H63.3354Z" fill="#0073FF"/>
<path d="M67.3212 14.3359H71.5351V17.6712H67.3212V14.3359ZM67.3212 19.4568H71.5351V34.0175H67.3212V19.4568Z" fill="#0073FF"/>
<path d="M74.5543 19.4837H79.05C80.8282 25.9454 81.1301 27.2661 81.5998 30.0421C82.1836 26.8146 82.2708 26.4575 83.1297 23.0279L84.0154 19.4702H88.397L83.7 34.004H79.2446L74.5543 19.4837Z" fill="#0073FF"/>
<path d="M104.568 30.3116C104.074 31.1052 103.486 31.8359 102.817 32.488C101.32 33.8414 99.3692 34.5777 97.3549 34.5498C93.0538 34.5498 90.0343 31.767 90.0343 27.0302C90.0343 23.5197 91.7521 19.0053 97.4623 19.0053C98.4275 18.9757 99.3885 19.1459 100.285 19.5052C101.182 19.8646 101.996 20.4054 102.676 21.094C104.568 23.1154 104.689 25.9723 104.729 27.6097H94.3958C94.3958 29.4222 95.3889 31.228 97.7105 31.228C100.032 31.228 100.844 29.6917 101.374 28.6675L104.568 30.3116ZM100.321 24.9212C100.286 24.1637 100.003 23.4389 99.5155 22.8594C98.9515 22.332 98.206 22.0446 97.4354 22.0576C97.0297 22.055 96.628 22.1376 96.2559 22.3C95.8838 22.4625 95.5496 22.7012 95.2748 23.0009C94.8135 23.5466 94.5157 24.2125 94.416 24.9212H100.321Z" fill="#0073FF"/>
<path d="M108.956 15.2792H113.204V19.8206H116.002V22.4349H113.177V29.0112C113.177 29.9006 113.177 30.6754 114.284 30.6754L115.814 30.6216V33.9569C115.072 34.0913 114.32 34.1656 113.566 34.1792C112.09 34.1792 110.486 34.0984 109.54 32.7575C108.956 31.895 108.93 30.8641 108.93 29.4761V22.408H106.823V19.7869H108.93L108.956 15.2792Z" fill="#0073FF"/>
<path d="M123.678 20.9863C124.841 19.9637 126.32 19.3758 127.865 19.322V23.1222L126.456 23.3445C124.403 23.7017 123.772 24.0183 123.772 25.8511V34.0175H119.525V19.4567H123.685L123.678 20.9863Z" fill="#0073FF"/>
<path d="M130.952 23.6208C130.943 23.0011 131.077 22.3877 131.342 21.828C131.607 21.2684 131.997 20.7775 132.482 20.3933C133.824 19.3422 135.528 19.1198 137.226 19.1198C138.923 19.1198 143.311 19.5308 143.311 23.2906V31.7064C143.311 33.2696 143.392 33.4919 143.727 33.9906H139.567V32.643C138.46 33.4515 137.266 34.3746 135.139 34.3746C131.824 34.3746 130.401 31.9759 130.401 29.9275C130.401 27.5894 132.26 26.2553 133.448 25.7567C135.313 25.1559 137.222 24.7052 139.158 24.4091V23.6275C139.104 22.9537 139.051 21.842 137.501 21.842C135.615 21.842 135.36 23.0144 135.253 23.5467L130.952 23.6208ZM136.36 28.0005C135.642 28.2767 134.528 28.6743 134.528 29.8063C134.551 30.2174 134.734 30.603 135.038 30.8793C135.342 31.1556 135.742 31.3002 136.152 31.2819C136.676 31.2657 137.185 31.1023 137.621 30.8102C139.031 29.9208 139.091 28.5867 139.124 27.0774L136.36 28.0005Z" fill="#0073FF"/>
<path d="M152.464 20.7908C152.857 20.3081 153.352 19.9192 153.913 19.6521C154.747 19.3008 155.64 19.1132 156.544 19.0995C157.439 19.0776 158.326 19.2766 159.127 19.679C160.65 20.4876 161.039 21.7948 161.039 24.052V34.0174H156.799V25.8308C156.872 25.1018 156.806 24.3654 156.604 23.6612C156.436 23.3024 156.163 23.0037 155.821 22.805C155.479 22.6063 155.085 22.5171 154.692 22.5494C152.444 22.5494 152.444 24.3619 152.444 26.1677V34.0174H148.19V19.5106H152.491L152.464 20.7908Z" fill="#0073FF"/>
<path d="M22.2704 24.0385H26.7728C26.9507 24.0385 27.1214 23.9675 27.2472 23.8412C27.3731 23.7148 27.4438 23.5434 27.4438 23.3647C27.4434 23.2723 27.4252 23.1807 27.3901 23.0952L19.6468 1.93122C19.599 1.8067 19.5154 1.69924 19.4067 1.62247C19.298 1.5457 19.169 1.50308 19.0362 1.5H14.5204C14.3424 1.5 14.1718 1.57098 14.0459 1.69734C13.9201 1.8237 13.8494 1.9951 13.8494 2.1738C13.8495 2.25193 13.8631 2.32944 13.8896 2.40289L21.6396 23.6208C21.6908 23.746 21.7784 23.8528 21.8909 23.9273C22.0034 24.0018 22.1356 24.0406 22.2704 24.0385Z" fill="#0073FF"/>
<path d="M21.4718 46.5299H25.9742C26.1521 46.5299 26.3228 46.4589 26.4486 46.3325C26.5744 46.2062 26.6451 46.0348 26.6451 45.8561C26.6451 45.778 26.6314 45.7004 26.6049 45.627L10.6419 1.94466C10.5936 1.8191 10.5091 1.71092 10.399 1.63407C10.289 1.55721 10.1586 1.51519 10.0245 1.51344H5.52886C5.3509 1.51344 5.18024 1.58442 5.05441 1.71078C4.92857 1.83715 4.85787 2.00854 4.85787 2.18724C4.85796 2.26537 4.87158 2.34289 4.89812 2.41633L20.8612 46.1054C20.91 46.2287 20.994 46.3347 21.1026 46.4102C21.2113 46.4857 21.3397 46.5274 21.4718 46.5299Z" fill="#0073FF"/>
<path d="M12.6013 46.5299H17.097C17.266 46.5305 17.4291 46.4669 17.5535 46.352C17.6779 46.2371 17.7545 46.0792 17.768 45.91C17.7677 45.8209 17.7542 45.7323 17.7277 45.6472L9.95761 24.463C9.9098 24.3385 9.82624 24.231 9.71754 24.1543C9.60883 24.0775 9.47985 24.0349 9.34698 24.0318H4.82447C4.65358 24.0421 4.49307 24.1176 4.37581 24.2429C4.25856 24.3681 4.19342 24.5337 4.19373 24.7056C4.19352 24.7794 4.20718 24.8525 4.23399 24.9212L11.9706 46.1122C12.0218 46.2374 12.1093 46.3442 12.2218 46.4187C12.3343 46.4932 12.4666 46.5319 12.6013 46.5299Z" fill="#0073FF"/>
<path d="M22.8139 2.4231L26.444 12.3347C26.4918 12.4592 26.5753 12.5667 26.684 12.6434C26.7927 12.7202 26.9217 12.7628 27.0546 12.7659H31.5368C31.7148 12.7659 31.8855 12.6949 32.0113 12.5685C32.1371 12.4422 32.2078 12.2708 32.2078 12.0921C32.2078 12.014 32.1941 11.9364 32.1676 11.863L28.5375 1.94469C28.4897 1.82017 28.4061 1.71271 28.2974 1.63594C28.1887 1.55917 28.0597 1.51655 27.9269 1.51347H23.4245C23.2465 1.51347 23.0759 1.58445 22.95 1.71081C22.8242 1.83717 22.7535 2.00856 22.7535 2.18727C22.7592 2.26891 22.7797 2.34883 22.8139 2.4231Z" fill="#0073FF"/>
<path d="M4.30107 46.5299H8.79676C8.97472 46.5299 9.14538 46.4589 9.27121 46.3326C9.39705 46.2062 9.46775 46.0348 9.46775 45.8561C9.46766 45.778 9.45404 45.7005 9.4275 45.627L5.77727 35.6885C5.72903 35.5629 5.64448 35.4548 5.53445 35.3779C5.42443 35.3011 5.29398 35.259 5.15997 35.2573H0.670997C0.493037 35.2573 0.322376 35.3283 0.19654 35.4546C0.0707038 35.581 0 35.7524 0 35.9311C0.000245533 36.0114 0.0138512 36.0911 0.0402582 36.1669L3.67033 46.1054C3.72047 46.2319 3.80761 46.3401 3.92019 46.4159C4.03278 46.4917 4.16554 46.5314 4.30107 46.5299Z" fill="#0073FF"/>
</svg>
