<svg width="160" height="48" viewBox="0 0 160 48" fill="none" xmlns="http://www.w3.org/2000/svg">
<g clip-path="url(#clip0_201_7944)">
<path d="M38.8888 9.33862C34.8721 9.33862 33.4623 12.1316 33.4623 14.7385V16.3345H32.6111C31.9993 16.3345 31.5205 16.8133 31.5205 17.4251C31.5205 18.0369 31.9993 18.5157 32.6111 18.5157H33.4623V29.5281C33.4623 30.1665 33.9677 30.6985 34.6327 30.6985C35.2711 30.6985 35.8031 30.1931 35.8031 29.5281V18.5157H38.3833C38.9951 18.5157 39.474 18.0369 39.474 17.4251C39.474 16.8133 38.9951 16.3345 38.3833 16.3345H35.8031V14.7385C35.8031 13.2754 36.3351 11.5464 38.9153 11.5464C39.5272 11.5464 40.006 11.0676 40.006 10.4558C39.9794 9.81742 39.5006 9.33862 38.8888 9.33862Z" fill="#4D4D4D"/>
<path d="M47.9331 15.9614C46.2041 15.9614 44.7411 16.6796 43.9165 17.85V17.2382C43.9165 16.5998 43.4111 16.0678 42.7461 16.0678C42.1077 16.0678 41.5757 16.5732 41.5757 17.2382V29.5275C41.5757 30.1659 42.0811 30.6979 42.7461 30.6979C43.3845 30.6979 43.9165 30.1925 43.9165 29.5275V22.7445C43.9165 19.8982 45.4327 18.1958 47.9331 18.1958C48.5449 18.1958 49.0503 17.6904 49.0503 17.0786C49.0769 16.4668 48.5715 15.9614 47.9331 15.9614Z" fill="#4D4D4D"/>
<path d="M62.1645 21.9996C62.1645 21.3346 62.0581 19.6056 61.0473 18.1692C60.0098 16.6796 58.3872 15.9082 56.1794 15.9082C52.083 15.9082 49.7422 18.6214 49.7422 23.3562C49.7422 28.2507 52.083 30.8575 56.472 30.8575C59.4246 30.8575 61.0472 29.3945 61.3399 29.1019C61.5261 28.9157 61.7389 28.6763 61.7389 28.2773C61.7389 27.6921 61.2601 27.2133 60.6748 27.2133C60.3822 27.2133 60.196 27.2931 60.0098 27.4261C59.1586 28.0645 58.1744 28.7029 56.4986 28.7029C53.8652 28.7029 52.1894 26.9739 52.1096 24.1543H60.7546C62.1645 24.1277 62.1645 22.8508 62.1645 21.9996ZM56.1794 18.0362C58.5734 18.0362 59.8236 19.3928 59.8768 22.0528H52.1362C52.349 19.4726 53.7854 18.0362 56.1794 18.0362Z" fill="#4D4D4D"/>
<path d="M69.985 22.1865C68.2559 21.6013 66.7663 21.0693 66.7663 19.7924C66.7663 18.3826 68.3357 18.1698 69.2667 18.1698C70.9426 18.1698 71.7672 18.755 72.4322 19.3934C72.645 19.6062 72.911 19.7127 73.2036 19.7127C73.7888 19.7127 74.2676 19.2338 74.2676 18.6486C74.2676 18.3294 74.1346 18.1166 74.0282 17.957C73.044 16.6536 71.3682 15.9354 69.2667 15.9354C66.2875 15.9354 64.4521 17.425 64.4521 19.7924C64.4521 22.6919 67.0057 23.5697 69.2401 24.3145C70.9426 24.8997 72.4056 25.3785 72.4056 26.6287C72.4056 28.3311 70.5169 28.5971 69.3731 28.5971C67.8303 28.5971 66.6333 28.1183 65.6491 27.1607C65.3565 26.8681 65.0373 26.8149 64.8511 26.8149C64.2659 26.8149 63.7871 27.2937 63.7871 27.8789C63.7871 28.1183 63.8669 28.3045 64.0531 28.5705C64.9309 29.6877 66.9259 30.8315 69.3731 30.8315C72.7248 30.8315 74.7198 29.2621 74.7198 26.6553C74.7198 23.8357 72.2194 22.9579 69.985 22.1865Z" fill="#4D4D4D"/>
<path d="M83.7904 15.9084C82.1944 15.9084 80.758 16.5468 79.96 17.5576V9.68395C79.96 9.04555 79.4545 8.51355 78.7895 8.51355C78.1511 8.51355 77.6191 9.01895 77.6191 9.68395V29.5543C77.6191 30.1927 78.1245 30.7247 78.7895 30.7247C79.4279 30.7247 79.96 30.2193 79.96 29.5543V22.0796C79.96 19.393 81.2634 18.0364 83.7904 18.0364C86.2376 18.0364 87.2484 19.1536 87.2484 21.8668V29.5543C87.2484 30.1927 87.7538 30.7247 88.4188 30.7247C89.0572 30.7247 89.5892 30.2193 89.5892 29.5543V21.4678C89.536 17.7704 87.5942 15.9084 83.7904 15.9084Z" fill="#4D4D4D"/>
<path d="M108.927 16.0951C108.422 16.0951 108.023 16.3877 107.837 16.8665L104.512 26.3362L101.798 16.8665C101.692 16.4941 101.293 16.0951 100.708 16.0951C100.123 16.0951 99.7235 16.4941 99.6171 16.8665L96.9039 26.3096L93.5789 16.8399C93.3927 16.3611 92.9937 16.0951 92.4883 16.0951C91.8499 16.0951 91.3179 16.6005 91.3179 17.2655C91.3179 17.4251 91.3445 17.5847 91.4243 17.7443L95.8665 29.9538C96.0527 30.4326 96.4517 30.6986 96.9571 30.6986C97.4891 30.6986 97.9413 30.3528 98.0743 29.874L100.681 20.9097L103.288 29.874C103.421 30.3528 103.9 30.6986 104.405 30.6986C104.911 30.6986 105.31 30.406 105.496 29.9272L109.938 17.7177C110.018 17.5581 110.044 17.3719 110.044 17.2123C110.071 16.6005 109.566 16.0951 108.927 16.0951Z" fill="#4D4D4D"/>
<path d="M117.386 15.9082C113.157 15.9082 110.842 18.5682 110.842 23.3562C110.842 28.1975 113.157 30.8575 117.386 30.8575C121.615 30.8575 123.93 28.1975 123.93 23.3562C123.93 18.5416 121.589 15.9082 117.386 15.9082ZM117.386 28.7295C114.566 28.7295 113.183 26.9739 113.183 23.3828C113.183 19.845 114.593 18.0628 117.386 18.0628C120.179 18.0628 121.589 19.845 121.589 23.3828C121.589 26.9739 120.206 28.7295 117.386 28.7295Z" fill="#4D4D4D"/>
<path d="M132.921 15.9614C131.192 15.9614 129.729 16.6796 128.904 17.85V17.2382C128.904 16.5998 128.399 16.0678 127.734 16.0678C127.095 16.0678 126.563 16.5732 126.563 17.2382V29.5275C126.563 30.1659 127.069 30.6979 127.734 30.6979C128.372 30.6979 128.904 30.1925 128.904 29.5275V22.7445C128.904 19.8982 130.42 18.1958 132.921 18.1958C133.533 18.1958 134.038 17.6904 134.038 17.0786C134.038 16.4668 133.533 15.9614 132.921 15.9614Z" fill="#4D4D4D"/>
<path d="M141.752 22.0264L146.567 18.1694C146.966 17.8502 147.019 17.4512 147.019 17.2384C147.019 16.6 146.514 16.068 145.849 16.068C145.662 16.068 145.343 16.0946 145.051 16.3606L138.214 21.9466V9.68395C138.214 9.04555 137.709 8.51355 137.044 8.51355C136.406 8.51355 135.874 9.01895 135.874 9.68395V29.5543C135.874 30.1927 136.379 30.7247 137.044 30.7247C137.682 30.7247 138.214 30.2193 138.214 29.5543V24.7662L139.837 23.4628L145.077 30.1927C145.37 30.5385 145.689 30.7247 146.061 30.7247C146.7 30.7247 147.232 30.2193 147.232 29.5543C147.232 29.3681 147.205 29.1021 146.992 28.8361L141.752 22.0264Z" fill="#4D4D4D"/>
<path d="M154.866 22.1865C153.137 21.6013 151.648 21.0693 151.648 19.7924C151.648 18.3826 153.217 18.1698 154.148 18.1698C155.824 18.1698 156.649 18.755 157.314 19.3934C157.526 19.6062 157.792 19.7127 158.085 19.7127C158.67 19.7127 159.149 19.2338 159.149 18.6486C159.149 18.3028 158.963 18.0634 158.91 17.957C157.925 16.6536 156.249 15.9354 154.148 15.9354C151.169 15.9354 149.333 17.425 149.333 19.7924C149.333 22.6919 151.887 23.5697 154.121 24.3145C155.824 24.8997 157.287 25.3785 157.287 26.6287C157.287 28.3311 155.398 28.5971 154.254 28.5971C152.712 28.5971 151.515 28.1183 150.53 27.1607C150.238 26.8681 149.945 26.8149 149.732 26.8149C149.147 26.8149 148.668 27.2937 148.668 27.8789C148.668 28.1183 148.748 28.3045 148.934 28.5705C149.812 29.6877 151.807 30.8315 154.254 30.8315C157.606 30.8315 159.601 29.2621 159.601 26.6553C159.601 23.8357 157.101 22.9579 154.866 22.1865Z" fill="#4D4D4D"/>
<path d="M0.159668 28.8891C0.611871 31.8417 1.99508 34.5017 3.99009 36.4967L8.64512 31.8417C8.64512 27.1335 11.0923 22.5583 15.4548 20.0312L0.159668 28.8891Z" fill="#9B65C3"/>
<path d="M8.64512 31.8424C6.3309 31.8424 3.99009 31.2572 1.83548 30.007C1.25027 29.6612 0.691671 29.2888 0.159668 28.8632C0.611871 31.8158 1.99508 34.4758 3.99009 36.4708L8.64512 31.8424Z" fill="#9B65C3"/>
<path d="M8.64477 31.8419L3.98975 36.4969C6.01136 38.5185 8.64477 39.9017 11.5974 40.3273L20.4286 25.0322C17.9282 29.3947 13.353 31.8419 8.64477 31.8419Z" fill="#BE63C5"/>
<path d="M10.4802 38.6776C9.22998 36.5229 8.64477 34.1821 8.64477 31.8679L3.98975 36.5229C6.01136 38.5446 8.64477 39.9278 11.5974 40.3534C11.1984 39.8214 10.826 39.2628 10.4802 38.6776Z" fill="#BF63C6"/>
<path d="M25.9886 13.9661L15.4815 20.0575C11.1191 22.5845 5.93209 22.3983 1.86227 20.0575C0.691859 22.0525 0.0268555 24.3933 0.0268555 26.8671C0.0268555 27.5587 0.0800554 28.2237 0.186456 28.8888C0.718459 29.3144 1.27706 29.6868 1.86227 30.0326C4.01688 31.2828 6.35769 31.868 8.6719 31.868L26.2812 14.2587C26.1748 14.1523 26.095 14.0459 25.9886 13.9661Z" fill="#3278B1"/>
<path d="M1.83522 30.0333C3.98984 31.2835 6.33065 31.8687 8.64486 31.8687C8.64486 27.1605 11.0921 22.5852 15.4545 20.0582L0.132812 28.8895C0.691416 29.2885 1.25002 29.6875 1.83522 30.0333Z" fill="#3278B2"/>
<path d="M1.83541 20.0582C0.665004 22.0532 0 24.3941 0 26.8679C0 27.5595 0.0532004 28.2245 0.159601 28.8895L15.4813 20.0582C11.0923 22.5586 5.90523 22.399 1.83541 20.0582Z" fill="#45A4EC"/>
<path d="M26.281 14.2324C26.2012 14.1526 26.0948 14.0462 25.9884 13.9664C25.8554 13.86 25.7224 13.7536 25.5628 13.6738C25.0574 13.3812 24.4722 13.2216 23.8604 13.2216H13.6459C8.59189 13.2216 4.20286 15.9614 1.83545 20.0312C5.90527 22.372 11.0923 22.5582 15.4547 20.0312C11.0923 22.5582 8.64509 27.1334 8.64509 31.8417C13.3533 31.8417 17.9285 29.3945 20.4556 25.032L26.5204 14.525C26.4406 14.4186 26.3608 14.3122 26.281 14.2324Z" fill="#19BB7D"/>
<path d="M15.4813 20.0576L25.9884 13.9928C25.8554 13.8864 25.7224 13.78 25.5628 13.7002L1.83545 20.0576C5.90527 22.3984 11.0923 22.558 15.4813 20.0576Z" fill="#08C7FB"/>
<path d="M23.8604 13.2216H13.6459C8.59189 13.2216 4.20286 15.9614 1.83545 20.0312L25.5628 13.6738C25.0574 13.4078 24.4988 13.2216 23.8604 13.2216Z" fill="#59F2F6"/>
<path d="M20.4555 25.0317L26.5203 14.5247C26.4405 14.4183 26.3607 14.3385 26.2543 14.2321L8.64502 31.8414C8.64502 34.1556 9.23022 36.4964 10.4804 38.651C10.8262 39.2362 11.1986 39.7948 11.6242 40.3268C12.2892 40.4332 12.9542 40.4864 13.6458 40.4864C16.1197 40.4864 18.4605 39.8214 20.4555 38.651C18.1147 34.5812 17.9285 29.3941 20.4555 25.0317Z" fill="#DA3757"/>
<path d="M8.64502 31.8419C8.64502 34.1561 9.23022 36.4969 10.4804 38.6515C10.8262 39.2367 11.1986 39.7953 11.6242 40.3273L20.4555 25.0322C17.9285 29.3947 13.3532 31.8419 8.64502 31.8419Z" fill="#D33C4E"/>
<path d="M20.4558 25.0322L11.6245 40.3539C12.2895 40.4603 12.9545 40.5135 13.6461 40.5135C16.1199 40.5135 18.4608 39.8485 20.4558 38.6781C18.1149 34.5817 17.9287 29.3947 20.4558 25.0322Z" fill="#EE5A24"/>
<path d="M26.8132 14.9503C26.7334 14.7907 26.627 14.6577 26.5206 14.5247C26.4408 14.4183 26.361 14.3385 26.2546 14.2321C26.1748 14.1523 26.0684 14.0459 25.962 13.9661L15.4815 20.0575C11.1191 22.5845 8.67188 27.1597 8.67188 31.868C13.3801 31.868 17.9553 29.4207 20.4823 25.0583C17.9553 29.4207 18.1415 34.6078 20.4823 38.6776C24.5522 36.3102 27.292 31.9212 27.292 26.8671V16.6527C27.2654 16.0143 27.1058 15.4291 26.8132 14.9503Z" fill="#8BDF55"/>
<path d="M25.9886 13.9661L15.4815 20.0575C11.1191 22.5845 8.67188 27.1597 8.67188 31.868L26.2812 14.2587C26.1748 14.1523 26.095 14.0459 25.9886 13.9661Z" fill="#25C16F"/>
<path d="M8.64502 31.8414C13.3532 31.8414 17.9285 29.3941 20.4555 25.0317L26.5203 14.5247C26.4405 14.4183 26.3607 14.3385 26.2543 14.2321L8.64502 31.8414Z" fill="#8BDF55"/>
<path d="M26.5203 14.5253L20.4555 25.0323C17.9285 29.3948 18.1147 34.5818 20.4555 38.6516L26.8129 14.9243C26.7331 14.7913 26.6267 14.6583 26.5203 14.5253Z" fill="#FFBB00"/>
<path d="M20.4551 38.6781C24.5249 36.3107 27.2647 31.9217 27.2647 26.8677V16.6532C27.2647 16.0414 27.1051 15.4562 26.8125 14.9508L20.4551 38.6781Z" fill="#FFA800"/>
</g>
<defs>
<clipPath id="clip0_201_7944">
<rect width="160" height="48" fill="white"/>
</clipPath>
</defs>
</svg>
