<svg width="104" height="48" viewBox="0 0 104 48" fill="none" xmlns="http://www.w3.org/2000/svg">
<path d="M7.09288 30.8785H0.0597369V34.3952H7.09288V30.8785Z" fill="#404041"/>
<path d="M17.6394 30.8785H10.6107V34.3952H17.6394V30.8785Z" fill="#404041"/>
<path d="M17.6413 23.8455H0.0556641V27.3622H17.6413V23.8455Z" fill="#404041"/>
<path d="M10.6105 16.8129H0.059741V20.3294H10.6105V16.8129Z" fill="#404041"/>
<path d="M17.6431 16.8129H14.1266V20.3294H17.6431V16.8129Z" fill="#404041"/>
<path d="M68.694 16.7929C63.0463 16.7929 60.1295 20.7868 60.1295 25.7135C60.1295 30.6404 62.9744 34.6348 68.694 34.6348C74.4136 34.6348 77.2585 30.6404 77.2585 25.7135C77.2588 20.7868 74.3415 16.7929 68.694 16.7929ZM72.9667 25.7295C72.9627 28.8976 71.8952 31.4637 68.694 31.4637C65.4928 31.4637 64.425 28.8978 64.4217 25.7295V25.7137C64.425 22.5458 65.493 19.9799 68.6942 19.9799C71.8952 19.9799 72.9627 22.5458 72.9667 25.7137V25.7217C72.9667 25.7244 72.9667 25.7268 72.9667 25.7295Z" fill="#404041"/>
<path d="M43.4061 34.3949V9.73066C43.4061 9.73066 46.6592 9.26856 46.9114 9.23462C47.1972 9.19602 47.5765 9.39945 47.5765 9.80165V18.9448C48.2516 18.303 48.995 17.7856 49.8052 17.3914C50.616 16.9976 51.5668 16.8004 52.6592 16.8004C53.6049 16.8004 54.4428 16.9608 55.1745 17.2818C55.9066 17.6022 56.5173 18.0529 57.0069 18.6322C57.4965 19.2123 57.8681 19.9045 58.1215 20.7093C58.3746 21.5142 58.5013 22.4007 58.5013 23.3688V34.3947H54.3306V23.3688C54.3306 22.3108 54.0857 21.4918 53.5961 20.9116C53.1062 20.3322 52.3717 20.0422 51.392 20.0422C50.6717 20.0422 49.9966 20.2055 49.3666 20.5323C48.7359 20.8588 48.1393 21.303 47.5765 21.8662V34.3949H43.4061Z" fill="#404041"/>
<path d="M99.0849 34.6324C96.2149 34.6324 94.4162 32.9622 94.4162 29.8461V20.6112H91.1817C91.1817 20.6112 91.8692 18.2335 91.9235 18.0462C91.9781 17.8592 92.1203 17.6582 92.4058 17.6185C92.6913 17.5788 94.4122 17.3388 94.4122 17.3388L95.2071 12.282C95.2071 12.282 97.5424 11.9528 97.9127 11.8976C98.2623 11.8452 98.5793 12.097 98.5793 12.4779V17.3388H102.67V20.6112H98.5793V29.7217C98.5793 30.9656 99.3367 31.441 100.063 31.441C100.506 31.441 101.114 31.2054 101.567 30.9951C101.848 30.8655 102.282 30.9616 102.394 31.3527C102.493 31.6992 103.02 33.5385 103.02 33.5385C102.565 33.8323 101.127 34.6324 99.0849 34.6324Z" fill="#404041"/>
<path d="M88.8908 20.6663C88.078 20.4023 86.5501 19.9797 85.0968 19.9797C83.616 19.9797 82.4509 20.4913 82.4509 21.7225C82.4509 23.2604 84.962 23.708 86.6808 24.335C87.83 24.754 90.9116 25.5711 90.9116 28.8855C90.9116 32.9115 87.5682 34.6328 84.0016 34.6328C80.4346 34.6328 78.3272 33.3062 78.3272 33.3062C78.3272 33.3062 78.8805 31.3517 78.9926 30.9659C79.0939 30.6187 79.4975 30.4969 79.7546 30.5957C80.6726 30.9495 82.3302 31.4413 84.2039 31.4413C86.1009 31.4413 87.0187 30.8621 87.0187 29.6273C87.0187 27.9839 84.457 27.4816 82.7628 26.9472C81.5957 26.5794 78.5065 25.7215 78.5065 22.0764C78.5065 18.4856 81.6596 16.8009 85.0294 16.8009C87.8819 16.8009 89.281 17.3975 90.3261 17.9299C90.3261 17.9299 89.7438 19.9595 89.6573 20.2619C89.5552 20.6213 89.2604 20.7861 88.8908 20.6663Z" fill="#404041"/>
<path d="M41.7787 17.3954C41.7787 17.0069 41.4468 16.7846 41.1302 16.8208C39.7306 16.9812 38.7321 17.6398 38.0861 18.253C36.8176 17.2591 35.0568 16.7846 33.0806 16.7846C29.1185 16.7846 26.0228 18.6969 26.0228 22.8667C26.0228 25.2604 27.0418 26.9098 28.6599 27.8808C27.4582 28.4497 26.6578 29.6567 26.6578 30.8434C26.6578 32.8284 28.226 33.45 28.226 33.45C28.226 33.45 25.484 34.7809 25.484 37.4435C25.484 40.8519 28.6206 42.23 32.4534 42.23C37.9783 42.23 41.7794 39.9481 41.7794 35.7581C41.7794 33.1794 39.806 31.7558 35.5058 31.5865C32.9539 31.4858 31.301 31.394 30.8914 31.2584C30.3504 31.0787 30.0844 30.6455 30.0844 30.1672C30.0844 29.6392 30.5181 29.1365 31.2018 28.7913C31.7981 28.8969 32.4275 28.949 33.081 28.949C37.0465 28.949 40.139 27.0423 40.139 22.8669C40.139 21.8544 39.9562 20.9755 39.6239 20.2245C40.2065 19.9137 40.9233 19.695 41.7791 19.695C41.7791 19.695 41.7787 17.7496 41.7787 17.3954ZM30.8597 34.4168C30.8597 34.4168 32.9404 34.4956 35.0195 34.5919C37.3553 34.6999 38.0832 35.2033 38.0832 36.4128C38.0832 37.8905 36.0533 39.3278 33.2166 39.3278C30.5238 39.3278 29.1788 38.391 29.1788 36.8312C29.1788 35.9362 29.6513 34.9351 30.8597 34.4168ZM33.0881 26.0384C31.2111 26.0384 29.7467 25.0415 29.7467 22.8667C29.7467 20.6917 31.2125 19.6948 33.0881 19.6948C34.9641 19.6948 36.4296 20.6891 36.4296 22.8667C36.4296 25.0443 34.9658 26.0384 33.0881 26.0384Z" fill="#404041"/>
</svg>
