<svg width="123" height="48" viewBox="0 0 123 48" fill="none" xmlns="http://www.w3.org/2000/svg">
<path d="M38.7687 21.2385H27.106C26.4377 21.2385 25.9364 21.9235 26.1703 22.5585L28.9774 29.8267C29.1111 30.1442 28.8437 30.4951 28.5095 30.4784L24.9005 30.2445C24.7501 30.2278 24.583 30.3113 24.4828 30.445L21.6924 34.4049C21.542 34.6221 21.2413 34.7057 21.0074 34.5553L16.897 31.7482C16.7466 31.6313 16.5127 31.6313 16.3624 31.7482L10.648 35.6246C10.2804 35.8753 9.79585 35.5244 9.91281 35.1067L11.5001 29.409C11.567 29.1751 11.45 28.9245 11.2161 28.8409L8.19181 27.6045C7.89106 27.4708 7.79081 27.1199 8.00802 26.8526L10.6981 23.5443C10.8318 23.3772 10.8485 23.1433 10.7148 22.9762L8.42574 19.718C8.22523 19.4172 8.40903 18.9995 8.79333 18.9661L12.2854 18.6988C12.5361 18.6821 12.7533 18.4649 12.7366 18.1975L12.4692 13.3019C12.4525 12.951 12.8034 12.7004 13.1376 12.834L17.4651 14.6219C17.6489 14.7054 17.8828 14.6553 17.9998 14.4882L20.9906 11.1632C21.2246 10.8958 21.659 10.9794 21.7927 11.2968L23.5805 15.9084C23.8144 16.4765 24.5329 16.6937 25.0341 16.3094L32.0518 11.0796C32.8538 10.4948 32.3358 9.22496 31.35 9.35863L26.7384 9.97685C26.5212 10.0103 26.304 9.8766 26.2372 9.6761L23.8144 3.44377C23.5471 2.79213 22.6949 2.64175 22.2271 3.15972L16.9472 8.89079C16.7968 9.04117 16.5963 9.07459 16.4125 9.00775L9.44496 6.06703C8.82674 5.8164 8.14169 6.23411 8.10827 6.91917L7.85764 14.0872C7.84093 14.3378 7.65714 14.5383 7.40651 14.555L1.05722 14.9727C0.305326 15.0229 -0.0789731 15.8583 0.322035 16.4598L4.54933 22.6754C4.683 22.8425 4.66629 23.0932 4.51591 23.2602L0.238492 28.1893C-0.195934 28.6738 -0.0121384 29.4424 0.589373 29.6931L5.51843 31.8151C5.73564 31.9153 5.8526 32.1492 5.78577 32.3665L2.64454 44.6473C2.42733 45.5162 3.41314 46.1845 4.13161 45.6666L15.9446 37.1953C16.095 37.0783 16.3289 37.0616 16.496 37.1953L21.8762 40.9714C22.3273 41.2889 22.9289 41.1552 23.2296 40.7208L26.5881 35.5578C26.6883 35.4074 26.8721 35.3239 27.0559 35.3573L35.1095 36.3264C35.7611 36.4267 36.4127 35.8753 36.1788 35.2738L32.8371 26.602C32.7368 26.368 32.8371 26.1174 33.1211 25.967L39.2365 23.0764C40.1221 22.6253 39.8046 21.2385 38.7687 21.2385Z" fill="#8039E9"/>
<path d="M122.463 21.2552H113.407C113.24 21.2552 113.073 21.4056 113.073 21.5894V25.5995C113.073 25.7666 113.223 25.9337 113.407 25.9337H117.283C117.467 25.9337 117.617 26.084 117.617 26.2678C117.584 28.323 117.15 32.049 113.407 32.049C110.349 32.049 109.113 28.3564 109.113 24.0122C109.113 18.8659 110.383 15.6912 113.223 15.6912C115.295 15.6912 115.963 17.4457 116.164 18.0806C116.214 18.231 116.331 18.3145 116.481 18.3145H121.193C121.377 18.3145 121.544 18.1474 121.527 17.9636C121.343 15.3905 119.138 10.8792 113.323 10.8792C109.263 10.8792 105.453 13.352 104.234 19.4674V11.5976C104.234 11.4974 104.15 11.4305 104.067 11.4305H99.0875C98.9872 11.4305 98.9204 11.5141 98.9204 11.5976V25.6663C98.9204 25.8334 98.6865 25.8835 98.6029 25.7332L92.0698 11.5308C92.0364 11.464 91.9863 11.4305 91.9195 11.4305H87.5084C87.4081 11.4305 87.3413 11.5141 87.3413 11.5976V19.4841C85.7038 14.4882 81.2593 10.8959 75.4781 10.8959C69.0286 10.8959 64.2499 15.3571 63.1639 21.2719H54.1412C54.0409 21.2719 53.9908 21.3555 53.9908 21.439V25.7833C53.9908 25.8835 54.0743 25.9504 54.1412 25.9504H58.3518C58.452 25.9504 58.5021 26.0339 58.5021 26.1007C58.4854 28.1225 58.1346 32.0323 54.2749 32.0323C51.2172 32.0323 49.9974 28.3397 49.9974 23.9955C49.9974 18.8492 51.2673 15.6745 54.1078 15.6745C56.2966 15.6745 56.9315 17.6629 57.0819 18.1808C57.0986 18.2644 57.1655 18.3145 57.2323 18.3145H62.2449C62.3451 18.3145 62.412 18.231 62.3953 18.1474C62.295 15.6077 60.1229 10.8959 54.1746 10.8959C49.2455 10.8959 44.6841 14.5551 44.6841 23.962C44.6841 30.445 47.2238 36.8277 54.2581 36.8277C59.4712 36.8277 62.7963 32.8009 63.5315 27.9554C65.1021 33.1184 69.5967 36.8277 75.4781 36.8277C81.1591 36.8277 85.6871 33.2186 87.3413 28.1893V36.1594C87.3413 36.2596 87.4248 36.3264 87.5084 36.3264H92.4876C92.5878 36.3264 92.6546 36.2429 92.6546 36.1594V22.3246C92.6546 22.1575 92.8886 22.1074 92.9721 22.2577L99.5052 36.2429C99.5386 36.3097 99.5887 36.3431 99.6556 36.3431H104.067C104.167 36.3431 104.234 36.2596 104.234 36.1928V28.2896C105.203 33.0348 107.943 36.8778 113.39 36.8778C119.322 36.8778 122.814 31.648 122.814 25.9337V21.6562C122.797 21.3889 122.647 21.2552 122.463 21.2552ZM75.4614 31.6313C71.2676 31.6313 68.3603 28.4065 68.3603 23.8618C68.3603 19.3003 71.2676 16.0923 75.4614 16.0923C79.6386 16.0923 82.5626 19.317 82.5626 23.8618C82.5626 28.4065 79.6386 31.6313 75.4614 31.6313Z" fill="#3E0075"/>
</svg>
