<svg width="113" height="48" viewBox="0 0 113 48" fill="none" xmlns="http://www.w3.org/2000/svg">
<path d="M48.2375 25.6501C48.2375 30.9734 44.0732 34.896 38.9625 34.896C33.8519 34.896 29.6875 30.9734 29.6875 25.6501C29.6875 20.2894 33.8519 16.4043 38.9625 16.4043C44.0732 16.4043 48.2375 20.2894 48.2375 25.6501ZM44.1774 25.6501C44.1774 22.3236 41.7638 20.0476 38.9625 20.0476C36.1613 20.0476 33.7477 22.3236 33.7477 25.6501C33.7477 28.9433 36.1613 31.2527 38.9625 31.2527C41.7638 31.2527 44.1774 28.9391 44.1774 25.6501Z" fill="#EA4335"/>
<path d="M68.2468 25.6501C68.2468 30.9734 64.0824 34.896 58.9718 34.896C53.8612 34.896 49.6968 30.9734 49.6968 25.6501C49.6968 20.2936 53.8612 16.4043 58.9718 16.4043C64.0824 16.4043 68.2468 20.2894 68.2468 25.6501ZM64.1867 25.6501C64.1867 22.3236 61.7731 20.0476 58.9718 20.0476C56.1705 20.0476 53.7569 22.3236 53.7569 25.6501C53.7569 28.9433 56.1705 31.2527 58.9718 31.2527C61.7731 31.2527 64.1867 28.9391 64.1867 25.6501Z" fill="#FBBC05"/>
<path d="M87.4224 16.9629V33.562C87.4224 40.3901 83.3956 43.1789 78.6351 43.1789C74.1539 43.1789 71.4569 40.1817 70.4398 37.7306L73.9747 36.2591C74.6041 37.7639 76.1465 39.5397 78.631 39.5397C81.6782 39.5397 83.5665 37.6597 83.5665 34.1206V32.7909H83.4248C82.516 33.9122 80.7652 34.8918 78.5559 34.8918C73.933 34.8918 69.6978 30.865 69.6978 25.6835C69.6978 20.4645 73.933 16.4043 78.5559 16.4043C80.7611 16.4043 82.5119 17.3839 83.4248 18.4719H83.5665V16.9671H87.4224V16.9629ZM83.8541 25.6835C83.8541 22.4278 81.6823 20.0476 78.9186 20.0476C76.1173 20.0476 73.7704 22.4278 73.7704 25.6835C73.7704 28.9058 76.1173 31.2527 78.9186 31.2527C81.6823 31.2527 83.8541 28.9058 83.8541 25.6835Z" fill="#4285F4"/>
<path d="M93.779 7.23364V34.3292H89.8188V7.23364H93.779Z" fill="#34A853"/>
<path d="M109.211 28.6932L112.363 30.7941C111.346 32.299 108.895 34.8918 104.659 34.8918C99.407 34.8918 95.4844 30.8317 95.4844 25.646C95.4844 20.1477 99.4403 16.4001 104.205 16.4001C109.003 16.4001 111.35 20.2185 112.117 22.282L112.538 23.3324L100.178 28.4514C101.124 30.3064 102.596 31.2527 104.659 31.2527C106.727 31.2527 108.161 30.2356 109.211 28.6932ZM99.5112 25.3667L107.773 21.936C107.319 20.7813 105.952 19.9768 104.343 19.9768C102.279 19.9768 99.407 21.7984 99.5112 25.3667Z" fill="#EA4335"/>
<path d="M14.6975 23.2447V19.3221H27.9159C28.0451 20.0058 28.1118 20.8145 28.1118 21.6899C28.1118 24.6329 27.3073 28.272 24.7145 30.8648C22.1925 33.491 18.9702 34.8917 14.7016 34.8917C6.78972 34.8917 0.136719 28.4471 0.136719 20.5352C0.136719 12.6233 6.78972 6.17871 14.7016 6.17871C19.0786 6.17871 22.1967 7.89615 24.5394 10.1347L21.7715 12.9026C20.0916 11.3269 17.8155 10.1013 14.6975 10.1013C8.91985 10.1013 4.40114 14.7576 4.40114 20.5352C4.40114 26.3128 8.91985 30.9691 14.6975 30.9691C18.445 30.9691 20.5793 29.4642 21.9466 28.0969C23.0554 26.9881 23.7849 25.4041 24.0725 23.2406L14.6975 23.2447Z" fill="#4285F4"/>
</svg>
