<svg width="180" height="48" viewBox="0 0 180 48" fill="none" xmlns="http://www.w3.org/2000/svg">
<path fill-rule="evenodd" clip-rule="evenodd" d="M54.542 34.3793C53.8831 34.1282 53.4517 33.5963 53.4517 32.8871C53.4517 32.0288 54.1609 31.3211 55.0237 31.3211C55.2778 31.3211 55.4817 31.3713 55.659 31.4467C56.8356 31.9892 58.1174 32.2657 59.4131 32.2563C62.0532 32.2563 63.2957 30.9931 63.2957 28.5642V27.9068C62.1537 29.2734 60.9112 30.1081 58.8561 30.1081C55.6841 30.1081 52.8164 27.8063 52.8164 23.7848V23.736C52.8164 19.6894 55.7343 17.4142 58.8561 17.4142C60.9614 17.4142 62.2039 18.3006 63.244 19.4382V19.4116C63.244 18.3745 64.1068 17.5161 65.1735 17.5161C66.2373 17.5161 67.1001 18.3745 67.1001 19.4367V28.1609C67.1001 30.5883 66.518 32.3568 65.3759 33.4944C64.1068 34.7605 62.1537 35.316 59.515 35.316C57.8121 35.331 56.1228 35.0128 54.542 34.3793ZM63.2957 23.7863V23.736C63.2957 21.8893 61.8479 20.5995 59.9715 20.5995C58.0952 20.5995 56.6739 21.8893 56.6739 23.736V23.7863C56.6739 25.6567 58.0952 26.9213 59.9715 26.9213C61.8479 26.9213 63.2957 25.6316 63.2957 23.7863ZM69.2837 19.4367C69.2837 18.3745 70.1465 17.5161 71.2117 17.5161C72.2784 17.5161 73.1398 18.3745 73.1398 19.4367V20.0425C73.6982 18.7291 74.6113 17.5161 75.7548 17.5161C76.9471 17.5161 77.6311 18.2991 77.6311 19.3865C77.6311 20.3971 76.9722 21.0043 76.1847 21.1816C74.2316 21.6381 73.1412 23.1288 73.1412 25.8591V29.4492C73.1412 30.5115 72.2784 31.3713 71.2117 31.3713C70.959 31.3719 70.7086 31.3227 70.4749 31.2264C70.2412 31.1302 70.0288 30.9889 69.8497 30.8105C69.6707 30.6322 69.5285 30.4203 69.4314 30.1869C69.3343 29.9536 69.2841 29.7034 69.2837 29.4507V19.4367ZM77.1746 27.3262V27.2759C77.1746 24.3167 79.4321 22.9515 82.6558 22.9515C84.0254 22.9515 85.0152 23.179 85.98 23.507V23.2795C85.98 21.6883 84.9901 20.8019 83.0621 20.8019C82.1595 20.7922 81.2608 20.9203 80.3968 21.1816C80.2185 21.2477 80.03 21.2822 79.8398 21.2835C79.6313 21.2874 79.4241 21.2498 79.2303 21.1727C79.0365 21.0956 78.8601 20.9806 78.7112 20.8345C78.5624 20.6885 78.4442 20.5142 78.3635 20.3218C78.2828 20.1295 78.2412 19.9231 78.2413 19.7145C78.2413 19.0319 78.6697 18.4513 79.2814 18.2223C80.4988 17.7673 81.8181 17.5161 83.6191 17.5161C85.7244 17.5161 87.2476 18.0716 88.2109 19.0319C89.2259 20.0425 89.6839 21.5362 89.6839 23.3563V29.5245C89.6839 30.5617 88.8462 31.3713 87.8061 31.3713C86.6891 31.3713 85.9534 30.5883 85.9534 29.7787V29.7521C85.0152 30.7892 83.7225 31.4718 81.8432 31.4718C79.2814 31.4718 77.1746 30.0062 77.1746 27.3262ZM86.0302 26.4397V25.7586C85.2547 25.4178 84.4159 25.2451 83.5688 25.2519C81.9186 25.2519 80.9051 25.9093 80.9051 27.1237V27.174C80.9051 28.2111 81.7679 28.8183 83.0104 28.8183C84.8128 28.8183 86.0302 27.8314 86.0302 26.4397ZM91.739 19.4367C91.739 18.3745 92.6018 17.5161 93.6685 17.5161C94.7337 17.5161 95.5965 18.3745 95.5965 19.4367V19.5889C96.4829 18.4513 97.6516 17.4142 99.6047 17.4142C101.381 17.4142 102.725 18.1972 103.436 19.5638C104.628 18.1736 106.051 17.4142 107.9 17.4142C110.768 17.4142 112.495 19.1339 112.495 22.396V29.4492C112.495 30.5115 111.631 31.3713 110.566 31.3713C110.313 31.3719 110.062 31.3227 109.829 31.2265C109.595 31.1303 109.382 30.989 109.203 30.8106C109.024 30.6323 108.882 30.4204 108.784 30.187C108.687 29.9537 108.637 29.7035 108.636 29.4507V23.6592C108.636 21.839 107.824 20.9038 106.379 20.9038C104.932 20.9038 104.044 21.839 104.044 23.6592V29.4507C104.044 30.5115 103.183 31.3713 102.116 31.3713C101.606 31.3721 101.116 31.1702 100.755 30.8101C100.393 30.4499 100.189 29.961 100.188 29.4507V23.6592C100.188 21.839 99.3757 20.9038 97.9308 20.9038C96.4829 20.9038 95.5965 21.839 95.5965 23.6592V29.4507C95.5965 30.5115 94.7337 31.3713 93.6685 31.3713C93.4156 31.3721 93.1651 31.323 92.9312 31.2269C92.6973 31.1307 92.4847 30.9894 92.3055 30.811C92.1263 30.6327 91.984 30.4207 91.8868 30.1873C91.7896 29.9538 91.7393 29.7035 91.739 29.4507V19.4367ZM114.575 19.4367C114.575 18.3745 115.438 17.5161 116.503 17.5161C117.57 17.5161 118.433 18.3745 118.433 19.4367V19.5889C119.319 18.4513 120.487 17.4142 122.441 17.4142C124.217 17.4142 125.561 18.1972 126.272 19.5638C127.464 18.1736 128.886 17.4142 130.737 17.4142C133.605 17.4142 135.33 19.1339 135.33 22.396V29.4492C135.33 30.5115 134.467 31.3713 133.401 31.3713C132.89 31.3721 132.401 31.1702 132.039 30.8101C131.678 30.4499 131.474 29.961 131.473 29.4507V23.6592C131.473 21.839 130.66 20.9038 129.215 20.9038C127.767 20.9038 126.881 21.839 126.881 23.6592V29.4507C126.881 30.5115 126.018 31.3713 124.953 31.3713C124.7 31.3719 124.45 31.3227 124.216 31.2264C123.982 31.1302 123.77 30.9889 123.591 30.8105C123.412 30.6322 123.27 30.4203 123.172 30.1869C123.075 29.9536 123.025 29.7034 123.025 29.4507V23.6592C123.025 21.839 122.212 20.9038 120.766 20.9038C119.319 20.9038 118.431 21.839 118.431 23.6592V29.4507C118.431 30.5115 117.57 31.3713 116.503 31.3713C116.251 31.3719 116 31.3227 115.767 31.2264C115.533 31.1302 115.32 30.9889 115.141 30.8105C114.962 30.6322 114.82 30.4203 114.723 30.1869C114.626 29.9536 114.576 29.7034 114.575 29.4507V19.4367ZM136.599 27.3262V27.2759C136.599 24.3167 138.858 22.9515 142.08 22.9515C143.212 22.9413 144.337 23.1293 145.403 23.507V23.2795C145.403 21.6883 144.413 20.8019 142.485 20.8019C141.42 20.8019 140.557 20.9541 139.821 21.1816C139.643 21.2477 139.455 21.2822 139.265 21.2835C139.056 21.2878 138.848 21.2504 138.654 21.1735C138.46 21.0966 138.284 20.9817 138.134 20.8355C137.985 20.6894 137.867 20.5149 137.786 20.3224C137.706 20.1299 137.664 19.9232 137.664 19.7145C137.664 19.0319 138.097 18.4513 138.705 18.2223C139.923 17.7673 141.243 17.5161 143.044 17.5161C145.151 17.5161 146.672 18.0716 147.636 19.0319C148.651 20.0425 149.107 21.5362 149.107 23.3563V29.5245C149.107 29.7696 149.058 30.0122 148.964 30.2382C148.869 30.4642 148.73 30.6691 148.556 30.841C148.381 31.0129 148.174 31.1483 147.947 31.2393C147.719 31.3304 147.476 31.3752 147.231 31.3713C146.114 31.3713 145.378 30.5883 145.378 29.7787V29.7521C144.44 30.7892 143.144 31.4718 141.268 31.4718C138.705 31.4718 136.599 30.0062 136.599 27.3262ZM145.455 26.4397V25.7586C144.679 25.4179 143.841 25.2452 142.994 25.2519C141.343 25.2519 140.33 25.9093 140.33 27.1237V27.174C140.33 28.2111 141.191 28.8183 142.435 28.8183C144.236 28.8183 145.455 27.8314 145.455 26.4397ZM151.164 19.4367C151.164 18.3745 152.026 17.5161 153.092 17.5161C154.158 17.5161 155.02 18.3745 155.02 19.4367V20.0425C155.578 18.7291 156.491 17.5161 157.635 17.5161C158.826 17.5161 159.511 18.2991 159.511 19.3865C159.511 20.3971 158.851 21.0043 158.065 21.1816C156.111 21.6381 155.02 23.1288 155.02 25.8591V29.4492C155.02 30.5115 154.158 31.3713 153.092 31.3713C152.581 31.3721 152.092 31.1702 151.73 30.8101C151.369 30.4499 151.165 29.961 151.164 29.4507V19.4367ZM160.678 14.5317C160.678 13.468 161.541 12.6111 162.606 12.6111C163.673 12.6111 164.536 13.468 164.536 14.5317V29.4492C164.536 30.5115 163.673 31.3713 162.606 31.3713C162.096 31.3721 161.606 31.1702 161.245 30.8101C160.883 30.4499 160.679 29.961 160.678 29.4507V14.5302V14.5317ZM167.606 34.9866C167.047 34.7856 166.387 34.3291 166.387 33.3954C166.383 33.192 166.419 32.9898 166.493 32.8005C166.568 32.6112 166.679 32.4385 166.821 32.2926C166.962 32.1466 167.132 32.0302 167.319 31.9502C167.506 31.8702 167.707 31.8281 167.91 31.8264C168.214 31.8264 168.392 31.8766 168.544 31.9283C168.873 32.0288 169.077 32.0805 169.357 32.0805C170.041 32.0805 170.372 31.9534 170.726 31.2709L170.853 30.9665L166.211 20.2464C166.095 19.9641 166.026 19.6646 166.007 19.3599C166.007 18.274 166.845 17.5161 167.91 17.5161C168.873 17.5161 169.432 18.0465 169.761 18.9566L172.706 26.846L175.547 18.9817C175.851 18.1736 176.408 17.5161 177.4 17.5161C178.388 17.5161 179.224 18.274 179.224 19.2861C179.224 19.5889 179.124 20.0189 179.048 20.1961L174.303 31.5486C173.161 34.304 172.02 35.3411 169.711 35.3411C168.848 35.3411 168.24 35.2156 167.606 34.9866Z" fill="#4C4C4C"/>
<path fill-rule="evenodd" clip-rule="evenodd" d="M42.1448 24.428C42.1448 36.0257 32.71 45.428 21.0724 45.428C9.43478 45.428 0 36.0257 0 24.428C0 12.8303 9.43478 3.42798 21.0724 3.42798C32.71 3.42798 42.1448 12.8303 42.1448 24.428Z" fill="#15C39A"/>
<path fill-rule="evenodd" clip-rule="evenodd" d="M23.8267 28.963C23.9508 29.65 24.5994 30.1213 25.3011 30.1213H27.5084L28.7879 29.944C26.7402 32.9372 23.1855 34.3142 19.2984 33.707C16.1338 33.212 13.4153 31.0772 12.2674 28.0972C9.66417 21.3321 14.6209 14.8743 21.0816 14.8743C24.4487 14.8743 27.4006 16.8378 29.0937 19.2091C29.5428 19.8547 30.4352 20.0911 31.0838 19.6434C31.3784 19.4439 31.5862 19.1399 31.6652 18.7929C31.7442 18.4459 31.6885 18.0819 31.5093 17.7745C30.3093 15.9057 28.6285 14.3943 26.6433 13.3987C24.6581 12.4031 22.4416 11.9601 20.2262 12.116C14.0654 12.5282 9.07912 17.5529 8.72454 23.696C8.31381 30.8467 14.0033 36.6825 21.0816 36.6825C22.8465 36.6898 24.5922 36.3162 26.1996 35.5872C27.8069 34.8583 29.238 33.7911 30.3953 32.4585L30.1264 33.9566V35.31C30.1264 36.0073 30.5992 36.6544 31.2891 36.7785C31.4951 36.8173 31.7071 36.8103 31.9101 36.758C32.1131 36.7057 32.3021 36.6094 32.4636 36.4758C32.6252 36.3423 32.7554 36.1749 32.8451 35.9854C32.9347 35.7959 32.9815 35.589 32.9822 35.3794V27.2743H25.2302C25.0205 27.274 24.8133 27.3199 24.6234 27.4088C24.4335 27.4977 24.2655 27.6274 24.1315 27.7887C23.9975 27.95 23.9006 28.1388 23.848 28.3418C23.7953 28.5448 23.788 28.7569 23.8267 28.963Z" fill="white"/>
</svg>
