<svg width="98" height="48" viewBox="0 0 98 48" fill="none" xmlns="http://www.w3.org/2000/svg">
<path d="M86.2442 13.4057C80.2436 13.4057 75.3606 18.3154 75.3606 24.351C75.3606 30.3866 80.2436 35.2962 86.2442 35.2962C92.2434 35.2962 97.125 30.3866 97.125 24.351C97.125 18.3154 92.2434 13.4057 86.2442 13.4057ZM86.2442 30.109C83.0883 30.109 80.518 27.5231 80.518 24.351C80.518 21.1774 83.0883 18.593 86.2442 18.593C89.3972 18.593 91.9689 21.1774 91.9689 24.351C91.9689 27.5245 89.3986 30.109 86.2428 30.109H86.2442ZM54.1958 22.1343L52.2927 21.1789C51.4664 20.7674 50.9484 20.4489 50.7401 20.2136C50.5415 20.005 50.4284 19.7294 50.4234 19.4413C50.4234 19.0721 50.5895 18.7607 50.916 18.5183C51.2398 18.2646 51.7001 18.1491 52.2842 18.1491C53.3526 18.1491 54.5364 18.7945 55.8398 20.0952L59.052 16.8639C58.2627 15.7879 57.2306 14.9139 56.0397 14.3132C54.8645 13.7213 53.566 13.4161 52.2504 13.4226C50.2896 13.4226 48.6709 14.0018 47.4097 15.1686C46.1499 16.3354 45.5164 17.7376 45.5164 19.3821C45.5164 21.9328 47.1845 24.0579 50.5317 25.7447L52.2842 26.6254C53.7946 27.3906 54.5462 28.1699 54.5462 28.976C54.5462 29.4128 54.3365 29.7905 53.9199 30.1259C53.5032 30.4627 52.9514 30.6219 52.2673 30.6219C51.6339 30.6219 50.9076 30.4035 50.0898 29.9596C49.2749 29.5228 48.5499 28.9357 47.953 28.2291L44.7577 31.7295C46.5595 34.097 48.9623 35.2892 51.983 35.2892C54.2535 35.2892 56.0651 34.6677 57.4079 33.4333C58.7592 32.2002 59.4349 30.6557 59.4349 28.8083C59.4349 27.423 59.0604 26.2069 58.3172 25.1739C57.567 24.141 56.1903 23.1348 54.1958 22.1357V22.1343ZM21.8827 32.9119V13.8411H16.7168V15.1179C14.9761 13.9978 12.95 13.4034 10.8808 13.4057C4.88159 13.4057 0 18.3154 0 24.351C0 30.3866 4.88159 35.2962 10.8822 35.2962C12.9266 35.2993 14.9297 34.7201 16.6576 33.6263C16.6576 33.794 16.6492 33.9448 16.6492 34.0463C16.6492 37.2184 14.0789 39.8043 10.9245 39.8043C9.85188 39.8018 8.80182 39.496 7.89528 38.9221L5.34047 43.4217C7.02511 44.4505 8.95957 44.9964 10.9329 45C16.9335 45 21.8827 40.0889 21.8827 34.0533C21.8827 33.8194 21.8982 33.1303 21.8827 32.9119ZM10.8822 30.1076C7.72918 30.1076 5.15748 27.5231 5.15748 24.351C5.15748 21.1774 7.72777 18.593 10.8822 18.593C14.0367 18.593 16.607 21.1774 16.607 24.351C16.607 27.5231 14.0367 30.109 10.8822 30.109V30.1076ZM42.4605 13.8341H37.2693V24.2396C37.2777 25.7179 37.2777 28.27 36.1938 29.3607C35.6758 29.8807 35.1086 30.3513 33.9149 30.3513C32.7128 30.3513 32.1456 29.8807 31.629 29.3607C30.5437 28.2685 30.5521 25.7094 30.5592 24.2396V13.8341H25.3693V24.2086C25.3524 26.3478 25.3271 30.3189 27.9312 32.9541C29.4584 34.4986 31.2785 35.2878 33.9065 35.2878C36.5359 35.2878 38.3545 34.5071 39.8818 32.9541C42.4859 30.3189 42.4605 26.3393 42.4436 24.2086L42.4605 13.8327V13.8341ZM71.8781 29.1775C71.4615 29.496 70.4508 30.202 69.3078 30.0427C68.3732 29.9159 67.6145 29.2282 67.4977 26.9284V18.2999H73.5982V13.8172H67.4977V8H62.3233V9.14145H62.3148V26.2492C62.3148 28.9689 62.9989 35.2878 69.2994 35.2878C72.4876 35.2385 74.4231 33.5009 75.2339 32.8217L75.3423 32.7371L72.2371 28.8928C72.2286 28.8999 72.0119 29.076 71.8781 29.1775Z" fill="#F45D48"/>
</svg>
