<svg width="151" height="48" viewBox="0 0 151 48" fill="none" xmlns="http://www.w3.org/2000/svg">
<path d="M53.8828 34.1798V26.3309H46.9795V34.1798H43.4645V15.5681H46.9795V23.2237H53.8828V15.5681H57.3977V34.1798H53.8828ZM70.2835 34.1798H67.4927L67.2396 33.2589C66.0333 34.0427 64.6255 34.461 63.1869 34.461C60.6983 34.461 59.6368 32.7562 59.6368 30.4082C59.6368 27.642 60.8389 26.5805 63.6051 26.5805H66.874V25.1534C66.874 23.6455 66.4557 23.1147 64.2765 23.1147C63.009 23.1234 61.7457 23.2588 60.505 23.5189L60.0867 20.9214C61.6072 20.5007 63.177 20.2841 64.7545 20.2782C69.0287 20.2782 70.287 21.7861 70.287 25.1991L70.2835 34.1798ZM66.874 29.0374H64.3608C63.2431 29.0374 62.9373 29.3432 62.9373 30.3801C62.9373 31.3291 63.2431 31.7509 64.3081 31.7509C65.2101 31.7369 66.0937 31.4944 66.8775 31.048L66.874 29.0374ZM76.8811 34.4574C75.2853 34.4311 73.7029 34.1671 72.1851 33.6736L72.6596 31.0761C73.9777 31.4532 75.3415 31.6508 76.7123 31.6631C78.2203 31.6631 78.4452 31.3116 78.4452 30.2922C78.4452 29.4557 78.2765 29.0339 76.0691 28.5031C72.744 27.6912 72.3538 26.8546 72.3538 24.229C72.3538 21.4908 73.5559 20.2887 77.4399 20.2887C78.8143 20.2902 80.1834 20.4493 81.5208 20.7632L81.1693 23.4733C79.9338 23.2448 78.6821 23.1147 77.4259 23.0831C75.9461 23.0831 75.693 23.4346 75.693 24.2571C75.693 25.3467 75.7774 25.4311 77.6227 25.9056C81.4329 26.9144 81.7985 27.417 81.7985 30.1973C81.7985 32.8371 80.9865 34.4574 76.8811 34.4574ZM91.9426 34.1798V24.6894C91.9426 23.9618 91.6368 23.5998 90.853 23.5998C90.0164 23.5998 88.5331 24.1024 87.3029 24.7457V34.1798H83.8934V15.0093L87.3029 14.5348V21.6033C88.8459 20.811 90.5436 20.3625 92.2765 20.2887C94.5401 20.2887 95.3486 21.881 95.3486 24.3133V34.1798H91.9426ZM97.8653 18.6437V14.7035H101.275V18.6437H97.8653ZM97.8653 34.1798V20.5699H101.275V34.1798H97.8653ZM103.651 20.6824C103.651 17.2729 105.633 15.2905 110.273 15.2905C111.978 15.2905 113.676 15.4968 115.331 15.9056L114.944 18.9495C113.437 18.6638 111.909 18.5052 110.375 18.475C107.943 18.475 107.162 19.3151 107.162 21.287V28.4399C107.162 30.4223 107.946 31.2518 110.375 31.2518C111.909 31.2216 113.437 31.0631 114.944 30.7773L115.335 33.8248C113.68 34.2335 111.981 34.4399 110.277 34.4399C105.637 34.4399 103.654 32.4574 103.654 29.048L103.651 20.6824ZM122.326 34.4574C117.658 34.4574 116.403 31.888 116.403 29.0936V25.656C116.403 22.8617 117.661 20.2922 122.326 20.2922C126.99 20.2922 128.248 22.8617 128.248 25.656V29.0936C128.238 31.888 126.983 34.4574 122.326 34.4574ZM122.326 23.2096C120.509 23.2096 119.813 24.0216 119.813 25.5576V29.2061C119.813 30.7422 120.516 31.5541 122.326 31.5541C124.136 31.5541 124.839 30.7422 124.839 29.2061V25.5436C124.832 24.0075 124.132 23.1956 122.326 23.1956V23.2096ZM137.292 23.4205C136.041 23.9875 134.835 24.6508 133.686 25.403V34.1903H130.277V20.5699H133.155L133.38 22.0778C134.489 21.327 135.692 20.7253 136.958 20.2887L137.292 23.4205ZM150.22 29.6525C150.22 32.6719 148.878 34.4574 145.721 34.4574C144.5 34.4444 143.283 34.3126 142.087 34.0638V39.6877L138.677 40.1622V20.5699H141.387L141.739 21.7158C142.981 20.7878 144.491 20.2887 146.041 20.2922C148.779 20.2922 150.231 21.9126 150.231 25.0163L150.22 29.6525ZM142.09 31.1886C143.082 31.4065 144.094 31.5246 145.11 31.5401C146.34 31.5401 146.814 30.9531 146.814 29.7228V24.9249C146.814 23.8072 146.396 23.1921 145.138 23.1921C144.009 23.2328 142.93 23.668 142.09 24.4223V31.1886Z" fill="black"/>
<path d="M16.142 4L0 13.3127V35.6757L6.06485 39.177V16.8139L16.142 10.994" fill="black"/>
<path d="M22.583 4V21.8102H16.1423V15.1625L10.0775 18.6638V41.483L16.1423 44.9926V27.2331H22.583V33.8343L28.6479 30.3373V7.50122" fill="black"/>
<path d="M22.5828 45L38.7248 35.6873V13.3243L32.6599 9.82305V32.1861L22.5828 38.006" fill="black"/>
</svg>
