<svg width="167" height="48" viewBox="0 0 167 48" fill="none" xmlns="http://www.w3.org/2000/svg">
<path fill-rule="evenodd" clip-rule="evenodd" d="M4.04667 38.1023V34.0556H22.2567V38.1023H4.04667ZM18.3887 17.8689H7.91292L13.1517 25.1192L18.3887 17.8689ZM26.3033 13.8223L13.1517 32.0323L0 13.8223H26.3033Z" fill="#00B3E6"/>
<path d="M42.3536 34.0573V27.5624H36.1251V34.0573H32.3701V17.8706H36.1251V24.2054H42.3536V17.8673H46.1085V34.0539L42.3536 34.0573Z" fill="black"/>
<path d="M50.8464 34.0574V17.8707H61.103V21.3121H54.6014V24.2054H60.5213V27.4748H54.6014V30.6329H61.103V34.0574H50.8464Z" fill="black"/>
<path d="M65.5764 34.0574V17.8707H69.3297V30.6362H75.8245V34.0607L65.5764 34.0574Z" fill="black"/>
<path d="M78.9757 34.0574V17.8707H82.7357V30.6362H89.2289V34.0607L78.9757 34.0574Z" fill="black"/>
<path d="M99.821 34.3221C94.8065 34.3221 91.6045 30.7223 91.6045 25.9725C91.6045 21.2227 94.9616 17.6009 99.9761 17.6009C104.991 17.6009 108.193 21.2025 108.193 25.9725C108.193 30.7425 104.814 34.3221 99.821 34.3221ZM99.8834 20.9597C97.3222 20.9597 95.599 23.0572 95.599 25.9725C95.599 28.8878 97.3222 30.987 99.8834 30.987C102.445 30.987 104.169 28.8658 104.169 25.9725C104.169 23.0791 102.45 20.9597 99.8834 20.9597Z" fill="black"/>
<path d="M116.306 34.3221C114.473 34.3221 112.26 33.5937 110.852 32.6647L111.889 29.2638C113.192 30.213 114.893 30.8319 116.417 30.8319C117.743 30.8319 118.25 30.213 118.25 29.4189C118.25 28.5758 117.83 28.0042 115.357 27.0111C112.507 25.8629 111.518 24.2054 111.518 22.2614C111.518 19.9008 113.438 17.6009 117.215 17.6009C118.982 17.6009 120.795 18.2197 121.744 18.8605L120.791 22.2175C119.862 21.5768 118.362 20.8922 117.212 20.8922C115.843 20.8922 115.291 21.533 115.291 22.1956C115.291 23.2562 116.107 23.6102 118.141 24.4702C121.166 25.7516 122.071 27.2101 122.071 29.2857C122.071 31.8705 120.194 34.3221 116.306 34.3221Z" fill="black"/>
<path d="M126.097 34.0574V17.8707H129.852V34.0574H126.097Z" fill="black"/>
<path d="M148.572 24.9574V32.6883C146.715 33.79 144.589 34.3556 142.431 34.3221C137.683 34.3221 133.928 30.9212 133.928 25.9725C133.928 21.0237 137.727 17.6009 142.63 17.6009C144.751 17.6009 146.451 18.154 148.062 18.9937L146.494 22.0185C145.379 21.4315 144.139 21.121 142.879 21.1131C139.654 21.1131 137.932 23.123 137.932 25.9725C137.932 29.0648 140.008 30.987 142.653 30.987C143.845 30.987 144.442 30.8538 145.039 30.5452V28.1594H141.79V24.9558L148.572 24.9574Z" fill="black"/>
<path d="M166.404 34.366L156.641 25.5982V34.0574H152.886V17.6465L153.392 17.5571L163.023 26.2591V17.8674H166.778V34.3002L166.404 34.366Z" fill="black"/>
</svg>
