<svg width="205" height="48" viewBox="0 0 205 48" fill="none" xmlns="http://www.w3.org/2000/svg">
<path d="M75.1471 40H1.24829C0.675232 40 0.345778 39.4142 0.729328 38.9858C1.9586 37.6126 4.2126 36.0349 5.80515 36.0349C8.32269 36.0349 8.68234 37.8372 10.8402 37.8372C14.4367 37.8372 18.3928 25.5814 24.5069 25.5814C30.6209 25.5814 30.6209 32.7907 37.4542 32.7907C44.2875 32.7907 47.1647 9 56.8752 9C65.3933 9 73.9114 26.794 76.6191 38.1683C76.8448 39.1161 76.1157 40 75.1471 40Z" fill="#553C9A"/>
<path d="M86.5698 33.8543H89.3231V27.6581C89.3231 24.9631 90.7248 23.5274 92.552 23.5274C94.1539 23.5274 95.1551 24.7364 95.1551 26.7262V33.8543H97.9084V26.2728C97.9084 23.074 96.0312 21.0086 93.1277 21.0086C91.5008 21.0086 90.074 21.7139 89.3231 22.9733V14.9636H86.5698V33.8543Z" fill="#131520"/>
<path d="M104.385 16.6512C104.385 15.6437 103.584 14.8125 102.558 14.8125C101.557 14.8125 100.706 15.6437 100.706 16.6512C100.706 17.6839 101.557 18.5151 102.558 18.5151C103.584 18.5151 104.385 17.6839 104.385 16.6512ZM101.181 33.8543H103.934V21.2605H101.181V33.8543Z" fill="#131520"/>
<path d="M107.384 33.8543H110.137V27.6581C110.137 25.0134 111.364 23.5274 113.141 23.5274C114.643 23.5274 115.368 24.8119 115.368 26.7766V33.8543H118.122V27.6581C118.122 25.0134 119.323 23.5274 121.1 23.5274C122.602 23.5274 123.328 24.8119 123.328 26.7766V33.8543H126.081V26.3232C126.081 23.0992 124.404 21.0086 121.576 21.0086C119.924 21.0086 118.322 21.8902 117.571 23.5022C116.895 21.9406 115.544 21.0086 113.691 21.0086C112.09 21.0086 110.838 21.7894 110.137 22.9733V21.2605H107.384V33.8543Z" fill="#131520"/>
<path d="M128.452 27.5574C128.452 31.1592 131.055 34.1061 134.484 34.1061C136.286 34.1061 137.788 33.1742 138.489 32.1667V33.8543H141.242V21.2605H138.489V22.9481C137.788 21.9406 136.286 21.0086 134.484 21.0086C131.055 21.0086 128.452 23.9556 128.452 27.5574ZM138.714 27.5574C138.714 29.8243 137.212 31.5874 134.984 31.5874C132.757 31.5874 131.255 29.8243 131.255 27.5574C131.255 25.2905 132.757 23.5274 134.984 23.5274C137.212 23.5274 138.714 25.2905 138.714 27.5574Z" fill="#131520"/>
<path d="M144.722 33.8543H147.475V14.9636H144.722V33.8543Z" fill="#131520"/>
<path d="M150.023 27.5574C150.023 31.1592 152.627 34.1061 156.056 34.1061C157.858 34.1061 159.36 33.1742 160.06 32.1667V33.8543H162.814V21.2605H160.06V22.9481C159.36 21.9406 157.858 21.0086 156.056 21.0086C152.627 21.0086 150.023 23.9556 150.023 27.5574ZM160.286 27.5574C160.286 29.8243 158.784 31.5874 156.556 31.5874C154.329 31.5874 152.827 29.8243 152.827 27.5574C152.827 25.2905 154.329 23.5274 156.556 23.5274C158.784 23.5274 160.286 25.2905 160.286 27.5574Z" fill="#131520"/>
<path d="M170.298 39.1184L178.333 21.2605H175.279L171.45 30.1769L167.595 21.2605H164.566L169.948 33.1742L167.27 39.1184H170.298Z" fill="#131520"/>
<path d="M178.806 27.5574C178.806 31.1592 181.409 34.1061 184.838 34.1061C186.64 34.1061 188.142 33.1742 188.843 32.1667V33.8543H191.596V21.2605H188.843V22.9481C188.142 21.9406 186.64 21.0086 184.838 21.0086C181.409 21.0086 178.806 23.9556 178.806 27.5574ZM189.068 27.5574C189.068 29.8243 187.567 31.5874 185.339 31.5874C183.111 31.5874 181.609 29.8243 181.609 27.5574C181.609 25.2905 183.111 23.5274 185.339 23.5274C187.567 23.5274 189.068 25.2905 189.068 27.5574Z" fill="#131520"/>
<path d="M204.387 30.3784C204.387 28.4641 203.311 27.1544 201.058 26.5751L198.956 26.0209C197.905 25.7439 197.279 25.3157 197.279 24.5097C197.279 23.7037 198.055 23.2251 199.106 23.2251C200.082 23.2251 200.908 23.7289 201.158 24.7868H203.912C203.712 22.5199 201.834 21.0086 199.131 21.0086C196.328 21.0086 194.475 22.4191 194.475 24.5349C194.475 26.3736 195.527 27.7841 197.679 28.3382L199.732 28.8923C201.033 29.2198 201.584 29.6983 201.584 30.5547C201.584 31.4111 200.758 31.8896 199.557 31.8896C198.33 31.8896 197.204 31.3859 196.978 30.0258H194.125C194.275 32.5445 196.553 34.1061 199.481 34.1061C202.285 34.1061 204.387 32.8216 204.387 30.3784Z" fill="#131520"/>
</svg>
