<svg width="115" height="48" viewBox="0 0 115 48" fill="none" xmlns="http://www.w3.org/2000/svg">
<path d="M93.1001 14.56C94.5917 14.56 95.7484 13.3788 95.7484 11.8948C95.7484 10.441 94.5917 9.25983 93.1001 9.25983C91.639 9.25983 90.4214 10.441 90.4214 11.8948C90.391 13.3788 91.639 14.56 93.1001 14.56Z" fill="#2C3242"/>
<path d="M70.2705 16.4075H74.2581V18.8304C75.2626 17.3766 77.4847 16.044 80.1025 16.044C85.0641 16.044 88.8387 20.2539 88.8387 25.433C88.8387 30.5818 85.0641 34.8219 80.1025 34.8219C77.4847 34.8219 75.293 33.4893 74.2581 32.0355V41.9999H70.2705V16.4075ZM79.3719 19.6482C76.1453 19.6482 73.9233 22.1619 73.9233 25.433C73.9233 28.6737 76.1453 31.2178 79.3719 31.2178C82.5681 31.2178 84.7902 28.704 84.7902 25.433C84.7902 22.1923 82.5681 19.6482 79.3719 19.6482Z" fill="#2C3242"/>
<path d="M98.0314 16.4075H102.019V18.8607C103.115 17.0435 105.184 16.044 107.528 16.044C111.729 16.044 114.469 19.0121 114.469 23.5855V34.4585H110.481V24.2518C110.481 21.4048 109.02 19.6785 106.707 19.6785C104.058 19.6785 102.019 21.738 102.019 25.5844V34.4585H98.0314V16.4075Z" fill="#2C3242"/>
<path d="M39.8917 16.044C37.5479 16.044 35.478 17.0435 34.3822 18.8607V9.25977H30.3945V34.4585H34.3822V25.5844C34.3822 21.7379 36.4216 19.6784 39.0698 19.6784C41.3832 19.6784 42.8443 21.4048 42.8443 24.2518V34.4585H46.8319V23.5855C46.8015 19.0121 44.0923 16.044 39.8917 16.044Z" fill="#2C3242"/>
<path d="M95.0483 16.4076H91.0607V34.4586H95.0483V16.4076Z" fill="#2C3242"/>
<path d="M58.5514 34.8219C53.194 34.8219 49.0542 30.6727 49.0542 25.433C49.0542 20.1933 53.194 16.0441 58.5514 16.0441C63.9087 16.0441 68.0485 20.1933 68.0485 25.433C68.0485 30.6727 63.9087 34.8219 58.5514 34.8219ZM58.5514 31.127C61.7475 31.127 64 28.6434 64 25.433C64 22.2226 61.7475 19.7391 58.5514 19.7391C55.3248 19.7391 53.0723 22.2226 53.0723 25.433C53.0723 28.6434 55.3248 31.127 58.5514 31.127Z" fill="#2C3242"/>
<path d="M15.8728 14.0869C15.8425 15.2938 14.9919 17.0135 13.5642 17.0135C12.6832 17.0135 11.9542 16.2894 11.9542 15.4144V15.3843C11.9238 13.9663 11.286 12.7293 10.2835 11.8543C9.52409 11.2207 8.58242 10.7984 7.5496 10.6777C8.43053 9.77256 9.67598 9.22949 11.0429 9.22949C12.7744 9.22949 14.354 10.2251 15.2653 11.6733C15.6906 12.3974 15.9032 13.2723 15.8728 14.0869Z" fill="#175FFF"/>
<path d="M10.2229 14.2076C10.9823 15.173 11.438 17.0134 10.3445 17.9185C9.64575 18.4918 8.64332 18.4013 8.06616 17.7375C7.12449 16.6816 5.81829 16.1385 4.51208 16.1083C3.50966 16.0781 2.50722 16.3799 1.65668 16.9531C1.74781 15.7161 2.32497 14.4791 3.38815 13.6042C4.7551 12.4879 6.66883 12.156 8.30918 12.8197C9.06859 13.0913 9.73688 13.574 10.2229 14.2076Z" fill="#175FFF"/>
<path d="M5.97009 17.8885C7.15479 18.1299 8.73437 19.2764 8.49136 20.6642C8.33948 21.5392 7.48893 22.1124 6.608 21.9616H6.57763C5.18029 21.7504 3.81334 22.1728 2.81091 22.9873C2.05149 23.5907 1.44396 24.4657 1.17057 25.4613C0.441526 24.4355 0.107382 23.1382 0.32002 21.7806C0.654163 20.0608 1.89961 18.6126 3.60071 18.0394C4.36012 17.798 5.21067 17.7377 5.97009 17.8885Z" fill="#175FFF"/>
<path d="M5.08915 23.4398C6.15234 22.8666 8.09644 22.7458 8.79511 23.9527C9.25076 24.707 8.97737 25.7025 8.21795 26.1551C7.00288 26.8792 6.24346 28.0558 5.97008 29.3531C5.78781 30.3186 5.87895 31.3444 6.33459 32.2797C5.11952 31.978 3.99558 31.1936 3.3273 30.017C2.44638 28.4782 2.47675 26.5775 3.38805 25.069C3.81333 24.3751 4.39049 23.8018 5.08915 23.4398Z" fill="#175FFF"/>
<path d="M8.00509 28.2369C8.46075 27.1206 9.85807 25.7931 11.1643 26.2758C12.0149 26.5775 12.4401 27.5128 12.1363 28.3275C11.6806 29.6549 11.863 31.0427 12.5009 32.1893C12.9869 33.0642 13.7159 33.7581 14.6576 34.2106C13.5033 34.7537 12.1667 34.8745 10.8909 34.3917C9.22016 33.7882 8.00509 32.3099 7.73171 30.56C7.64058 29.7757 7.73171 28.961 8.00509 28.2369Z" fill="#175FFF"/>
<path d="M13.3516 30.047C12.9567 28.9005 13.1694 26.9997 14.5059 26.517C15.3564 26.2154 16.2677 26.6378 16.5716 27.4825C17.0879 28.7799 18.1207 29.7453 19.3661 30.2281C20.2775 30.59 21.3407 30.6504 22.343 30.409C21.8267 31.5555 20.8546 32.4908 19.5788 32.9736C17.9081 33.5769 15.9944 33.2149 14.6882 32.0382C14.0807 31.465 13.5946 30.8012 13.3516 30.047Z" fill="#175FFF"/>
<path d="M18.637 28.0258C17.6042 27.3922 16.5107 25.7931 17.2397 24.5864C17.6954 23.8321 18.6675 23.5606 19.4572 23.983C20.7026 24.6467 22.1 24.7372 23.3758 24.3148C24.3175 23.983 25.168 23.3795 25.7756 22.5348C26.1097 23.7416 25.9882 25.0691 25.2895 26.2457C24.4086 27.7844 22.7075 28.7197 20.9457 28.6594C20.0951 28.6594 19.275 28.4482 18.637 28.0258Z" fill="#175FFF"/>
<path d="M21.371 23.1078C20.1559 23.2889 18.3029 22.7457 18.06 21.358C17.8776 20.5132 18.4851 19.6684 19.3661 19.5175H19.3965C20.7938 19.246 21.9178 18.4012 22.586 17.2849C23.1025 16.4401 23.3454 15.4445 23.2544 14.4187C24.2872 15.1126 25.0769 16.229 25.2895 17.5564C25.5933 19.2762 24.8947 21.0864 23.5278 22.1725C22.8898 22.6553 22.1304 23.0173 21.371 23.1078Z" fill="#175FFF"/>
<path d="M20.2775 17.617C19.4573 18.5221 17.6954 19.3065 16.6019 18.4014C15.9032 17.8282 15.812 16.8325 16.3892 16.1386C17.2701 15.0525 17.6042 13.6646 17.3916 12.3673C17.2398 11.4018 16.7841 10.4666 16.0551 9.7123C17.3005 9.59162 18.6067 9.95366 19.6699 10.8286C21.0369 11.9449 21.6748 13.7853 21.3102 15.505C21.1583 16.2895 20.7938 17.0437 20.2775 17.617Z" fill="#175FFF"/>
</svg>
