<svg width="113" height="48" viewBox="0 0 113 48" fill="none" xmlns="http://www.w3.org/2000/svg">
<path d="M29.3774 33.987V12.0316H32.7886V20.6873C33.8628 19.0874 35.474 18.2871 37.6219 18.2865C39.4541 18.2865 40.8704 18.8288 41.8709 19.9133C42.8714 20.9979 43.3718 22.509 43.3719 24.4466V33.987H39.9606V24.9205C39.9606 22.4146 38.8444 21.1615 36.6119 21.1611C35.4954 21.1611 34.5793 21.4981 33.8636 22.172C33.148 22.846 32.7898 23.7937 32.7892 25.0152V33.9867L29.3774 33.987Z" fill="#323232"/>
<path d="M59.4933 32.092C57.9769 33.6084 56.0711 34.3665 53.7755 34.3665C51.4801 34.3665 49.5689 33.6084 48.0418 32.092C46.5148 30.5756 45.7514 28.6483 45.7515 26.3101C45.7516 23.972 46.515 22.0503 48.0418 20.5452C49.5686 19.0397 51.4798 18.2868 53.7755 18.2865C56.0713 18.2861 57.9772 19.0391 59.4933 20.5452C61.0098 22.0512 61.7681 23.9729 61.768 26.3101C61.7678 28.6473 61.0096 30.5746 59.4933 32.092ZM50.5376 30.1648C51.3478 31.1124 52.4272 31.5864 53.7755 31.5864C55.124 31.5864 56.2033 31.1124 57.0135 30.1648C57.824 29.2171 58.2293 27.9322 58.2297 26.3101C58.2297 24.7097 57.8191 23.4356 56.9978 22.4877C56.1765 21.5399 55.1024 21.066 53.7755 21.0661C52.4275 21.0661 51.3481 21.5347 50.5376 22.4718C49.7269 23.409 49.3215 24.6882 49.3213 26.3094C49.3213 27.9322 49.7267 29.2173 50.5376 30.1648Z" fill="#323232"/>
<path d="M69.664 34.366C66.5258 34.366 64.9566 32.6811 64.9566 29.3114V21.5403H62.5879V18.6657H65.052L65.8418 14.1491H68.4002V18.6657H74.4971V21.5403H68.4005V29.2168C68.4005 30.628 68.9164 31.3336 69.9484 31.3335C70.9168 31.3335 71.7908 30.4488 72.5703 28.6797L75.2241 30.0382C73.918 32.9237 72.0646 34.3663 69.664 34.366Z" fill="#323232"/>
<path d="M76.3208 41C74.8044 41 73.5513 40.5788 72.5615 39.7364L73.8252 37.0512C74.4361 37.7669 75.0995 38.125 75.8154 38.1258C76.763 38.1258 77.2368 37.5151 77.2368 36.2936V18.6656H80.648V36.3559C80.648 37.9986 80.2426 39.1833 79.4317 39.9097C78.6209 40.6363 77.5839 40.9997 76.3208 41ZM78.9427 16.075C78.3819 16.0941 77.8365 15.8896 77.4264 15.5065C77.2291 15.3206 77.0737 15.0949 76.9702 14.8444C76.8668 14.5939 76.8177 14.3243 76.8263 14.0534C76.8187 13.7803 76.8683 13.5086 76.9716 13.2556C77.0749 13.0027 77.2298 12.7741 77.4264 12.5844C77.8388 12.2084 78.3767 12 78.9349 12C79.4929 12 80.0309 12.2084 80.4433 12.5844C80.644 12.7717 80.8028 12.9995 80.909 13.2528C81.0151 13.506 81.0665 13.7789 81.0594 14.0534C81.0643 14.3229 81.012 14.5904 80.9058 14.8382C80.7996 15.086 80.642 15.3084 80.4433 15.4907C80.244 15.6821 80.0088 15.8322 79.7513 15.9325C79.4938 16.0328 79.2191 16.0812 78.9427 16.075Z" fill="#323232"/>
<path d="M89.121 34.3661C87.3726 34.3661 85.9562 33.9291 84.872 33.0552C83.7876 32.1812 83.2454 31.0074 83.2452 29.5336C83.2452 28.1859 83.8085 27.0431 84.9353 26.1054C86.062 25.1677 87.4782 24.6991 89.1841 24.6997C90.9322 24.6997 92.4064 25.2578 93.6068 26.3741V24.51C93.6068 23.4152 93.3277 22.5676 92.7695 21.967C92.2113 21.3664 91.4163 21.0662 90.3847 21.0666C88.2997 21.0666 87.0045 22.1301 86.4989 24.2571L83.3714 23.5938C83.7921 21.9512 84.624 20.656 85.8672 19.7082C87.1103 18.7605 88.6582 18.2866 90.5108 18.2866C92.5328 18.2866 94.1282 18.8184 95.2969 19.8821C96.4656 20.9457 97.0499 22.4988 97.0502 24.5414V33.9871H93.7331V32.0598C92.6166 33.5975 91.0792 34.3664 89.121 34.3661ZM89.752 31.8389C91.2685 31.8389 92.5534 31.0808 93.6067 29.5646V29.0902C92.5532 27.8266 91.2684 27.1948 89.752 27.1949C88.8676 27.1949 88.1513 27.411 87.6029 27.8431C87.3438 28.034 87.134 28.2841 86.9912 28.5727C86.8482 28.8611 86.7764 29.1796 86.7815 29.5014C86.7732 29.8267 86.8419 30.1493 86.9819 30.443C87.1219 30.7367 87.3294 30.9932 87.5872 31.1915C88.1254 31.6232 88.8466 31.839 89.752 31.8389Z" fill="#323232"/>
<path d="M100.37 33.987V18.6656H103.687V21.3192C104.529 19.3817 105.982 18.4129 108.046 18.4128C109.267 18.4128 110.278 18.813 111.079 19.6132C111.88 20.4135 112.28 21.4876 112.279 22.8354C112.27 23.6421 112.132 24.4422 111.868 25.2047L108.741 24.8888C108.805 24.4701 108.847 24.0484 108.867 23.6253C108.867 22.0458 108.214 21.256 106.909 21.2559C106.024 21.2559 105.281 21.7245 104.681 22.6616C104.081 23.5988 103.781 24.8361 103.781 26.3737V33.987H100.37Z" fill="#323232"/>
<path d="M8.07188 21.0097C10.6142 19.5973 14.0962 17.6625 14.0962 12.0315H9.87997C9.87997 15.1821 8.34614 16.0342 6.02431 17.3241C3.48197 18.737 0 20.671 0 26.3026H4.21623C4.21623 23.1518 5.75006 22.2997 8.07188 21.0097Z" fill="#FF3C00"/>
<path d="M15.3692 19.7157C15.3692 22.8664 13.8354 23.7185 11.5136 25.0083C8.9719 26.4207 5.48926 28.3552 5.48926 33.9867H9.70531C9.70531 30.8359 11.2391 29.9838 13.561 28.6939C16.1033 27.2815 19.5851 25.3472 19.5851 19.7157H15.3692Z" fill="#FF3C00"/>
</svg>
