<svg width="114" height="48" viewBox="0 0 114 48" fill="none" xmlns="http://www.w3.org/2000/svg">
<path d="M12.3085 13.1062V22.1939H3.96242V13.1062H0V34.7995H3.96242V26.0069H12.3085V34.7995H16.2709V13.1062H12.3085Z" fill="#33475B"/>
<path d="M28.9522 27.7867C28.9522 28.6561 28.6068 29.4899 27.9921 30.1046C27.3773 30.7194 26.5435 31.0647 25.6741 31.0647C24.8047 31.0647 23.971 30.7194 23.3562 30.1046C22.7414 29.4899 22.3961 28.6561 22.3961 27.7867V18.4951H18.6375V27.7867C18.6375 29.6511 19.3781 31.4392 20.6965 32.7575C22.0149 34.0759 23.8029 34.8165 25.6673 34.8165C27.5318 34.8165 29.3198 34.0759 30.6382 32.7575C31.9565 31.4392 32.6972 29.6511 32.6972 27.7867V18.4951H28.9522V27.7867Z" fill="#33475B"/>
<path d="M56.8007 19.4527C56.8007 17.5482 58.0606 16.9444 59.441 16.9444C60.5534 16.9444 62.0231 17.7908 62.9841 18.8178L65.4458 15.9174C64.2169 14.2555 61.7241 13.1062 59.6837 13.1062C55.6067 13.1062 52.6577 15.4942 52.6577 19.4527C52.6577 26.797 61.6348 24.4673 61.6348 28.5773C61.6348 29.845 60.4039 30.9652 58.9945 30.9652C56.7715 30.9652 56.0513 29.878 55.0301 28.7287L52.2985 31.569C54.0458 33.7143 56.2008 34.8034 58.7828 34.8034C62.656 34.8034 65.7719 32.3863 65.7719 28.6084C65.7719 20.4545 56.7948 22.988 56.7948 19.4527" fill="#33475B"/>
<path d="M112.337 31.3338C110.116 31.3338 109.485 30.3729 109.485 28.9013V22.3878H112.937V19.0874H109.485V14.7329L105.674 16.4432V29.7108C105.674 33.1044 108.015 34.8148 111.226 34.8148C111.73 34.824 112.233 34.7837 112.729 34.6944L113.659 31.2717C113.239 31.3008 112.758 31.33 112.337 31.33" fill="#33475B"/>
<path d="M43.2594 18.6046C41.3976 18.6046 40.0988 19.1443 38.8427 20.3771V13.2366H35.0783V26.4712C35.0783 31.4257 38.6602 34.8193 42.6847 34.8193C47.15 34.8193 51.0774 31.3655 51.0774 26.7139C51.0774 22.1205 47.4625 18.6066 43.2594 18.6066V18.6046ZM43.2361 31.0316C42.3913 31.0316 41.5656 30.7811 40.8632 30.3118C40.1608 29.8425 39.6134 29.1754 39.2901 28.395C38.9668 27.6145 38.8822 26.7558 39.0471 25.9272C39.2119 25.0987 39.6186 24.3377 40.216 23.7404C40.8133 23.143 41.5743 22.7363 42.4028 22.5715C43.2313 22.4067 44.0901 22.4912 44.8706 22.8145C45.651 23.1378 46.3181 23.6852 46.7874 24.3876C47.2567 25.09 47.5072 25.9157 47.5072 26.7605C47.5072 27.8933 47.0572 28.9796 46.2562 29.7806C45.4552 30.5816 44.3688 31.0316 43.2361 31.0316Z" fill="#33475B"/>
<path d="M84.1336 26.515C84.1336 21.8556 80.2139 18.4096 75.7409 18.4096C71.7164 18.4096 68.1345 21.8032 68.1345 26.7577V40.0001H71.8989V32.8498C73.153 34.0807 74.4538 34.6224 76.3136 34.6224C80.5168 34.6224 84.1317 31.1103 84.1317 26.515H84.1336ZM80.5692 26.4684C80.5692 27.3132 80.3187 28.139 79.8494 28.8413C79.3801 29.5437 78.713 30.0912 77.9326 30.4144C77.1521 30.7377 76.2934 30.8223 75.4648 30.6575C74.6363 30.4927 73.8753 30.0859 73.278 29.4886C72.6806 28.8912 72.2739 28.1302 72.1091 27.3017C71.9443 26.4732 72.0288 25.6144 72.3521 24.834C72.6754 24.0535 73.2228 23.3865 73.9252 22.9171C74.6276 22.4478 75.4533 22.1973 76.2981 22.1973C77.4309 22.1973 78.5172 22.6473 79.3182 23.4483C80.1192 24.2493 80.5692 25.3357 80.5692 26.4684Z" fill="#33475B"/>
<path d="M96.2568 18.3496V14.6066C96.7515 14.3756 97.1703 14.0088 97.4645 13.5489C97.7587 13.089 97.9162 12.555 97.9187 12.009V11.9216C97.9166 11.1587 97.6126 10.4276 97.0731 9.88807C96.5336 9.34858 95.8025 9.04459 95.0395 9.04254H94.9522C94.1892 9.04459 93.4581 9.34858 92.9186 9.88807C92.3791 10.4276 92.0751 11.1587 92.0731 11.9216V12.009C92.0755 12.555 92.233 13.089 92.5272 13.5489C92.8214 14.0088 93.2403 14.3756 93.7349 14.6066V18.3496C92.3127 18.5671 90.9733 19.1565 89.8521 20.0581L79.5743 12.0614C79.6474 11.7976 79.6866 11.5256 79.6908 11.2519C79.6915 10.6095 79.5018 9.98128 79.1455 9.44673C78.7893 8.91217 78.2825 8.49527 77.6893 8.24873C77.0961 8.00219 76.4432 7.93708 75.813 8.06166C75.1828 8.18623 74.6037 8.49487 74.1489 8.94857C73.6941 9.40226 73.3841 9.98063 73.258 10.6105C73.1319 11.2404 73.1955 11.8936 73.4406 12.4873C73.6857 13.0811 74.1014 13.5889 74.6351 13.9464C75.1688 14.3039 75.7965 14.4952 76.4389 14.496C77.0032 14.4939 77.5569 14.3432 78.0445 14.0591L88.1495 21.9257C87.2393 23.2989 86.7645 24.9146 86.787 26.5619C86.8095 28.2091 87.3283 29.8113 88.2757 31.1591L85.2005 34.2343C84.9536 34.1557 84.6966 34.1138 84.4375 34.11C83.9095 34.11 83.3934 34.2666 82.9545 34.5599C82.5155 34.8532 82.1733 35.2701 81.9713 35.7579C81.7692 36.2457 81.7164 36.7824 81.8194 37.3002C81.9224 37.818 82.1766 38.2937 82.5499 38.667C82.9233 39.0403 83.3989 39.2946 83.9167 39.3976C84.4346 39.5006 84.9713 39.4477 85.4591 39.2457C85.9468 39.0436 86.3637 38.7015 86.6571 38.2625C86.9504 37.8235 87.1069 37.3074 87.1069 36.7794C87.1034 36.5204 87.0615 36.2633 86.9827 36.0165L90.0249 32.9743C91.0179 33.7328 92.1712 34.2544 93.3966 34.4993C94.622 34.7441 95.8871 34.7058 97.0954 34.3871C98.3037 34.0685 99.4233 33.478 100.369 32.6607C101.314 31.8434 102.06 30.8209 102.55 29.6713C103.04 28.5217 103.26 27.2754 103.195 26.0275C103.13 24.7796 102.78 23.5631 102.173 22.4709C101.566 21.3786 100.718 20.4395 99.6921 19.7253C98.6668 19.0111 97.4918 18.5405 96.2568 18.3496ZM94.9968 30.6621C94.1644 30.6621 93.3506 30.4152 92.6585 29.9527C91.9663 29.4902 91.4268 28.8329 91.1082 28.0638C90.7897 27.2947 90.7063 26.4484 90.8687 25.632C91.0311 24.8155 91.432 24.0655 92.0206 23.4769C92.6093 22.8883 93.3592 22.4874 94.1757 22.325C94.9922 22.1626 95.8384 22.2459 96.6075 22.5645C97.3766 22.8831 98.034 23.4225 98.4965 24.1147C98.959 24.8069 99.2058 25.6206 99.2058 26.4531C99.2058 27.5694 98.7624 28.6399 97.973 29.4293C97.1837 30.2186 96.1131 30.6621 94.9968 30.6621Z" fill="#FF7A59"/>
</svg>
