<svg width="123" height="48" viewBox="0 0 123 48" fill="none" xmlns="http://www.w3.org/2000/svg">
<path d="M52.2211 18.3362H56.8903L50.2551 35.0471H46.0774L39.3193 18.3362H44.1114L48.1663 29.5177L52.2211 18.3362ZM58.3648 34.9242H62.9111V18.3362H58.3648V34.9242ZM65 29.5177H69.5463C69.6692 30.6236 70.4064 31.7295 72.3724 31.7295C74.0927 31.7295 74.9528 31.1151 74.9528 30.255C74.9528 27.4289 65.7372 30.1321 65.7372 23.4969C65.7372 20.4251 68.3176 17.9676 72.3724 17.9676C77.4103 17.9676 79.1305 21.1623 79.2534 23.6198H74.9528C74.8299 22.5139 74.0927 21.6538 72.4953 21.6538C71.0208 21.6538 70.1607 22.3911 70.1607 23.2512C70.1607 26.0773 79.3762 23.2512 79.3762 30.1321C79.3762 33.0811 76.7959 35.4157 72.3724 35.4157C67.0888 35.2928 65.2457 32.7125 65 29.5177ZM81.588 34.9242H86.1343V18.3362H81.588V34.9242ZM96.8243 31.3609C99.1589 31.3609 101.002 29.6406 101.002 26.5688C101.002 23.6198 99.1589 21.7767 96.8243 21.7767C94.4897 21.7767 92.6466 23.4969 92.6466 26.5688C92.6466 29.6406 94.4897 31.3609 96.8243 31.3609ZM88.1003 26.5688C88.1003 21.7767 91.5408 17.8447 96.8243 17.8447C102.108 17.8447 105.548 21.7767 105.548 26.5688C105.548 31.3609 102.108 35.2928 96.8243 35.2928C91.5408 35.2928 88.1003 31.3609 88.1003 26.5688ZM111.815 20.3022C112.552 18.8277 114.272 17.8447 116.73 17.8447C120.785 17.8447 122.874 20.548 122.874 24.4799V34.9242H118.327V24.9714C118.327 23.0054 117.467 21.6538 115.501 21.6538C113.289 21.6538 112.061 23.0054 112.061 25.34V34.9242H107.514V18.3362H111.815V20.3022Z" fill="#FF3366"/>
<path d="M0 45.0001H41.9V3.1001H0V45.0001Z" fill="#FF3366"/>
<path d="M14.7448 16.2477C16.0964 16.2477 17.2022 15.2647 17.2022 13.7902C17.2022 12.4386 16.0964 11.3328 14.7448 11.3328C13.3932 11.3328 12.2873 12.3158 12.2873 13.7902C12.2873 15.2647 13.3932 16.2477 14.7448 16.2477ZM9.58407 29.2724C9.46119 29.8867 9.33832 30.5011 9.33832 31.1155C9.33832 33.2043 10.4442 34.6788 12.9017 34.6788C14.9905 34.6788 16.5879 33.4501 17.8166 31.4841L17.0794 34.4331H21.1342L23.4688 25.2175C24.0832 22.8829 25.1891 21.6542 26.9093 21.6542C28.2609 21.6542 29.121 22.5143 29.121 23.8659C29.121 24.2345 29.121 24.726 28.9981 25.2175L27.7694 29.5181C27.6465 30.1325 27.5237 30.7468 27.5237 31.3612C27.5237 33.3272 28.7524 34.8017 31.2099 34.8017C33.2987 34.8017 35.019 33.4501 36.002 30.1325L34.4046 29.5181C33.6674 31.7298 32.9301 32.0985 32.4386 32.0985C31.9471 32.0985 31.5785 31.7298 31.5785 30.9926C31.5785 30.624 31.7014 30.2553 31.7014 29.8867L32.8072 25.709C33.053 24.726 33.1759 23.8659 33.1759 23.1287C33.1759 20.0568 31.3327 18.4595 28.9981 18.4595C26.9093 18.4595 24.6976 20.4254 23.5917 22.3914L24.3289 18.8281H18.1852L17.3251 22.0228H20.1512L18.431 28.7809C17.0794 31.8527 14.499 31.9756 14.1304 31.8527C13.6389 31.7298 13.2703 31.4841 13.2703 30.8697C13.2703 30.5011 13.3932 29.8867 13.516 29.2724L16.2193 18.5823H9.46119L8.60107 21.777H11.4272L9.58407 29.2724Z" fill="white"/>
</svg>
