<svg width="151" height="48" viewBox="0 0 151 48" fill="none" xmlns="http://www.w3.org/2000/svg">
<path fill-rule="evenodd" clip-rule="evenodd" d="M11.6605 29.9924L4.96996 23.2712C3.83309 22.129 1.98988 22.129 0.852648 23.2712C-0.284216 24.4132 -0.284216 26.2648 0.852648 27.4072L9.60185 36.1967C10.7387 37.3387 12.5824 37.3387 13.7192 36.1967L21.9542 27.9235L17.8372 23.7873L11.6605 29.9924Z" fill="#16B8A2"/>
<path fill-rule="evenodd" clip-rule="evenodd" d="M36.879 17.0678L24.0136 29.9922L11.1467 17.0663C10.0095 15.9239 8.16627 15.9239 7.0294 17.0663C5.89254 18.2084 5.89254 20.0601 7.0294 21.2025L21.9549 36.1965C23.0918 37.3386 24.9351 37.3386 26.0722 36.1965L40.9964 21.204C42.1332 20.0615 42.1332 18.2099 40.9964 17.0678C39.8591 15.9257 38.0158 15.9257 36.879 17.0678Z" fill="#FFB41F"/>
<path fill-rule="evenodd" clip-rule="evenodd" d="M47.1726 27.4087L38.4248 36.1966C37.288 37.3387 35.4448 37.3387 34.3079 36.1966L13.2057 14.9976C12.0688 13.8555 12.0688 12.0038 13.2057 10.8617C14.3429 9.71927 16.1861 9.71927 17.3229 10.8617L36.3662 29.9923L43.0553 23.2725C44.1925 22.1305 46.0357 22.1305 47.1726 23.2725C48.3094 24.415 48.3094 26.2667 47.1726 27.4087Z" fill="#F56358"/>
<path fill-rule="evenodd" clip-rule="evenodd" d="M34.8196 10.8629C33.6827 9.72083 31.8396 9.72083 30.7023 10.8629L17.8369 23.7874L21.9543 27.9236L34.8196 14.9991C35.9566 13.8567 35.9566 12.005 34.8196 10.8629Z" fill="#16B8A2"/>
<path fill-rule="evenodd" clip-rule="evenodd" d="M63.0967 12.8828H59.5166V34.0096H72.6342V30.819H63.0967V12.8828ZM80.3826 19.2352C82.5594 19.2352 84.02 20.1263 84.822 21.2186L84.9938 19.5227H88.0871V34.0096H84.9938L84.822 32.3137C84.02 33.406 82.5594 34.297 80.3826 34.297C76.4587 34.297 73.7951 31.1065 73.7951 26.7661C73.7951 22.397 76.4587 19.2352 80.3826 19.2352ZM81.1273 22.2821C78.8932 22.2821 77.2893 24.0355 77.2893 26.7661C77.2893 29.4968 78.8932 31.2502 81.1273 31.2502C82.8457 31.2502 83.8769 30.3304 84.6501 29.0944V24.4378C83.8769 23.2019 82.8457 22.2821 81.1273 22.2821ZM96.752 14.6649H93.3151V19.5227H90.5941V22.4546H93.3151V28.8932C93.3151 32.3999 95.4058 34.297 98.6996 34.297C100.132 34.297 101.191 33.8946 101.907 33.4347L100.991 30.7328C100.561 30.9915 99.9311 31.1926 99.0146 31.1926C97.6684 31.1926 96.752 30.3304 96.752 28.8644V22.4546H101.105V19.5227H96.752V14.6649ZM108.596 14.6649H105.159V19.5227H102.438V22.4546H105.159V28.8932C105.159 32.3999 107.25 34.297 110.544 34.297C111.976 34.297 113.035 33.8946 113.751 33.4347L112.835 30.7328C112.405 30.9915 111.775 31.1926 110.859 31.1926C109.512 31.1926 108.596 30.3304 108.596 28.8644V22.4546H112.95V19.5227H108.596V14.6649ZM119.495 19.5227H116.058V34.0096H119.495V19.5227ZM117.776 12.7678C116.573 12.7678 115.657 13.6589 115.657 14.8949C115.657 16.1309 116.573 17.0219 117.776 17.0219C119.008 17.0219 119.924 16.1309 119.924 14.8949C119.924 13.6589 119.008 12.7678 117.776 12.7678ZM129.879 19.2352C125.439 19.2352 122.489 22.397 122.489 26.7661C122.489 31.1065 125.468 34.297 129.907 34.297C132.513 34.297 134.489 33.1186 135.778 31.1065L133.315 29.1807C132.627 30.3304 131.511 31.279 129.936 31.279C127.387 31.279 125.983 29.2956 125.983 26.7661C125.983 24.2079 127.329 22.2533 129.907 22.2533C131.511 22.2533 132.57 23.1731 133.229 24.3229L135.721 22.4258C134.432 20.4137 132.513 19.2352 129.879 19.2352ZM144.185 19.2352C148.625 19.2352 150.802 22.5695 150.802 26.6224V27.8296H140.605C140.691 30.1291 142.066 31.3939 144.471 31.3939C146.161 31.3939 147.393 30.6465 148.052 29.7268L150.429 31.6813C148.996 33.406 147.107 34.297 144.443 34.297C139.976 34.297 137.111 31.1352 137.111 26.7948C137.111 22.4259 140.033 19.2352 144.185 19.2352ZM144.128 21.9946C142.095 21.9946 140.719 23.3456 140.605 25.3577H147.422C147.336 23.3743 146.19 21.9946 144.128 21.9946Z" fill="#0E0E29"/>
</svg>
