<svg width="202" height="48" viewBox="0 0 202 48" fill="none" xmlns="http://www.w3.org/2000/svg">
<path d="M12.0642 32.9764V30.0305H3.33397V15.5753H0V32.9764H12.0642ZM20.4507 32.4283C21.1725 31.8803 21.7224 31.1609 22.1005 30.2703V32.9764H25.297V24.5841C25.297 23.6936 25.0907 22.8714 24.6439 22.1863C24.1972 21.5013 23.544 20.9532 22.7192 20.5764C21.8943 20.1996 20.8975 19.9941 19.7633 19.9941C19.1445 19.9941 18.5259 20.0626 17.9416 20.1653C17.3573 20.2681 16.8074 20.4394 16.2918 20.6449C15.7763 20.8504 15.295 21.0902 14.8826 21.3642L14.9857 24.3444C15.7763 23.8305 16.5324 23.4537 17.2886 23.1797C18.0448 22.9057 18.8696 22.7686 19.7977 22.7686C20.5195 22.7686 21.1037 22.94 21.5162 23.2825C21.9287 23.625 22.1348 24.0703 22.1348 24.6184V25.4747H19.2477C17.5292 25.4747 16.1886 25.8172 15.1919 26.5366C14.1952 27.2559 13.7141 28.2493 13.7141 29.5168C13.7141 30.2361 13.8859 30.8527 14.1952 31.435C14.5389 32.0172 14.9857 32.4626 15.6044 32.7708C16.223 33.1134 16.9448 33.2505 17.7354 33.2505C18.8352 33.2505 19.7289 32.9765 20.4507 32.4283ZM17.5636 30.2703C17.2198 29.9963 17.0136 29.6194 17.0136 29.14C17.0136 28.5576 17.2542 28.1123 17.7697 27.8041C18.251 27.4957 19.0071 27.3245 19.9695 27.3245H22.0318V27.8041C22.0318 28.215 21.9287 28.6261 21.6881 29.0714C21.4474 29.5168 21.1037 29.8936 20.6225 30.2019C20.1414 30.5101 19.5914 30.6813 18.9727 30.6813C18.3885 30.6813 17.9073 30.5444 17.5636 30.2703ZM35.4708 32.394C36.227 31.7432 36.7769 30.8527 37.1206 29.7565V32.9764H40.3514V20.3709H37.1206V26.2626C37.1206 27.119 36.983 27.8725 36.7081 28.5234C36.4332 29.1742 36.0551 29.7222 35.5396 30.0648C35.024 30.4416 34.4397 30.6128 33.7866 30.6128C33.0648 30.6128 32.5149 30.4073 32.1024 29.9963C31.7243 29.5852 31.5182 28.9686 31.5182 28.1809V20.3709H28.2872V28.2493C28.2872 29.8936 28.6653 31.1267 29.4558 32.0172C30.2464 32.9079 31.2775 33.3533 32.6179 33.3533C33.7866 33.3533 34.7146 33.0449 35.4708 32.394ZM47.1225 27.0847C47.1225 26.2283 47.26 25.4747 47.535 24.8239C47.8099 24.1731 48.188 23.625 48.6693 23.2825C49.1504 22.9057 49.7346 22.7344 50.3878 22.7344C51.1096 22.7344 51.6594 22.94 52.0719 23.351C52.45 23.762 52.6563 24.3787 52.6563 25.1664V33.0107H55.9215V25.1321C55.9215 23.488 55.5434 22.2549 54.7529 21.3642C53.9623 20.4736 52.9312 20.0283 51.5907 20.0283C50.4564 20.0283 49.5285 20.3709 48.7723 20.9874C48.0505 21.6383 47.5006 22.5289 47.1225 23.625V20.4051H43.8917V33.0107H47.1225V27.0847ZM66.8513 33.2505C67.2638 33.1819 67.6763 33.0791 68.02 32.9764C68.3981 32.8736 68.7075 32.7366 69.0512 32.6339L69.0855 29.5852C68.57 29.8593 68.02 30.0305 67.4357 30.1676C66.8513 30.3045 66.2671 30.3731 65.6828 30.3731C64.8235 30.3731 64.0673 30.2019 63.4831 29.8936C62.8987 29.5852 62.452 29.14 62.1769 28.5576C61.902 28.0095 61.7646 27.3587 61.7646 26.6736C61.7646 25.9886 61.902 25.372 62.1769 24.7896C62.452 24.2416 62.8987 23.7963 63.4831 23.4537C64.0673 23.1112 64.7891 22.9742 65.6141 22.9742C66.2671 22.9742 66.8513 23.0426 67.4357 23.1797C68.02 23.3168 68.5356 23.5222 69.0512 23.762L69.0168 20.6106C68.6387 20.4736 68.295 20.3366 67.9512 20.2681C67.6075 20.1653 67.2294 20.0968 66.7827 20.0626C66.3702 19.9941 65.9234 19.9598 65.4423 19.9598C63.9986 19.9598 62.7613 20.2681 61.6958 20.8504C60.6303 21.4327 59.8054 22.2549 59.221 23.2482C58.6368 24.2759 58.3618 25.4063 58.3618 26.7079C58.3618 27.9753 58.6711 29.14 59.2554 30.1333C59.8398 31.1267 60.6647 31.9146 61.7302 32.4626C62.7957 33.0106 64.033 33.319 65.4423 33.319C65.9578 33.3533 66.439 33.319 66.8513 33.2505ZM75.2036 32.9764V27.0847C75.2036 26.2283 75.341 25.4747 75.6159 24.8239C75.891 24.1731 76.2691 23.625 76.7846 23.2825C77.3002 22.9057 77.8502 22.7344 78.5032 22.7344C79.2592 22.7344 79.8092 22.94 80.1873 23.351C80.5654 23.762 80.7716 24.3787 80.7716 25.1664V33.0107H84.0024V25.1321C84.0024 23.488 83.6245 22.2549 82.8339 21.3642C82.0434 20.4736 81.0122 20.0283 79.6717 20.0283C78.5376 20.0283 77.5751 20.3709 76.8533 20.9874C76.0972 21.6383 75.5473 22.5289 75.2036 23.625V15.5753H72.007V32.9764H75.2036ZM94.4513 32.9764C96.3073 32.9764 97.8883 32.6339 99.1944 31.9146C100.501 31.1952 101.497 30.2019 102.185 28.9001C102.872 27.5985 103.216 26.0571 103.216 24.3101C103.216 22.5632 102.872 21.0217 102.185 19.72C101.497 18.4184 100.501 17.3907 99.1944 16.6714C97.8883 15.9521 96.3073 15.6095 94.4513 15.6095H87.7489V33.0107H94.4513V32.9764ZM91.0829 30.0305V18.5211H94.4169C96.101 18.5211 97.4072 19.0349 98.3351 20.0283C99.2976 21.056 99.7443 22.4604 99.7443 24.2759C99.7443 26.0914 99.2632 27.5299 98.3351 28.5234C97.3728 29.5168 96.0666 30.0305 94.4169 30.0305H91.0829ZM111.671 32.4283C112.393 31.8803 112.943 31.1609 113.321 30.2703V32.9764H116.517V24.5841C116.517 23.6936 116.311 22.8714 115.864 22.1863C115.418 21.5013 114.764 20.9532 113.94 20.5764C113.115 20.1996 112.118 19.9941 110.984 19.9941C110.365 19.9941 109.746 20.0626 109.162 20.1653C108.578 20.2681 108.028 20.4394 107.512 20.6449C106.997 20.8504 106.515 21.0902 106.103 21.3642L106.206 24.3444C106.997 23.8305 107.753 23.4537 108.509 23.1797C109.265 22.9057 110.09 22.7686 111.018 22.7686C111.74 22.7686 112.324 22.94 112.737 23.2825C113.149 23.625 113.355 24.0703 113.355 24.6184V25.4747H110.537C108.818 25.4747 107.478 25.8172 106.481 26.5366C105.484 27.2559 105.003 28.2493 105.003 29.5168C105.003 30.2361 105.175 30.8527 105.484 31.435C105.828 32.0172 106.275 32.4626 106.893 32.7708C107.512 33.1134 108.234 33.2505 109.024 33.2505C110.09 33.2505 110.949 32.9765 111.671 32.4283ZM108.784 30.2703C108.44 29.9963 108.234 29.6194 108.234 29.14C108.234 28.5576 108.475 28.1123 108.99 27.8041C109.471 27.4957 110.227 27.3245 111.19 27.3245H113.252V27.8041C113.252 28.215 113.149 28.6261 112.908 29.0714C112.668 29.5168 112.324 29.8936 111.843 30.2019C111.362 30.5101 110.846 30.6471 110.227 30.6471C109.643 30.6813 109.162 30.5444 108.784 30.2703ZM123.048 32.9764V27.5985C123.048 26.194 123.357 25.1321 123.941 24.4128C124.526 23.6936 125.351 23.3168 126.347 23.3168C126.829 23.3168 127.275 23.3852 127.688 23.5222V20.4051C127.482 20.3366 127.275 20.3024 127.069 20.2681C126.863 20.2339 126.622 20.2339 126.382 20.2339C125.591 20.2339 124.904 20.5079 124.354 21.056C123.804 21.604 123.357 22.3918 123.082 23.351V20.3366H119.851V32.9422H123.048V32.9764ZM132.981 32.9764V28.9001L134.15 27.8041L137.931 32.9764H141.78L136.384 25.6118L141.677 20.3709H137.622L133.016 24.8239V15.5753H129.819V32.9764H132.981ZM146.971 32.9764V15.5753H143.739V32.9764H146.971ZM151.919 37.6692C153.122 37.6692 154.085 37.4295 154.84 36.9499C155.597 36.4703 156.216 35.614 156.731 34.415L162.539 20.3709H159.206L155.804 29.1742L152.297 20.3709H148.963L154.154 32.9422L153.878 33.593C153.706 34.0041 153.501 34.3466 153.192 34.5178C152.916 34.7234 152.469 34.8261 151.884 34.8261H149.204V37.6692H151.919Z" fill="black"/>
<path d="M186.324 39.793C186.084 39.793 185.843 39.656 185.706 39.4162C185.603 39.1764 185.603 38.9367 185.775 38.7311L193.096 28.6946L180.275 33.9012C180.172 33.9355 180.103 33.9698 180.001 33.9698C179.691 33.9698 179.417 33.7643 179.348 33.4902C179.245 33.2162 179.382 32.9079 179.622 32.7367L190.897 26.1256L171.065 24.9952C170.652 24.9609 170.412 24.6526 170.412 24.3101C170.412 24.0018 170.617 23.6593 171.065 23.625L190.897 22.4946L179.622 15.8836C179.382 15.7123 179.245 15.404 179.348 15.13C179.45 14.856 179.691 14.6504 180.001 14.6504C180.103 14.6504 180.172 14.6847 180.275 14.7189L193.096 19.9256L185.775 9.85485C185.638 9.64932 185.603 9.37529 185.706 9.16976C185.81 8.92999 186.05 8.79297 186.324 8.79297C186.496 8.79297 186.668 8.86148 186.805 8.99849L201.38 23.4881C201.585 23.6935 201.689 24.0018 201.689 24.2758C201.689 24.5498 201.585 24.824 201.38 25.0637L186.805 39.5875C186.668 39.7244 186.496 39.793 186.324 39.793Z" fill="black"/>
</svg>
