<svg width="168" height="48" viewBox="0 0 168 48" fill="none" xmlns="http://www.w3.org/2000/svg">
<path fill-rule="evenodd" clip-rule="evenodd" d="M76.5295 30.4384C75.361 30.7079 74.7565 30.3484 74.7565 29.5744C74.7565 28.5139 75.853 28.0894 77.4195 28.0894C78.1085 28.0894 78.7585 28.1489 78.7585 28.1489C78.7585 28.6029 77.772 30.1519 76.5295 30.4384ZM77.7185 19.8209C73.978 19.8209 71.2925 21.1964 71.2925 21.1964V25.2399C71.2925 25.2399 74.2575 23.5354 76.663 23.5354C78.582 23.5354 78.818 24.5709 78.731 25.4299C78.731 25.4299 78.177 25.2834 76.488 25.2834C72.5065 25.2834 70.4975 27.0929 70.4975 29.9939C70.4975 32.7458 72.7555 33.8958 74.6585 33.8958C77.4345 33.8958 78.6555 32.0298 79.03 31.1448C79.2905 30.5309 79.3385 30.1169 79.5715 30.1169C79.839 30.1169 79.749 30.4139 79.7355 31.0248C79.7135 32.0953 79.7645 32.9043 79.934 33.5863H83.6154V26.9644C83.6154 22.8299 82.1525 19.8209 77.7185 19.8209Z" fill="#100F0D"/>
<path fill-rule="evenodd" clip-rule="evenodd" d="M101.949 26.8651C101.949 25.6556 103.073 24.5541 105.137 24.5541C107.386 24.5541 109.195 25.6371 109.601 25.8831V21.2021C109.601 21.2021 108.172 19.8261 104.659 19.8261C100.957 19.8261 97.8733 21.9926 97.8733 26.6561C97.8733 31.3191 100.672 33.905 104.649 33.905C107.757 33.905 109.609 32.1976 109.609 32.1976V27.7521C109.023 28.0796 107.39 29.2131 105.16 29.2131C102.798 29.2131 101.949 28.1261 101.949 26.8651ZM52.744 20.1326C52.7445 20.1356 52.979 21.1416 52.67 22.4571C52.5125 23.1261 52.223 23.6951 52.5725 23.6951C52.8135 23.6951 52.814 23.4951 53.1275 22.7781C53.586 21.7301 54.5525 19.8226 56.811 19.8226C58.958 19.8226 59.9695 21.1271 60.3045 22.3486C60.5595 23.2766 60.3365 23.6951 60.6475 23.6951C60.8685 23.6951 60.945 23.2136 61.217 22.6046C61.7055 21.5136 62.768 19.8226 64.917 19.8226C68.1595 19.8226 69.3975 22.1641 69.3975 25.6766V33.5911H64.5805V26.2946C64.5805 25.0781 64.384 23.8981 63.275 23.8981C62.2475 23.8981 61.7685 25.7191 61.7685 26.8946V33.5941H56.863V26.2951C56.863 24.7386 56.6435 23.8986 55.5495 23.8986C54.6025 23.8986 54.05 25.5741 54.05 26.8951V33.5916H49.1641V20.1326H52.744ZM85.2189 20.1511C85.2209 20.1521 86.0524 20.6316 87.6664 20.6316C89.2833 20.6316 90.1043 20.1511 90.1043 20.1511V33.5945H85.2189V20.1511ZM125.553 20.1511C125.555 20.1521 126.387 20.6316 128.001 20.6316C129.618 20.6316 130.439 20.1511 130.439 20.1511V33.5945H125.553V20.1511ZM96.5713 16.0581V33.5945H91.6853V16.0581H96.5713ZM115.407 16.0581C115.408 16.0596 115.61 16.5636 115.61 18.0626C115.61 20.2761 115.128 22.0776 114.901 22.7641C114.78 23.1276 114.565 23.6886 114.874 23.6986C115.052 23.7041 115.159 23.4361 115.377 22.9711C115.594 22.5056 116.67 19.8256 119.498 19.8256C123.393 19.8256 123.966 23.0156 123.966 26.4701V33.5941H119.08V26.1776C119.08 24.6566 118.761 23.9011 117.742 23.9011C116.511 23.9011 116.076 25.8071 116.076 26.8981V33.5941H111.19V16.0576L115.407 16.0581ZM135.67 20.1326C135.67 20.1356 135.905 21.1416 135.596 22.4571C135.438 23.1261 135.149 23.6951 135.498 23.6951C135.739 23.6951 135.74 23.4951 136.053 22.7781C136.511 21.7301 137.478 19.8226 139.737 19.8226C141.982 19.8226 142.872 21.1331 143.23 22.3486C143.47 23.1631 143.262 23.6951 143.573 23.6951C143.794 23.6951 143.871 23.2136 144.143 22.6046C144.63 21.5136 145.694 19.8226 147.843 19.8226C151.085 19.8226 152.323 22.1641 152.323 25.6766V33.5911H147.506V26.2946C147.506 25.0781 147.31 23.8981 146.201 23.8981C145.173 23.8981 144.694 25.7191 144.694 26.8946V33.5941H139.788V26.2951C139.788 24.7386 139.57 23.8986 138.475 23.8986C137.528 23.8986 136.976 25.5741 136.976 26.8951V33.5916H132.09V20.1326H135.67ZM87.6469 15.9221C85.9959 15.9221 84.6564 16.7961 84.6564 17.8741C84.6564 18.9521 85.9954 19.8261 87.6469 19.8261C89.2989 19.8261 90.6378 18.9521 90.6378 17.8741C90.6378 16.7961 89.2993 15.9221 87.6469 15.9221ZM127.982 15.9221C126.33 15.9221 124.991 16.7961 124.991 17.8741C124.991 18.9521 126.33 19.8261 127.982 19.8261C129.633 19.8261 130.973 18.9521 130.973 17.8741C130.973 16.7961 129.634 15.9221 127.982 15.9221Z" fill="#100F0D"/>
<path fill-rule="evenodd" clip-rule="evenodd" d="M160.646 30.6944C159.526 30.6944 158.702 29.2739 158.702 27.2944C158.702 25.3719 159.548 23.8954 160.607 23.8954C161.966 23.8954 162.546 25.1419 162.546 27.2944C162.546 29.5339 162.011 30.6944 160.646 30.6944ZM161.986 19.8179C159.476 19.8179 158.324 21.7004 157.824 22.7729C157.494 23.4814 157.511 23.6899 157.269 23.6899C156.921 23.6899 157.21 23.1209 157.367 22.4519C157.677 21.1344 157.442 20.1279 157.442 20.1279H153.864V37.2993H158.748V31.8554C159.325 32.8358 160.396 33.8833 162.046 33.8833C165.579 33.8833 167.356 30.8949 167.356 26.8574C167.356 22.2814 165.229 19.8179 161.987 19.8179" fill="#100F0D"/>
<path fill-rule="evenodd" clip-rule="evenodd" d="M31.8923 23.881C32.2208 23.842 32.5354 23.84 32.8248 23.881C32.9923 23.497 33.0208 22.8355 32.8703 22.115C32.6469 21.044 32.3438 20.396 31.7178 20.497C31.0919 20.598 31.0688 21.374 31.2928 22.4445C31.4188 23.047 31.6429 23.562 31.8923 23.881Z" fill="#231F20"/>
<path fill-rule="evenodd" clip-rule="evenodd" d="M26.5218 24.7285C26.9693 24.925 27.2448 25.0555 27.3523 24.9415C27.4218 24.8705 27.4008 24.735 27.2938 24.5605C27.0728 24.2 26.6183 23.834 26.1358 23.6285C25.1498 23.204 23.9733 23.345 23.0658 23.997C22.7663 24.2165 22.4823 24.5205 22.5228 24.705C22.5358 24.7645 22.5808 24.8095 22.6858 24.8245C22.9328 24.8525 23.7958 24.4165 24.7903 24.3555C25.4918 24.3125 26.0738 24.532 26.5218 24.7285Z" fill="#231F20"/>
<path fill-rule="evenodd" clip-rule="evenodd" d="M25.623 25.2426C25.0395 25.3346 24.718 25.5271 24.5115 25.7056C24.3356 25.8596 24.2265 26.0301 24.2275 26.1496C24.228 26.2066 24.2525 26.2396 24.272 26.2561C24.2985 26.2796 24.33 26.2926 24.368 26.2926C24.4995 26.2926 24.795 26.1741 24.795 26.1741C25.6065 25.8836 26.142 25.9191 26.6725 25.9791C26.9655 26.0121 27.1045 26.0301 27.1685 25.9296C27.1875 25.9006 27.2105 25.8381 27.152 25.7431C27.0155 25.5216 26.426 25.1471 25.623 25.2426Z" fill="#231F20"/>
<path fill-rule="evenodd" clip-rule="evenodd" d="M30.0801 27.1287C30.4761 27.3232 30.9121 27.2467 31.0541 26.9582C31.1961 26.6697 30.9901 26.2777 30.5941 26.0832C30.1981 25.8887 29.7621 25.9652 29.6201 26.2537C29.4781 26.5427 29.6841 26.9342 30.0801 27.1287Z" fill="#231F20"/>
<path fill-rule="evenodd" clip-rule="evenodd" d="M32.6264 24.9044C32.3049 24.8989 32.0379 25.2519 32.0304 25.6934C32.0229 26.1349 32.2779 26.4963 32.5994 26.5018C32.9209 26.5073 33.1879 26.1543 33.1954 25.7129C33.2029 25.2719 32.9479 24.9099 32.6264 24.9044Z" fill="#231F20"/>
<path fill-rule="evenodd" clip-rule="evenodd" d="M11.0166 32.859C10.9366 32.7585 10.8051 32.789 10.6776 32.819C10.5886 32.84 10.4881 32.863 10.3776 32.8615C10.1411 32.857 9.94061 32.756 9.82811 32.583C9.68161 32.358 9.69011 32.0226 9.85161 31.6386L9.92711 31.4666C10.1851 30.8876 10.6166 29.9191 10.1321 28.9961C9.76711 28.3011 9.17212 27.8686 8.45662 27.7776C7.76962 27.6906 7.06263 27.9451 6.61163 28.4426C5.90013 29.2276 5.78863 30.2961 5.92613 30.6736C5.97663 30.8116 6.05563 30.8501 6.11263 30.8581C6.23363 30.8741 6.41263 30.7861 6.52463 30.4846L6.55663 30.3866C6.60663 30.2271 6.69963 29.9301 6.85213 29.6921C7.03612 29.4051 7.32213 29.2076 7.65812 29.1351C8.00012 29.0616 8.35012 29.1271 8.64312 29.3191C9.14162 29.6451 9.33362 30.2561 9.12062 30.8386C9.01062 31.1401 8.83162 31.7166 8.87112 32.1901C8.95112 33.1485 9.54061 33.5335 10.0701 33.5745C10.5851 33.594 10.9451 33.3045 11.0361 33.0935C11.0896 32.9685 11.0446 32.8925 11.0151 32.86" fill="#231F20"/>
<path fill-rule="evenodd" clip-rule="evenodd" d="M15.9149 15.2543C17.5949 13.3133 19.6624 11.6258 21.5149 10.6783C21.5789 10.6453 21.6469 10.7148 21.6124 10.7778C21.4654 11.0443 21.1819 11.6148 21.0924 12.0473C21.0784 12.1148 21.1519 12.1653 21.2089 12.1268C22.3614 11.3413 24.3658 10.4993 26.1243 10.3913C26.1998 10.3868 26.2363 10.4833 26.1763 10.5298C25.9088 10.7348 25.6163 11.0188 25.4028 11.3058C25.3663 11.3548 25.4008 11.4248 25.4618 11.4253C26.6963 11.4343 28.4368 11.8663 29.5713 12.5028C29.6478 12.5458 29.5933 12.6943 29.5073 12.6748C27.7908 12.2813 24.9813 11.9828 22.0624 12.6948C19.4569 13.3303 17.4679 14.3118 16.0174 15.3668C15.9439 15.4203 15.8554 15.3228 15.9149 15.2543ZM24.2808 34.0602L24.2813 34.0612L24.2823 34.0632L24.2808 34.0602ZM31.2078 34.8777C31.2578 34.8567 31.2918 34.8002 31.2863 34.7437C31.2793 34.6742 31.2173 34.6237 31.1478 34.6307C31.1478 34.6307 27.5633 35.1612 24.1768 33.9217C24.5458 32.7227 25.5263 33.1557 27.0088 33.2752C29.6808 33.4347 32.0758 33.0442 33.8458 32.5362C35.3793 32.0962 37.3938 31.2282 38.9583 29.9932C39.4858 31.1522 39.6723 32.4282 39.6723 32.4282C39.6723 32.4282 40.0808 32.3552 40.4223 32.5652C40.7448 32.7637 40.9812 33.1762 40.8197 34.2432C40.4907 36.2362 39.6438 37.8542 38.2198 39.3427C37.3528 40.2757 36.3008 41.0866 35.0968 41.6766C34.4573 42.0126 33.7768 42.3031 33.0573 42.5376C27.6893 44.2911 22.1944 42.3636 20.4234 38.2247C20.2819 37.9137 20.1624 37.5877 20.0684 37.2472C19.3139 34.5197 19.9544 31.2472 21.9574 29.1872C22.0809 29.0562 22.2069 28.9007 22.2069 28.7062C22.2069 28.5437 22.1034 28.3722 22.0139 28.2502C21.3129 27.2337 18.8854 25.5017 19.3729 22.1497C19.7229 19.7418 21.8289 18.0458 23.7923 18.1463L24.2898 18.1748C25.1408 18.2253 25.8828 18.3343 26.5833 18.3638C27.7558 18.4148 28.8098 18.2443 30.0588 17.2038C30.4798 16.8528 30.8178 16.5483 31.3893 16.4518C31.4493 16.4413 31.5988 16.3878 31.8973 16.4018C32.2023 16.4183 32.4923 16.5018 32.7528 16.6753C33.7538 17.3413 33.8958 18.9548 33.9478 20.1348C33.9773 20.8083 34.0588 22.4382 34.0868 22.9062C34.1503 23.9762 34.4318 24.1267 35.0008 24.3142C35.3208 24.4197 35.6178 24.4982 36.0558 24.6212C37.3808 24.9932 38.1663 25.3707 38.6618 25.8557C38.9573 26.1587 39.0948 26.4807 39.1373 26.7877C39.2933 27.9277 38.2523 29.3357 35.4958 30.6152C32.4828 32.0137 28.8273 32.3677 26.3018 32.0862L25.4168 31.9862C23.3968 31.7142 22.2444 34.3247 23.4568 36.1137C24.2383 37.2667 26.3668 38.0167 28.4963 38.0172C33.3788 38.0177 37.1318 35.9327 38.5278 34.1322L38.6393 33.9732C38.7083 33.8697 38.6513 33.8127 38.5658 33.8712C37.4253 34.6517 32.3593 37.7502 26.9403 36.8177C26.9403 36.8177 26.2818 36.7092 25.6808 36.4757C25.2033 36.2897 24.2033 35.8297 24.0818 34.8042C28.4548 36.1567 31.2078 34.8777 31.2078 34.8777ZM7.18844 24.4852C5.66745 24.7807 4.32696 25.6427 3.50746 26.8337C3.01746 26.4252 2.10497 25.6342 1.94347 25.3257C0.634974 22.8407 3.37146 18.0098 5.28345 15.2813C10.0084 8.53882 17.4084 3.43535 20.8339 4.36134C21.3909 4.51884 23.2353 6.65733 23.2353 6.65733C23.2353 6.65733 19.8109 8.55732 16.6354 11.2058C12.3564 14.5003 9.12493 19.2888 7.18844 24.4852ZM9.74392 35.8877C9.51392 35.9272 9.27893 35.9427 9.04193 35.9367C6.75344 35.8752 4.28196 33.8152 4.03646 31.3722C3.76496 28.6717 5.14495 26.5937 7.58793 26.1007C7.87993 26.0417 8.23293 26.0077 8.61343 26.0277C9.98242 26.1027 11.9994 27.1537 12.4599 30.1357C12.8679 32.7767 12.2199 35.4657 9.74392 35.8877ZM40.7417 31.1057C40.7222 31.0362 40.5942 30.5697 40.4188 30.0072C40.2433 29.4442 40.0618 29.0487 40.0618 29.0487C40.7657 27.9952 40.7783 27.0527 40.6843 26.5192C40.5843 25.8577 40.3088 25.2942 39.7538 24.7112C39.1988 24.1287 38.0633 23.5317 36.4678 23.0837L35.6308 22.8512C35.6268 22.8167 35.5868 20.8778 35.5508 20.0453C35.5243 19.4433 35.4728 18.5038 35.1813 17.5788C34.8338 16.3263 34.2288 15.2303 33.4733 14.5293C35.5583 12.3683 36.8598 9.98731 36.8563 7.94532C36.8503 4.01784 32.0268 2.82936 26.0823 5.29084L24.8228 5.82534C24.8173 5.81984 22.5459 3.59135 22.5119 3.56135C15.7344 -2.35012 -5.45549 21.2033 1.31897 26.9237L2.79946 28.1782C2.41547 29.1732 2.26446 30.3132 2.38796 31.5387C2.54596 33.1132 3.35796 34.6222 4.67445 35.7882C5.92395 36.8952 7.56693 37.5962 9.16092 37.5947C11.7974 43.6701 17.8214 47.3971 24.8843 47.6071C32.4608 47.8321 38.8208 44.2771 41.4857 37.8912C41.6602 37.4432 42.3997 35.4237 42.3997 33.6407C42.3997 31.8492 41.3867 31.1057 40.7417 31.1057Z" fill="#231F20"/>
</svg>
