<svg width="142" height="48" viewBox="0 0 142 48" fill="none" xmlns="http://www.w3.org/2000/svg">
<g clip-path="url(#clip0_201_8042)">
<path fill-rule="evenodd" clip-rule="evenodd" d="M2.4389 35.8519C-0.813008 32.6276 -0.812956 27.4 2.43899 24.1757L11.2714 15.4183C14.0205 12.6926 18.2134 12.271 21.409 14.1536C22.3976 14.7359 22.3889 16.0717 21.5759 16.8778C20.7629 17.6839 19.4358 17.6145 18.3323 17.2945C16.9192 16.8847 15.33 17.2323 14.2156 18.3374L5.38311 27.0947C3.75714 28.7069 3.75712 31.3207 5.38307 32.9329C7.00906 34.5451 9.64535 34.5451 11.2713 32.9329L28.936 15.4184C32.1881 12.194 37.4605 12.194 40.7125 15.4183L49.545 24.1757C52.797 27.3999 52.797 32.6276 49.545 35.8519C46.2931 39.0763 41.0206 39.0763 37.7686 35.8519L34.8245 32.9329L31.1443 36.5818C28.3952 39.3074 24.2023 39.729 21.0066 37.8464C20.0182 37.2641 20.0268 35.9283 20.8399 35.1222C21.6528 34.3161 22.9799 34.3854 24.0835 34.7055C25.4966 35.1153 27.0857 34.7676 28.2001 33.6626L31.9855 29.9095C33.5534 28.3549 36.0955 28.3549 37.6635 29.9095L40.7127 32.9329C42.3387 34.545 44.9749 34.545 46.6009 32.9329C48.2269 31.3207 48.2269 28.7069 46.6009 27.0947L37.7683 18.3375C36.1424 16.7253 33.5062 16.7253 31.8802 18.3375L14.2155 35.852C10.9634 39.0764 5.69087 39.0764 2.4389 35.8519Z" fill="black"/>
<path d="M85.2449 17.6796C83.1987 17.6796 81.6485 18.4123 80.6254 19.8777C79.7263 18.4123 78.3001 17.6796 76.4089 17.6796C74.4557 17.6796 73.0295 18.3512 72.0993 19.7251V18.107H68.0999V33.3721H72.0993V24.7931C72.0993 22.5644 73.2464 21.3432 75.0137 21.3432C76.6569 21.3432 77.618 22.4118 77.618 24.2436V33.3721H81.6175V24.7931C81.6175 22.5644 82.6717 21.3432 84.5009 21.3432C86.1441 21.3432 87.1051 22.4118 87.1051 24.2436V33.3721H91.1046V23.9688C91.1046 20.1525 88.8104 17.6796 85.2449 17.6796Z" fill="black"/>
<path d="M105.973 19.9083C104.764 18.4123 103.089 17.6796 100.919 17.6796C98.8419 17.6796 97.0748 18.4734 95.5866 20.0304C94.1294 21.5874 93.3853 23.4803 93.3853 25.7396C93.3853 27.9988 94.1294 29.9222 95.5866 31.4793C97.0748 33.0363 98.8419 33.7996 100.919 33.7996C103.089 33.7996 104.764 33.0668 105.973 31.5708V33.3721H109.972V18.107H105.973V19.9083ZM98.5939 28.8536C97.7878 28.0293 97.3847 26.9913 97.3847 25.7396C97.3847 24.4878 97.7878 23.4498 98.5939 22.656C99.4 21.8317 100.423 21.4348 101.663 21.4348C102.903 21.4348 103.927 21.8317 104.733 22.656C105.57 23.4498 105.973 24.4878 105.973 25.7396C105.973 26.9913 105.57 28.0293 104.733 28.8536C103.927 29.6475 102.903 30.0443 101.663 30.0443C100.423 30.0443 99.4 29.6475 98.5939 28.8536Z" fill="black"/>
<path d="M124.729 20.7325V18.1069H113.103V21.8011H119.334L112.792 30.7465V33.372H125.039V29.6779H118.156L124.729 20.7325Z" fill="black"/>
<path d="M141.762 27.3577C141.855 26.7776 141.917 26.2586 141.917 25.7396C141.917 23.4498 141.174 21.5569 139.685 19.9999C138.228 18.4428 136.336 17.6796 134.073 17.6796C131.686 17.6796 129.702 18.4428 128.182 19.9999C126.663 21.5264 125.888 23.4498 125.888 25.7396C125.888 28.0599 126.663 29.9833 128.214 31.5097C129.764 33.0363 131.81 33.7996 134.383 33.7996C137.359 33.7996 139.623 32.7004 141.142 30.5328L137.918 28.701C137.142 29.7085 135.965 30.2275 134.445 30.2275C132.058 30.2275 130.601 29.2811 130.074 27.3577H141.762ZM130.012 24.3046C130.477 22.3507 131.934 21.2211 134.073 21.2211C135.902 21.2211 137.452 22.2286 137.918 24.3046H130.012Z" fill="black"/>
</g>
<defs>
<clipPath id="clip0_201_8042">
<rect width="142" height="48" fill="white"/>
</clipPath>
</defs>
</svg>
