<svg width="145" height="48" viewBox="0 0 145 48" fill="none" xmlns="http://www.w3.org/2000/svg">
<g clip-path="url(#clip0_201_8044)">
<path d="M10.8308 12.7407C16.7997 12.7407 21.6615 17.6025 21.6615 23.6196C21.6615 29.6367 16.7997 34.4985 10.8308 34.4985C4.86181 34.4985 0 29.6848 0 23.6196C0 17.5544 4.86181 12.7407 10.8308 12.7407ZM95.744 12.5V31.5622C95.744 33.0063 96.3216 33.3914 97.4288 33.6802L97.4769 33.9209H91.3636V31.5622C90.6415 33.2951 89.1493 34.3541 87.2238 34.3541C83.9505 34.3541 81.7844 31.3696 81.7844 26.941C81.7844 24.4379 82.5064 22.3199 83.8542 20.7314C85.1539 19.191 86.935 18.3727 88.9086 18.3727C89.8713 18.3727 90.6897 18.5652 91.3636 18.9985V16.3991C91.3636 15.8214 91.2192 15.4363 90.9303 15.1475C90.5452 14.8106 89.9195 14.6662 88.9567 14.7624H88.9086V14.5217L95.744 12.5ZM118.946 18.4208V31.5622C118.946 33.0063 119.524 33.3914 120.631 33.6802V33.9209H114.517V31.514C113.795 33.2469 112.207 34.3541 110.426 34.3541C108.308 34.3541 106.96 33.3913 106.43 31.514L106.334 31.0326C106.238 30.5513 106.19 30.0699 106.19 29.5885V22.5606C106.19 21.0202 105.853 20.5388 104.505 20.4426H104.457V20.2019L110.57 18.4208V29.4923C110.57 31.1289 111.292 32.0435 112.64 32.0435C113.458 32.0435 114.132 31.6103 114.517 30.8882V22.5606C114.517 20.9721 114.229 20.4907 113.121 20.3944H113.073V20.1537L118.946 18.4208ZM74.8045 18.3727C76.4412 18.3727 78.0297 18.9503 79.0887 19.9612C80.2921 21.1165 80.9179 22.8013 80.966 25.0156V25.0637H71.7719C71.5794 28.2407 73.553 30.8401 76.1524 30.9364C78.0297 31.0808 79.6663 29.9255 80.5809 28.0482L80.8216 28.1444C80.2921 31.6584 78.2222 34.3059 74.612 34.3059C70.5204 34.3059 68.2098 30.8882 68.1135 26.6041V25.4969C68.3061 23.6196 68.8837 21.9348 69.8946 20.6832C70.5204 19.9131 71.2424 19.3354 72.1089 18.9503C72.8309 18.5652 73.8899 18.3727 74.7564 18.3727H74.8045ZM138.489 18.4208C141.089 18.4208 142.677 20.0575 142.677 22.8494V31.8028C142.677 32.8618 143.159 33.3914 144.362 33.6802H144.41V33.9209H138.249V22.9938C138.249 21.2609 137.623 20.3944 136.323 20.3944C135.264 20.3944 134.735 21.1646 134.446 21.8385C134.494 22.1755 134.542 22.5124 134.542 22.8494V31.9472C134.542 33.0544 134.879 33.4395 135.842 33.6802H135.89V33.9209H130.162V22.9938C130.162 21.2609 129.488 20.3944 128.236 20.3944C127.225 20.3944 126.696 21.1165 126.455 21.6941V31.9954C126.455 33.1025 126.792 33.4876 127.755 33.7283H127.803V33.969H122.075V22.5124C122.075 20.9721 121.69 20.4907 120.39 20.3944H120.342V20.1537L126.455 18.469V21.0202C127.081 19.3836 128.525 18.4208 130.354 18.4208C132.424 18.4208 133.868 19.4317 134.35 21.2609C134.975 19.528 136.564 18.4208 138.489 18.4208ZM50.688 13.4627L56.4163 26.8929L62.1446 13.4627H68.3061L68.2579 13.7034L68.188 13.719C67.1265 13.9609 66.5731 14.3579 66.5731 15.677V32.0435C66.6694 33.1025 67.2471 33.4395 68.2579 33.6802H68.3061V33.9209H60.4598V33.6802H60.5079C61.5188 33.4395 62.0964 33.1025 62.1927 32.0435V16.1103L54.6352 33.8727H54.202L46.8371 16.5916V31.6584C46.8371 33.0063 47.4147 33.3914 48.5219 33.632H48.57V33.8727H44.0451V33.632H44.0933C45.2004 33.3914 45.7781 33.0063 45.7781 31.6584V15.677C45.7781 14.3292 45.2004 13.9441 44.0933 13.7034H44.0451V13.4627H50.688ZM103.205 18.4208V31.5622L103.206 31.651C103.23 33.0223 103.806 33.3974 104.89 33.6802L104.938 33.9209H98.8248V22.5606C98.8248 21.0202 98.4878 20.5388 97.14 20.4426H97.0919V20.2019L103.205 18.4208ZM28.16 13.3665C31.0963 13.3665 33.5513 17.9876 33.5513 23.6196C33.5513 29.2997 31.1445 33.8727 28.16 33.8727C25.1755 33.8727 22.7687 29.2997 22.7687 23.6196C22.7687 17.9395 25.1755 13.3665 28.16 13.3665ZM36.4395 14.4255C37.5467 14.4255 38.365 18.5652 38.365 23.6196C38.365 28.674 37.4985 32.8137 36.4395 32.8137C35.3911 32.8137 34.5314 28.7563 34.5143 23.7709L34.5141 23.6196C34.5141 18.5652 35.3805 14.4255 36.4395 14.4255ZM89.6306 19.2391C87.7052 19.2391 86.5018 21.7904 86.5018 25.7376C86.5018 27.6149 86.8387 29.2516 87.4164 30.3587C87.9459 31.4177 88.716 31.9954 89.5825 31.9954C90.449 31.9954 91.0747 31.6103 91.3636 30.8882V20.2982C91.0266 19.6242 90.4008 19.2391 89.6306 19.2391ZM74.7564 19.2873C73.0235 19.2873 72.0126 21.3572 71.8682 24.2454V24.2935H77.1151C77.2114 22.0311 76.8263 20.5388 76.1042 19.8168C75.7191 19.4798 75.2859 19.2873 74.7564 19.2873ZM100.847 12.6444C102.242 12.6444 103.301 13.7034 103.301 15.0994C103.301 16.4954 102.242 17.5544 100.847 17.5544C99.4505 17.5544 98.3915 16.4954 98.3915 15.0994C98.3915 13.7034 99.4505 12.6444 100.847 12.6444Z" fill="black"/>
</g>
<defs>
<clipPath id="clip0_201_8044">
<rect width="145" height="48" fill="white"/>
</clipPath>
</defs>
</svg>
