<svg width="164" height="48" viewBox="0 0 164 48" fill="none" xmlns="http://www.w3.org/2000/svg">
<path d="M163.858 21.8339V18.9522H160.279V14.4722L160.159 14.5093L156.798 15.5377L156.731 15.5579V18.9523H151.426V17.0613C151.426 16.1808 151.623 15.507 152.011 15.0576C152.396 14.6136 152.948 14.3879 153.65 14.3879C154.156 14.3879 154.679 14.507 155.206 14.7417L155.338 14.8007V11.7659L155.276 11.743C154.784 11.5665 154.116 11.4775 153.288 11.4775C152.244 11.4775 151.296 11.7047 150.469 12.1548C149.641 12.6056 148.99 13.2492 148.534 14.0674C148.08 14.8847 147.849 15.8286 147.849 16.8732V18.9522H145.357V21.8339H147.849V33.9739H151.426V21.8339H156.731V29.5486C156.731 32.726 158.23 34.3361 161.186 34.3361C161.671 34.3361 162.183 34.2792 162.704 34.1677C163.236 34.0533 163.598 33.939 163.811 33.817L163.858 33.7891V30.8807L163.712 30.977C163.518 31.1063 163.276 31.212 162.993 31.2907C162.708 31.3707 162.471 31.4108 162.286 31.4108C161.594 31.4108 161.082 31.2242 160.764 30.856C160.442 30.4845 160.279 29.8348 160.279 28.9259V21.8339H163.858ZM137.369 31.4113C136.071 31.4113 135.047 30.9808 134.326 30.1327C133.6 29.2804 133.232 28.0653 133.232 26.5214C133.232 24.9286 133.6 23.6819 134.326 22.8146C135.048 21.9529 136.062 21.5156 137.34 21.5156C138.58 21.5156 139.568 21.9332 140.275 22.7577C140.986 23.5863 141.346 24.823 141.346 26.4344C141.346 28.0656 141.007 29.3186 140.338 30.1568C139.674 30.9887 138.675 31.4113 137.369 31.4113ZM137.528 18.5903C135.051 18.5903 133.084 19.3161 131.681 20.7476C130.279 22.1793 129.568 24.1605 129.568 26.6367C129.568 28.9886 130.262 30.8804 131.631 32.2587C132.999 33.6374 134.862 34.3358 137.166 34.3358C139.567 34.3358 141.495 33.5998 142.897 32.1485C144.299 30.6988 145.01 28.7363 145.01 26.3179C145.01 23.9292 144.343 22.0233 143.028 20.6542C141.712 19.2846 139.862 18.5903 137.528 18.5903ZM123.801 18.5903C122.116 18.5903 120.722 19.0213 119.658 19.8711C118.586 20.7259 118.043 21.847 118.043 23.2037C118.043 23.9089 118.16 24.5353 118.391 25.0667C118.623 25.5997 118.983 26.0691 119.46 26.463C119.934 26.8537 120.665 27.2629 121.634 27.6793C122.449 28.0146 123.057 28.2982 123.443 28.5217C123.82 28.7407 124.088 28.9609 124.239 29.1754C124.386 29.3852 124.46 29.6724 124.46 30.0269C124.46 31.0361 123.704 31.5271 122.149 31.5271C121.572 31.5271 120.915 31.4067 120.194 31.1692C119.478 30.9354 118.803 30.5929 118.191 30.1538L118.043 30.0473V33.4912L118.097 33.5166C118.603 33.7502 119.241 33.9473 119.994 34.1023C120.744 34.2575 121.426 34.3364 122.019 34.3364C123.847 34.3364 125.32 33.9034 126.394 33.0485C127.475 32.1878 128.023 31.0402 128.023 29.6366C128.023 28.6241 127.728 27.7558 127.147 27.0555C126.569 26.3609 125.567 25.7232 124.169 25.1595C123.055 24.7125 122.342 24.3415 122.048 24.0566C121.764 23.7815 121.62 23.3923 121.62 22.8995C121.62 22.4627 121.798 22.1127 122.163 21.8293C122.531 21.5444 123.043 21.3996 123.685 21.3996C124.281 21.3996 124.891 21.4937 125.497 21.6782C126.103 21.8627 126.636 22.1098 127.08 22.4121L127.226 22.512V19.2451L127.17 19.221C126.76 19.0452 126.219 18.8948 125.563 18.7727C124.909 18.6515 124.317 18.5903 123.801 18.5903ZM108.718 31.4113C107.42 31.4113 106.396 30.9808 105.675 30.1327C104.949 29.2804 104.581 28.0656 104.581 26.5214C104.581 24.9286 104.949 23.6819 105.675 22.8146C106.397 21.9529 107.41 21.5156 108.689 21.5156C109.929 21.5156 110.916 21.9332 111.624 22.7577C112.335 23.5863 112.695 24.823 112.695 26.4344C112.695 28.0656 112.356 29.3186 111.687 30.1568C111.023 30.9887 110.024 31.4113 108.718 31.4113ZM108.877 18.5903C106.4 18.5903 104.432 19.3161 103.03 20.7476C101.628 22.1793 100.917 24.1605 100.917 26.6367C100.917 28.9896 101.611 30.8804 102.98 32.2587C104.348 33.6374 106.211 34.3358 108.515 34.3358C110.916 34.3358 112.844 33.5998 114.247 32.1485C115.648 30.6988 116.359 28.7363 116.359 26.3179C116.359 23.9292 115.692 22.0233 114.377 20.6542C113.061 19.2846 111.21 18.5903 108.877 18.5903ZM95.487 21.5536V18.9522H91.9536V33.9736H95.487V26.2895C95.487 24.983 95.7833 23.9095 96.3679 23.0988C96.945 22.2977 97.7141 21.8917 98.6531 21.8917C98.9714 21.8917 99.3287 21.9442 99.7156 22.048C100.099 22.1512 100.376 22.2633 100.54 22.3812L100.688 22.4888V18.9265L100.631 18.9019C100.302 18.7621 99.8362 18.6916 99.2472 18.6916C98.3592 18.6916 97.5646 18.9769 96.884 19.5387C96.2866 20.0324 95.8548 20.7094 95.5246 21.5536H95.487ZM85.6258 18.5903C84.0047 18.5903 82.5588 18.9379 81.3289 19.6231C80.0965 20.31 79.1434 21.2905 78.4949 22.5373C77.8493 23.7811 77.5215 25.234 77.5215 26.8543C77.5215 28.2736 77.8393 29.5761 78.4675 30.724C79.096 31.8738 79.9855 32.7733 81.1116 33.3972C82.2361 34.0203 83.5357 34.3362 84.9746 34.3362C86.6538 34.3362 88.0876 34.0005 89.2371 33.3384L89.2835 33.3118V30.0746L89.135 30.183C88.6143 30.5623 88.0324 30.8651 87.4063 31.0832C86.7818 31.3011 86.2124 31.4113 85.7131 31.4113C84.3266 31.4113 83.2136 30.9774 82.4057 30.1221C81.596 29.2657 81.1855 28.0631 81.1855 26.5498C81.1855 25.027 81.6136 23.7935 82.4573 22.8834C83.2985 21.9759 84.4136 21.5156 85.7714 21.5156C86.9328 21.5156 88.0646 21.9088 89.1353 22.6855L89.2835 22.7932V19.3822L89.2356 19.3553C88.8327 19.1297 88.2832 18.9435 87.6009 18.8022C86.9216 18.6613 86.2571 18.5903 85.6258 18.5903ZM75.088 18.9523H71.5545V33.9736H75.088V18.9523ZM73.3574 12.5532C72.7758 12.5532 72.2686 12.7512 71.8518 13.1435C71.4334 13.5369 71.2211 14.0322 71.2211 14.6168C71.2211 15.1922 71.4308 15.6785 71.8453 16.0615C72.2571 16.4433 72.766 16.6368 73.3575 16.6368C73.9489 16.6368 74.4596 16.4433 74.8763 16.0621C75.2958 15.6785 75.5085 15.1923 75.5085 14.6168C75.5085 14.0527 75.3015 13.5624 74.8936 13.1593C74.4861 12.757 73.969 12.5532 73.3574 12.5532ZM64.5411 17.844V33.9736H68.1472V13.013H63.1562L56.8124 28.5819L50.6561 13.013H45.4619V33.9734H48.8507V17.8425H48.967L55.4679 33.9736H58.0253L64.4248 17.844H64.5411Z" fill="#706D6E"/>
<path d="M16.6225 22.6313H0V6.00879H16.6225V22.6313Z" fill="#F1511B"/>
<path d="M34.9757 22.6313H18.3535V6.00879H34.9757V22.6313Z" fill="#80CC28"/>
<path d="M16.622 40.991H0V24.3687H16.622V40.991Z" fill="#00ADEF"/>
<path d="M34.9757 40.991H18.3535V24.3687H34.9757V40.991Z" fill="#FBBC09"/>
</svg>
