<svg width="96" height="48" viewBox="0 0 96 48" fill="none" xmlns="http://www.w3.org/2000/svg">
<path fill-rule="evenodd" clip-rule="evenodd" d="M40.9604 15.2299C42.7144 14.8967 44.4684 14.5459 46.2049 14.2126C46.1874 21.9829 46.1874 29.7357 46.2049 37.4885C44.4684 37.1376 42.7144 36.7693 40.9779 36.436C40.9253 35.752 40.9604 35.0679 40.9604 34.3838C40.9428 28.0167 40.9428 21.6321 40.9604 15.2299ZM83.3901 18.6678C81.9168 18.7029 80.4083 19.1589 79.2682 20.1061C78.321 20.8779 77.637 21.9303 77.2511 23.0879C76.8301 24.3333 76.7424 25.6839 76.9003 26.9994C77.0757 28.5079 77.672 29.9988 78.7244 31.1038C79.5488 31.9808 80.6714 32.5947 81.8466 32.8578C83.32 33.1911 84.9161 33.1385 86.3018 32.4895C87.3191 32.0335 88.1611 31.2266 88.7574 30.2794C89.424 29.2095 89.7572 27.9641 89.8625 26.7012C89.9853 25.2805 89.8274 23.8246 89.3012 22.4916C88.8451 21.2988 88.0208 20.2289 86.9157 19.5448C85.8633 18.8958 84.618 18.6152 83.3901 18.6678ZM82.6184 13.7741C85.1617 13.5987 87.8278 14.0723 90.0203 15.4229C91.2482 16.1771 92.3006 17.1769 93.125 18.3521C93.8441 19.4045 94.3703 20.5797 94.7387 21.8075C95.1245 23.123 95.2649 24.5087 95.2824 25.8768C95.2824 28.3851 94.7036 30.946 93.3179 33.0683C92.1076 34.9627 90.2659 36.436 88.1611 37.2078C86.7929 37.7165 85.3546 37.962 83.8988 37.9971C81.1625 38.0497 78.3386 37.3832 76.111 35.7695C74.2166 34.4189 72.8309 32.4369 72.1293 30.2268C71.6382 28.7534 71.4453 27.1748 71.4628 25.6137C71.4803 22.895 72.2697 20.1237 73.9711 17.9837C75.3567 16.2122 77.3388 14.9493 79.4962 14.3178C80.496 14.0021 81.5484 13.8267 82.6184 13.7741ZM7.4235 14.809C8.68639 14.0723 10.1422 13.7215 11.5981 13.739C13.9134 13.8267 16.141 15.0195 17.4916 16.9138C18.1756 15.9842 19.1228 15.265 20.1402 14.7563C22.4379 13.6513 25.2268 13.4759 27.5947 14.4406C28.6998 14.8967 29.6996 15.5983 30.4713 16.5104C31.2606 17.44 31.7868 18.5626 32.1026 19.7202C32.4358 20.9305 32.5235 22.1934 32.4885 23.4388C32.4885 28.122 32.4885 32.8228 32.4885 37.506C30.752 37.1552 28.998 36.7868 27.2439 36.4536C27.2264 31.9633 27.2439 27.473 27.2264 22.9827C27.2439 21.9478 26.8756 20.8954 26.1389 20.1763C25.3496 19.3694 24.1919 18.9835 23.0694 19.0011C22.0696 18.9835 21.0522 19.2817 20.2629 19.9132C19.3684 20.6148 18.8948 21.7724 18.8948 22.9125C18.8948 27.7712 18.8948 32.6474 18.8948 37.506C17.1408 37.1552 15.3868 36.7868 13.6327 36.4536C13.6152 35.0153 13.6327 33.5594 13.6152 32.1036C13.6152 29.0867 13.6152 26.0698 13.6152 23.0353C13.6503 22.0005 13.2995 20.9305 12.5628 20.1938C11.9138 19.5273 11.0192 19.1414 10.1247 19.0362C9.26522 18.9485 8.38821 19.0186 7.58136 19.3519C6.73943 19.7027 6.02028 20.3692 5.6344 21.1936C5.37129 21.7549 5.24851 22.3688 5.24851 22.9827C5.24851 26.7714 5.24851 30.5601 5.24851 34.3488C5.26605 35.4012 5.23097 36.4536 5.26605 37.506C3.51203 37.1727 1.77555 36.7868 0.0390707 36.4711C0.00399026 35.8572 0.0566109 35.2258 0.00399026 34.6294C0.0215305 33.9278 0.0215305 33.2262 0.00399026 32.5246C0.0566109 31.8756 0.00399026 31.2091 0.0215305 30.5601C0.0215305 28.7008 0.0215305 26.8416 0.0215305 24.9823C0.00399026 23.8246 0.0390707 22.6494 0.00399026 21.4918C0.0215305 20.8428 0.0215305 20.1763 0.00399026 19.5273C0.0390707 18.2293 0.0215305 16.9489 0.0215305 15.6509C0.0390707 15.5281 -0.0661706 15.3352 0.0741511 15.265C1.81063 14.9317 3.52957 14.5985 5.26605 14.2652C5.24851 15.0545 5.26605 15.8438 5.26605 16.6332C5.87996 15.8965 6.59911 15.265 7.4235 14.809ZM64.6397 14.0898C65.4816 13.9495 66.3411 13.8092 67.183 13.6689C67.183 15.493 67.183 17.3172 67.183 19.1414C66.3411 19.2993 65.4991 19.4571 64.6572 19.5974C63.3943 19.8079 62.0788 20.1763 61.1316 21.0884C60.3598 21.8075 59.9915 22.8599 59.9213 23.8948C59.8687 24.6315 59.9038 25.3682 59.9038 26.1224C59.9038 29.9111 59.9038 33.6998 59.9038 37.4885C58.448 37.1903 56.9921 36.8921 55.5187 36.6114C55.2381 36.5588 54.975 36.4887 54.6768 36.4536C54.6067 36.0502 54.6593 35.6467 54.6417 35.2433C54.6417 31.2091 54.6417 27.1924 54.6417 23.1581C54.6768 21.8952 54.8873 20.6148 55.4135 19.4396C55.9222 18.2644 56.8167 17.2646 57.8691 16.5279C59.2724 15.5632 60.9036 14.9844 62.5524 14.5459C63.254 14.388 63.9205 14.1951 64.6397 14.0898ZM43.0652 4.03928C43.9071 3.93404 44.8192 4.02174 45.5384 4.53041C46.3628 5.07415 46.8188 6.05641 46.8363 7.02112C46.889 7.30176 46.8188 7.59994 46.8188 7.88059C46.7311 8.7576 46.2751 9.59953 45.5208 10.0907C44.7315 10.6169 43.7142 10.7046 42.7846 10.5116C42.0128 10.3538 41.2936 9.86263 40.8551 9.17856C40.3465 8.37171 40.2588 7.35438 40.4517 6.42475C40.6271 5.54774 41.2235 4.74089 42.0303 4.35501C42.3636 4.19714 42.7144 4.0919 43.0652 4.03928Z" fill="#050038"/>
</svg>
