<svg width="171" height="48" viewBox="0 0 171 48" fill="none" xmlns="http://www.w3.org/2000/svg">
<path d="M3.53117 35.0022C2.90366 35.0036 2.28704 34.8383 1.74429 34.5234C1.20154 34.2084 0.752125 33.7551 0.441951 33.2096C0.136525 32.6679 -0.015799 32.0534 0.00129579 31.4318C0.0183906 30.8102 0.20426 30.205 0.538995 29.681L6.90073 19.6909C7.22634 19.154 7.68862 18.7131 8.24036 18.4133C8.7921 18.1135 9.41353 17.9656 10.0412 17.9845C10.6683 17.9996 11.2802 18.1809 11.8143 18.5101C12.3483 18.8393 12.7853 19.3045 13.0805 19.858C13.6736 20.9794 13.5994 22.3286 12.8891 23.3812L6.53143 33.3713C6.20902 33.8737 5.76501 34.2866 5.24054 34.5717C4.71607 34.8568 4.12811 35.0048 3.53117 35.0022Z" fill="#F62B54"/>
<path d="M14.4427 35.0022C13.1596 35.0022 11.9789 34.3162 11.3589 33.2137C11.0541 32.6735 10.9022 32.0606 10.9193 31.4406C10.9364 30.8207 11.1219 30.217 11.4559 29.6945L17.8055 19.7273C18.1264 19.1829 18.587 18.7341 19.1397 18.4277C19.6923 18.1213 20.3169 17.9683 20.9487 17.9846C22.2426 18.0129 23.4152 18.7367 24.0082 19.8688C24.5972 21.001 24.511 22.3583 23.7791 23.4082L17.4308 33.3754C17.1094 33.8757 16.6672 34.2869 16.145 34.5712C15.6227 34.8556 15.0373 35.0038 14.4427 35.0022Z" fill="#FFCC00"/>
<path d="M25.1112 35.0853C26.92 35.0853 28.3864 33.6497 28.3864 31.8788C28.3864 30.108 26.92 28.6724 25.1112 28.6724C23.3023 28.6724 21.8359 30.108 21.8359 31.8788C21.8359 33.6497 23.3023 35.0853 25.1112 35.0853Z" fill="#00CA72"/>
<path d="M167.396 28.8586C168.385 28.8586 168.977 29.5622 168.977 30.7145V34.6637H170.321V30.6242C170.321 28.6645 169.398 27.5283 167.662 27.5283C166.982 27.5283 165.904 27.7143 165.261 28.9637C165.112 28.5952 164.865 28.274 164.548 28.0343C164.231 27.7946 163.855 27.6454 163.459 27.6024C163.21 27.5568 162.957 27.5419 162.704 27.5579C162.152 27.6024 161.168 27.9461 160.8 28.7252V27.6779H159.455V34.6637H160.8V30.8938C160.8 29.4274 161.76 28.8586 162.721 28.8586C163.621 28.8586 164.213 29.5473 164.213 30.6997V34.6637H165.55V30.8938C165.55 29.7266 166.251 28.8451 167.396 28.8586ZM154.518 33.4965C155.132 33.5099 155.725 33.2646 156.155 32.8198C156.587 32.3751 156.816 31.7699 156.793 31.1485C156.793 29.7414 155.758 28.8586 154.518 28.8586C153.276 28.8586 152.243 29.7414 152.243 31.1485C152.218 31.7685 152.447 32.3724 152.876 32.8158C153.305 33.2606 153.895 33.5072 154.507 33.4965H154.518ZM154.518 34.8065C152.553 34.8065 150.912 33.3549 150.912 31.1405C150.912 28.926 152.553 27.5202 154.518 27.5202C156.483 27.5202 158.137 28.926 158.137 31.1405C158.137 33.3549 156.473 34.8133 154.508 34.8133L154.518 34.8065ZM143.991 31.1405L143.978 31.1485C143.978 28.9341 145.661 27.5283 147.64 27.5202C148.137 27.5106 148.63 27.6054 149.088 27.7986C149.546 27.9918 149.959 28.279 150.299 28.6416L149.28 29.5096C149.064 29.2971 148.807 29.1295 148.526 29.0166C148.244 28.9037 147.943 28.8477 147.64 28.8518C146.4 28.8518 145.321 29.7347 145.321 31.1405C145.321 32.0907 145.886 32.9465 146.753 33.3105C147.62 33.6744 148.617 33.4722 149.28 32.801L150.314 33.669C149.973 34.0353 149.558 34.3259 149.098 34.5219C148.637 34.7179 148.14 34.8148 147.64 34.8065C145.676 34.8065 143.991 33.3549 143.991 31.1405ZM139.688 33.3226C139.686 33.2005 139.709 33.0792 139.754 32.9659C139.8 32.8525 139.867 32.7492 139.952 32.6618C140.038 32.5744 140.139 32.5047 140.252 32.4567C140.364 32.4087 140.485 32.3832 140.607 32.3818C140.729 32.3832 140.85 32.4087 140.962 32.4567C141.074 32.5047 141.176 32.5744 141.261 32.6618C141.347 32.7492 141.414 32.8525 141.459 32.9659C141.505 33.0792 141.527 33.2005 141.526 33.3226C141.514 33.5591 141.412 33.7822 141.241 33.9462C141.071 34.1103 140.844 34.203 140.607 34.2054C140.37 34.203 140.143 34.1103 139.972 33.9462C139.801 33.7822 139.7 33.5591 139.688 33.3226Z" fill="#333333"/>
<path fill-rule="evenodd" clip-rule="evenodd" d="M143.364 18.7972H138.578L135.223 27.4462L131.886 18.7972H127.1L132.918 32.4642L129.299 41.5H134.05L143.364 18.7972ZM114.256 26.399C114.256 28.5824 116.165 30.0192 118.04 30.0192C119.882 30.0192 121.692 28.6822 121.692 26.3976C121.692 24.113 119.882 22.7747 118.04 22.7747C116.165 22.7747 114.256 24.2128 114.256 26.3976V26.399ZM121.692 34.0303V32.3011C120.722 33.7702 118.457 34.3255 117.296 34.3255C113.449 34.3255 109.601 31.2929 109.601 26.3976C109.601 21.5037 113.448 18.471 117.296 18.471C118.265 18.471 120.529 18.7945 121.692 20.4928V18.8026H126.154V34.033L121.692 34.0317V34.0303ZM108.331 34.0303H103.87V32.138C103.125 33.5397 101.317 34.3565 99.441 34.3565C95.5606 34.3565 92.1331 31.2579 92.1331 26.4596C92.1331 21.571 95.5606 18.4683 99.441 18.4683C101.314 18.4683 103.127 19.2501 103.87 20.6532V10.5H108.331V34.0303ZM103.773 26.3639C103.773 24.0807 102.124 22.7423 100.282 22.7423C98.3735 22.7423 96.7884 24.1777 96.7884 26.3639C96.7884 28.6202 98.3735 30.0489 100.281 30.0489C102.158 30.0516 103.773 28.5501 103.773 26.3639ZM81.1024 25.9703C81.1024 23.6548 82.2993 22.8717 83.883 22.8717C85.402 22.8717 86.5018 23.8826 86.5018 25.9043V34.0277H90.9955V24.9271C90.9955 20.5898 88.8605 18.4683 85.4654 18.4683C83.6876 18.4683 81.9098 19.4792 81.1011 21.013V18.7972H76.6101V34.0277H81.1024V25.9703ZM67.4854 34.2891C63.2181 34.2891 59.6585 31.1581 59.6585 26.3626C59.6585 21.5643 63.2141 18.4643 67.4854 18.4643C71.7566 18.4643 75.3432 21.5643 75.3432 26.3626C75.3432 31.1608 71.7526 34.2905 67.4854 34.2905V34.2891ZM67.4854 29.8548C69.3588 29.8548 70.9129 28.4827 70.9129 26.3639C70.9129 24.3085 69.3602 22.9054 67.4854 22.9054C67.0339 22.8983 66.5858 22.9832 66.1682 23.1549C65.7507 23.3266 65.3724 23.5815 65.0566 23.9041C64.7389 24.2284 64.4896 24.6133 64.3236 25.0359C64.1576 25.4584 64.0782 25.9101 64.0902 26.3639C64.0915 28.4854 65.6429 29.8548 67.4854 29.8548ZM51.6026 22.873C52.9275 22.873 54.092 23.9176 54.092 25.9057V34.0303H58.5533V25.38C58.5533 20.7812 56.3173 18.4657 52.7334 18.4657C51.6686 18.4657 49.663 18.7891 48.2074 21.1721C47.3664 19.4105 45.7503 18.4967 43.362 18.4967C42.5327 18.4924 41.7199 18.7271 41.0205 19.1727C40.3211 19.6182 39.7649 20.2557 39.4182 21.009V18.7986H34.9219V34.029H39.4142V25.9703C39.4142 23.6548 40.6757 22.8717 42.033 22.8717C43.3269 22.8717 44.4887 23.8826 44.5224 25.8073V34.029H49.0161V25.9703C49.0161 23.7559 50.1806 22.8744 51.6026 22.8744V22.873Z" fill="#333333"/>
</svg>
