<svg width="148" height="48" viewBox="0 0 148 48" fill="none" xmlns="http://www.w3.org/2000/svg">
<path d="M36.0241 33.4793C35.9594 33.834 35.795 34.1628 35.5501 34.4273L27.9659 42.0115C27.9348 42.0737 27.8917 42.1293 27.8391 42.1749C27.7865 42.2205 27.7255 42.2553 27.6595 42.2773C27.5934 42.2993 27.5237 42.3081 27.4543 42.3031C27.3849 42.2982 27.3171 42.2796 27.2549 42.2485C27.1926 42.2174 27.1371 42.1743 27.0915 42.1217C27.0459 42.0692 27.0111 42.0081 26.9891 41.9421C26.9671 41.8761 26.9583 41.8063 26.9632 41.7369C26.9682 41.6675 26.9867 41.5997 27.0179 41.5375V24.9471L36.0241 15.9409V33.4793Z" fill="#E34B5F"/>
<path d="M29.862 9.77821C29.862 9.65249 29.812 9.53193 29.7231 9.44303C29.6343 9.35414 29.5137 9.3042 29.388 9.3042C29.2623 9.3042 29.1417 9.35414 29.0528 9.44303C28.9639 9.53193 28.914 9.65249 28.914 9.77821L18.0117 21.1545V33.9528L27.0179 24.9466L36.0241 15.9403L29.862 9.77821Z" fill="#E7CE9C"/>
<path d="M0 33.4793C0.0646681 33.834 0.229097 34.1628 0.474011 34.4273L8.05818 42.0115C8.12104 42.1372 8.23126 42.2328 8.3646 42.2773C8.49794 42.3217 8.64348 42.3114 8.7692 42.2485C8.89491 42.1856 8.99051 42.0754 9.03496 41.9421C9.0794 41.8087 9.06906 41.6632 9.0062 41.5375V24.9471L0 15.9409V33.4793Z" fill="#1E7889"/>
<path d="M7.11016 9.77821C7.11016 9.65249 7.06022 9.53193 6.97132 9.44303C6.88243 9.35414 6.76186 9.3042 6.63615 9.3042C6.51043 9.3042 6.38987 9.35414 6.30097 9.44303C6.21208 9.53193 6.16214 9.65249 6.16214 9.77821L0 15.9403L9.0062 24.9466L18.0124 33.9528V21.1545L7.11016 9.77821Z" fill="#97BAA6"/>
<path d="M47.4014 33.4791V16.8887H51.6675V18.7848C52.1317 17.9625 52.8308 17.2977 53.6754 16.8754C54.5199 16.4531 55.4713 16.2927 56.4076 16.4147C57.3034 16.4811 58.1669 16.7778 58.9143 17.2761C59.6618 17.7744 60.2678 18.4574 60.6737 19.2588C62.5697 17.3627 63.9917 16.4147 65.8878 16.4147C69.6799 16.4147 72.0499 18.3107 72.0499 22.5768V33.4791H67.3098V24.4729C67.3098 22.1028 66.8358 21.1548 64.9398 21.1548C63.0437 21.1548 62.0957 22.1028 62.0957 24.4729V33.4791H56.8816V24.4729C56.8816 22.1028 56.4076 21.1548 54.9855 21.1548C53.5635 21.1548 52.1415 22.1028 52.1415 24.4729V33.4791H47.4014ZM77.738 18.7848C78.9937 17.6035 80.5621 16.8075 82.2568 16.4912C83.9516 16.175 85.7015 16.3518 87.2987 17.0006C88.8959 17.6495 90.2733 18.7432 91.2674 20.1517C92.2614 21.5603 92.8303 23.2246 92.9064 24.9469C92.9405 26.08 92.7485 27.2085 92.3415 28.2665C91.9346 29.3245 91.3209 30.2908 90.5363 31.109C89.7054 32.0394 88.6805 32.7762 87.5339 33.2676C86.3873 33.759 85.147 33.993 83.9002 33.9531C82.728 33.9557 81.5694 33.7026 80.5051 33.2114C79.4408 32.7202 78.4965 32.0027 77.738 31.109C76.9535 30.2908 76.3398 29.3245 75.9328 28.2665C75.5259 27.2085 75.3339 26.08 75.368 24.9469C75.3339 23.8138 75.5259 22.6853 75.9328 21.6273C76.3398 20.5693 76.9535 19.6029 77.738 18.7848ZM83.9002 29.213C85.0316 29.213 86.1167 28.7635 86.9168 27.9635C87.7168 27.1634 88.1663 26.0783 88.1663 24.9469C88.1663 23.8783 87.7418 22.8535 86.9862 22.0979C86.2306 21.3423 85.2058 20.9178 84.1372 20.9178C83.0686 20.9178 82.0438 21.3423 81.2882 22.0979C80.5326 22.8535 80.1081 23.8783 80.1081 24.9469C80.1016 26.0008 80.4854 27.0198 81.1856 27.8075C81.8858 28.5953 82.8528 29.0959 83.9002 29.213ZM96.2245 33.4791V16.8887H100.965V18.7848C101.913 17.3627 103.335 16.4147 105.705 16.4147C109.023 16.4147 111.393 18.7848 111.393 22.5768V33.4791H106.653V24.4729C106.653 22.1028 106.179 21.1548 104.283 21.1548C102.387 21.1548 100.965 22.1028 100.965 24.4729V33.4791H96.2245ZM132.249 18.7848C133.505 17.6035 135.073 16.8075 136.768 16.4912C138.463 16.175 140.213 16.3518 141.81 17.0006C143.407 17.6495 144.785 18.7432 145.779 20.1517C146.773 21.5603 147.341 23.2246 147.418 24.9469C147.452 26.08 147.26 27.2085 146.853 28.2665C146.446 29.3245 145.832 30.2908 145.048 31.109C144.27 31.9794 143.321 32.6809 142.261 33.1701C141.202 33.6593 140.052 33.9258 138.885 33.9531C137.634 34.0278 136.383 33.8096 135.231 33.3159C134.079 32.8221 133.058 32.0665 132.249 31.109C131.465 30.2908 130.851 29.3245 130.444 28.2665C130.037 27.2085 129.845 26.08 129.879 24.9469C129.845 23.8138 130.037 22.6853 130.444 21.6273C130.851 20.5693 131.465 19.6029 132.249 18.7848ZM138.885 29.213C139.933 29.0959 140.9 28.5953 141.6 27.8075C142.3 27.0198 142.684 26.0008 142.677 24.9469C142.677 23.8783 142.253 22.8535 141.497 22.0979C140.742 21.3423 139.717 20.9178 138.648 20.9178C137.58 20.9178 136.555 21.3423 135.799 22.0979C135.044 22.8535 134.619 23.8783 134.619 24.9469C134.619 26.0783 135.069 27.1634 135.869 27.9635C136.669 28.7635 137.754 29.213 138.885 29.213ZM115.185 33.4791V30.161L121.821 21.1548H115.185V16.8887H127.509V20.6808L121.347 29.213H127.509V33.4791H115.185Z" fill="black"/>
</svg>
