<svg width="129" height="48" viewBox="0 0 129 48" fill="none" xmlns="http://www.w3.org/2000/svg">
<path d="M44.9356 34.7749V20.2199H45.1949L55.7896 34.7749H59.1236V13.4006H55.4192V27.919H55.1598L44.5652 13.4006H41.2312V34.7749H44.9356ZM69.6071 35.1049C74.497 35.1049 77.4976 31.9519 77.4976 26.6725C77.4976 21.4297 74.497 18.2401 69.6071 18.2401C64.7543 18.2401 61.7167 21.4297 61.7167 26.6725C61.7537 31.9519 64.7173 35.1049 69.6071 35.1049ZM69.6071 32.0252C67.014 32.0252 65.5322 30.0821 65.5322 26.6725C65.5322 23.2995 67.014 21.3198 69.6071 21.3198C72.2002 21.3198 73.682 23.2995 73.682 26.6725C73.682 30.0821 72.2002 32.0252 69.6071 32.0252ZM80.8686 14.6105V18.68H78.2755V21.6131H80.8686V30.4487C80.8686 33.6017 82.3504 34.8483 86.1289 34.8483C86.8327 34.8483 87.5366 34.7749 88.0922 34.6649V31.8053C87.6477 31.8419 87.3513 31.8786 86.8327 31.8786C85.2769 31.8786 84.573 31.182 84.573 29.5688V21.6131H88.0922V18.68H84.573V14.6105H80.8686ZM90.3149 34.7749H94.0193V18.5701H90.3149V34.7749ZM92.1671 15.8937C93.3896 15.8937 94.3898 14.9038 94.3898 13.6939C94.3898 12.4474 93.3896 11.4575 92.1671 11.4575C90.9446 11.4575 89.9444 12.4474 89.9444 13.6939C89.9444 14.9038 90.9446 15.8937 92.1671 15.8937ZM104.169 35.1049C109.059 35.1049 112.06 31.9519 112.06 26.6725C112.06 21.4297 109.059 18.2401 104.169 18.2401C99.3166 18.2401 96.279 21.4297 96.279 26.6725C96.279 31.9519 99.2426 35.1049 104.169 35.1049ZM104.169 32.0252C101.576 32.0252 100.095 30.0821 100.095 26.6725C100.095 23.2995 101.576 21.3198 104.169 21.3198C106.726 21.3198 108.244 23.2995 108.244 26.6725C108.207 30.0821 106.726 32.0252 104.169 32.0252ZM114.245 34.7749H117.95V25.3526C117.95 22.9696 119.358 21.4664 121.543 21.4664C123.803 21.4664 124.84 22.7129 124.84 25.1693V34.7749H128.545V24.2894C128.545 20.4032 126.544 18.2401 122.914 18.2401C120.469 18.2401 118.839 19.34 118.061 21.1731H117.802V18.5701H114.208C114.245 18.5701 114.245 34.7749 114.245 34.7749Z" fill="black"/>
<path fill-rule="evenodd" clip-rule="evenodd" d="M5.71206 12.0326C6.79023 12.9024 7.18021 12.8337 9.19893 12.6964L28.2162 11.5519C28.6291 11.5519 28.285 11.1399 28.1474 11.0941L24.9816 8.82806C24.3852 8.37028 23.5594 7.82093 22.0224 7.95826L3.62452 9.30874C2.95926 9.37741 2.82162 9.72075 3.0969 9.97254L5.71206 12.0326ZM6.85905 16.4502V36.4098C6.85905 37.4857 7.38667 37.8748 8.60249 37.8061L29.5008 36.593C30.7166 36.5243 30.8543 35.7918 30.8543 34.922V15.0998C30.8543 14.23 30.5102 13.7493 29.7761 13.818L7.93723 15.0998C7.13433 15.1684 6.85905 15.5804 6.85905 16.4502ZM27.4821 17.5261C27.6197 18.1212 27.4821 18.7392 26.8857 18.8079L25.8763 19.0139V33.7547C25.0046 34.2125 24.2017 34.4871 23.5135 34.4871C22.4353 34.4871 22.16 34.1438 21.3571 33.1367L14.7733 22.8135V32.7933L16.8609 33.2511C16.8609 33.2511 16.8609 34.4642 15.1863 34.4642L10.5524 34.7389C10.4148 34.4642 10.5524 33.8005 11.0112 33.6631L12.227 33.3198V20.1355L10.5524 19.9981C10.4148 19.403 10.7589 18.5332 11.6994 18.4645L16.6774 18.1212L23.5364 28.5588V19.3343L21.793 19.1283C21.6553 18.3959 22.2059 17.8465 22.8712 17.7778L27.4821 17.5261ZM2.08754 7.47759L21.2424 6.08133C23.5823 5.87532 24.2017 6.01266 25.6698 7.08847L31.7719 11.3688C32.7812 12.1013 33.1253 12.3073 33.1253 13.1084V36.6159C33.1253 38.0808 32.5977 38.9506 30.7166 39.0879L8.48779 40.4384C7.06552 40.5071 6.40026 40.3011 5.66618 39.3626L1.147 33.5258C0.3441 32.45 0 31.6488 0 30.7104V9.81231C0 8.59917 0.550559 7.61492 2.08754 7.47759Z" fill="black"/>
</svg>
