<svg width="134" height="48" viewBox="0 0 134 48" fill="none" xmlns="http://www.w3.org/2000/svg">
<g clip-path="url(#clip0_201_8070)">
<path fill-rule="evenodd" clip-rule="evenodd" d="M14.0838 24.6189C14.0838 17.7116 12.9244 14.8483 9.73702 14.8483C6.92584 14.8483 5.50588 16.8555 5.50588 23.8221C5.50588 30.6996 6.6071 33.5337 9.85284 33.5337C12.7217 33.5337 14.0838 31.5557 14.0838 24.6189ZM0 24.4419C0 16.6783 5.24505 13.6086 9.91098 13.6086C14.8952 13.6086 19.5896 16.6491 19.5896 23.9695C19.5896 31.7919 14.3446 34.7734 9.67866 34.7734C4.69466 34.7734 0 31.5264 0 24.4419Z" fill="#147BD1"/>
<path fill-rule="evenodd" clip-rule="evenodd" d="M43.1914 24.9436L48.1466 24.6779C48.1466 21.1063 47.6833 19.8074 45.9444 19.8074C44.4663 19.8074 43.3072 21.2243 43.1914 24.9436ZM38.6128 26.6852C38.6128 21.549 42.3508 18.6856 46.1761 18.6856C50.1286 18.6856 52.609 20.6748 52.7502 25.8788C52.7531 25.98 52.6722 26.0653 52.5725 26.0653H43.3734C43.2736 26.0653 43.1929 26.1507 43.1954 26.2521C43.325 30.9409 45.1136 32.2348 48.0598 32.2348C49.4978 32.2348 50.6571 31.8945 51.6274 31.4562C51.6989 31.4237 51.7817 31.4428 51.8327 31.5036L52.2181 31.9653C52.2762 32.0349 52.2756 32.1379 52.2141 32.2042C51.157 33.3398 49.0049 34.7735 46.1761 34.7735C41.1337 34.7735 38.6128 31.7035 38.6128 26.6852Z" fill="#147BD1"/>
<path fill-rule="evenodd" clip-rule="evenodd" d="M98.2864 26.9214C98.2864 20.9586 97.1565 19.8369 95.1857 19.8369C93.3599 19.8369 92.2878 21.1948 92.2878 26.2721C92.2878 32.3236 93.244 33.622 95.3594 33.622C97.0985 33.622 98.2864 32.589 98.2864 26.9214ZM87.4194 26.7739C87.4194 21.1061 91.3604 18.6857 95.2728 18.6857C99.4747 18.6857 103.155 21.2538 103.155 26.6262C103.155 32.2938 99.2718 34.7737 95.2728 34.7737C91.0708 34.7737 87.4194 32.1756 87.4194 26.7739Z" fill="#147BD1"/>
<path fill-rule="evenodd" clip-rule="evenodd" d="M115.571 26.9214C115.571 20.9586 114.441 19.8369 112.471 19.8369C110.645 19.8369 109.573 21.1948 109.573 26.2721C109.573 32.3236 110.529 33.622 112.645 33.622C114.383 33.622 115.571 32.589 115.571 26.9214ZM104.704 26.7739C104.704 21.1061 108.645 18.6857 112.557 18.6857C116.759 18.6857 120.44 21.2538 120.44 26.6262C120.44 32.2938 116.557 34.7737 112.557 34.7737C108.356 34.7737 104.704 32.1756 104.704 26.7739Z" fill="#147BD1"/>
<path fill-rule="evenodd" clip-rule="evenodd" d="M64.6631 18.6857C62.5477 18.6857 60.6351 19.6599 59.0993 20.7814H58.9833L59.0403 18.9203C59.0447 18.7776 58.924 18.6643 58.785 18.6802L54.7298 19.1485C54.6107 19.1621 54.5205 19.2647 54.5205 19.387V34.1852C54.5205 34.3145 54.6234 34.4191 54.7501 34.4191H58.8984C59.0251 34.4191 59.128 34.3145 59.128 34.1852V21.8147C59.7655 21.667 60.8088 21.431 61.8234 21.431C63.1852 21.431 63.8229 21.9919 63.8229 23.7924V34.1852C63.8229 34.3145 63.9258 34.4191 64.0526 34.4191H68.2298C68.3565 34.4191 68.4597 34.3145 68.4597 34.1852V22.6414C68.4597 19.9846 67.1266 18.6857 64.6631 18.6857Z" fill="#147BD1"/>
<path fill-rule="evenodd" clip-rule="evenodd" d="M80.8919 31.7919C80.4281 31.9691 79.6457 32.4415 78.4576 32.4415C76.2551 32.4415 75.096 30.9359 75.096 26.3015C75.096 21.4307 76.5449 19.8664 78.6313 19.8664C79.7038 19.8664 80.3992 20.4862 80.8919 21.1061V31.7919ZM85.4995 15.7929C85.4995 14.267 85.5505 12.8651 85.5774 12.2897C85.5852 12.1214 85.4449 11.9862 85.2803 12.0011L81.1066 12.4839C80.985 12.4951 80.8919 12.5988 80.8919 12.7233V16.8556C80.8919 17.9181 80.9498 19.0103 80.9498 19.0103C80.3413 18.8331 79.5298 18.6856 78.7476 18.6856C74.2267 18.6856 70.3432 21.1358 70.3432 27.2758C70.3432 32.648 73.1542 34.7735 76.0233 34.7735C78.0518 34.7735 79.6746 33.9469 80.9208 32.8549H81.0367L80.9779 34.4842C80.9712 34.6577 81.12 34.795 81.2886 34.7707L85.2645 34.3185C85.3992 34.2995 85.4995 34.182 85.4995 34.0433V15.7929Z" fill="#147BD1"/>
<path fill-rule="evenodd" clip-rule="evenodd" d="M131.209 18.6857C129.529 18.6857 127.877 19.9846 126.979 20.9586H126.863L126.919 18.9749C126.924 18.8061 126.781 18.6718 126.616 18.6907L122.609 19.1487C122.49 19.1624 122.4 19.2649 122.4 19.3874V34.1414C122.4 34.2947 122.522 34.4191 122.673 34.4191H126.735C126.885 34.4191 127.008 34.2947 127.008 34.1414V22.169C127.413 21.7852 128.08 21.4013 128.601 21.4013C128.862 21.4013 129.036 21.4605 129.21 21.7852C129.761 22.7002 130.196 23.2291 131.441 23.2291C132.572 23.2291 133.582 22.3165 133.582 20.8996C133.582 19.453 132.6 18.6857 131.209 18.6857Z" fill="#147BD1"/>
<path fill-rule="evenodd" clip-rule="evenodd" d="M28.65 33.5926C27.6646 33.5926 26.8824 33.1497 26.3605 32.5299V21.785C26.8242 21.6081 27.5488 21.2537 28.7079 21.2537C30.9104 21.2537 32.1566 22.7296 32.1566 26.9508C32.1566 32.3529 30.9393 33.5926 28.65 33.5926ZM31.2291 18.6858C29.2004 18.6858 27.578 19.6598 26.3605 20.7225H26.2157L26.2716 18.9562C26.2768 18.7954 26.1404 18.6672 25.9836 18.6853L21.9623 19.1484C21.8429 19.1622 21.7529 19.265 21.7529 19.3873V40.7615C21.7529 40.9047 21.8752 41.0163 22.0151 41.0002L26.1514 40.5242C26.2705 40.5106 26.3605 40.4078 26.3605 40.2855V36.279C26.3605 35.2459 26.3318 34.4784 26.3318 34.4784C26.9692 34.6554 27.9257 34.7733 28.5342 34.7733C33.3736 34.7733 36.909 32.0872 36.909 25.9473C36.909 20.5453 33.9822 18.6858 31.2291 18.6858Z" fill="#147BD1"/>
</g>
<defs>
<clipPath id="clip0_201_8070">
<rect width="134" height="48" fill="white"/>
</clipPath>
</defs>
</svg>
