<svg width="169" height="48" viewBox="0 0 169 48" fill="none" xmlns="http://www.w3.org/2000/svg">
<path d="M166.801 20.3364C167.789 21.3844 168.286 22.8054 168.286 24.6057V34.0764H164.621V25.6794C164.621 24.6185 164.322 23.7827 163.723 23.1719C163.123 22.561 162.314 22.2524 161.288 22.2524C160.077 22.2717 159.114 22.6896 158.407 23.4998C157.699 24.3099 157.342 25.3515 157.342 26.6181V34.0764H153.703V13.0324H157.342V21.7959C158.369 19.8092 160.172 18.7997 162.747 18.7612C164.456 18.7612 165.813 19.282 166.801 20.3364ZM145.608 22.021C144.397 22.021 143.409 22.4389 142.657 23.2683C141.905 24.1041 141.523 25.1779 141.523 26.5024C141.523 27.8654 141.905 28.9585 142.657 29.7943C143.416 30.6237 144.397 31.0417 145.615 31.0417C147.406 31.0417 148.751 30.4437 149.649 29.2542L151.918 31.1574C151.249 32.1411 150.331 32.9255 149.261 33.427C148.158 33.9543 146.883 34.2179 145.424 34.2179C143.951 34.2179 142.638 33.8964 141.491 33.2534C140.363 32.6298 139.432 31.6846 138.82 30.5466C138.183 29.3828 137.864 28.0455 137.864 26.5345C137.864 25.0043 138.189 23.6476 138.833 22.4775C139.451 21.3266 140.388 20.3878 141.523 19.7578C142.67 19.1148 143.989 18.7933 145.487 18.7933C146.851 18.7933 148.069 19.0312 149.139 19.5134C150.21 19.9956 151.083 20.6836 151.759 21.5709L149.547 23.6991C148.521 22.5803 147.215 22.021 145.608 22.021ZM135.538 18.9026V34.0764H131.898V31.6653C131.382 32.4755 130.662 33.1377 129.814 33.5813C128.966 34.025 127.991 34.25 126.889 34.25C125.467 34.25 124.224 33.9221 123.147 33.2727C122.076 32.6233 121.235 31.7039 120.642 30.5209C120.05 29.3378 119.75 27.9812 119.75 26.4509C119.75 24.94 120.05 23.6026 120.649 22.4389C121.242 21.2751 122.083 20.375 123.154 19.732C124.224 19.0891 125.461 18.7676 126.863 18.7676C127.966 18.7676 128.947 18.9926 129.801 19.4363C130.656 19.8799 131.382 20.5357 131.898 21.3523V18.9155L135.538 18.9026ZM130.579 30.0322C131.344 29.2864 131.784 28.2962 131.898 27.0682V25.9944C131.784 24.76 131.35 23.7762 130.585 23.0304C129.821 22.2846 128.852 21.9117 127.673 21.9117C126.423 21.9117 125.404 22.3424 124.62 23.204C123.836 24.0656 123.434 25.1779 123.415 26.5345C123.434 27.8976 123.836 29.0035 124.62 29.865C125.404 30.7266 126.423 31.1574 127.673 31.1574C128.845 31.1574 129.814 30.7845 130.579 30.0322ZM116.085 20.8572C117.29 22.2396 117.889 24.1749 117.889 26.6695C117.889 27.1582 117.876 27.5311 117.863 27.7754H106.805C107.047 28.8556 107.544 29.6979 108.303 30.3151C109.055 30.9324 109.985 31.2345 111.088 31.2345C111.84 31.2345 112.592 31.0867 113.287 30.7909C113.982 30.508 114.606 30.0772 115.123 29.5307L117.079 31.601C116.321 32.4433 115.39 33.0991 114.345 33.5299C113.274 33.9864 112.082 34.2114 110.776 34.2114C109.246 34.2114 107.895 33.89 106.728 33.247C105.588 32.6298 104.644 31.6846 104.026 30.5402C103.389 29.3764 103.076 28.039 103.076 26.5281C103.076 25.0171 103.395 23.6734 104.045 22.5032C104.67 21.3523 105.607 20.4007 106.748 19.7642C107.908 19.1084 109.221 18.7869 110.693 18.7869C113.083 18.7869 114.881 19.4813 116.085 20.8572ZM114.562 25.3129C114.524 24.1942 114.16 23.3069 113.472 22.6446C112.784 21.9824 111.866 21.648 110.725 21.648C109.66 21.648 108.768 21.976 108.048 22.6253C107.328 23.2747 106.888 24.1684 106.716 25.3065H114.562V25.3129ZM99.1182 19.5713C99.985 19.0505 100.998 18.7805 102.159 18.7612V22.336C100.61 22.2396 99.3732 22.6061 98.449 23.429C97.5248 24.252 97.0595 25.3643 97.0595 26.7596V34.0764H93.4201V18.9026H97.0595V21.8216C97.5694 20.8379 98.2514 20.0857 99.1182 19.5713ZM90.6921 33.1377C89.5002 33.8771 88.2446 34.2436 86.938 34.2436C85.6505 34.2436 84.5924 33.8578 83.7766 33.0927C82.9544 32.3276 82.5465 31.196 82.5465 29.7043V15.3535L86.1604 14.9163V19.5199H90.4435V22.2139H86.1604V29.0549C86.1604 29.7557 86.2879 30.2508 86.5492 30.5402C86.8105 30.8359 87.1993 30.9774 87.722 30.9774C88.2828 30.9774 88.9903 30.7716 89.8508 30.3537L90.6921 33.1377ZM75.803 18.9026H79.4169V27.4089C79.4169 32.3726 75.9942 34.2179 72.5206 34.2179C69.0469 34.2179 65.6305 32.3726 65.6305 27.4089V18.9026H69.2444V27.5375C69.2444 29.4407 70.6467 30.9838 72.5269 30.9838C74.4072 30.9838 75.8094 29.4407 75.8094 27.5375L75.803 18.9026ZM58.1414 15.3021C59.7029 16.1572 61.0032 17.4238 61.9083 18.9605C62.8261 20.51 63.2786 22.2331 63.2786 24.1234C63.2786 26.0137 62.8197 27.7369 61.9083 29.2992C61.0032 30.8488 59.7029 32.1283 58.1414 33.0027C56.5416 33.9092 54.776 34.3657 52.832 34.3657C50.888 34.3657 49.1225 33.9092 47.5291 33.0027C45.9675 32.1283 44.6673 30.8488 43.7622 29.2992C42.8507 27.7369 42.3918 26.0137 42.3918 24.1234C42.3918 22.2331 42.8507 20.51 43.7622 18.9605C44.6673 17.4174 45.9675 16.1572 47.5291 15.3021C49.1225 14.4148 50.8944 13.9711 52.832 13.9711C54.776 13.9647 56.5479 14.4083 58.1414 15.3021ZM49.5623 18.2661C48.5489 18.8448 47.7075 19.687 47.1275 20.7029C46.5284 21.7381 46.2288 22.8761 46.2288 24.1234C46.2288 25.3708 46.5348 26.5152 47.1403 27.5568C47.7267 28.5791 48.568 29.4278 49.575 30.0258C50.5948 30.6302 51.6975 30.9324 52.8958 30.9324C54.0494 30.9388 55.1839 30.6237 56.1719 30.0258C57.1726 29.4278 57.9948 28.5791 58.5684 27.5568C59.1612 26.5088 59.4607 25.3258 59.448 24.1234C59.448 22.8761 59.1548 21.7381 58.5684 20.7029C58.0011 19.6935 57.1726 18.8512 56.1719 18.2661C55.1776 17.6746 54.0494 17.3659 52.8958 17.3724C51.723 17.3659 50.5757 17.6746 49.5623 18.2661ZM14.9656 5.45837C20.1219 5.45837 27.9107 7.05934 31.531 10.7306C32.4488 11.6629 33.6534 13.4825 33.6534 16.1572C33.6534 20.9022 29.8738 28.1869 25.7053 32.4176C23.551 34.6036 20.1219 37.4584 15.5073 37.4584C10.9947 37.4584 7.5529 34.3593 6.55859 33.3434C2.73434 29.4728 0 23.5962 0 18.1246C0 14.6655 0.975184 11.6436 3.45457 9.12966C5.74912 6.80859 9.70722 5.45837 14.9656 5.45837ZM21.3457 24.3935C23.0857 22.6318 23.5574 20.4586 23.5574 19.2627C23.5574 18.3947 23.3343 17.1281 22.2635 16.0415C20.6255 14.3762 18.8026 13.9068 16.8267 13.9068C14.3218 13.9068 12.6391 14.7105 11.5174 15.8421C10.6378 16.7423 9.87932 18.1054 9.87932 20.0535C9.87932 21.9952 10.9055 23.8727 12.0145 25.0043C13.0471 26.0459 14.666 26.8174 16.2913 26.8174C17.923 26.8174 19.6057 26.1552 21.3457 24.3935Z" fill="#5952FF"/>
</svg>
