<svg width="128" height="48" viewBox="0 0 128 48" fill="none" xmlns="http://www.w3.org/2000/svg">
<path fill-rule="evenodd" clip-rule="evenodd" d="M99.5917 31.6175C102.891 31.6175 105.574 28.9876 105.574 25.755C105.574 22.5222 102.891 19.8923 99.5917 19.8923C96.2933 19.8923 93.6095 22.5222 93.6095 25.755C93.6095 28.9876 96.2933 31.6175 99.5917 31.6175ZM105.574 11.1852H105.736H108.408V34.4148H105.574V32.0954C103.938 33.5811 101.829 34.395 99.5917 34.395C94.7307 34.395 90.7757 30.519 90.7757 25.755C90.7757 20.9906 94.7307 17.1148 99.5917 17.1148C101.829 17.1148 103.938 17.9285 105.574 19.4143V11.1852ZM40.8164 31.5152C44.115 31.5152 46.7986 28.8853 46.7986 25.6526C46.7986 22.42 44.115 19.79 40.8164 19.79C37.5177 19.79 34.8341 22.42 34.8341 25.6526C34.8341 28.8853 37.5177 31.5152 40.8164 31.5152ZM34.8341 19.3123C36.4697 17.8265 38.5793 17.0126 40.8164 17.0126C45.6776 17.0126 49.6327 20.8885 49.6327 25.6526C49.6327 30.4167 45.6776 34.2926 40.8164 34.2926C38.5793 34.2926 36.4697 33.4789 34.8341 31.9929V40.2222H32V16.9926H34.8341V19.3123ZM55.0402 24.3036C55.678 21.6782 58.0547 19.793 60.7656 19.793C63.4412 19.793 65.6824 21.6379 66.2797 24.3036H55.0402ZM60.7656 16.9926C55.9772 16.9926 52.0817 20.9006 52.0817 25.7037C52.0817 30.507 55.9772 34.4148 60.7656 34.4148C63.4471 34.4148 65.9081 33.4078 67.5188 31.6519L68.3556 30.7392L68.4634 30.6214L68.3461 30.5128L66.5268 28.8342L66.4095 28.7257L66.301 28.8435L65.4643 29.7563C64.397 30.9198 62.6406 31.6146 60.7656 31.6146C58.0547 31.6146 55.6782 29.7294 55.0402 27.1038H69.2243V25.7037C69.2243 20.819 65.5087 16.9926 60.7656 16.9926ZM125.166 25.7038C125.166 28.963 122.482 31.6145 119.183 31.6145C115.885 31.6145 113.201 28.963 113.201 25.7038C113.201 22.4444 115.885 19.7929 119.183 19.7929C122.482 19.7929 125.166 22.4444 125.166 25.7038ZM119.183 16.9926C114.322 16.9926 110.367 20.9004 110.367 25.7038C110.367 30.507 114.322 34.4148 119.183 34.4148C124.045 34.4148 128 30.507 128 25.7038C128 20.9004 124.045 16.9926 119.183 16.9926ZM79.7547 16.9926C77.7855 16.9926 75.9093 17.7425 74.4326 19.1122V16.9926H71.6735V34.4148H74.4326V25.524C74.4326 22.3519 76.8201 19.7711 79.7547 19.7711C82.6898 19.7711 85.0779 22.3519 85.0779 25.524V34.4148H87.8364V25.524C87.8364 20.8198 84.211 16.9926 79.7547 16.9926Z" fill="#1A2022"/>
<path fill-rule="evenodd" clip-rule="evenodd" d="M0 27.7777H13.3333V40.8148L26.6667 27.7777V14.7407H13.3333L0 27.7777Z" fill="#FF4876"/>
</svg>
