<svg width="162" height="48" viewBox="0 0 162 48" fill="none" xmlns="http://www.w3.org/2000/svg">
<path fill-rule="evenodd" clip-rule="evenodd" d="M26.5192 11.0005H2.48031C1.11021 11.0005 0 12.1109 0 13.4808V37.5196C0 38.8897 1.11047 39.9999 2.48031 39.9999H26.5192C27.8892 39.9999 28.9995 38.8894 28.9995 37.5196V13.4808C28.9995 12.1107 27.889 11.0005 26.5192 11.0005ZM15.2377 26.9776C13.0699 26.9776 12.0847 24.8826 12.0847 22.9408C12.0847 19.8831 13.7415 18.7944 15.2912 18.7944C17.1931 18.7944 18.471 20.4484 18.471 22.9122C18.471 25.7224 16.8454 26.9776 15.2377 26.9776ZM22.5556 22.8583C22.5556 18.2756 19.942 15.197 16.0549 15.197C13.7935 15.197 12.4844 16.2227 11.8529 16.9305C11.7771 16.3202 11.3789 15.5284 9.82318 15.5284H6.44434V19.0974H7.82917C8.06393 19.0974 8.13971 19.1723 8.13971 19.4093V35.7065H12.1664V29.5898C12.1664 29.4249 12.1634 29.2703 12.159 29.1324C12.7875 29.7142 13.9896 30.518 15.8662 30.518C19.8023 30.518 22.5556 27.3689 22.5556 22.8583Z" fill="#192435"/>
<path fill-rule="evenodd" clip-rule="evenodd" d="M39.6401 18.8095C40.3534 18.0108 41.8321 16.8532 44.3867 16.8532C48.7773 16.8532 51.7296 20.3275 51.7296 25.4992C51.7296 30.5897 48.6195 34.1436 44.1734 34.1436C42.0536 34.1436 40.6958 33.2365 39.9859 32.5799C39.9909 32.7356 39.9943 32.9098 39.9943 33.096V39.9989H35.4458V21.6069C35.4458 21.3395 35.3602 21.255 35.0951 21.255H33.5308V17.2272H37.3474C39.1047 17.2272 39.5545 18.1208 39.6401 18.8095ZM43.5239 20.913C41.7734 20.913 39.902 22.1417 39.902 25.5923C39.902 27.7838 41.0147 30.148 43.4635 30.148C45.2795 30.148 47.1157 28.7316 47.1157 25.5602C47.1157 22.7797 45.6722 20.913 43.5239 20.913Z" fill="#192435"/>
<path d="M57.8377 29.4225V19.6764C57.8377 18.0298 57.0506 17.2276 55.4377 17.2276H51.3726V21.2553H52.9386C53.2021 21.2553 53.2876 21.3417 53.2876 21.6074V31.3195C53.2876 32.9915 54.0496 33.7683 55.6827 33.7683H59.7528V29.7762H58.1868C57.9351 29.7762 57.8377 29.6746 57.8377 29.4225Z" fill="#192435"/>
<path fill-rule="evenodd" clip-rule="evenodd" d="M64.9714 18.8095C65.6881 18.0108 67.1634 16.8532 69.7213 16.8532C74.1103 16.8532 77.0609 20.3275 77.0609 25.4992C77.0609 30.5897 73.9542 34.1436 69.5064 34.1436C67.3884 34.1436 66.0255 33.2365 65.3189 32.5799C65.3239 32.7356 65.3289 32.9098 65.3289 33.096V39.9989H60.7771V21.6069C60.7771 21.3395 60.6916 21.255 60.428 21.255H58.8638V17.2272H62.6821C64.4394 17.2272 64.8875 18.1208 64.9714 18.8095ZM65.2332 25.5923C65.2332 27.7838 66.3511 30.148 68.7931 30.148C70.6142 30.148 72.4487 28.7316 72.4487 25.5602C72.4487 22.7797 71.0052 20.913 68.8569 20.913C67.1047 20.913 65.2332 22.1417 65.2332 25.5923Z" fill="#192435"/>
<path fill-rule="evenodd" clip-rule="evenodd" d="M77.293 25.5C77.293 20.4096 80.7203 16.854 85.6211 16.854C89.9917 16.854 92.9289 20.0152 92.9289 24.7199C92.9289 25.1971 92.8399 26.1736 92.8314 26.2142L92.8063 26.5154H82.0193C82.4137 28.7155 84.082 30.1183 86.3613 30.1183C88.655 30.1183 90.4101 28.5604 90.5456 28.4401C90.5505 28.4358 90.5532 28.4333 90.5539 28.4328L90.8476 28.1519L92.8298 31.4671L92.6468 31.6499C92.5388 31.7553 90.0905 34.1443 86.0861 34.1443C80.9904 34.1443 77.293 30.5076 77.293 25.5ZM85.6211 20.5686C83.9159 20.5686 82.6823 21.4892 82.1888 23.1122H88.231C88.0447 21.6196 86.9907 20.5686 85.6211 20.5686Z" fill="#192435"/>
<path fill-rule="evenodd" clip-rule="evenodd" d="M109.474 13.4487V29.4224C109.474 29.6745 109.571 29.7761 109.823 29.7761H111.355V33.7683H107.414C105.713 33.7683 105.254 32.8646 105.162 32.1504C104.455 32.9695 103.009 34.1439 100.5 34.1439C96.1089 34.1439 93.1583 30.6713 93.1583 25.4996C93.1583 20.4091 96.2381 16.8536 100.652 16.8536C102.91 16.8536 104.221 17.6574 104.892 18.2684V15.3813C104.892 15.1139 104.806 15.0293 104.543 15.0293H102.977V10.9999H107.042C108.677 10.9999 109.474 11.802 109.474 13.4487ZM97.799 25.4996C97.799 28.3223 99.1988 30.1484 101.362 30.1484C103.113 30.1484 104.986 28.9215 104.986 25.4692C104.986 23.1998 103.883 20.9134 101.424 20.9134C99.2559 20.9134 97.799 22.7547 97.799 25.4996Z" fill="#192435"/>
<path d="M121.477 17.0091C119.584 17.0091 117.842 18.1108 116.808 19.8657V19.4883C116.808 17.9889 115.987 17.2274 114.376 17.2274H110.465V21.2551H112.03C112.293 21.2551 112.38 21.3397 112.38 21.6071V33.7681H116.929V27.1494C116.929 26.2779 117.04 25.4385 117.254 24.6617C117.939 22.3788 119.759 21.5665 121.231 21.5665C121.752 21.5665 122.132 21.6224 122.138 21.624L122.518 21.6816V17.1225L122.241 17.0751C122.227 17.0717 121.841 17.0091 121.477 17.0091Z" fill="#192435"/>
<path d="M128.992 29.4225V19.6764C128.992 18.0298 128.209 17.2277 126.595 17.2277H122.918V21.2553H124.093C124.359 21.2553 124.442 21.3417 124.442 21.6074V31.3195C124.442 32.9915 125.206 33.7683 126.843 33.7683H130.909V29.7762H129.341C129.09 29.7762 128.992 29.6746 128.992 29.4225Z" fill="#192435"/>
<path d="M146.165 17.2277H143.738C142.32 17.2277 141.559 17.7235 141.109 18.9403L138.144 27.2919C138.041 27.6015 137.945 27.9484 137.863 28.2818C137.778 27.9484 137.675 27.5965 137.563 27.2868L134.597 18.9386C134.142 17.7083 133.407 17.2277 131.971 17.2277H129.389V21.2554H130.058C130.415 21.2554 130.529 21.3773 130.613 21.6006L135.203 33.7684H140.319L144.909 21.6006C144.993 21.3773 145.111 21.2554 145.466 21.2554H146.165V17.2277Z" fill="#192435"/>
<path fill-rule="evenodd" clip-rule="evenodd" d="M145.672 25.5C145.672 20.4096 149.099 16.854 153.998 16.854C158.371 16.854 161.31 20.0152 161.31 24.7199C161.31 25.1971 161.218 26.1736 161.213 26.2142L161.188 26.5154H150.397C150.792 28.7155 152.46 30.1183 154.741 30.1183C157.107 30.1183 158.915 28.448 158.931 28.4328L159.232 28.1519L161.21 31.4671L161.025 31.6499C160.922 31.7514 158.472 34.1443 154.463 34.1443C149.367 34.1443 145.672 30.5076 145.672 25.5ZM153.998 20.5686C152.294 20.5686 151.065 21.4892 150.567 23.1122H156.609C156.423 21.6196 155.371 20.5686 153.998 20.5686Z" fill="#192435"/>
<path d="M57.5271 11.001H53.4722V15.3079H57.5271V11.001Z" fill="#192435"/>
<path d="M128.684 11.001H124.627V15.3079H128.684V11.001Z" fill="#192435"/>
</svg>
