<svg width="118" height="48" viewBox="0 0 118 48" fill="none" xmlns="http://www.w3.org/2000/svg">
<path d="M61.7436 17.0814C60.7705 16.2641 59.0969 15.8554 56.7228 15.8554H51.3906V32.3384H55.38V27.1619H57.1704C59.3305 27.1619 60.9262 26.6754 61.9382 25.7218C63.0863 24.6515 63.6507 23.2309 63.6507 21.4405C63.6507 19.6113 63.0085 18.1517 61.7436 17.0814ZM57.0536 23.4255H55.3605V19.5723H56.8785C58.7272 19.5723 59.6418 20.2145 59.6418 21.5184C59.6613 22.7833 58.7856 23.4255 57.0536 23.4255ZM70.4618 15.8359H66.3168V32.3189H75.288V28.5825H70.4618V15.8359ZM83.4419 15.8359L76.9032 32.3189H81.3791L82.2354 29.9253H87.9178L88.6962 32.3189H93.2305L86.7502 15.8359H83.4419ZM83.3835 26.5976L85.0961 20.954L86.7891 26.5976H83.3835Z" fill="#111111"/>
<path d="M95.313 32.3193H99.4775V15.8364H95.313V32.3193ZM115.61 18.9306C115.085 18.1716 114.404 17.5294 113.625 17.0234C112.36 16.2256 110.648 15.8364 108.488 15.8364H103V32.3193H109.402C111.718 32.3193 113.586 31.5604 114.987 30.0425C116.389 28.5245 117.089 26.5201 117.089 24.0097C117.109 22.0248 116.603 20.3317 115.61 18.9306ZM108.955 28.5829H107.184V19.5728H108.994C110.259 19.5728 111.251 19.962 111.932 20.7598C112.613 21.5577 112.964 22.6864 112.964 24.146C112.944 27.1039 111.621 28.5829 108.955 28.5829ZM17.6076 2L4.12151 5.52234L0.404573 19.0862L5.07507 23.854L0.346191 28.544L3.84907 42.1663L17.2768 45.9222L22.0056 41.2322L26.6567 46L40.1427 42.4777L43.8597 28.9138L39.2086 24.146L43.9375 19.456L40.4346 5.8337L27.007 2.07784L22.2781 6.7678L17.6076 2ZM9.3369 8.13003L16.44 6.26183L19.5536 9.45334L15.0193 13.9487L9.3369 8.13003ZM24.9247 9.51172L28.0773 6.37859L35.1414 8.36356L29.3617 14.1044C29.3811 14.0849 24.9247 9.51172 24.9247 9.51172ZM4.6664 17.977L6.63191 10.835L12.3143 16.6537L7.78007 21.1491L4.6664 17.977ZM32.0472 16.8288L37.827 11.088L39.6757 18.2689L36.5231 21.402C36.5036 21.402 32.0472 16.8288 32.0472 16.8288ZM17.6854 16.7121L22.2197 12.2167L26.6761 16.7899L22.1419 21.2853L17.6854 16.7121ZM10.4461 23.893L14.9804 19.3976L19.4369 23.9708L14.9026 28.4662L10.4461 23.893ZM24.8079 24.0097L29.3422 19.5144L33.7986 24.0876L29.2644 28.5829C29.2644 28.6024 24.8079 24.0097 24.8079 24.0097ZM4.58856 29.7311L7.74115 26.598L12.1976 31.1712L6.4373 36.912C6.41784 36.912 4.58856 29.7311 4.58856 29.7311ZM17.5687 31.2101L22.1029 26.7147L26.5594 31.2879L22.0251 35.7833L17.5687 31.2101ZM31.9304 31.3268L36.4647 26.8315L39.5784 30.023L37.6323 37.165C37.6129 37.165 31.9304 31.3268 31.9304 31.3268ZM9.08392 39.6364L14.8442 33.8956L19.3006 38.4688L16.148 41.6019L9.08392 39.6364ZM24.6912 38.5272L29.2254 34.0318L34.9079 39.8505L27.8048 41.7187L24.6912 38.5272Z" fill="#111111"/>
</svg>
