<svg width="152" height="48" viewBox="0 0 152 48" fill="none" xmlns="http://www.w3.org/2000/svg">
<path d="M53.4695 30.8425V17.5279C53.4695 17.3669 53.5385 17.229 53.6535 17.114C53.7914 16.999 53.9524 16.93 54.1364 16.953H57.8847C58.9885 16.907 60.0923 17.2749 60.9432 17.9878C61.702 18.6777 62.093 19.7585 62.093 21.2302V21.4142C62.093 22.8859 61.702 23.9897 60.9202 24.6796C60.0463 25.3925 58.9425 25.7834 57.8157 25.7144H55.1482V30.8425C55.1482 31.0265 55.0562 31.1874 54.8953 31.2794C54.5273 31.4864 54.0904 31.4864 53.7225 31.2794C53.5615 31.1874 53.4695 31.0265 53.4695 30.8425ZM55.1252 24.3347H57.8157C58.5286 24.3807 59.2415 24.1277 59.7474 23.6218C60.2533 23.0469 60.5062 22.288 60.4373 21.5062V21.2762C60.5062 20.5174 60.2533 19.7585 59.7474 19.1606C59.2185 18.6777 58.5286 18.4247 57.8157 18.4707H55.1482L55.1252 24.3347Z" fill="#FF6C37"/>
<path d="M67.8879 27.2322V21.2763C67.8879 19.7815 68.2789 18.7007 69.0377 18.0109C70.8774 16.6311 73.4069 16.6311 75.2466 18.0109C76.0285 18.7007 76.4194 19.8045 76.4194 21.2763V27.2322C76.4194 28.7269 76.0285 29.8077 75.2466 30.4976C73.4069 31.9004 70.8774 31.9004 69.0377 30.4976C68.2789 29.8077 67.8879 28.7269 67.8879 27.2322ZM69.5666 27.2322C69.5666 29.0949 70.4175 30.0377 72.1652 30.0377C72.878 30.0837 73.5679 29.8307 74.0968 29.3478C74.6027 28.7729 74.8327 28.0141 74.7867 27.2322V21.2533C74.8557 20.4944 74.6027 19.7356 74.0968 19.1377C73.5679 18.6547 72.878 18.4018 72.1652 18.4478C70.4405 18.4478 69.5896 19.3676 69.5896 21.2533L69.5666 27.2322Z" fill="#FF6C37"/>
<path d="M82.3064 29.3938C82.3064 29.1638 82.3983 28.9568 82.5363 28.7729C82.6513 28.6119 82.8123 28.4969 83.0192 28.4739C83.2032 28.4969 83.3642 28.5889 83.4791 28.7269C83.6631 28.8879 83.8471 29.0718 84.054 29.2788C84.33 29.5317 84.6519 29.7157 84.9969 29.8307C85.4568 30.0147 85.9627 30.0836 86.4456 30.0836C87.1815 30.1296 87.8944 29.8997 88.4693 29.4628C88.9752 29.0028 89.2511 28.313 89.2051 27.6231C89.2281 26.9562 88.9982 26.3353 88.5382 25.8524C88.0783 25.3925 87.5264 25.0475 86.9055 24.8176C86.2617 24.5876 85.6408 24.3347 84.9739 24.0587C84.33 23.7828 83.7781 23.3688 83.3412 22.8169C82.8813 22.1961 82.6283 21.4372 82.6743 20.6553C82.6513 20.0345 82.7893 19.4136 83.0652 18.8387C83.2952 18.3558 83.6631 17.9648 84.123 17.6889C84.56 17.4359 85.0199 17.252 85.5028 17.114C86.0087 16.999 86.5146 16.93 87.0205 16.93C87.8254 16.93 88.6072 17.045 89.3661 17.2749C90.102 17.5279 90.4929 17.8498 90.4929 18.2408C90.4929 18.4477 90.4239 18.6547 90.2859 18.8387C90.1939 19.0226 89.987 19.1606 89.78 19.1606C89.4811 19.0686 89.1821 18.9536 88.8832 18.8157C88.3083 18.5627 87.6874 18.4247 87.0435 18.4477C86.3766 18.4247 85.6868 18.5857 85.1119 18.9306C84.6059 19.2756 84.33 19.8735 84.376 20.4944C84.353 21.0693 84.583 21.6212 85.0199 21.9891C85.5028 22.38 86.0547 22.702 86.6526 22.8859C87.2965 23.1159 87.9404 23.3688 88.5842 23.6678C89.2281 23.9897 89.78 24.4727 90.1939 25.0705C90.6539 25.8064 90.8838 26.6573 90.8608 27.5311C90.8608 28.8879 90.4699 29.9227 89.665 30.6125C88.7912 31.3484 87.6644 31.7163 86.5146 31.6474C85.4798 31.6704 84.445 31.4174 83.5481 30.9115C82.7203 30.3596 82.3064 29.8767 82.3064 29.3938Z" fill="#FF6C37"/>
<path d="M95.8049 17.6887C95.8049 17.5047 95.8509 17.3208 95.9659 17.1828C96.0578 17.0218 96.2188 16.9528 96.4028 16.9528H104.451C104.635 16.9528 104.796 17.0218 104.888 17.1828C105.003 17.3208 105.049 17.5047 105.049 17.6887C105.049 17.8727 105.003 18.0796 104.888 18.2406C104.796 18.4016 104.635 18.4706 104.451 18.4706H101.301V30.8423C101.301 31.0263 101.209 31.1873 101.048 31.2793C100.68 31.4862 100.243 31.4862 99.8752 31.2793C99.7142 31.1873 99.6222 31.0263 99.6222 30.8423V18.4706H96.4258C96.2418 18.4706 96.0808 18.4016 95.9889 18.2406C95.8739 18.0796 95.8049 17.8957 95.8049 17.6887Z" fill="#FF6C37"/>
<path d="M110.706 30.8426V17.8039C110.637 17.413 110.913 17.0451 111.304 16.9761C111.396 16.9531 111.488 16.9531 111.557 16.9761C112.086 16.9761 112.523 17.321 112.891 18.0339L115.995 23.9898L119.123 18.0339C119.514 17.344 119.951 16.9761 120.457 16.9761C120.847 16.9071 121.215 17.183 121.284 17.574C121.307 17.643 121.307 17.7119 121.284 17.7809V30.8196C121.284 31.0036 121.192 31.1645 121.031 31.2565C120.664 31.4635 120.227 31.4635 119.859 31.2565C119.698 31.1645 119.606 31.0036 119.606 30.8196V20.4485L116.616 26.0594C116.524 26.3354 116.271 26.5424 115.972 26.5424C115.696 26.5194 115.443 26.3354 115.351 26.0594L112.362 20.3335V30.8196C112.362 31.0036 112.27 31.1645 112.109 31.2565C111.948 31.3715 111.741 31.4405 111.557 31.4405C111.35 31.4405 111.143 31.3945 110.982 31.2795C110.798 31.2105 110.683 31.0266 110.706 30.8426Z" fill="#FF6C37"/>
<path d="M126.964 30.7506C126.964 30.7046 126.987 30.6356 127.01 30.5896L131.057 17.5509C131.172 17.16 131.517 16.9761 132.069 16.9761C132.621 16.9761 132.966 17.16 133.081 17.5509L137.151 30.6586V30.7736C137.151 30.9805 137.013 31.1645 136.829 31.2565C136.622 31.3945 136.37 31.4634 136.094 31.4404C135.841 31.4634 135.588 31.3255 135.496 31.0725L134.622 28.175H129.425L128.551 31.0725C128.482 31.3255 128.206 31.4864 127.953 31.4634C127.723 31.4634 127.493 31.3945 127.286 31.2565C127.079 31.1645 126.964 30.9805 126.964 30.7506ZM129.839 26.7953H134.277L132.069 19.3906L129.839 26.7953Z" fill="#FF6C37"/>
<path d="M142.877 30.8423V17.5277C142.877 17.1368 143.153 16.9528 143.705 16.9528C143.958 16.9528 144.211 17.0448 144.418 17.2058C144.648 17.4358 144.855 17.7117 144.97 18.0107L149.914 27.6689V17.5277C149.914 17.3438 150.006 17.1828 150.167 17.1138C150.535 16.9069 150.972 16.9069 151.34 17.1138C151.501 17.2058 151.593 17.3668 151.593 17.5277V30.8423C151.593 31.0263 151.501 31.1873 151.34 31.2793C151.156 31.3942 150.972 31.4402 150.765 31.4402C150.305 31.4172 149.891 31.1183 149.73 30.6814L144.533 20.7242V30.8423C144.533 31.0263 144.441 31.1873 144.303 31.2793C143.935 31.4862 143.498 31.4862 143.13 31.2793C142.969 31.1873 142.877 31.0263 142.877 30.8423Z" fill="#FF6C37"/>
<path d="M45.8119 27.1861C47.4216 14.5844 38.5222 3.06345 25.9435 1.45374C13.3647 -0.155974 1.79782 8.74342 0.188112 21.3222C-1.4216 33.9009 7.4778 45.4448 20.0565 47.0775C32.6583 48.6872 44.1792 39.7878 45.8119 27.1861Z" fill="#FF6C37"/>
<path d="M31.3014 16.0324L21.5971 25.7366L18.8606 23.0001C28.4039 13.4568 29.3467 14.2847 31.3014 16.0324Z" fill="white"/>
<path d="M21.5974 25.9667C21.5284 25.9667 21.4824 25.9437 21.4364 25.8977L18.6769 23.1612C18.5849 23.0692 18.5849 22.9312 18.6769 22.8393C28.3812 13.135 29.393 14.0548 31.4396 15.8945C31.4856 15.9405 31.5086 15.9865 31.5086 16.0555C31.5086 16.1245 31.4856 16.1705 31.4396 16.2164L21.7353 25.8977C21.7124 25.9437 21.6434 25.9667 21.5974 25.9667ZM19.1828 23.0002L21.5974 25.4148L30.9567 16.0555C29.255 14.5378 28.1052 14.0778 19.1828 23.0002Z" fill="#FF6C37"/>
<path d="M24.3795 28.5192L21.735 25.8747L31.4392 16.1704C34.0378 18.792 30.1515 23.0462 24.3795 28.5192Z" fill="white"/>
<path d="M24.3798 28.7491C24.3108 28.7491 24.2648 28.7262 24.2188 28.6802L21.5743 26.0356C21.5283 25.9896 21.5283 25.9437 21.5283 25.8747C21.5283 25.8057 21.5513 25.7597 21.5973 25.7137L31.3016 16.0094C31.3936 15.9175 31.5315 15.9175 31.6235 16.0094C32.2214 16.5613 32.5433 17.3432 32.5203 18.1481C32.4744 20.7006 29.5769 23.943 24.5638 28.6802C24.4948 28.7262 24.4258 28.7491 24.3798 28.7491ZM22.0572 25.8747C23.529 27.3694 24.1499 27.9673 24.3798 28.1972C28.2431 24.5179 31.9914 20.7466 32.0144 18.1481C32.0374 17.5502 31.8075 16.9523 31.4166 16.4924L22.0572 25.8747Z" fill="#FF6C37"/>
<path d="M18.9069 23.0692L20.8615 25.0238C20.9075 25.0698 20.9075 25.1158 20.8615 25.1618C20.8385 25.1848 20.8386 25.1848 20.8156 25.1848L16.7683 26.0586C16.5613 26.0816 16.3774 25.9436 16.3314 25.7367C16.3084 25.6217 16.3544 25.5067 16.4233 25.4377L18.7689 23.0922C18.8149 23.0462 18.8839 23.0232 18.9069 23.0692Z" fill="white"/>
<path d="M16.6992 26.2886C16.3542 26.2886 16.1013 26.0127 16.1013 25.6678C16.1013 25.5068 16.1703 25.3458 16.2852 25.2308L18.6308 22.8853C18.7688 22.7703 18.9528 22.7703 19.0907 22.8853L21.0454 24.8399C21.1834 24.9549 21.1834 25.1618 21.0454 25.2998C20.9994 25.3458 20.9534 25.3688 20.8844 25.3918L16.8371 26.2656C16.7911 26.2656 16.7452 26.2886 16.6992 26.2886ZM18.8378 23.3222L16.5842 25.5758C16.5382 25.6218 16.5152 25.6908 16.5612 25.7597C16.5842 25.8287 16.6532 25.8517 16.7222 25.8287L20.5165 25.0009L18.8378 23.3222Z" fill="#FF6C37"/>
<path d="M36.4293 10.6517C34.9576 9.22591 32.589 9.2719 31.1633 10.7666C29.7376 12.2614 29.7835 14.6069 31.2783 16.0327C32.4971 17.2055 34.3367 17.4124 35.7855 16.5386L33.1639 13.9171L36.4293 10.6517Z" fill="white"/>
<path d="M33.8538 17.297C31.6692 17.297 29.8985 15.5264 29.8985 13.3418C29.8985 11.1572 31.6692 9.38647 33.8538 9.38647C34.8656 9.38647 35.8545 9.7774 36.5903 10.4903C36.6363 10.5363 36.6593 10.5823 36.6593 10.6512C36.6593 10.7202 36.6363 10.7662 36.5903 10.8122L33.4859 13.9167L35.9234 16.3542C36.0154 16.4462 36.0154 16.5842 35.9234 16.6762C35.9004 16.6992 35.9004 16.6992 35.8774 16.7222C35.2796 17.0901 34.5667 17.297 33.8538 17.297ZM33.8538 9.86939C31.9222 9.86939 30.3584 11.4331 30.3814 13.3648C30.3814 15.2964 31.9452 16.8601 33.8768 16.8371C34.4057 16.8371 34.9346 16.7222 35.4175 16.4692L33.003 14.0776C32.957 14.0316 32.934 13.9856 32.934 13.9167C32.934 13.8477 32.957 13.8017 33.003 13.7557L36.0844 10.6742C35.4635 10.1453 34.6817 9.86939 33.8538 9.86939Z" fill="#FF6C37"/>
<path d="M36.4987 10.7205L36.4528 10.6745L33.1639 13.9171L35.7629 16.5154C36.0158 16.3545 36.2688 16.1705 36.4757 15.9635C37.9475 14.5148 37.9475 12.1692 36.4987 10.7205Z" fill="white"/>
<path d="M35.786 16.7683C35.717 16.7683 35.671 16.7453 35.625 16.6993L33.003 14.0776C32.957 14.0316 32.934 13.9856 32.934 13.9167C32.934 13.8477 32.957 13.8017 33.003 13.7557L36.2689 10.4904C36.3609 10.3984 36.4983 10.3983 36.5903 10.4903L36.6598 10.5364C38.2005 12.0771 38.2005 14.5607 36.6828 16.1244C36.4529 16.3544 36.1999 16.5613 35.924 16.7223C35.855 16.7453 35.809 16.7683 35.786 16.7683ZM33.4859 13.9167L35.809 16.2394C35.9929 16.1244 36.1769 15.9634 36.3149 15.8255C37.6256 14.5147 37.6946 12.3761 36.4299 10.9963L33.4859 13.9167Z" fill="#FF6C37"/>
<path d="M31.6925 16.4463C31.1406 15.8944 30.2438 15.8944 29.6919 16.4463L21.0225 25.1158L22.4712 26.5645L31.6466 18.516C32.2444 18.0101 32.2904 17.1132 31.7845 16.5153C31.7385 16.4923 31.7155 16.4693 31.6925 16.4463Z" fill="white"/>
<path d="M22.4481 26.7946C22.3791 26.7946 22.3331 26.7716 22.2871 26.7256L20.8384 25.2769C20.7464 25.1849 20.7464 25.0469 20.8384 24.9549L29.5078 16.2855C30.1517 15.6416 31.1865 15.6416 31.8304 16.2855C32.4743 16.9294 32.4743 17.9642 31.8304 18.6081C31.8074 18.6311 31.7844 18.6541 31.7614 18.677L22.5861 26.7256C22.5631 26.7716 22.5171 26.7946 22.4481 26.7946ZM21.3443 25.1159L22.4711 26.2427L31.4855 18.3321C31.9914 17.9182 32.0374 17.1593 31.6234 16.6534C31.2095 16.1475 30.4507 16.1015 29.9447 16.5154C29.9218 16.5384 29.8988 16.5614 29.8528 16.5844L21.3443 25.1159Z" fill="#FF6C37"/>
<path d="M14.3768 34.9811C14.2848 35.0271 14.2388 35.1191 14.2618 35.2111L14.6527 36.8668C14.7447 37.0967 14.6067 37.3727 14.3538 37.4417C14.1698 37.5107 13.9629 37.4417 13.8479 37.3037L11.3183 34.7972L19.5739 26.5416L22.4253 26.5876L24.357 28.5193C23.8971 28.9102 21.1146 31.6007 14.3768 34.9811Z" fill="white"/>
<path d="M14.1925 37.6715C14.0085 37.6715 13.8246 37.6025 13.7096 37.4645L11.203 34.9579C11.157 34.912 11.1341 34.866 11.1341 34.797C11.1341 34.728 11.157 34.682 11.203 34.636L19.4586 26.3805C19.5045 26.3345 19.5735 26.3115 19.6195 26.3115L22.471 26.3575C22.54 26.3575 22.586 26.3805 22.632 26.4265L24.5636 28.3581C24.6096 28.4041 24.6326 28.4731 24.6326 28.5421C24.6326 28.6111 24.6096 28.6571 24.5406 28.7031L24.3797 28.841C21.9421 30.9797 18.6307 33.1183 14.5144 35.1649L14.9054 36.7976C14.9744 37.0966 14.8364 37.4185 14.5604 37.5795C14.4225 37.6485 14.3075 37.6715 14.1925 37.6715ZM11.663 34.797L14.0315 37.1425C14.1005 37.2575 14.2385 37.3035 14.3535 37.2345C14.4685 37.1655 14.5144 37.0276 14.4455 36.9126L14.0545 35.2569C14.0085 35.0499 14.1005 34.866 14.2845 34.774C18.3548 32.7273 21.6432 30.6117 24.0577 28.5191L22.356 26.8174L19.7115 26.7714L11.663 34.797Z" fill="#FF6C37"/>
<path d="M9.36338 36.7748L11.341 34.7972L14.2845 37.7406L9.59334 37.4187C9.38638 37.3957 9.2484 37.2117 9.2714 37.0048C9.2714 36.9128 9.29439 36.8208 9.36338 36.7748Z" fill="white"/>
<path d="M14.2847 37.9475L9.57057 37.6255C9.22563 37.6026 8.99568 37.3036 9.01867 36.9587C9.04167 36.8207 9.08766 36.6827 9.20264 36.5907L11.1803 34.6131C11.2723 34.5211 11.4102 34.5211 11.5022 34.6131L14.4457 37.5566C14.5147 37.6255 14.5377 37.7175 14.4917 37.8095C14.4457 37.9015 14.3767 37.9475 14.2847 37.9475ZM11.3413 35.119L9.52458 36.9357C9.45559 36.9817 9.45559 37.0966 9.52458 37.1426C9.54758 37.1656 9.57057 37.1886 9.61656 37.1886L13.6868 37.4646L11.3413 35.119Z" fill="#FF6C37"/>
<path d="M18.7687 27.5994C18.6308 27.5994 18.5388 27.4844 18.5388 27.3694C18.5388 27.3004 18.5618 27.2544 18.6078 27.2084L20.8384 24.9778C20.9304 24.8859 21.0683 24.8859 21.1603 24.9778L22.609 26.4266C22.678 26.4956 22.701 26.5646 22.678 26.6565C22.655 26.7255 22.5861 26.7945 22.4941 26.8175L18.8147 27.5994C18.7917 27.5994 18.7687 27.5994 18.7687 27.5994ZM20.9993 25.4608L19.4816 26.9785L21.9652 26.4496L20.9993 25.4608Z" fill="#FF6C37"/>
<path d="M22.4253 26.5876L19.8956 27.1396C19.7117 27.1856 19.5277 27.0706 19.4817 26.8866C19.4587 26.7716 19.4817 26.6566 19.5737 26.5647L20.9764 25.1619L22.4253 26.5876Z" fill="white"/>
<path d="M19.8496 27.3694C19.5277 27.3694 19.2748 27.1165 19.2748 26.7945C19.2748 26.6335 19.3437 26.4956 19.4357 26.3806L20.8384 24.9778C20.9304 24.8859 21.0683 24.8859 21.1603 24.9778L22.609 26.4266C22.678 26.4956 22.701 26.5646 22.678 26.6565C22.655 26.7255 22.5861 26.7945 22.4941 26.8175L19.9646 27.3694C19.9186 27.3694 19.8726 27.3694 19.8496 27.3694ZM20.9993 25.4608L19.7577 26.7025C19.7117 26.7485 19.7117 26.7945 19.7347 26.8405C19.7577 26.8865 19.8037 26.9095 19.8726 26.9095L21.9883 26.4496L20.9993 25.4608Z" fill="#FF6C37"/>
<path d="M36.5218 12.9282C36.4758 12.7902 36.3148 12.7212 36.1769 12.7672C36.0389 12.8132 35.9699 12.9741 36.0159 13.1121C36.0159 13.1351 36.0389 13.1581 36.0389 13.1811C36.1769 13.4571 36.1309 13.802 35.9469 14.055C35.8549 14.1699 35.8779 14.3309 35.9699 14.4229C36.0849 14.5149 36.2459 14.4919 36.3378 14.3769C36.6828 13.94 36.7518 13.3881 36.5218 12.9282Z" fill="#FF6C37"/>
</svg>
