<svg width="230" height="48" viewBox="0 0 230 48" fill="none" xmlns="http://www.w3.org/2000/svg">
<path d="M12.444 26.584L24.888 38.834H0L12.444 26.584Z" fill="#FF2638"/>
<path d="M0 14.334L12.444 26.584L24.888 14.334H0Z" fill="#FFC600"/>
<path d="M12.446 26.584L24.89 38.834L37.334 26.584L24.89 14.334L12.446 26.584Z" fill="#0079F2"/>
<path d="M225.204 20.14C225.204 20.318 224.958 20.396 224.842 20.26C223.932 19.202 222.428 18.4 220.37 18.4C215.916 18.4 213.384 21.996 213.384 26.35C213.384 30.676 215.916 34.27 220.37 34.27C222.456 34.27 224.086 33.54 225.098 32.28C225.212 32.14 225.466 32.216 225.466 32.396V33.742C225.466 33.842 225.546 33.922 225.644 33.922H228.488C228.588 33.922 228.668 33.842 228.668 33.742V12.18C228.668 12.1323 228.649 12.0865 228.615 12.0527C228.581 12.019 228.536 12 228.488 12H225.382C225.335 12.0005 225.289 12.0197 225.256 12.0534C225.223 12.0871 225.204 12.1326 225.204 12.18V20.14ZM225.348 26.35C225.348 29.07 223.748 31.202 221.098 31.202C218.478 31.202 216.848 29.068 216.848 26.35C216.848 23.574 218.478 21.47 221.098 21.47C223.748 21.47 225.348 23.574 225.348 26.35ZM212.52 18.8C212.52 18.7551 212.503 18.7118 212.473 18.6788C212.442 18.6458 212.401 18.6255 212.356 18.622C212.245 18.6135 212.135 18.6082 212.024 18.606C209.884 18.606 208.638 19.464 207.952 20.304C207.836 20.444 207.57 20.368 207.57 20.184V18.93C207.57 18.8826 207.551 18.8371 207.518 18.8034C207.485 18.7697 207.439 18.7505 207.392 18.75H204.546C204.499 18.7505 204.453 18.7697 204.42 18.8034C204.387 18.8371 204.368 18.8826 204.368 18.93V33.742C204.368 33.842 204.448 33.922 204.546 33.922H207.654C207.701 33.9215 207.747 33.9023 207.78 33.8686C207.813 33.8349 207.832 33.7894 207.832 33.742V26.03C207.832 23.106 209.288 21.82 211.734 21.82C211.942 21.82 212.162 21.84 212.314 21.854C212.34 21.8568 212.365 21.8542 212.39 21.8465C212.414 21.8388 212.437 21.8261 212.456 21.8091C212.476 21.7922 212.491 21.7715 212.502 21.7482C212.513 21.725 212.519 21.6997 212.52 21.674V18.8ZM197.85 26.82C197.876 26.8163 197.902 26.8181 197.926 26.8253C197.951 26.8325 197.974 26.845 197.994 26.8619C198.013 26.8788 198.029 26.8997 198.04 26.9232C198.05 26.9467 198.056 26.9722 198.056 26.998V27.754C198.056 29.8 196.688 31.554 193.892 31.554C192.232 31.554 191.212 30.998 191.212 29.566C191.212 28.514 191.912 27.726 194.038 27.402L197.85 26.822V26.82ZM193.194 34.272C195.348 34.272 196.968 33.644 198.018 32.412C198.132 32.276 198.382 32.352 198.39 32.532C198.432 33.402 198.556 33.92 198.58 33.92H201.598C201.726 33.92 201.816 33.788 201.776 33.666C201.566 33.002 201.432 31.926 201.432 31.056V24.07C201.432 20.592 199.336 18.4 194.912 18.4C190.454 18.4 188.628 20.736 188.268 23.318C188.265 23.3428 188.268 23.368 188.275 23.3918C188.283 23.4156 188.295 23.4376 188.312 23.4563C188.328 23.4749 188.349 23.4899 188.372 23.5002C188.394 23.5105 188.419 23.5159 188.444 23.516H191.47C191.558 23.516 191.63 23.452 191.65 23.366C191.932 22.052 193 21.266 194.824 21.266C196.89 21.266 198.056 22.2 198.056 24.042V24.12C198.056 24.1632 198.04 24.205 198.012 24.2377C197.984 24.2703 197.945 24.2918 197.902 24.298L193.688 24.89C189.7 25.444 187.896 27.11 187.896 29.682C187.896 32.282 189.438 34.272 193.194 34.272ZM178.726 34.272C183.558 34.272 186.586 30.618 186.586 26.352C186.586 22.084 183.558 18.4 178.726 18.4C173.922 18.4 170.896 22.084 170.896 26.35C170.896 30.618 173.922 34.27 178.726 34.27V34.272ZM174.36 26.352C174.36 23.398 176.222 21.47 178.726 21.47C181.26 21.47 183.122 23.398 183.122 26.35C183.122 29.274 181.26 31.202 178.726 31.202C176.222 31.202 174.36 29.274 174.36 26.35V26.352ZM158.138 20.26C158.022 20.396 157.778 20.318 157.778 20.14V12.18C157.778 12.1323 157.759 12.0865 157.725 12.0527C157.691 12.019 157.646 12 157.598 12H154.492C154.444 12 154.398 12.019 154.365 12.0527C154.331 12.0865 154.312 12.1323 154.312 12.18V33.74C154.312 33.84 154.392 33.92 154.492 33.92H157.336C157.436 33.92 157.516 33.84 157.516 33.74V32.38C157.516 32.2 157.764 32.124 157.876 32.264C158.91 33.534 160.542 34.272 162.61 34.272C167.092 34.272 169.626 30.676 169.626 26.352C169.626 21.996 167.092 18.4 162.61 18.4C160.576 18.4 159.054 19.202 158.138 20.26ZM157.66 26.35C157.66 23.574 159.26 21.47 161.91 21.47C164.53 21.47 166.162 23.574 166.162 26.35C166.162 29.07 164.53 31.202 161.91 31.202C159.262 31.202 157.66 29.068 157.66 26.35ZM151.37 31.062C151.369 31.0339 151.362 31.0063 151.349 30.9812C151.337 30.9561 151.319 30.9341 151.297 30.9167C151.274 30.8993 151.249 30.8871 151.221 30.8807C151.194 30.8744 151.165 30.8741 151.138 30.88C150.938 30.92 150.63 30.97 150.294 30.97C149.1 30.97 148.606 30.384 148.606 29.186V21.706C148.606 21.6586 148.626 21.6133 148.659 21.58C148.693 21.5467 148.739 21.528 148.786 21.528H151.25C151.35 21.528 151.43 21.448 151.43 21.348V18.934C151.43 18.8863 151.411 18.8405 151.377 18.8067C151.343 18.773 151.298 18.754 151.25 18.754H148.784C148.76 18.754 148.737 18.7493 148.715 18.7403C148.693 18.7313 148.673 18.718 148.657 18.7013C148.64 18.6846 148.627 18.6647 148.618 18.6429C148.609 18.621 148.604 18.5976 148.604 18.574V14.988C148.604 14.9406 148.585 14.8951 148.552 14.8614C148.519 14.8277 148.473 14.8085 148.426 14.808H145.32C145.272 14.808 145.226 14.827 145.193 14.8607C145.159 14.8945 145.14 14.9403 145.14 14.988V18.576C145.14 18.5996 145.135 18.623 145.126 18.6449C145.117 18.6667 145.104 18.6866 145.087 18.7033C145.071 18.72 145.051 18.7333 145.029 18.7423C145.007 18.7513 144.984 18.756 144.96 18.756H143.02C142.973 18.756 142.927 18.7747 142.893 18.808C142.86 18.8413 142.84 18.8866 142.84 18.934V21.352C142.84 21.452 142.92 21.532 143.02 21.532H144.96C145.06 21.532 145.14 21.612 145.14 21.71V29.54C145.14 32.404 146.48 34.012 149.566 34.012C150.422 34.012 150.994 33.916 151.238 33.866C151.276 33.8577 151.31 33.8363 151.334 33.8057C151.358 33.775 151.371 33.737 151.37 33.698V31.062ZM126.934 26.35C126.934 30.734 130.02 34.27 134.474 34.27C138.846 34.27 141.114 31.298 141.602 28.63C141.606 28.6048 141.605 28.5789 141.598 28.5542C141.592 28.5295 141.58 28.5065 141.563 28.4871C141.546 28.4676 141.526 28.452 141.502 28.4414C141.479 28.4309 141.454 28.4256 141.428 28.426H138.224C138.184 28.4264 138.145 28.4398 138.113 28.4644C138.081 28.489 138.058 28.5232 138.048 28.562C137.6 30.124 136.256 31.202 134.444 31.202C131.97 31.202 130.398 29.186 130.398 26.35C130.398 23.486 131.97 21.47 134.444 21.47C136.256 21.47 137.6 22.548 138.048 24.11C138.07 24.19 138.142 24.246 138.224 24.246H141.428C141.454 24.2464 141.479 24.2411 141.502 24.2306C141.526 24.22 141.546 24.2044 141.563 24.1849C141.58 24.1655 141.592 24.1425 141.598 24.1178C141.605 24.0931 141.606 24.0672 141.602 24.042C141.114 21.374 138.846 18.402 134.474 18.402C130.02 18.402 126.934 21.938 126.934 26.35ZM121.1 27.49C121.1 29.974 119.762 31.29 117.608 31.29C115.512 31.29 114.668 29.916 114.668 27.842V18.93C114.668 18.8823 114.649 18.8365 114.615 18.8027C114.581 18.769 114.536 18.75 114.488 18.75H111.382C111.334 18.75 111.288 18.769 111.255 18.8027C111.221 18.8365 111.202 18.8823 111.202 18.93V28.31C111.202 31.846 113.096 34.27 116.762 34.27C118.798 34.27 120.188 33.504 120.966 32.554C121.084 32.41 121.364 32.492 121.364 32.678V33.742C121.364 33.842 121.444 33.922 121.544 33.922H124.386C124.486 33.922 124.566 33.842 124.566 33.742V18.93C124.566 18.8823 124.547 18.8365 124.513 18.8027C124.479 18.769 124.434 18.75 124.386 18.75H121.28C121.232 18.75 121.186 18.769 121.153 18.8027C121.119 18.8365 121.1 18.8823 121.1 18.93V27.49ZM105.08 20.14C105.08 20.318 104.834 20.396 104.718 20.26C103.808 19.202 102.304 18.4 100.246 18.4C95.792 18.4 93.258 21.996 93.258 26.35C93.258 30.676 95.792 34.27 100.246 34.27C102.33 34.27 103.96 33.54 104.974 32.28C105.088 32.14 105.34 32.216 105.34 32.396V33.742C105.34 33.842 105.42 33.922 105.52 33.922H108.364C108.464 33.922 108.544 33.842 108.544 33.742V12.18C108.544 12.1323 108.525 12.0865 108.491 12.0527C108.457 12.019 108.412 12 108.364 12H105.258C105.21 12 105.164 12.019 105.131 12.0527C105.097 12.0865 105.078 12.1323 105.078 12.18V20.14H105.08ZM105.224 26.35C105.224 29.07 103.624 31.202 100.974 31.202C98.354 31.202 96.722 29.068 96.722 26.35C96.722 23.574 98.354 21.47 100.974 21.47C103.622 21.47 105.224 23.574 105.224 26.35ZM84 34.272C88.834 34.272 91.86 30.618 91.86 26.352C91.86 22.082 88.836 18.4 84 18.4C79.198 18.4 76.17 22.084 76.17 26.35C76.17 30.618 79.198 34.27 84 34.27V34.272ZM79.634 26.352C79.634 23.398 81.496 21.47 84 21.47C86.534 21.47 88.396 23.398 88.396 26.35C88.396 29.274 86.534 31.202 84 31.202C81.496 31.202 79.634 29.274 79.634 26.35V26.352ZM75.772 18.8C75.7721 18.7551 75.7553 18.7118 75.7249 18.6788C75.6945 18.6458 75.6527 18.6255 75.608 18.622C75.4981 18.6135 75.3881 18.6082 75.278 18.606C73.138 18.606 71.89 19.464 71.204 20.304C71.088 20.444 70.824 20.368 70.824 20.184V18.93C70.824 18.8823 70.805 18.8365 70.7712 18.8027C70.7375 18.769 70.6917 18.75 70.644 18.75H67.8C67.7522 18.75 67.7064 18.769 67.6727 18.8027C67.6389 18.8365 67.62 18.8823 67.62 18.93V33.742C67.62 33.842 67.7 33.922 67.8 33.922H70.906C71.006 33.922 71.086 33.842 71.086 33.742V26.03C71.086 23.106 72.54 21.82 74.986 21.82C75.196 21.82 75.414 21.84 75.566 21.854C75.5915 21.8568 75.6174 21.8542 75.6419 21.8465C75.6664 21.8388 75.6891 21.8261 75.7084 21.8091C75.7278 21.7922 75.7434 21.7715 75.7544 21.7482C75.7653 21.725 75.7713 21.6997 75.772 21.674V18.8ZM53.632 32.544C53.632 32.364 53.88 32.286 53.998 32.424C54.912 33.494 56.434 34.272 58.466 34.272C62.948 34.272 65.482 30.676 65.482 26.352C65.482 21.996 62.948 18.4 58.466 18.4C56.396 18.4 54.764 19.162 53.73 20.42C53.618 20.558 53.37 20.48 53.37 20.3V18.93C53.37 18.8823 53.351 18.8365 53.3172 18.8027C53.2835 18.769 53.2377 18.75 53.19 18.75H50.348C50.3002 18.75 50.2544 18.769 50.2207 18.8027C50.1869 18.8365 50.168 18.8823 50.168 18.93V39.82C50.168 39.92 50.248 40 50.348 40H53.454C53.554 40 53.634 39.92 53.634 39.82V32.544H53.632ZM53.516 26.35C53.516 23.544 55.116 21.41 57.766 21.41C60.386 21.41 62.018 23.544 62.018 26.35C62.018 29.07 60.386 31.202 57.766 31.202C55.118 31.202 53.516 29.068 53.516 26.35Z" fill="#000C2C"/>
</svg>
