<svg width="161" height="48" viewBox="0 0 161 48" fill="none" xmlns="http://www.w3.org/2000/svg">
<path d="M10.3488 14.8499L9.01099 19.774L16.6685 14.8219L11.6603 33.5074L16.7466 33.5117L24.1451 5.91235" fill="#3395FF"/>
<path d="M2.10656 25.6563L0 33.5118H10.4249L14.6907 17.5316L2.10656 25.6563ZM38.319 18.7404C38.0642 19.6875 37.5732 20.3831 36.841 20.8274C36.1105 21.2708 35.0853 21.4933 33.7619 21.4933H29.5572L31.0335 15.9891H35.2382C36.5598 15.9891 37.4679 16.2099 37.9605 16.6601C38.4532 17.1103 38.5721 17.7984 38.319 18.7497V18.7404ZM42.6723 18.6308C43.2074 16.6432 42.9865 15.1142 42.008 14.0439C41.0312 12.9822 39.3171 12.447 36.8707 12.447H27.4872L21.8386 33.5211H26.3974L28.6738 25.0269H31.6638C32.3348 25.0269 32.8632 25.1373 33.2488 25.3497C33.6353 25.5705 33.8621 25.9528 33.9317 26.5049L34.7455 33.5211H39.6296L38.838 26.9806C38.6766 25.5196 38.0081 24.6617 36.8334 24.4068C38.3309 23.9736 39.5855 23.2516 40.5963 22.2493C41.6 21.2543 42.3172 20.0073 42.6723 18.6393V18.6308ZM53.7538 25.9783C53.3715 27.4053 52.7855 28.484 51.9929 29.24C51.1996 29.996 50.2516 30.3698 49.1457 30.3698C48.0194 30.3698 47.2557 30.0045 46.8523 29.2655C46.4479 28.5265 46.4343 27.4563 46.8098 26.0547C47.1852 24.6532 47.7841 23.5574 48.608 22.7675C49.4319 21.9775 50.3952 21.5825 51.5011 21.5825C52.6054 21.5825 53.3614 21.9648 53.7436 22.7233C54.1343 23.4852 54.1428 24.575 53.7606 25.9936L53.7538 25.9783ZM55.7516 18.5204L55.1808 20.6524C54.9345 19.8879 54.4563 19.2763 53.7495 18.8177C53.0411 18.3675 52.1645 18.1381 51.1189 18.1381C49.8363 18.1381 48.6046 18.4694 47.4239 19.1319C46.2432 19.7945 45.2069 20.7289 44.3235 21.935C43.4401 23.1412 42.7946 24.5088 42.3784 26.0462C41.9706 27.5922 41.8857 28.9427 42.132 30.1149C42.3869 31.2956 42.922 32.196 43.7459 32.8246C44.5784 33.4616 45.6401 33.7759 46.9397 33.7759C47.9724 33.7812 48.9935 33.5578 49.9297 33.1219C50.8553 32.7044 51.6786 32.0898 52.3421 31.3211L51.7475 33.5432H56.1559L60.1813 18.528H55.7644L55.7516 18.5204ZM76.023 18.5204H63.2027L62.3066 21.8671H69.7662L59.9044 30.3867L59.0618 33.5296H72.2958L73.1919 30.1829H65.1989L75.2118 21.5358L76.023 18.5204ZM87.3075 25.9528C86.9109 27.4308 86.3222 28.5418 85.545 29.2655C84.7678 29.996 83.8266 30.3613 82.7215 30.3613C80.4111 30.3613 79.6517 28.8918 80.44 25.9528C80.8307 24.4918 81.4219 23.3935 82.2119 22.6536C83.0018 21.9112 83.9591 21.5409 85.0846 21.5409C86.1889 21.5409 86.9346 21.9087 87.3186 22.6494C87.7025 23.3884 87.6991 24.4901 87.3075 25.9511V25.9528ZM89.8881 19.0852C88.873 18.4533 87.5777 18.1373 85.9977 18.1373C84.3983 18.1373 82.9177 18.4516 81.5553 19.0801C80.1985 19.7048 79.006 20.6372 78.0727 21.8034C77.1128 22.9841 76.4222 24.3686 75.9984 25.9485C75.5822 27.5225 75.5312 28.9045 75.854 30.0878C76.1768 31.2684 76.8563 32.1773 77.8756 32.8059C78.9034 33.4396 80.2115 33.7547 81.8169 33.7547C83.3968 33.7547 84.8663 33.437 86.2169 32.805C87.5675 32.1697 88.7227 31.2676 89.6825 30.0784C90.6423 28.8943 91.3304 27.5132 91.7551 25.9332C92.1798 24.3533 92.2308 22.9739 91.908 21.7881C91.5852 20.6074 90.9142 19.6985 89.9034 19.0657L89.8881 19.0852ZM105.626 22.5313L106.756 18.4456C106.374 18.2503 105.872 18.1483 105.244 18.1483C104.233 18.1483 103.265 18.398 102.33 18.9043C101.527 19.3341 100.844 19.9406 100.266 20.7L100.852 18.5L99.5723 18.5051H96.4294L92.3777 33.5143H96.8482L98.9505 25.6682C99.2563 24.5275 99.8067 23.6296 100.601 22.9926C101.391 22.3529 102.376 22.0327 103.565 22.0327C104.296 22.0327 104.975 22.2001 105.621 22.5339L105.626 22.5313ZM118.065 26.025C117.683 27.4265 117.105 28.4968 116.315 29.2358C115.525 29.9782 114.574 30.3485 113.47 30.3485C112.365 30.3485 111.609 29.9748 111.21 29.2273C110.802 28.4756 110.794 27.3925 111.176 25.9689C111.558 24.5461 112.145 23.4546 112.951 22.6987C113.758 21.9367 114.71 21.5562 115.814 21.5562C116.901 21.5562 117.632 21.9469 118.023 22.7369C118.413 23.5268 118.422 24.6226 118.046 26.0241L118.065 26.025ZM121.172 19.1099C120.344 18.4473 119.286 18.116 118.004 18.116C116.88 18.116 115.809 18.3709 114.793 18.8856C113.778 19.3995 112.954 20.1003 112.321 20.9871L112.337 20.8851L113.087 18.4983H108.721L107.608 22.6519L107.574 22.7963L102.987 39.907H107.463L109.774 31.2939C110.003 32.0601 110.47 32.6615 111.184 33.0964C111.897 33.5296 112.778 33.7445 113.826 33.7445C115.125 33.7445 116.365 33.4302 117.542 32.8016C118.722 32.1714 119.742 31.2642 120.608 30.092C121.475 28.9198 122.118 27.5607 122.528 26.0233C122.944 24.4833 123.029 23.1098 122.791 21.9078C122.549 20.7042 122.013 19.7724 121.186 19.1133L121.172 19.1099ZM136.021 25.9638C135.639 27.3824 135.053 28.4696 134.263 29.2171C133.473 29.9697 132.521 30.3443 131.417 30.3443C130.287 30.3443 129.523 29.979 129.124 29.24C128.716 28.501 128.707 27.4308 129.081 26.0292C129.455 24.6277 130.051 23.5319 130.875 22.742C131.699 21.952 132.663 21.5579 133.769 21.5579C134.873 21.5579 135.621 21.9401 136.012 22.6961C136.402 23.4546 136.405 24.5444 136.024 25.9664L136.021 25.9638ZM138.017 18.5017L137.445 20.6337C137.199 19.865 136.723 19.2534 136.018 18.799C135.305 18.3454 134.43 18.1194 133.385 18.1194C132.102 18.1194 130.864 18.4507 129.682 19.1133C128.501 19.7758 127.465 20.7051 126.581 21.9078C125.698 23.1106 125.052 24.4816 124.636 26.019C124.224 27.5624 124.143 28.9156 124.39 30.0928C124.639 31.265 125.175 32.1705 126.004 32.8025C126.831 33.4311 127.898 33.7488 129.197 33.7488C130.242 33.7488 131.24 33.5313 132.187 33.0947C133.111 32.6753 133.932 32.0599 134.594 31.2914L133.999 33.5152H138.408L142.432 18.5059H138.024L138.017 18.5017ZM160.94 18.5068L160.943 18.5025H158.233C158.147 18.5025 158.07 18.5068 157.991 18.5085H156.585L155.863 19.5108L155.685 19.7486L155.608 19.8675L149.896 27.8249L148.715 18.5068H144.037L146.407 32.6666L141.174 39.9121H145.838L147.103 38.1173C147.139 38.0646 147.171 38.0205 147.214 37.9644L148.692 35.8664L148.734 35.8069L155.354 26.4208L160.934 18.5212L160.943 18.5161H160.94V18.5068Z" fill="black"/>
</svg>
