<svg width="170" height="48" viewBox="0 0 170 48" fill="none" xmlns="http://www.w3.org/2000/svg">
<path d="M3.83733 19.6541C3.83733 17.0138 2.5 14.8322 0 13H5.81067C6.83498 13.7802 7.66491 14.7869 8.23555 15.9413C8.80618 17.0956 9.10205 18.3664 9.1 19.6541C9.10205 20.9418 8.80618 22.2125 8.23555 23.3669C7.66491 24.5212 6.83498 25.5279 5.81067 26.3081C7.69733 27.0949 8.77067 29.0151 8.77067 31.7634V37H3.50933V31.7634C3.50933 29.1458 2.26 27.3136 0.00133333 26.3095C2.50133 24.4759 3.83867 22.2957 3.83867 19.6554L3.83733 19.6541ZM15.24 19.6541C15.24 17.0138 13.9027 14.8322 11.4027 13H17.2147C18.2387 13.7804 19.0684 14.7871 19.6388 15.9415C20.2092 17.0958 20.5049 18.3665 20.5027 19.6541C20.5049 20.9417 20.2092 22.2123 19.6388 23.3667C19.0684 24.521 18.2387 25.5278 17.2147 26.3081C19.1 27.0949 20.1747 29.0151 20.1747 31.7634V37H14.912V31.7634C14.912 29.1458 13.6613 27.3136 11.4027 26.3095C13.9027 24.4759 15.24 22.2957 15.24 19.6554V19.6541ZM26.6453 19.6541C26.6453 17.0138 25.308 14.8322 22.808 13H28.6187C29.643 13.7802 30.4729 14.7869 31.0435 15.9413C31.6142 17.0956 31.91 18.3664 31.908 19.6541C31.91 20.9418 31.6142 22.2125 31.0435 23.3669C30.4729 24.5212 29.643 25.5279 28.6187 26.3081C30.5053 27.0949 31.5787 29.0151 31.5787 31.7634V37H26.316V31.7634C26.316 29.1458 25.0667 27.3136 22.808 26.3095C25.308 24.4759 26.6453 22.2957 26.6453 19.6554V19.6541ZM47.936 32.6395H43.9467V17.3632H53.7493C58.464 17.3632 60.788 19.11 60.788 21.9677C60.788 23.9092 59.648 25.3707 57.5213 26.1135C59.7133 26.4402 60.7 27.5963 60.7 29.6699V32.6368H56.6653V29.8445C56.6653 28.0977 55.788 27.4003 53.4853 27.4003H47.9387V32.6395H47.936ZM53.528 19.5887H47.936V25.176H53.484C55.5013 25.176 56.7507 24.0626 56.7507 22.317C56.7507 20.5928 55.5907 19.5887 53.528 19.5887ZM67.716 17.3632H63.7253V32.6395H67.716V17.3632ZM79.952 27.6616H75.084V32.6368H71.092V17.3632H80.0387C84.7533 17.3632 87.232 19.3274 87.232 22.4704C87.232 25.7201 84.7107 27.6616 79.952 27.6616ZM79.864 19.5887H75.084V25.436H79.82C81.8813 25.436 83.1533 24.3893 83.1533 22.4917C83.1533 20.6368 81.8813 19.5887 79.864 19.5887ZM98.46 27.6616H93.592V32.6368H89.6V17.3632H98.5467C103.261 17.3632 105.74 19.3274 105.74 22.4704C105.74 25.7201 103.217 27.6616 98.46 27.6616ZM98.372 19.5887H93.592V25.436H98.328C100.389 25.436 101.661 24.3893 101.661 22.4917C101.661 20.6368 100.389 19.5887 98.372 19.5887ZM112.099 17.3632V30.3673H122.055V32.6395H108.108V17.3632H112.099ZM128.543 17.3632H124.552V32.6395H128.543V17.3632ZM134.552 22.4691V32.6395H131.92V17.3632H134.905L145.781 27.5309V17.3632H148.413V32.6395H145.431L134.552 22.4677V22.4691ZM161.44 19.1527C157.645 19.1527 155.168 21.553 155.168 25.1307C155.168 28.6644 157.536 30.8473 161.22 30.8473H161.483C162.733 30.8473 164.136 30.5846 165.431 30.1712V26.0468H158.984V23.8652H169.333V31.0433C167.185 32.1568 163.939 33.0302 161.308 33.0302H160.957C154.904 33.0302 151.001 29.8432 151.001 25.2174C151.001 20.6355 155.015 16.9711 161.176 16.9711H161.527C164.093 16.9711 167.031 17.7779 169.203 19.0433L168.061 20.8969C166.111 19.8288 163.785 19.1527 161.703 19.1527H161.44Z" fill="black"/>
</svg>
