<svg width="171" height="48" viewBox="0 0 171 48" fill="none" xmlns="http://www.w3.org/2000/svg">
<path fill-rule="evenodd" clip-rule="evenodd" d="M63.5319 21.8291L60.4272 21.1555C58.8737 20.8188 58.0184 19.8605 58.0184 18.4564C58.0184 16.6719 59.6028 15.3257 61.7042 15.3257C64.612 15.3257 65.4706 17.465 65.6651 18.1215C65.7267 18.3398 65.8785 18.5248 66.0825 18.6267C66.2817 18.7287 66.5047 18.7439 66.7182 18.6694L68.3547 18.0921C68.5512 18.0224 68.7136 17.8802 68.8088 17.6947C68.904 17.5092 68.9248 17.2944 68.867 17.0941C68.4448 15.6093 66.8937 12.156 61.633 12.156C57.7385 12.156 54.4512 15.135 54.4512 18.6618C54.4512 21.693 56.4402 23.932 59.7735 24.6577L62.7335 25.3029C64.5152 25.6776 65.5797 26.7639 65.5797 28.2059C65.5797 30.0465 64.0665 31.1897 61.6283 31.1897C58.7632 31.1897 57.3828 29.3112 57.046 27.5513C57.0247 27.4379 56.9795 27.3302 56.9135 27.2355C56.8474 27.1408 56.762 27.0612 56.6629 27.002C56.5638 26.9428 56.4532 26.9054 56.3385 26.8921C56.2238 26.8789 56.1076 26.8901 55.9976 26.9252L54.1998 27.4992C54.0109 27.5567 53.8498 27.6819 53.7474 27.8509C53.645 28.0198 53.6085 28.2205 53.6448 28.4147C54.2046 31.332 56.6015 34.4438 61.6615 34.4438C65.9374 34.4438 69.1621 31.6593 69.1621 27.9688C69.1621 24.8522 67.1052 22.6133 63.5172 21.8211L63.5319 21.8291ZM81.8995 24.6672C81.909 24.7289 81.8806 24.7763 81.8616 24.7953C81.8459 24.8147 81.826 24.8304 81.8034 24.841C81.7808 24.8517 81.7561 24.8572 81.7311 24.857H75.1376C75.1113 24.857 75.0854 24.851 75.0618 24.8395C75.0382 24.828 75.0176 24.8112 75.0014 24.7906C74.9864 24.7732 74.9756 24.7526 74.9698 24.7304C74.964 24.7082 74.9635 24.6849 74.9682 24.6625C75.2694 23.2878 76.4482 21.9017 78.4026 21.9017C80.3223 21.9017 81.6282 22.9311 81.8962 24.6592L81.8995 24.6672ZM78.377 18.8231C74.9046 18.8231 71.3137 21.7262 71.3137 26.5884C71.3137 28.9317 72.0822 30.9335 73.5385 32.3708C74.8876 33.7038 76.7309 34.439 78.728 34.439C81.7022 34.439 84.112 32.885 85.1745 30.2836C85.2599 30.0702 85.2552 29.833 85.1631 29.6243C85.1178 29.523 85.052 29.4322 84.97 29.3574C84.888 29.2827 84.7914 29.2256 84.6864 29.1898L83.2349 28.6869C83.0406 28.6202 82.8283 28.6292 82.6404 28.7121C82.4525 28.7951 82.3028 28.9458 82.2212 29.1343C81.595 30.6095 80.4186 31.3543 78.7251 31.3543C76.6759 31.3543 75.1153 29.9739 74.8449 27.9185C74.8415 27.8955 74.8433 27.872 74.8503 27.8498C74.8573 27.8276 74.8692 27.8073 74.8852 27.7904C74.9042 27.7667 74.9469 27.7287 75.0133 27.7287H84.6352C85.0668 27.7287 85.4273 27.3919 85.4511 26.9622C85.4606 26.8246 85.4653 26.6728 85.4653 26.5229C85.4653 21.7698 82.7472 18.8179 78.3736 18.8179L78.377 18.8231ZM94.7613 30.3595C92.4512 30.3595 91.0139 28.7562 91.0139 26.1757C91.0139 23.6331 92.4844 21.9899 94.7613 21.9899C96.9671 21.9899 98.449 23.6692 98.449 26.1738C98.449 28.6756 96.9661 30.3576 94.7608 30.3576L94.7613 30.3595ZM100.918 19.2595H99.1776C98.727 19.2595 98.3593 19.6262 98.3593 20.0991C98.3592 20.1326 98.3492 20.1653 98.3306 20.1931C98.3121 20.2209 98.2858 20.2427 98.255 20.2557C98.2218 20.2699 98.1554 20.2889 98.0956 20.232C97.199 19.4123 95.9372 18.9963 94.3481 18.9963C90.4095 18.9963 87.5506 22.0179 87.5506 26.1781C87.5506 30.3202 90.4095 33.3267 94.3481 33.3267C95.8044 33.3267 97.1231 32.8485 98.0624 31.9804C98.124 31.9235 98.1904 31.9377 98.2237 31.952C98.2474 31.9614 98.328 32.0041 98.328 32.1085V32.7062C98.328 35.5998 97.0615 36.9493 94.3481 36.9493C92.6262 36.9493 91.2743 35.882 90.909 34.2322C90.8616 34.0187 90.7335 33.8385 90.5485 33.7232C90.3635 33.6079 90.1406 33.5714 89.9271 33.6189L88.2175 34.0126C88.0076 34.0625 87.8256 34.1929 87.7108 34.3757C87.596 34.5584 87.5576 34.7789 87.6037 34.9898C88.2156 37.9877 90.9271 40.0037 94.3443 40.0037C96.8917 40.0037 98.8318 39.2282 100.113 37.6983C101.17 36.4337 101.73 34.6781 101.73 32.6213V20.0901C101.73 19.6395 101.365 19.2742 100.914 19.2742L100.918 19.2595ZM121.615 18.8497C119.689 18.8497 118.122 19.5764 117.083 20.9558C117.065 20.9814 117.041 21.002 117.013 21.0156C116.986 21.0292 116.955 21.0354 116.924 21.0336C116.901 21.0339 116.878 21.0281 116.858 21.0169C116.838 21.0056 116.822 20.9893 116.81 20.9696C115.939 19.6224 114.434 18.8492 112.683 18.8492C111.29 18.8492 109.951 19.3388 109.008 20.194C108.985 20.2178 108.955 20.2338 108.923 20.2398C108.891 20.2457 108.857 20.2413 108.827 20.2272C108.798 20.2153 108.774 20.1947 108.757 20.1682C108.74 20.1417 108.731 20.1106 108.733 20.0792C108.733 19.6286 108.365 19.2633 107.915 19.2633H106.261C105.811 19.2633 105.445 19.6286 105.445 20.0792V33.1858C105.445 33.6364 105.812 34.0026 106.263 34.0026H108.004C108.455 34.0026 108.82 33.6345 108.82 33.1839V25.1942C108.82 23.2527 110.006 21.9477 111.775 21.9477C114.09 21.9477 114.436 23.7631 114.436 24.8446V33.1981C114.436 33.6487 114.802 34.014 115.252 34.014H117.023C117.474 34.014 117.839 33.6468 117.839 33.1962V25.1658C117.839 23.2702 119.044 21.9468 120.766 21.9468C123.082 21.9468 123.427 23.7636 123.427 24.8451V33.1986C123.427 33.6492 123.792 34.0145 124.243 34.0145H125.984C126.434 34.0145 126.8 33.6473 126.8 33.1967V24.5491C126.8 20.6214 124.195 18.8649 121.615 18.8649V18.8497ZM133.384 24.8684C133.357 24.8683 133.332 24.8623 133.308 24.851C133.285 24.8397 133.264 24.8233 133.247 24.8029C133.233 24.7856 133.223 24.7653 133.217 24.7434C133.212 24.7215 133.212 24.6987 133.216 24.6767C133.518 23.3011 134.696 21.9159 136.652 21.9159C138.572 21.9159 139.878 22.9453 140.146 24.672C140.155 24.7336 140.125 24.7811 140.108 24.8C140.091 24.8177 140.071 24.8318 140.048 24.8416C140.026 24.8514 140.002 24.8566 139.977 24.857H133.384V24.8684ZM136.623 18.8345C133.151 18.8345 129.56 21.7395 129.56 26.5998C129.56 28.9459 130.329 30.9463 131.783 32.385C133.13 33.718 134.971 34.4485 136.973 34.4485C139.942 34.4485 142.352 32.8926 143.419 30.2884C143.505 30.0749 143.5 29.8377 143.405 29.629C143.31 29.4203 143.139 29.2685 142.926 29.1926L141.474 28.6907C141.071 28.5518 140.625 28.7477 140.46 29.1376C139.834 30.609 138.658 31.3576 136.964 31.3576C134.915 31.3576 133.354 29.9744 133.084 27.9185C133.08 27.8952 133.082 27.8714 133.088 27.8488C133.095 27.8262 133.106 27.8053 133.122 27.7876C133.141 27.7638 133.183 27.7283 133.25 27.7283H142.875C143.306 27.7283 143.665 27.3915 143.69 26.9612C143.699 26.8237 143.705 26.6719 143.705 26.5201C143.705 21.767 140.987 18.8117 136.613 18.8117L136.623 18.8345ZM154.066 18.8644C152.593 18.8644 151.302 19.3663 150.332 20.3159C150.31 20.3383 150.282 20.3535 150.251 20.3594C150.22 20.3653 150.188 20.3617 150.159 20.3491C150.129 20.3361 150.104 20.3146 150.086 20.2873C150.068 20.2599 150.059 20.228 150.059 20.1954V20.0911C150.059 19.6404 149.692 19.2752 149.241 19.2752H147.534C147.083 19.2752 146.716 19.6404 146.716 20.0911V33.1953C146.716 33.6459 147.081 34.0126 147.532 34.0126H149.301C149.752 34.0126 150.119 33.6449 150.119 33.1943V25.5443C150.119 23.8328 150.895 22.0037 153.075 22.0037C155.034 22.0037 156.028 23.0867 156.028 25.2222V33.1915C156.028 33.6421 156.393 34.0074 156.844 34.0074H158.613C159.064 34.0074 159.43 33.6374 159.43 33.1867V24.7531C159.43 21.1195 157.372 18.8615 154.065 18.8615L154.066 18.8644ZM167.675 22.4135H169.738C170.189 22.4135 170.554 22.0459 170.554 21.5958V20.0901C170.554 19.6395 170.189 19.2742 169.738 19.2742H167.675C167.653 19.2742 167.631 19.2699 167.611 19.2616C167.591 19.2533 167.573 19.241 167.557 19.2256C167.542 19.2102 167.53 19.1919 167.521 19.1717C167.513 19.1516 167.509 19.13 167.509 19.1082V15.6387C167.509 15.1881 167.14 14.8219 166.69 14.8219H165.153C164.703 14.8219 164.337 15.1881 164.337 15.6387V17.4318C164.337 18.2714 164.016 19.2738 162.493 19.2738H162.231C161.78 19.2738 161.415 19.639 161.415 20.0897V21.5934C161.415 22.044 161.782 22.4093 162.231 22.4093H163.943C164.036 22.4093 164.109 22.4804 164.109 22.5753V29.8188C164.109 32.4942 165.739 34.1544 168.36 34.1544C169.09 34.1544 169.658 34.0501 169.932 33.9884C170.302 33.903 170.562 33.5757 170.562 33.1915V31.7973C170.562 31.6826 170.538 31.5693 170.491 31.4645C170.444 31.3598 170.376 31.2661 170.29 31.1895C170.205 31.1129 170.105 31.0551 169.995 31.0198C169.886 30.9845 169.771 30.9726 169.657 30.9847C169.472 31.0037 169.293 31.0146 169.152 31.0146C167.962 31.0146 167.516 30.5782 167.516 29.4065V22.5758C167.516 22.4847 167.592 22.4107 167.682 22.4107" fill="#43AF79"/>
<path fill-rule="evenodd" clip-rule="evenodd" d="M19.757 41.0001C17.9051 41.0001 16.0759 40.7249 14.3208 40.1809C13.8402 40.0319 13.4384 39.6982 13.2038 39.253C12.9693 38.8079 12.9211 38.2878 13.0699 37.8072C13.3802 36.8015 14.4456 36.2418 15.4441 36.5549C16.8349 36.9865 18.2855 37.2047 19.757 37.2047C26.1954 37.2047 31.7858 33.0731 33.6685 26.9206C33.7414 26.6824 33.8605 26.4609 34.019 26.2687C34.1776 26.0766 34.3725 25.9176 34.5926 25.8008C34.8126 25.6841 35.0536 25.6118 35.3016 25.5883C35.5496 25.5647 35.7998 25.5903 36.0379 25.6636C37.0398 25.9672 37.6033 27.0297 37.2969 28.0306C34.9232 35.7869 27.8742 41.0001 19.757 41.0001Z" fill="#43AF79"/>
<path fill-rule="evenodd" clip-rule="evenodd" d="M4.03197 19.7374C3.73521 19.7375 3.44257 19.6679 3.17758 19.5343C2.91258 19.4007 2.68261 19.2068 2.50615 18.9682C2.32969 18.7296 2.21166 18.4529 2.16154 18.1604C2.11141 17.8679 2.1306 17.5678 2.21755 17.284C4.59172 9.52826 11.6407 4.31885 19.757 4.31885C21.6103 4.31885 23.4394 4.59398 25.1931 5.13854C25.4312 5.21228 25.6523 5.33219 25.844 5.49142C26.0357 5.65064 26.1942 5.84607 26.3103 6.06653C26.4265 6.287 26.4981 6.52819 26.521 6.77632C26.5439 7.02446 26.5178 7.27468 26.444 7.51271C26.3705 7.75087 26.2507 7.9722 26.0915 8.164C25.9323 8.3558 25.7369 8.51432 25.5163 8.63047C25.2958 8.74662 25.0545 8.81813 24.8063 8.84089C24.5581 8.86365 24.3078 8.83722 24.0698 8.76312C22.68 8.33619 21.2284 8.11799 19.757 8.11799C13.3199 8.11799 7.72865 12.2497 5.84592 18.4021C5.72693 18.7904 5.48659 19.1302 5.16019 19.3719C4.8338 19.6135 4.43854 19.7441 4.03245 19.7445" fill="#43AF79"/>
<path fill-rule="evenodd" clip-rule="evenodd" d="M24.6316 29.3767H1.89744C0.849102 29.3767 0 28.5276 0 27.4793C0 26.4309 0.849102 25.5818 1.89744 25.5818H24.6316C25.6799 25.5818 26.529 26.4309 26.529 27.4793C26.529 28.5276 25.6799 29.3767 24.6316 29.3767Z" fill="#93C8A2"/>
<path fill-rule="evenodd" clip-rule="evenodd" d="M37.6167 19.7367H14.8835C13.8352 19.7367 12.9861 18.8876 12.9861 17.8393C12.9861 16.7909 13.8352 15.9418 14.8835 15.9418H37.6167C38.665 15.9418 39.5141 16.7909 39.5141 17.8393C39.5141 18.8876 38.665 19.7367 37.6167 19.7367Z" fill="#93C8A2"/>
<path fill-rule="evenodd" clip-rule="evenodd" d="M32.9167 10.6086C32.9167 11.1118 32.7168 11.5945 32.361 11.9503C32.0051 12.3061 31.5225 12.5061 31.0193 12.5061C30.5161 12.5061 30.0334 12.3061 29.6776 11.9503C29.3218 11.5945 29.1218 11.1118 29.1218 10.6086C29.1218 10.1054 29.3218 9.62277 29.6776 9.26693C30.0334 8.91109 30.5161 8.71118 31.0193 8.71118C31.5225 8.71118 32.0051 8.91109 32.361 9.26693C32.7168 9.62277 32.9167 10.1054 32.9167 10.6086ZM10.3918 34.7127C10.3918 35.2159 10.1919 35.6985 9.83604 36.0544C9.4802 36.4102 8.99758 36.6101 8.49435 36.6101C7.99111 36.6101 7.50849 36.4102 7.15266 36.0544C6.79682 35.6985 6.59691 35.2159 6.59691 34.7127C6.59691 34.2095 6.79682 33.7268 7.15266 33.371C7.50849 33.0152 7.99111 32.8153 8.49435 32.8153C8.99758 32.8153 9.4802 33.0152 9.83604 33.371C10.1919 33.7268 10.3918 34.2095 10.3918 34.7127Z" fill="#93C8A2"/>
</svg>
