<svg width="127" height="48" viewBox="0 0 127 48" fill="none" xmlns="http://www.w3.org/2000/svg">
<path d="M27.1506 11.8838C27.1253 11.7068 26.9736 11.6057 26.8472 11.6057C26.7208 11.6057 24.2181 11.5551 24.2181 11.5551C24.2181 11.5551 22.1199 9.53273 21.9177 9.30521C21.7154 9.10297 21.3109 9.15353 21.1593 9.20409C21.1593 9.20409 20.7548 9.33049 20.0975 9.53273C19.9964 9.17881 19.8194 8.74905 19.5919 8.29401C18.8588 6.87834 17.7465 6.11994 16.4319 6.11994C16.3308 6.11994 16.255 6.11994 16.1538 6.14522C16.1033 6.09466 16.078 6.0441 16.0274 6.01882C15.446 5.41211 14.7129 5.10875 13.8281 5.13403C12.1343 5.18459 10.4406 6.4233 9.05019 8.59737C8.08956 10.1394 7.35644 12.0607 7.12892 13.5522C5.18237 14.1589 3.81726 14.5887 3.7667 14.5887C2.78079 14.8921 2.75551 14.9173 2.62911 15.8527C2.57855 16.5605 0 36.5064 0 36.5064L21.6396 40.2478L31.0184 37.922C30.9931 37.922 27.1759 12.0607 27.1506 11.8838ZM19.0105 9.88665C18.5049 10.0383 17.9487 10.2153 17.342 10.4175C17.342 9.55801 17.2156 8.34457 16.8364 7.33338C18.1257 7.53562 18.7577 9.00185 19.0105 9.88665ZM16.2044 10.7462C15.0668 11.1001 13.8281 11.4793 12.5894 11.8585C12.9433 10.5186 13.6006 9.20409 14.4095 8.31929C14.7129 7.99065 15.1426 7.63674 15.623 7.4345C16.1286 8.42041 16.2297 9.81081 16.2044 10.7462ZM13.8787 6.27162C14.2831 6.27162 14.6118 6.34746 14.8898 6.5497C14.4348 6.77722 13.9798 7.13114 13.5753 7.58618C12.4883 8.74905 11.654 10.5439 11.3254 12.2882C10.2889 12.6169 9.27771 12.9202 8.36764 13.1983C8.97435 10.4428 11.2748 6.34746 13.8787 6.27162Z" fill="#95BF47"/>
<path d="M26.8473 11.6058C26.7209 11.6058 24.2182 11.5553 24.2182 11.5553C24.2182 11.5553 22.12 9.53287 21.9177 9.30535C21.8419 9.22951 21.7408 9.17896 21.6396 9.17896V40.2479L31.0185 37.9222C31.0185 37.9222 27.2012 12.0609 27.1759 11.8839C27.1254 11.7069 26.9737 11.6058 26.8473 11.6058Z" fill="#5E8E3E"/>
<path d="M16.4323 16.4339L15.3452 20.504C15.3452 20.504 14.1318 19.9479 12.6908 20.049C10.5673 20.1754 10.5673 21.5152 10.5673 21.8438C10.6937 23.664 15.4716 24.0685 15.7497 28.3408C15.9519 31.703 13.9801 34.0035 11.0982 34.1804C7.66015 34.3574 5.76416 32.335 5.76416 32.335L6.49728 29.2256C6.49728 29.2256 8.41855 30.6665 9.93534 30.5654C10.9213 30.5148 11.3005 29.6806 11.2499 29.1244C11.0982 26.7481 7.20511 26.8998 6.95231 22.9814C6.75008 19.6951 8.89886 16.3834 13.6515 16.08C15.4969 15.9536 16.4323 16.4339 16.4323 16.4339Z" fill="white"/>
<path d="M43.7092 25.1052C42.6221 24.5238 42.066 24.0182 42.066 23.3356C42.066 22.4761 42.8496 21.9199 44.0631 21.9199C45.4788 21.9199 46.7427 22.5014 46.7427 22.5014L47.7287 19.4678C47.7287 19.4678 46.8186 18.76 44.1389 18.76C40.3975 18.76 37.7937 20.9088 37.7937 23.9171C37.7937 25.6361 39.0071 26.9254 40.625 27.8607C41.9396 28.5938 42.3946 29.1247 42.3946 29.9084C42.3946 30.7173 41.7373 31.3746 40.5239 31.3746C38.729 31.3746 37.01 30.4393 37.01 30.4393L35.9482 33.4728C35.9482 33.4728 37.5156 34.5346 40.17 34.5346C44.0125 34.5346 46.7933 32.6386 46.7933 29.2258C46.768 27.3804 45.3776 26.0658 43.7092 25.1052Z" fill="black"/>
<path d="M59.0288 18.7096C57.1329 18.7096 55.6413 19.6197 54.5038 20.9848L54.4532 20.9595L56.0964 12.3644H51.8241L47.6529 34.2567H51.9252L53.3409 26.7739C53.897 23.9426 55.3633 22.1982 56.7284 22.1982C57.689 22.1982 58.0682 22.8555 58.0682 23.7909C58.0682 24.3723 58.0177 25.1054 57.8913 25.6869L56.2733 34.2567H60.5456L62.2141 25.4088C62.3911 24.4734 62.5175 23.3611 62.5175 22.6027C62.5428 20.1759 61.2788 18.7096 59.0288 18.7096Z" fill="black"/>
<path d="M72.2246 18.7093C67.0675 18.7093 63.6547 23.3607 63.6547 28.5431C63.6547 31.8548 65.7024 34.5344 69.5449 34.5344C74.6009 34.5344 78.0137 30.0094 78.0137 24.7006C78.039 21.6417 76.2441 18.7093 72.2246 18.7093ZM70.1263 31.2733C68.6601 31.2733 68.0534 30.0346 68.0534 28.4673C68.0534 26.0151 69.3174 22.0209 71.6431 22.0209C73.1599 22.0209 73.6655 23.3355 73.6655 24.5995C73.6655 27.2286 72.3763 31.2733 70.1263 31.2733Z" fill="black"/>
<path d="M88.9857 18.7093C86.1038 18.7093 84.4606 21.2625 84.4606 21.2625H84.4101L84.6629 18.962H80.8709C80.6939 20.5041 80.34 22.8804 80.0114 24.65L77.0283 40.3235H81.3006L82.4888 33.9783H82.5899C82.5899 33.9783 83.4747 34.5345 85.0926 34.5345C90.1233 34.5345 93.4097 29.3774 93.4097 24.1697C93.4097 21.2878 92.1204 18.7093 88.9857 18.7093ZM84.8904 31.3239C83.7781 31.3239 83.1208 30.6919 83.1208 30.6919L83.8286 26.6977C84.3342 24.018 85.7246 22.2484 87.2161 22.2484C88.5307 22.2484 88.9352 23.4619 88.9352 24.5995C88.9352 27.3802 87.292 31.3239 84.8904 31.3239Z" fill="black"/>
<path d="M99.5267 12.5665C98.1616 12.5665 97.0745 13.6536 97.0745 15.044C97.0745 16.3079 97.8835 17.1927 99.0969 17.1927H99.1475C100.487 17.1927 101.625 16.2827 101.65 14.7153C101.65 13.4766 100.816 12.5665 99.5267 12.5665Z" fill="black"/>
<path d="M93.5356 34.2312H97.8079L100.715 19.0633H96.4175L93.5356 34.2312Z" fill="black"/>
<path d="M111.61 19.0383H108.627L108.779 18.3304C109.032 16.8642 109.891 15.5749 111.332 15.5749C112.091 15.5749 112.698 15.8025 112.698 15.8025L113.532 12.4402C113.532 12.4402 112.799 12.061 111.206 12.061C109.689 12.061 108.172 12.4908 107.01 13.4767C105.543 14.7154 104.861 16.5103 104.532 18.3304L104.406 19.0383H102.409L101.777 22.2741H103.774L101.499 34.2568H105.771L108.046 22.2741H111.004L111.61 19.0383Z" fill="black"/>
<path d="M121.924 19.0633C121.924 19.0633 119.245 25.813 118.057 29.5039H118.006C117.93 28.3157 116.944 19.0633 116.944 19.0633H112.444L115.023 32.9925C115.074 33.2959 115.048 33.4981 114.922 33.7004C114.416 34.661 113.582 35.5963 112.596 36.2789C111.787 36.8603 110.877 37.2395 110.169 37.4923L111.357 41.1326C112.217 40.9557 114.037 40.2226 115.554 38.8069C117.5 36.9867 119.321 34.1554 121.166 30.3129L126.399 19.0633H121.924Z" fill="black"/>
</svg>
