<svg width="115" height="48" viewBox="0 0 115 48" fill="none" xmlns="http://www.w3.org/2000/svg">
<path d="M52.1067 21.81V35.0949H49.0384V14.308L62.7692 28.1812V14.8252H65.8393V35.688L52.1067 21.81ZM83.914 14.0098C77.9069 14.0098 73.0216 18.9366 73.0216 24.9972C73.0216 31.0549 77.9069 35.9813 83.914 35.9813C89.9192 35.9813 94.8068 31.0549 94.8068 24.9972C94.8068 18.9366 89.9192 14.0098 83.914 14.0098ZM83.914 32.8613C79.6562 32.8613 76.1896 29.3326 76.1896 24.9972C76.1896 20.6611 79.6562 17.1331 83.914 17.1331C88.1735 17.1331 91.6363 20.6611 91.6363 24.9972C91.6363 29.3327 88.1735 32.8613 83.914 32.8613ZM30.9534 14.0098C24.9465 14.0098 20.0609 18.9366 20.0609 24.9972C20.0609 31.0549 24.9465 35.9813 30.9534 35.9813C36.9615 35.9813 41.8458 31.0549 41.8458 24.9972C41.8458 18.9366 36.9617 14.0098 30.9534 14.0098ZM30.9534 32.8613C26.6939 32.8613 23.2315 29.3326 23.2315 24.9972C23.2315 20.6611 26.6939 17.1331 30.9534 17.1331C35.2115 17.1331 38.6775 20.6611 38.6775 24.9972C38.6776 29.3327 35.2115 32.8613 30.9534 32.8613ZM6.69995 26.5405L6.68753 26.5353C4.6367 25.8783 3.26395 25.231 2.22969 24.4336C0.751271 23.2977 0 21.8482 0 20.1262C0 18.5136 0.74351 16.942 2.03913 15.8058C3.36281 14.6468 5.18678 14.0098 7.17338 14.0098C11.3318 14.0098 13.7081 16.8043 13.8078 16.9242L11.2846 18.6436C10.7002 18.2032 9.16486 17.2147 7.17326 17.2147C4.67192 17.2147 3.17678 18.6948 3.17678 20.1262C3.17678 21.1248 3.7197 22.2228 7.64811 23.4838L7.66328 23.4863C9.70874 24.1413 11.0865 24.7906 12.1196 25.5857C13.5994 26.7241 14.3496 28.1736 14.3496 29.8958C14.3496 31.5083 13.6059 33.0824 12.3075 34.2162C10.9867 35.373 9.16331 36.0098 7.17457 36.0098C3.0175 36.0098 0.640945 33.2178 0.541484 33.0973L3.0667 31.3781C3.65021 31.8193 5.18559 32.8074 7.17445 32.8074C9.67686 32.8074 11.1732 31.3303 11.1732 29.8958C11.1735 28.8973 10.6321 27.799 6.69995 26.5405ZM107.22 26.5405L107.206 26.5353C105.157 25.8783 103.783 25.231 102.75 24.4335C101.273 23.2974 100.518 21.8478 100.518 20.1258C100.518 18.5132 101.264 16.9418 102.561 15.8056C103.88 14.6468 105.702 14.0098 107.694 14.0098C111.852 14.0098 114.23 16.8043 114.331 16.9242L111.804 18.6436C111.221 18.2032 109.686 17.2147 107.694 17.2147C105.191 17.2147 103.695 18.6948 103.695 20.1262C103.695 21.1248 104.239 22.2228 108.17 23.4838L108.185 23.4863C110.233 24.1413 111.606 24.7906 112.641 25.5857C114.117 26.7241 114.869 28.1736 114.869 29.8958C114.869 31.5083 114.126 33.0824 112.831 34.2162C111.508 35.373 109.684 36.0098 107.694 36.0098C103.537 36.0098 101.163 33.2178 101.062 33.0973L103.586 31.3781C104.171 31.8193 105.702 32.8074 107.694 32.8074C110.199 32.8074 111.691 31.3303 111.691 29.8958C111.691 28.8973 111.15 27.799 107.22 26.5405Z" fill="#222222"/>
</svg>
