<svg width="211" height="48" viewBox="0 0 211 48" fill="none" xmlns="http://www.w3.org/2000/svg">
<g clip-path="url(#clip0_201_8118)">
<path d="M49.363 17.5989H31.5634L30.9276 18.1075V33.9364H35.8225V27.9608L36.2674 27.5159H49.3628C52.6683 27.5159 54.1941 26.626 54.1941 24.3375V20.714C54.1943 18.4889 52.6685 17.5989 49.363 17.5989ZM49.363 23.4473C49.363 24.5279 48.6636 24.7186 47.0744 24.7186H36.3311L35.8225 24.2737V20.9045L36.2674 20.4596H47.0742C48.6 20.4596 49.3627 20.6503 49.3627 21.7309L49.363 23.4473ZM63.2211 20.5866L67.4803 26.8164L67.226 27.3886H57.8177L55.402 30.3764H69.3873L70.4044 30.9485L72.5658 33.9363H78.2235L65.8275 17.4082L63.2211 20.5866ZM119.353 30.7578V26.308L119.862 25.8629H129.334V23.0658H114.331V33.9363H136.453V31.1392H119.925L119.353 30.7578ZM114.331 17.5989H136.644V20.6503H114.331V17.5989ZM89.4754 20.5231H107.466C107.211 18.2346 105.749 17.5989 102.189 17.5989H89.2847C85.2163 17.5989 83.9449 18.3618 83.9449 21.4766V30.122C83.9449 33.1735 85.2163 33.9999 89.2847 33.9999H102.189C105.813 33.9999 107.211 33.3006 107.338 30.9485H89.4754L88.9668 30.4399V20.9045L89.4754 20.5231ZM18.8495 23.9559H5.81772L5.43628 23.511V20.7139L5.81772 20.3961H23.4265L23.6808 19.8239C23.1086 18.2982 21.5194 17.5355 18.6587 17.5355H6.3898C2.32139 17.5355 1.04997 18.2983 1.04997 21.4131V23.2566C1.04997 26.3081 2.32139 27.1345 6.3898 27.1345H19.4216L19.803 27.5158V30.4399L19.4852 30.885H0.668534C0.668534 30.885 0.223633 31.1392 0.223633 31.2028C0.541443 33.3642 2.00357 33.9363 5.49983 33.9363H18.8496C22.918 33.9363 24.253 33.1735 24.253 30.0586V27.8336C24.2529 24.7823 22.918 23.9559 18.8495 23.9559ZM150.693 17.5354H143.319L142.937 18.2982L151.074 24.2738C152.6 23.3837 154.316 22.4938 156.096 21.6038L150.693 17.5354ZM157.304 28.7236L164.488 33.9363H171.862L172.179 33.2369L161.5 25.4179C160.101 26.4985 158.639 27.5793 157.304 28.7236Z" fill="#005288"/>
<path d="M149.613 33.9364H142.938L142.365 33.0463C146.879 28.6601 167.094 9.97066 211.021 8C211.021 8 174.214 9.27132 149.613 33.9364Z" fill="#A7A9AC"/>
</g>
<defs>
<clipPath id="clip0_201_8118">
<rect width="211" height="48" fill="white"/>
</clipPath>
</defs>
</svg>
