<svg width="108" height="48" viewBox="0 0 108 48" fill="none" xmlns="http://www.w3.org/2000/svg">
<path d="M11.4932 29.3774C11.4932 30.0902 11.3425 30.7525 11.041 31.3649C10.7395 31.9688 10.3123 32.4885 9.77609 32.908C9.23164 33.3357 8.58675 33.6627 7.84098 33.8974C7.09555 34.1321 6.27475 34.2496 5.38675 34.2496C4.32275 34.2496 3.36809 34.107 2.53075 33.8136C1.69315 33.5284 0.847199 33.042 0.000976562 32.3709L1.40009 30.098C2.07013 30.6599 2.67298 31.0704 3.21787 31.3309C3.75395 31.5909 4.30675 31.7167 4.87653 31.7167C5.57173 31.7167 6.12453 31.5405 6.55209 31.18C6.97929 30.8193 7.18027 30.3414 7.18027 29.7293C7.18027 29.4694 7.13838 29.2262 7.06302 28.9998C6.98763 28.7733 6.84524 28.5385 6.64426 28.2953C6.4432 28.0606 6.15849 27.7922 5.79831 27.5155C5.44649 27.2387 4.98587 26.8865 4.41609 26.4755C3.98889 26.1736 3.56178 25.855 3.1512 25.536C2.7408 25.2089 2.37227 24.8651 2.02853 24.496C1.69351 24.127 1.42551 23.7161 1.21609 23.2551C1.01502 22.8023 0.906221 22.2737 0.906221 21.6951C0.906221 21.0242 1.04862 20.4035 1.32498 19.8497C1.60133 19.296 1.98667 18.8266 2.47253 18.4328C2.95831 18.0387 3.53653 17.7368 4.22275 17.5191C4.90115 17.301 5.63787 17.192 6.44231 17.192C7.28827 17.192 8.10098 17.301 8.88764 17.5275C9.67493 17.7539 10.4041 18.0809 11.0823 18.5168L9.81742 20.5631C8.95475 19.9592 8.04142 19.6493 7.08675 19.6493C6.5088 19.6493 6.02275 19.8002 5.64586 20.1021C5.26898 20.404 5.07626 20.7814 5.07626 21.2425C5.07626 21.6786 5.24382 22.0728 5.57884 22.4168C5.91387 22.7689 6.49173 23.247 7.31307 23.8843C8.14231 24.4881 8.82951 25.0248 9.36551 25.4772C9.90995 25.93 10.3371 26.3661 10.6553 26.7688C10.9736 27.1713 11.183 27.5738 11.3086 27.9928C11.4342 28.4204 11.4929 28.8732 11.4929 29.3768L11.4932 29.3774ZM25.8577 25.5454C25.8577 26.1743 25.7907 26.8538 25.6567 27.5827C25.531 28.3123 25.3049 28.9836 24.9867 29.604C24.6684 30.2246 24.258 30.7365 23.7467 31.1303C23.2357 31.5328 22.5822 31.734 21.8036 31.734C20.4969 31.734 19.4667 31.2141 18.7129 30.166C17.959 29.126 17.5822 27.6922 17.5822 25.8727C17.5822 24.0024 17.9591 22.5269 18.7298 21.4282C19.492 20.3296 20.5307 19.7847 21.8373 19.7847C23.0773 19.7847 24.0569 20.3046 24.7769 21.3278C25.4972 22.3589 25.8578 23.7678 25.8578 25.5456L25.8577 25.5454ZM30.3972 25.386C30.3972 24.17 30.2213 23.0633 29.878 22.074C29.5261 21.0758 29.0404 20.2207 28.3953 19.4998C27.7504 18.7786 26.9962 18.2251 26.1171 17.8224C25.238 17.4198 24.2664 17.2187 23.2024 17.2187C22.03 17.2187 20.9997 17.4451 20.1117 17.8812C19.2239 18.3256 18.3944 19.0216 17.6406 19.9772L17.6156 17.6039H13.436V41.995H17.6076V31.6928C18.018 32.1707 18.4116 32.5732 18.7969 32.8999C19.1738 33.2269 19.5591 33.4952 19.9524 33.6965C20.346 33.8977 20.7564 34.0487 21.1916 34.1326C21.6271 34.2164 22.0964 34.2584 22.5907 34.2584C23.6964 34.2584 24.7347 34.0319 25.6893 33.5959C26.644 33.1514 27.4733 32.531 28.1684 31.7256C28.8636 30.9203 29.4084 29.9816 29.8022 28.9168C30.2043 27.843 30.3969 26.6608 30.3969 25.3861L30.3972 25.386ZM32.2568 33.8642H36.5448V9.99756H32.2568V33.8642ZM54.8346 33.8726V17.5881H50.5466V26.3508C50.5466 27.1307 50.5131 27.7348 50.446 28.1624C50.379 28.59 50.2701 28.9673 50.1194 29.3197C49.5163 30.661 48.402 31.341 46.786 31.341C45.5211 31.341 44.642 30.8882 44.1389 29.9739C43.938 29.6301 43.8039 29.236 43.7285 28.7997C43.6531 28.3637 43.6113 27.7348 43.6113 26.9046V17.589H39.3233V26.8424C39.3233 27.4712 39.3316 28.0077 39.3401 28.4352C39.3484 28.8629 39.382 29.257 39.4238 29.5926C39.4657 29.928 39.5159 30.2299 39.5746 30.4904C39.6248 30.7503 39.7086 31.0018 39.8175 31.2367C40.2111 32.2349 40.8397 32.9896 41.7188 33.5007C42.5983 34.0121 43.6788 34.2638 44.9517 34.2638C46.0993 34.2638 47.1126 34.0624 47.9837 33.66C48.8548 33.2575 49.7011 32.6031 50.5215 31.6893L50.5299 33.8697L54.8348 33.8781L54.8346 33.8726ZM73.3146 33.8642V24.6287C73.3146 23.9997 73.3062 23.4633 73.2978 23.0189C73.2894 22.5744 73.2644 22.1888 73.214 21.8616C73.1722 21.5344 73.1136 21.2494 73.0549 21.0062C72.9879 20.7546 72.9125 20.5114 72.8288 20.2766C72.4351 19.3041 71.8066 18.5495 70.9275 18.0206C70.0484 17.4917 68.9675 17.224 67.6857 17.224C66.5381 17.224 65.5248 17.4252 64.6537 17.8277C63.7826 18.2302 62.9364 18.8926 62.1159 19.7984L62.1076 17.6179H57.7938V33.8668H62.1156V25.0952C62.1156 24.3405 62.1407 23.745 62.1993 23.3255C62.2495 22.9062 62.3585 22.512 62.5092 22.1344C62.7856 21.4802 63.2212 20.9939 63.799 20.6588C64.3769 20.3237 65.0639 20.1557 65.8675 20.1557C67.1323 20.1557 68.0115 20.6085 68.5146 21.5228C68.7073 21.8666 68.8412 22.2608 68.9166 22.6881C68.992 23.1159 69.0339 23.753 69.0339 24.5752V33.8464L73.3139 33.8548L73.3146 33.8642ZM91.0568 32.7904L84.5243 24.6642L90.0435 18.7442L86.7937 17.3442L81.0479 24.0109H80.5956V10.002H76.2739V33.8687H80.5956V25.2233L87.0614 34.1922L91.0561 32.7913L91.0568 32.7904ZM107.759 26.954V24.2953L94.7635 17.7709V20.6971L104.835 25.6029L94.7635 30.5753V33.4349L107.759 26.9531V26.954ZM96.0257 13.5496C95.2301 13.5496 94.5848 14.2036 94.5848 15.0091C94.5848 15.8309 95.2301 16.4767 96.0257 16.4767C96.8301 16.4767 97.4666 15.831 97.4666 15.0091C97.4666 14.1957 96.8301 13.5496 96.0257 13.5496ZM96.0346 13.776C96.679 13.776 97.1981 14.3294 97.1981 15.0168C97.1981 15.7045 96.679 16.2577 96.0346 16.2497C95.3812 16.2497 94.8612 15.7047 94.8612 15.0088C94.8612 14.3296 95.3812 13.776 96.0346 13.776ZM95.7581 15.16H95.9332C96.143 15.16 96.2435 15.2354 96.2852 15.4451C96.319 15.6632 96.3608 15.8057 96.3946 15.856H96.671C96.6452 15.8057 96.6035 15.7051 96.5706 15.4536C96.5368 15.2104 96.4444 15.0846 96.2941 15.0594V15.0426C96.4701 14.9923 96.6124 14.8582 96.6124 14.6485C96.6124 14.4976 96.5617 14.3802 96.4612 14.313C96.3608 14.2376 96.2017 14.1873 95.959 14.1873C95.7661 14.1873 95.6319 14.204 95.4986 14.2292V15.8559H95.7581V15.1599V15.16ZM95.7581 14.4052C95.7999 14.3968 95.8586 14.3884 95.9421 14.3884C96.2355 14.3884 96.3359 14.531 96.3359 14.6736C96.3359 14.8748 96.151 14.9503 95.9421 14.9503H95.7581V14.4052V14.4052Z" fill="#0C1724"/>
</svg>
