<svg width="140" height="48" viewBox="0 0 140 48" fill="none" xmlns="http://www.w3.org/2000/svg">
<g clip-path="url(#clip0_201_8180)">
<path d="M21.0727 3.0791C9.4747 3.0791 0.0722656 12.4813 0.0722656 24.0792C0.0722656 35.6777 9.4747 45.0791 21.0727 45.0791C32.6719 45.0791 42.0733 35.6777 42.0733 24.0792C42.0733 12.482 32.6719 3.0801 21.0724 3.0801L21.0727 3.0791ZM30.7033 33.3673C30.3271 33.9842 29.5196 34.1798 28.9028 33.8011C23.9721 30.7894 17.765 30.1073 10.455 31.7774C9.75055 31.9379 9.04839 31.4966 8.8879 30.7919C8.72665 30.0872 9.16625 29.3851 9.87243 29.2246C17.872 27.3969 24.7339 28.1839 30.2695 31.5668C30.8864 31.9454 31.082 32.7504 30.7033 33.3673ZM33.2737 27.6492C32.7997 28.4196 31.7916 28.6628 31.0218 28.1889C25.3769 24.7192 16.7722 23.7144 10.0954 25.7411C9.22945 26.0026 8.31489 25.5146 8.05208 24.6502C7.79127 23.7843 8.27953 22.8715 9.14394 22.6082C16.7707 20.2941 26.2521 21.415 32.7345 25.3985C33.5044 25.8725 33.7477 26.8806 33.2737 27.6495V27.6492ZM33.4944 21.6949C26.726 17.6748 15.5592 17.3051 9.09704 19.2664C8.05935 19.5811 6.96197 18.9953 6.6475 17.9576C6.33303 16.9194 6.91834 15.8228 7.95678 15.5073C15.3749 13.2554 27.7066 13.6905 35.4991 18.3165C36.4344 18.8704 36.7404 20.0759 36.1862 21.008C35.6345 21.9414 34.4257 22.2491 33.4954 21.6949H33.4944ZM57.2074 22.4653C53.5812 21.6006 52.9367 20.9937 52.9367 19.7186C52.9367 18.5139 54.0702 17.7031 55.7579 17.7031C57.3929 17.7031 59.0129 18.3187 60.7132 19.5861C60.7633 19.6245 60.8285 19.6398 60.8912 19.6298C60.9564 19.6203 61.0116 19.5854 61.0492 19.533L62.8196 17.0373C62.8924 16.9345 62.8723 16.7928 62.7745 16.7143C60.7508 15.0911 58.4738 14.3019 55.8106 14.3019C51.896 14.3019 49.1601 16.6514 49.1601 20.013C49.1601 23.6178 51.5199 24.8942 55.5974 25.8795C59.0656 26.6787 59.6524 27.3483 59.6524 28.545C59.6524 29.8716 58.4687 30.6966 56.5629 30.6966C54.4464 30.6966 52.7185 29.9819 50.7876 28.3118C50.74 28.2691 50.6748 28.2516 50.6146 28.2541C50.5494 28.2591 50.4917 28.2892 50.4516 28.3368L48.4655 30.6991C48.3827 30.7994 48.3927 30.9449 48.488 31.0301C50.7349 33.0363 53.4984 34.0945 56.4826 34.0945C60.7006 34.0945 63.4265 31.79 63.4265 28.2215C63.434 25.2105 61.631 23.5428 57.2149 22.4685L57.2074 22.4653ZM72.9709 18.8893C71.1428 18.8893 69.6431 19.6095 68.4043 21.0853V19.4242C68.4043 19.293 68.299 19.1862 68.1686 19.1862H64.9211C64.7907 19.1862 64.6854 19.293 64.6854 19.4242V37.8812C64.6854 38.0116 64.7907 38.1194 64.9211 38.1194H68.1686C68.299 38.1194 68.4043 38.0116 68.4043 37.8812V32.0558C69.6431 33.4425 71.1428 34.1221 72.9709 34.1221C76.3688 34.1221 79.8094 31.5066 79.8094 26.5064C79.8144 21.5053 76.3739 18.889 72.9734 18.889L72.9709 18.8893ZM76.0328 26.5064C76.0328 29.0515 74.4655 30.8295 72.2186 30.8295C69.9992 30.8295 68.3241 28.9713 68.3241 26.5064C68.3241 24.0414 69.9992 22.1836 72.2186 22.1836C74.4279 22.1834 76.0328 24.001 76.0328 26.5062V26.5064ZM88.6241 18.8893C84.2481 18.8893 80.82 22.2586 80.82 26.5609C80.82 30.817 84.2255 34.1497 88.5714 34.1497C92.9624 34.1497 96.4005 30.7919 96.4005 26.5064C96.4005 22.2356 92.985 18.8898 88.6241 18.8898V18.8893ZM88.6241 30.8546C86.2969 30.8546 84.5415 28.9838 84.5415 26.5052C84.5415 24.0153 86.2367 22.2085 88.5714 22.2085C90.9136 22.2085 92.679 24.0785 92.679 26.5596C92.679 29.049 90.9738 30.8546 88.6241 30.8546ZM105.744 19.1862H102.171V15.5334C102.171 15.4025 102.065 15.2957 101.935 15.2957H98.6875C98.5571 15.2957 98.4493 15.4025 98.4493 15.5334V19.1862H96.8895C96.7591 19.1862 96.6538 19.293 96.6538 19.4242V22.2145C96.6538 22.3454 96.7591 22.4525 96.8895 22.4525H98.4493V29.6734C98.4493 32.5899 99.9013 34.0695 102.768 34.0695C103.931 34.0695 104.897 33.8287 105.807 33.3121C105.882 33.272 105.927 33.1918 105.927 33.1065V30.4483C105.927 30.3681 105.885 30.2903 105.814 30.2477C105.744 30.2026 105.656 30.2001 105.584 30.2377C104.959 30.5511 104.355 30.6966 103.678 30.6966C102.637 30.6966 102.171 30.2226 102.171 29.1644V22.4537H105.744C105.875 22.4537 105.98 22.3469 105.98 22.2157V19.4257C105.985 19.2945 105.88 19.1877 105.747 19.1877L105.744 19.1862ZM118.193 19.2005V18.7518C118.193 17.432 118.699 16.8435 119.833 16.8435C120.51 16.8435 121.054 16.9779 121.663 17.181C121.738 17.2046 121.816 17.1928 121.876 17.1479C121.939 17.103 121.974 17.031 121.974 16.9548V14.2189C121.974 14.1143 121.909 14.0218 121.806 13.9909C121.164 13.7996 120.342 13.6032 119.108 13.6032C116.111 13.6032 114.524 15.2919 114.524 18.485V19.1721H112.964C112.834 19.1721 112.726 19.279 112.726 19.4099V22.2145C112.726 22.3454 112.834 22.4525 112.964 22.4525H114.524V33.588C114.524 33.7209 114.632 33.8262 114.762 33.8262H118.007C118.14 33.8262 118.245 33.7209 118.245 33.588V22.4532H121.277L125.921 33.588C125.395 34.7566 124.876 34.9898 124.168 34.9898C123.597 34.9898 122.992 34.8193 122.378 34.4807C122.32 34.4506 122.25 34.4456 122.19 34.4632C122.127 34.4858 122.075 34.5309 122.049 34.5911L120.949 37.006C120.896 37.1214 120.941 37.2543 121.051 37.3145C122.2 37.9364 123.236 38.2022 124.517 38.2022C126.914 38.2022 128.241 37.0837 129.407 34.0795L135.039 19.5255C135.07 19.4522 135.059 19.3695 135.014 19.3045C134.972 19.2401 134.899 19.2012 134.821 19.2012H131.441C131.338 19.2012 131.248 19.2657 131.215 19.3607L127.752 29.2496L123.96 19.3542C123.925 19.2622 123.837 19.2012 123.74 19.2012H118.193V19.2005ZM110.975 19.1862H107.728C107.597 19.1862 107.49 19.293 107.49 19.4242V33.588C107.49 33.7209 107.597 33.8262 107.728 33.8262H110.975C111.106 33.8262 111.214 33.7209 111.214 33.588V19.4252C111.214 19.294 111.108 19.1872 110.975 19.1872V19.1862ZM109.37 12.7366C108.084 12.7366 107.041 13.7778 107.041 15.064C107.041 16.3509 108.084 17.3934 109.37 17.3934C110.657 17.3934 111.698 16.3509 111.698 15.064C111.698 13.778 110.654 12.7366 109.37 12.7366ZM137.813 23.7404C136.529 23.7404 135.528 22.7085 135.528 21.4554C135.528 20.2023 136.542 19.1586 137.826 19.1586C139.109 19.1586 140.11 20.1903 140.11 21.4424C140.11 22.6955 139.097 23.7404 137.813 23.7404ZM137.826 19.3858C136.654 19.3858 135.769 20.3161 135.769 21.4554C135.769 22.5942 136.649 23.512 137.813 23.512C138.984 23.512 139.869 22.5824 139.869 21.4424C139.869 20.3036 138.989 19.3858 137.826 19.3858ZM138.332 21.6773L138.979 22.5821H138.432L137.851 21.7521H137.352V22.5821H136.895V20.1837H137.963C138.523 20.1837 138.889 20.4689 138.889 20.9488C138.891 21.3421 138.663 21.5823 138.335 21.6773H138.332ZM137.946 20.5953H137.352V21.3538H137.946C138.242 21.3538 138.42 21.2086 138.42 20.9742C138.42 20.7274 138.242 20.5953 137.946 20.5953Z" fill="#1ED760"/>
</g>
<defs>
<clipPath id="clip0_201_8180">
<rect width="140" height="48" fill="white"/>
</clipPath>
</defs>
</svg>
