<svg width="220" height="48" viewBox="0 0 220 48" fill="none" xmlns="http://www.w3.org/2000/svg">
<path fill-rule="evenodd" clip-rule="evenodd" d="M8.14007 26.4336L20.4327 13.9905C21.2679 13.1451 22.3791 12.6802 23.5636 12.6802C24.7473 12.6802 25.8585 13.1446 26.6928 13.99L27.6506 14.9595L29.5665 13.0201L28.6087 12.0507C27.2633 10.6888 25.4717 9.93872 23.5628 9.93872C21.6547 9.93916 19.8627 10.6892 18.5172 12.0516L6.22461 24.4943L8.14007 26.4336Z" fill="black"/>
<path fill-rule="evenodd" clip-rule="evenodd" d="M24.5867 18.1236L22.6618 16.1871L10.3114 28.6118C8.5771 30.3566 5.75516 30.357 4.02125 28.6127C2.2869 26.868 2.2869 24.0287 4.02125 22.284L14.6784 11.5635L12.7535 9.62744L2.09673 20.348C-0.69891 23.1603 -0.69891 27.7368 2.09673 30.5488C3.44854 31.9087 5.24862 32.6581 7.16569 32.6581C9.0832 32.6581 10.8842 31.9082 12.236 30.5483L24.5867 18.1236Z" fill="black"/>
<path fill-rule="evenodd" clip-rule="evenodd" d="M36.806 20.4506C35.4546 19.0907 33.6546 18.3417 31.7366 18.3417C29.8191 18.3422 28.0181 19.0911 26.6663 20.4515L14.3163 32.876L16.2404 34.8125L28.5913 22.3876C30.3261 20.6428 33.1476 20.6432 34.8815 22.3871C35.7202 23.2309 36.182 24.3541 36.182 25.5509C36.182 26.7481 35.7202 27.8718 34.8815 28.7155L24.2247 39.4363L26.1497 41.3723L36.806 30.652C39.6021 27.8396 39.6021 23.263 36.806 20.4506Z" fill="black"/>
<path fill-rule="evenodd" clip-rule="evenodd" d="M30.7633 24.5662L18.4709 37.0093C16.7444 38.7562 13.9362 38.7571 12.2105 37.0097L11.2528 36.0403L9.33691 37.9796L10.2946 38.9491C11.64 40.311 13.4316 41.0611 15.3409 41.0611C17.2489 41.0606 19.0405 40.3106 20.3864 38.9482L32.6788 26.5055L30.7633 24.5662Z" fill="black"/>
<path fill-rule="evenodd" clip-rule="evenodd" d="M50.2548 28.7399C50.4134 29.5338 50.785 30.1554 51.3687 30.6033C51.952 31.052 52.7196 31.276 53.6714 31.276C54.6079 31.276 55.3319 31.0556 55.8438 30.6144C56.3556 30.1736 56.6113 29.5929 56.6113 28.8723C56.6113 28.5195 56.5429 28.2218 56.4062 27.9792C56.2689 27.7366 56.0781 27.5309 55.8333 27.3616C55.5876 27.1932 55.2853 27.0493 54.9251 26.932C54.5648 26.8142 54.161 26.6894 53.7141 26.557L52.547 26.2264C51.8549 26.0354 51.235 25.8039 50.6874 25.5315C50.1394 25.2596 49.6711 24.9397 49.2821 24.5723C48.8931 24.2048 48.5973 23.7823 48.3956 23.3042C48.1939 22.8266 48.0929 22.2712 48.0929 21.6394C48.0929 20.9778 48.2227 20.3678 48.4823 19.8089C48.7415 19.2508 49.1092 18.7723 49.5849 18.3755C50.0606 17.9788 50.6369 17.6664 51.3147 17.438C51.9916 17.211 52.7553 17.0968 53.606 17.0968C55.206 17.0968 56.4741 17.4825 57.4116 18.2542C58.3481 19.0264 58.8957 20.059 59.0547 21.3528L56.4602 21.5732C56.3012 20.9116 55.9845 20.3971 55.5088 20.0297C55.0331 19.6622 54.3701 19.4783 53.5198 19.4783C52.727 19.4783 52.1071 19.6658 51.6606 20.0408C51.2132 20.4158 50.9897 20.8974 50.9897 21.4852C50.9897 21.8233 51.0551 22.1059 51.1849 22.3338C51.3147 22.5622 51.5016 22.7604 51.7468 22.9292C51.9916 23.0985 52.2909 23.2491 52.6438 23.3811C52.997 23.5135 53.3969 23.6539 53.8439 23.8005L54.9469 24.1533C55.6382 24.3737 56.262 24.6051 56.8165 24.8477C57.3715 25.0903 57.8437 25.3809 58.2327 25.719C58.6221 26.0571 58.9214 26.4615 59.1301 26.932C59.3392 27.4025 59.4437 27.9832 59.4437 28.6741C59.4437 29.4094 59.2995 30.0821 59.0116 30.6917C58.7228 31.3022 58.3198 31.8202 57.8006 32.2463C57.2818 32.6729 56.6658 33.0039 55.9518 33.2385C55.2383 33.4735 54.4494 33.5917 53.5847 33.5917C51.9847 33.5917 50.6512 33.2096 49.5849 32.4449C48.518 31.6803 47.8624 30.5264 47.6172 28.9825L50.2548 28.7399Z" fill="black"/>
<path fill-rule="evenodd" clip-rule="evenodd" d="M70.6045 19.7786C69.8268 19.7786 69.1313 19.925 68.5191 20.2169C67.9064 20.5092 67.3877 20.9143 66.9632 21.4326C66.5377 21.9514 66.2133 22.5653 65.9899 23.2729C65.7669 23.9818 65.6554 24.7522 65.6554 25.5846C65.6554 26.4174 65.7704 27.1913 66.0012 27.9073C66.2311 28.6229 66.5595 29.2434 66.9845 29.7697C67.4091 30.2951 67.9281 30.7077 68.5408 31.0076C69.1526 31.3065 69.8481 31.456 70.6263 31.456C71.4044 31.456 72.0994 31.3141 72.7121 31.0292C73.3239 30.7444 73.843 30.3464 74.268 29.8347C74.693 29.3239 75.0209 28.7065 75.2513 27.9838C75.4817 27.2607 75.5971 26.4682 75.5971 25.6067C75.5971 24.7593 75.4817 23.9778 75.2513 23.2623C75.0209 22.5471 74.693 21.9333 74.268 21.422C73.843 20.9112 73.3205 20.5092 72.7008 20.2169C72.0816 19.925 71.3827 19.7786 70.6045 19.7786ZM70.6263 17.4081C71.7933 17.4081 72.8597 17.6093 73.8252 18.0118C74.7901 18.4142 75.6114 18.9772 76.289 19.7016C76.9657 20.4265 77.4913 21.2933 77.8667 22.303C78.2412 23.3127 78.4284 24.4175 78.4284 25.6173C78.4284 26.8618 78.2303 27.9847 77.8345 28.9869C77.4373 29.9895 76.8725 30.8563 76.1375 31.5878L78.2124 34.0684V34.8367H75.5757L74.1274 33.0371C73.6231 33.2711 73.0823 33.4537 72.5066 33.5855C71.93 33.7173 71.3104 33.7832 70.648 33.7832C69.4518 33.7832 68.3749 33.5815 67.4169 33.1795C66.4584 32.777 65.6441 32.2136 64.9744 31.4892C64.3042 30.7648 63.7856 29.9019 63.4185 28.8989C63.051 27.8967 62.8672 26.803 62.8672 25.6173C62.8672 24.4175 63.051 23.3167 63.4185 22.3136C63.7856 21.3119 64.3077 20.4482 64.9853 19.7238C65.662 18.9993 66.4798 18.4324 67.4382 18.0224C68.3967 17.6133 69.4592 17.4081 70.6263 17.4081Z" fill="black"/>
<path fill-rule="evenodd" clip-rule="evenodd" d="M89.0101 31.3207C90.1158 31.3207 90.9772 30.972 91.5947 30.2736C92.2118 29.5753 92.5208 28.506 92.5208 27.0652V17.4081H95.2346V27.1314C95.2346 28.278 95.091 29.259 94.8037 30.0751C94.516 30.8907 94.1073 31.5597 93.5761 32.0817C93.045 32.6037 92.3914 32.9858 91.6164 33.2284C90.841 33.4709 89.9722 33.5918 89.0101 33.5918C88.0333 33.5918 87.1611 33.4709 86.3935 33.2284C85.6249 32.9858 84.9753 32.6037 84.4442 32.0817C83.913 31.5597 83.5038 30.8907 83.2161 30.0751C82.9288 29.259 82.7856 28.278 82.7856 27.1314V17.4081H85.4995V27.0652C85.4995 28.506 85.8081 29.5753 86.4256 30.2736C87.0431 30.972 87.9045 31.3207 89.0101 31.3207Z" fill="black"/>
<path fill-rule="evenodd" clip-rule="evenodd" d="M103.01 26.4968H108.203L107.348 24.0261C107.012 23.0584 106.742 22.2707 106.537 21.6641C106.333 21.0572 106.15 20.5227 105.99 20.0602H105.311C105.223 20.3056 105.135 20.5515 105.047 20.7969C104.96 21.0427 104.861 21.3174 104.752 21.6205C104.642 21.9239 104.522 22.2707 104.39 22.661C104.259 23.0506 104.098 23.506 103.908 24.0261L103.01 26.4968ZM98.0356 32.522L103.623 17.7192H107.765L113.286 32.522V33.2805H110.569L108.991 28.8373H102.177L100.6 33.2805H98.0356V32.522Z" fill="black"/>
<path fill-rule="evenodd" clip-rule="evenodd" d="M119.4 24.828H121.766C122.807 24.828 123.628 24.6381 124.228 24.259C124.829 23.8795 125.13 23.2603 125.13 22.4005C125.13 21.5271 124.825 20.9188 124.218 20.5752C123.61 20.2319 122.793 20.0599 121.766 20.0599H119.4V24.828ZM128.536 33.2805H125.91L121.158 27.1686H119.4V33.2805H116.709V17.7192H121.766C122.561 17.7192 123.317 17.7734 124.033 17.8817C124.749 17.99 125.397 18.2393 125.976 18.6293C127.205 19.438 127.82 20.659 127.82 22.2909C127.82 22.9992 127.715 23.6167 127.505 24.1442C127.295 24.6712 127.017 25.1188 126.67 25.4874C126.322 25.856 125.921 26.1555 125.466 26.3861C125.01 26.6175 124.536 26.7909 124.044 26.9062L128.536 32.5215V33.2805Z" fill="black"/>
<path fill-rule="evenodd" clip-rule="evenodd" d="M131.959 17.7192H142.077V20.103H134.635V24.1776H141.555V26.5182H134.635V30.8962H142.229V33.2805H131.959V17.7192Z" fill="black"/>
<path fill-rule="evenodd" clip-rule="evenodd" d="M148.291 28.7399C148.449 29.5338 148.821 30.1554 149.405 30.6033C149.988 31.052 150.756 31.276 151.707 31.276C152.644 31.276 153.368 31.0556 153.88 30.6144C154.391 30.1736 154.648 29.5929 154.648 28.8723C154.648 28.5195 154.579 28.2218 154.442 27.9792C154.305 27.7366 154.114 27.5309 153.869 27.3616C153.624 27.1932 153.321 27.0493 152.961 26.932C152.601 26.8142 152.197 26.6894 151.75 26.557L150.583 26.2264C149.891 26.0354 149.271 25.8039 148.723 25.5315C148.175 25.2596 147.707 24.9397 147.319 24.5723C146.929 24.2048 146.633 23.7823 146.432 23.3042C146.23 22.8266 146.129 22.2712 146.129 21.6394C146.129 20.9778 146.259 20.3678 146.518 19.8089C146.778 19.2508 147.145 18.7723 147.621 18.3755C148.097 17.9788 148.673 17.6664 149.351 17.438C150.028 17.211 150.792 17.0968 151.642 17.0968C153.242 17.0968 154.51 17.4825 155.447 18.2542C156.384 19.0264 156.932 20.059 157.09 21.3528L154.496 21.5732C154.337 20.9116 154.02 20.3971 153.545 20.0297C153.069 19.6622 152.406 19.4783 151.556 19.4783C150.763 19.4783 150.143 19.6658 149.697 20.0408C149.25 20.4158 149.026 20.8974 149.026 21.4852C149.026 21.8233 149.091 22.1059 149.221 22.3338C149.351 22.5622 149.538 22.7604 149.783 22.9292C150.028 23.0985 150.327 23.2491 150.68 23.3811C151.033 23.5135 151.433 23.6539 151.88 23.8005L152.983 24.1533C153.674 24.3737 154.298 24.6051 154.853 24.8477C155.407 25.0903 155.88 25.3809 156.268 25.719C156.658 26.0571 156.957 26.4615 157.166 26.932C157.375 27.4025 157.48 27.9832 157.48 28.6741C157.48 29.4094 157.336 30.0821 157.047 30.6917C156.759 31.3022 156.356 31.8202 155.836 32.2463C155.318 32.6729 154.702 33.0039 153.988 33.2385C153.274 33.4735 152.485 33.5917 151.621 33.5917C150.021 33.5917 148.687 33.2096 147.621 32.4449C146.554 31.6803 145.899 30.5264 145.653 28.9825L148.291 28.7399Z" fill="black"/>
<path fill-rule="evenodd" clip-rule="evenodd" d="M164.283 24.9579H166.93C167.416 24.9579 167.86 24.9186 168.265 24.8396C168.669 24.761 169.022 24.6287 169.324 24.4422C169.625 24.2562 169.861 24.0056 170.03 23.6903C170.199 23.3754 170.283 22.9886 170.283 22.53C170.283 22.0576 170.199 21.6606 170.03 21.3384C169.861 21.0161 169.629 20.762 169.335 20.5755C169.04 20.389 168.691 20.2567 168.287 20.1781C167.882 20.0995 167.445 20.0598 166.975 20.0598H164.283V24.9579ZM161.525 17.7192H167.305C168.379 17.7192 169.28 17.8419 170.008 18.0878C170.736 18.3332 171.324 18.6725 171.773 19.1065C172.221 19.5397 172.545 20.0489 172.743 20.6345C172.941 21.2192 173.041 21.8515 173.041 22.5305C173.041 23.3401 172.905 24.044 172.633 24.6435C172.361 25.2431 171.967 25.7378 171.453 26.1282C170.937 26.5182 170.313 26.8107 169.577 27.0059C168.842 27.2011 168.011 27.2985 167.085 27.2985H164.283V33.2805H161.525V17.7192Z" fill="black"/>
<path fill-rule="evenodd" clip-rule="evenodd" d="M178.638 26.4968H183.831L182.976 24.0261C182.639 23.0584 182.369 22.2707 182.165 21.6641C181.96 21.0572 181.778 20.5227 181.617 20.0602H180.938C180.851 20.3056 180.763 20.5515 180.675 20.7969C180.588 21.0427 180.489 21.3174 180.379 21.6205C180.27 21.9239 180.15 22.2707 180.018 22.661C179.886 23.0506 179.726 23.506 179.536 24.0261L178.638 26.4968ZM173.664 32.522L179.251 17.7192H183.392L188.914 32.522V33.2805H186.197L184.619 28.8373H177.805L176.227 33.2805H173.664V32.522Z" fill="black"/>
<path fill-rule="evenodd" clip-rule="evenodd" d="M205.408 29.1662C205.161 29.7737 204.837 30.3455 204.437 30.8818C204.036 31.4181 203.552 31.8879 202.985 32.2892C202.417 32.6904 201.759 33.0078 201.009 33.2412C200.259 33.4746 199.426 33.5917 198.509 33.5917C197.345 33.5917 196.286 33.3889 195.333 32.9837C194.379 32.5794 193.566 32.0186 192.892 31.3031C192.218 30.5867 191.697 29.734 191.331 28.7431C190.964 27.7526 190.781 26.6787 190.781 25.5213C190.781 24.3648 190.964 23.2908 191.331 22.3C191.697 21.3095 192.221 20.4524 192.902 19.729C193.584 19.0065 194.401 18.4383 195.355 18.0265C196.308 17.6139 197.374 17.4081 198.553 17.4081C200.27 17.4081 201.708 17.8062 202.865 18.6013C204.022 19.3964 204.841 20.4524 205.321 21.7685L202.549 22.3104C202.17 21.5154 201.642 20.8895 200.965 20.434C200.288 19.9786 199.47 19.7508 198.509 19.7508C197.738 19.7508 197.05 19.8986 196.446 20.1941C195.842 20.4895 195.333 20.8965 194.918 21.4153C194.503 21.9337 194.186 22.546 193.968 23.2524C193.75 23.9583 193.641 24.7144 193.641 25.5213C193.641 26.3426 193.753 27.1027 193.979 27.8016C194.204 28.5009 194.532 29.1054 194.961 29.6173C195.391 30.1287 195.911 30.5282 196.523 30.8162C197.134 31.1047 197.833 31.2489 198.618 31.2489C199.637 31.2489 200.478 31.0028 201.14 30.5111C201.803 30.0194 202.315 29.4193 202.679 28.7103L205.408 29.1662Z" fill="black"/>
<path fill-rule="evenodd" clip-rule="evenodd" d="M208.969 17.5314H219.144V19.9383H211.66V24.0523H218.619V26.4155H211.66V30.836H219.298V33.2433H208.969V17.5314Z" fill="black"/>
</svg>
