<svg width="132" height="48" viewBox="0 0 132 48" fill="none" xmlns="http://www.w3.org/2000/svg">
<path d="M27.7053 7H5.75829C2.7158 7 0.25 9.4658 0.25 12.5083V34.4553C0.25 37.4977 2.7158 39.9635 5.75829 39.9635H27.7053C30.7477 39.9635 33.2135 37.4977 33.2135 34.4553V12.5083C33.2135 9.4658 30.7477 7 27.7053 7ZM27.2214 32.2314C27.2214 33.1925 26.4425 33.9714 25.4814 33.9714H7.98215C7.02102 33.9714 6.24217 33.1925 6.24217 32.2314V14.7321C6.24217 13.771 7.02102 12.9922 7.98215 12.9922H25.4814C26.4425 12.9922 27.2214 13.771 27.2214 14.7321V32.2314ZM13.2352 27.956C12.6818 27.956 12.2376 27.5086 12.2376 26.9551V19.9687C12.2376 19.4152 12.6818 18.9644 13.2352 18.9644H20.2316C20.7818 18.9644 21.2292 19.4119 21.2292 19.9687V26.9518C21.2292 27.5053 20.7818 27.9527 20.2316 27.9527H13.2352V27.956ZM41.9532 27.4788H45.5525C45.7315 29.517 47.1135 31.1079 49.9008 31.1079C52.3898 31.1079 53.921 29.8783 53.921 28.019C53.921 26.279 52.7212 25.5001 50.5603 24.9898L47.7697 24.3899C44.7405 23.7303 42.4603 21.7816 42.4603 18.5999C42.4603 15.0901 45.579 12.6906 49.629 12.6906C53.9177 12.6906 56.6784 14.9409 56.9171 18.2685H53.4371C53.0228 16.7108 51.7303 15.7828 49.6323 15.7828C47.4118 15.7828 45.8839 16.9825 45.8839 18.5137C45.8839 20.0449 47.203 20.9729 49.4832 21.4833L52.244 22.0832C55.2732 22.7427 57.3413 24.5722 57.3413 27.7804C57.3413 31.8602 54.2822 34.2895 49.9041 34.2895C44.9824 34.2862 42.2548 31.6183 41.9532 27.4788ZM70.2172 39.9635V33.9946L70.4525 31.3763H70.2172C69.3919 33.2588 67.6586 34.2895 65.3054 34.2895C61.5106 34.2895 58.6869 31.2007 58.6869 26.4646C58.6869 21.7285 61.5106 18.6397 65.3054 18.6397C67.6287 18.6397 69.2759 19.7267 70.2172 21.4336H70.4525V18.9313H73.5712V39.9635H70.2172ZM70.3332 26.4613C70.3332 23.4321 68.4805 21.6656 66.2135 21.6656C63.9466 21.6656 62.0939 23.4321 62.0939 26.4613C62.0939 29.4905 63.9466 31.257 66.2135 31.257C68.4805 31.257 70.3332 29.4938 70.3332 26.4613ZM76.0602 28.0223V18.9313H79.4142V27.7273C79.4142 30.1103 80.5609 31.257 82.4733 31.257C84.8264 31.257 86.3576 29.58 86.3576 26.9617V18.9313H89.7116V33.9913H86.5929V30.8726H86.3576C85.6218 32.8744 84.0044 34.2862 81.5055 34.2862C77.9128 34.2862 76.0602 31.9928 76.0602 28.0223ZM91.7532 29.7855C91.7532 26.9617 93.7252 25.3146 97.225 25.1091L101.371 24.8439V23.6674C101.371 22.2555 100.34 21.4037 98.5176 21.4037C96.8405 21.4037 95.8396 22.2555 95.5745 23.4619H92.2205C92.5751 20.4028 95.1039 18.6363 98.5142 18.6363C102.369 18.6363 104.722 20.2835 104.722 23.4619V33.9913H101.603V31.1973H101.368C100.662 33.05 99.1904 34.2862 96.3666 34.2862C93.6655 34.2862 91.7532 32.4634 91.7532 29.7855ZM101.374 27.9328V27.1374L97.9906 27.3727C96.1678 27.4887 95.3425 28.1681 95.3425 29.5203C95.3425 30.6671 96.2838 31.4923 97.6061 31.4923C99.9924 31.4923 101.374 29.9644 101.374 27.9328ZM107.224 33.9946V18.9313H110.343V21.8147H110.578C111.019 19.8427 112.52 18.9313 114.754 18.9313H116.285V21.9605H114.373C112.195 21.9605 110.578 23.3724 110.578 26.0503V33.9913H107.224V33.9946ZM131.63 27.081H120.186C120.362 29.8451 122.304 31.4061 124.452 31.4061C126.274 31.4061 127.421 30.6704 128.071 29.4342H131.395C130.484 32.4932 127.806 34.2862 124.422 34.2862C119.981 34.2862 116.862 30.962 116.862 26.4613C116.862 21.9605 120.067 18.6363 124.452 18.6363C128.863 18.6363 131.746 21.6656 131.746 25.4305C131.75 26.1696 131.69 26.5508 131.63 27.081ZM128.425 24.7578C128.309 22.6698 126.573 21.2579 124.455 21.2579C122.453 21.2579 120.779 22.524 120.365 24.7578H128.425Z" fill="#1A1A1A"/>
</svg>
