<svg width="153" height="48" viewBox="0 0 153 48" fill="none" xmlns="http://www.w3.org/2000/svg">
<g clip-path="url(#clip0_201_8129)">
<path d="M131.031 22.9363V34.9883H134.883V26.9537H148.972V34.9883H152.824V22.9363H131.031ZM134.443 19.0291H149.302C151.393 18.6438 152.879 16.7727 153.319 15.0117H130.426C130.866 16.7727 132.407 18.5888 134.443 19.0291ZM119.309 34.9883C121.235 34.1629 122.281 32.732 122.721 31.0811H105.386V15.0668H101.479V34.9883H119.309ZM72.5872 18.974H86.3452C88.4364 18.3687 90.1424 16.7727 90.5827 15.0668H68.79V26.8436H86.6204V30.971H72.6423C70.441 31.5764 68.5699 33.0622 67.6343 34.9883H90.4726V22.9363H72.6423L72.5872 18.974ZM38.6875 19.0291H53.5462C55.6374 18.6438 57.1783 16.7727 57.5635 15.0117H34.6151C35.0554 16.7727 36.5963 18.5888 38.6875 19.0291ZM38.6875 26.8986H53.5462C55.6374 26.5134 57.1783 24.6423 57.5635 22.8813H34.6151C35.0554 24.6423 36.5963 26.4584 38.6875 26.8986ZM38.6875 34.9883H53.5462C55.6374 34.6031 57.1783 32.732 57.5635 30.971H34.6151C35.0554 32.732 36.5963 34.6031 38.6875 34.9883Z" fill="#5E5E5E"/>
<path d="M0 15.0668C0.440256 16.8278 1.98115 18.5888 4.01734 19.0291H10.291L10.6212 19.1391V34.9333H14.5285V19.1391L14.8586 19.0291H21.1323C23.2235 18.4787 24.7094 16.8278 25.1496 15.0668V15.0117L0 15.0668Z" fill="#5E5E5E"/>
</g>
<defs>
<clipPath id="clip0_201_8129">
<rect width="153" height="48" fill="white"/>
</clipPath>
</defs>
</svg>
