<svg width="106" height="48" viewBox="0 0 106 48" fill="none" xmlns="http://www.w3.org/2000/svg">
<path d="M6.34726 20.1083C11.1172 18.4642 11.9291 14.1814 11.3201 10.2437C11.3201 10.1017 11.4419 10.0002 11.5637 10.0408C16.1306 12.2735 21.2659 17.1448 21.2659 24.4519C21.2659 30.054 16.9222 35.0066 10.6097 35.0066C8.35724 35.109 6.13479 34.4584 4.29315 33.1574C2.45151 31.8564 1.09556 29.9792 0.439325 27.822C-0.216911 25.6648 -0.136064 23.3505 0.669105 21.2443C1.47427 19.1382 2.95791 17.3602 4.88585 16.1909C5.00763 16.1097 5.17001 16.1909 5.17001 16.333C5.2309 17.084 5.43388 18.9716 6.26607 20.1083H6.34726Z" fill="url(#paint0_radial_201_8131)"/>
<path d="M34.7032 30.5614L35.0483 30.1554L36.124 33.5654L35.9819 33.7075C35.17 34.4585 33.9522 34.8441 32.3893 34.8441H32.3284C30.9076 34.8441 29.7912 34.4382 29.0199 33.6872C28.2486 32.9159 27.8427 31.7589 27.8427 30.2975V21.0013H25.1025V17.2463H27.8427V12.7199H32.0645V17.2463H35.4136V21.0013H32.0443V29.3841C32.0443 29.7698 32.1457 31.0079 33.323 31.0079C33.9319 31.0079 34.5002 30.7846 34.7032 30.5411V30.5614ZM36.9359 34.4585V17.2666H41.1578V34.4585H36.9359ZM39.0266 10.2437C39.5275 10.2437 40.0172 10.392 40.434 10.6699C40.8508 10.9478 41.176 11.3428 41.3686 11.8053C41.5612 12.2677 41.6126 12.7768 41.5164 13.2684C41.4201 13.76 41.1805 14.2121 40.8277 14.5677C40.4749 14.9233 40.0247 15.1666 39.5339 15.2668C39.043 15.3669 38.5335 15.3196 38.0696 15.1307C37.6057 14.9417 37.208 14.6197 36.9268 14.2051C36.6456 13.7906 36.4934 13.302 36.4894 12.8011C36.4894 11.4209 37.6463 10.2437 39.0266 10.2437ZM52.504 16.8403C56.1576 16.8403 58.167 18.8295 58.167 22.4627V34.4382H53.9451V23.4776C53.864 21.529 52.9303 20.6359 50.9411 20.6359C49.155 20.6359 47.7138 21.732 46.9831 22.6657V34.4382H42.7613V17.2869H46.9831V19.1136C48.201 17.9364 50.1495 16.8809 52.504 16.8809V16.8403ZM72.2128 19.0527V10.9744H76.4347V34.4788H72.2128V32.6926C71.5668 33.374 70.7896 33.9176 69.928 34.2909C69.0665 34.6641 68.1383 34.8592 67.1993 34.8644C62.5918 34.8644 59.5066 31.2515 59.5066 25.8727C59.5066 20.4735 62.5918 16.8606 67.1993 16.8606C68.1403 16.8649 69.0705 17.0616 69.9326 17.4386C70.7948 17.8155 71.5707 18.3648 72.2128 19.0527ZM72.2128 22.686C71.7423 22.0732 71.1411 21.573 70.4529 21.2219C69.7647 20.8707 69.0068 20.6775 68.2345 20.6562C65.6161 20.6562 63.8706 22.7469 63.8706 25.8727C63.8706 28.9782 65.6161 31.0688 68.2345 31.0688C69.7568 31.0688 71.4212 30.2569 72.2128 29.0797V22.686ZM86.2992 16.8606C91.2924 16.8606 94.7632 20.7171 94.7632 26.1974V27.3544H81.9962C82.4224 29.7698 84.3304 31.3124 86.9284 31.3124C88.5725 31.3124 90.379 30.602 91.4141 29.5668L91.6983 29.3232L93.7078 32.2055L93.5048 32.3881C91.6029 34.0745 89.1234 34.9616 86.5834 34.8644C81.306 34.8644 77.5916 31.15 77.5916 25.8524C77.5506 24.6827 77.7463 23.5169 78.167 22.4248C78.5878 21.3327 79.2248 20.3369 80.0399 19.4971C80.8551 18.6573 81.8315 17.9909 82.9106 17.5378C83.9897 17.0848 85.1492 16.8544 86.3195 16.8606H86.2992ZM81.9759 24.1677H90.6428C90.3993 21.5899 88.2681 20.4127 86.2992 20.4127C83.3358 20.4127 82.2194 22.6454 81.9759 24.188V24.1677ZM104.973 16.8606H105.277V21.1231L104.912 21.0622C104.607 21.0013 104.222 20.9607 103.836 20.9607C102.476 20.9607 100.589 21.9147 99.8782 22.9295V34.4382H95.6563V17.2666H99.8985V19.1745C101.299 17.7131 103.146 16.8606 104.973 16.8606Z" fill="#424242"/>
<defs>
<radialGradient id="paint0_radial_201_8131" cx="0" cy="0" r="1" gradientUnits="userSpaceOnUse" gradientTransform="translate(10.6329 35.017) scale(21.2659 24.9853)">
<stop stop-color="#FF7854"/>
<stop offset="1" stop-color="#FD267D"/>
</radialGradient>
</defs>
</svg>
