<svg width="77" height="48" viewBox="0 0 77 48" fill="none" xmlns="http://www.w3.org/2000/svg">
<path d="M40.6417 21.2316C40.793 21.071 40.9745 20.942 41.1759 20.852C41.3773 20.7619 41.5945 20.7126 41.815 20.7068C42.0355 20.7011 42.255 20.739 42.4608 20.8185C42.6665 20.8979 42.8546 21.0173 43.014 21.1698C43.1735 21.3222 43.3012 21.5047 43.3898 21.7067C43.4784 21.9087 43.5261 22.1263 43.5303 22.3469C43.5344 22.5674 43.4949 22.7866 43.4139 22.9918C43.333 23.197 43.2122 23.3842 43.0587 23.5425C42.7513 23.8593 42.3312 24.0417 41.89 24.05C41.4487 24.0583 41.022 23.8918 40.703 23.5868C40.384 23.2818 40.1985 22.863 40.1871 22.4218C40.1756 21.9806 40.339 21.5528 40.6417 21.2316ZM50.2217 35.9427C50.1772 34.654 49.7957 33.2928 48.8224 32.3938C47.7358 31.3906 46.1635 30.9303 44.7017 30.9303H38.1857C37.5423 30.9303 36.9732 30.4499 36.9732 29.8573C36.9732 29.3679 37.3049 28.9419 37.7779 28.8196C37.7761 28.8187 37.8894 28.7906 38.009 28.7516C39.1981 29.2997 40.4942 29.5765 41.8035 29.5618C43.8127 29.5618 45.8254 28.9746 47.2999 27.6043C48.7363 26.2694 49.4069 24.4034 49.4069 22.4931C49.4069 20.5827 48.7363 18.7185 47.2999 17.3845C46.881 16.9959 46.4141 16.6624 45.9106 16.3922C47.2945 16.7112 48.7227 16.3161 49.7051 14.6304L46.9365 12.6521L44.6283 15.8493C43.7143 15.5628 42.7614 15.4197 41.8035 15.4252C39.7952 15.4252 37.7807 16.0125 36.3062 17.3827C34.8707 18.7176 34.201 20.5836 34.201 22.4922C34.201 24.4007 34.8707 26.2685 36.3062 27.6034C36.4322 27.7185 36.5599 27.8282 36.6932 27.9333L36.4231 28.0756C35.7465 28.4631 35.1323 28.9507 34.6015 29.5219C33.6917 30.4853 32.7818 31.928 32.7818 33.8484C32.7818 33.8484 32.6549 37.9446 37.3855 37.9446H40.8121C41.6005 37.9446 42.4052 38.4431 42.4052 39.227C42.4052 39.5016 42.3255 39.7698 42.176 39.9991H48.73C49.7175 38.8811 50.2498 37.4333 50.2217 35.9418V35.9427ZM57.2723 21.2298C57.5078 21.0039 57.8045 20.8523 58.1255 20.7937C58.4464 20.7351 58.7775 20.7721 59.0777 20.9002C59.3778 21.0282 59.6336 21.2416 59.8135 21.5138C59.9933 21.7861 60.0892 22.1052 60.0892 22.4314C60.0892 22.7577 59.9933 23.0768 59.8135 23.349C59.6336 23.6213 59.3778 23.8347 59.0777 23.9627C58.7775 24.0907 58.4464 24.1277 58.1255 24.0692C57.8045 24.0106 57.5078 23.8589 57.2723 23.6331C56.975 23.3035 56.8105 22.8753 56.8105 22.4314C56.8105 21.9875 56.975 21.5594 57.2723 21.2298ZM68.8813 35.9418C68.8378 34.6531 68.4554 33.2919 67.483 32.3929C66.3955 31.3897 64.8232 30.9293 63.3632 30.9293L55.7996 30.875C55.322 30.875 54.9586 30.5777 54.9586 30.1373C54.9586 29.7748 55.139 29.2347 55.5966 29.1449C56.5011 29.4259 57.4427 29.5654 58.3897 29.5609C60.3997 29.5609 62.4134 28.9737 63.887 27.6034C65.3225 26.2685 65.9931 24.4025 65.9931 22.4922C65.9931 20.5818 65.3225 18.7176 63.887 17.3836C63.4678 16.9952 63.0006 16.6621 62.4968 16.3922C63.8806 16.7112 65.3089 16.3161 66.2913 14.6304L63.5245 12.6521L61.2145 15.8493C60.3005 15.5628 59.3475 15.4197 58.3897 15.4252C56.3814 15.4252 54.3668 16.0125 52.8924 17.3827C51.4587 18.7176 50.7872 20.5836 50.7872 22.4922C50.7872 24.4007 51.4578 26.2685 52.8924 27.6034C53.3138 27.9931 53.7841 28.3266 54.2907 28.5967C53.9228 28.8758 53.5793 29.1857 53.263 29.521C52.3513 30.4853 51.4415 31.928 51.4415 33.8484C51.4415 33.8484 51.3155 37.9446 56.0461 37.9446H59.4727C60.262 37.9446 61.064 38.4431 61.064 39.227C61.064 39.5016 60.9861 39.7689 60.8366 39.9991H67.3896C68.3778 38.8814 68.9102 37.4334 68.8813 35.9418ZM76.8128 33.8393V27.7257C75.4 27.9043 74.9097 26.9128 74.9097 25.9305V11H67.908V27.047C67.908 29.0389 68.2071 30.701 68.9294 31.7477C70.0386 33.3391 71.5421 34.3803 74.53 34.3939C75.081 34.3686 76.0017 34.2607 76.8128 33.8411V33.8393ZM25.2789 26.4044C24.9167 26.8045 24.4258 27.0653 23.8915 27.1414C23.3571 27.2176 22.813 27.1044 22.3533 26.8215C21.8937 26.5385 21.5475 26.1037 21.3749 25.5923C21.2022 25.0809 21.2139 24.5252 21.408 24.0216C21.602 23.5179 21.9662 23.098 22.4373 22.8347C22.9085 22.5714 23.4569 22.4812 23.9876 22.5798C24.5182 22.6784 24.9977 22.9596 25.3428 23.3746C25.6879 23.7896 25.8769 24.3123 25.8771 24.852C25.891 25.4283 25.6759 25.9865 25.2789 26.4044ZM30.4962 18.0941C28.6882 16.259 26.2196 15.4742 23.7573 15.4742C21.2942 15.4742 18.8237 16.259 17.0167 18.0941C15.2558 19.8803 14.4338 22.378 14.4338 24.9327C14.4338 27.4883 15.2558 29.9868 17.0167 31.7731C18.8228 33.6073 21.2923 34.393 23.7573 34.393C26.2214 34.393 28.6882 33.6073 30.4962 31.774C32.2562 29.9868 33.079 27.4892 33.079 24.9327C33.079 22.3771 32.2562 19.8803 30.4962 18.0941ZM11.8238 27.7511C10.6593 27.7511 10.1835 27.3959 9.75306 26.8521C9.47303 26.4969 9.33437 25.9749 9.33437 25.2979V22.1324H13.243V16.4593H9.33437V11H4.34094V13.0418C4.34094 15.302 2.60819 17.1344 0.473062 17.1344C0.314915 17.134 0.156937 17.124 0 17.1045L0 22.1324H2.62269V27.1865C2.62269 29.1767 2.98337 30.7082 3.70475 31.7531C4.81944 33.3499 6.05375 34.393 9.07066 34.393C10.8197 34.393 12.2824 33.9943 13.243 33.4614V27.5164C12.7878 27.6787 12.3071 27.7582 11.8238 27.7511Z" fill="black"/>
</svg>
