<svg width="165" height="48" viewBox="0 0 165 48" fill="none" xmlns="http://www.w3.org/2000/svg">
<g clip-path="url(#clip0_201_8136)">
<path d="M50.825 30.0563C50.35 30.175 49.7563 30.2938 49.1625 30.2938C47.975 30.2938 47.5 29.5813 47.5 28.3938V23.05H50.825C51.6562 23.05 52.4875 22.4563 52.4875 21.5063C52.4875 20.5563 51.775 19.9625 50.825 19.9625H47.5V18.1813C47.5 17.1125 46.6688 16.4 45.7188 16.4C44.7688 16.4 43.9375 17.2313 43.9375 18.1813V28.5125C43.9375 31.4813 45.3625 33.6188 48.6875 33.6188C49.6375 33.6188 50.9438 33.5 51.8938 33.025C52.725 32.6688 52.9625 32.075 52.9625 31.4813C52.9625 30.65 52.1312 29.8188 50.825 30.0563ZM62.7 19.4875C62.225 19.3688 61.275 19.25 60.4438 19.25C57.475 19.25 55.8125 21.0313 55.8125 23.7625V31.8375C55.8125 32.7875 56.6438 33.6188 57.5938 33.6188C58.5437 33.6188 59.375 32.7875 59.375 31.8375V24.475C59.375 23.2875 59.85 22.8125 60.6812 22.8125C61.5125 22.8125 61.9875 23.05 62.7 23.05C63.7687 23.05 64.3625 22.1 64.3625 21.3875C64.2438 20.4375 63.7687 19.8438 62.7 19.4875ZM72.5562 19.25C69.2312 19.25 66.8563 21.3875 66.5 24.8313C66.5 25.6625 66.3813 27.0875 66.5 28.1563C66.7375 31.4813 69.1125 33.7375 72.675 33.7375C74.3375 33.7375 75.8812 33.3813 76.8312 32.7875C77.5437 32.3125 77.6625 31.8375 77.6625 31.3626C77.6625 30.4125 76.8312 29.4625 75.4062 29.9375C74.575 30.2938 73.625 30.5313 72.675 30.5313C71.0125 30.5313 69.7063 29.7 69.7063 28.0375V27.6813H76.475C77.6625 27.6813 78.2563 26.9688 78.2563 25.9V25.3063C78.375 21.625 76 19.25 72.5562 19.25ZM74.8125 25.3063H69.825C69.825 23.525 70.6562 22.3375 72.5562 22.3375C74.2187 22.3375 75.1688 23.4063 75.05 24.95C75.05 25.1875 75.05 25.3063 74.8125 25.3063ZM86.8062 19.25C83.4812 19.25 81.1063 21.3875 80.75 24.8313C80.75 25.6625 80.6312 27.0875 80.75 28.1563C80.9875 31.4813 83.3625 33.7375 86.925 33.7375C88.5875 33.7375 90.1312 33.3813 91.0812 32.7875C91.7937 32.3125 91.9125 31.8375 91.9125 31.3626C91.9125 30.4125 91.0812 29.4625 89.6562 29.9375C88.825 30.2938 87.875 30.5313 86.925 30.5313C85.2625 30.5313 83.9562 29.7 83.9562 28.0375V27.6813H90.725C91.9125 27.6813 92.5063 26.9688 92.5063 25.9V25.3063C92.625 21.625 90.25 19.25 86.8062 19.25ZM89.0625 25.3063H84.075C84.075 23.525 84.9062 22.3375 86.8062 22.3375C88.4688 22.3375 89.4187 23.4063 89.3 24.95C89.3 25.1875 89.3 25.3063 89.0625 25.3063ZM146.775 25.1875L144.875 24.7125C143.688 24.475 143.331 24.1188 143.331 23.525C143.331 22.9313 143.925 22.4563 145.231 22.4563C145.944 22.4563 146.775 22.6938 147.487 23.05C148.319 23.525 149.269 23.4063 149.744 22.8125C150.338 22.2188 150.338 21.15 149.625 20.4375C148.675 19.725 147.013 19.25 145.35 19.25C142.263 19.25 140.006 20.7938 140.006 23.6438C140.006 25.9 141.669 27.0875 143.806 27.6813C144.875 27.9188 144.756 27.9188 145.706 28.1563C146.775 28.3938 147.25 28.8688 147.25 29.3438C147.25 30.0563 146.656 30.5313 145.231 30.5313C144.044 30.5313 142.975 30.175 142.144 29.7C141.312 29.1063 140.363 29.3438 139.888 30.0563C139.413 30.7688 139.531 31.7188 140.244 32.1938C141.194 33.025 142.738 33.7375 145.231 33.7375C148.319 33.7375 150.694 32.075 150.694 29.225C150.694 27.0875 149.387 25.7813 146.775 25.1875ZM163.281 27.6813C164.469 27.6813 165.062 26.9688 165.062 25.9V25.3063C165.062 21.625 162.688 19.25 159.244 19.25C155.919 19.25 153.544 21.3875 153.188 24.8313C153.188 25.6625 153.069 27.0875 153.188 28.1563C153.425 31.4813 155.8 33.7375 159.362 33.7375C161.025 33.7375 162.569 33.3813 163.519 32.7875C164.231 32.3125 164.35 31.8375 164.35 31.3626C164.35 30.4125 163.519 29.4625 162.094 29.9375C161.262 30.2938 160.312 30.5313 159.362 30.5313C157.7 30.5313 156.394 29.7 156.394 28.0375V27.6813H163.281ZM159.244 22.3375C160.906 22.3375 161.856 23.4063 161.737 24.95C161.737 25.1875 161.619 25.3063 161.5 25.3063H156.513C156.513 23.525 157.463 22.3375 159.244 22.3375ZM115.781 19.25C112.219 19.25 109.606 21.5063 109.25 24.5938C109.131 25.6625 109.131 27.3251 109.25 28.3938C109.488 31.4813 112.219 33.7375 115.781 33.7375C119.344 33.7375 121.956 31.4813 122.194 28.3938C122.312 27.3251 122.312 25.7813 122.194 24.7125C121.956 21.5063 119.344 19.25 115.781 19.25ZM118.631 27.8C118.513 29.3438 117.444 30.2938 115.781 30.2938C114.119 30.2938 113.05 29.225 112.931 27.8C112.931 27.0876 112.931 25.9 112.931 25.1875C113.05 23.6438 114.119 22.6938 115.781 22.6938C117.444 22.6938 118.513 23.7625 118.631 25.1875C118.75 25.9 118.75 27.0876 118.631 27.8ZM101.65 19.25C100.344 19.25 98.9188 19.725 98.4438 20.3188V16.5188C98.4438 15.45 97.7313 14.7375 96.7812 14.7375C95.8312 14.7375 95.1187 15.5688 95.1187 16.5188V31.8375C95.1187 32.7875 95.95 33.6188 96.9 33.6188C97.85 33.6188 98.5625 32.7875 98.5625 31.8375V23.8813C99.1562 23.2875 100.106 22.8125 101.294 22.8125C102.719 22.8125 103.55 23.6438 103.55 25.3063V31.8375C103.55 32.9063 104.262 33.7375 105.212 33.7375C106.281 33.7375 106.994 32.9063 106.994 31.8375V25.0688C106.875 21.2688 104.975 19.25 101.65 19.25ZM134.9 19.3688C133.95 19.3688 133.119 20.2 133.119 21.15V29.5813C132.525 29.9375 131.694 30.2938 130.625 30.2938C129.2 30.2938 128.131 29.4626 128.131 27.8V21.15C128.131 20.0813 127.3 19.25 126.35 19.25C125.281 19.25 124.688 20.0813 124.688 21.15V27.9188C124.688 31.6 126.825 33.6188 130.506 33.6188C133.238 33.6188 135.137 32.6688 135.969 32.075C136.444 31.8375 136.562 31.4813 136.562 30.8875V21.15C136.562 20.2 135.85 19.3688 134.9 19.3688Z" fill="#3E474F"/>
<path d="M30.875 12.0063C29.5688 11.2938 27.55 12.4813 26.3625 14.6188L24.1062 18.4188C23.275 19.9626 23.3938 21.8626 24.4625 23.4063L24.5813 23.5251C25.65 24.9501 26.9563 26.3751 27.4312 26.8501C27.6688 27.0876 27.9062 27.4438 28.025 27.9188C28.3813 29.2251 27.6688 30.6501 26.2437 31.0063C24.9375 31.3626 23.5125 30.6501 23.1562 29.2251C23.0375 28.8689 23.0375 28.5126 23.0375 28.2751C23.1562 27.6814 22.9188 26.8501 22.0875 25.9001C21.2563 25.0689 19.7125 26.7314 19.1187 28.3939V28.5126C18.6438 30.1751 18.2875 31.7189 18.4062 31.8376C18.4062 31.9564 18.525 31.9564 18.525 32.0751C19.2375 33.5001 18.7625 35.1626 17.3375 35.8751C15.9125 36.5876 14.25 36.1126 13.5375 34.6876C12.825 33.2626 13.3 31.6001 14.725 30.8876C14.8438 30.8876 14.8438 30.7689 14.9625 30.7689C15.0813 30.7689 15.3187 30.0563 15.675 29.1063C15.9125 28.2751 16.0312 27.9188 16.15 27.5626C16.2688 27.0876 16.5063 25.9001 16.3875 25.4251C16.2688 24.8314 15.675 24.8314 15.0813 25.1876C14.725 25.4251 14.0125 26.0189 13.775 26.2563C13.1813 26.7313 12.7063 27.4438 12.4688 28.0376C12.35 28.2751 12.1125 28.6314 11.875 28.8689C10.8062 29.7001 9.2625 29.5814 8.3125 28.5126C7.48125 27.4438 7.6 25.9001 8.66875 24.9501C9.025 24.7126 9.38125 24.4751 9.7375 24.4751C10.3313 24.3563 12.4688 23.0501 13.775 22.1001C14.0125 21.9813 14.3687 21.6251 14.4875 21.5063C14.8438 21.0313 14.4875 20.6751 14.1312 20.6751C13.0625 20.7938 11.875 20.9126 11.6375 21.2689C11.5188 21.3876 11.4 21.6251 11.1625 21.7439C10.2125 22.4564 8.7875 22.2188 8.075 21.2689C7.3625 20.3188 7.6 18.8939 8.55 18.1813C8.90625 17.8251 9.5 17.7063 9.85625 17.7063C10.6875 17.7063 12.825 18.1813 14.4875 17.8251L14.9625 17.7063C16.7437 17.3501 18.8813 15.8063 19.7125 14.2626C19.7125 14.2626 20.5438 12.8376 21.4937 11.0563C22.5625 9.2751 22.4438 7.25635 21.375 6.6626L19.3562 5.4751C18.2875 4.88135 16.7437 4.88135 15.675 5.4751L1.9 13.3126C0.83125 13.9063 0 15.3313 0 16.5188V31.7189C0 32.9064 0.83125 34.3314 1.9 34.9251L15.675 42.7626C16.7437 43.3563 18.4062 43.3563 19.3562 42.7626L33.1312 34.9251C34.2 34.3314 35.0312 32.9064 35.0312 31.7189V16.5188C35.0312 15.3313 34.2 13.9063 33.1312 13.3126C33.1312 13.3126 32.1813 12.7188 30.875 12.0063Z" fill="#5FCF80"/>
</g>
<defs>
<clipPath id="clip0_201_8136">
<rect width="165" height="48" fill="white"/>
</clipPath>
</defs>
</svg>
