<svg width="113" height="48" viewBox="0 0 113 48" fill="none" xmlns="http://www.w3.org/2000/svg">
<path fill-rule="evenodd" clip-rule="evenodd" d="M19.9454 12H2.69002C1.97719 12 1.29351 12.2829 0.789136 12.7867C0.284766 13.2904 0.000951367 13.9737 3.15904e-05 14.6865V31.9146C-0.00168142 32.268 0.0662881 32.6184 0.200054 32.9456C0.333821 33.2728 0.530761 33.5704 0.779617 33.8214C1.02847 34.0724 1.32436 34.272 1.65038 34.4086C1.97639 34.5452 2.32613 34.6162 2.6796 34.6176H19.9476C20.3009 34.6172 20.6507 34.5472 20.977 34.4116C21.3032 34.2759 21.5996 34.0774 21.8491 33.8272C22.0986 33.5771 22.2964 33.2802 22.4312 32.9536C22.5659 32.627 22.635 32.277 22.6345 31.9237V14.6865C22.6336 13.9738 22.3499 13.2907 21.8457 12.787C21.3415 12.2833 20.6581 12.0002 19.9454 12V12ZM9.76207 28.2909C9.76104 28.5294 9.66535 28.7576 9.49604 28.9256C9.32673 29.0935 9.09766 29.1873 8.85919 29.1864H5.08454C4.84775 29.1853 4.62104 29.0904 4.45397 28.9226C4.2869 28.7548 4.19305 28.5277 4.19294 28.2909V17.0689C4.19282 16.832 4.28659 16.6048 4.45371 16.4369C4.62084 16.2691 4.84768 16.1743 5.08454 16.1734H8.85572C9.09294 16.1743 9.32019 16.2689 9.48793 16.4367C9.65567 16.6044 9.75031 16.8317 9.75123 17.0689L9.76207 28.2909ZM18.4624 23.1383C18.4624 23.3758 18.3681 23.6036 18.2002 23.7716C18.0322 23.9396 17.8045 24.0341 17.5669 24.0342H13.7853C13.548 24.0333 13.3207 23.9386 13.153 23.7708C12.9852 23.6029 12.8906 23.3756 12.8898 23.1383V17.0689C12.8907 16.8317 12.9854 16.6044 13.1531 16.4367C13.3209 16.2689 13.5481 16.1743 13.7853 16.1734H17.5561C17.793 16.1742 18.02 16.2689 18.1872 16.4368C18.3544 16.6046 18.4482 16.8319 18.4481 17.0689L18.4624 23.1383Z" fill="url(#paint0_linear_201_8139)"/>
<path d="M46.897 13.6572V18.0311H41.7158V34.6178H36.7193V18.0311H31.5381V13.6572H46.897Z" fill="#293856"/>
<path d="M53.2552 34.6177H48.6362V18.3016H53.2552V21.4255C54.1329 19.2244 55.536 17.9155 58.0343 18.0751V22.9084C54.7707 22.6546 53.2552 23.4521 53.2552 26.0665V34.6177Z" fill="#293856"/>
<path d="M83.2692 34.7447C80.2417 34.7447 78.3379 33.2943 78.3379 29.8641V12H82.9898V29.2246C82.9898 30.2142 83.6406 30.5661 84.4403 30.5661C84.6704 30.5705 84.9006 30.5595 85.1292 30.5331V34.5542C84.521 34.7031 83.8951 34.7672 83.2692 34.7447Z" fill="#293856"/>
<path d="M92.9734 34.7447C89.9459 34.7447 88.0386 33.2943 88.0386 29.8641V12H92.6905V29.2246C92.6905 30.2142 93.3465 30.5661 94.1587 30.5661C94.3877 30.571 94.6168 30.5599 94.8442 30.5331V34.5542C94.2325 34.7044 93.6028 34.7685 92.9734 34.7447Z" fill="#293856"/>
<path d="M97.0728 26.4528C97.0728 21.413 99.9736 17.9646 104.969 17.9646C109.965 17.9646 112.805 21.4017 112.805 26.4528C112.805 31.5039 109.933 35 104.97 35C100.007 35 97.0728 31.4596 97.0728 26.4528ZM101.601 26.4528C101.601 28.9072 102.631 30.8544 104.97 30.8544C107.309 30.8544 108.28 28.9072 108.28 26.4528C108.28 23.9984 107.283 22.1015 104.97 22.1015C102.658 22.1015 101.601 23.9945 101.601 26.4528Z" fill="#293856"/>
<path d="M64.2698 27.928C65.5632 28.0699 66.863 28.1461 68.1642 28.1562C71.7028 28.1562 74.6904 27.2064 74.6904 23.7802C74.6904 20.455 71.6195 17.9568 67.9247 17.9568C62.9504 17.9568 59.7632 21.5648 59.7632 26.6047C59.7632 31.8367 62.5113 34.9436 68.7226 34.9436C70.5651 34.9587 72.3944 34.6318 74.1177 33.9796V30.0708C72.5224 30.5819 70.7275 31.0896 68.8857 31.0896C66.4126 31.09 64.6889 30.2774 64.2698 27.928ZM67.8305 21.5175C69.1395 21.5175 70.1908 22.4057 70.1908 23.6205C70.1908 25.1824 68.5421 25.6727 66.6413 25.6727C65.8327 25.6688 65.0255 25.6046 64.2264 25.4805C64.2867 24.7186 64.5053 23.9777 64.8681 23.3051C65.1594 22.7722 65.5874 22.3265 66.1081 22.0139C66.6287 21.7013 67.2233 21.5329 67.8305 21.5262V21.5175Z" fill="#293856"/>
<defs>
<linearGradient id="paint0_linear_201_8139" x1="11.3162" y1="34.6176" x2="11.3162" y2="12" gradientUnits="userSpaceOnUse">
<stop stop-color="#0052CC"/>
<stop offset="1" stop-color="#2684FF"/>
</linearGradient>
</defs>
</svg>
