<svg width="156" height="48" viewBox="0 0 156 48" fill="none" xmlns="http://www.w3.org/2000/svg">
<path d="M40.683 14.4663H56.3422V17.3814H50.1766V33.8146H46.7971V17.3814H40.6572L40.683 14.4663ZM55.6715 19.8064H58.5608V22.5152H58.6124C58.7156 22.1282 58.8962 21.7671 59.1542 21.4059C59.4122 21.0447 59.7217 20.7093 60.1087 20.4256C60.4699 20.116 60.8826 19.8838 61.347 19.7032C61.7856 19.5227 62.2499 19.4195 62.7143 19.4195C63.0754 19.4195 63.3334 19.4453 63.4624 19.4453C63.5914 19.4711 63.7462 19.4969 63.8752 19.4969V22.4636C63.6688 22.412 63.4366 22.3862 63.2044 22.3604C62.9722 22.3346 62.7659 22.3088 62.5337 22.3088C62.0177 22.3088 61.5276 22.412 61.0632 22.6184C60.5989 22.8248 60.2119 23.1343 59.8507 23.5213C59.5154 23.9341 59.2316 24.4242 59.0252 25.0176C58.8188 25.6109 58.7156 26.3074 58.7156 27.0814V33.7372H55.6199L55.6715 19.8064ZM78.0639 33.8146H75.0198V31.854H74.9682C74.5812 32.5763 74.0137 33.118 73.2655 33.5566C72.5174 33.9952 71.7435 34.2015 70.9695 34.2015C69.1379 34.2015 67.7964 33.763 66.9709 32.8343C66.1454 31.9313 65.7326 30.5383 65.7326 28.7066V19.8064H68.8283V28.3971C68.8283 29.6354 69.0605 30.5125 69.5507 31.0026C70.015 31.5186 70.6858 31.7766 71.5371 31.7766C72.182 31.7766 72.7238 31.6734 73.1623 31.467C73.6009 31.2606 73.9621 31.0026 74.2201 30.6673C74.5038 30.3319 74.6844 29.9191 74.8134 29.4548C74.9424 28.9904 74.994 28.4745 74.994 27.9327V19.8064H78.0897V33.8146H78.0639ZM83.3266 29.3258C83.4298 30.2287 83.7652 30.8478 84.3586 31.2348C84.9519 31.596 85.6742 31.7766 86.4998 31.7766C86.7835 31.7766 87.1189 31.7508 87.4801 31.6992C87.8412 31.6476 88.2024 31.5702 88.512 31.4412C88.8474 31.3122 89.1053 31.1316 89.3117 30.8736C89.5181 30.6157 89.6213 30.3061 89.5955 29.9191C89.5697 29.5322 89.4407 29.1968 89.1569 28.9388C88.8732 28.6808 88.5378 28.5002 88.125 28.3197C87.7123 28.1649 87.2221 28.0359 86.6804 27.9327C86.1386 27.8295 85.5968 27.7005 85.0293 27.5715C84.4617 27.4425 83.8942 27.2878 83.3524 27.1072C82.8107 26.9266 82.3463 26.6944 81.9078 26.359C81.495 26.0495 81.1338 25.6625 80.9017 25.1724C80.6437 24.6822 80.5147 24.1146 80.5147 23.3923C80.5147 22.6184 80.6953 21.9992 81.0822 21.4833C81.4434 20.9673 81.9336 20.5546 82.5011 20.245C83.0687 19.9354 83.7136 19.7032 84.4102 19.5742C85.1067 19.4453 85.7774 19.3937 86.3966 19.3937C87.1189 19.3937 87.8154 19.4711 88.4604 19.6258C89.1053 19.7806 89.7245 20.0128 90.2404 20.374C90.7822 20.7093 91.2207 21.1737 91.5561 21.7155C91.9173 22.2572 92.1237 22.9279 92.2269 23.7019H89.0021C88.8474 22.9537 88.512 22.4636 87.996 22.2056C87.4543 21.9476 86.8609 21.8187 86.1644 21.8187C85.958 21.8187 85.6742 21.8444 85.3905 21.8702C85.0809 21.9218 84.8229 21.9734 84.5391 22.0766C84.2812 22.1798 84.049 22.3346 83.8684 22.5152C83.6878 22.6958 83.5846 22.9537 83.5846 23.2633C83.5846 23.6503 83.7136 23.9341 83.9716 24.1662C84.2296 24.3984 84.5649 24.579 85.0035 24.7596C85.4163 24.9144 85.9064 25.0434 86.4482 25.1466C86.9899 25.2497 87.5575 25.3787 88.125 25.5077C88.6926 25.6367 89.2343 25.7915 89.7761 25.9721C90.3178 26.1527 90.808 26.3848 91.2207 26.7202C91.6335 27.0298 91.9947 27.4168 92.2527 27.8811C92.5106 28.3455 92.6396 28.9388 92.6396 29.6096C92.6396 30.4351 92.459 31.1316 92.0721 31.725C91.6851 32.2925 91.195 32.7827 90.6016 33.1438C90.0083 33.505 89.3117 33.763 88.5894 33.9436C87.8412 34.0984 87.1189 34.2015 86.3966 34.2015C85.5195 34.2015 84.6939 34.0984 83.9458 33.892C83.1977 33.6856 82.5269 33.376 81.9852 32.989C81.4434 32.5763 81.0048 32.0861 80.6953 31.467C80.3857 30.8736 80.2051 30.1513 80.1793 29.3H83.3008V29.3258H83.3266ZM93.5167 19.8064H95.8643V15.5756H98.9601V19.7806H101.746V22.0766H98.9601V29.558C98.9601 29.8933 98.9859 30.1513 99.0117 30.4093C99.0375 30.6415 99.1148 30.8478 99.1922 31.0026C99.2954 31.1574 99.4502 31.2864 99.6308 31.3638C99.8372 31.4412 100.095 31.4928 100.456 31.4928C100.663 31.4928 100.895 31.4928 101.101 31.467C101.308 31.4412 101.54 31.4154 101.746 31.3638V33.763C101.411 33.8146 101.075 33.8404 100.74 33.8662C100.405 33.9178 100.095 33.9178 99.734 33.9178C98.9085 33.9178 98.2635 33.8404 97.7734 33.6856C97.2832 33.5308 96.8962 33.2986 96.6125 33.0149C96.3287 32.7053 96.1481 32.3441 96.0449 31.9055C95.9417 31.467 95.8901 30.9252 95.8643 30.3577V22.1024H93.5167V19.7548V19.8064ZM103.913 19.8064H106.828V21.7155H106.88C107.319 20.8899 107.912 20.3224 108.686 19.9612C109.46 19.6 110.285 19.4195 111.214 19.4195C112.323 19.4195 113.278 19.6 114.103 20.0128C114.929 20.3998 115.6 20.9157 116.141 21.6123C116.683 22.283 117.096 23.0827 117.354 23.9857C117.612 24.8886 117.767 25.8689 117.767 26.875C117.767 27.8295 117.638 28.7324 117.405 29.6096C117.147 30.4867 116.786 31.2864 116.296 31.9571C115.806 32.6279 115.187 33.1696 114.413 33.5824C113.639 33.9952 112.762 34.2015 111.73 34.2015C111.291 34.2015 110.827 34.15 110.388 34.0726C109.95 33.9952 109.511 33.8662 109.099 33.6856C108.686 33.505 108.299 33.2728 107.963 32.989C107.602 32.7053 107.319 32.3699 107.086 32.0087H107.035V38.9999H103.939V19.8064H103.913ZM114.722 26.8234C114.722 26.2043 114.645 25.5851 114.464 24.9918C114.31 24.3984 114.052 23.8825 113.716 23.4181C113.381 22.9537 112.968 22.5926 112.504 22.3088C112.014 22.025 111.446 21.896 110.827 21.896C109.537 21.896 108.557 22.3346 107.886 23.2375C107.241 24.1404 106.906 25.3529 106.906 26.8492C106.906 27.5715 106.983 28.2165 107.164 28.8098C107.344 29.4032 107.576 29.9191 107.938 30.3577C108.273 30.7962 108.686 31.1316 109.176 31.3896C109.666 31.6476 110.208 31.7766 110.853 31.7766C111.575 31.7766 112.143 31.6218 112.633 31.338C113.123 31.0542 113.51 30.6673 113.845 30.2287C114.155 29.7643 114.387 29.2484 114.516 28.655C114.645 28.0359 114.722 27.4425 114.722 26.8234ZM120.166 14.4663H123.262V17.3814H120.166V14.4663ZM120.166 19.8064H123.262V33.8146H120.166V19.8064ZM126.022 14.4663H129.118V33.8146H126.022V14.4663ZM138.56 34.2015C137.45 34.2015 136.444 34.021 135.567 33.634C134.69 33.247 133.968 32.7569 133.348 32.1119C132.755 31.467 132.291 30.6673 131.981 29.7643C131.672 28.8614 131.491 27.8553 131.491 26.7976C131.491 25.7399 131.646 24.7596 131.981 23.8567C132.291 22.9537 132.755 22.1798 133.348 21.5091C133.942 20.8641 134.69 20.3482 135.567 19.987C136.444 19.6258 137.45 19.4195 138.56 19.4195C139.669 19.4195 140.675 19.6 141.552 19.987C142.429 20.3482 143.152 20.8641 143.771 21.5091C144.364 22.154 144.828 22.9537 145.138 23.8567C145.448 24.7596 145.628 25.7399 145.628 26.7976C145.628 27.8811 145.473 28.8614 145.138 29.7643C144.803 30.6673 144.364 31.4412 143.771 32.1119C143.177 32.7569 142.429 33.2728 141.552 33.634C140.675 33.9952 139.695 34.2015 138.56 34.2015ZM138.56 31.7508C139.23 31.7508 139.849 31.596 140.34 31.3122C140.856 31.0284 141.243 30.6415 141.578 30.1771C141.913 29.7127 142.145 29.171 142.3 28.6034C142.455 28.0101 142.532 27.4167 142.532 26.7976C142.532 26.2043 142.455 25.6109 142.3 25.0176C142.145 24.4242 141.913 23.9083 141.578 23.4439C141.243 22.9795 140.83 22.6184 140.34 22.3346C139.824 22.0508 139.23 21.896 138.56 21.896C137.889 21.896 137.27 22.0508 136.78 22.3346C136.264 22.6184 135.877 23.0053 135.541 23.4439C135.206 23.9083 134.974 24.4242 134.819 25.0176C134.664 25.6109 134.587 26.2043 134.587 26.7976C134.587 27.4167 134.664 28.0101 134.819 28.6034C134.974 29.1968 135.206 29.7127 135.541 30.1771C135.877 30.6415 136.289 31.0284 136.78 31.3122C137.295 31.6218 137.889 31.7508 138.56 31.7508ZM146.557 19.8064H148.904V15.5756H152V19.7806H154.786V22.0766H152V29.558C152 29.8933 152.026 30.1513 152.052 30.4093C152.078 30.6415 152.155 30.8478 152.232 31.0026C152.336 31.1574 152.49 31.2864 152.671 31.3638C152.877 31.4412 153.135 31.4928 153.496 31.4928C153.703 31.4928 153.935 31.4928 154.141 31.467C154.348 31.4412 154.58 31.4154 154.786 31.3638V33.763C154.451 33.8146 154.116 33.8404 153.78 33.8662C153.445 33.9178 153.135 33.9178 152.774 33.9178C151.949 33.9178 151.304 33.8404 150.813 33.6856C150.323 33.5308 149.936 33.2986 149.653 33.0149C149.369 32.7053 149.188 32.3441 149.085 31.9055C148.982 31.467 148.93 30.9252 148.904 30.3577V22.1024H146.557V19.7548V19.8064Z" fill="black"/>
<path d="M37.0713 14.4664H22.9084L18.5485 1L14.1629 14.4664L0 14.4406L11.4542 22.7733L7.06857 36.2397L18.5227 27.907L29.9769 36.2397L25.6171 22.7733L37.0713 14.4664Z" fill="#00B67A"/>
<path d="M26.5977 25.8173L25.6174 22.7732L18.5488 27.9069L26.5977 25.8173Z" fill="#005128"/>
</svg>
