<svg width="72" height="48" viewBox="0 0 72 48" fill="none" xmlns="http://www.w3.org/2000/svg">
<g clip-path="url(#clip0_201_8153)">
<path d="M4.14324 28.8547C4.44757 29.6623 4.8689 30.3528 5.40732 30.9263C5.94573 31.4998 6.5836 31.9387 7.32091 32.243C8.0583 32.5474 8.86002 32.6995 9.72614 32.6995C10.5689 32.6995 11.3589 32.5415 12.0963 32.2254C12.8337 31.9094 13.4773 31.4646 14.0274 30.8912C14.5775 30.3176 15.0047 29.633 15.309 28.8371C15.6134 28.0412 15.7655 27.1518 15.7655 26.1686V11H19.4523V35.5787H15.8006V33.2963C14.9813 34.1624 14.0157 34.8295 12.9038 35.2978C11.7919 35.7659 10.5923 36 9.30481 36C7.99389 36 6.77084 35.7717 5.6355 35.3153C4.50024 34.8588 3.51703 34.2093 2.6861 33.3666C1.85517 32.5238 1.19967 31.5116 0.719831 30.3294C0.239918 29.1473 0 27.8306 0 26.3792V11H3.68679V26.1686C3.68679 27.1518 3.83892 28.0471 4.14324 28.8547Z" fill="#010202"/>
<path d="M25.8073 11V19.9536C26.6266 19.1344 27.5747 18.4848 28.6514 18.0049C29.7282 17.525 30.8987 17.2851 32.1626 17.2851C33.4736 17.2851 34.7024 17.5308 35.8494 18.0224C36.9964 18.514 37.9912 19.1811 38.834 20.0239C39.6767 20.8666 40.3439 21.8614 40.8354 23.0084C41.327 24.1555 41.5727 25.3727 41.5727 26.6601C41.5727 27.9475 41.327 29.1589 40.8354 30.2942C40.3439 31.4295 39.6767 32.4186 38.834 33.2611C37.9912 34.1039 36.9964 34.771 35.8494 35.2626C34.7024 35.7542 33.4735 35.9999 32.1626 35.9999C30.8986 35.9999 29.7224 35.76 28.6339 35.2801C27.5454 34.8003 26.5915 34.1507 25.7722 33.3314V35.5786H22.261V11H25.8073ZM26.2111 29.0829C26.5271 29.832 26.966 30.4874 27.5278 31.0492C28.0896 31.611 28.7451 32.0558 29.4941 32.3835C30.2432 32.7112 31.0508 32.8751 31.9169 32.8751C32.7596 32.8751 33.5555 32.7112 34.3045 32.3835C35.0536 32.0558 35.7031 31.6111 36.2533 31.0492C36.8034 30.4875 37.2423 29.832 37.57 29.0829C37.8977 28.3338 38.0615 27.5263 38.0615 26.6601C38.0615 25.794 37.8977 24.9806 37.57 24.2198C37.2423 23.459 36.8034 22.7978 36.2533 22.236C35.7031 21.6742 35.0536 21.2353 34.3045 20.9193C33.5554 20.6033 32.7596 20.4452 31.9169 20.4452C31.0742 20.4452 30.2783 20.6032 29.5293 20.9193C28.7803 21.2353 28.1248 21.6742 27.563 22.236C27.0012 22.7978 26.5564 23.459 26.2287 24.2198C25.901 24.9806 25.7372 25.794 25.7372 26.6601C25.7371 27.5263 25.8951 28.3338 26.2111 29.0829Z" fill="#010202"/>
<path d="M43.5737 23.0435C44.0418 21.9199 44.6856 20.931 45.5048 20.0766C46.3241 19.2222 47.2956 18.5492 48.4192 18.0576C49.5428 17.5661 50.76 17.3203 52.0709 17.3203C53.3583 17.3203 54.5522 17.5544 55.6524 18.0225C56.7525 18.4907 57.7006 19.1403 58.4965 19.9713C59.2923 20.8022 59.9127 21.7854 60.3574 22.9207C60.8022 24.056 61.0245 25.2908 61.0245 26.6251V27.7838H46.4529C46.57 28.5095 46.8041 29.1825 47.1552 29.8027C47.5064 30.423 47.9452 30.9614 48.4719 31.4179C48.9986 31.8744 49.5955 32.2314 50.2626 32.4888C50.9298 32.7463 51.6378 32.8751 52.3869 32.8751C54.5171 32.8751 56.2377 31.9972 57.5485 30.2416L60.1117 32.1376C59.2222 33.3315 58.122 34.2678 56.8112 34.9466C55.5003 35.6255 54.0256 35.9649 52.387 35.9649C51.0527 35.9649 49.8063 35.7307 48.6476 35.2626C47.4888 34.7945 46.4823 34.139 45.6279 33.2963C44.7735 32.4535 44.1005 31.4646 43.609 30.3293C43.1174 29.1941 42.8716 27.9592 42.8716 26.625C42.8714 25.361 43.1056 24.1671 43.5737 23.0435ZM48.507 21.6565C47.5121 22.4876 46.8509 23.5936 46.5232 24.9747H57.4432C57.1388 23.5936 56.4892 22.4876 55.4944 21.6565C54.4995 20.8256 53.335 20.4101 52.0007 20.4101C50.6664 20.4101 49.5019 20.8256 48.507 21.6565Z" fill="#010202"/>
<path d="M67.6607 22.0604C66.9117 22.8797 66.5371 23.9915 66.5371 25.3961V35.5788H62.9907V17.6714H66.5019V19.8835C66.9467 19.1578 67.5261 18.5843 68.24 18.163C68.9539 17.7415 69.8025 17.5308 70.7857 17.5308H72.0146V20.8314H70.5399C69.3695 20.8315 68.4097 21.2411 67.6607 22.0604Z" fill="#010202"/>
</g>
<defs>
<clipPath id="clip0_201_8153">
<rect width="72" height="48" fill="white"/>
</clipPath>
</defs>
</svg>
