<svg width="114" height="48" viewBox="0 0 114 48" fill="none" xmlns="http://www.w3.org/2000/svg">
<g clip-path="url(#clip0_201_8155)">
<path d="M31.2904 31.0838C28.107 31.0838 25.9996 28.6723 25.4117 27.7382C26.166 21.8289 28.3733 19.9606 31.2904 19.9606C34.1744 19.9606 36.415 22.22 36.415 25.5221C36.415 28.8243 34.1744 31.0838 31.2904 31.0838ZM31.2904 16.3325C26.0995 16.3325 23.1933 19.6456 22.3614 23.0564C21.4186 21.3184 20.7198 18.9938 20.1763 16.8322H12.9998V25.5765C12.9998 28.7484 11.5246 31.0947 8.64064 31.0947C5.75673 31.0947 4.10403 28.7484 4.10403 25.5765L4.1373 16.8322H0V25.5765C0 28.1292 0.84299 30.443 2.38477 32.094C3.97093 33.7994 6.13386 34.6901 8.64064 34.6901C13.632 34.6901 17.115 30.9426 17.115 25.5765V19.6999C17.6362 21.6334 18.8786 25.3484 21.2522 28.6072L19.0339 40.9796H23.2377L24.7018 32.2135C25.1788 32.6045 25.689 32.9521 26.2325 33.2672C27.6411 34.1362 29.2495 34.625 30.9133 34.6793C30.9133 34.6793 31.1684 34.6901 31.3015 34.6901C36.4482 34.6901 40.5411 30.7906 40.5411 25.5221C40.5411 20.2539 36.4371 16.3325 31.2904 16.3325Z" fill="#14A800"/>
<path d="M90.7324 18.7014V16.8331H86.6729V34.137H90.788V27.3589C90.788 23.1877 91.1762 20.1896 96.8885 20.5807V16.6267C94.2264 16.4312 92.1522 16.9743 90.7324 18.7014Z" fill="#14A800"/>
<path d="M62.1607 16.8335L59.177 28.9343L55.9935 16.8335H50.7582L47.5637 28.9343L44.591 16.8335H40.4204L44.9904 34.1484H49.9374L53.3759 21.852L56.7811 34.1484H61.7281L66.5643 16.8335H62.1607Z" fill="#14A800"/>
<path d="M75.6265 31.0947C72.6983 31.0947 70.5021 28.8353 70.5021 25.5221C70.5021 22.2091 72.7094 19.9606 75.6265 19.9606C78.5105 19.9606 80.7511 22.22 80.7511 25.5221C80.7511 28.8243 78.5105 31.0947 75.6265 31.0947ZM75.6265 16.3325C70.4466 16.3325 66.387 20.2647 66.387 25.5221C66.387 30.7796 70.4466 34.6793 75.6265 34.6793C80.7732 34.6793 84.8662 30.7796 84.8662 25.5221C84.8662 20.2647 80.7844 16.3325 75.6265 16.3325Z" fill="#14A800"/>
<path d="M102.79 25.6312H103.744L109.49 34.1473H114.137L107.526 24.7078C110.732 23.4804 112.884 20.2759 112.884 16.8325H108.78C108.78 20.5692 105.774 21.9813 102.79 21.9813V10H98.6638V34.1473H102.779L102.79 25.6312Z" fill="#14A800"/>
</g>
<defs>
<clipPath id="clip0_201_8155">
<rect width="114" height="48" fill="white"/>
</clipPath>
</defs>
</svg>
