<svg width="180" height="48" viewBox="0 0 180 48" fill="none" xmlns="http://www.w3.org/2000/svg">
<path fill-rule="evenodd" clip-rule="evenodd" d="M26.2179 14.3648C26.9321 14.5354 27.5585 14.9629 27.9776 15.5659C28.412 16.3264 28.6189 17.1957 28.5735 18.0703C28.5729 19.2199 28.3971 20.3627 28.0521 21.4593C27.6465 22.7392 27.139 23.9846 26.5345 25.1834L25.8269 26.7383L22.3448 18.2845C22.1746 17.8818 22.0315 17.4681 21.9166 17.0462C21.8254 16.7242 21.7692 16.3933 21.749 16.0593C21.7313 15.637 21.8824 15.225 22.1688 14.9141C22.4552 14.6032 22.8535 14.419 23.2759 14.4021V14.1507H12.7738V14.4021C13.1311 14.4674 13.4765 14.5867 13.7979 14.7559C14.1259 14.9765 14.4023 15.2655 14.6079 15.6031C14.9707 16.1734 15.2822 16.7748 15.539 17.4L17.1776 21.3103L14.2169 27.1666L9.80379 16.9252C9.6902 16.7205 9.59666 16.5054 9.52448 16.2828C9.48684 16.1208 9.46502 15.9555 9.45931 15.7893C9.45693 15.4776 9.56964 15.1759 9.77586 14.9421C10.0304 14.6674 10.3508 14.4622 10.7069 14.3462V14.1134H0V14.3648C0.870736 14.6307 1.65911 15.1146 2.29034 15.7707C3.11876 16.7236 3.79691 17.7973 4.30138 18.9548L11.0793 34.019H11.3586L17.4662 21.9155L22.6893 34.019H22.9686L29.1786 20.6121C29.8366 19.0852 30.6675 17.6388 31.6552 16.3014C32.3003 15.4631 33.1324 14.7872 34.0852 14.3276V14.0855H26.2179V14.3648Z" fill="#54575A"/>
<path d="M43.2931 27.6693C42.6228 29.3917 41.1424 30.239 38.8055 30.239C37.5374 30.3059 36.3032 29.8163 35.4259 28.8983C34.5301 27.8165 34.0747 26.437 34.1503 25.0345H43.4607V24.8576C43.4758 23.7415 43.1511 22.6472 42.5297 21.72C41.8935 20.8242 41.033 20.1114 40.0345 19.6531C38.939 19.1538 37.7469 18.9027 36.5431 18.9176C35.2035 18.9002 33.8812 19.2204 32.6979 19.8486C31.5443 20.4603 30.5787 21.3743 29.9048 22.4928C29.1862 23.702 28.8246 25.09 28.8621 26.4962C28.8341 27.7985 29.1556 29.0844 29.7931 30.2203C30.4211 31.3064 31.3359 32.1987 32.4372 32.7993C33.6157 33.4401 34.9414 33.7611 36.2824 33.7303C37.9902 33.8101 39.6695 33.2713 41.0121 32.2128C42.3587 31.0618 43.2637 29.4788 43.5724 27.7345L43.2931 27.6693ZM34.7555 20.7145C34.9743 19.9019 35.7109 19.3371 36.5524 19.3366C36.808 19.3377 37.0598 19.3982 37.2879 19.5134C37.5272 19.6452 37.7241 19.8421 37.8559 20.0814C38.0013 20.3124 38.12 20.5591 38.2097 20.8169C38.3288 21.1849 38.4008 21.5666 38.4238 21.9528C38.4238 22.409 38.489 23.0421 38.489 23.8148V24.5224H34.1503C34.1539 23.791 34.2005 23.0604 34.29 22.3345C34.3937 21.7689 34.5495 21.2141 34.7555 20.6772V20.7145Z" fill="#54575A"/>
<path d="M59.9119 31.44C59.822 31.5184 59.705 31.5585 59.586 31.5517H59.2694C58.9661 31.5572 58.6839 31.3965 58.5339 31.1327C58.32 30.608 58.2338 30.04 58.2826 29.4755V22.7255C58.3656 21.6555 58.032 20.5947 57.3515 19.7648C56.6 19.0634 55.5805 18.7236 54.5584 18.8338C53.4283 18.8531 52.3039 18.9999 51.2067 19.2713C49.9605 19.5519 48.7513 19.9768 47.6036 20.5375C46.6677 20.9256 45.824 21.5061 45.127 22.2413C44.6397 22.7429 44.3517 23.4049 44.317 24.1034C44.2947 24.6485 44.5125 25.176 44.9129 25.5465C45.3569 25.9193 45.9261 26.109 46.505 26.0772C47.207 26.0578 47.8743 25.7676 48.367 25.2672C48.9626 24.644 49.2698 23.7998 49.2143 22.9396V22.4462C49.1686 21.725 49.3834 21.0114 49.8195 20.4351C50.1681 19.9969 50.7028 19.7486 51.2626 19.7648C51.6623 19.7465 52.0574 19.8575 52.3891 20.0813C52.7452 20.3616 52.9868 20.7622 53.0688 21.2079C53.2309 21.9507 53.3028 22.7103 53.2829 23.4703V24.9507C51.8398 25.3696 50.4898 25.8258 49.4005 26.2541C48.3023 26.6714 47.2297 27.1533 46.1884 27.6972C45.0214 28.2107 44.2509 29.3465 44.2053 30.6207C44.1936 31.5021 44.6145 32.3334 45.3319 32.8458C46.1793 33.4355 47.1958 33.7329 48.2274 33.6931C49.2897 33.7118 50.3418 33.4823 51.2998 33.0227C52.0979 32.5977 52.7962 32.0073 53.3481 31.291C53.413 31.9621 53.7131 32.5887 54.1953 33.06C54.7078 33.5127 55.3739 33.7525 56.0574 33.7303C56.8245 33.7413 57.5804 33.5451 58.2453 33.1624C58.9604 32.7819 59.5686 32.2281 60.0143 31.5517L59.9119 31.44ZM51.6163 31.6913C50.527 31.6913 49.9591 30.9465 49.9591 29.4289C49.9484 28.5187 50.2808 27.6379 50.8901 26.9617C51.5738 26.2857 52.4059 25.7788 53.3201 25.4813V29.6896C53.3581 30.2227 53.1954 30.7507 52.8639 31.17C52.5739 31.5318 52.1258 31.7298 51.6629 31.7007L51.6163 31.6913Z" fill="#54575A"/>
<path fill-rule="evenodd" clip-rule="evenodd" d="M59.9119 32.9948C60.4102 33.0001 60.8756 32.7463 61.1409 32.3245C61.4667 31.5681 61.601 30.7431 61.5319 29.9224V18.1076C61.6166 17.1083 61.4199 16.1053 60.964 15.212C60.6402 14.666 60.0436 14.3409 59.4092 14.3648V14.0483C60.5823 13.7596 61.8112 13.4803 63.0123 13.1172C64.2133 12.7541 65.4143 12.4562 66.4664 12.0745V30.4903C66.417 31.1276 66.5258 31.7672 66.783 32.3524C67.0271 32.6988 67.4207 32.9094 67.8444 32.9203V33.2369H59.9119V32.9948Z" fill="#54575A"/>
<path fill-rule="evenodd" clip-rule="evenodd" d="M70.386 32.9203C69.7264 32.1651 69.4065 31.1719 69.5015 30.1738V20.4631H67.3508L67.2856 20.221C68.1441 19.7973 68.9582 19.2889 69.7156 18.7034C70.5927 18.0106 71.4289 17.2676 72.2201 16.4782C72.9962 15.6961 73.715 14.8591 74.3708 13.9738L74.6222 14.0482V19.2341H77.8622L77.1639 20.4351H74.6222V29.2148C74.5753 29.8588 74.7074 30.5033 75.0039 31.0769C75.2535 31.4363 75.6649 31.649 76.1025 31.6448C76.3404 31.6319 76.577 31.6008 76.8101 31.5517C77.0381 31.5029 77.2535 31.4078 77.4432 31.2724L77.6201 31.5238C76.877 32.1553 76.0723 32.7105 75.2181 33.181C74.4858 33.5536 73.6748 33.7451 72.8532 33.7396C71.9578 33.7931 71.0755 33.5034 70.386 32.9296V32.9203Z" fill="#54575A"/>
<path fill-rule="evenodd" clip-rule="evenodd" d="M93.1781 32.3896C92.9454 31.6979 92.8505 30.9672 92.8988 30.239V22.8652C92.8988 20.221 91.8002 18.8803 89.6495 18.8803C89.0753 18.8683 88.5029 18.9501 87.955 19.1224C87.3576 19.3343 86.7885 19.6188 86.2605 19.9696C85.7019 20.3607 84.9943 20.9007 84.1843 21.5617V12.1396C83.0485 12.4934 81.9312 12.8472 80.7581 13.1638C79.585 13.4803 78.3933 13.7969 77.0898 14.0948V14.4114C77.7242 14.3874 78.3209 14.7126 78.6447 15.2586C79.0822 16.1546 79.275 17.1503 79.2033 18.1448V29.6896C79.2788 30.5798 79.1349 31.4749 78.7843 32.2965C78.5038 32.7445 78.0093 33.0129 77.4809 33.0041V33.3207H85.525V33.0041C85.1012 32.9957 84.7127 32.7661 84.5009 32.399C84.2324 31.7157 84.1241 30.9799 84.1843 30.2483V22.0552C84.5322 21.7492 84.9246 21.4981 85.3481 21.3103C85.6741 21.1412 86.0333 21.0459 86.4002 21.031C86.873 21.0204 87.316 21.2614 87.564 21.6641C87.9051 22.3269 88.0535 23.072 87.9923 23.8148V30.239C88.0037 30.8056 87.9695 31.3723 87.8898 31.9334C87.8576 32.2299 87.7186 32.5046 87.4988 32.7062C87.2625 32.879 86.9811 32.9792 86.6888 32.9948V33.3114H94.2023V32.9948C93.7758 32.996 93.3828 32.7638 93.1781 32.3896Z" fill="#54575A"/>
<path fill-rule="evenodd" clip-rule="evenodd" d="M99.5648 33.5255C98.8945 33.3766 98.2614 33.2741 97.7028 33.1717C97.2155 33.0693 96.7201 33.0101 96.2224 32.9948C95.9978 33.0013 95.7738 33.0231 95.5521 33.06C95.3702 33.1183 95.1928 33.1898 95.0214 33.2741V26.7569L95.31 26.6824C96.1401 28.0228 97.074 29.296 98.1031 30.4903C98.7606 31.2866 99.5475 31.9664 100.431 32.5014C101.072 32.8797 101.8 33.088 102.544 33.1066C103.081 33.1556 103.616 32.9918 104.034 32.6503C104.347 32.3312 104.512 31.8958 104.49 31.4493C104.514 30.8854 104.281 30.341 103.857 29.969C103.162 29.4522 102.393 29.0441 101.576 28.7586L99.5276 27.9486C98.2599 27.5148 97.0873 26.8416 96.0735 25.9655C95.4147 25.3015 95.0579 24.3959 95.0866 23.461C95.0611 22.6313 95.2955 21.8143 95.7569 21.1241C96.2385 20.4003 96.9079 19.821 97.6935 19.4483C98.6431 19.0069 99.6817 18.7902 100.729 18.8152C101.352 18.8077 101.975 18.8544 102.591 18.9548C103.187 19.0666 103.754 19.1317 104.211 19.2434C104.667 19.3552 105.058 19.3831 105.309 19.3831C105.473 19.403 105.639 19.403 105.803 19.3831L106.119 19.2807L106.51 24.569L106.259 24.6434C105.391 23.1715 104.322 21.8273 103.084 20.6493C102.328 19.9219 101.338 19.4864 100.291 19.4203C99.7791 19.3916 99.2747 19.5542 98.8759 19.8766C98.5027 20.1773 98.2924 20.6358 98.3079 21.1148C98.2827 21.6331 98.4911 22.1354 98.8759 22.4834C99.4241 22.9361 100.057 23.2747 100.738 23.4797L103.168 24.2897C104.383 24.6193 105.507 25.221 106.454 26.0493C107.121 26.7235 107.478 27.6437 107.441 28.591C107.502 30.0256 106.918 31.4123 105.849 32.371C104.642 33.3307 103.126 33.8173 101.585 33.7397C100.898 33.7286 100.213 33.6601 99.5369 33.5348L99.5648 33.5255Z" fill="#54575A"/>
<path fill-rule="evenodd" clip-rule="evenodd" d="M111.492 17.9586C112.296 17.9817 113.075 17.6742 113.647 17.1077C114.218 16.5413 114.533 15.7654 114.517 14.9607C114.498 14.204 114.199 13.4813 113.679 12.931C113.125 12.3103 112.323 11.9689 111.492 12C110.977 11.9943 110.472 12.1399 110.039 12.419C109.588 12.6921 109.208 13.0687 108.931 13.5176C108.659 13.9504 108.511 14.4495 108.503 14.9607C108.51 15.7659 108.846 16.5331 109.434 17.0834C109.968 17.6489 110.714 17.9661 111.492 17.9586Z" fill="#54575A"/>
<path fill-rule="evenodd" clip-rule="evenodd" d="M140.381 32.4269C140.117 31.8273 140.009 31.171 140.065 30.5183V22.8652C140.065 20.2211 138.975 18.8804 136.825 18.8804C136.224 18.8838 135.628 18.978 135.056 19.1597C134.429 19.3877 133.837 19.701 133.296 20.0907C132.649 20.5136 132.027 20.9737 131.434 21.4686C131.351 20.8058 131.038 20.1931 130.549 19.7369C129.894 19.1738 129.048 18.8838 128.185 18.9269C127.215 18.9357 126.26 19.1649 125.392 19.5973C124.472 20.0284 123.629 20.6071 122.896 21.3104V18.8804C122.226 19.1224 121.481 19.4111 120.671 19.6531C119.861 19.8952 119.051 20.1838 118.241 20.4352C117.431 20.6866 116.761 20.8542 116.193 20.9938V21.3104C116.743 21.3206 117.249 21.6124 117.534 22.0831C117.85 22.9397 117.984 23.8532 117.925 24.7645V30.5183C117.988 31.1836 117.798 31.8483 117.394 32.3804C117.06 32.7256 116.599 32.9176 116.118 32.9111C115.614 32.9509 115.119 32.7549 114.778 32.3804C114.419 31.8295 114.258 31.1728 114.322 30.5183V18.778C113.232 19.1969 112.096 19.588 110.905 19.9417C109.713 20.2955 108.465 20.64 107.227 20.9286V21.208C107.906 21.2094 108.536 21.5615 108.894 22.139C109.274 23.0188 109.443 23.9753 109.387 24.9321V29.5873C109.439 30.4648 109.306 31.3435 108.996 32.1662C108.732 32.6571 108.213 32.9563 107.655 32.939V33.2555H124.237V32.939C123.817 32.8948 123.44 32.6618 123.213 32.3059C122.954 31.7212 122.845 31.0812 122.896 30.4438V21.9155C123.166 21.6504 123.482 21.436 123.827 21.2824C124.168 21.1117 124.545 21.0255 124.926 21.0311C125.415 20.9965 125.884 21.2277 126.155 21.6362C126.469 22.3074 126.603 23.0483 126.546 23.7869V30.4904C126.6 31.1278 126.491 31.7685 126.229 32.3524C126.01 32.6884 125.643 32.8995 125.243 32.9204V33.2369H132.858V32.9204C132.441 32.8958 132.056 32.6879 131.806 32.3524C131.568 31.7364 131.469 31.0748 131.518 30.4159V21.8783C131.826 21.6037 132.156 21.3546 132.505 21.1335C132.837 20.9349 133.216 20.8258 133.603 20.8169C134.078 20.8063 134.523 21.0516 134.767 21.4593C135.104 22.16 135.249 22.9375 135.186 23.7124V30.4159C135.244 31.0743 135.162 31.7377 134.944 32.3617C134.709 32.7127 134.304 32.9114 133.883 32.8831V33.1997H141.517V32.8831C141.079 33.0056 140.613 32.8185 140.381 32.4269Z" fill="#54575A"/>
<path d="M157 22.9397C156.839 22.1206 156.474 21.3553 155.939 20.7145C155.042 19.5184 153.626 18.8257 152.131 18.8524C151.344 18.8371 150.562 18.9927 149.841 19.3086C149.137 19.6423 148.482 20.0715 147.895 20.5841V18.8431C147.225 19.0945 146.452 19.3366 145.642 19.6252C144.832 19.9138 143.984 20.1466 143.137 20.3979C142.29 20.6493 141.545 20.8541 140.847 21.031V21.3103C141.289 21.3562 141.719 21.4857 142.113 21.6921C142.457 21.9476 142.685 22.3295 142.746 22.7534C142.906 23.4114 142.978 24.0876 142.96 24.7645V34.5403C142.992 35.3459 142.907 36.1518 142.709 36.9331C142.608 37.4048 142.332 37.8206 141.936 38.0969C141.536 38.3278 141.092 38.4736 140.633 38.5252V38.8417H150.083V38.5252C149.449 38.5257 148.841 38.2706 148.398 37.8176C147.996 37.1251 147.82 36.3244 147.895 35.5272V32.8552C148.218 33.1003 148.58 33.2892 148.966 33.4138C149.515 33.5815 150.086 33.6663 150.66 33.6652C151.54 33.6643 152.412 33.4969 153.23 33.1717C154.03 32.8276 154.753 32.3239 155.352 31.6914C155.996 30.9717 156.487 30.1293 156.796 29.2148C157.17 28.173 157.356 27.0727 157.345 25.9655C157.348 24.9341 157.229 23.906 156.991 22.9024L157 22.9397ZM151.247 31.319C150.926 32.1651 150.139 32.7445 149.236 32.7993C148.935 32.8003 148.637 32.7402 148.36 32.6224C148.179 32.5305 148.012 32.4112 147.867 32.2686V21.0962C148.329 20.6867 148.909 20.4355 149.524 20.3793C150.26 20.3793 150.865 20.8728 151.386 21.8224C151.952 23.2831 152.193 24.8492 152.094 26.4124C152.094 28.7028 151.842 30.3321 151.275 31.319H151.247Z" fill="#54575A"/>
<path fill-rule="evenodd" clip-rule="evenodd" d="M157.177 32.9948C157.678 33.0016 158.147 32.7478 158.415 32.3245C158.732 31.5656 158.863 30.7421 158.797 29.9224V18.1076C158.879 17.1095 158.686 16.108 158.238 15.2121C157.915 14.666 157.318 14.3409 156.684 14.3648V14.0483C157.847 13.7597 159.086 13.4804 160.287 13.1173C161.488 12.7542 162.679 12.4469 163.741 12.0652V30.4904C163.687 31.1278 163.796 31.7685 164.057 32.3524C164.302 32.6989 164.695 32.9094 165.119 32.9204V33.2369H157.177V32.9948Z" fill="#54575A"/>
<path d="M179.373 27.6693C178.703 29.3917 177.185 30.2389 174.885 30.2389C173.619 30.2984 172.387 29.81 171.506 28.8983C170.604 27.8217 170.159 26.4347 170.268 25.0345H179.578V24.8576C179.588 23.7422 179.263 22.6494 178.647 21.72C178.01 20.8276 177.158 20.1102 176.17 19.6345C173.82 18.5838 171.119 18.6626 168.834 19.8486C167.679 20.4595 166.714 21.3737 166.041 22.4927C165.319 23.6946 164.951 25.0759 164.979 26.4776C164.951 27.7798 165.273 29.0658 165.91 30.2017C166.542 31.2881 167.46 32.1802 168.564 32.7807C169.742 33.4227 171.068 33.7437 172.409 33.7117C174.125 33.7907 175.813 33.2523 177.166 32.1941C178.494 31.0411 179.385 29.4665 179.69 27.7345L179.373 27.6693ZM170.835 20.7145C171.075 19.9163 171.799 19.3613 172.632 19.3365C172.888 19.3377 173.14 19.3982 173.368 19.5134C173.607 19.6452 173.804 19.8421 173.936 20.0814C174.081 20.3123 174.2 20.5591 174.29 20.8169C174.409 21.1849 174.481 21.5666 174.504 21.9527C174.504 22.4089 174.569 23.042 174.569 23.8148V24.5224H170.23C170.234 23.791 170.28 23.0604 170.37 22.3345C170.474 21.7689 170.629 21.2141 170.835 20.6772V20.7145Z" fill="#54575A"/>
</svg>
