<svg width="168" height="48" viewBox="0 0 168 48" fill="none" xmlns="http://www.w3.org/2000/svg">
<path fill-rule="evenodd" clip-rule="evenodd" d="M44.6462 10.1057L30.4001 37.9552H17.0191L22.981 26.4131H22.7136C17.795 32.7981 10.4564 37.0013 0 37.9552V26.5729C0 26.5729 6.6892 26.1779 10.6216 22.0435H0V10.1059H11.9375V19.9244L12.2055 19.9233L17.0836 10.1059H26.1116V19.8621L26.3796 19.8617L31.4406 10.1057H44.6462Z" fill="#146EF5"/>
<path d="M122.331 34.8814H126.175V12.8135H122.331V34.8814Z" fill="#080808"/>
<path fill-rule="evenodd" clip-rule="evenodd" d="M101.136 34.656C101.972 35.0034 102.821 35.177 103.685 35.177C105.112 35.177 106.389 34.8297 107.516 34.135C108.642 33.4402 109.515 32.4825 110.135 31.2621C110.755 30.0321 111.064 28.638 111.064 27.0794C111.064 25.5209 110.745 24.1267 110.107 22.8968C109.468 21.6669 108.581 20.714 107.445 20.038C106.309 19.3526 105.018 19.0146 103.572 19.024C102.652 19.024 101.77 19.2024 100.925 19.5592C100.08 19.9159 99.3757 20.4229 98.8123 21.0801C98.7688 21.1302 98.7266 21.1807 98.6856 21.2317V12.8276H94.8269V34.8814H98.6575L98.6497 32.8211C98.7489 32.9426 98.8547 33.0612 98.9673 33.1772C99.5776 33.8064 100.3 34.2993 101.136 34.656ZM105.079 31.093C104.45 31.4779 103.732 31.6705 102.925 31.6705C102.127 31.6705 101.394 31.4733 100.728 31.0789C100.061 30.6752 99.5306 30.126 99.1362 29.4313C98.7514 28.7365 98.5589 27.9479 98.5589 27.0654C98.5495 26.1828 98.7373 25.3942 99.1222 24.6994C99.5165 23.9953 100.047 23.4507 100.714 23.0658C101.38 22.6715 102.117 22.479 102.925 22.4884C103.732 22.479 104.45 22.6668 105.079 23.0517C105.718 23.4273 106.206 23.9671 106.544 24.6712C106.891 25.366 107.065 26.1641 107.065 27.0654C107.065 27.9666 106.891 28.7647 106.544 29.4594C106.206 30.1542 105.718 30.6987 105.079 31.093Z" fill="#080808"/>
<path d="M50.2161 14.1514H54.6099L58.5404 28.5056L62.7217 14.1514H66.3832L70.918 28.2175L74.6921 14.1514H78.7198L72.7768 34.8814H68.9884L64.3774 21.1398L60.1445 34.8814H56.3139L50.2161 14.1514Z" fill="#080808"/>
<path fill-rule="evenodd" clip-rule="evenodd" d="M85.2083 35.2475C83.6779 35.2568 82.2979 34.9188 81.0679 34.2335C79.8475 33.5388 78.8851 32.5764 78.181 31.3466C77.4862 30.1166 77.1388 28.713 77.1388 27.1357C77.1388 25.6055 77.4956 24.2206 78.2091 22.9813C78.9226 21.742 79.8897 20.775 81.1101 20.0802C82.3307 19.3855 83.692 19.0381 85.1943 19.0381C86.8842 19.0381 88.3629 19.4136 89.6303 20.1647C90.9072 20.9158 91.8601 21.9814 92.4891 23.3615C93.1275 24.7323 93.3576 26.3049 93.1792 28.0792H81.1162C81.1499 28.7862 81.3262 29.4294 81.6454 30.0086C82.0021 30.647 82.4998 31.1447 83.138 31.5014C83.7765 31.8581 84.4901 32.0365 85.2787 32.0365C85.8796 32.0272 86.4382 31.9239 86.9545 31.7268C87.4709 31.5203 87.9075 31.2432 88.2644 30.8959C88.6304 30.5485 88.8886 30.1542 89.0388 29.713H93.0666C92.8225 30.7926 92.3343 31.755 91.6019 32.5999C90.8696 33.4354 89.9495 34.0879 88.8417 34.5574C87.7337 35.0268 86.5226 35.2568 85.2083 35.2475ZM81.6594 24.2065C81.4344 24.5989 81.2786 25.0214 81.1918 25.474H89.188C89.13 24.9021 88.9535 24.3811 88.6585 23.9108C88.3207 23.3569 87.8606 22.9297 87.2785 22.6292C86.6964 22.3194 86.0392 22.1645 85.3069 22.1645C84.5277 22.1645 83.8189 22.3429 83.1804 22.6996C82.542 23.0564 82.0349 23.5587 81.6594 24.2065Z" fill="#080808"/>
<path d="M113.895 19.362C113.895 18.1039 114.182 16.9867 114.754 16.0103C115.327 15.0245 116.13 14.2593 117.162 13.7148C118.204 13.1608 119.42 12.8745 120.81 12.8557V16.2779C120.162 16.2872 119.608 16.4234 119.148 16.6863C118.697 16.9397 118.35 17.3106 118.106 17.7988C117.881 18.2483 117.76 18.7693 117.742 19.362H120.725V22.6151H117.74V34.8814H113.895V22.6151H111.416V19.362H113.895Z" fill="#080808"/>
<path fill-rule="evenodd" clip-rule="evenodd" d="M135.949 35.2194C134.381 35.2194 132.977 34.8766 131.738 34.1913C130.508 33.4965 129.541 32.5388 128.837 31.3184C128.142 30.0884 127.795 28.6943 127.795 27.1357C127.795 25.5679 128.142 24.169 128.837 22.9391C129.541 21.6998 130.508 20.7374 131.738 20.0521C132.977 19.3667 134.381 19.024 135.949 19.024C137.526 19.024 138.934 19.3667 140.174 20.0521C141.422 20.7374 142.394 21.6951 143.089 22.925C143.783 24.1549 144.136 25.5585 144.145 27.1357C144.136 28.6943 143.783 30.0884 143.089 31.3184C142.403 32.5388 141.436 33.4965 140.188 34.1913C138.939 34.8766 137.526 35.2194 135.949 35.2194ZM135.949 31.6846C136.775 31.6846 137.507 31.4968 138.146 31.1212C138.784 30.7363 139.277 30.201 139.624 29.5157C139.972 28.821 140.145 28.0277 140.145 27.1357C140.145 26.2345 139.972 25.4364 139.624 24.7417C139.277 24.0469 138.784 23.5118 138.146 23.1362C137.507 22.7513 136.775 22.5588 135.949 22.5588C135.132 22.5588 134.404 22.7513 133.766 23.1362C133.137 23.5118 132.649 24.0469 132.301 24.7417C131.954 25.4364 131.785 26.2345 131.794 27.1357C131.794 28.0277 131.968 28.821 132.315 29.5157C132.672 30.201 133.16 30.7363 133.78 31.1212C134.409 31.4968 135.132 31.6846 135.949 31.6846Z" fill="#080808"/>
<path d="M148.299 19.362H144.018L148.651 34.8814H152.398L155.445 24.9692L158.735 34.8814H162.425L167.072 19.362H163.2L160.564 29.0218L157.651 19.362H153.904L151.005 29.2347L148.299 19.362Z" fill="#080808"/>
</svg>
