<svg width="156" height="48" viewBox="0 0 156 48" fill="none" xmlns="http://www.w3.org/2000/svg">
<path d="M152.145 28.4662C152.057 28.9092 151.902 29.2856 151.691 29.6177C151.481 29.9495 151.204 30.2156 150.85 30.4256C150.507 30.6252 150.076 30.7355 149.566 30.7355C149.068 30.7355 148.636 30.6361 148.293 30.4256C147.951 30.2253 147.659 29.9488 147.441 29.6177C147.23 29.286 147.075 28.9092 146.976 28.4662C146.879 28.0266 146.83 27.5774 146.832 27.127C146.832 26.6622 146.877 26.197 146.965 25.7659C147.054 25.3229 147.209 24.9356 147.419 24.6035C147.629 24.2599 147.906 23.9946 148.26 23.7735C148.603 23.5629 149.035 23.4523 149.544 23.4523C150.042 23.4523 150.463 23.5629 150.806 23.7735C151.15 23.9861 151.441 24.2736 151.658 24.6144C151.88 24.9574 152.035 25.3557 152.134 25.7878C152.233 26.2304 152.278 26.6731 152.278 27.127C152.278 27.5809 152.233 28.0236 152.145 28.4662ZM155.09 24.8912C154.879 24.1496 154.569 23.5076 154.149 22.9431C153.717 22.3899 153.186 21.9356 152.544 21.6039C151.901 21.2718 151.127 21.0947 150.23 21.0947C149.522 21.0947 148.879 21.2387 148.293 21.5155C147.706 21.7923 147.219 22.2459 146.843 22.8547H146.799V21.4046H143.832V36.7572H146.954V31.3662H146.998C147.366 31.9078 147.87 32.3431 148.459 32.6283C149.057 32.916 149.699 33.06 150.407 33.06C151.237 33.06 151.968 32.8941 152.599 32.573C153.208 32.261 153.741 31.8188 154.16 31.2778C154.58 30.7355 154.89 30.1154 155.09 29.4072C155.3 28.6987 155.399 27.9686 155.399 27.2045C155.399 26.3966 155.3 25.6219 155.09 24.88V24.8912ZM139.693 28.4662C139.604 28.9092 139.449 29.2856 139.239 29.6177C139.028 29.9498 138.752 30.2156 138.397 30.4256C138.054 30.6252 137.623 30.7355 137.114 30.7355C136.615 30.7355 136.195 30.6361 135.84 30.4256C135.498 30.2251 135.207 29.9487 134.988 29.6177C134.778 29.286 134.623 28.9092 134.524 28.4662C134.426 28.0266 134.378 27.5774 134.38 27.127C134.38 26.6622 134.424 26.197 134.512 25.7659C134.601 25.3229 134.756 24.9356 134.966 24.6035C135.177 24.2599 135.453 23.9946 135.807 23.7735C136.15 23.5629 136.582 23.4523 137.091 23.4523C137.59 23.4523 138.01 23.5629 138.353 23.7735C138.697 23.986 138.988 24.2735 139.205 24.6144C139.427 24.9574 139.582 25.3557 139.682 25.7878C139.781 26.2304 139.825 26.6731 139.825 27.127C139.825 27.5809 139.781 28.0236 139.693 28.4662ZM141.696 22.9431C141.275 22.3899 140.733 21.9356 140.091 21.6039C139.449 21.2718 138.674 21.0947 137.777 21.0947C137.069 21.0947 136.427 21.2387 135.84 21.5155C135.254 21.7923 134.767 22.2459 134.39 22.8547H134.346V21.4046H131.379V36.7572H134.501V31.3662H134.545C134.913 31.9078 135.417 32.3431 136.007 32.6283C136.604 32.916 137.246 33.06 137.954 33.06C138.795 33.06 139.515 32.8941 140.147 32.573C140.755 32.2608 141.288 31.8187 141.707 31.2778C142.128 30.7355 142.438 30.1154 142.648 29.4072C142.852 28.6907 142.957 27.9495 142.958 27.2045C142.958 26.3966 142.858 25.6219 142.648 24.88C142.438 24.1386 142.128 23.4964 141.696 22.9322V22.9431ZM121.151 26.7065L123.199 20.9394H123.244L125.225 26.7065H121.151ZM121.483 17.0654L115.54 32.772H119.015L120.244 29.2744H126.122L127.306 32.772H130.892L125.015 17.0654H121.473H121.483ZM115.285 27.7912C115.074 27.4369 114.809 27.127 114.466 26.8836C114.134 26.6403 113.746 26.4516 113.314 26.297C112.877 26.1533 112.434 26.0278 111.986 25.9209C111.543 25.8209 111.112 25.7212 110.691 25.6328C110.27 25.5444 109.883 25.4445 109.562 25.3339C109.23 25.2233 108.964 25.0796 108.765 24.9021C108.554 24.725 108.455 24.5038 108.455 24.2161C108.455 23.9837 108.51 23.7953 108.632 23.6513C108.754 23.5076 108.898 23.408 109.064 23.3305C109.23 23.253 109.418 23.2086 109.628 23.1868C109.82 23.1656 110.012 23.1546 110.204 23.1537C110.757 23.1537 111.244 23.2643 111.654 23.4745C112.064 23.6847 112.296 24.0943 112.329 24.6919H115.296C115.24 23.9834 115.053 23.408 114.754 22.9428C114.455 22.4776 114.078 22.1128 113.625 21.836C113.171 21.5592 112.651 21.3602 112.075 21.2384C111.499 21.1165 110.901 21.0613 110.282 21.0613C109.662 21.0613 109.064 21.1169 108.478 21.2271C107.891 21.3377 107.36 21.5261 106.895 21.8029C106.419 22.0797 106.042 22.4452 105.766 22.9097C105.478 23.3745 105.334 23.9837 105.334 24.7138C105.334 25.212 105.434 25.6325 105.644 25.9755C105.843 26.3192 106.12 26.6066 106.452 26.839C106.795 27.0605 107.172 27.2488 107.604 27.3925C108.035 27.5362 108.478 27.6584 108.932 27.7577C110.05 27.9901 110.913 28.2226 111.544 28.455C112.164 28.6874 112.474 29.0417 112.474 29.5065C112.474 29.7833 112.408 30.0157 112.275 30.2038C112.145 30.3876 111.974 30.539 111.776 30.6464C111.577 30.757 111.356 30.8348 111.112 30.8898C110.884 30.9418 110.65 30.9678 110.415 30.9673C110.105 30.9673 109.806 30.9345 109.529 30.8567C109.242 30.7792 108.987 30.668 108.766 30.5134C108.544 30.3584 108.367 30.1591 108.224 29.9157C108.08 29.6724 108.013 29.3844 108.013 29.0523H105.047C105.08 29.8158 105.246 30.4468 105.567 30.956C105.877 31.4655 106.286 31.8638 106.773 32.1737C107.261 32.4836 107.825 32.7048 108.456 32.8376C109.087 32.9706 109.729 33.0372 110.393 33.0372C111.035 33.0372 111.677 32.9706 112.297 32.8485C112.917 32.727 113.47 32.5055 113.957 32.1956C114.444 31.8857 114.832 31.4761 115.131 30.9779C115.429 30.469 115.584 29.8492 115.584 29.0963C115.584 28.5653 115.485 28.1226 115.274 27.768L115.285 27.7912ZM102.367 17.9954H99.2457V21.4046H97.3526V23.4964H99.2457V30.2044C99.2457 30.7801 99.3451 31.234 99.5334 31.588C99.7218 31.9426 99.9874 32.2078 100.319 32.4074C100.652 32.5955 101.028 32.7282 101.46 32.7948C101.914 32.8624 102.373 32.8956 102.832 32.8941C103.142 32.8941 103.452 32.8832 103.784 32.8722C104.077 32.8623 104.369 32.8327 104.659 32.7835V30.3593C104.506 30.3938 104.35 30.416 104.194 30.4256C104.025 30.4388 103.855 30.4462 103.685 30.4477C103.153 30.4477 102.81 30.3593 102.633 30.1819C102.456 30.0051 102.367 29.6505 102.367 29.1307V23.4964H104.659V21.4046H102.367V17.9954H102.367ZM93.4121 28.3778C93.4121 28.5546 93.3902 28.7874 93.3568 29.0863C93.3195 29.3921 93.2176 29.6864 93.0578 29.9498C92.8919 30.2378 92.6483 30.4812 92.3053 30.6917C91.9735 30.9017 91.4862 31.0016 90.8776 31.0016C90.634 31.0016 90.3903 30.9791 90.1469 30.9351C89.9145 30.8904 89.7043 30.8129 89.5272 30.7027C89.35 30.5918 89.2173 30.4481 89.1064 30.2488C89.007 30.0607 88.9514 29.8283 88.9514 29.5402C88.9514 29.2413 89.007 29.0089 89.1064 28.8099C89.206 28.6212 89.3497 28.4662 89.5162 28.3338C89.6821 28.2119 89.8814 28.1126 90.1138 28.0351C90.3463 27.9577 90.5677 27.9021 90.8111 27.8577C91.061 27.8147 91.3119 27.7778 91.5636 27.7471C91.8182 27.714 92.051 27.6806 92.2834 27.6365C92.5158 27.5925 92.7261 27.5369 92.9254 27.4706C93.1247 27.4044 93.2906 27.3157 93.4236 27.1939V28.3563L93.4121 28.3778ZM96.5335 30.2484V24.3264C96.5335 23.6404 96.3786 23.0868 96.069 22.6663C95.7591 22.2455 95.3602 21.9247 94.8844 21.6923C94.3974 21.4599 93.866 21.3049 93.2793 21.2165C92.7034 21.1378 92.123 21.0971 91.5418 21.0947C90.9104 21.0947 90.2797 21.1612 89.6599 21.2831C89.0404 21.4049 88.4756 21.6148 87.9774 21.9141C87.4869 22.2059 87.0673 22.6029 86.7487 23.0765C86.4279 23.5635 86.2395 24.1721 86.1955 24.9028H89.3169C89.3722 24.2833 89.5825 23.8516 89.9364 23.5857C90.291 23.3199 90.7667 23.1874 91.3868 23.1874C91.6636 23.1874 91.9288 23.2093 92.1728 23.2427C92.3996 23.2725 92.6179 23.3478 92.8148 23.4642C93.0032 23.5748 93.1469 23.7297 93.2578 23.929C93.3683 24.1283 93.4236 24.3936 93.4236 24.7369C93.4346 25.0577 93.3462 25.3017 93.1356 25.4785C92.9254 25.6444 92.6486 25.7775 92.2946 25.8659C91.9407 25.9543 91.5421 26.0208 91.0882 26.0652C90.6343 26.1095 90.1694 26.1648 89.7046 26.2423C89.2398 26.3198 88.7746 26.4191 88.3098 26.541C87.8449 26.6628 87.435 26.8508 87.0808 27.1058C86.7156 27.36 86.4279 27.6921 86.1955 28.1017C85.9631 28.5225 85.8522 29.0538 85.8522 29.6958C85.8522 30.2825 85.9515 30.7917 86.1511 31.2122C86.338 31.6221 86.6185 31.9824 86.9702 32.264C87.3357 32.5482 87.753 32.7587 88.1989 32.8838C88.6637 33.0166 89.1729 33.0828 89.7152 33.0828C90.4237 33.0828 91.1101 32.9834 91.7851 32.7729C92.4529 32.5691 93.0583 32.1999 93.5452 31.6995C93.5561 31.8876 93.5895 32.0753 93.6226 32.264C93.6558 32.4408 93.711 32.6292 93.7667 32.8063H96.9324C96.7884 32.5739 96.6778 32.2193 96.6226 31.7545C96.564 31.266 96.5343 30.7745 96.5338 30.2825V30.2484H96.5335ZM83.6716 22.3896C83.3617 21.9913 82.941 21.6701 82.4099 21.4486C81.8785 21.2162 81.1925 21.1053 80.3509 21.1053C79.7642 21.1053 79.1666 21.2603 78.5468 21.5592C77.927 21.8582 77.4288 22.3452 77.0305 22.9981H76.9639V17.0764H73.8425V32.7832H76.9639V26.8171C76.9639 25.6547 77.1523 24.8247 77.5397 24.3155C77.9161 23.8063 78.5359 23.5629 79.3881 23.5629C80.1297 23.5629 80.6611 23.7953 80.9488 24.2599C81.2368 24.7247 81.3918 25.4223 81.3918 26.3629V32.7832H84.5132V25.7878C84.5132 25.0793 84.4467 24.4376 84.3249 23.8619C84.203 23.2861 83.9815 22.7882 83.6716 22.3896ZM67.1676 27.9021H67.1232L64.4447 17.0767H61.2124L58.4893 27.7693H58.4449L55.9542 17.0767H52.501L56.6627 32.7835H60.1606L62.7728 22.0906H62.8172L65.4738 32.7835H68.9051L70.7866 25.81L73.1333 17.0767H69.7461L67.1676 27.9021Z" fill="#272525"/>
<path d="M23.2233 42.236C19.4043 42.236 15.8402 41.0848 12.8627 39.1258L5.62333 41.4387L7.97003 34.4433C5.71205 31.3437 4.38407 27.525 4.38407 23.4073C4.38407 13.0246 12.8296 4.57906 23.2123 4.57906C33.5951 4.57906 42.0406 13.0246 42.0406 23.4073C42.0406 33.7898 33.5951 42.2356 23.2123 42.2356H23.2233V42.236ZM23.2233 1.01465C10.8587 1.01465 0.830587 11.0437 0.830587 23.4077C0.830587 27.6359 2.00394 31.5986 4.04043 34.9747L0.000244141 46.9846L12.3979 43.011C15.7116 44.8433 19.4367 45.8032 23.2233 45.8004C35.5875 45.8004 45.616 35.7719 45.616 23.4077C45.6157 11.0437 35.5875 1.01465 23.2233 1.01465Z" fill="#FEFEFE"/>
<path d="M23.2233 4.5791C12.8406 4.5791 4.39502 13.0247 4.39502 23.4074C4.39502 27.525 5.72332 31.3437 7.9813 34.4433L5.6346 41.4387L12.8737 39.1258C15.8511 41.096 19.4043 42.236 23.2342 42.236C33.617 42.236 42.0625 33.7901 42.0625 23.4077C42.0625 13.025 33.617 4.57941 23.2342 4.57941H23.2233V4.5791Z" fill="url(#paint0_linear_201_8165)"/>
<path d="M17.9652 14.1433C17.6001 13.2689 17.3233 13.2358 16.77 13.2133C16.5599 13.1997 16.3495 13.1924 16.139 13.1914C15.4192 13.1914 14.6667 13.4016 14.2128 13.8665C13.6595 14.431 12.2869 15.748 12.2869 18.449C12.2869 21.15 14.2571 23.7622 14.5227 24.1277C14.7994 24.4926 18.3639 30.1157 23.8982 32.4074C28.2261 34.2005 29.5104 34.0343 30.4954 33.8241C31.9343 33.5142 33.7386 32.4511 34.1926 31.1675C34.6465 29.8832 34.6465 28.7874 34.5134 28.5549C34.3806 28.3225 34.0151 28.1901 33.4619 27.913C32.9086 27.6362 30.2186 26.3079 29.7094 26.1308C29.2111 25.9427 28.7353 26.0092 28.3592 26.5406C27.8278 27.2822 27.3077 28.0351 26.8869 28.4887C26.5548 28.843 26.0122 28.8873 25.5586 28.699C24.9498 28.4447 23.2453 27.8464 21.142 25.9758C19.5147 24.526 18.4079 22.7219 18.0871 22.1796C17.7659 21.6264 18.054 21.3049 18.3083 21.0063C18.585 20.6629 18.8506 20.4196 19.1274 20.0984C19.4041 19.7776 19.5591 19.6114 19.7362 19.235C19.9246 18.8698 19.7915 18.4934 19.6587 18.2166C19.526 17.9398 18.4192 15.2388 17.9652 14.1433Z" fill="#FEFEFE"/>
<defs>
<linearGradient id="paint0_linear_201_8165" x1="-137.133" y1="-58.5032" x2="-137.133" y2="-57.1216" gradientUnits="userSpaceOnUse">
<stop stop-color="#6EBF61"/>
<stop offset="0.231" stop-color="#50A557"/>
<stop offset="0.522" stop-color="#2A904F"/>
<stop offset="0.812" stop-color="#50A557"/>
<stop offset="1" stop-color="#6EBF63"/>
</linearGradient>
</defs>
</svg>
