<svg width="48" height="48" viewBox="0 0 48 48" fill="none" xmlns="http://www.w3.org/2000/svg">
<g clip-path="url(#clip0_201_8170)">
<path d="M23.9993 0.0478516C10.7432 0.0478516 0 10.6522 0 23.732C0 36.8108 10.7432 47.4163 23.9993 47.4163C37.2514 47.4163 48 36.8108 48 23.732C48 10.6522 37.2514 0.0478516 23.9993 0.0478516Z" fill="#13B5EA"/>
<path d="M17.5928 22.739C18.0235 21.0566 19.5418 19.8823 21.2862 19.8823C23.0395 19.8823 24.5506 21.0536 24.9833 22.739H17.5928ZM26.3249 23.7612C26.5722 23.4577 26.6652 23.0607 26.5862 22.6422C26.2646 21.1256 25.4375 19.9109 24.1944 19.1292C23.3405 18.5885 22.3441 18.3029 21.3125 18.3029C20.1745 18.3029 19.091 18.644 18.179 19.2894C16.7537 20.2989 15.9029 21.9478 15.9029 23.7007C15.9029 24.1407 15.9576 24.5775 16.0651 24.9988C16.613 27.1333 18.4553 28.7476 20.6496 29.0159C20.8618 29.0411 21.0743 29.054 21.281 29.054C21.7206 29.054 22.1484 28.9982 22.5879 28.8843C23.1595 28.7475 23.7039 28.5169 24.2068 28.1994C24.6818 27.8928 25.1193 27.4798 25.5794 26.9037L25.6095 26.8726C25.7627 26.6821 25.834 26.4373 25.8049 26.2011C25.7787 25.9897 25.6772 25.8072 25.5191 25.6874C25.3691 25.5723 25.1903 25.5089 25.0161 25.5089C24.8461 25.5089 24.5966 25.5702 24.3708 25.8632L24.3531 25.8866C24.2786 25.9857 24.2014 26.088 24.1128 26.1896C23.8086 26.5298 23.4591 26.81 23.0746 27.0223C22.5241 27.3147 21.9293 27.4651 21.3082 27.4695C19.357 27.4482 18.162 26.1549 17.6951 24.9536C17.6218 24.7373 17.5694 24.5399 17.5358 24.3569C17.5352 24.3383 17.5338 24.3188 17.5326 24.2998L25.0872 24.2984C25.612 24.2873 26.0516 24.0965 26.3249 23.7612Z" fill="white"/>
<path d="M37.3342 22.2409C36.5757 22.2409 35.9585 22.8539 35.9585 23.6073C35.9585 24.3609 36.5757 24.9741 37.3342 24.9741C38.0914 24.9741 38.7073 24.3609 38.7073 23.6073C38.7073 22.8539 38.0914 22.2409 37.3342 22.2409Z" fill="white"/>
<path d="M32.3226 19.1605C32.3226 18.7314 31.9704 18.3823 31.5384 18.3823L31.3176 18.379C30.6475 18.379 30.0139 18.5836 29.48 18.9714C29.3779 18.6574 29.0789 18.4366 28.7418 18.4366C28.3072 18.4366 27.9649 18.7758 27.9622 19.209L27.9647 28.1753C27.9676 28.6024 28.3167 28.9499 28.7431 28.9499C29.1721 28.9499 29.5214 28.6023 29.5214 28.1749V22.6607C29.5214 20.8741 29.6759 20.1273 31.2303 19.9359C31.3593 19.9206 31.4977 19.9197 31.5328 19.9197C31.9904 19.9032 32.3226 19.5839 32.3226 19.1605Z" fill="white"/>
<path d="M11.8211 23.6651L15.8527 19.6377C16.0001 19.4936 16.0814 19.2999 16.0814 19.0924C16.0814 18.664 15.7298 18.3154 15.2978 18.3154C15.0887 18.3154 14.8913 18.3979 14.7426 18.5473L10.7108 22.5544L6.66289 18.5399C6.5153 18.3952 6.31972 18.3154 6.11195 18.3154C5.682 18.3154 5.33228 18.664 5.33228 19.0924C5.33228 19.3004 5.41573 19.4977 5.56725 19.6478L9.60172 23.6619L5.57334 27.6811C5.4179 27.8288 5.33228 28.0271 5.33228 28.2392C5.33228 28.6675 5.682 29.0161 6.11195 29.0161C6.31656 29.0161 6.51214 28.9368 6.6632 28.792L10.7068 24.7688L14.7329 28.7731C14.8873 28.9311 15.0878 29.0181 15.2978 29.0181C15.7298 29.0181 16.0814 28.6687 16.0814 28.2392C16.0814 28.0342 16.0002 27.8398 15.853 27.6917L11.8211 23.6651Z" fill="white"/>
<path d="M37.333 27.3652C35.2503 27.3652 33.5561 25.6795 33.5561 23.6073C33.5561 21.5329 35.2503 19.8451 37.333 19.8451C39.4135 19.8451 41.106 21.5329 41.106 23.6073C41.106 25.6795 39.4135 27.3652 37.333 27.3652ZM37.3339 18.2437C34.3633 18.2437 31.9464 20.6497 31.9464 23.6071C31.9464 26.5637 34.3633 28.9691 37.3339 28.9691C40.3032 28.9691 42.7189 26.5637 42.7189 23.6071C42.7189 20.6497 40.3032 18.2437 37.3339 18.2437Z" fill="white"/>
</g>
<defs>
<clipPath id="clip0_201_8170">
<rect width="48" height="48" fill="white"/>
</clipPath>
</defs>
</svg>
