<svg width="132" height="48" viewBox="0 0 132 48" fill="none" xmlns="http://www.w3.org/2000/svg">
<g clip-path="url(#clip0_201_8173)">
<path d="M21.8954 37.9727L13.2919 37.8153C10.5062 37.7605 7.71363 37.87 4.98269 37.3019C0.828101 36.4532 0.533789 32.2918 0.225788 28.8011C-0.198569 23.8936 -0.0343018 18.8971 0.7665 14.0307C1.21823 11.2998 2.9978 9.6708 5.74927 9.49285C15.0372 8.84947 24.3867 8.92475 33.6541 9.22591C34.6329 9.25329 35.6185 9.40387 36.5836 9.57498C41.3473 10.41 41.4637 15.1258 41.7717 19.0956C42.0797 23.1065 41.9496 27.1379 41.361 31.1214C40.8887 34.4204 39.9853 37.1856 36.1729 37.4525C31.3955 37.8016 26.7275 38.0822 21.9364 37.9932C21.9364 37.9727 21.909 37.9727 21.8954 37.9727ZM16.8373 29.6224C20.4375 27.5554 23.9692 25.5226 27.5489 23.4692C23.9418 21.4022 20.417 19.3694 16.8373 17.3161V29.6224Z" fill="#FF0000"/>
<path d="M111.003 34.2216C110.839 34.8923 110.695 35.4194 110.552 35.9806H107.184V10.0059H111.113V19.5881C111.318 19.328 111.421 19.2185 111.51 19.1022C112.181 18.1782 113.05 17.5758 114.172 17.3431C115.959 16.9941 117.485 17.7812 118.026 19.4991C118.375 20.5669 118.601 21.7099 118.628 22.8255C118.683 25.6934 118.642 28.5544 118.539 31.4222C118.498 32.2983 118.231 33.1949 117.896 34.0162C116.794 36.7266 113.194 37.1373 111.407 34.7897C111.298 34.6459 111.195 34.4885 111.003 34.2216ZM111.195 31.826C111.195 32.5994 111.606 33.0717 112.379 33.2497C113.139 33.4276 113.755 33.1333 114.063 32.4283C114.193 32.134 114.323 31.826 114.33 31.518C114.405 28.616 114.474 25.7139 114.494 22.805C114.494 22.2643 114.364 21.703 114.2 21.176C113.892 20.2246 113.043 19.944 112.208 20.4984C111.578 20.9228 111.195 21.5251 111.195 22.3259V31.826ZM100.518 17.7127H104.631V35.9943H101.421C101.305 35.303 101.188 34.5912 101.052 33.7561C100.833 34.0778 100.703 34.2832 100.566 34.4885C99.4979 36.0285 97.9853 36.5555 96.1989 36.2749C94.6725 36.0285 93.7554 34.8513 93.55 32.9211C93.4884 32.3462 93.4611 31.7644 93.4611 31.1895C93.4474 26.9117 93.4611 22.6202 93.4611 18.3424V17.699H97.6225V18.4451C97.6225 22.5791 97.6088 26.7064 97.6362 30.8404C97.6362 31.429 97.6978 32.0382 97.8005 32.6268C97.9168 33.2291 98.3549 33.4481 98.9435 33.4071C99.8949 33.3318 100.552 32.6268 100.552 31.6823V18.5204C100.518 18.2534 100.518 18.007 100.518 17.7127ZM72.1953 17.699H76.3294V18.4725C76.3294 22.586 76.3157 26.6927 76.3431 30.7925C76.3431 31.3811 76.3978 31.9903 76.521 32.5652C76.6784 33.2428 77.0754 33.4618 77.753 33.3729C78.6907 33.2428 79.2588 32.5926 79.2656 31.6412V17.7264H83.3792V35.9943H80.1828C80.0664 35.3167 79.9501 34.6186 79.7995 33.7356C79.5942 34.0436 79.4778 34.2216 79.3615 34.4064C78.2937 35.9738 76.7948 36.5487 74.9673 36.2681C73.5026 36.049 72.606 34.9676 72.3322 33.1949C72.2569 32.6405 72.2022 32.0929 72.2022 31.5385C72.1885 27.0965 72.1885 22.6339 72.1885 18.1918L72.1953 17.699ZM70.0735 27.4592C70.0598 28.0752 70.0188 28.6912 69.9846 29.3072C69.8271 31.1553 69.7518 33.7767 68.2597 35.125C67.3084 35.9738 66.1037 36.2818 64.858 36.3228C64.3036 36.3365 63.7424 36.3365 63.188 36.2612C60.5666 35.8642 59.3482 34.7075 58.9102 31.826C58.4106 28.4996 58.3695 25.1184 58.965 21.792C59.581 18.3493 61.7027 17.1309 65.0018 17.3568C68.0818 17.5758 69.4575 19.595 69.8203 22.4696C70.0188 24.1191 70.1146 25.7892 70.0735 27.4592ZM65.8847 26.8296C65.8847 25.6591 65.9121 24.4819 65.871 23.3115C65.8436 22.6339 65.7547 21.9494 65.6109 21.2787C65.4467 20.5053 64.9539 20.1357 64.3379 20.1494C63.7356 20.163 63.3112 20.5326 63.0922 21.2513C63.0169 21.5182 62.9347 21.792 62.9347 22.059C62.9347 23.8933 62.9211 25.7344 62.9074 27.5688C62.8937 29.2799 62.6747 31.0731 63.2154 32.7089C63.3796 33.2086 63.804 33.4824 64.3584 33.4824C64.8991 33.4824 65.255 33.2154 65.4535 32.7363C65.6109 32.3667 65.7478 31.9629 65.7478 31.5659C65.7957 29.9917 65.8847 28.4106 65.8847 26.8296ZM52.8734 23.3868C53.2361 21.6141 53.5784 19.8824 53.9548 18.1439C54.4271 15.9332 54.9541 13.7224 55.4195 11.5048C55.5359 10.9641 55.7549 10.834 56.2682 10.8477C57.3702 10.8888 58.4927 10.8614 59.6699 10.8614C59.2866 12.2714 58.9102 13.6129 58.5406 14.9339C57.3702 19.0816 56.1998 23.2431 55.0431 27.4045C54.9541 27.7262 54.913 28.0752 54.913 28.4175C54.8993 30.6898 54.913 32.9553 54.913 35.2277V35.9669H50.8953C50.8816 35.7616 50.8543 35.5562 50.8543 35.3509C50.8543 34.0641 50.7516 32.7705 50.868 31.4975C51.1623 28.438 50.1904 25.6249 49.4032 22.7776C48.3629 19.0132 47.3088 15.235 46.2685 11.4706C46.2137 11.2926 46.1932 11.101 46.1384 10.882H50.2383C51.1007 15.0365 51.9699 19.1911 52.8734 23.3868ZM131.482 28.1574H124.555C124.631 29.5468 124.658 30.8678 124.802 32.1751C124.905 33.0854 125.404 33.4755 126.191 33.4824C127.013 33.4961 127.492 33.0854 127.683 32.1819C127.745 31.8876 127.786 31.5933 127.813 31.2921C127.841 31.0252 127.855 30.7377 127.875 30.3545C129.045 30.416 130.188 30.4845 131.318 30.5324C131.975 32.4831 130.791 34.9882 128.799 35.7616C127.232 36.3776 125.623 36.3776 124.022 35.9053C122.838 35.5562 121.955 34.8034 121.558 33.6466C121.188 32.5652 120.839 31.4359 120.764 30.3065C120.558 27.5208 120.483 24.7078 120.907 21.9152C120.983 21.4498 121.113 21.0049 121.256 20.5532C121.831 18.6915 123.084 17.5485 125.021 17.3568C126.075 17.2541 127.163 17.2952 128.204 17.4732C129.887 17.7675 130.784 18.979 131.174 20.5669C131.352 21.3129 131.482 22.0795 131.509 22.8392C131.516 24.5846 131.482 26.3162 131.482 28.1574ZM127.547 25.755C127.547 24.3792 127.56 23.0856 127.533 21.7852C127.533 21.4772 127.416 21.1555 127.3 20.8612C127.067 20.2862 126.581 20.1288 126 20.1288C125.418 20.1288 125.048 20.4231 124.905 20.9502C124.466 22.5312 124.61 24.1465 124.624 25.7687C125.671 25.755 126.623 25.755 127.547 25.755Z" fill="#282828"/>
<path d="M86.5549 14.2152H82.4824V10.9161H94.6382V14.1946H90.5931V35.9669H86.5617L86.5549 14.2152Z" fill="#282828"/>
</g>
<defs>
<clipPath id="clip0_201_8173">
<rect width="132" height="48" fill="white"/>
</clipPath>
</defs>
</svg>
