<svg width="96" height="48" viewBox="0 0 96 48" fill="none" xmlns="http://www.w3.org/2000/svg">
<path d="M0 35.3964L9.85444 20.0626H1.16739C1.09377 19.6209 1.06222 19.1371 1.06222 18.6007C1.06222 18.0854 1.09377 17.6121 1.16739 17.1809H15.2286L15.4074 17.6542L5.47936 33.0195H14.7869C14.8605 33.5033 14.8921 34.0081 14.8921 34.5129C14.8921 34.9967 14.8605 35.4595 14.7869 35.9012H0.178789L0 35.3964Z" fill="#FF4A00"/>
<path d="M28.4381 23.5649C28.4381 22.1241 28.07 21.1355 27.3443 20.5676C26.6186 20.0102 25.5564 19.7262 24.1682 19.7262C23.3163 19.7262 22.517 19.7893 21.7808 19.926C21.0341 20.0628 20.3189 20.231 19.6038 20.4519C19.141 19.6526 18.9097 18.685 18.9097 17.5702C19.7405 17.3073 20.645 17.097 21.6441 16.9497C22.6432 16.8025 23.6002 16.7289 24.5257 16.7289C26.9552 16.7289 28.8062 17.2863 30.0787 18.3906C31.3408 19.4949 31.9823 21.2722 31.9823 23.7017V35.4176C31.1304 35.6069 30.0998 35.8172 28.8798 36.0171C27.6598 36.2274 26.4188 36.3221 25.1568 36.3221C23.9683 36.3221 22.8851 36.2169 21.928 35.996C20.971 35.7752 20.1507 35.4281 19.4776 34.9338C18.8045 34.45 18.2892 33.8295 17.9211 33.0723C17.553 32.3151 17.3742 31.4001 17.3742 30.3379C17.3742 29.2967 17.5845 28.3712 18.0157 27.5824C18.4364 26.7937 19.0148 26.1311 19.751 25.6157C20.4767 25.0899 21.3181 24.7008 22.2751 24.4484C23.2216 24.196 24.2207 24.0592 25.2724 24.0592C26.0507 24.0592 26.6922 24.0803 27.1865 24.1118C27.6808 24.1434 28.1015 24.196 28.4486 24.238V23.5649H28.4381ZM28.4381 27.1092C28.07 27.0566 27.6072 27.0145 27.0498 26.9619C26.4924 26.9093 26.0192 26.8883 25.63 26.8883C24.1156 26.8883 22.9692 27.1723 22.1804 27.7297C21.3917 28.2871 20.992 29.1389 20.992 30.2853C20.992 31.011 21.1287 31.5894 21.3917 31.9996C21.6546 32.4097 21.9911 32.7252 22.3908 32.9461C22.7904 33.167 23.2321 33.3037 23.7264 33.3458C24.2102 33.3983 24.673 33.4194 25.1147 33.4194C25.6721 33.4194 26.2505 33.3878 26.85 33.3247C27.4495 33.2616 27.9753 33.1775 28.4381 33.0513V27.1092Z" fill="#FF4A00"/>
<path d="M35.9261 17.1817C36.168 17.1291 36.4204 17.0976 36.6728 17.0765C36.9252 17.0555 37.1881 17.045 37.4616 17.045C37.7035 17.045 37.9559 17.0555 38.2293 17.0765C38.4922 17.0976 38.7552 17.1396 38.9971 17.1817C39.0181 17.2343 39.0496 17.3815 39.0917 17.6339C39.1233 17.8863 39.1653 18.1598 39.1969 18.4543C39.2284 18.7487 39.2705 19.0222 39.3021 19.2956C39.3336 19.5691 39.3546 19.7373 39.3546 19.811C39.5965 19.4218 39.891 19.0432 40.2276 18.6751C40.5641 18.307 40.9743 17.981 41.4475 17.6865C41.9208 17.392 42.4572 17.1607 43.0566 16.9924C43.6561 16.8241 44.3187 16.74 45.0443 16.74C46.1381 16.74 47.1583 16.9188 48.0943 17.2869C49.0303 17.655 49.8296 18.2124 50.5027 18.9801C51.1758 19.7479 51.6911 20.7259 52.0697 21.9038C52.4483 23.0817 52.6376 24.4805 52.6376 26.0896C52.6376 29.3078 51.7647 31.8214 50.0294 33.6303C48.2836 35.4392 45.8226 36.3542 42.6359 36.3542C42.0996 36.3542 41.5527 36.3227 40.9953 36.249C40.4379 36.1754 39.9436 36.0808 39.5334 35.9546V44.5364C39.239 44.589 38.934 44.6206 38.5974 44.6416C38.2714 44.6626 37.9664 44.6732 37.7035 44.6732C37.4405 44.6732 37.1356 44.6626 36.8095 44.6416C36.4835 44.6206 36.1785 44.5785 35.9156 44.5364V17.1817H35.9261ZM39.5439 32.8415C40.0067 33.0098 40.48 33.136 40.9637 33.2096C41.4475 33.2832 42.0785 33.3148 42.8673 33.3148C43.7402 33.3148 44.55 33.1781 45.2757 32.8941C46.0014 32.6102 46.6324 32.179 47.1583 31.6005C47.6841 31.0116 48.0943 30.2754 48.3993 29.3919C48.7043 28.5085 48.8515 27.4463 48.8515 26.2368C48.8515 24.2912 48.4939 22.7452 47.7788 21.5988C47.0636 20.4525 45.8857 19.8846 44.2556 19.8846C43.6456 19.8846 43.0671 19.9897 42.4992 20.2106C41.9418 20.4315 41.437 20.7575 41.0058 21.1992C40.5641 21.6409 40.217 22.1878 39.9436 22.8609C39.6702 23.534 39.5439 24.3227 39.5439 25.2482V32.8415Z" fill="#FF4A00"/>
<path d="M57.1389 20.0205H54.762C54.7095 19.8207 54.6779 19.5998 54.6569 19.3474C54.6358 19.095 54.6253 18.8426 54.6253 18.6007C54.6253 18.3588 54.6358 18.1064 54.6569 17.854C54.6779 17.6016 54.72 17.3702 54.762 17.1809H60.6831V35.9117C60.4202 35.9643 60.1152 35.9958 59.7892 36.0169C59.4631 36.0379 59.1581 36.0484 58.8952 36.0484C58.6533 36.0484 58.3694 36.0379 58.0328 36.0169C57.7068 35.9958 57.4018 35.9538 57.1389 35.9117V20.0205Z" fill="#FF4A00"/>
<path d="M68.4552 27.4355C68.5078 29.4758 69.0336 30.9797 70.0432 31.9262C71.0529 32.8728 72.5463 33.346 74.513 33.346C76.2378 33.346 77.8889 33.041 79.4454 32.431C79.6453 32.7991 79.803 33.2408 79.9187 33.7667C80.0449 34.2925 80.108 34.8079 80.1396 35.3232C79.3403 35.6598 78.4569 35.9227 77.4893 36.091C76.5322 36.2592 75.4595 36.3434 74.2921 36.3434C72.5884 36.3434 71.1265 36.1015 69.9065 35.6282C68.6866 35.1549 67.6874 34.4819 66.8987 33.6195C66.1099 32.7571 65.5314 31.7369 65.1634 30.5485C64.7953 29.3706 64.6165 28.077 64.6165 26.6572C64.6165 25.269 64.7953 23.9754 65.1423 22.7659C65.4894 21.5564 66.0363 20.5153 66.7619 19.6213C67.4876 18.7379 68.4131 18.0227 69.5174 17.5074C70.6217 16.9816 71.9363 16.7186 73.4402 16.7186C74.7338 16.7186 75.8591 16.9395 76.8372 17.3812C77.8153 17.8229 78.6251 18.4224 79.2877 19.1901C79.9398 19.9579 80.4446 20.8728 80.7811 21.9245C81.1177 22.9868 81.2964 24.1331 81.2964 25.3741C81.2964 25.7107 81.2859 26.0788 81.2544 26.4469C81.2333 26.8255 81.2018 27.1515 81.1808 27.4144H68.4552V27.4355ZM77.7312 24.7326C77.7312 24.049 77.6365 23.3969 77.4577 22.7764C77.2789 22.1559 77.0055 21.6196 76.6584 21.1568C76.3009 20.6941 75.8591 20.326 75.3123 20.042C74.7654 19.758 74.1133 19.6213 73.3561 19.6213C71.8732 19.6213 70.7374 20.0736 69.9381 20.9675C69.1493 21.872 68.6655 23.1235 68.4972 24.7326H77.7312Z" fill="#FF4A00"/>
<path d="M85.293 17.1809C85.5559 17.1283 85.8188 17.0968 86.0607 17.0757C86.3026 17.0547 86.555 17.0442 86.8285 17.0442C87.0914 17.0442 87.3648 17.0547 87.6278 17.0757C87.8907 17.0968 88.1431 17.1388 88.3534 17.1809C88.427 17.549 88.5007 18.0223 88.5743 18.6217C88.6479 19.2212 88.6795 19.726 88.6795 20.1362C89.1948 19.3053 89.8679 18.5902 90.7092 17.9802C91.5506 17.3702 92.6233 17.0652 93.938 17.0652C94.1378 17.0652 94.3376 17.0757 94.5374 17.0863C94.7478 17.0968 94.916 17.1178 95.0633 17.1388C95.1159 17.3597 95.1474 17.5911 95.1684 17.833C95.1895 18.0749 95.2 18.3273 95.2 18.6007C95.2 18.8952 95.179 19.2002 95.1474 19.5157C95.1159 19.8312 95.0633 20.1362 95.0212 20.4307C94.8214 20.3781 94.6216 20.357 94.4217 20.357C94.2114 20.357 94.0536 20.357 93.9274 20.357C93.2754 20.357 92.6444 20.4517 92.0449 20.6305C91.4454 20.8093 90.9091 21.1353 90.4358 21.5981C89.9625 22.0608 89.5839 22.6918 89.3 23.5016C89.016 24.3009 88.8793 25.3421 88.8793 26.6041V35.9117C88.6163 35.9643 88.3114 35.9958 87.9853 36.0169C87.6593 36.0379 87.3543 36.0484 87.0914 36.0484C86.8285 36.0484 86.5235 36.0379 86.1974 36.0169C85.8714 35.9958 85.5559 35.9538 85.2614 35.9117V17.1809H85.293Z" fill="#FF4A00"/>
<path d="M64.122 6.15949H60.5883L63.0914 3.65644C62.8916 3.383 62.6707 3.12008 62.4393 2.87819C62.1974 2.63629 61.945 2.41544 61.6611 2.22613L59.158 4.72918V1.19546C58.832 1.14288 58.4954 1.11133 58.1484 1.11133H58.1379C57.7908 1.11133 57.4543 1.14288 57.1282 1.19546V4.72918L54.6252 2.22613C54.3517 2.42595 54.0888 2.64681 53.8469 2.87819C53.605 3.12008 53.3947 3.37249 53.1949 3.65644L55.7084 6.15949H52.1747C52.1747 6.15949 52.0906 6.82206 52.0906 7.16913C52.0906 7.51619 52.1221 7.85273 52.1747 8.17876H55.7084L53.2054 10.6818C53.5945 11.2287 54.0783 11.7125 54.6357 12.1121L57.1387 9.60907V13.1428C57.4648 13.1954 57.8013 13.2269 58.1484 13.2269H58.1589C58.506 13.2269 58.8425 13.1954 59.1685 13.1428V9.60907L61.6716 12.1121C61.945 11.9123 62.2079 11.6914 62.4498 11.4601C62.6917 11.2182 62.9126 10.9658 63.1019 10.6818L60.5988 8.17876H64.1326C64.1851 7.85273 64.2167 7.51619 64.2167 7.16913V7.15861C64.2062 6.82206 64.1851 6.48552 64.122 6.15949ZM59.6628 7.17964C59.6628 7.63187 59.5787 8.06307 59.4314 8.46272C59.0318 8.60996 58.6006 8.69409 58.1484 8.69409C57.6961 8.69409 57.2649 8.60996 56.8653 8.46272C56.7181 8.06307 56.6339 7.63187 56.6339 7.17964V7.16913C56.6339 6.71689 56.7181 6.2857 56.8653 5.88605C57.2649 5.73881 57.6961 5.65468 58.1484 5.65468C58.6006 5.65468 59.0318 5.73881 59.4314 5.88605C59.5787 6.2857 59.6628 6.71689 59.6628 7.17964Z" fill="#FF4A00"/>
</svg>
