<svg width="512" height="512" viewBox="0 0 512 512" fill="none" xmlns="http://www.w3.org/2000/svg">
<g clip-path="url(#clip0_6_3)">
<g clip-path="url(#clip1_6_3)">
<rect width="512" height="512" rx="30" fill="black"/>
<path d="M406.336 125.563L386.37 105.597C384.615 103.824 382.526 102.416 380.223 101.455C377.921 100.495 375.45 100 372.955 100C370.46 100 367.99 100.495 365.688 101.455C363.385 102.416 361.296 103.824 359.541 105.597L105.597 359.541C103.824 361.296 102.416 363.385 101.455 365.688C100.495 367.99 100 370.46 100 372.955C100 375.45 100.495 377.921 101.455 380.223C102.416 382.526 103.824 384.615 105.597 386.37L125.563 406.336C127.307 408.129 129.393 409.553 131.697 410.526C134.001 411.499 136.477 412 138.978 412C141.479 412 143.955 411.499 146.259 410.526C148.563 409.553 150.648 408.129 152.393 406.336L406.336 152.393C408.129 150.648 409.553 148.563 410.526 146.259C411.499 143.955 412 141.479 412 138.978C412 136.477 411.499 134.001 410.526 131.697C409.553 129.393 408.129 127.307 406.336 125.563Z" stroke="white" stroke-width="32" stroke-linecap="round" stroke-linejoin="round"/>
<path d="M287 178L334 225" stroke="white" stroke-width="32" stroke-linecap="round" stroke-linejoin="round"/>
<path d="M147 162V225" stroke="white" stroke-width="32" stroke-linecap="round" stroke-linejoin="round"/>
<path d="M365 287V350" stroke="white" stroke-width="32" stroke-linecap="round" stroke-linejoin="round"/>
<path d="M225 100V131" stroke="white" stroke-width="32" stroke-linecap="round" stroke-linejoin="round"/>
<path d="M178 194H116" stroke="white" stroke-width="32" stroke-linecap="round" stroke-linejoin="round"/>
<path d="M396 318H334" stroke="white" stroke-width="32" stroke-linecap="round" stroke-linejoin="round"/>
<path d="M240 116H209" stroke="white" stroke-width="32" stroke-linecap="round" stroke-linejoin="round"/>
</g>
</g>
<defs>
<clipPath id="clip0_6_3">
<rect width="512" height="512" fill="white"/>
</clipPath>
<clipPath id="clip1_6_3">
<rect width="512" height="512" fill="white"/>
</clipPath>
</defs>
</svg>
