<svg width="256" height="256" viewBox="0 0 256 256" fill="none" xmlns="http://www.w3.org/2000/svg">
<rect width="256" height="256" rx="128" fill="url(#paint0_linear_601_4643)"/>
<rect width="256" height="256" rx="128" fill="url(#paint1_linear_601_4643)"/>
<path d="M124.157 193.675C123.939 193.783 123.722 193.837 123.505 193.837C123.287 193.837 122.852 193.837 122.2 193.837C120.678 193.837 118.884 193.567 116.818 193.025C114.862 192.591 112.905 191.995 110.948 191.236C109.099 190.586 107.469 189.828 106.055 188.961C104.751 188.094 103.935 187.335 103.609 186.685C103.501 185.167 103.446 183.596 103.446 181.97C103.446 180.345 103.446 178.773 103.446 177.256C103.446 165.118 104.316 152.438 106.055 139.217C107.904 125.995 110.893 111.69 115.025 96.3005C115.459 94.7833 115.894 92.8867 116.329 90.6108C116.873 88.2266 117.416 85.6798 117.96 82.9704C115.351 85.0296 112.252 88.335 108.665 92.8867C105.077 97.3301 101.272 102.64 97.2492 108.818C93.3354 114.887 89.3672 121.606 85.3446 128.975C81.4308 136.236 77.8431 143.66 74.5815 151.246C71.32 158.724 68.4933 166.148 66.1015 173.517C63.8185 180.887 62.4051 187.714 61.8615 194C56.6431 192.483 53.001 190.966 50.9354 189.448C48.9785 187.931 48 186.089 48 183.921C48 181.97 48.5979 179.207 49.7938 175.631C50.9897 172.054 52.6749 167.828 54.8492 162.951C57.0236 158.074 59.6872 152.655 62.84 146.695C65.9928 140.626 69.4718 134.123 73.2769 127.187C77.6256 119.276 81.8656 111.852 85.9969 104.916C90.2369 97.9803 94.3682 91.6946 98.3908 86.0591C102.413 80.4236 106.327 75.5468 110.132 71.4286C114.046 67.3104 117.906 64.1675 121.711 62C123.233 62 125.244 62.3793 127.745 63.1379C130.354 63.8966 132.854 64.8177 135.246 65.9015C137.747 66.9852 139.921 68.1232 141.769 69.3153C143.726 70.399 144.813 71.3202 145.031 72.0788C143.509 75.1133 141.715 79.665 139.649 85.734C137.584 91.803 135.464 98.6847 133.289 106.379C131.224 114.074 129.212 122.256 127.255 130.926C125.407 139.488 123.939 147.724 122.852 155.635C125.353 149.675 128.234 143.498 131.495 137.103C134.866 130.601 138.399 124.207 142.095 117.921C145.792 111.527 149.543 105.35 153.348 99.3892C157.262 93.4286 161.067 88.0099 164.763 83.133C168.459 78.1478 171.884 73.8128 175.037 70.1281C178.298 66.4434 181.179 63.734 183.68 62C185.202 62 187.213 62.3793 189.714 63.1379C192.323 63.8966 194.824 64.8177 197.215 65.9015C199.716 66.9852 201.89 68.1232 203.738 69.3153C205.695 70.399 206.783 71.3202 207 72.0788C203.521 78.2562 200.477 85.7882 197.868 94.6749C195.258 103.562 193.03 112.882 191.182 122.635C189.442 132.389 188.083 142.089 187.105 151.734C186.235 161.271 185.8 169.833 185.8 177.419C185.8 179.911 185.8 182.512 185.8 185.222C185.8 187.931 185.909 190.749 186.126 193.675C184.604 193.675 182.756 193.458 180.582 193.025C178.516 192.7 176.45 192.212 174.385 191.562C172.428 190.911 170.634 190.153 169.003 189.286C167.372 188.527 166.231 187.66 165.578 186.685C165.47 185.167 165.415 183.596 165.415 181.97C165.415 180.345 165.415 178.773 165.415 177.256C165.415 165.118 166.285 152.438 168.025 139.217C169.873 125.995 172.863 111.69 176.994 96.3005C177.429 94.7833 177.918 92.7241 178.462 90.1232C179.005 87.5222 179.549 84.8128 180.092 81.9951C177.048 83.5123 173.569 86.4384 169.655 90.7734C165.85 95 161.936 100.202 157.914 106.379C154 112.448 150.086 119.222 146.172 126.7C142.367 134.177 138.888 141.818 135.735 149.621C132.691 157.315 130.082 165.01 127.908 172.704C125.842 180.291 124.592 187.281 124.157 193.675Z" fill="white"/>
<defs>
<linearGradient id="paint0_linear_601_4643" x1="128" y1="0" x2="128" y2="256" gradientUnits="userSpaceOnUse">
<stop stop-color="#EF786F"/>
<stop offset="1" stop-color="#D8595E"/>
</linearGradient>
<linearGradient id="paint1_linear_601_4643" x1="78" y1="3.7012e-06" x2="236" y2="256" gradientUnits="userSpaceOnUse">
<stop stop-color="#9E7AFF"/>
<stop offset="0.333333" stop-color="#FE8BBB"/>
<stop offset="0.666667" stop-color="#FFBD7A"/>
<stop offset="1" stop-color="#F8EAC3"/>
</linearGradient>
</defs>
</svg>
