<svg width="216" height="48" viewBox="0 0 216 48" fill="currentColor" xmlns="http://www.w3.org/2000/svg">
<g clip-path="url(#clip0_201_7646)">
<path d="M193.444 38.2979H201.248C201.551 39.2819 202.581 40.2658 204.51 40.2658C207.123 40.2658 208.023 38.6432 208.023 36.2437V34.5347H207.85C206.561 36.0365 204.847 37.1413 202.321 37.1413C197.346 37.1413 193.02 33.4644 193.02 26.2747C193.02 19.6891 196.576 14.5535 201.94 14.5535C205.029 14.5535 206.915 15.7964 208.161 17.7643H208.291V15.244H216.009V35.1734C216.009 38.8503 214.719 41.7159 212.79 43.4335C210.774 45.2287 207.902 45.9538 204.64 45.9538C198.505 45.9538 194.223 43.4248 193.444 38.2979ZM208.369 25.8863C208.369 23.0207 207.002 20.7075 204.64 20.7075C202.364 20.7075 200.911 22.7618 200.911 25.8863C200.911 28.9676 202.373 31.1858 204.64 31.1858C206.993 31.1944 208.369 28.9244 208.369 25.8863ZM184.402 19.1712H184.532C186.202 15.9604 188.391 14.7693 191.177 14.7693C191.817 14.7693 192.25 14.8556 192.51 14.9851V22.0454H192.336C187.578 21.1909 184.792 23.4609 184.792 28.631V38.2547H176.685V15.244H184.402V19.1712ZM0 6H15.868C18.8703 6 21.1804 6.72502 22.8156 8.05422C24.6585 9.54742 25.6449 11.7743 25.6449 14.424C25.6449 17.5054 24.399 19.4301 21.8293 20.6299V20.7593C25.1776 21.8728 27.1071 24.8678 27.1071 28.5015C27.1071 31.9626 25.7746 34.6642 23.5943 36.2868C21.7514 37.616 19.3548 38.2547 16.1795 38.2547H0V6ZM15.0979 31.1081C17.0274 31.1081 18.4377 29.9515 18.4377 27.811C18.4377 25.5842 16.8976 24.5139 15.0547 24.5139H8.79055V31.0995H15.0979V31.1081ZM14.276 18.6188C15.9891 18.6188 17.235 17.678 17.235 15.7964C17.235 13.958 15.9458 13.0603 14.2327 13.0603H8.79055V18.6188H14.276Z" fill="black"/>
<path d="M28.5606 6H36.8753V38.2547H28.5606V6ZM38.4673 26.7839C38.4673 19.5164 43.1827 14.5967 50.4764 14.5967C57.7701 14.5967 62.399 19.5164 62.399 26.7839C62.399 34.1031 57.7701 38.9711 50.4764 38.9711C43.1827 38.9798 38.4673 34.1031 38.4673 26.7839ZM54.1622 26.7839C54.1622 22.7618 52.873 20.2415 50.3899 20.2415C47.9067 20.2415 46.7041 22.7618 46.7041 26.7839C46.7041 30.8492 47.9067 33.3695 50.3899 33.3695C52.873 33.3781 54.1622 30.8492 54.1622 26.7839ZM63.3421 26.7839C63.3421 19.5164 68.0575 14.5967 75.3512 14.5967C82.6449 14.5967 87.2738 19.5164 87.2738 26.7839C87.2738 34.1031 82.6449 38.9711 75.3512 38.9711C68.0575 38.9798 63.3421 34.1031 63.3421 26.7839ZM79.037 26.7839C79.037 22.7618 77.7478 20.2415 75.2647 20.2415C72.7815 20.2415 71.5789 22.7618 71.5789 26.7839C71.5789 30.8492 72.7815 33.3695 75.2647 33.3695C77.7478 33.3781 79.037 30.8492 79.037 26.7839ZM88.8571 15.244H96.5748V18.7051H96.7046C98.2447 16.0122 100.347 14.5535 103.652 14.5535C106.568 14.5535 108.757 16.0035 109.873 18.5325H110.003C111.889 15.4943 114.338 14.5535 117.167 14.5535C122.531 14.5535 124.841 18.4893 124.841 23.7889V38.2461H116.734V25.2475C116.734 22.8912 116.007 21.3549 113.948 21.3549C111.932 21.3549 110.903 23.2365 110.903 25.7223V38.2547H102.787V25.2475C102.787 22.8912 102.06 21.3549 100.001 21.3549C97.9851 21.3549 96.9555 23.2365 96.9555 25.7223V38.2547H88.8571V15.244ZM134.739 35.2597H134.653V38.2547H126.935V6H135.042V17.6348H135.172C136.712 15.6238 138.771 14.5535 141.73 14.5535C147.518 14.5535 150.867 19.7754 150.867 26.6976C150.867 34.5261 147.224 39.0143 141.22 39.0143C138.728 39.0229 136.158 37.8232 134.739 35.2597ZM142.63 26.6199C142.63 22.8999 141.263 20.5004 138.814 20.5004C136.331 20.5004 134.739 22.8999 134.739 26.6199C134.739 30.2968 136.323 32.7394 138.814 32.7394C141.298 32.7308 142.63 30.3399 142.63 26.6199ZM151.896 26.7062C151.896 19.5164 156.655 14.519 163.559 14.519C166.986 14.519 169.651 15.5892 171.666 17.514C174.323 20.0775 175.525 24.0996 175.439 28.8467H159.96C160.306 31.7123 161.673 33.171 164.122 33.171C165.541 33.171 166.778 32.5323 167.297 30.9873H175.101C173.734 36.2437 169.659 38.9021 163.871 38.9021C156.698 38.8934 151.896 34.06 151.896 26.7062ZM159.96 24.3067H167.332C167.202 21.5275 165.662 20.0688 163.733 20.0688C161.5 20.0688 160.254 21.657 159.96 24.3067Z" fill="black"/>
</g>
<defs>
<clipPath id="clip0_201_7646">
<rect width="216" height="48" fill="white"/>
</clipPath>
</defs>
</svg>
