<svg width="152" height="48" viewBox="0 0 152 48" fill="none" xmlns="http://www.w3.org/2000/svg">
<g clip-path="url(#clip0_201_7634)">
<path fill-rule="evenodd" clip-rule="evenodd" d="M46.8776 0.251895C48.1378 -0.0841446 49.3979 -0.0841446 50.6581 0.0838753C52.0862 0.335905 53.4304 0.755955 54.6065 1.51204C54.6065 2.60417 54.6065 3.6963 54.6065 4.78843C53.8505 4.20036 53.0944 3.6963 52.1702 3.36026C50.9941 2.8562 49.734 2.68818 48.5578 2.77219C47.9697 2.8562 47.3817 2.94021 46.8776 3.27625C46.5416 3.44427 46.2055 3.78031 46.0375 4.11635C45.7855 4.5364 45.7855 5.04046 45.8695 5.54452C45.9535 5.96457 46.2055 6.38462 46.5416 6.63665C46.9616 6.97269 47.5497 7.22472 48.0538 7.39274C49.1459 7.81279 50.238 8.23284 51.4142 8.56888C52.3383 8.90492 53.2624 9.40898 54.0185 10.0811C54.7746 10.7531 55.2786 11.5932 55.4466 12.5173C55.6147 13.5255 55.6987 14.5336 55.4466 15.4577C55.1946 16.2978 54.6906 17.1379 54.0185 17.726C53.2624 18.398 52.4223 18.8181 51.4982 19.0701C50.238 19.4062 48.8939 19.4902 47.6337 19.3222C46.0375 19.1541 44.3573 18.6501 43.0132 17.726C43.0132 16.6338 43.0132 15.4577 43.0132 14.3656C44.6093 15.7097 46.7096 16.5498 48.8098 16.5498C49.734 16.5498 50.6581 16.4658 51.4142 16.0458C51.8342 15.7937 52.2543 15.4577 52.4223 14.9536C52.5903 14.4496 52.5903 13.8615 52.4223 13.2734C52.2543 12.7694 51.8342 12.3493 51.3302 12.0973C50.4901 11.5932 49.5659 11.3412 48.6418 11.0052C47.5497 10.5851 46.4576 10.2491 45.4494 9.66101C44.6934 9.24096 43.9373 8.65289 43.5172 7.8968C42.8451 6.88868 42.6771 5.62853 42.8451 4.45239C42.9291 3.36026 43.5172 2.26813 44.2733 1.59605C45.0294 0.923975 45.9535 0.503925 46.8776 0.251895Z" fill="#185F7D"/>
<path fill-rule="evenodd" clip-rule="evenodd" d="M121.31 1.09199C122.571 0.251894 124.167 -0.000135377 125.679 -0.000135377C127.527 -0.000135377 129.459 0.503924 131.056 1.51204C131.056 2.60417 131.056 3.6963 131.056 4.78843C130.384 4.28437 129.627 3.78031 128.871 3.44427C127.527 2.8562 126.015 2.60417 124.503 2.8562C123.747 3.02422 122.907 3.36026 122.487 4.03234C122.067 4.87244 122.235 5.96457 122.907 6.55264C123.411 7.0567 124.167 7.30873 124.839 7.47675C125.931 7.8968 127.023 8.23284 128.115 8.65289C129.123 9.07294 130.047 9.577 130.72 10.3331C131.392 11.0052 131.812 11.9293 131.98 12.8534C132.148 13.8615 132.064 14.9536 131.644 15.9618C131.308 16.8019 130.72 17.4739 129.963 18.062C129.123 18.6501 128.115 18.9861 127.023 19.2381C125.595 19.4902 124.083 19.4062 122.655 19.0701C121.478 18.8181 120.302 18.398 119.294 17.642C119.294 16.5498 119.294 15.3737 119.294 14.2816C120.554 15.2897 122.067 16.0458 123.747 16.2978C124.419 16.4658 125.175 16.4658 125.847 16.3818C126.603 16.2978 127.275 16.2138 127.947 15.7937C128.451 15.4577 128.787 15.0376 128.871 14.4496C128.955 13.7775 128.871 13.0214 128.451 12.5173C128.031 12.0973 127.527 11.7613 126.939 11.5092C126.015 11.1732 125.175 10.8371 124.251 10.5011C123.411 10.1651 122.487 9.91304 121.731 9.40898C120.974 8.98893 120.302 8.40086 119.882 7.64477C119.462 6.88868 119.21 6.04858 119.21 5.20848C119.126 4.45239 119.294 3.6963 119.546 2.94021C119.882 2.35214 120.554 1.59605 121.31 1.09199Z" fill="#185F7D"/>
<path fill-rule="evenodd" clip-rule="evenodd" d="M141.809 0.503924C142.733 0.167885 143.657 -0.000135377 144.581 -0.000135377C146.514 -0.000135377 148.446 0.419914 150.126 1.42803C150.21 1.42803 150.21 1.51204 150.21 1.59605C150.21 2.68818 150.21 3.6963 150.21 4.78843C149.454 4.20036 148.614 3.6963 147.774 3.36026C146.682 2.94021 145.421 2.68818 144.245 2.77219C143.657 2.8562 142.985 2.94021 142.481 3.27625C142.061 3.52828 141.725 3.86432 141.557 4.20036C141.221 5.04046 141.389 6.04858 142.061 6.55264C142.817 7.14071 143.741 7.39274 144.665 7.72878C145.673 8.14883 146.766 8.48487 147.774 8.90492C148.698 9.32497 149.622 9.91304 150.21 10.7531C150.882 11.6772 151.134 12.7694 151.134 13.8615C151.134 14.8696 150.882 15.8777 150.378 16.6338C149.79 17.4739 149.034 18.062 148.11 18.4821C147.102 18.9021 146.093 19.1541 145.001 19.1541C143.825 19.2381 142.649 19.0701 141.473 18.8181C140.381 18.5661 139.373 18.146 138.449 17.5579C138.449 16.4658 138.449 15.2897 138.449 14.1975C140.045 15.5417 142.145 16.3818 144.245 16.3818C145.169 16.3818 146.093 16.2978 146.934 15.8777C147.354 15.6257 147.69 15.2897 147.858 14.7856C148.026 14.2816 148.026 13.6095 147.858 13.1054C147.69 12.6014 147.27 12.1813 146.766 11.9293C145.925 11.4252 145.001 11.1732 144.077 10.8371C142.985 10.4171 141.893 10.0811 140.885 9.49299C140.045 9.07294 139.373 8.40086 138.869 7.56076C138.365 6.72066 138.197 5.62853 138.197 4.62041C138.197 3.6963 138.533 2.77219 139.121 2.0161C139.877 1.42803 140.801 0.839964 141.809 0.503924Z" fill="#185F7D"/>
<path fill-rule="evenodd" clip-rule="evenodd" d="M76.0291 -0.000135377C80.3136 4.11635 84.5981 8.23284 88.9666 12.3493C88.9666 8.31685 88.9666 4.36838 88.9666 0.335904C89.9747 0.335904 90.9828 0.335904 92.075 0.335904C92.075 6.72066 92.075 13.1054 92.075 19.4902C89.2186 16.6338 86.2783 13.8615 83.3379 11.0052C81.9098 9.66101 80.5656 8.31685 79.1374 6.97269C79.1374 11.0052 79.1374 15.1217 79.1374 19.1541C78.1293 19.1541 77.1212 19.1541 76.0291 19.1541C76.0291 12.7694 76.0291 6.38462 76.0291 -0.000135377Z" fill="#185F7D"/>
<path fill-rule="evenodd" clip-rule="evenodd" d="M0 0.335904C1.6802 0.335904 3.27639 0.335904 4.95659 0.335904C6.13273 0.335904 7.30887 0.251894 8.401 0.503924C9.49313 0.671944 10.5853 1.09199 11.4254 1.84808C12.0974 2.43615 12.6015 3.27625 12.7695 4.11635C13.0216 5.12447 13.0216 6.13259 12.6855 7.14071C12.3495 8.14883 11.5934 9.07294 10.5853 9.49299C10.7533 9.577 10.9213 9.66101 11.0893 9.74502C12.0134 10.2491 12.7695 11.0892 13.1896 12.0133C13.5256 12.7694 13.6096 13.5255 13.5256 14.3656C13.4416 15.3737 13.1056 16.3818 12.4335 17.2219C11.6774 18.146 10.5853 18.7341 9.49313 18.9861C8.48501 19.2381 7.5609 19.2381 6.55278 19.2381C4.36852 19.2381 2.18426 19.2381 0 19.2381C0 12.8534 0 6.55264 0 0.335904ZM3.10837 3.10823C3.10837 4.78843 3.10837 6.55264 3.10837 8.23284C4.36852 8.23284 5.62867 8.23284 6.88882 8.23284C7.64491 8.23284 8.56902 8.06482 9.15709 7.47675C9.57714 7.0567 9.82917 6.46863 9.91318 5.88056C9.99719 5.20848 9.82917 4.5364 9.40912 4.03234C8.98907 3.52828 8.401 3.36026 7.81293 3.19224C7.22486 3.10823 6.55278 3.10823 5.8807 3.10823C4.95659 3.10823 4.03248 3.10823 3.10837 3.10823ZM3.10837 10.8371C3.10837 12.6854 3.10837 14.5336 3.10837 16.2978C4.45253 16.2978 5.79669 16.2978 7.14085 16.2978C7.89694 16.2978 8.65303 16.1298 9.32511 15.7097C9.91318 15.3737 10.2492 14.7856 10.3332 14.1135C10.5013 13.4415 10.4172 12.6854 9.99719 12.0133C9.66115 11.5092 9.15709 11.1732 8.65303 11.0052C8.14897 10.8371 7.64491 10.7531 7.05684 10.7531C5.79669 10.8371 4.45253 10.8371 3.10837 10.8371Z" fill="#185F7D"/>
<path fill-rule="evenodd" clip-rule="evenodd" d="M20.4144 0.335904C21.5066 0.335904 22.5147 0.335904 23.6068 0.335904C23.6068 3.61229 23.6068 6.80467 23.6068 10.0811C23.6068 11.2572 23.5228 12.3493 23.8588 13.5255C24.1109 14.4496 24.5309 15.2897 25.287 15.8777C26.0431 16.4658 26.9672 16.6338 27.9753 16.6338C28.8994 16.6338 29.9076 16.4658 30.6637 15.8777C31.3357 15.3737 31.7558 14.7016 32.0078 13.9455C32.2598 13.0214 32.3439 12.0973 32.3439 11.1732C32.3439 7.56076 32.3439 3.94833 32.3439 0.419914C33.436 0.419914 34.4441 0.419914 35.5362 0.419914C35.5362 4.20036 35.5362 7.8968 35.5362 11.6772C35.5362 13.1894 35.2842 14.7856 34.5281 16.1298C33.856 17.3059 32.8479 18.314 31.5878 18.8181C30.1596 19.4062 28.5634 19.5742 27.0512 19.4902C25.9591 19.4062 24.951 19.1541 23.9429 18.6501C23.2708 18.314 22.5987 17.81 22.0946 17.1379C21.5066 16.4658 21.0865 15.5417 20.8345 14.7016C20.4984 13.6935 20.4144 12.6014 20.4144 11.5932C20.4144 7.72878 20.4144 4.03234 20.4144 0.335904Z" fill="#185F7D"/>
<path fill-rule="evenodd" clip-rule="evenodd" d="M63.7636 0.335904C64.8557 0.335904 65.8638 0.335904 66.9559 0.335904C66.9559 6.63665 66.9559 12.8534 66.9559 19.1541C65.8638 19.1541 64.8557 19.1541 63.7636 19.1541C63.7636 12.8534 63.7636 6.55264 63.7636 0.335904Z" fill="#185F7D"/>
<path fill-rule="evenodd" clip-rule="evenodd" d="M100.56 0.335904C104.34 0.335904 108.121 0.335904 111.985 0.335904C111.985 1.26001 111.985 2.26813 111.985 3.19224C109.213 3.19224 106.441 3.19224 103.752 3.19224C103.752 4.70442 103.752 6.2166 103.752 7.72878C106.189 7.72878 108.709 7.72878 111.145 7.72878C111.145 8.65289 111.145 9.577 111.145 10.5011C108.709 10.5011 106.189 10.5011 103.752 10.5011C103.752 12.4333 103.752 14.3656 103.752 16.2978C106.525 16.2978 109.297 16.2978 111.985 16.2978C111.985 17.2219 111.985 18.23 111.985 19.1541C108.205 19.1541 104.424 19.1541 100.56 19.1541C100.56 14.0295 100.56 8.98893 100.56 3.86432C100.56 2.68818 100.476 1.51204 100.56 0.335904Z" fill="#185F7D"/>
<path fill-rule="evenodd" clip-rule="evenodd" d="M24.867 28.6473C29.1515 32.6797 33.436 36.7122 37.7205 40.7447C37.7205 36.7962 37.7205 32.8478 37.7205 28.8993C38.7287 28.8993 39.7368 28.8993 40.7449 28.8993C40.7449 35.2 40.7449 41.4168 40.7449 47.7175C36.4604 43.601 32.1759 39.4845 27.9754 35.368C27.9754 39.4005 27.9754 43.349 27.9754 47.3815C26.9673 47.3815 25.9591 47.3815 24.951 47.3815C24.867 41.1647 24.783 34.864 24.867 28.6473Z" fill="#185F7D"/>
<path fill-rule="evenodd" clip-rule="evenodd" d="M51.5822 29.3193C52.7583 28.7313 54.1025 28.5632 55.4466 28.6472C57.2108 28.7313 58.975 29.1513 60.4872 30.1594C60.4872 31.2516 60.4872 32.3437 60.4872 33.4358C59.7311 32.8477 58.975 32.3437 58.0509 32.0076C56.8748 31.5036 55.6146 31.3356 54.4385 31.4196C53.8504 31.5036 53.2624 31.5876 52.7583 31.9236C52.3383 32.1757 52.0862 32.5117 51.9182 32.9318C51.6662 33.6879 51.8342 34.528 52.3383 35.032C52.7583 35.4521 53.3464 35.7041 53.9344 35.9561C55.0266 36.3762 56.2027 36.7962 57.2948 37.1323C58.2189 37.4683 59.059 37.8883 59.8151 38.4764C60.5712 39.0645 61.0753 39.9046 61.3273 40.8287C61.5793 41.7528 61.5793 42.6769 61.4113 43.685C61.2433 44.6091 60.7392 45.4492 60.0672 46.0373C59.3951 46.7094 58.471 47.1294 57.5469 47.4655C56.3707 47.8015 55.1946 47.8855 53.9344 47.8015C52.6743 47.7175 51.4141 47.4655 50.322 46.9614C49.818 46.7094 49.3139 46.5414 48.8938 46.2053C48.8938 45.1132 48.8938 44.0211 48.8938 42.9289C50.49 44.2731 52.5903 45.0292 54.6905 45.1132C55.6146 45.1132 56.5387 45.0292 57.2948 44.6091C57.7989 44.3571 58.1349 43.9371 58.303 43.433C58.471 42.9289 58.471 42.3409 58.219 41.8368C58.0509 41.3328 57.5469 40.9127 57.1268 40.6607C56.2867 40.2406 55.4466 39.9046 54.5225 39.6526C53.5144 39.3165 52.5063 38.9805 51.5822 38.4764C50.7421 38.0564 49.986 37.3843 49.4819 36.6282C48.9779 35.7881 48.7258 34.78 48.8098 33.8559C48.8098 32.9318 49.0619 32.0077 49.5659 31.2516C49.986 30.2434 50.7421 29.6554 51.5822 29.3193Z" fill="#185F7D"/>
<path fill-rule="evenodd" clip-rule="evenodd" d="M12.6015 28.8993C13.6936 28.8993 14.7017 28.8993 15.7939 28.8993C15.7939 35.116 15.7939 41.2487 15.7939 47.4655C14.7017 47.4655 13.6936 47.4655 12.6015 47.4655C12.6015 41.2487 12.6015 35.116 12.6015 28.8993Z" fill="#185F7D"/>
<path fill-rule="evenodd" clip-rule="evenodd" d="M69.5603 28.8993C70.6524 28.8993 71.6606 28.8993 72.7527 28.8993C72.7527 35.116 72.7527 41.2487 72.7527 47.4655C71.6606 47.4655 70.6524 47.4655 69.5603 47.4655C69.5603 41.2487 69.5603 35.116 69.5603 28.8993Z" fill="#185F7D"/>
<path fill-rule="evenodd" clip-rule="evenodd" d="M81.9938 28.8993C84.4301 28.8993 86.8664 28.8993 89.3027 28.8993C91.2349 28.8993 93.1671 29.4033 94.6793 30.5795C96.0235 31.5036 96.9476 32.8477 97.5357 34.3599C97.9557 35.6201 98.2077 36.9642 98.1237 38.3084C98.1237 40.2406 97.7037 42.1728 96.6115 43.769C95.7715 45.1132 94.4273 46.2053 92.9151 46.7934C91.739 47.2975 90.4788 47.4655 89.2187 47.4655C86.7824 47.4655 84.3461 47.4655 81.9098 47.4655C81.9938 41.2487 81.9938 35.116 81.9938 28.8993ZM85.1862 31.6716C85.1862 35.9561 85.1862 40.3246 85.1862 44.6091C86.1943 44.6091 87.2024 44.6091 88.2105 44.6091C88.7986 44.6091 89.4707 44.6091 90.0588 44.5251C91.2349 44.3571 92.411 43.9371 93.2511 43.097C94.0072 42.4249 94.5113 41.4168 94.7633 40.4086C95.0154 39.4005 95.0994 38.3924 95.0154 37.3843C94.9313 36.4602 94.7633 35.5361 94.3433 34.696C94.0072 33.8559 93.4192 33.1838 92.6631 32.6797C91.823 32.0917 90.8149 31.7556 89.8067 31.6716C89.2187 31.5876 88.5466 31.6716 87.9585 31.5876C87.0344 31.6716 86.1103 31.6716 85.1862 31.6716Z" fill="#185F7D"/>
<path fill-rule="evenodd" clip-rule="evenodd" d="M104.845 28.8993C108.625 28.8993 112.405 28.8993 116.186 28.8993C116.186 29.8234 116.186 30.7475 116.186 31.6716C113.414 31.6716 110.725 31.6716 107.953 31.6716C107.953 33.1838 107.953 34.612 107.953 36.1241C110.389 36.1241 112.825 36.1241 115.262 36.1241C115.262 37.0482 115.262 37.9724 115.262 38.8965C112.825 38.8965 110.389 38.8965 107.953 38.8965C107.953 40.8287 107.953 42.7609 107.953 44.6091C110.725 44.6091 113.414 44.6091 116.186 44.6091C116.186 45.5332 116.186 46.4574 116.186 47.3815C112.405 47.3815 108.625 47.3815 104.845 47.3815C104.845 41.2487 104.845 35.116 104.845 28.8993Z" fill="#185F7D"/>
<path fill-rule="evenodd" clip-rule="evenodd" d="M125.595 28.8993C127.947 28.8993 130.216 28.8993 132.568 28.8993C133.744 28.8993 134.92 29.0673 135.928 29.6554C136.768 30.0754 137.44 30.6635 137.944 31.4196C138.533 32.3437 138.785 33.4358 138.701 34.5279C138.701 35.6201 138.533 36.7962 137.944 37.7203C137.524 38.4764 136.852 38.9805 136.096 39.3165C135.508 39.5685 134.92 39.7366 134.332 39.8206C136.6 42.3409 138.785 44.8612 141.053 47.4655C139.877 47.4655 138.617 47.4655 137.44 47.4655C135.256 44.9452 133.156 42.4249 130.972 39.9886C130.215 39.9886 129.459 39.9886 128.787 39.9886C128.787 42.5089 128.787 45.0292 128.787 47.4655C127.695 47.4655 126.687 47.4655 125.595 47.4655C125.595 41.2487 125.595 35.116 125.595 28.8993ZM128.787 31.6716C128.787 33.5198 128.787 35.4521 128.787 37.3003C130.047 37.3003 131.224 37.3003 132.484 37.3003C133.324 37.3003 134.164 37.0482 134.836 36.4602C135.256 36.0401 135.508 35.5361 135.592 34.948C135.676 34.2759 135.592 33.4358 135.172 32.8477C134.836 32.2597 134.164 31.9236 133.492 31.7556C132.82 31.5876 132.148 31.5876 131.476 31.5876C130.552 31.6716 129.711 31.6716 128.787 31.6716Z" fill="#185F7D"/>
</g>
<defs>
<clipPath id="clip0_201_7634">
<rect width="152" height="48" fill="white"/>
</clipPath>
</defs>
</svg>
