<svg width="194" height="48" viewBox="0 0 194 48" fill="none" xmlns="http://www.w3.org/2000/svg">
<path fill-rule="evenodd" clip-rule="evenodd" d="M0 33.6662C0 35.754 1.69201 37.408 3.76002 37.408H18.9612V33.612H3.67945V29.816H18.8001C20.8681 29.816 22.7212 28.0807 22.7212 25.9929V26.0742V18.4822C22.7212 16.3944 20.8681 14.388 18.8001 14.388H3.76002C1.69201 14.388 0 16.3673 0 18.4822V33.6662ZM3.67945 18.184H18.9612V26.02H3.67945V18.184Z" fill="black"/>
<path fill-rule="evenodd" clip-rule="evenodd" d="M69.7751 14.388H54.7351C52.6671 14.388 50.7065 16.3944 50.7065 18.4822V33.6662V33.5849C50.7065 35.6727 52.6671 37.408 54.7351 37.408H69.7483V41.204H54.4665V45H69.7751C71.8432 45 73.5083 43.3731 73.5083 41.2582V18.4822C73.5083 16.3944 71.8432 14.388 69.7751 14.388ZM54.4665 18.184H69.7483V33.612H54.4665V18.184Z" fill="black"/>
<path fill-rule="evenodd" clip-rule="evenodd" d="M40.5276 14.388H29.2476C27.1796 14.388 25.3264 16.3944 25.3264 18.4822V37.408H29.0864V18.184H40.5276C42.5956 18.184 44.3682 20.1904 44.3682 22.2782V37.408H48.1282V22.2782C48.1014 18.1026 44.6636 14.388 40.5276 14.388Z" fill="black"/>
<path fill-rule="evenodd" clip-rule="evenodd" d="M95.1284 33.612H79.8467V22.2782C79.8467 20.1904 81.8878 18.184 83.9827 18.184H95.1284V37.408H98.8885V18.4822C98.8885 16.3944 97.3307 14.388 95.2627 14.388H83.9827C79.8198 14.388 76.0866 18.1026 76.0866 22.2782V33.6662C76.0866 35.754 78.1278 37.408 80.2227 37.408H86.8564C90.1867 37.408 93.7319 35.9981 95.1284 33.6662V37.408" fill="black"/>
<path fill-rule="evenodd" clip-rule="evenodd" d="M181.367 3H177.607V37.408H181.367V18.184H192.889V14.388H181.367V3Z" fill="black"/>
<path fill-rule="evenodd" clip-rule="evenodd" d="M120.267 14.388H105.683C103.615 14.388 101.467 16.3944 101.467 18.4822V33.6662V33.5849C101.467 35.6727 103.615 37.408 105.683 37.408H124.242V3H120.24V14.388H120.267ZM105.227 18.184H120.267V33.612H105.227V18.184Z" fill="black"/>
<path fill-rule="evenodd" clip-rule="evenodd" d="M152.227 33.6662C152.227 35.754 154.402 37.408 156.47 37.408H171.269V33.612H155.987V29.816H171.51C173.578 29.816 175.029 28.0807 175.029 25.9929V26.0742V18.4822C175.029 16.3944 173.605 14.388 171.51 14.388H156.47C154.402 14.388 152.227 16.3944 152.227 18.4822V33.6662ZM155.987 18.184H171.269V26.02H155.987V18.184Z" fill="black"/>
<path fill-rule="evenodd" clip-rule="evenodd" d="M146.023 14.388H130.983C128.915 14.388 126.847 16.3944 126.847 18.4822V33.6662V33.5849C126.847 35.6727 128.915 37.408 130.983 37.408H145.889V41.204H130.849V45H146.023C148.091 45 149.649 43.3731 149.649 41.2582V18.4822C149.649 16.3944 148.091 14.388 146.023 14.388ZM130.849 18.184H145.889V33.612H130.849V18.184Z" fill="black"/>
</svg>
