<svg width="215" height="48" viewBox="0 0 215 48" fill="none" xmlns="http://www.w3.org/2000/svg">
<path fill-rule="evenodd" clip-rule="evenodd" d="M101.921 16.1663C101.921 20.4384 101.433 33.8652 101.433 33.8652C101.433 36.4284 102.287 37.6491 104.728 37.6491V38.7476H95.2075V37.6491C97.6487 37.6491 98.9914 36.5505 98.9914 33.8652L99.8458 12.0162C99.1135 10.3074 98.3811 9.69707 96.5502 9.57501V8.47646H103.874L111.686 28.8607L119.62 8.47646H126.211V9.45295C124.38 9.45295 123.282 10.3074 123.282 12.3824L124.136 33.499C124.136 36.6726 124.746 37.527 127.31 37.527V38.6255H116.202V37.527C118.399 37.527 119.376 36.7946 119.254 33.499C119.254 33.499 118.765 18.7296 118.643 16.0442L113.273 30.6916C112.54 32.5225 111.808 34.7196 111.32 37.0387L109.611 37.1608C109.122 35.574 108.024 32.6446 108.024 32.6446C108.024 32.6446 103.508 20.3164 101.921 16.1663Z" fill="black"/>
<path fill-rule="evenodd" clip-rule="evenodd" d="M92.8884 38.8697C92.2781 38.7477 91.7898 38.7477 91.1795 38.7477C90.081 38.7477 88.006 39.358 85.5647 39.358C76.166 39.358 69.3306 33.7432 69.3306 23.368C69.3306 14.5796 75.7999 7.86621 85.6868 7.86621C88.006 7.86621 90.5692 8.35446 92.7663 9.20888C93.2546 8.72064 93.3766 8.47652 93.7428 8.11034H94.5973C94.4752 9.69713 93.8649 14.8237 93.8649 14.8237H93.0105C92.4001 11.7722 90.8134 9.81919 85.8089 9.81919C79.8279 9.81919 74.3351 14.5796 74.3351 23.368C74.3351 33.2549 79.9499 37.6491 86.175 37.6491C90.203 37.6491 92.6443 35.3299 94.2311 32.5225L95.2076 33.0108L92.8884 38.8697Z" fill="black"/>
<path fill-rule="evenodd" clip-rule="evenodd" d="M65.6688 14.0913H64.6923C64.5702 11.406 63.7158 10.5515 61.5187 10.5515H57.3686V33.1328C57.3686 36.9167 58.101 37.6491 60.5422 37.6491V38.7476H49.8009V37.6491C52.2421 37.6491 52.9744 36.9167 52.9744 33.0108V10.5515H48.8244C46.139 10.5515 45.6508 11.2839 44.9184 14.0913H43.9419L44.6743 7.62207L45.4067 7.74413C45.6508 8.4765 46.2611 8.4765 47.9699 8.4765H61.8849C64.4482 8.4765 65.0585 8.4765 65.6688 7.62207H66.5232L65.6688 14.0913Z" fill="black"/>
<path fill-rule="evenodd" clip-rule="evenodd" d="M35.2756 39.48C33.3227 39.48 31.7359 39.2359 30.5152 38.7477C29.4167 38.5035 28.5623 38.0153 28.074 37.7712C27.4637 38.3815 27.0975 39.1138 27.0975 39.1138L26.2431 38.8697L26.8534 31.9122L27.8299 32.0343C28.4402 35.2079 30.5152 37.5271 35.0315 37.5271C38.4492 37.5271 40.7684 34.5976 40.7684 31.5461C40.7684 28.9828 39.7919 27.6401 36.2521 25.0768C35.1536 24.3445 34.055 23.7341 33.2006 23.1238C30.027 21.1709 28.074 18.8517 28.074 15.0678C28.074 10.7957 31.6138 7.86621 36.3742 7.86621C39.0595 7.86621 40.8904 8.72064 41.3787 8.96476L42.3552 7.86621L43.0875 7.98827L42.3552 14.2134L41.5007 13.9693C41.5007 11.0398 39.7919 9.81919 36.8624 9.81919C34.1771 9.81919 32.102 11.2839 32.102 13.9693C32.102 16.4105 33.933 17.9973 36.1301 19.462C37.2286 20.1944 38.083 20.8047 39.0595 21.2929C44.064 24.8327 45.2846 27.1519 45.2846 30.6916C45.2846 35.6961 41.3787 39.48 35.2756 39.48Z" fill="black"/>
<path fill-rule="evenodd" clip-rule="evenodd" d="M18.7974 14.0913H17.6988C17.6988 11.528 16.6003 10.5515 14.2811 10.5515H7.8119V21.9032H11.962C14.1591 21.9032 14.5253 20.8047 14.8914 18.8517H15.8679V26.9077H14.8914C14.6473 24.7106 14.1591 23.8562 11.8399 23.8562H7.8119V33.499C7.8119 37.0388 8.66633 37.527 10.9855 37.527V38.6256H0V37.527C2.68534 37.527 3.17359 36.7946 3.17359 33.499V12.3824C3.17359 10.4295 2.31916 9.45298 0 9.45298V8.47649H15.0135C17.5768 8.47649 18.1871 8.35443 18.5533 7.5H19.5298L18.7974 14.0913Z" fill="black"/>
<path fill-rule="evenodd" clip-rule="evenodd" d="M173.937 15.8001V33.1328C173.937 36.9167 174.791 37.6491 177.11 37.6491V38.7476H160.144V37.6491C161.487 37.6491 162.585 37.1608 162.585 36.3064C162.585 35.6961 162.463 34.7196 162.097 33.7431L160.754 29.593H151.356C151.233 30.2033 149.525 34.9637 149.525 36.1843C149.525 37.2829 150.867 37.6491 151.722 37.6491V38.7476H143.788V37.6491C145.253 37.6491 146.351 37.527 147.328 34.4755L154.651 11.0397C154.163 10.0633 153.675 9.69707 152.698 9.57501V8.47646H159.167L166.979 33.0107C167.712 35.574 168.444 36.9167 169.543 37.527C171.251 36.9167 171.74 36.4284 171.74 33.0107V12.3824C170.397 10.6736 170.275 9.45295 167.834 9.45295V8.47646H175.157L187.241 28.9827V13.3589C187.241 10.1853 186.509 9.45295 184.068 9.45295V8.47646H200.18V9.45295C199.203 9.45295 198.349 9.94119 198.349 10.9177C198.349 11.65 198.593 12.3824 198.959 13.2368L203.598 23.1238L208.114 13.481C208.846 12.1383 208.968 11.528 208.968 10.7956C208.968 9.94119 208.358 9.45295 207.137 9.45295V8.47646H214.705V9.45295C212.874 9.45295 211.654 11.1618 210.799 13.2368L204.94 25.3209V33.2549C204.94 36.6726 205.795 37.527 208.114 37.527V38.6255H197.128V37.527C199.448 37.527 200.302 36.6726 200.302 33.2549V26.5415L193.955 13.1148C192.856 10.5515 192.368 9.94119 191.636 9.57501C190.171 10.1853 189.805 11.1618 189.805 13.481V35.574C189.805 35.574 189.927 37.2829 190.049 39.3579L188.218 39.48L173.937 15.8001ZM155.994 14.4575L151.966 27.518H160.266L155.994 14.4575Z" fill="black"/>
<path fill-rule="evenodd" clip-rule="evenodd" d="M138.173 27.518C138.173 27.518 136.83 27.518 135.976 27.518V33.7431C135.976 36.9167 136.83 37.6491 139.272 37.6491V38.7476H128.164V37.6491C130.483 37.6491 131.338 36.7946 131.338 33.621V13.2368C131.338 10.0633 130.483 9.45295 128.164 9.45295V8.47646H136.464C144.52 8.47646 149.281 10.9177 149.281 17.509C149.403 24.4665 143.666 27.518 138.173 27.518ZM136.708 10.5515H135.976V25.3209H137.319C142.079 25.3209 144.52 23.1238 144.52 17.7531C144.52 12.2604 142.323 10.5515 136.708 10.5515Z" fill="black"/>
<path fill-rule="evenodd" clip-rule="evenodd" d="M88.006 32.8887C82.5133 32.8887 78.8514 28.9827 78.8514 23.3679C78.8514 17.9972 82.7574 13.8472 88.006 13.8472C93.1326 13.8472 97.0385 17.8752 97.0385 23.3679C97.0385 28.7386 93.0105 32.8887 88.006 32.8887ZM88.006 15.6781C84.2221 15.6781 83.0015 19.3399 83.0015 23.49C83.0015 27.3959 84.1 31.3019 88.006 31.3019C91.7899 31.3019 92.8884 27.3959 92.8884 23.3679C92.8884 19.462 91.4237 15.6781 88.006 15.6781Z" fill="black"/>
<path fill-rule="evenodd" clip-rule="evenodd" d="M24.7784 31.1799V30.2034C26.2431 30.2034 26.4873 29.7151 26.4873 29.349C26.4873 28.7387 26.3652 28.3725 26.2431 27.8842C26.2431 27.8842 25.999 26.7857 25.6328 25.9313H20.018L19.4077 27.7622C19.2857 28.2504 19.1636 28.6166 19.1636 29.2269C19.1636 29.8372 19.7739 30.2034 20.6283 30.2034V31.1799H15.0135V30.2034C16.4783 30.2034 16.9665 29.7151 17.5768 28.2504L21.8489 15.3119C21.7269 14.7016 21.2386 14.3354 20.3842 14.3354V13.2369H25.0225C28.8064 24.2224 29.7829 27.0298 29.7829 27.0298C30.5153 29.471 31.2476 30.2034 32.3462 30.2034V31.1799H24.7784ZM22.7034 17.2649L20.5063 24.3445H25.0225L22.7034 17.2649Z" fill="black"/>
</svg>
