<svg width="138" height="48" viewBox="0 0 138 48" fill="none" xmlns="http://www.w3.org/2000/svg">
<path fill-rule="evenodd" clip-rule="evenodd" d="M84.0637 15.7659C81.866 15.7659 80.1261 16.2222 78.3862 17.2262C78.3862 12.2063 78.3862 7.55159 78.5693 6L67.8553 7.91667V8.82937L68.9542 9.0119C70.4194 9.28571 70.8772 10.1071 71.1519 12.0238C71.4267 15.8571 71.3351 36.0278 71.1519 39.4048C73.9907 40.0437 77.0126 40.5 80.0345 40.5C88.4592 40.5 93.4957 35.2976 93.4957 27.0833C93.5872 20.5119 89.4665 15.7659 84.0637 15.7659ZM80.4008 38.6746C79.7598 38.6746 78.9356 38.6746 78.4778 38.4921C78.2946 36.3016 78.203 26.9921 78.2946 18.7778C79.2103 18.504 79.8513 18.3214 80.6755 18.3214C84.1553 18.3214 86.0783 22.4286 86.0783 27.4484C86.0783 33.8373 83.6974 38.6746 80.4008 38.6746Z" fill="#33629A"/>
<path fill-rule="evenodd" clip-rule="evenodd" d="M27.9297 6.63873H0V8.09905L1.55674 8.28159C3.66291 8.5554 4.39549 9.83318 4.76178 12.8451C5.21964 18.5038 5.0365 28.8173 4.76178 33.7459C4.48706 36.7578 3.66291 38.1268 1.55674 38.3094L0 38.5832V39.861H17.9482V38.5832L16.0252 38.3094C13.919 38.1268 13.1865 36.7578 12.8202 33.7459C12.637 31.6467 12.5455 28.361 12.5455 24.2538L16.3915 24.4363C18.7724 24.4363 19.8713 26.353 20.3291 28.9998H21.7943V17.6824H20.3291C19.8713 20.3292 18.7724 22.2459 16.3915 22.2459L12.5455 22.4284C12.5455 17.0435 12.7286 12.0237 12.8202 9.01175H18.4061C22.71 9.01175 24.9078 11.6586 26.4645 16.4046L28.0212 15.9483L27.9297 6.63873Z" fill="#33629A"/>
<path fill-rule="evenodd" clip-rule="evenodd" d="M36.9038 15.4921C44.8706 15.4921 48.8082 20.877 48.8082 27.9961C48.8082 34.7501 44.4128 40.5001 36.4459 40.5001C28.4791 40.5001 24.5415 35.1151 24.5415 27.9961C24.5415 21.1509 29.0285 15.4921 36.9038 15.4921ZM36.4459 17.0437C32.9662 17.0437 32.0504 21.7897 32.0504 27.9048C32.0504 33.9286 33.6072 38.7659 36.8122 38.7659C40.4751 38.7659 41.3909 34.0199 41.3909 27.9048C41.3909 21.9723 39.8341 17.0437 36.4459 17.0437Z" fill="#33629A"/>
<path fill-rule="evenodd" clip-rule="evenodd" d="M95.6019 28.0874C95.6019 21.6073 99.7226 15.4009 107.781 15.4009C114.466 15.4009 117.579 20.3295 117.579 26.8096H102.836C102.653 32.6509 105.492 36.9406 111.261 36.9406C113.825 36.9406 115.107 36.3017 116.664 35.2065L117.305 36.0279C115.748 38.2184 112.268 40.4089 107.781 40.4089C100.73 40.5001 95.6019 35.389 95.6019 28.0874ZM102.928 25.1668L110.345 24.9843C110.345 21.7898 109.887 17.0438 107.14 17.0438C104.484 17.0438 103.111 21.516 102.928 25.1668Z" fill="#33629A"/>
<path fill-rule="evenodd" clip-rule="evenodd" d="M136.535 16.7699C134.612 15.9485 132.139 15.4921 129.209 15.4921C123.348 15.4921 119.685 18.9604 119.685 23.0675C119.685 27.1747 122.341 28.9088 126.187 30.1866C130.125 31.6469 131.224 32.7421 131.224 34.5675C131.224 36.4842 129.758 38.2183 127.286 38.2183C124.264 38.2183 122.066 36.4842 120.326 31.7382L119.228 32.012L119.411 38.9485C121.334 39.7699 124.814 40.4088 127.835 40.4088C134.062 40.4088 138 37.2143 138 32.377C138 29.0913 136.26 27.1747 132.139 25.6231C127.744 23.889 126.096 22.7937 126.096 20.6945C126.096 18.5953 127.561 17.2262 129.392 17.2262C132.231 17.2262 134.154 18.9604 135.619 23.2501L136.718 22.9762L136.535 16.7699Z" fill="#33629A"/>
<path fill-rule="evenodd" clip-rule="evenodd" d="M69.4121 16.1311C66.7565 14.5795 61.9947 15.3097 59.4307 21.0597L59.6138 15.4922L48.9914 17.5914V18.5041L50.0903 18.6867C51.5554 18.8692 52.1964 19.5994 52.288 21.6986C52.5627 25.5319 52.4711 32.1033 52.288 35.4803C52.1048 37.397 51.4638 38.3097 50.0903 38.4922L48.9914 38.6748V39.9525H63.7346V38.6748L61.8115 38.4922C60.2548 38.3097 59.7054 37.397 59.6138 35.4803C59.3391 32.4684 59.3391 26.4446 59.4307 22.7025C60.2548 21.6073 63.7346 20.6033 66.848 22.7025L69.4121 16.1311Z" fill="#33629A"/>
</svg>
