<svg width="198" height="48" viewBox="0 0 198 48" fill="none" xmlns="http://www.w3.org/2000/svg">
<path d="M32.4136 34.0825V12.3861C32.4136 11.2574 32.6637 10.4109 33.195 9.84653C33.6951 9.28218 34.3828 9 35.1955 9C36.0394 9 36.7271 9.28218 37.2272 9.84653C37.7585 10.4109 38.0086 11.2574 38.0086 12.3861V34.0825C38.0086 35.2112 37.7585 36.0891 37.2272 36.6535C36.6958 37.2178 36.0394 37.5 35.1955 37.5C34.3828 37.5 33.7264 37.2178 33.2263 36.6535C32.6949 36.0578 32.4136 35.2112 32.4136 34.0825Z" fill="black"/>
<path d="M183.666 37.4686C175.852 37.4686 169.476 31.0726 169.476 23.2343C169.476 15.396 175.852 9 183.666 9C191.481 9 197.857 15.396 197.857 23.2343C197.857 31.104 191.512 37.4686 183.666 37.4686ZM183.666 14.769C179.009 14.769 175.227 18.5627 175.227 23.2343C175.227 27.9059 179.009 31.6997 183.666 31.6997C188.324 31.6997 192.106 27.9059 192.106 23.2343C192.106 18.5941 188.324 14.769 183.666 14.769Z" fill="black"/>
<path d="M119.996 37.4686C112.181 37.4686 105.805 31.0726 105.805 23.2343C105.805 15.396 112.181 9 119.996 9C127.81 9 134.186 15.396 134.186 23.2343C134.186 31.104 127.81 37.4686 119.996 37.4686ZM119.996 14.769C115.338 14.769 111.556 18.5627 111.556 23.2343C111.556 27.9059 115.338 31.6997 119.996 31.6997C124.653 31.6997 128.435 27.9059 128.435 23.2343C128.435 18.5941 124.653 14.769 119.996 14.769Z" fill="black"/>
<path d="M164.943 23.2343C164.943 20.099 163.912 17.1832 162.193 14.8317C159.692 11.4142 155.691 9.15677 151.159 9C151.003 9 150.878 9 150.721 9H143.595C142.376 9 141.501 9.28218 140.969 9.84653C140.438 10.4109 140.156 11.2888 140.156 12.5429V33.9571C140.156 35.2112 140.438 36.0891 140.969 36.6535C141.501 37.2178 142.407 37.5 143.595 37.5H150.721C150.878 37.5 151.003 37.5 151.159 37.5C155.691 37.3746 159.661 35.1172 162.193 31.6683C163.912 29.2855 164.943 26.3696 164.943 23.2343ZM151.753 31.637C151.065 31.6683 150.315 31.6997 149.534 31.6997H145.814V14.769H149.534C150.315 14.769 151.065 14.769 151.753 14.8317C154.222 15.1139 156.348 16.4934 157.692 18.4373C158.629 19.7855 159.192 21.4472 159.192 23.2343C159.192 25.0215 158.629 26.6518 157.692 28C156.348 30.0066 154.222 31.3548 151.753 31.637Z" fill="black"/>
<path d="M97.7719 9.12534C96.7404 8.81181 95.6152 9.2194 95.0213 10.1286L86.4569 23.2029L77.8925 10.1286C77.2986 9.2194 76.1733 8.81181 75.1419 9.12534C74.1104 9.43887 73.3915 10.4422 73.3915 11.5395V34.7722C73.3915 36.1517 74.4855 37.3118 75.8608 37.3118C77.2048 37.3118 78.3301 36.1831 78.3301 34.7722V19.8168L84.3939 29.0973C84.3939 29.0973 84.3939 29.0973 84.3939 29.1286C84.3939 29.1286 84.3939 29.16 84.4252 29.16C84.4565 29.2227 84.4877 29.2854 84.5502 29.3168C84.5815 29.3481 84.5815 29.3481 84.6127 29.3795C84.644 29.4108 84.6752 29.4735 84.7065 29.5049C84.7378 29.5362 84.769 29.5676 84.8003 29.5989C84.8315 29.6303 84.8628 29.6303 84.8628 29.6616C84.9253 29.693 84.9566 29.7243 85.0191 29.7871L85.0503 29.8184C85.1128 29.8498 85.1754 29.8811 85.2066 29.9125C85.2379 29.9125 85.2379 29.9438 85.2379 29.9438C85.2691 29.9752 85.3316 29.9752 85.3629 30.0065C85.613 30.1319 85.863 30.1946 86.1443 30.226C86.2068 30.226 86.2381 30.226 86.3006 30.226C86.3319 30.226 86.3631 30.226 86.3944 30.226C86.4256 30.226 86.4569 30.226 86.4882 30.226C86.5507 30.226 86.5819 30.226 86.6444 30.226C86.8945 30.1946 87.1758 30.1319 87.4259 30.0065C87.4571 29.9752 87.5196 29.9752 87.5509 29.9438L87.5822 29.9125C87.6447 29.8811 87.7072 29.8498 87.7384 29.8184C87.7697 29.8184 87.7697 29.7871 87.7697 29.7871C87.8322 29.7557 87.8635 29.7243 87.926 29.6616C87.9572 29.6303 87.9885 29.6303 87.9885 29.5989C88.0198 29.5676 88.051 29.5362 88.0823 29.5049C88.1135 29.4735 88.1448 29.4422 88.176 29.3795C88.2073 29.3481 88.2073 29.3481 88.2385 29.3168C88.2698 29.254 88.3323 29.2227 88.3636 29.16L88.3948 29.1286C88.3948 29.1286 88.3948 29.1286 88.3948 29.0973L94.4587 19.8168V34.7722C94.4587 36.1517 95.5527 37.3118 96.928 37.3118C98.272 37.3118 99.3973 36.1831 99.3973 34.7722V11.5395C99.5223 10.4422 98.8034 9.43887 97.7719 9.12534Z" fill="black"/>
<path d="M65.0146 36.6221H46.6042C45.6353 36.6221 44.5725 36.0264 44.1662 35.0858C43.7598 34.1452 43.6973 32.8597 44.5413 31.8251L59.5759 14.2987H47.1356C45.7916 14.2987 44.6663 13.1073 44.6663 11.665C44.6663 10.2228 45.7603 9.31353 47.1356 9.31353H63.8894C64.8583 9.31353 65.8586 9.4703 66.7337 10.4422C67.5464 11.3201 67.4839 13.2327 66.6087 14.3614L52.0742 31.3548H65.0146C66.3899 31.3548 67.3589 32.5462 67.3589 33.9884C67.3589 35.4307 66.3899 36.6221 65.0146 36.6221Z" fill="black"/>
<path d="M14.0969 37.4686C10.0022 37.4686 6.31392 35.8383 3.65707 32.8911C1.34405 30.3201 0 26.9026 0 23.5165C0 12.9505 8.75197 9 14.2845 9C19.7232 9 23.6928 11.665 23.8804 11.7904C25.0994 12.637 25.4432 14.2987 24.5993 15.5528C23.7866 16.8069 22.13 17.1205 20.911 16.3053C20.8484 16.2739 18.0041 14.4241 14.2845 14.4241C10.8149 14.4241 6.03261 16.7129 6.03261 23.5165C6.03261 27.3729 8.90825 31.9505 14.1594 31.9505C17.1289 31.9505 19.1918 31.1667 20.4108 30.3828V26.3696H16.3474C14.8783 26.3696 13.6906 25.1469 13.6906 23.6733C13.6906 22.1683 14.8783 20.9769 16.3474 20.9769H23.1302C24.5993 20.9769 25.7871 22.1997 25.7871 23.6733V31.731C25.7871 32.4521 25.5057 33.1733 24.9744 33.6749C23.1927 35.4307 19.2543 37.4686 14.0969 37.4686Z" fill="black"/>
</svg>
