<svg width="286" height="48" viewBox="0 0 286 48" fill="none" xmlns="http://www.w3.org/2000/svg">
<path d="M181.457 36.9441C174.483 36.9441 170.744 31.7706 170.744 24.8292C170.744 17.2737 175.171 12.7143 181.476 12.7143C187.242 12.7143 189.53 15.208 191.148 19.6371L185.252 21.9261C184.415 19.7488 183.615 18.3717 181.457 18.3717C178.742 18.3717 177.57 21.0887 177.57 24.8106C177.57 28.4023 178.705 31.2496 181.532 31.2496C183.578 31.2496 184.452 30.133 185.717 27.9184L191.222 30.8402C189.66 33.948 187.037 36.9441 181.457 36.9441Z" fill="black"/>
<path d="M206.083 25.5923C205.321 24.7549 204.447 24.1222 203.275 24.1222C201.805 24.1222 200.894 24.8294 200.894 26.9695V36.5721H194.849V18.9487H200.894V20.2328C201.936 19.2278 203.107 18.5951 204.651 18.5951C205.935 18.5951 206.79 18.8929 207.497 19.3395L206.083 25.5923Z" fill="black"/>
<path d="M220.442 36.572V35.3996C219.363 36.237 218.099 36.9442 216.053 36.9442C212.184 36.9442 210.343 34.3574 210.343 29.7236V18.9486H216.425V28.9606C216.425 31.2496 217.187 31.8451 218.433 31.8451C219.68 31.8451 220.442 31.2496 220.442 29.0164V18.9486H226.524V36.572H220.442Z" fill="black"/>
<path d="M240.976 36.5717V26.5597C240.976 24.2707 240.214 23.6752 238.967 23.6752C237.684 23.6752 236.921 24.2707 236.921 26.5038V36.5717H230.877V18.9483H236.921V20.1207C238.037 19.2833 239.265 18.5761 241.348 18.5761C245.217 18.5761 247.058 21.1629 247.058 25.7967V36.5717H240.976Z" fill="black"/>
<path d="M258.832 36.9439C253.661 36.9439 250.573 33.65 250.573 27.7135C250.573 22.2981 253.326 18.5761 258.962 18.5761C262.291 18.5761 264.188 20.1207 265.732 22.5958L261.566 25.7595C260.729 24.2149 260.152 23.4705 258.85 23.4705C257.307 23.4705 256.525 25.0151 256.525 27.8065C256.525 30.598 257.362 32.0309 259.018 32.0309C260.152 32.0309 260.971 31.3982 262.068 29.7419L265.9 32.7381C263.854 35.7529 261.956 36.9439 258.832 36.9439Z" fill="black"/>
<path d="M279.421 36.5719V26.5599C279.421 24.2709 278.659 23.6754 277.413 23.6754C276.129 23.6754 275.367 24.2709 275.367 26.5041V36.5719H269.322V14.5008L275.367 12.0815V20.1209C276.483 19.2835 277.71 18.5763 279.793 18.5763C283.662 18.5763 285.503 21.1631 285.503 25.7969V36.5719H279.421Z" fill="black"/>
<path d="M107.319 18.7436V36.5717H100.81V18.7436H94.2254V13.0677H113.885V18.7436H107.319Z" fill="#0A9E01"/>
<path d="M129.1 29.4818H118.758C118.963 31.4358 120.097 32.2919 121.753 32.2919C123.297 32.2919 124.58 31.9569 126.31 31.045L128.616 34.9159C126.44 36.1999 124.189 36.9257 121.437 36.9257C116.136 36.9257 113.216 33.1665 113.216 27.7511C113.216 21.6658 116.638 18.5579 121.269 18.5579C126.105 18.5579 129.118 21.7402 129.118 28.2908C129.118 28.8119 129.118 29.1841 129.1 29.4818ZM121.102 23.0429C119.725 23.0429 118.963 23.992 118.758 25.7227H123.799C123.483 23.9361 122.887 23.0429 121.102 23.0429Z" fill="#0A9E01"/>
<path d="M140.334 36.9439C135.163 36.9439 132.076 33.65 132.076 27.7135C132.076 22.298 134.828 18.5761 140.464 18.5761C143.793 18.5761 145.69 20.1207 147.234 22.5958L143.068 25.7594C142.231 24.2148 141.654 23.4705 140.352 23.4705C138.809 23.4705 138.027 25.0151 138.027 27.8065C138.027 30.598 138.864 32.0309 140.52 32.0309C141.654 32.0309 142.473 31.3982 143.57 29.7419L147.402 32.7381C145.356 35.7528 143.458 36.9439 140.334 36.9439Z" fill="#0A9E01"/>
<path d="M160.923 36.5719V26.5599C160.923 24.2709 160.161 23.6754 158.915 23.6754C157.631 23.6754 156.869 24.2709 156.869 26.504V36.5719H150.824V14.5008L156.869 12.0815V20.1209C157.985 19.2835 159.212 18.5763 161.295 18.5763C165.164 18.5763 167.005 21.1631 167.005 25.7969V36.5719H160.923Z" fill="#0A9E01"/>
<path d="M0 3V16.4362H13.4289V43.29H26.8392V16.4362H40.268V3H0Z" fill="#0A9E01"/>
<path d="M53.6783 29.8539V16.4363L40.268 16.4362L40.268 43.2901H80.5175V29.8539H53.6783Z" fill="#0A9E01"/>
<path d="M80.5175 3H53.6783L53.6783 16.4363L80.5175 16.4362V3Z" fill="#0A9E01"/>
</svg>
