<svg width="329" height="48" viewBox="0 0 329 48" fill="none" xmlns="http://www.w3.org/2000/svg">
<g clip-path="url(#clip0_201_7648)">
<path fill-rule="evenodd" clip-rule="evenodd" d="M6.18527 17.5723C6.8351 15.8124 7.72861 14.4315 8.8658 13.4162C9.01472 13.3485 9.17717 13.3214 9.33963 13.2943C9.50209 13.2808 9.89469 13.2673 10.531 13.2673C10.883 13.2673 11.1808 13.2943 11.4516 13.3349C11.7223 13.3891 11.9931 13.4839 12.2774 13.6192C12.5617 13.7682 12.9001 13.9577 13.2792 14.2149L8.44612 18.0597L9.58332 18.9668V31.7737C8.35136 31.178 7.32246 30.2168 6.64556 29.0255C5.6979 27.3874 5.22407 25.1807 5.22407 22.4325C5.21053 20.9433 5.53544 19.3187 6.18527 17.5723ZM5.73851 12.658C6.02281 12.658 6.38834 12.7122 6.8351 12.807C7.28185 12.9017 7.68799 12.9965 8.06706 13.0913C5.4136 14.2691 3.35582 16.205 1.90725 18.9261C0.648214 21.3224 -0.00161201 23.9894 0.011926 26.7105C0.011926 30.1898 1.21681 33.1681 3.64012 35.6456C6.06343 38.123 9.01472 39.3685 12.4805 39.3685C15.8243 39.3685 18.6673 38.0824 20.9688 35.5238C23.2703 32.9651 24.4345 29.9461 24.4345 26.4668C24.1232 27.1979 23.7576 27.8071 23.365 28.2944C22.8641 28.8901 22.2955 29.4452 21.6863 29.9326C21.2125 30.3387 20.7793 30.6501 20.4002 30.8531C20.0211 31.0562 19.5338 31.2864 18.9246 31.5436V14.4586C19.6827 14.1472 20.2919 13.8223 20.7522 13.4839C21.2125 13.1589 21.7134 12.6716 22.2549 12.0353C23.6493 10.492 24.421 8.7591 24.5835 6.86377C23.5681 7.52714 22.6611 8.0145 21.8488 8.33942C21.0365 8.65079 20.1294 8.8674 19.1276 8.96216C18.9652 8.96216 18.7486 8.9757 18.4643 9.00278C17.3541 9.00278 15.7025 8.56956 13.5093 7.70313C11.3162 6.8367 9.58332 6.40348 8.31074 6.40348C5.8062 6.40348 3.80258 7.58129 2.28632 9.90983C0.932512 11.9947 0.242073 14.4721 0.242073 17.3557C0.431605 16.4758 0.891898 15.6364 1.62295 14.8377C2.16447 14.242 2.78722 13.7275 3.47766 13.3214C4.15456 12.8882 4.91269 12.658 5.73851 12.658ZM28.8344 39.1249L32.9635 34.5219L30.8786 32.3423V20.0092L32.07 19.2104L35.3868 21.7285V38.0012C35.3868 38.9218 35.3327 39.707 35.2244 40.3568C35.1296 40.966 34.8724 41.5482 34.4933 42.0355L33.329 43.4841C32.801 44.1339 32.1512 44.6484 31.366 45.0274C32.95 44.865 34.2496 44.513 35.2514 43.9579C36.2668 43.4029 37.3092 42.5229 38.3787 41.3316C39.1639 40.438 39.7596 39.5581 40.1522 38.6781C40.5583 37.7711 40.8156 36.8099 40.9374 35.8351V17.5994L39.5159 17.6942L35.0619 14.7023L31.8398 17.3557L30.7974 16.7871V7.77082L29.8498 5.72658L25.6259 9.85567V33.2358L24.3398 34.7521L28.8344 39.1249ZM42.9681 33.9533L50.6036 38.7864L57.8599 31.151L53.9204 33.9533L49.0873 30.4876V27.2656L57.7246 20.8079L52.2281 13.4026L43.4555 19.5218V32.8974L42.9681 33.9533ZM68.3519 10.0994V18.9668C67.7156 19.0344 67.2012 19.1428 66.8086 19.3052C66.416 19.4677 65.9963 19.7384 65.5495 20.1175C64.277 21.1058 63.6542 22.3648 63.6542 23.9081C63.6407 24.3955 63.7084 24.8693 63.8438 25.3296C64.2905 24.9506 64.7237 24.6933 65.1434 24.5715C65.5766 24.4497 66.1046 24.382 66.7409 24.382C67.0523 24.382 67.3095 24.4226 67.499 24.4767C67.6886 24.5444 67.9729 24.6663 68.3519 24.8558V33.5743L74.9043 40.1673L80.9288 34.0481L88.1852 40.1673L98.7583 29.919V12.3737L92.2059 7.35114L87.3729 11.7104L80.7798 7.35114L74.9043 12.279V9.39538C74.9043 8.44772 74.2274 7.37822 72.8601 6.17333C72.4539 5.88904 72.0613 5.5912 71.6958 5.29336C71.3303 4.99553 71.1137 4.56231 71.0595 4.00725C71.0054 3.5605 70.9783 3.11374 70.9648 2.65345C70.9648 1.58395 71.3303 0.717515 72.0613 0.0947661C71.7906 0.040614 71.5198 0.013538 71.2491 0C69.8276 0 68.5685 0.595673 67.4855 1.77348C66.3889 2.96483 65.8474 4.27801 65.8474 5.74012C65.8474 5.95673 65.8745 6.2681 65.9422 6.64716C66.2129 8.1905 67.0117 9.34123 68.3519 10.0994ZM100.031 34.197L105.906 38.3261L110.171 34.2918L115.248 37.8523L119.607 33.1546H118.091L116.155 31.151V17.261L115.112 17.4505L110.184 13.3214L100.843 19.7655V33.3712L100.031 34.197ZM128.325 14.242C127.73 13.9577 127.161 13.5922 126.647 13.1725L118.916 18.6283V27.8342L119.634 28.4028H124.237L118.267 38.7864C119.187 38.0012 119.891 37.4732 120.406 37.216C121.123 36.864 121.922 36.688 122.734 36.688C123.75 36.688 124.562 36.8099 125.198 37.04C125.834 37.2702 126.484 37.6898 127.148 38.299L134.729 32.3288V22.9875L134.16 22.419H129.084V21.9451L133.592 14.0254C133.118 14.3097 132.739 14.4721 132.455 14.5263C131.994 14.5804 131.534 14.6075 131.074 14.594H130.072C129.463 14.6075 128.867 14.4857 128.325 14.242ZM140.347 38.4615L144.517 33.818L142.432 31.6383V19.3052L143.569 18.4929L146.94 21.0516V37.2701C146.954 38.0554 146.9 38.8406 146.778 39.6258C146.669 40.235 146.412 40.8036 145.993 41.3045C145.735 41.6159 145.397 42.0761 144.95 42.6854C144.382 43.3487 143.691 43.8902 142.906 44.2964C144.354 44.1745 145.654 43.8226 146.778 43.2404C147.901 42.6583 148.957 41.7918 149.932 40.6547C150.663 39.8018 151.232 38.9083 151.638 37.9741C152.044 37.04 152.315 36.0788 152.45 35.1041V16.8819L151.069 17.0308L146.561 14.0389L143.339 16.6518L142.297 16.0832V7.10746L141.39 5.0226L137.125 9.1517V32.586L135.839 34.0481L140.347 38.4615ZM163.159 10.4378L158.894 6.97208L155.429 10.7627L159.03 14.0389L163.159 10.4378ZM156.471 21.1464V34.0481L155.564 35.429H157.175L160.871 38.5563L164.756 34.9958L169.738 39.0301L174.098 34.197L172.717 32.4506V20.3612L173.854 19.7926L176.372 22.5408V34.3866L180.785 38.2314L185.05 33.3983H183.06L181.922 31.5436V18.6418L182.491 17.4505L181.354 17.6942L176.995 14.2285L172.73 18.6418L167.748 14.7023L163.619 19.3052H165.23L166.611 20.9162V32.762L163.863 33.7097L162.103 32.3288V19.048L162.671 18.2357L157.744 14.5804L153.709 18.8449L155.09 19.2781L156.471 21.1464ZM241.747 33.6284L240.38 31.8685V19.779L241.517 19.2104L244.035 21.9587V33.8586L248.448 37.6492L252.713 32.8161H250.723L249.586 30.9614V18.0597L250.154 16.9225L249.017 17.112L244.658 13.6463L240.393 18.0597L235.411 14.1201L231.282 18.7231H232.893L234.274 20.3341V32.234L232.568 34.5084L237.835 37.9741L241.747 33.6284ZM185.97 33.7232C186.607 33.7232 187.175 33.8044 187.703 33.9669C188.231 34.1293 188.732 34.4001 189.247 34.7927C189.747 35.1853 190.127 35.5644 190.357 35.9299C190.587 36.2954 190.79 36.7963 190.952 37.4191L188.488 40.6005L185.876 44.1068C186.539 43.7278 187.108 43.4976 187.581 43.4164C188.055 43.3352 188.746 43.2946 189.666 43.2946C190.736 43.3893 191.656 43.6466 192.414 44.0527C193.173 44.4588 193.863 45.0816 194.499 45.9074C196.016 45.3388 197.776 44.0662 199.793 42.1168C201.81 40.1538 202.812 38.5427 202.812 37.2837C202.812 37.0671 202.582 36.3766 202.121 35.253C201.661 34.1023 201.431 32.8838 201.431 31.6383V16.8819L194.838 12.7528L186.539 18.6283V32.6672L185.97 33.7232ZM202.338 17.5047H205.086V33.9669L204.423 35.253H206.034L209.499 37.9064L213.953 32.8297H212.004L210.718 31.4488V17.8296L213.52 14.3638H210.718V5.3069L205.073 10.5732V14.1743L202.338 17.5047ZM214.333 33.7232L220.208 37.8929L230.456 30.7313V16.7871L229.414 17.0308L224.473 12.8611L215.131 19.3052V32.9244L214.333 33.7232ZM262.474 10.1941V14.6075C261.648 14.6075 260.958 14.6887 260.389 14.8647C259.82 15.0407 259.279 15.3792 258.751 15.8801C258.223 16.381 257.925 16.9767 257.83 17.64C257.735 18.3034 257.681 19.1698 257.681 20.2529C257.681 20.6996 257.668 20.9975 257.627 21.1599C258.318 20.0498 259.292 19.5895 260.524 19.779C261.35 19.9009 262 20.2529 262.474 20.8215V28.1726C261.025 28.9307 259.753 29.9325 258.683 31.1645C257.478 32.586 256.666 34.0481 256.26 35.5779C256.801 35.1582 257.37 34.7792 257.966 34.4678C258.439 34.2241 259.103 33.994 259.956 33.7367C260.267 33.642 260.633 33.5337 261.052 33.4254C261.458 33.3171 261.932 33.2629 262.474 33.2629V47.4372L268.688 42.3604L270.773 43.8767V35.808L273.426 36.7151L282.388 30.5011V9.62553L276.648 5.0226L270.773 9.95044V7.35114L269.635 6.40348V10.5732L268.688 11.2366V6.87731L263.855 3.1679L258.115 8.81325C258.588 8.52895 259.076 8.38003 259.577 8.38003C259.983 8.38003 260.389 8.44772 260.768 8.56956C261.621 8.89448 262.19 9.436 262.474 10.1941ZM283.201 34.197L289.076 38.3261L299.365 31.1645V17.261L298.323 17.4505L293.341 13.3214L283.999 19.7655V33.3712L283.201 34.197ZM310.426 14.0389C309.816 13.7411 309.221 13.3891 308.666 12.9965L300.976 18.3982V27.604L301.639 28.1726H306.242L300.272 38.5563C300.935 37.9877 301.49 37.568 301.937 37.2701C302.763 36.7286 303.711 36.4579 304.78 36.4579C305.768 36.4579 306.567 36.5797 307.203 36.8099C307.84 37.0535 308.49 37.4597 309.153 38.0689L316.748 32.0986V22.7574L316.179 22.1888H311.102V21.715L315.611 13.7952C315.137 14.0795 314.758 14.242 314.473 14.2961C314.189 14.3503 313.729 14.3638 313.093 14.3638H312.104C311.454 14.3638 310.899 14.2555 310.426 14.0389ZM316.87 17.7348H319.618V34.197L318.954 35.4831H320.565L323.977 38.1366L328.485 33.0598H326.536L325.25 31.679V18.0732L327.998 14.6075H325.25V5.55059L319.631 10.8169V14.418L316.87 17.7348ZM106.475 18.168L110.171 20.9162V31.9633L108.98 33.2494L106.461 31.0697L106.475 18.168ZM198.304 37.6086C199.062 38.1501 199.441 38.827 199.441 39.6528C199.441 40.0319 199.4 40.3162 199.346 40.5057C199.156 40.79 199.007 40.9796 198.913 41.0743C198.655 41.3316 198.331 41.494 197.965 41.5482C197.559 41.6159 197.017 41.4128 196.354 40.9525C195.691 40.4922 194.689 40.2621 193.362 40.2621C192.509 40.2621 191.738 40.3433 191.034 40.5057C190.343 40.6682 189.612 40.939 188.854 41.318L195.785 32.7755V33.8721C195.785 34.5084 195.84 35.0228 195.948 35.4425C196.056 35.8487 196.3 36.2548 196.679 36.6339C197.22 36.9588 197.762 37.2972 198.304 37.6086ZM192.184 17.5994L195.785 20.2529V30.975L194.743 32.1122L192.184 29.5535V17.5994ZM49.0873 25.8982V18.9668L52.553 23.326L49.0873 25.8982ZM130.343 18.0732L127.121 23.8134H124.697V17.5994C125.645 18.1951 126.674 18.5065 127.784 18.5065C128.664 18.4929 129.517 18.3575 130.343 18.0732ZM220.777 17.6942L224.473 20.4966V31.5436L223.295 32.8297L220.777 30.5959V17.6942ZM125.591 27.2656H129.056V33.3847C128.569 33.2087 128.068 33.0734 127.567 32.9786C127.229 32.938 126.552 32.9109 125.51 32.9109C124.9 32.8974 124.305 32.9651 123.709 33.1004C123.208 33.2223 122.599 33.4389 121.908 33.7232L125.591 27.2656ZM268.688 14.3638L269.635 13.5516V40.6276L268.688 40.059V14.3638ZM270.773 12.8476L273.67 10.9929L275.755 12.5091V30.3387C274.766 29.7701 274.238 29.4723 274.144 29.4316L273.101 29.0932C272.329 28.9037 271.544 28.7141 270.773 28.5246V12.8476ZM17.3541 14.9324C17.6655 14.9324 17.9227 14.9054 18.1123 14.8377V32.0986C16.9209 32.6943 15.6077 33.0057 14.2675 33.0057C13.4823 33.0057 12.6835 32.9109 11.8983 32.7214C11.1131 32.5318 10.4904 32.2746 10.0436 31.9633L15.4453 26.5616V14.7023C15.6754 14.8241 15.9191 14.9054 16.1763 14.9189C16.4471 14.9324 16.6231 14.946 16.7179 14.946L17.3541 14.9324ZM289.658 18.168L293.354 20.9162V31.9633L292.217 33.2494L289.658 31.0697V18.168ZM74.8908 13.6599L76.6507 12.279L80.306 15.9749V33.0057L78.8304 34.5219L74.8908 30.7313V13.6599ZM311.184 18.168C311.59 18.1003 311.996 17.992 312.361 17.8296L309.139 23.5697H306.716V17.3557C307.65 17.9514 308.733 18.2628 309.843 18.2628C310.331 18.2628 310.778 18.2222 311.184 18.168ZM307.623 27.0354H311.089V33.1546C310.602 32.9786 310.101 32.8432 309.6 32.7485C309.261 32.6943 308.584 32.6808 307.528 32.6808C306.919 32.6672 306.31 32.7349 305.728 32.8703C305.132 33.0328 304.536 33.2358 303.968 33.493L307.623 27.0354ZM87.3593 13.6599L89.0787 12.279L92.7745 15.9749V33.0057L91.2583 34.5219L87.3729 30.7313L87.3593 13.6599Z" fill="#231F20"/>
</g>
<defs>
<clipPath id="clip0_201_7648">
<rect width="329" height="48" fill="white"/>
</clipPath>
</defs>
</svg>
