<svg width="324" height="48" viewBox="0 0 324 48" fill="none" xmlns="http://www.w3.org/2000/svg">
<g clip-path="url(#clip0_201_7638)">
<path d="M9.2717 29.4162V17.343L5.60881 18.9894C5.60881 18.9894 4.66533 21.0747 4.83183 24.093C4.94282 26.4528 6.27479 29.2516 7.32926 30.4589L9.2717 29.4162ZM20.0384 4.55644C20.9264 4.61132 22.3693 5.05034 23.4238 5.98327C24.5893 7.08083 24.8113 8.72717 24.4228 10.2638C24.0898 11.5808 23.6458 12.2942 22.2583 13.2272C20.8709 14.1601 19.1504 14.1052 19.1504 14.1052V19.9223L22.0364 22.2272L19.1504 24.5321V32.4894C19.1504 32.4894 22.0364 30.843 23.8123 27.2211C23.8123 27.2211 23.8678 27.0016 24.0343 26.6723C24.2008 27.6601 24.0898 29.6357 22.9798 32.1601C22.2028 33.9711 20.6489 35.7821 18.7619 36.8796C15.3765 38.7455 12.8236 38.9101 10.0487 38.3613C6.82977 37.7028 3.94385 35.9467 1.94591 32.8186C0.558445 30.6235 -0.0520378 28.0991 0.00346067 25.3552C0.114458 19.9772 4.16585 15.3674 8.82772 13.6113C9.3827 13.3918 9.60469 13.2821 10.4372 13.1723C10.0487 13.4467 9.66019 13.7211 9.10521 14.1052C7.60675 15.093 6.33029 17.0138 5.7753 18.4955L14.8215 14.4894V27.0016L7.49575 30.6235C8.32823 31.776 10.8812 33.4772 12.9901 33.7516C16.653 34.1357 18.8174 32.5442 18.8174 32.5442V24.4223L15.987 22.1174L18.8174 19.8125V14.1052C17.2635 13.9406 15.3765 13.4467 14.2666 13.1723C12.7126 12.7333 7.27376 11.2516 6.44128 11.0869C5.60881 10.9772 4.55433 10.9772 3.88835 11.5808C3.27787 12.1296 2.83388 13.1174 3.11137 14.0503C3.27787 14.5442 3.61086 14.8735 3.88835 15.1479C3.88835 15.1479 3.55536 15.1479 3.00038 14.7638C2.00141 14.1601 1.22443 12.9528 1.11343 11.526C1.00243 9.60522 1.83491 7.84912 3.44437 6.69669C4.83183 5.81864 6.38578 5.26986 8.21723 5.48937C10.8812 5.87352 14.4886 7.35522 17.652 8.12351C18.8729 8.39791 19.8719 8.50766 20.7044 8.01376C21.0929 7.73937 21.8144 6.97108 21.2594 5.98327C20.5934 4.83083 19.2614 4.83083 18.1515 4.6662C19.0949 4.50156 19.3169 4.50156 20.0384 4.55644Z" fill="black"/>
<path d="M55.2246 26.2867L51.1177 29.2501V19.3172L55.2246 26.2867ZM55.1136 16.7379C55.1136 16.7379 52.3387 18.3843 50.4518 19.4818C48.5648 20.5794 46.0674 21.7867 46.0674 21.7867V33.3111L44.4024 34.6282L44.6244 34.9026L46.2339 33.5855L51.3397 38.1404L60.2195 31.1709L59.9975 30.8965L55.1136 34.6831L51.0622 30.9514V29.5794L59.165 23.7075L55.1136 16.7379Z" fill="black"/>
<path d="M31.9153 42.5304C33.0807 42.8048 35.1342 42.9695 37.6316 41.7622C40.351 40.3902 41.7385 37.5365 41.7385 34.5731L41.8495 30.4024V21.2378L43.6255 19.9207L43.4035 19.6463L41.6275 20.9085L37.6316 16.5182L32.5258 20.8536V6.14629L26.1434 11.0304C26.4209 11.1951 27.3089 11.3597 27.3644 12.6219V33.2561L24.7005 35.2317L24.867 35.5061L26.1989 34.5182L29.8063 37.8658L35.5227 33.4207L35.3007 33.1463L33.9687 34.189L32.5258 32.817V21.3475L34.1907 19.9207L36.6881 22.9939C36.6881 22.9939 36.6881 30.4573 36.6881 32.9268C36.6881 35.5609 36.6881 38.8536 35.2452 40.4451C33.9132 41.9817 33.3027 42.0914 31.9153 42.5304Z" fill="black"/>
<path d="M71.5967 41.4878C69.3212 41.2134 68.3777 39.8414 68.3777 38.7987C68.3777 38.0853 69.0437 36.7682 70.4312 36.5487C71.8187 36.3841 73.2616 36.9878 74.4271 38.4146L79.6994 32.6524L79.422 32.4329L77.979 34.0243C76.536 32.378 74.4826 31.3902 72.4846 31.0609V13.5L86.1928 38.1951C86.1928 38.1951 86.3038 38.4695 86.9142 38.4695C87.4137 38.4695 87.3027 38.0853 87.3027 38.0853V13.2256C88.4127 13.1707 90.1331 12.567 90.9656 11.7439C93.6295 9.05483 92.5196 6.14629 92.2421 5.8719C92.0756 7.1341 91.0766 8.45117 89.4117 8.45117C87.2472 8.45117 85.9153 6.85971 85.9153 6.85971L80.5874 12.7317L80.8649 12.9512L82.3634 11.25C84.1948 12.9512 85.5823 13.0609 86.9697 13.1707V27.6036L76.758 9.32922C75.8146 7.84751 74.4271 6.47556 72.2626 6.47556C69.7097 6.47556 67.9338 8.67068 67.7118 10.5365C67.4898 12.6768 67.7118 13.1707 67.7118 13.1707C67.7118 13.1707 68.1003 10.8109 69.5987 10.8109C70.9307 10.8109 71.6522 12.0731 72.1516 12.9512V18.2195C70.7642 18.3292 67.1568 18.4939 66.9348 22.1707C66.9348 23.5426 67.7673 24.9695 68.5443 25.4634C69.5432 26.1219 70.2647 26.067 70.2647 26.067C70.2647 26.067 69.0992 25.4634 69.4322 24.2561C69.7652 23.1585 72.0406 22.9939 72.0961 23.4329V30.8963C70.9862 30.8963 67.4898 31.0061 65.8803 33.9695C64.9369 35.7804 64.9923 37.8109 65.9913 39.2378C66.9348 40.5 68.6552 41.9817 71.5967 41.4878Z" fill="black"/>
<path d="M100.622 26.2867L96.5154 29.2501V19.3172L100.622 26.2867ZM100.511 16.7379C100.511 16.7379 97.7364 18.3843 95.8495 19.4818C93.9625 20.5794 91.4651 21.7867 91.4651 21.7867V33.3111L89.8001 34.6282L90.0221 34.9026L91.6316 33.5855L96.7374 38.1404L105.617 31.1709L105.395 30.8965L100.511 34.6831L96.4599 30.9514V29.5794L104.563 23.7075L100.511 16.7379Z" fill="black"/>
<path d="M112.943 38.2501L108.614 34.6831L106.727 36.055L106.561 35.7806L108.503 34.3538V24.4209C108.614 20.305 104.674 21.3477 104.896 16.9575C105.007 15.0367 106.838 13.6099 107.837 13.116C108.836 12.6221 109.946 12.6221 109.946 12.6221C109.946 12.6221 108.17 13.7197 108.614 15.3111C109.28 17.7257 113.498 17.9453 113.554 21.2379V32.4879L116.661 34.9575L117.494 34.2989V22.0611L115.829 20.4148L120.158 16.6282L124.098 20.0855L122.6 21.677V32.5428L126.318 35.5611L126.984 35.1221V22.116L125.319 20.5794L129.648 16.6831L133.699 19.9757L135.309 18.5489L135.531 18.8233L131.868 22.0062V32.6526L122.544 38.305L117.771 34.5733L112.943 38.2501Z" fill="black"/>
<path d="M303.469 26.2867L299.362 29.2501V19.3172L303.469 26.2867ZM303.358 16.7379C303.358 16.7379 300.583 18.3843 298.696 19.4818C296.809 20.5794 294.312 21.7867 294.312 21.7867V33.3111L292.647 34.6282L292.869 34.9026L294.478 33.5855L299.584 38.1404L308.464 31.1709L308.242 30.8965L303.358 34.6831L299.307 30.9514V29.5794L307.465 23.7623L303.358 16.7379Z" fill="black"/>
<path d="M261.734 21.5671L261.956 21.8415L263.621 20.4147L266.119 23.1586V32.7074L264.898 33.8049L268.783 38.0854L272.723 34.2439L271.114 32.5427V21.0732L272.113 20.25L274.832 23.433V32.9269L273.778 33.9696L277.44 37.9756L281.325 34.1342L279.882 32.6525V21.0732L280.937 20.25L283.767 23.3781V32.8171L282.824 33.75L286.82 38.0854L292.259 33.1464L291.981 32.9269L290.705 34.0793L288.707 31.8842V21.1281L290.649 19.6464L290.427 19.372L288.485 20.8537L284.822 16.7927L279.549 20.8537L275.887 16.9025L270.836 20.8537L267.118 16.9574L261.734 21.5671Z" fill="black"/>
<path d="M250.801 21.2926L251.023 21.5121L252.411 20.3048L254.631 22.8841V33.8048L253.077 35.1219L253.299 35.3963L254.908 34.0243L258.46 38.0853L263.621 33.5304L263.399 33.2561L261.901 34.5731L259.736 32.1585V21.5121L261.568 19.9756L261.346 19.7561L259.625 21.1829L255.907 16.8475L250.801 21.2926Z" fill="black"/>
<path d="M252.244 12.238L256.129 8.72584L259.292 12.1832L255.408 15.6954L252.244 12.238Z" fill="black"/>
<path d="M236.316 29.4146V17.3414L232.653 18.9878C232.653 18.9878 231.71 21.0731 231.876 24.0914C231.987 26.4512 233.319 29.25 234.374 30.4573L236.316 29.4146ZM247.083 4.55484C247.971 4.60972 249.414 5.04874 250.468 5.98167C251.634 7.07923 251.856 8.72557 251.467 10.2622C251.134 11.5792 250.69 12.2926 249.303 13.2256C247.915 14.1585 246.195 14.1036 246.195 14.1036V19.9207L249.081 22.2256L246.195 24.5305V32.4878C246.195 32.4878 249.081 30.8414 250.857 27.2195C250.857 27.2195 250.912 27 251.079 26.6707C251.245 27.6585 251.134 29.6341 250.024 32.1585C249.192 34.0792 247.638 35.8902 245.751 36.9329C242.365 38.7987 239.813 38.9634 237.093 38.4146C233.874 37.7561 230.988 36 228.99 32.8719C227.603 30.6768 226.992 28.1524 227.048 25.4085C227.159 20.0304 231.21 15.4207 235.872 13.6646C236.427 13.4451 236.649 13.3353 237.482 13.2256C237.093 13.5 236.705 13.7744 236.15 14.1585C234.651 15.1463 233.375 17.067 232.82 18.5487L241.866 14.5426V27.0548L234.596 30.6768C235.428 31.8292 237.981 33.5305 240.09 33.8048C243.753 34.189 245.917 32.5975 245.917 32.5975V24.4756L243.087 22.1707L245.917 19.8658V14.1036C244.363 13.939 242.476 13.4451 241.366 13.1707C239.757 12.7865 234.318 11.25 233.486 11.1402C232.653 11.0305 231.599 11.0305 230.933 11.6341C230.322 12.1829 229.878 13.1707 230.156 14.1036C230.322 14.5975 230.655 14.9268 230.933 15.2012C230.933 15.2012 230.6 15.2012 230.045 14.817C229.046 14.2134 228.269 13.0061 228.158 11.5792C228.047 9.6585 228.824 7.95728 230.433 6.74996C231.821 5.87191 233.375 5.32313 235.206 5.54265C237.87 5.92679 241.477 7.4085 244.641 8.17679C245.862 8.45118 246.861 8.56094 247.693 8.06704C248.082 7.79265 248.803 7.02435 248.248 6.03655C247.582 4.88411 246.25 4.88411 245.14 4.71948C246.139 4.49996 246.361 4.49996 247.083 4.55484Z" fill="black"/>
<path d="M314.902 18.9879V24.6953L316.844 26.3416C316.844 26.3416 321.007 23.0489 322.561 19.9757C322.561 19.9757 320.674 22.5001 318.121 21.7318C316.012 21.0733 314.902 18.9879 314.902 18.9879ZM310.24 34.1343C310.24 34.1343 312.071 31.116 315.235 31.7745C318.232 32.3782 319.286 35.5611 319.286 35.5611V28.3172L317.177 26.5062C314.846 28.8111 310.74 32.1038 310.24 34.1343ZM313.237 39.677C312.626 39.8416 310.074 39.2379 309.463 36.6038C308.853 34.0794 310.684 32.3233 313.348 29.6343L310.129 26.7257V21.2379C310.129 21.2379 312.46 20.0855 314.291 18.9331C316.123 17.7806 318.01 16.5733 318.01 16.5733C318.01 16.5733 319.397 18.2745 320.951 18.1648C323.393 17.9453 323.282 16.0794 323.171 15.6404C323.56 16.3538 324.67 18.5489 320.452 23.4331L323.948 26.2318V33.366C323.948 33.366 319.897 35.4514 316.123 38.1953C316.123 38.1953 314.014 35.5611 312.127 36.8233C310.906 37.5916 311.461 39.0184 313.237 39.677Z" fill="black"/>
<path d="M173.658 31.5551L178.154 35.5612V23.2685L173.658 19.1527V31.5551ZM182.871 21.5124L184.425 20.0856L184.647 20.36L183.149 21.7319V33.0917C183.149 33.0917 180.263 34.6283 178.209 35.7258C176.211 36.8783 174.047 38.1954 174.047 38.1954L168.719 33.7502L167.332 34.9576L167.11 34.6832L168.608 33.421V21.238C168.608 21.238 171.105 20.1405 173.214 18.9332C175.101 17.8905 177.21 16.6832 177.21 16.6832L182.871 21.5124Z" fill="black"/>
<path d="M193.305 20.3601L196.69 16.9576C196.69 16.9576 197.134 17.3418 197.578 17.5613C197.8 17.6711 198.855 18.2198 199.798 17.6711C200.298 17.3967 200.353 17.3418 200.908 16.793C201.019 19.4272 199.743 21.293 198.133 22.0613C197.467 22.3906 195.58 22.9942 193.527 20.5796V32.8174L195.636 34.6833L197.412 33.2015L197.634 33.4759L192.028 38.0857L187.81 34.2442L186.256 35.6711L185.979 35.3967L188.31 33.3113V22.7198L186.534 20.3601L184.98 21.6772L184.758 21.4576L190.141 16.6284L193.305 20.3601Z" fill="black"/>
<path d="M207.512 25.4636L213.728 16.5184C213.728 16.5184 214.561 17.5062 216.004 17.8355C217.946 18.3294 219.667 16.4636 219.667 16.4636C219.334 18.8782 218.113 21.5672 215.56 22.0062C213.34 22.3904 211.231 20.6343 211.231 20.6343L210.842 21.2379L219.5 34.1892L221.22 32.7075L221.442 32.9818L215.504 38.1404L207.512 25.4636Z" fill="black"/>
<path d="M202.407 13.5001C202.407 11.5794 201.63 10.3721 200.575 10.4818L207.401 5.76233V32.4879L209.177 34.3538L210.565 33.2014L210.787 33.4758L205.292 38.1953L201.574 34.7379L200.076 36.055L199.854 35.7806L202.462 33.5306V13.5001" fill="black"/>
<path d="M158.729 21.0184C158.729 21.0184 157.952 21.8416 156.787 21.8416C155.621 21.8416 154.844 21.0184 154.844 21.0184V24.6953C154.844 24.6953 155.621 23.8721 156.787 23.8721C157.952 23.8721 158.729 24.6953 158.729 24.6953V21.0184ZM158.729 13.1709L156.121 10.866L154.844 11.8538V20.4148C154.844 20.4148 155.621 21.4026 156.787 21.4026C157.952 21.4026 158.729 20.4696 158.729 20.4696V13.1709ZM154.844 37.4818C154.844 37.4818 156.454 37.9209 157.564 36.9879C158.84 35.9453 158.729 34.4635 158.729 34.4635V25.1892C158.729 25.1892 158.008 24.2562 156.787 24.2562C155.621 24.2562 154.844 25.244 154.844 25.244V37.4818ZM145.521 13.0611C145.521 11.2501 144.799 10.2623 143.578 10.2075C141.858 10.1526 141.414 12.5672 141.414 12.5672C141.414 12.5672 141.081 10.7014 142.69 9.00014C143.578 8.06721 145.243 6.75014 147.796 7.3538C150.46 8.01233 151.237 10.0428 151.237 11.8538V36.7135C151.237 36.7135 152.236 36.8233 152.957 36.9879C153.734 37.1526 154.511 37.3721 154.511 37.3721V7.40868H154.844V11.4697L160.283 7.13429L164.279 10.6465L166.166 9.05502L166.388 9.32941L164.446 10.9757V34.0794C164.335 35.5611 164.113 37.0977 162.67 38.0306C159.451 39.8965 155.566 37.7562 152.125 37.2623C149.572 36.8782 145.521 36.3843 144.522 38.744C144.189 39.5123 144.189 40.6648 145.354 41.4331C147.685 42.9696 158.063 38.8538 161.615 40.5001C164.89 41.9818 164.834 44.3416 164.335 45.9879C163.502 49.0611 159.617 49.555 159.617 49.555C159.617 49.555 161.504 48.4574 161.005 46.6465C160.727 45.7135 160.117 45.494 158.063 45.7135C153.623 46.2074 148.296 48.3477 144.688 46.866C142.857 46.0977 141.525 43.8477 141.691 41.5977C141.802 38.3599 145.521 37.0977 145.521 37.0977V25.1892C145.41 24.6953 143.412 24.8599 142.968 25.7379C142.302 27.055 143.8 27.6587 143.8 27.6587C143.8 27.6587 142.579 27.8233 141.525 26.6709C141.025 26.0672 139.971 24.0367 141.358 22.1709C142.468 20.6343 143.856 20.3599 145.576 20.1953V13.0611H145.521Z" fill="black"/>
</g>
<defs>
<clipPath id="clip0_201_7638">
<rect width="324" height="48" fill="white"/>
</clipPath>
</defs>
</svg>
