<svg width="147" height="48" viewBox="0 0 147 48" fill="none" xmlns="http://www.w3.org/2000/svg">
<g clip-path="url(#clip0_201_7632)">
<path d="M33.366 25.4306L35.9066 24.1025V4.23024H33.9638L29.2313 10.428H28.6833L29.032 3.44322H49.5562L49.8551 10.428H49.3072L44.6245 4.23024H42.6318V24.0533L45.2222 25.3814V26.0701H33.366V25.4306ZM51.8478 24.5452V2.50863L49.8551 1.72161V1.3281L57.0287 0H57.8257V10.4772L57.9752 10.3297C59.7187 8.90318 61.8608 8.06697 64.1524 8.06697C67.2908 8.06697 68.6856 9.83777 68.6856 13.0842V24.5452L70.3794 25.4306V26.0701H60.9641V25.4306L62.6579 24.5452V13.035C62.6579 11.2151 61.8608 10.5264 60.3663 10.5264C59.4696 10.5264 58.573 10.7724 57.8755 11.3134V24.5452L59.5195 25.4306V26.0701H50.1042V25.4798L51.8478 24.5452ZM75.5104 17.7572C75.7097 21.3971 77.3536 24.2009 81.2891 24.2009C83.1821 24.2009 84.5271 23.3155 85.7725 22.6761V23.4139C84.0788 25.4798 81.5382 26.6112 78.8481 26.6112C72.7705 26.6112 69.6819 23.2663 69.6819 17.5112C69.6819 11.8545 73.0694 8.3621 78.5492 8.3621C83.7301 8.3621 86.3703 10.9199 86.3703 17.6096V17.7572H75.5104ZM75.4108 16.921L80.7411 16.5766C80.7411 12.0513 79.9441 9.05075 78.3997 9.05075C76.706 9.09993 75.4108 12.5923 75.4108 16.921ZM-0.0107422 34.8749C-0.0107422 25.2831 6.41553 21.889 13.589 21.889C16.6278 21.889 19.5172 22.3809 21.1113 23.0204L21.2607 29.7101H20.5633L16.3787 23.2171C15.5319 22.8728 14.6352 22.7252 13.7385 22.7744C9.95247 22.7744 7.95983 27.103 8.05946 34.2354C8.10928 42.7451 9.65357 46.631 13.1407 46.631C13.8381 46.631 14.5854 46.5326 15.233 46.2867V37.1868L12.8418 35.9078V35.1208H24.0006V35.957L21.7091 37.2359V46.2375C19.019 47.1721 16.1795 47.664 13.2901 47.664C5.17013 47.6148 -0.0107422 43.8764 -0.0107422 34.8749ZM22.9545 30.3987V29.8576L30.4269 28.5295L31.2737 28.5787V43.1386C31.2737 44.9094 32.1206 45.4505 33.5653 45.4505C34.5118 45.4505 35.4085 45.057 36.0063 44.3191V31.2841L33.914 30.3987V29.8084L41.3864 28.5295L42.1336 28.5787V45.3029L44.1761 46.1391V46.6802L36.8531 47.5656L36.1059 47.5164V45.3029H35.9066C34.4122 46.7786 32.4195 47.5656 30.2774 47.6148C26.6907 47.6148 25.0467 45.4997 25.0467 42.3516V31.2841L22.9545 30.3987ZM69.931 28.5295L70.5288 28.5787V33.9895H70.6783C71.4753 30.0544 73.2189 28.5787 75.4108 28.5787C75.7097 28.5787 76.0584 28.6279 76.3573 28.7263V34.1862C75.8591 34.0879 75.3112 34.0387 74.813 34.0387C73.4181 33.9895 72.0233 34.2846 70.7281 34.8257V45.4997L72.4218 46.4343V47.2213H62.7077V46.4835L64.4512 45.5489V30.989L62.4088 30.3987V29.9068L69.931 28.5295ZM88.7117 28.9722V23.2663L86.6692 22.5777V22.135L94.2413 20.7577L94.9387 20.8561V45.3029L97.031 46.0407V46.6802L89.5585 47.664L88.9608 47.6148V45.598H88.8113C87.5161 46.9262 85.7227 47.7132 83.8297 47.664C79.7448 47.664 76.8056 44.6143 76.8056 38.3181C76.8056 31.6776 80.2429 28.4311 85.4736 28.4311C86.5696 28.382 87.6655 28.5787 88.7117 28.9722ZM88.7117 44.6143V30.0052C88.1637 29.5133 87.4165 29.3165 86.6692 29.3657C84.6268 29.4149 83.3814 32.4646 83.3814 37.8262C83.3814 42.6467 84.278 45.3521 86.9681 45.2537C87.6157 45.2537 88.2135 45.057 88.7117 44.6143ZM105.201 28.5295L105.848 28.5787V45.5489L107.542 46.4835V47.2213H97.828V46.4835L99.5716 45.5489V31.2349L97.4793 30.3987V29.8084L105.201 28.5295ZM105.898 23.955C105.848 25.7258 104.354 27.103 102.561 27.0539C101.365 27.103 100.269 26.5128 99.6712 25.529C99.0734 24.5452 99.0734 23.3155 99.6712 22.2825C100.269 21.2988 101.365 20.7085 102.561 20.7577C104.404 20.7085 105.898 22.135 105.898 23.955ZM127.718 45.5489V31.0873L125.675 30.3987V29.7101L133.148 28.3328L133.895 28.382V30.5463H134.094C135.887 29.0706 138.129 28.2344 140.471 28.2344C143.709 28.2344 145.153 29.7592 145.153 33.1533V45.5489L146.897 46.5326V47.2213H137.183V46.4835L138.926 45.5489V33.4484C138.926 31.5792 138.129 30.8414 136.585 30.8414C135.638 30.7922 134.742 31.0873 134.044 31.6284V45.4997L135.738 46.4343V47.2213H126.024V46.4835L127.718 45.5489ZM117.157 36.4489V34.0387C117.157 30.3987 116.36 29.2182 114.068 29.2182C113.819 29.2182 113.57 29.2674 113.271 29.2674L109.186 34.7273H108.638V29.7101C110.83 28.9722 113.122 28.5787 115.463 28.5295C120.445 28.5295 123.334 29.9068 123.334 33.9895V45.7948L125.127 46.2375V46.7294C123.981 47.3197 122.736 47.5656 121.441 47.5656C119 47.5656 117.804 46.7786 117.256 45.4505H117.107C116.061 46.8278 114.566 47.6148 112.275 47.6148C109.336 47.6148 107.293 45.7948 107.293 42.6467C107.293 39.597 109.236 37.9246 113.122 37.1868L117.157 36.4489ZM117.157 44.6143V37.3343L115.911 37.4327C113.968 37.5803 113.271 38.81 113.271 41.5646C113.271 44.5159 114.267 45.3029 115.612 45.3029C116.21 45.3029 116.758 45.1062 117.157 44.6143ZM54.0895 36.4489V34.0387C54.0895 30.3987 53.2924 29.2182 51.0009 29.2182C50.7518 29.2182 50.5027 29.2674 50.2038 29.2674L46.1189 34.7273H45.571V29.7101C47.7629 28.9722 50.0544 28.5787 52.3958 28.5295C57.3774 28.5295 60.2667 29.9068 60.2667 33.9895V45.7948L62.0601 46.2375V46.7294C60.9143 47.3197 59.6689 47.5656 58.3737 47.5656C55.9327 47.5656 54.7371 46.7786 54.1891 45.4505H54.0397C52.9936 46.8278 51.4991 47.6148 49.2075 47.6148C46.2684 47.6148 44.2259 45.7948 44.2259 42.6467C44.2259 39.597 46.1189 37.9246 50.0544 37.1868L54.0895 36.4489ZM54.0895 44.6143V37.3343L52.8441 37.4327C50.9013 37.5803 50.2038 38.81 50.2038 41.5646C50.2038 44.5159 51.2002 45.3029 52.5452 45.3029C53.0932 45.3029 53.691 45.1062 54.0895 44.6143Z" fill="black"/>
</g>
<defs>
<clipPath id="clip0_201_7632">
<rect width="147" height="48" fill="white"/>
</clipPath>
</defs>
</svg>
