<svg width="206" height="48" viewBox="0 0 206 48" fill="none" xmlns="http://www.w3.org/2000/svg">
<path d="M0 3H41.1C41.1 16.9829 41.1 31.0171 41.1 45H0V3ZM3.02357 9.60732C4.86846 18.1098 6.50836 26.7146 8.25075 35.2683C8.55823 36.2927 8.35324 37.6244 9.37818 38.3415C11.1718 38.6488 13.0167 38.5463 14.8104 38.4439C15.784 38.4951 16.0403 37.3171 16.194 36.5488C17.4239 30.4537 18.7564 24.4098 19.9863 18.3146C20.0888 17.7512 20.2425 17.1878 20.4988 16.6756C22.0362 23.2317 23.3173 29.7878 24.701 36.3439C24.906 37.061 24.9572 37.8805 25.6235 38.3415C27.5708 38.5976 29.5695 38.5976 31.5168 38.3415C32.2343 37.9317 32.2343 37.061 32.4393 36.3439C34.2329 27.4317 35.9241 18.4683 37.8202 9.5561C36.0778 9.5561 34.3867 9.5561 32.6443 9.5561C31.2606 17.3415 30.1844 25.1268 28.647 32.861C26.9559 26.3049 25.7772 19.5951 24.291 12.9366C23.9323 11.8098 24.086 10.1707 22.8561 9.5561C21.3187 9.45366 19.8326 9.45366 18.2951 9.5561C17.4239 9.60732 17.219 10.6317 17.0652 11.2976C15.8865 17.9561 14.4516 24.5122 13.1192 31.0683C12.9655 31.6829 12.7605 32.2463 12.5555 32.861C11.1718 25.1268 9.89065 17.3415 8.66073 9.60732C6.76459 9.60732 4.9197 9.60732 3.02357 9.60732Z" fill="black"/>
<path d="M81.8925 3H122.993C122.993 16.9829 122.993 31.0171 122.993 45H81.8925C81.8925 31.0171 81.8925 16.9829 81.8925 3ZM91.1682 9.60732C91.1682 19.2366 91.1682 28.8146 91.1682 38.3927C93.0643 38.3927 94.9604 38.3927 96.8566 38.3927C96.8566 34.6537 96.8566 30.8634 96.8566 27.1244C99.9314 27.1244 103.057 27.1244 106.132 27.1244C107.26 27.0219 108.592 27.8415 108.592 29.0707C108.746 32.1951 109.002 35.2683 109.207 38.3927C111.001 38.3927 112.846 38.3927 114.639 38.3927C114.127 34.8585 114.742 31.222 113.768 27.7902C113.256 25.9976 111.257 25.5878 109.72 25.1268C110.898 24.5122 112.384 24.461 113.204 23.3341C114.434 21.7976 114.537 19.7488 114.537 17.8537C114.537 15.6512 114.588 13.2439 113.153 11.4C112.026 9.86341 109.925 9.65854 108.182 9.65854C102.443 9.60732 96.8053 9.60732 91.1682 9.60732Z" fill="black"/>
<path d="M163.888 3H205.5V45H163.888C163.888 31.0171 163.888 16.9829 163.888 3ZM173.163 9.60732C173.163 19.2366 173.163 28.8146 173.163 38.3927C177.98 38.3927 182.746 38.3927 187.512 38.3927C190.485 38.3415 193.918 37.778 195.661 35.1659C197.762 31.8366 197.403 27.7902 197.813 24.0512C197.454 20.3122 197.762 16.2146 195.661 12.8854C194.021 10.4268 190.843 9.76097 188.076 9.65854C183.105 9.5561 178.134 9.60732 173.163 9.60732Z" fill="black"/>
<path d="M51.5544 9.30001C58.1652 9.30001 64.7761 9.30001 71.4382 9.30001C71.4382 11.0415 71.4382 12.7317 71.4382 14.4732C69.0808 14.4732 66.7747 14.4732 64.4174 14.4732C64.4174 20.8244 64.4174 27.1756 64.4174 33.5268C66.7747 33.5268 69.0808 33.5268 71.4382 33.5268C71.4382 35.2171 71.4382 36.9585 71.4382 38.7C64.8273 38.7 58.2165 38.7 51.5544 38.7C51.5031 36.9585 51.5031 35.2683 51.5544 33.5268C53.9117 33.5268 56.2179 33.5268 58.5752 33.5268C58.5752 27.1756 58.5752 20.8244 58.5752 14.4732C56.2179 14.4732 53.9117 14.4732 51.5544 14.4732C51.5544 12.7317 51.5544 11.0415 51.5544 9.30001Z" fill="black"/>
<path d="M130.321 9.30002C138.418 9.2488 146.566 9.2488 154.663 9.30002C154.663 12.4756 154.663 15.6512 154.663 18.8781C152.921 18.8781 151.127 18.8781 149.385 18.8781C149.385 17.3927 149.385 15.9586 149.385 14.4732C146.207 14.4732 143.03 14.4732 139.853 14.4732C139.853 16.6756 139.853 18.8781 139.853 21.0805C142.415 21.0805 144.977 21.0805 147.54 21.0805C147.54 22.7195 147.54 24.3586 147.54 25.9976C144.977 25.9976 142.415 25.9976 139.853 25.9976C139.853 28.5073 139.853 31.0171 139.853 33.5268C143.133 33.4756 146.361 33.5268 149.641 33.5268C149.641 31.8366 149.641 30.1976 149.641 28.5073C151.435 28.5073 153.228 28.5073 155.022 28.5073C155.022 31.8878 155.022 35.3195 155.022 38.7C146.771 38.7 138.572 38.7 130.321 38.7C130.27 36.9586 130.321 35.2683 130.321 33.5268C131.653 33.5268 132.934 33.5268 134.216 33.5268C134.216 27.1756 134.216 20.8244 134.216 14.4732C132.934 14.4732 131.602 14.4732 130.321 14.4732C130.321 12.7317 130.321 11.0415 130.321 9.30002Z" fill="black"/>
<path d="M96.8568 14.3195C100.495 14.3707 104.185 14.2171 107.824 14.3707C109.259 15.3439 108.951 17.3927 109.002 18.878C108.951 20.261 108.9 22.4634 107.055 22.5658C103.673 22.7195 100.239 22.5658 96.8055 22.6171C96.8568 19.9024 96.8568 17.0854 96.8568 14.3195Z" fill="black"/>
<path d="M178.852 14.3195C181.927 14.3195 185.053 14.3195 188.127 14.3195C189.511 14.3195 191.1 14.9854 191.51 16.3683C192.483 19.1341 192.073 22.1561 192.176 25.0244C192.073 27.3293 192.33 29.7366 191.356 31.8878C190.69 33.2707 188.999 33.6293 187.615 33.6293C184.694 33.6293 181.773 33.6293 178.852 33.6293C178.852 27.2268 178.852 20.7732 178.852 14.3195Z" fill="black"/>
</svg>
